<svg xmlns="http://www.w3.org/2000/svg" xmlns:xlink="http://www.w3.org/1999/xlink" version="1.1" x="0px" y="0px" viewBox="0 0 100 100" enable-background="new 0 0 100 100" xml:space="preserve"><g><g><path d="M37.792,90.999c-1.496-2.307-13.341-22.682-15.878-28.019c-2.532-5.333,0.803-7.604,0.803-7.604    c4.268-2.402,6.403,0.133,7.471,1.067c1.067,0.934,6.402,10.274,6.402,10.274s0-39.358,0-42.696c0-3.333,2.936-5.328,5.27-5.328    c3.805,0,5.539,2.665,5.539,5.063c0,2.4,0,21.346,0,21.346s0.934-4.669,6.136-4.27c5.205,0.401,4.803,7.871,4.803,7.871    c0.269-2.937,2.739-4.403,5.739-4.403c2.803,0,4.404,2.134,4.668,3.871c0.269,1.733,0.269,6.27,0.269,6.27    c0.666-3.337,4.336-4.134,6.403-3.733c1.206,0.23,4.534,1.464,4.402,4.668c-0.132,3.199-1.47,15.873-2.402,24.681    C76.484,88.864,71.603,95,67.135,95c0,0-20.002,0-22.273,0C42.592,95,39.646,93.855,37.792,90.999z"></path></g><path d="M49.345,23.367c0.172-0.629,0.26-1.29,0.26-1.972c0-4.185-3.402-7.585-7.588-7.585c-4.182,0-7.586,3.401-7.586,7.585   c0,0.682,0.09,1.343,0.26,1.972l0.002,6.437c-2.347-2.046-3.833-5.056-3.833-8.409c0-6.154,5.005-11.157,11.157-11.157   c6.154,0,11.161,5.003,11.161,11.157c0,3.351-1.488,6.361-3.833,8.407V23.367z"></path><path d="M49.344,34.311c4.488-2.559,7.523-7.392,7.523-12.916c0-8.188-6.661-14.851-14.851-14.851   c-8.186,0-14.848,6.663-14.848,14.851c0,5.524,3.035,10.357,7.522,12.916l0.004,1.747c-5.372-2.691-9.07-8.257-9.07-14.663   C25.625,12.353,32.979,5,42.017,5c9.04,0,16.396,7.352,16.396,16.394c0,6.405-3.698,11.966-9.067,14.659L49.344,34.311z"></path></g></svg>