<svg xmlns="http://www.w3.org/2000/svg" xmlns:xlink="http://www.w3.org/1999/xlink" xmlns:sketch="http://www.bohemiancoding.com/sketch/ns" viewBox="0 0 60 39" version="1.1" x="0px" y="0px"><title>170 - Coin (Solid)</title><desc>Created with Sketch.</desc><g stroke="none" stroke-width="1" fill="none" fill-rule="evenodd" sketch:type="MSPage"><g sketch:type="MSLayerGroup" fill="#000000"><path d="M30,0 C13.178,0 0,6.589 0,15 L0,24 C0,32.411 13.178,39 30,39 C46.822,39 60,32.411 60,24 L60,15 C60,6.589 46.822,0 30,0 L30,0 Z M30,2 C45.178,2 58,7.953 58,15 C58,22.047 45.178,28 30,28 C14.822,28 2,22.047 2,15 C2,7.953 14.822,2 30,2 L30,2 Z M34.697,29.824 C34.759,29.819 34.82,29.813 34.883,29.808 C35.515,29.758 36.138,29.697 36.755,29.629 C36.836,29.62 36.919,29.615 37,29.605 L37,36.569 C36.018,36.692 35.017,36.788 34,36.859 L34,29.869 C34.232,29.854 34.466,29.842 34.697,29.824 L34.697,29.824 Z M39,29.339 C39.05,29.331 39.098,29.322 39.147,29.315 C39.242,29.3 39.334,29.283 39.428,29.268 C39.998,29.177 40.559,29.076 41.113,28.969 C41.243,28.944 41.373,28.92 41.502,28.894 C41.669,28.86 41.835,28.826 42,28.791 L42,35.698 C41.029,35.919 40.026,36.111 39,36.279 L39,29.339 L39,29.339 Z M44,28.319 C44.392,28.218 44.777,28.112 45.158,28.003 C45.262,27.973 45.367,27.945 45.47,27.914 C45.649,27.862 45.824,27.807 46,27.753 L46,34.588 C45.352,34.802 44.685,35.004 44,35.193 L44,28.319 L44,28.319 Z M48,27.078 C48.287,26.972 48.566,26.861 48.844,26.75 C48.916,26.721 48.99,26.694 49.061,26.665 C49.381,26.536 49.692,26.401 50,26.265 L50,32.993 C49.363,33.297 48.696,33.588 48,33.864 L48,27.078 L48,27.078 Z M52,25.291 C52.036,25.271 52.074,25.253 52.111,25.233 C52.151,25.211 52.193,25.191 52.233,25.169 C52.673,24.928 53.092,24.678 53.5,24.422 C53.59,24.366 53.679,24.308 53.768,24.251 C53.845,24.201 53.924,24.153 54,24.102 L54,30.586 C53.393,31.053 52.723,31.5 52,31.928 L52,25.291 L52,25.291 Z M6,24.102 C6.076,24.153 6.155,24.201 6.232,24.251 C6.321,24.308 6.41,24.366 6.5,24.422 C6.908,24.678 7.327,24.928 7.767,25.169 C7.807,25.191 7.849,25.211 7.889,25.233 C7.926,25.253 7.963,25.271 8,25.291 L8,31.928 C7.277,31.5 6.607,31.053 6,30.586 L6,24.102 L6,24.102 Z M10,26.265 C10.308,26.401 10.619,26.536 10.939,26.665 C11.01,26.694 11.084,26.721 11.155,26.75 C11.434,26.861 11.713,26.972 12,27.078 L12,33.864 C11.304,33.588 10.637,33.297 10,32.993 L10,26.265 L10,26.265 Z M14,27.753 C14.176,27.807 14.351,27.862 14.53,27.914 C14.633,27.945 14.738,27.973 14.842,28.003 C15.223,28.112 15.608,28.218 16,28.319 L16,35.193 C15.315,35.004 14.648,34.802 14,34.588 L14,27.753 L14,27.753 Z M18,28.791 C18.165,28.826 18.331,28.86 18.498,28.894 C18.627,28.92 18.757,28.944 18.887,28.969 C19.441,29.076 20.002,29.177 20.572,29.268 C20.666,29.283 20.758,29.3 20.852,29.315 C20.902,29.322 20.95,29.331 21,29.339 L21,36.279 C19.974,36.111 18.971,35.919 18,35.698 L18,28.791 L18,28.791 Z M23,29.605 C23.08,29.615 23.164,29.62 23.245,29.629 C23.862,29.697 24.485,29.758 25.117,29.808 C25.18,29.813 25.241,29.819 25.303,29.824 C25.534,29.842 25.768,29.854 26,29.869 L26,36.859 C24.983,36.788 23.982,36.692 23,36.569 L23,29.605 L23,29.605 Z M2,24 L2,20.489 C2.031,20.529 2.07,20.568 2.102,20.608 C2.332,20.901 2.575,21.19 2.839,21.473 C2.858,21.493 2.874,21.514 2.893,21.534 C3.177,21.834 3.485,22.126 3.805,22.413 C3.87,22.471 3.934,22.529 4,22.586 L4,28.727 C2.717,27.253 2,25.658 2,24 L2,24 Z M28,36.961 L28,29.965 C28.661,29.986 29.326,30 30,30 C30.673,30 31.339,29.986 32,29.965 L32,36.961 C31.338,36.984 30.672,37 30,37 C29.328,37 28.662,36.984 28,36.961 L28,36.961 Z M58,20.489 L58,24 C58,25.658 57.283,27.253 56,28.727 L56,22.586 C56.066,22.529 56.13,22.471 56.195,22.413 C56.515,22.126 56.823,21.834 57.107,21.534 C57.126,21.514 57.142,21.493 57.161,21.473 C57.425,21.19 57.669,20.901 57.899,20.608 C57.93,20.567 57.969,20.529 58,20.489 L58,20.489 Z" sketch:type="MSShapeGroup"></path><path d="M15.97,24.108 L24.382,21.071 C24.433,21.053 24.469,21.031 24.491,21.015 L24.537,20.616 C22.012,19.57 20.989,17.916 20.604,16.496 C20.031,16.264 19.584,15.904 19.317,15.45 C19.038,14.975 18.974,14.421 19.137,13.892 L19.368,13.143 C19.596,12.399 20.278,11.763 21.23,11.388 C21.557,10.764 21.974,10.194 22.472,9.69 C22.687,9.473 22.863,9.311 23.006,9.181 C23.06,9.131 23.108,9.09 23.149,9.052 C23.143,9.003 23.133,8.947 23.122,8.881 C23.073,8.586 23.056,8.32 23.056,8.096 C23.056,7.472 23.594,6.983 24.281,6.983 C24.558,6.983 24.815,7.064 25.023,7.217 C25.109,7.281 25.329,7.415 25.831,7.598 C26.736,7.928 28.016,8.077 29.38,8.02 C29.583,8.012 29.789,8.007 30,8.007 C32.961,8.007 37.025,8.367 38.745,11.378 C39.71,11.751 40.402,12.392 40.633,13.143 L40.863,13.892 C41.026,14.421 40.962,14.975 40.683,15.45 C40.415,15.904 39.969,16.264 39.396,16.496 C39.011,17.916 37.988,19.57 35.463,20.616 L35.51,21.024 C35.531,21.04 35.565,21.06 35.613,21.078 L43.855,24.16 C51.271,22.032 56,18.386 56,15 C56,9.808 44.881,4 30,4 C15.119,4 4,9.808 4,15 C4,18.359 8.657,21.973 15.97,24.108" sketch:type="MSShapeGroup"></path></g></g></svg>