<svg xmlns="http://www.w3.org/2000/svg" xmlns:xlink="http://www.w3.org/1999/xlink" version="1.1" x="0px" y="0px" viewBox="0 0 100 100" style="enable-background:new 0 0 100 100;" xml:space="preserve"><g><path d="M25,65.1c6.6,0,12.7-3.5,16-9.3c3.3,5.7,9.4,9.3,16,9.3h1c8,0,14.5-6.5,14.5-14.5v-1c0-10.2-8.3-18.5-18.5-18.5H28   c-10.2,0-18.5,8.3-18.5,18.5v1c0,8,6.5,14.5,14.5,14.5H25z"></path><path d="M88,12.1c-6.5,0-11.8,5.3-11.8,11.8v29c0,12.2-9.9,22.1-22.1,22.1h-2.2c-0.6-6-5.8-10.7-12-10.7c-6.2,0-11.2,4.6-12,10.7   H19c-1.4,0-2.5,1.1-2.5,2.5S17.6,80,19,80h9.6c1.6,4.9,6.2,8.3,11.4,8.3s9.8-3.4,11.4-8.3h2.7C69,80,81.2,67.8,81.2,52.9v-29   c0-3.7,3.1-6.8,6.8-6.8c1.4,0,2.5-1.1,2.5-2.5S89.4,12.1,88,12.1z M40,80.9c-2.2,0-4-2-4-4.5s1.8-4.5,4-4.5s4,2,4,4.5   S42.2,80.9,40,80.9z"></path></g></svg>