<svg xmlns="http://www.w3.org/2000/svg" version="1.0" viewBox="0 0 256.000000 256.000000" preserveAspectRatio="xMidYMid meet" x="0px" y="0px"><metadata>
Created by potrace 1.13, written by Peter Selinger 2001-2015
</metadata><g transform="translate(0.000000,256.000000) scale(0.100000,-0.100000)" fill="#000000" stroke="none"><path d="M975 2075 c-21 -20 -25 -34 -25 -79 0 -48 3 -57 31 -80 35 -30 67 -33 109 -11 60 31 69 103 19 160 -40 45 -96 49 -134 10z"></path><path d="M1775 2046 c-77 -33 -111 -117 -79 -194 51 -123 200 -123 262 -2 64 125 -55 252 -183 196z"></path><path d="M1265 1831 c-51 -23 -101 -75 -116 -119 -15 -45 -7 -138 15 -185 22 -44 108 -116 184 -153 89 -43 165 -24 220 56 27 40 30 113 7 180 -8 25 -19 63 -25 86 -31 126 -166 190 -285 135z"></path><path d="M725 1766 c-36 -16 -82 -67 -91 -102 -10 -40 2 -114 23 -143 35 -46 76 -63 166 -67 71 -3 90 0 128 19 56 28 83 75 83 142 0 62 -28 121 -68 146 -24 15 -50 18 -121 18 -50 0 -104 -6 -120 -13z"></path><path d="M385 1595 c-38 -37 -35 -95 7 -130 26 -22 39 -26 67 -21 112 17 104 176 -9 176 -30 0 -47 -6 -65 -25z"></path><path d="M2001 1564 c-24 -20 -31 -34 -31 -63 0 -95 121 -125 163 -40 22 45 8 93 -34 114 -40 21 -63 19 -98 -11z"></path><path d="M645 1351 c-53 -24 -111 -90 -126 -143 -25 -95 18 -212 95 -251 153 -80 329 26 329 198 0 72 -17 110 -73 157 -67 58 -151 73 -225 39z"></path><path d="M1706 1360 c-100 -30 -114 -167 -21 -206 44 -18 59 -18 101 2 68 33 86 123 35 175 -16 16 -36 29 -44 29 -9 0 -21 2 -29 4 -7 2 -26 0 -42 -4z"></path><path d="M1185 1253 c-53 -9 -67 -15 -99 -44 -46 -40 -70 -103 -63 -166 23 -202 45 -246 147 -292 87 -40 185 -19 247 52 61 70 67 161 16 243 -15 25 -39 65 -53 88 -14 24 -31 51 -39 60 -29 35 -113 66 -156 59z"></path><path d="M1621 1004 c-25 -21 -31 -33 -31 -65 0 -83 92 -119 151 -60 37 37 38 79 3 120 -33 40 -79 42 -123 5z"></path><path d="M753 752 c-34 -5 -73 -58 -73 -98 0 -81 101 -115 161 -55 67 67 9 168 -88 153z"></path><path d="M1739 611 c-60 -60 -24 -151 59 -151 83 0 125 100 66 155 -38 35 -87 34 -125 -4z"></path></g></svg>