<svg xmlns="http://www.w3.org/2000/svg" xmlns:xlink="http://www.w3.org/1999/xlink" version="1.1" x="0px" y="0px" viewBox="0 0 100 100" enable-background="new 0 0 100 100" xml:space="preserve"><g><path fill="#000000" d="M86.5,82.3C84.4,65.1,62,59.5,59.4,58.9c-5.5,4.3-13.2,4.3-18.7,0c-2.7,0.6-25,6.1-27.2,23.4   c-0.2,1.7,0.5,3.4,1.9,4.4C19.5,89.5,29.9,95,50,95l0,0l0,0c20.1,0,30.5-5.5,34.6-8.3C86,85.7,86.7,84,86.5,82.3z M41.2,87.9   c-1.2,0-2.2-1-2.2-2.2s1-2.2,2.2-2.2c1.2,0,2.2,1,2.2,2.2S42.4,87.9,41.2,87.9z M41.2,74.6c-1.2,0-2.2-1-2.2-2.2s1-2.2,2.2-2.2   c1.2,0,2.2,1,2.2,2.2S42.4,74.6,41.2,74.6z M59.1,87.9c-1.2,0-2.2-1-2.2-2.2s1-2.2,2.2-2.2c1.2,0,2.2,1,2.2,2.2   S60.3,87.9,59.1,87.9z M59.1,74.6c-1.2,0-2.2-1-2.2-2.2s1-2.2,2.2-2.2c1.2,0,2.2,1,2.2,2.2S60.3,74.6,59.1,74.6z"></path><path fill="#000000" d="M31.5,39.1c0,10.6,8.2,19.2,18.3,19.2c10.1,0,18.3-8.6,18.3-19.2c0-0.8-0.1-1.6-0.1-2.4H31.7   C31.6,37.5,31.5,38.3,31.5,39.1z"></path><path fill="#000000" d="M31.9,25.3v8.1h36.2v-8.2c3.9-1.1,6.7-4,6.7-7.4c0-4.4-4.6-7.9-10.4-7.9c-1.4,0-2.7,0.2-3.9,0.6   C58.2,7.2,54.4,5,50,5c-4.4,0-8.2,2.2-10.5,5.5c-1.2-0.4-2.5-0.6-3.9-0.6c-5.7,0-10.4,3.6-10.4,7.9C25.3,21.3,28,24.2,31.9,25.3z"></path></g></svg>