<svg xmlns="http://www.w3.org/2000/svg" viewBox="0 0 64 64" x="0px" y="0px"><title>Bowl-soop-spoon-bakery</title><path d="M20.168,34.933l.009-.009c.186-.186.373-.359.56-.525l.005-.006c2.771-2.453,5.741-2.85,8.429-1.1a1,1,0,0,0,1.252-.13L41.7,21.925a14.92,14.92,0,0,0,3.215-4.782,11.693,11.693,0,0,1,.849-1.61l1.174,1.174,1.414-1.414L46.955,13.9c.215-.248.432-.5.67-.733l.884-.884,1.424,1.424,1.414-1.414-1.424-1.424,1.586-1.586,1.424,1.424,1.414-1.414L52.923,7.869l1.586-1.586,1.424,1.424,1.414-1.414-1.16-1.16A2.778,2.778,0,0,1,57.177,5a2.979,2.979,0,0,1,2.179,1.1,3.117,3.117,0,0,1-.322,4.143L51.867,17.41A12.9,12.9,0,0,1,47.724,20.2a14.458,14.458,0,0,0-4.614,3.143L31.839,34.575a1,1,0,0,0-.132,1.254,7.41,7.41,0,0,1,.385.668c.037.073.066.147.1.22.071.154.141.307.2.462.033.088.058.176.087.264.046.143.091.286.126.43.023.094.041.188.059.281.027.141.051.282.068.424.012.095.02.191.026.287.01.142.014.284.014.426,0,.1,0,.192-.008.287-.008.145-.023.29-.042.435-.012.093-.023.187-.039.28-.027.152-.064.3-.1.456-.022.086-.04.172-.066.259-.008.025-.019.051-.027.076l-.486,0q-1.09,0-2.172-.013l-.835-.014c-.426-.007-.852-.014-1.274-.024-.36-.008-.717-.018-1.075-.029-.329-.009-.658-.019-.984-.03q-.6-.021-1.189-.046l-.81-.035c-.42-.02-.838-.04-1.25-.063-.234-.012-.466-.026-.7-.039-.428-.025-.856-.051-1.275-.079l-.612-.044c-.429-.03-.858-.061-1.276-.094-.2-.016-.386-.034-.58-.051q-.889-.075-1.741-.16c-.41-.041-.82-.082-1.217-.126l-.135-.016ZM4.07,37.664c.745-.762,4.8-2.035,13.338-2.8l-4.954,4.954h0l-.086.087-.216-.029-.107-.016q-.62-.09-1.2-.186l-.216-.036c-.388-.066-.765-.132-1.126-.2l-.075-.014q-.6-.114-1.141-.236l-.068-.015q-.51-.114-.972-.234l-.079-.02c-.306-.08-.594-.163-.867-.246A6.243,6.243,0,0,1,4.07,37.664ZM40.692,60H23.553C13.8,57.082,7.158,49.505,6.81,40.9c.32.082.665.163,1.027.244l.022.005c.27.06.558.118.853.177.159.032.319.064.483.095.185.035.374.069.568.1q.531.095,1.093.185l.154.024a127.7,127.7,0,0,0,15.674,1.282l.115,0q1.107.03,2.238.047l.53.008c.8.01,1.614.017,2.433.017.4,0,.788,0,1.181-.006H33.2l.413,0a154.215,154.215,0,0,0,16.361-.942q.694-.081,1.376-.173l.119-.017q.594-.081,1.173-.169c.217-.033.424-.067.634-.1.159-.026.32-.051.477-.078,1.4-.237,2.656-.5,3.717-.779C57.158,49.424,50.5,57.066,40.692,60ZM58.165,38.551a1.04,1.04,0,0,0-.125.015,26.991,26.991,0,0,1-3.023.771c-.318.063-.642.126-.988.188l-.121.022c-2.393.421-5.445.8-9.071,1.078l-.377.029c-.572.042-1.163.08-1.763.117L42.2,40.8q-1.064.062-2.184.111l-.64.025c-.576.023-1.16.045-1.757.062-.234.008-.471.014-.707.02-.7.018-1.405.033-2.129.044l-.218,0c.016-.071.025-.143.039-.215.021-.1.04-.2.056-.3.031-.185.053-.371.07-.556.009-.089.02-.177.025-.266a8.071,8.071,0,0,0,.01-.808c0-.022-.005-.043-.006-.064-.013-.25-.04-.5-.077-.748-.013-.088-.032-.174-.048-.261-.034-.185-.073-.369-.121-.553-.024-.094-.05-.187-.078-.281-.055-.185-.118-.368-.187-.551-.031-.082-.058-.164-.092-.245-.107-.26-.224-.518-.359-.772l1.163-1.159c15.948.244,23.934,2.262,24.979,3.391A4.562,4.562,0,0,1,58.165,38.551Z"></path></svg>