<svg xmlns="http://www.w3.org/2000/svg" xmlns:xlink="http://www.w3.org/1999/xlink" version="1.1" x="0px" y="0px" viewBox="0 0 100 100" style="enable-background:new 0 0 100 100;" xml:space="preserve"><title>icons saved for noun</title><path d="M8.3,56.2c0,0-1.6-0.7-1.6-4c0-4.9,2.4-3.4,2.4-3.4l37.7,21.8l50.7-29.3v-2.9L60.2,16.9c-0.8-0.5-1.7-0.7-2.6-0.7  c-0.6,0-1.3,0.2-1.9,0.5l0,0l-0.5,0.3l0,0l-50.2,29l0,0c-1.5,0.7-2.6,2.3-2.6,6.6c0,3.4,1.7,6.5,4.5,8.5l3.2,1.8l36.6,21.1  l50.7-29.3v-2.9l-2.1-1.2L46.8,78.4L8.3,56.2z"></path></svg>