<svg xmlns="http://www.w3.org/2000/svg" xmlns:xlink="http://www.w3.org/1999/xlink" version="1.1" x="0px" y="0px" viewBox="0 0 100 100" enable-background="new 0 0 100 100" xml:space="preserve"><path d="M27.4,88c0-0.3,0.2-0.5,0.5-0.5h44.3c0.3,0,0.5,0.2,0.5,0.5s-0.2,0.5-0.5,0.5H28C27.6,88.5,27.4,88.3,27.4,88z M82.7,76  c-0.1,0.2-0.3,0.4-0.5,0.4h-5.3l-2.6,13.7c0,0.3-0.3,0.4-0.5,0.4H26.2c-0.3,0-0.5-0.2-0.5-0.4l-2.5-13.7h-5.3  c-0.2,0-0.5-0.2-0.5-0.4c-0.1-0.2,0-0.5,0.2-0.6l3.2-2c0.1-0.1,0.2-0.1,0.3-0.1h22.2c0.6-2.4,2.4-4.4,4.8-5.1  c-0.2-0.6-0.4-1.4-0.4-2.3c0-2,0.7-3.6,1.8-4v-1.5c-1.1-0.4-1.8-2-1.8-4s0.7-3.6,1.8-4v-1.5c-1.1-0.4-1.8-2-1.8-4s0.7-3.6,1.8-4  v-1.5c-1.1-0.4-1.8-2-1.8-4s0.7-3.6,1.8-4v-1.5c-1.1-0.4-1.8-2-1.8-4s0.7-3.6,1.8-4v-1.5c-1.1-0.4-1.8-2-1.8-4s0.7-3.6,1.8-4V10  c0-0.3,0.2-0.5,0.5-0.5s0.5,0.2,0.5,0.5v4.3c1.1,0.4,1.8,2,1.8,4s-0.7,3.6-1.8,4v1.5c1.1,0.4,1.8,2,1.8,4s-0.7,3.6-1.8,4v1.5  c1.1,0.4,1.8,2,1.8,4s-0.7,3.6-1.8,4v1.5c1.1,0.4,1.8,2,1.8,4s-0.7,3.6-1.8,4v1.5c1.1,0.4,1.8,2,1.8,4s-0.7,3.6-1.8,4v1.5  c1.1,0.4,1.8,2,1.8,4c0,0.9-0.1,1.6-0.4,2.3c2.4,0.7,4.2,2.7,4.8,5.1h22.2c0.1,0,0.2,0,0.3,0.1l3.2,2C82.7,75.5,82.8,75.8,82.7,76z   M49.5,21v-1.4c0-0.3,0.2-0.5,0.5-0.5s0.5,0.2,0.5,0.5V21c0.4-0.5,0.7-1.4,0.7-2.6s-0.3-2.2-0.7-2.6v1.4c0,0.3-0.2,0.5-0.5,0.5  s-0.5-0.2-0.5-0.5v-1.4c-0.4,0.5-0.7,1.4-0.7,2.6S49.1,20.5,49.5,21z M49.5,30.5V29c0-0.3,0.2-0.5,0.5-0.5s0.5,0.2,0.5,0.5v1.4  c0.4-0.5,0.7-1.4,0.7-2.6s-0.3-2.2-0.7-2.6v1.4c0,0.3-0.2,0.5-0.5,0.5s-0.5-0.2-0.5-0.5v-1.4c-0.4,0.5-0.7,1.4-0.7,2.6  S49.1,30,49.5,30.5z M49.5,40v-1.4c0-0.3,0.2-0.5,0.5-0.5s0.5,0.2,0.5,0.5V40c0.4-0.5,0.7-1.4,0.7-2.6s-0.3-2.2-0.7-2.6v1.4  c0,0.3-0.2,0.5-0.5,0.5s-0.5-0.2-0.5-0.5v-1.4c-0.4,0.5-0.7,1.4-0.7,2.6S49.1,39.5,49.5,40z M49.5,49.5v-1.4c0-0.3,0.2-0.5,0.5-0.5  s0.5,0.2,0.5,0.5v1.4c0.4-0.5,0.7-1.4,0.7-2.6s-0.3-2.2-0.7-2.6v1.4c0,0.3-0.2,0.5-0.5,0.5s-0.5-0.2-0.5-0.5v-1.4  c-0.4,0.5-0.7,1.4-0.7,2.6S49.1,49,49.5,49.5z M49.5,59v-1.4c0-0.3,0.2-0.5,0.5-0.5s0.5,0.2,0.5,0.5V59c0.4-0.5,0.7-1.4,0.7-2.6  s-0.3-2.2-0.7-2.6v1.4c0,0.3-0.2,0.5-0.5,0.5s-0.5-0.2-0.5-0.5v-1.4c-0.4,0.5-0.7,1.4-0.7,2.6S49.1,58.6,49.5,59z M49.2,68  c0.3,0,0.6-0.1,0.9-0.1s0.6,0,0.9,0.1c0.2-0.5,0.4-1.2,0.4-2.1c0-1.2-0.3-2.2-0.7-2.6v1.4c0,0.3-0.2,0.5-0.5,0.5s-0.5-0.2-0.5-0.5  v-1.4c-0.4,0.5-0.7,1.4-0.7,2.6C48.8,66.8,48.9,67.5,49.2,68z M44.4,73.3h11.2c-0.6-2-2.2-3.6-4.2-4.1C51,69.7,50.5,70,50,70  s-1-0.3-1.4-0.8C46.6,69.7,45,71.3,44.4,73.3z M75.8,76.4H24.3l2.4,13.1h46.6L75.8,76.4z"></path></svg>