<svg xmlns="http://www.w3.org/2000/svg" xmlns:xlink="http://www.w3.org/1999/xlink" version="1.1" x="0px" y="0px" viewBox="0 0 90 90" enable-background="new 0 0 90 90" xml:space="preserve"><g><path fill="#000000" d="M78.007,79.28c0,0-18.303-19.589-18.303-19.588c-1.239-1.515-3.116-2.484-5.241-2.485   c-2.197-0.104-4.396-0.209-6.595-0.313c-1.437-0.068-2.874-0.136-4.312-0.204c-0.539-0.027-1.116-0.112-1.649-0.013   c-0.883,0.165-1.475,0.855-2.143,1.401c-0.954,0.779-1.907,1.559-2.859,2.339c-1.228,1.004-2.456,2.007-3.683,3.011   c-1.28,1.047-4.103,2.457-2.44,4.267c1.586,1.728,3.178,3.035,5.667,3.035h17.573l16.797,16.066c1.006,0.965,2.3,1.442,3.593,1.442   c1.37,0,2.737-0.538,3.759-1.606C80.154,84.558,80.083,81.266,78.007,79.28z"></path><path fill="#000000" d="M32.42,30.903c0,0-0.073-0.044-0.067-0.026c-1.294-0.541-2.759-0.703-4.225-0.337   c-1.542,0.385-2.94,1.326-3.894,2.592c-0.37,0.493-0.679,1.097-0.884,1.676c-0.432,1.218-0.46,2.679-0.15,3.925   c0.547,2.197,1.093,4.394,1.641,6.591c0.962,3.866,1.924,7.732,2.887,11.599c0.209,0.839,0.418,1.679,0.627,2.519   c0.077,0.307,0.117,0.668,0.24,0.962c0.581,1.38,1.814-0.05,2.416-0.542c0.823-0.674,1.646-1.346,2.469-2.02   c1.705-1.394,3.41-2.787,5.115-4.182c0.583-0.478,1.49-1.066,1.653-1.858c0.153-0.742-0.242-1.53-0.418-2.237   c-0.193-0.775-0.386-1.551-0.58-2.327l1.77,0.82c0.916,0.425,1.935,0.571,2.934,0.43l13.174-1.905   c2.844-0.412,4.814-3.049,4.403-5.892c-0.412-2.842-3.061-4.811-5.892-4.403l-11.645,1.685l-9.974-6.091   C33.533,31.483,32.999,31.152,32.42,30.903z"></path><path fill="#000000" d="M49.104,72.685h-20.16l-1.071-4.884l-1-4.558l-6.205-28.297c-0.615-2.806-3.39-4.58-6.193-3.966   c-2.806,0.615-4.582,3.388-3.966,6.193l9.171,41.826c0.522,2.386,2.636,4.086,5.079,4.086h24.344c2.872,0,5.2-2.327,5.2-5.2   C54.305,75.013,51.977,72.685,49.104,72.685z"></path><path fill="#000000" d="M13.058,15.35c0.263,0.162,0.538,0.307,0.806,0.46c0.649,0.371,1.299,0.742,1.949,1.113   c0.574,0.328,1.147,0.657,1.722,0.984c0.764,0.435,1.335,0.147,2.002-0.308c0.413-0.281,0.826-0.563,1.238-0.845   c1.109-0.756,2.217-1.513,3.326-2.269c2.471-1.687,4.942-3.373,7.414-5.059c0.817-0.557,1.633-1.114,2.45-1.671   c0.252-0.172,0.691-0.406,0.83-0.694c0.005-0.011,0.01-0.022,0.014-0.033c0.106-0.265-0.008-0.594-0.067-0.854   c-0.139-0.615-0.278-1.229-0.417-1.844c-0.149-0.657-0.305-1.312-0.44-1.971c-0.147-0.713-0.564-0.73-1.148-0.359   c-0.306,0.194-0.611,0.388-0.917,0.583c-0.858,0.545-1.716,1.089-2.574,1.634c-2.385,1.514-4.769,3.028-7.153,4.543   c-2.248,1.427-4.497,2.855-6.745,4.283c-0.695,0.441-1.392,0.879-2.085,1.324C12.839,14.638,12.436,14.967,13.058,15.35z"></path><path fill="#000000" d="M24.963,16.358c-0.837,0.571-1.674,1.142-2.511,1.712c-0.424,0.29-0.848,0.579-1.272,0.868   c-0.213,0.144-0.424,0.289-0.636,0.434c-0.211,0.145-0.365,0.192-0.331,0.458c0.002,0.013,0.004,0.027,0.005,0.04   c0.024,0.217,0.026,0.437,0.041,0.656c0.032,0.465,0.1,0.928,0.203,1.383c0.199,0.887,0.532,1.744,0.98,2.536   c0.886,1.562,2.221,2.858,3.811,3.695c1.3,0.684,2.758,1.05,4.228,1.061c5.05,0.036,9.39-4.28,9.385-9.334   c0-0.805-0.115-1.609-0.334-2.383c-0.288-1.016-0.756-1.977-1.365-2.838c-0.304-0.43-0.643-0.834-1.012-1.209   c-0.185-0.188-0.38-0.365-0.577-0.54c-0.225-0.2-0.048-0.291,0.157-0.424c0.169-0.111,0.339-0.222,0.509-0.333   c0.34-0.222,0.679-0.445,1.019-0.667c0.418-0.274,0.842-0.542,1.257-0.822c0.483-0.326,0.676-0.624,0.072-0.938   c-0.319-0.166-0.637-0.335-0.956-0.503c-0.668-0.352-1.074-0.76-1.782-0.283c-0.31,0.208-0.617,0.42-0.925,0.631   c-0.941,0.642-1.882,1.283-2.823,1.925C29.725,13.11,27.344,14.733,24.963,16.358z"></path><path fill="#000000" d="M55.589,53.601c0.405,0.401,0.935,0.601,1.463,0.601c0.536,0,1.072-0.205,1.479-0.617L77.867,34.03   c0.808-0.816,0.8-2.134-0.018-2.941c-0.816-0.809-2.134-0.799-2.941,0.016L55.573,50.659   C54.764,51.476,54.772,52.792,55.589,53.601z"></path></g></svg>