<svg xmlns="http://www.w3.org/2000/svg" xmlns:xlink="http://www.w3.org/1999/xlink" version="1.1" x="0px" y="0px" viewBox="0 0 100 100" enable-background="new 0 0 100 100" xml:space="preserve"><path d="M72.534,95H27.465V30.932h45.069V95z M47.616,5c0.593,1.339,0.999,2.859,0.986,4.329c-0.008,0.952-0.181,1.928-0.509,2.821  c-1.091,2.976-3.885,4.54-5.498,7.147c-1.304,2.108-1.457,4.497-0.29,6.697c0.335,0.631,0.749,1.23,1.233,1.757  c0.116,0.126,0.555,0.685,0.75,0.685c0.001,0,0.522,0,1.336,0c-1.262-2.019-1.756-4.478-0.238-6.526  c1.329-1.791,4.982-3.739,4.693-5.816c0.57,1.493,0.262,3.294-0.362,4.721c-0.513,1.171-1.429,2.261-1.429,3.595  c0.002,1.545,1.408,3.246,2.657,4.025c2.357,0,4.438,0,4.438,0C65.505,17.619,47.616,5,47.616,5z"></path></svg>