<svg xmlns="http://www.w3.org/2000/svg" xmlns:xlink="http://www.w3.org/1999/xlink" viewBox="0 0 84 84" version="1.1" xml:space="preserve" style="" x="0px" y="0px" fill-rule="evenodd" clip-rule="evenodd" stroke-linejoin="round" stroke-miterlimit="1.41421"><g transform="matrix(0.654242,0,0,0.363874,10.2495,3.32181)"><path d="M49.781,23.821C51.98,23.847 54.179,23.988 56.37,24.325C57.667,24.525 58.962,24.789 60.246,25.175C60.658,25.299 61.069,25.436 61.477,25.592C61.767,25.703 62.057,25.824 62.344,25.958C62.597,26.077 62.849,26.207 63.099,26.353C63.263,26.45 63.427,26.554 63.588,26.668C63.685,26.737 63.782,26.811 63.877,26.889C63.978,26.972 64.037,27.025 64.135,27.118C64.195,27.174 64.253,27.235 64.311,27.299C64.629,27.652 64.959,28.17 64.99,28.887C64.994,28.989 64.992,29.092 64.983,29.194C64.972,29.327 64.95,29.457 64.919,29.58C64.865,29.794 64.784,29.983 64.693,30.149C64.564,30.383 64.412,30.574 64.254,30.741C63.994,31.016 63.715,31.23 63.432,31.418C62.941,31.744 62.434,31.992 61.924,32.207C61.102,32.555 60.269,32.814 59.434,33.032C58.525,33.268 57.613,33.452 56.699,33.601C54.268,33.999 51.826,34.159 49.386,34.159C46.945,34.159 44.503,33.999 42.072,33.601C41.158,33.452 40.246,33.268 39.338,33.032C38.502,32.814 37.669,32.555 36.847,32.207C36.338,31.992 35.83,31.744 35.339,31.418C35.056,31.23 34.777,31.016 34.517,30.741C34.359,30.574 34.207,30.383 34.078,30.149C33.987,29.983 33.907,29.794 33.853,29.58C33.821,29.457 33.799,29.327 33.788,29.194C33.779,29.092 33.777,28.989 33.781,28.887C33.812,28.17 34.142,27.652 34.461,27.299C34.518,27.235 34.576,27.174 34.636,27.118C34.734,27.025 34.793,26.972 34.894,26.889C34.989,26.811 35.086,26.737 35.183,26.668C35.344,26.554 35.508,26.45 35.673,26.353C35.922,26.207 36.174,26.077 36.427,25.958C36.715,25.824 37.004,25.703 37.294,25.592C37.703,25.436 38.113,25.299 38.525,25.175C39.809,24.789 41.104,24.525 42.401,24.325C44.592,23.988 46.791,23.847 48.99,23.821C49.254,23.82 49.517,23.82 49.781,23.821ZM48.993,24.967C46.811,24.991 44.63,25.131 42.456,25.466C40.847,25.714 39.237,26.051 37.654,26.627C37.17,26.804 36.688,27.004 36.214,27.252C35.855,27.439 35.499,27.651 35.159,27.93C34.956,28.096 34.75,28.287 34.581,28.551C34.515,28.655 34.443,28.782 34.42,28.939C34.416,28.974 34.416,29.005 34.42,29.04C34.443,29.197 34.515,29.324 34.581,29.428C34.75,29.692 34.956,29.883 35.159,30.049C35.243,30.118 35.33,30.184 35.417,30.246C35.514,30.314 35.613,30.38 35.711,30.441C36.343,30.835 36.998,31.113 37.654,31.352C38.428,31.634 39.208,31.853 39.991,32.038C41.257,32.337 42.529,32.545 43.803,32.696C45.401,32.886 47.001,32.984 48.602,33.008C50.253,33.033 51.904,32.981 53.554,32.84C55.003,32.716 56.452,32.525 57.895,32.232C58.814,32.045 59.732,31.818 60.642,31.517C61.403,31.265 62.164,30.969 62.901,30.537C63.005,30.476 63.109,30.412 63.211,30.344C63.304,30.282 63.397,30.217 63.488,30.147C63.569,30.086 63.65,30.02 63.728,29.95C63.901,29.797 64.075,29.622 64.217,29.385C64.274,29.288 64.338,29.167 64.353,29.022C64.355,28.986 64.354,28.954 64.348,28.919C64.316,28.75 64.236,28.617 64.161,28.507C63.997,28.266 63.804,28.087 63.613,27.93C63.273,27.651 62.916,27.439 62.558,27.252C62.158,27.043 61.752,26.868 61.345,26.712C59.901,26.16 58.431,25.826 56.962,25.572C54.961,25.226 52.952,25.058 50.942,24.989C50.292,24.971 49.643,24.964 48.993,24.967Z" style="" fill="black" fill-rule="nonzero"></path></g><g transform="matrix(0.95153,0,0,0.81808,-4.43224,-9.84539)"><path d="M49.781,24.139C52.095,24.166 54.408,24.321 56.701,24.695C57.982,24.905 59.256,25.183 60.507,25.573C60.872,25.686 61.235,25.814 61.593,25.954C61.846,26.054 62.098,26.16 62.345,26.276C62.54,26.367 62.732,26.464 62.921,26.569C63.066,26.649 63.21,26.734 63.35,26.825C63.48,26.908 63.608,26.997 63.732,27.092C63.824,27.162 63.915,27.235 64.002,27.313C64.441,27.703 64.862,28.243 64.891,28.918C64.896,29.037 64.888,29.157 64.868,29.275C64.844,29.418 64.802,29.556 64.747,29.687C64.658,29.898 64.535,30.087 64.397,30.257C64.18,30.524 63.925,30.746 63.66,30.942C63.214,31.269 62.732,31.526 62.243,31.75C61.509,32.085 60.749,32.344 59.983,32.564C59.008,32.843 58.018,33.057 57.025,33.229C54.499,33.666 51.938,33.841 49.386,33.841C46.833,33.841 44.273,33.666 41.746,33.229C40.753,33.057 39.763,32.843 38.788,32.564C38.022,32.344 37.262,32.085 36.528,31.75C36.039,31.526 35.557,31.269 35.112,30.942C34.846,30.746 34.591,30.524 34.374,30.257C34.236,30.087 34.113,29.898 34.024,29.687C33.969,29.556 33.927,29.418 33.903,29.275C33.883,29.157 33.875,29.037 33.88,28.918C33.909,28.243 34.33,27.703 34.769,27.313C34.857,27.235 34.947,27.162 35.039,27.092C35.163,26.997 35.291,26.908 35.421,26.825C35.562,26.734 35.705,26.649 35.85,26.569C36.039,26.464 36.232,26.367 36.426,26.276C36.674,26.16 36.925,26.054 37.178,25.954C37.536,25.814 37.899,25.686 38.264,25.573C39.515,25.183 40.789,24.905 42.071,24.695C44.233,24.342 46.414,24.185 48.596,24.144C48.991,24.139 49.386,24.138 49.781,24.139ZM48.993,24.649C46.808,24.674 44.624,24.814 42.457,25.148C41.259,25.333 40.066,25.573 38.893,25.91C38.517,26.018 38.143,26.136 37.772,26.267C37.511,26.36 37.252,26.46 36.995,26.568C36.762,26.667 36.532,26.772 36.305,26.887C36.158,26.962 36.013,27.041 35.87,27.125C35.74,27.201 35.611,27.282 35.485,27.369C35.393,27.432 35.303,27.498 35.215,27.568C35.134,27.631 35.055,27.698 34.979,27.769C34.927,27.817 34.875,27.867 34.826,27.92C34.575,28.185 34.335,28.532 34.318,28.943C34.315,29.005 34.318,29.068 34.326,29.13C34.336,29.211 34.355,29.29 34.381,29.366C34.429,29.508 34.499,29.638 34.58,29.757C34.711,29.948 34.868,30.113 35.035,30.261C35.294,30.491 35.579,30.683 35.87,30.854C36.336,31.127 36.824,31.348 37.318,31.542C38.1,31.849 38.902,32.087 39.709,32.287C40.618,32.513 41.536,32.689 42.457,32.831C44.752,33.184 47.071,33.332 49.386,33.332C51.809,33.332 54.239,33.172 56.64,32.779C57.545,32.631 58.447,32.449 59.34,32.216C60.09,32.021 60.836,31.791 61.563,31.499C62.048,31.304 62.527,31.081 62.982,30.806C63.266,30.634 63.542,30.442 63.792,30.21C63.951,30.063 64.102,29.898 64.224,29.708C64.291,29.602 64.349,29.488 64.39,29.366C64.416,29.29 64.435,29.211 64.445,29.13C64.453,29.068 64.456,29.005 64.453,28.943C64.436,28.532 64.196,28.185 63.945,27.92C63.896,27.867 63.845,27.817 63.792,27.769C63.716,27.698 63.637,27.631 63.556,27.568C63.468,27.498 63.378,27.432 63.286,27.369C63.16,27.282 63.032,27.201 62.901,27.125C62.758,27.041 62.613,26.962 62.466,26.887C62.273,26.789 62.078,26.698 61.88,26.613C61.628,26.503 61.372,26.403 61.115,26.309C60.792,26.191 60.466,26.085 60.139,25.986C58.988,25.64 57.816,25.392 56.64,25.2C54.495,24.849 52.333,24.694 50.169,24.653C49.777,24.649 49.385,24.647 48.993,24.649Z" style="" fill="black" fill-rule="nonzero"></path></g><g transform="matrix(1.21413,0,0,1.14856,-17.4008,-19.4667)"><path d="M49.584,24.211C51.796,24.224 54.01,24.363 56.201,24.691C57.517,24.888 58.828,25.15 60.109,25.526C60.488,25.637 60.864,25.759 61.236,25.895C61.537,26.004 61.834,26.122 62.127,26.253C62.36,26.356 62.59,26.468 62.815,26.589C62.963,26.668 63.109,26.752 63.252,26.841C63.384,26.924 63.514,27.011 63.641,27.104C63.735,27.173 63.827,27.245 63.916,27.321C64.334,27.678 64.725,28.144 64.822,28.721C64.833,28.788 64.841,28.855 64.843,28.922C64.847,29.012 64.844,29.103 64.832,29.192C64.81,29.35 64.769,29.503 64.707,29.649C64.612,29.874 64.475,30.077 64.319,30.259C64.078,30.541 63.791,30.775 63.491,30.982C63.03,31.299 62.53,31.552 62.022,31.772C61.314,32.08 60.581,32.323 59.841,32.53C58.912,32.79 57.969,32.992 57.02,33.156C55.821,33.364 54.612,33.509 53.4,33.608C52.065,33.717 50.725,33.768 49.386,33.768C48.046,33.768 46.706,33.717 45.371,33.608C44.159,33.509 42.95,33.364 41.751,33.156C40.802,32.992 39.859,32.79 38.93,32.53C38.19,32.323 37.457,32.08 36.749,31.772C36.241,31.552 35.742,31.299 35.28,30.982C34.98,30.775 34.693,30.541 34.452,30.259C34.296,30.077 34.159,29.874 34.064,29.649C34.003,29.503 33.961,29.35 33.939,29.192C33.927,29.103 33.924,29.012 33.928,28.922C33.931,28.855 33.938,28.788 33.949,28.721C34.046,28.145 34.437,27.678 34.855,27.321C34.944,27.245 35.036,27.173 35.131,27.104C35.257,27.011 35.387,26.924 35.519,26.841C35.662,26.752 35.808,26.668 35.956,26.589C36.147,26.486 36.343,26.39 36.54,26.3C36.828,26.168 37.121,26.048 37.418,25.938C37.785,25.801 38.156,25.678 38.531,25.565C39.8,25.184 41.099,24.917 42.404,24.716C44.584,24.38 46.788,24.234 48.99,24.213C49.188,24.211 49.386,24.211 49.584,24.211ZM49.189,24.574C46.992,24.587 44.794,24.725 42.618,25.05C41.361,25.238 40.11,25.486 38.885,25.838C38.508,25.946 38.133,26.064 37.763,26.196C37.501,26.289 37.241,26.389 36.984,26.497C36.75,26.596 36.519,26.702 36.292,26.818C36.116,26.907 35.943,27.002 35.773,27.105C35.645,27.182 35.519,27.264 35.396,27.351C35.306,27.415 35.217,27.482 35.131,27.553C35.072,27.602 35.013,27.653 34.956,27.706C34.633,28.005 34.325,28.394 34.276,28.861C34.27,28.921 34.268,28.981 34.271,29.041C34.274,29.127 34.287,29.213 34.308,29.296C34.34,29.422 34.391,29.542 34.453,29.655C34.559,29.847 34.698,30.017 34.849,30.171C35.102,30.426 35.393,30.638 35.694,30.825C36.171,31.123 36.68,31.362 37.198,31.57C37.924,31.861 38.671,32.092 39.424,32.289C40.316,32.521 41.22,32.704 42.127,32.852C43.272,33.039 44.424,33.171 45.579,33.261C46.846,33.359 48.116,33.405 49.386,33.405C50.655,33.405 51.925,33.359 53.192,33.261C54.347,33.171 55.499,33.039 56.644,32.852C57.552,32.704 58.455,32.521 59.347,32.289C60.1,32.092 60.848,31.861 61.573,31.57C62.091,31.362 62.6,31.123 63.077,30.825C63.378,30.638 63.669,30.426 63.922,30.171C64.073,30.017 64.212,29.847 64.318,29.655C64.381,29.542 64.431,29.422 64.463,29.296C64.484,29.213 64.497,29.127 64.501,29.041C64.503,28.981 64.501,28.921 64.495,28.861C64.446,28.394 64.138,28.005 63.815,27.706C63.758,27.653 63.7,27.602 63.64,27.553C63.554,27.482 63.465,27.415 63.375,27.351C63.253,27.264 63.126,27.182 62.998,27.105C62.828,27.002 62.655,26.907 62.479,26.818C62.252,26.702 62.021,26.596 61.787,26.497C61.53,26.389 61.27,26.289 61.008,26.196C60.638,26.064 60.263,25.946 59.886,25.838C58.661,25.486 57.41,25.238 56.153,25.05C53.977,24.725 51.779,24.587 49.582,24.574C49.451,24.574 49.32,24.574 49.189,24.574Z" style="" fill="black" fill-rule="nonzero"></path></g><g transform="matrix(1.39105,0,0,1.4939,-26.1383,-29.4369)"><path d="M49.585,23.974C51.927,23.988 54.272,24.142 56.583,24.509C57.94,24.724 59.289,25.011 60.594,25.422C60.966,25.54 61.335,25.668 61.698,25.81C61.957,25.912 62.214,26.021 62.465,26.139C62.666,26.233 62.863,26.333 63.056,26.439C63.207,26.523 63.355,26.611 63.5,26.703C63.609,26.774 63.717,26.847 63.821,26.924C64.363,27.323 64.859,27.834 65.046,28.467C65.071,28.552 65.09,28.638 65.103,28.725C65.12,28.838 65.126,28.952 65.121,29.065C65.115,29.216 65.089,29.367 65.046,29.512C64.98,29.734 64.874,29.945 64.742,30.14C64.534,30.444 64.265,30.708 63.97,30.941C63.515,31.301 62.998,31.591 62.465,31.84C61.78,32.161 61.061,32.418 60.332,32.638C59.422,32.911 58.493,33.126 57.556,33.302C56.313,33.535 55.055,33.7 53.793,33.813C52.328,33.944 50.857,34.005 49.386,34.005C47.915,34.005 46.443,33.944 44.979,33.813C43.716,33.7 42.458,33.535 41.215,33.302C40.279,33.126 39.349,32.911 38.44,32.638C37.71,32.418 36.991,32.161 36.306,31.84C35.773,31.591 35.256,31.301 34.801,30.941C34.507,30.708 34.237,30.444 34.029,30.14C33.897,29.945 33.791,29.734 33.725,29.512C33.679,29.354 33.652,29.191 33.649,29.027C33.647,28.914 33.655,28.8 33.674,28.688C33.792,27.99 34.303,27.416 34.874,26.981C34.976,26.903 35.081,26.829 35.188,26.758C35.329,26.664 35.474,26.575 35.622,26.491C35.812,26.383 36.006,26.283 36.203,26.188C36.45,26.069 36.703,25.958 36.959,25.856C37.316,25.712 37.68,25.582 38.048,25.463C39.34,25.046 40.678,24.755 42.023,24.536C44.322,24.16 46.656,23.998 48.988,23.976C49.187,23.974 49.386,23.974 49.585,23.974ZM49.19,24.811C47.007,24.824 44.822,24.961 42.665,25.284C41.374,25.477 40.091,25.734 38.843,26.1C38.515,26.196 38.19,26.3 37.869,26.415C37.576,26.518 37.288,26.631 37.004,26.754C36.811,26.837 36.62,26.926 36.433,27.021C36.263,27.108 36.095,27.2 35.933,27.298C35.81,27.372 35.689,27.451 35.573,27.533C35.487,27.594 35.404,27.657 35.323,27.723C35.267,27.769 35.212,27.817 35.159,27.866C34.826,28.174 34.529,28.577 34.548,29.032C34.552,29.112 34.564,29.191 34.586,29.268C34.617,29.384 34.668,29.495 34.73,29.6C34.832,29.771 34.964,29.925 35.109,30.065C35.354,30.302 35.638,30.502 35.933,30.681C36.402,30.965 36.907,31.196 37.422,31.398C38.099,31.663 38.798,31.878 39.504,32.062C40.384,32.291 41.279,32.472 42.179,32.619C43.313,32.805 44.457,32.936 45.604,33.025C46.862,33.122 48.124,33.168 49.386,33.168C50.647,33.168 51.91,33.122 53.167,33.025C54.314,32.936 55.458,32.805 56.592,32.619C57.492,32.472 58.387,32.291 59.267,32.062C59.974,31.878 60.672,31.663 61.349,31.398C61.864,31.196 62.369,30.965 62.838,30.681C63.134,30.502 63.417,30.302 63.662,30.065C63.807,29.925 63.939,29.771 64.041,29.6C64.103,29.495 64.154,29.384 64.186,29.268C64.207,29.191 64.22,29.112 64.223,29.032C64.242,28.577 63.945,28.174 63.612,27.866C63.559,27.817 63.504,27.769 63.448,27.723C63.367,27.657 63.284,27.594 63.198,27.533C63.082,27.451 62.961,27.372 62.838,27.298C62.676,27.2 62.508,27.108 62.338,27.021C62.151,26.926 61.96,26.837 61.767,26.754C61.484,26.631 61.195,26.518 60.902,26.415C60.581,26.3 60.256,26.196 59.928,26.1C58.733,25.749 57.505,25.499 56.269,25.308C54.124,24.978 51.949,24.833 49.776,24.812C49.581,24.811 49.385,24.811 49.19,24.811Z" style="" fill="black" fill-rule="nonzero"></path></g><g transform="matrix(1,0,0,1,-0.536826,0)"><path d="M43.374,6.378C46.786,6.399 50.205,6.65 53.566,7.257C54.781,7.477 55.989,7.744 57.179,8.076C58.212,8.366 59.234,8.704 60.223,9.121C60.585,9.273 60.941,9.436 61.291,9.612C61.57,9.752 61.845,9.901 62.113,10.061C62.323,10.185 62.529,10.316 62.73,10.455C62.882,10.561 63.032,10.67 63.177,10.785C63.959,11.403 64.674,12.206 64.909,13.199C64.952,13.382 64.976,13.569 64.985,13.757C65.54,32.578 65.54,51.422 64.985,70.243C64.976,70.431 64.952,70.618 64.909,70.801C64.674,71.794 63.959,72.597 63.177,73.215C63.032,73.33 62.882,73.439 62.73,73.545C62.529,73.684 62.323,73.815 62.113,73.939C61.845,74.099 61.57,74.248 61.291,74.388C60.941,74.564 60.585,74.727 60.223,74.879C59.777,75.067 59.324,75.239 58.867,75.397C58.31,75.591 57.746,75.765 57.179,75.924C55.303,76.448 53.384,76.813 51.455,77.076C49.051,77.405 46.626,77.573 44.2,77.613C41.618,77.655 39.031,77.554 36.461,77.284C34.366,77.064 32.278,76.735 30.229,76.24C29.562,76.078 28.899,75.899 28.243,75.697C27.7,75.53 27.161,75.347 26.63,75.144C26.248,74.998 25.87,74.842 25.498,74.673C25.2,74.538 24.906,74.395 24.618,74.242C24.392,74.122 24.169,73.995 23.951,73.862C23.786,73.761 23.623,73.655 23.463,73.545C23.311,73.439 23.161,73.33 23.016,73.215C22.234,72.597 21.519,71.794 21.284,70.801C21.241,70.618 21.217,70.431 21.208,70.243C20.654,51.432 20.837,32.601 21.207,13.785C21.214,13.597 21.236,13.411 21.278,13.227C21.507,12.213 22.239,11.395 23.036,10.769C23.182,10.655 23.332,10.546 23.484,10.441C23.644,10.331 23.808,10.226 23.973,10.125C24.192,9.992 24.415,9.866 24.641,9.746C24.98,9.567 25.326,9.402 25.676,9.247C26.64,8.822 27.637,8.477 28.647,8.181C29.814,7.84 31,7.565 32.195,7.338C35.513,6.705 38.894,6.431 42.269,6.383C42.637,6.379 43.005,6.378 43.374,6.378ZM42.825,7.628C39.566,7.648 36.301,7.882 33.089,8.445C31.903,8.652 30.724,8.905 29.563,9.222C28.621,9.478 27.689,9.776 26.783,10.138C26.436,10.277 26.093,10.425 25.756,10.585C25.492,10.711 25.231,10.844 24.976,10.987C24.781,11.096 24.59,11.21 24.402,11.331C24.23,11.442 24.062,11.558 23.9,11.682C23.78,11.772 23.664,11.867 23.551,11.965C23.473,12.034 23.396,12.105 23.322,12.178C22.937,12.557 22.585,13.024 22.484,13.567C22.466,13.662 22.458,13.759 22.456,13.856C22.363,32.635 21.904,51.423 22.457,70.194C22.462,70.291 22.473,70.387 22.494,70.482C22.613,71.032 22.982,71.499 23.38,71.879C23.457,71.952 23.536,72.023 23.617,72.092C23.734,72.191 23.854,72.285 23.976,72.376C24.691,72.903 25.491,73.312 26.305,73.664C27.414,74.142 28.568,74.513 29.734,74.824C31.509,75.298 33.322,75.629 35.143,75.87C37.42,76.17 39.717,76.326 42.013,76.363C44.463,76.403 46.917,76.311 49.355,76.066C51.34,75.867 53.318,75.567 55.264,75.12C56.625,74.808 57.974,74.424 59.276,73.915C60.231,73.541 61.174,73.101 62.019,72.516C62.15,72.426 62.278,72.332 62.402,72.234C62.517,72.143 62.629,72.049 62.737,71.95C62.812,71.881 62.885,71.81 62.956,71.737C63.301,71.379 63.608,70.947 63.706,70.45C63.725,70.355 63.734,70.259 63.737,70.162C63.922,51.377 64.289,32.583 63.736,13.806C63.731,13.709 63.72,13.613 63.699,13.518C63.588,13.002 63.253,12.557 62.886,12.192C62.812,12.119 62.736,12.048 62.658,11.979C62.546,11.88 62.43,11.786 62.311,11.695C62.149,11.571 61.981,11.455 61.81,11.343C61.623,11.222 61.432,11.107 61.237,10.998C60.982,10.855 60.722,10.722 60.459,10.596C60.122,10.435 59.779,10.286 59.433,10.147C58.526,9.784 57.594,9.485 56.652,9.228C55.489,8.91 54.309,8.656 53.121,8.448C49.992,7.899 46.814,7.663 43.64,7.63C43.368,7.628 43.097,7.628 42.825,7.628Z" style="" fill="black" fill-rule="nonzero"></path></g><g transform="matrix(1,0,0,1,-0.567642,-23.6355)"><path d="M65.016,39.752L65.016,39.758C65.007,39.983 64.971,40.208 64.911,40.425C64.82,40.757 64.673,41.072 64.489,41.362C64.2,41.817 63.825,42.212 63.415,42.56C62.782,43.098 62.063,43.53 61.322,43.903C60.369,44.383 59.368,44.767 58.354,45.094C57.089,45.503 55.796,45.824 54.493,46.086C52.763,46.435 51.014,46.681 49.258,46.85C47.221,47.046 45.174,47.137 43.127,47.137C41.081,47.137 39.034,47.046 36.997,46.85C35.241,46.681 33.491,46.435 31.762,46.086C30.459,45.824 29.166,45.503 27.901,45.094C26.886,44.767 25.886,44.383 24.932,43.903C24.192,43.53 23.473,43.098 22.839,42.56C22.43,42.212 22.054,41.817 21.766,41.362C21.582,41.072 21.434,40.757 21.343,40.425C21.283,40.206 21.247,39.979 21.238,39.752L22.49,39.752C22.497,39.856 22.514,39.96 22.54,40.061C22.584,40.235 22.654,40.4 22.741,40.557C22.882,40.812 23.066,41.042 23.268,41.252C23.609,41.605 24.003,41.905 24.414,42.171C25.066,42.595 25.769,42.94 26.485,43.242C27.427,43.638 28.399,43.959 29.382,44.234C30.606,44.577 31.85,44.847 33.102,45.067C34.68,45.344 36.271,45.54 37.867,45.673C39.616,45.818 41.372,45.887 43.127,45.887C44.883,45.887 46.638,45.818 48.388,45.673C49.983,45.54 51.575,45.344 53.152,45.067C54.404,44.847 55.648,44.577 56.873,44.234C57.856,43.959 58.828,43.638 59.769,43.242C60.486,42.94 61.188,42.595 61.841,42.171C62.252,41.905 62.646,41.605 62.986,41.252C63.188,41.042 63.373,40.812 63.514,40.557C63.6,40.4 63.671,40.235 63.715,40.061C63.741,39.96 63.758,39.856 63.765,39.752L65.016,39.752Z" style="" fill="black"></path></g><g transform="matrix(1,0,0,1,0,-2.70966)"><path d="M46.222,36.268C46.29,36.286 46.308,36.287 46.371,36.317C46.514,36.384 46.628,36.505 46.686,36.652C46.716,36.728 46.725,36.802 46.73,36.882L46.73,62.901C46.726,62.97 46.728,62.989 46.711,63.056C46.685,63.158 46.633,63.252 46.561,63.329C46.507,63.386 46.443,63.433 46.371,63.466C46.155,63.569 45.892,63.535 45.707,63.383C45.646,63.332 45.595,63.271 45.558,63.202C45.52,63.133 45.495,63.057 45.485,62.979C45.482,62.953 45.482,62.927 45.48,62.901L45.48,36.882C45.485,36.802 45.494,36.728 45.524,36.652C45.592,36.48 45.736,36.345 45.912,36.288C45.99,36.263 46.064,36.259 46.145,36.259C46.171,36.262 46.196,36.265 46.222,36.268Z" style="" fill="black" fill-rule="nonzero"></path></g><g transform="matrix(1,0,0,1,-0.567642,28.5108)"><path d="M65.016,39.752L65.016,39.758C65.007,39.983 64.971,40.208 64.911,40.425C64.82,40.757 64.673,41.072 64.489,41.362C64.2,41.817 63.825,42.212 63.415,42.56C62.782,43.098 62.063,43.53 61.322,43.903C60.369,44.383 59.368,44.767 58.354,45.094C57.089,45.503 55.796,45.824 54.493,46.086C52.763,46.435 51.014,46.681 49.258,46.85C47.221,47.046 45.174,47.137 43.127,47.137C41.081,47.137 39.034,47.046 36.997,46.85C35.241,46.681 33.491,46.435 31.762,46.086C30.459,45.824 29.166,45.503 27.901,45.094C26.886,44.767 25.886,44.383 24.932,43.903C24.192,43.53 23.473,43.098 22.839,42.56C22.43,42.212 22.054,41.817 21.766,41.362C21.582,41.072 21.434,40.757 21.343,40.425C21.283,40.206 21.247,39.979 21.238,39.752L22.49,39.752C22.497,39.856 22.514,39.96 22.54,40.061C22.584,40.235 22.654,40.4 22.741,40.557C22.882,40.812 23.066,41.042 23.268,41.252C23.609,41.605 24.003,41.905 24.414,42.171C25.066,42.595 25.769,42.94 26.485,43.242C27.427,43.638 28.399,43.959 29.382,44.234C30.606,44.577 31.85,44.847 33.102,45.067C34.68,45.344 36.271,45.54 37.867,45.673C39.616,45.818 41.372,45.887 43.127,45.887C44.883,45.887 46.638,45.818 48.388,45.673C49.983,45.54 51.575,45.344 53.152,45.067C54.404,44.847 55.648,44.577 56.873,44.234C57.856,43.959 58.828,43.638 59.769,43.242C60.486,42.94 61.188,42.595 61.841,42.171C62.252,41.905 62.646,41.605 62.986,41.252C63.188,41.042 63.373,40.812 63.514,40.557C63.6,40.4 63.671,40.235 63.715,40.061C63.741,39.96 63.758,39.856 63.765,39.752L65.016,39.752Z" style="" fill="black"></path></g><g transform="matrix(1,0,0,1,0,-2.70966)"><path d="M46.732,63.803C45.343,63.892 43.951,63.934 42.56,63.934C40.513,63.934 38.466,63.843 36.429,63.647C34.673,63.478 32.924,63.232 31.194,62.883C29.891,62.621 28.598,62.3 27.333,61.891C26.318,61.564 25.318,61.18 24.365,60.7C23.624,60.327 22.905,59.895 22.271,59.357C21.862,59.009 21.487,58.614 21.198,58.159C21.014,57.869 20.867,57.554 20.775,57.222C20.715,57.003 20.679,56.776 20.671,56.549L21.922,56.549C21.929,56.653 21.946,56.757 21.972,56.858C22.016,57.032 22.086,57.197 22.173,57.354C22.314,57.609 22.498,57.839 22.701,58.049C23.041,58.402 23.435,58.702 23.846,58.968C24.499,59.392 25.201,59.737 25.918,60.039C26.859,60.435 27.831,60.756 28.814,61.031C30.039,61.374 31.283,61.644 32.535,61.864C34.112,62.141 35.703,62.337 37.299,62.47C39.049,62.615 40.804,62.684 42.56,62.684C43.951,62.684 45.343,62.641 46.732,62.55L46.732,63.803Z" style="" fill="black"></path></g><g transform="matrix(1,0,0,1,0,-2.70966)"><path d="M46.732,36.751C45.343,36.84 43.951,36.882 42.56,36.882C40.513,36.882 38.466,36.791 36.429,36.595C34.673,36.426 32.924,36.181 31.194,35.832C29.891,35.569 28.598,35.248 27.333,34.84C26.318,34.512 25.318,34.128 24.365,33.648C23.624,33.276 22.905,32.843 22.271,32.305C21.862,31.958 21.487,31.563 21.198,31.108C21.014,30.818 20.867,30.503 20.775,30.171C20.715,29.951 20.679,29.725 20.671,29.497L21.922,29.497C21.929,29.602 21.946,29.705 21.972,29.807C22.016,29.98 22.086,30.146 22.173,30.302C22.314,30.557 22.498,30.788 22.701,30.997C23.041,31.351 23.435,31.65 23.846,31.917C24.499,32.341 25.201,32.686 25.918,32.987C26.859,33.384 27.831,33.705 28.814,33.98C30.039,34.322 31.283,34.593 32.535,34.812C34.112,35.089 35.703,35.285 37.299,35.418C39.049,35.564 40.804,35.632 42.56,35.632C43.951,35.632 45.343,35.589 46.732,35.499L46.732,36.751Z" style="" fill="black"></path></g><path d="M21.37,16.825L21.297,27.398L23.277,29.624L32.489,32.634L43.017,33.549L46.105,33.549L46.105,60.459L33.701,59.966L24.73,57.357L20.967,54.559L21.302,69.009L23.254,71.09L35.263,74.579L48.326,74.57L59.9,72.279L63.886,68.938L63.992,16.577L58.089,20.867L45.08,22.72L33.701,22.116L23.305,19.023L21.37,16.825Z" style="" fill="black"></path></svg>