<svg xmlns="http://www.w3.org/2000/svg" xmlns:xlink="http://www.w3.org/1999/xlink" version="1.1" x="0px" y="0px" viewBox="0 0 100 100" enable-background="new 0 0 100 100" xml:space="preserve"><line fill="none" x1="2" y1="-8141" x2="8" y2="-8141"></line><line fill="none" x1="8" y1="8242" x2="2" y2="8242"></line><path fill="none" stroke="#000000" stroke-linecap="round" stroke-linejoin="round" stroke-miterlimit="10" d="M5,32.086"></path><path d="M39.74,88.731c0.577-0.577,1.084-1.207,1.526-1.868c3.561-4.9,4.633-10.818,6.137-12.855c1.5-2.03,4.995-4.154,5.955-4.716  c0.081-0.045,0.16-0.091,0.241-0.139c0.005-0.003,0.011-0.007,0.011-0.007l0,0c0.705-0.421,1.379-0.939,1.997-1.557  c2.073-2.073,3.052-4.771,2.87-7.233l0,0c0,0-0.001-0.008-0.003-0.026c-0.009-0.111-0.018-0.22-0.031-0.329  c-0.138-1.603-0.509-8.239,2.456-11.205c3.388-3.388,26.739-24.565,28.6-26.118c0,0,6.75-4.279-0.322-11.857l0,0l0,0  C81.601,3.752,77.321,10.5,77.321,10.5c-1.552,1.862-22.73,25.212-26.118,28.6c-0.649,0.649-1.477,1.14-2.387,1.507  c0.252-1.895-0.206-2.784-0.705-3.2c-0.015-0.01-0.031-0.022-0.049-0.038c-0.044-0.036-0.091-0.067-0.136-0.094  c-0.45-0.244-1.281-0.204-1.338-0.201l-0.004,0.001l0,0c-0.126-0.048-0.264-0.071-0.406-0.064l-2.799,0.158l-2.797,0.156  c-0.144,0.009-0.279,0.048-0.398,0.108l-0.001-0.001l-0.004,0c-0.057,0.003-0.887,0.057-1.307,0.351  c-0.042,0.032-0.084,0.067-0.125,0.108c-0.017,0.019-0.03,0.032-0.043,0.043c-0.476,0.497-0.845,1.515-0.254,3.593  c-2.112,0.157-4.297,1.124-6.038,2.866c-0.618,0.618-1.137,1.292-1.558,1.996l-0.001-0.001c0,0-0.003,0.006-0.007,0.011  c-0.048,0.08-0.093,0.16-0.138,0.241c-0.562,0.961-2.685,4.457-4.716,5.956c-2.037,1.503-7.955,2.577-12.854,6.138  c-0.662,0.441-1.292,0.948-1.869,1.525c-0.073,0.073-0.142,0.145-0.207,0.215c-0.068,0.065-0.133,0.125-0.197,0.189  c-0.174,0.174-0.317,0.349-0.434,0.525c-2.602,3.196-3.393,7.48-2.461,11.678l-0.002,0.001c0,0,0,0.002,0.001,0.006  c0.001,0.001,0.001,0.001-0.001,0.002c0,0.004-0.001,0.012,0.001,0.02c-0.001,0.002,0,0.002,0.001,0.003  c0,0.02,0.001,0.05,0.005,0.09l0,0c0.021,0.245,0.124,0.863,0.575,1.896c0.592,1.345,1.784,3.398,4.178,6.245  c0.46,0.67,1.082,1.409,1.899,2.226c0.214,0.214,0.424,0.424,0.635,0.628c0.031,0.031,0.061,0.061,0.093,0.091  c0.097,0.094,0.193,0.187,0.29,0.279c0.093,0.098,0.183,0.192,0.281,0.292c0.029,0.031,0.059,0.061,0.089,0.091  c0.204,0.211,0.414,0.421,0.629,0.636c0.817,0.817,1.555,1.44,2.225,1.899c2.846,2.393,4.901,3.586,6.244,4.177  c1.035,0.453,1.652,0.555,1.898,0.577l0,0c0.04,0.004,0.068,0.003,0.09,0.006c0,0,0,0,0.001-0.001c0.01,0.003,0.015,0,0.022,0.002  c0.001-0.001,0.001-0.001,0.001-0.001c0.003,0.001,0.007,0.002,0.007,0.002l-0.001-0.003c4.197,0.931,8.482,0.142,11.678-2.461  c0.175-0.118,0.351-0.26,0.525-0.434c0.064-0.064,0.123-0.13,0.189-0.198C39.594,88.872,39.666,88.804,39.74,88.731z M39.998,41.557  c-0.109-0.013-0.218-0.023-0.328-0.03c-0.017-0.001-0.026-0.003-0.026-0.003l0,0c-0.104-0.007-0.208-0.011-0.311-0.014  c-0.259-2.306,0.613-2.293,0.613-2.293l0.23-0.012c0.153,0.082,0.33,0.123,0.517,0.113l0.007,0.001  c0.028-0.001,0.041-0.017,0.044-0.025c0.002-0.003,0.001-0.004,0.003-0.006l-0.001-0.001l0,0c0.037-0.074,0.224-0.14,0.451-0.153  c0.257-0.014,0.47,0.043,0.474,0.13c0.001,0.03,0.136,0.045,0.3,0.035c0.163-0.008,0.294-0.039,0.291-0.068  c-0.003-0.088,0.201-0.169,0.459-0.183c0.256-0.015,0.468,0.044,0.473,0.129l0,0c0.001,0.03,0.136,0.045,0.299,0.037  c0.163-0.01,0.294-0.039,0.293-0.069l-0.001-0.001c-0.006-0.086,0.201-0.169,0.458-0.184c0.258-0.013,0.469,0.045,0.475,0.13  c0.001,0.03,0.136,0.045,0.299,0.037c0.164-0.01,0.294-0.039,0.293-0.069c-0.005-0.085,0.2-0.168,0.458-0.183  c0.226-0.012,0.419,0.03,0.463,0.102c0,0,0,0,0.001,0.001c0.001,0.003,0.002,0.004,0.002,0.007c0.006,0.008,0.019,0.021,0.048,0.019  l0.006,0c0.188-0.01,0.358-0.072,0.501-0.17l0.232-0.014c0,0,0.838-0.105,0.862,2.112C44.791,41.868,41.134,41.655,39.998,41.557z"></path></svg>