<svg xmlns="http://www.w3.org/2000/svg" xmlns:xlink="http://www.w3.org/1999/xlink" version="1.1" x="0px" y="0px" viewBox="0 0 50 50" enable-background="new 0 0 50 50" xml:space="preserve"><g><path fill-rule="evenodd" clip-rule="evenodd" fill="#000000" d="M1227.544,5442.369c-1.141,2.398-18.648,4.377-29.562,5.754   c0.059,0.182,0.117,0.361,0.117,0.48c0,0.9-1.138,1.619-2.518,1.619c-1.259,0-2.338-0.6-2.456-1.439   c-2.699,0.422-4.197,0.779-3.661,1.02c9.836,4.619,19.789,9.295,29.684,13.912c8.154-2.758,11.931-7.555,10.672-14.75   c-0.479,0.658-1.379,1.078-2.396,1.078c-1.561,0-2.819-1.02-2.819-2.338c0-1.26,1.259-2.338,2.819-2.338   c0.599,0,1.139,0.18,1.56,0.418C1228.623,5444.707,1228.142,5443.566,1227.544,5442.369L1227.544,5442.369z M1210.515,5446.805   c1.676,0,3.055,0.9,3.055,1.979c0,1.141-1.379,1.979-3.055,1.979c-1.738,0-3.12-0.838-3.12-1.979   C1207.395,5447.705,1208.776,5446.805,1210.515,5446.805L1210.515,5446.805z M1217.168,5452.861c1.922,0,3.539,1.141,3.539,2.52   s-1.617,2.52-3.539,2.52c-1.977,0-3.536-1.141-3.536-2.52S1215.191,5452.861,1217.168,5452.861z"></path><path fill-rule="evenodd" clip-rule="evenodd" fill="#000000" d="M1188.988,5452.262c7.073,3.178,13.61,6.596,20.325,9.893   c-1.318,0.359-2.339,1.26-2.339,2.34c0,1.379,1.621,2.52,3.54,2.52c1.977,0,3.535-1.141,3.535-2.52v-0.061   c1.56,0.721,3.061,1.439,4.62,2.098c0.236,6.357,1.138,12.715,1.377,19.07c-8.635-3.658-17.688-7.377-26.324-11.033   C1191.866,5467.252,1190.847,5459.576,1188.988,5452.262L1188.988,5452.262z M1203.139,5469.172c-1.92,0-3.537,1.139-3.537,2.518   s1.617,2.518,3.537,2.518c1.977,0,3.536-1.139,3.536-2.518S1205.115,5469.172,1203.139,5469.172L1203.139,5469.172z    M1196.482,5458.918c-1.86,0-3.478,1.139-3.478,2.52c0,1.377,1.617,2.518,3.478,2.518c1.979,0,3.538-1.141,3.538-2.518   C1200.021,5460.057,1198.461,5458.918,1196.482,5458.918z"></path><path fill-rule="evenodd" clip-rule="evenodd" fill="#000000" d="M1222.388,5484.943l-1.44-19.189c0,0,12.534-3.178,11.453-16.549   l1.68,24.164C1234.08,5473.369,1229.941,5482.244,1222.388,5484.943z"></path></g><g><path fill-rule="evenodd" clip-rule="evenodd" fill="#000000" d="M41.01,3.384c-1.141,2.398-18.648,4.377-29.562,5.753   c0.059,0.183,0.117,0.362,0.117,0.481c0,0.899-1.138,1.618-2.518,1.618c-1.259,0-2.338-0.599-2.456-1.438   c-2.699,0.421-4.197,0.779-3.661,1.019c9.836,4.619,19.789,9.296,29.684,13.912c8.154-2.758,11.931-7.554,10.672-14.75   c-0.479,0.659-1.379,1.079-2.396,1.079c-1.561,0-2.819-1.02-2.819-2.339c0-1.26,1.259-2.338,2.819-2.338   c0.599,0,1.139,0.18,1.56,0.419C42.089,5.721,41.607,4.58,41.01,3.384L41.01,3.384z M23.98,7.819c1.676,0,3.055,0.899,3.055,1.979   c0,1.14-1.379,1.979-3.055,1.979c-1.738,0-3.12-0.839-3.12-1.979C20.86,8.719,22.242,7.819,23.98,7.819L23.98,7.819z    M30.634,13.876c1.922,0,3.539,1.14,3.539,2.52c0,1.378-1.617,2.519-3.539,2.519c-1.977,0-3.536-1.141-3.536-2.519   C27.098,15.016,28.657,13.876,30.634,13.876z"></path><path fill-rule="evenodd" clip-rule="evenodd" fill="#000000" d="M2.454,13.276c7.073,3.178,13.61,6.595,20.325,9.893   c-1.318,0.358-2.339,1.26-2.339,2.339c0,1.38,1.621,2.521,3.54,2.521c1.977,0,3.535-1.141,3.535-2.521v-0.06   c1.56,0.721,3.061,1.439,4.62,2.098c0.236,6.357,1.138,12.715,1.377,19.07c-8.635-3.658-17.688-7.377-26.324-11.033   C5.332,28.267,4.313,20.591,2.454,13.276L2.454,13.276z M16.604,30.187c-1.92,0-3.537,1.139-3.537,2.518s1.617,2.518,3.537,2.518   c1.977,0,3.536-1.139,3.536-2.518S18.581,30.187,16.604,30.187L16.604,30.187z M9.948,19.933c-1.86,0-3.478,1.139-3.478,2.519   c0,1.377,1.617,2.519,3.478,2.519c1.979,0,3.538-1.142,3.538-2.519C13.486,21.071,11.927,19.933,9.948,19.933z"></path><path fill-rule="evenodd" clip-rule="evenodd" fill="#000000" d="M35.854,45.958l-1.44-19.189c0,0,12.534-3.179,11.453-16.55   l1.68,24.165C47.546,34.384,43.407,43.259,35.854,45.958z"></path></g></svg>