<svg xmlns="http://www.w3.org/2000/svg" xmlns:xlink="http://www.w3.org/1999/xlink" version="1.1" x="0px" y="0px" viewBox="0 0 100 100" enable-background="new 0 0 100 100" xml:space="preserve"><path d="M56.119,66.289C54.427,67.193,52.282,68,50,68c-2.292,0-4.439-0.814-6.116-1.713c2.696-1.919,4.97-4.379,6.116-5.717  C51.146,61.908,53.422,64.37,56.119,66.289z M69.84,65.082c0.34-0.197,0.325-0.691-0.025-0.868  c-2.863-1.435-5.275-4.642-7.791-7.985c-0.906-1.205-1.844-2.451-2.791-3.588c-0.021-0.023-2.144-2.514-4.765-2.626  c-1.304-0.046-2.577,0.511-3.757,1.689c-0.392,0.393-1.029,0.393-1.421,0c-1.182-1.18-2.462-1.752-3.767-1.689  c-2.637,0.12-4.733,2.601-4.754,2.625c-0.947,1.137-1.884,2.383-2.79,3.586c-2.514,3.342-4.926,6.547-7.786,7.984  c-0.351,0.176-0.365,0.672-0.025,0.868C31.806,66.027,34.175,67,37,67c4.521,0,10.347-6.218,12.21-8.614  C49.4,58.143,49.691,58,50,58s0.6,0.143,0.789,0.386C50.855,58.473,57.561,67,63,67C65.839,67,68.205,66.029,69.84,65.082z   M28.333,30.048l42.873,8.973c0.162,0.037,3.296,0.739,4.899-2.468c1.523-3.047-0.178-7.078-5.873-13.913  C65.052,16.424,58.223,13,51,13c-7.991,0-13.764,0-17.553,1.895C29.48,16.878,26,21.6,26,25C26,28.62,26.799,29.271,28.333,30.048z   M32.474,54.148c0.239-0.147,0.528-0.188,0.799-0.11c0.27,0.077,0.496,0.264,0.621,0.515c0.364,0.729,0.758,1.471,1.163,2.215  c0.438-0.569,0.878-1.153,1.322-1.742c0.921-1.225,1.873-2.49,2.852-3.666c0.108-0.129,2.692-3.184,6.2-3.342  c1.639-0.063,3.161,0.476,4.568,1.633c1.409-1.158,2.952-1.709,4.567-1.633c3.509,0.159,6.093,3.213,6.201,3.342  c0.979,1.176,1.932,2.441,2.853,3.666c0.431,0.574,0.858,1.141,1.284,1.695c1.798-3.851,3.57-9.51,3.115-16.323l-30.558-6.395  c-2.09,2.624-3.207,10.965-3.467,14.081c-0.091,1.079-1.602,1.264-1.945,0.234l-1.785-5.356c-0.761,0.002-2.078,0.148-2.876,1.04  c-0.835,0.932-0.976,2.533-0.42,4.757c0.761,3.044,1.905,4.955,3.31,5.526C31.439,54.755,32.465,54.154,32.474,54.148z   M75.178,48.552c0.411-0.017,0.625-0.497,0.362-0.813c-1.761-2.119-2.815-5.116-3.269-6.627c-0.884,0.038-1.349-0.107-2.226-0.291  c0.112,2.218,0.011,4.32-0.249,6.279C71.008,48.343,73.191,48.632,75.178,48.552z M26.33,42.25c1.908-1.628,4.687-1.258,4.812-1.24  c0.375,0.053,0.688,0.314,0.807,0.673l0.591,1.774c0.494-3.238,1.372-7.422,2.816-9.897c-0.6-0.125-7.47-1.498-7.995-1.766  c-0.981,2.226-3.228,6.416-7.059,8.809c-0.345,0.216-0.289,0.74,0.092,0.883C22.152,42.146,24.418,42.705,26.33,42.25z M44,68.58V73  c0,0.71,2.28,2,6,2c3.721,0,6-1.29,6-2v-4.42C54.128,69.437,52.084,70,50,70C47.913,70,45.867,69.435,44,68.58z M57.891,73.74  C57.21,75.891,53.59,77,50,77s-7.21-1.109-7.89-3.26c-9.09,1.68-16.14,6.22-18.37,11.9C23.49,86.29,23.98,87,24.68,87h50.64  c0.699,0,1.189-0.71,0.939-1.359C74.029,79.96,66.98,75.42,57.891,73.74z"></path></svg>