<svg xmlns="http://www.w3.org/2000/svg" xmlns:xlink="http://www.w3.org/1999/xlink" version="1.1" x="0px" y="0px" viewBox="0 0 100 100" enable-background="new 0 0 100 100" xml:space="preserve"><g><path fill-rule="evenodd" clip-rule="evenodd" d="M29.328,76.625h36.544c6.682-5.369,10.979-13.592,10.979-22.795   c0-16.111-13.14-29.251-29.25-29.251s-29.25,13.14-29.25,29.251C18.351,63.033,22.647,71.256,29.328,76.625z M64.098,69.938   c4.23-4.334,6.56-10.053,6.56-16.107c0-3.525-0.825-7.059-2.389-10.221c-0.26-0.525-0.044-1.164,0.482-1.424   c0.525-0.26,1.163-0.044,1.424,0.482c1.707,3.452,2.609,7.312,2.609,11.162c0,6.611-2.545,12.859-7.165,17.592   c-0.208,0.213-0.484,0.32-0.761,0.32c-0.268,0-0.536-0.1-0.742-0.303C63.695,71.029,63.688,70.357,64.098,69.938z M43.398,29   c1.386-0.235,2.799-0.354,4.202-0.354c0.587,0,1.063,0.476,1.063,1.063s-0.477,1.063-1.063,1.063c-1.284,0-2.579,0.108-3.847,0.323   c-0.061,0.01-0.12,0.015-0.179,0.015c-0.51,0-0.959-0.366-1.047-0.886C42.43,29.646,42.82,29.098,43.398,29z M27.364,38.84   c2.723-3.675,6.396-6.54,10.622-8.286c0.54-0.222,1.165,0.033,1.389,0.577c0.225,0.542-0.034,1.164-0.576,1.388   c-3.87,1.599-7.233,4.223-9.726,7.587c-0.209,0.281-0.53,0.431-0.855,0.431c-0.22,0-0.441-0.068-0.632-0.209   C27.114,39.978,27.015,39.312,27.364,38.84z"></path><path fill-rule="evenodd" clip-rule="evenodd" d="M73.227,84.541H22.161c-2.395,0.877-4.094,3.023-4.094,5.531v1.111H77.32v-1.111   C77.32,87.564,75.621,85.418,73.227,84.541z"></path><path fill-rule="evenodd" clip-rule="evenodd" d="M66.111,78.041H29.274c-1.622,1.064-2.707,2.883-2.707,4.963v0.119H68.82v-0.119   C68.82,80.922,67.734,79.105,66.111,78.041z"></path><polygon fill-rule="evenodd" clip-rule="evenodd" points="67.981,23.453 69.662,18.964 73.437,16.031 70.043,13.81 67.825,8.816    66.145,13.306 62.37,16.239 65.764,18.461  "></polygon><polygon fill-rule="evenodd" clip-rule="evenodd" points="79.564,34.401 78.482,31.314 77.464,34.446 75.13,35.877 77.497,37.226    78.579,40.313 79.599,37.18 81.933,35.749  "></polygon><path fill-rule="evenodd" clip-rule="evenodd" d="M57.154,23.75l-2.368-1.349l-1.082-3.087l-1.019,3.132l-1.206,0.739   c1.675,0.213,3.305,0.568,4.879,1.052L57.154,23.75z"></path></g></svg>