<svg xmlns="http://www.w3.org/2000/svg" xmlns:xlink="http://www.w3.org/1999/xlink" version="1.1" x="0px" y="0px" viewBox="0 0 100 100" enable-background="new 0 0 100 100" xml:space="preserve"><g><path fill="#000000" d="M49.997,88.261c-6.649,0-12.96-1.499-18.611-4.174l-4.97,13.975H76.85L71.188,82.76   C64.908,86.258,57.686,88.261,49.997,88.261z"></path><path fill="#000000" d="M49.997,83.357c7.207,0,13.968-1.878,19.839-5.161c12.449-6.961,20.873-20.268,20.873-35.548   c0-22.482-18.225-40.709-40.712-40.709c-22.482,0-40.706,18.227-40.706,40.709c0,16.313,9.595,30.378,23.455,36.874   C37.983,81.979,43.829,83.357,49.997,83.357z M66.93,11.853c10.486,6.269,17.514,17.728,17.514,30.834   c0,13.106-7.027,24.566-17.516,30.835c8.287-6.805,13.707-18.075,13.707-30.835C80.635,29.926,75.215,18.657,66.93,11.853z    M46.34,41.115l3.312,2.031l-3.626,1.389l-0.906,3.774l-2.447-3.018l-3.868,0.303l2.116-3.254l-1.485-3.588l3.75,1.004l2.953-2.52   L46.34,41.115z M29.165,47.396l-4.643-1.851l-4.154,2.773l0.324-4.987l-3.919-3.095l4.838-1.233l1.737-4.687l2.662,4.226l5,0.199   l-3.201,3.844L29.165,47.396z M33.897,25.813l-5.742-2.315l5.329-3.145l0.43-6.169l4.638,4.095l5.998-1.5l-2.461,5.675l3.279,5.242   l-6.156-0.585l-3.973,4.739L33.897,25.813z"></path></g></svg>