<svg xmlns="http://www.w3.org/2000/svg" xmlns:xlink="http://www.w3.org/1999/xlink" version="1.1" x="0px" y="0px" viewBox="0 0 52 52" style="enable-background:new 0 0 52 52;" xml:space="preserve"><g><circle cx="26" cy="2.9" r="2.9"></circle><path d="M31.6,3.8v0.9c0,0.5,0.4,0.9,0.9,0.9s0.9-0.4,0.9-0.9V1.1c0-0.5-0.4-0.9-0.9-0.9s-0.9,0.4-0.9,0.9V2h-1.1   c0.1,0.3,0.1,0.6,0.1,0.9s0,0.6-0.1,0.9H31.6z"></path><path d="M19.5,5.5c0.5,0,0.9-0.4,0.9-0.9V3.8h1.1c-0.1-0.3-0.1-0.6-0.1-0.9s0-0.6,0.1-0.9h-1.1V1.1c0-0.5-0.4-0.9-0.9-0.9   c-0.5,0-0.9,0.4-0.9,0.9v3.5C18.6,5.1,19,5.5,19.5,5.5z"></path><path d="M25.1,10.5c0.3,0,0.6,0,0.9,0c0.3,0,0.6,0,0.9,0v-3c-0.3,0.1-0.6,0.1-0.9,0.1c-0.3,0-0.6,0-0.9-0.1V10.5z"></path><path d="M16.4,42.4c0,5.3,4.3,9.6,9.6,9.6h0c5.3,0,9.6-4.3,9.6-9.6v-1.9H16.4V42.4z"></path><path d="M16.4,38.7h19.3V25.6H16.4V38.7z M20.4,31.2h11.1c0.5,0,0.9,0.4,0.9,0.9c0,0.5-0.4,0.9-0.9,0.9H20.4   c-0.5,0-0.9-0.4-0.9-0.9C19.5,31.6,19.9,31.2,20.4,31.2z"></path><path d="M26,12.2L26,12.2c-5.3,0-9.6,4.3-9.6,9.6v1.9h19.3v-1.9C35.6,16.5,31.3,12.2,26,12.2z"></path></g></svg>