<svg xmlns="http://www.w3.org/2000/svg" xmlns:xlink="http://www.w3.org/1999/xlink" version="1.1" x="0px" y="0px" viewBox="0 0 1920 1080" enable-background="new 0 0 1920 1080" xml:space="preserve"><path d="M1316.929,434.149c-0.076-0.551-0.162-1.102-0.238-1.652c-9.871,4.676-21.211,8.078-33.264,8.5  c1.123,5.735,0.68,14.504-6.642,27.248c-8.77,15.304-22.334,11.707-32.227,9.094c-3.672-0.972-7.128-1.879-10.001-1.879  c-9.752,0-22.27,7.528-31.406,13.025c-5.53,3.326-9.893,5.951-13.295,6.826c-0.453,0.119-0.907,0.173-1.35,0.173  c-2.408,0-4.601-1.609-5.227-4.05c-0.745-2.894,0.994-5.843,3.877-6.577c1.89-0.486,6.232-3.11,10.433-5.627  c10.217-6.145,24.214-14.569,36.979-14.569c4.277,0,8.586,1.134,12.755,2.246c10.195,2.7,15.66,3.704,20.11-4.039  c8.316-14.461,5.432-20.736,4.201-23.414c-0.616-1.328-1.879-4.082,0.022-6.847c1.08-1.566,3.586-2.538,5.519-2.495  c30.964,1.998,56.236-19.742,62.456-28.166c-4.169,0.799-13.532,5.162-21.427,10.508c-1.685,1.145-3.866,1.231-5.627,0.259  c-1.609-0.896-2.646-2.527-2.786-4.331c-1.134,0-3.078-0.594-4.18-1.847c-1.912-2.171-1.76-5.454,0.324-7.452  c2.084-2.009,4.979-4.633,8.294-7.247c2.246-2.149,4.277-4.266,5.962-6.178c-7.42,6.437-19.634,17.064-31.417,8.77  c-2.7,1.674-8.046,8.5-11.351,12.712c-7.97,10.163-15.498,19.764-23.814,19.764c-7.614,0-15.217-2.117-23.274-4.352  c-9.547-2.657-20.369-5.659-33.296-5.659c-18.414,0-64.174,32.119-80.266,44.496c-2.365,1.814-5.746,1.372-7.571-0.983  c-1.814-2.365-1.372-5.756,0.994-7.571c6.21-4.784,61.43-46.742,86.843-46.742c14.396,0,25.974,3.218,36.191,6.059  c7.646,2.128,14.245,3.964,20.39,3.964c3.089-0.032,11.351-10.562,15.314-15.628c7.938-10.13,13.122-16.384,19.138-17.086  c2.365-0.27,4.601,0.356,6.469,1.858c3.769,3.013,8.229,0.853,15.584-5.216c-4.244-11.988-12.809-22.518-31.072-28.598  c-12.506-4.169-24.16-5.562-35.424-6.912c-2.03-0.238-4.018-0.486-6.005-0.745c0.734-11.848,2.149-30.532,5.324-36.04  c1.48-2.581,3.337-5.13,5.054-7.528c5.033-6.998,9.763-13.619,7.744-21.308c-0.702-2.689-2.182-5.022-4.277-6.826  c5.951-6.361,10.098-13.284,8.532-20.855c-0.724-3.532-3.402-9.914-13.176-12.982l-2.538-0.648h-1.652  c-16.427,0-40.846,34.117-41.094,34.463c-5.983,8.737-8.575,31.342-9.655,52.931c-13.586-9.277-30.499-19.04-55.037-19.04  c-5.508,0-11.243,0.518-17.053,1.534c-40.144,7.009-76.075,41.623-85.558,57.726c-1.674,2.83-15.152,6.005-24.991,8.327  c-14.623,3.445-32.8,7.733-52.672,16.567l-12.02,5.4c-35.888,16.189-95.969,43.265-127.181,43.265c-2.56,0-4.817-0.194-6.739-0.572  c-5.011-1.004-10.152-1.523-15.314-1.804c-2.29-3.553-2.83-6.966-3.337-10.487c-0.486-3.424-1.048-7.312-3.24-10.951  c-4.482-7.474-10.39-9.558-15.25-9.99c14.645-21.503,16.988-32.098,8.726-38.696c-0.713-0.572-1.555-1.058-2.462-1.447  c-2.495-2.938-6.361-4.493-10.454-4.136c-16.924,1.447-28.004,20.336-28.458,21.136c-5.983,10.346-8.305,28.285-1.62,39.215  c2.862,4.676,6.221,12.679,6.448,16.394c0.14,2.29,0.41,4.514,0.778,6.664c-10.033,3.683-18.263,7.916-23.771,11.178  c-10.303,6.08-19.008,15.152-27.421,23.922c-6.372,6.642-12.388,12.906-18.328,17.075c-4.504,3.154-7.02,3.413-9.407,3.413  c-1.577,0-3.154-0.151-4.817-0.292c-6.458-0.562-14.299-0.594-21.902,1.242c-12.344,2.959-21.114,11.372-28.858,18.803  c-5.584,5.357-10.854,10.411-15.206,11.038c-2.981,0.421-9.148,2.041-16.924,4.46c3.64-2.732,7.495-5.411,11.578-7.981  c2.527-1.588,3.283-4.925,1.685-7.441c-1.577-2.516-4.936-3.272-7.441-1.685c-8.824,5.562-16.664,11.567-23.49,17.474  c-0.022-0.097,0-0.184-0.032-0.281c-0.907-2.84-3.942-4.406-6.782-3.499c-12.215,3.91-24.516,16.654-32.616,26.536  c-1.598,0.842-3.11,1.717-4.633,2.57c3.467-7.247,8.23-15.725,14.569-23.576c1.868-2.322,1.512-5.713-0.81-7.592  c-2.311-1.879-5.713-1.512-7.592,0.81c-12.96,16.06-19.937,34.085-22.41,41.321c-2.884,2.462-5.335,4.925-6.977,7.376  c-4.18,6.221-4.028,11.664-3.164,15.12c4.147,16.589,14.494,30.208,30.748,40.91c8.122,21.254,21.568,49.248,39.658,62.24  c0.95,0.68,2.052,1.015,3.143,1.015c1.685,0,3.337-0.778,4.396-2.246c1.739-2.43,1.188-5.8-1.242-7.538  c-12.787-9.18-23.263-27.821-30.856-45.166c2.516,1.156,5.044,2.311,7.754,3.37c16.394,25.79,39.528,58.158,55.642,64.022  c0.605,0.227,1.231,0.324,1.847,0.324c2.203,0,4.277-1.361,5.076-3.553c1.026-2.808-0.421-5.897-3.229-6.923  c-10.811-3.942-27.853-26.006-42.833-48.438c2.678,0.767,5.346,1.534,8.165,2.214c23.512,31.201,56.992,72.457,72.684,76.777  c0.475,0.13,0.961,0.194,1.436,0.194c2.365,0,4.536-1.577,5.195-3.964c0.788-2.884-0.896-5.854-3.769-6.642  c-10.249-2.819-35.564-32.184-59.389-63.007c23.026,4.115,50.015,6.242,81.162,6.242c4.363,0,8.543-0.043,12.56-0.119  c-0.626,6.912,0.335,13.824,4.385,19.526c5.033,7.096,13.327,10.66,24.743,10.66c4.752,0,10.066-0.626,15.898-1.858  c24.862-5.303,33.21-17.172,35.478-27.464c13.295,0.54,29.689,0.929,49.81,0.929c58.169,0,123.887-3.132,195.318-9.288  c75.524-6.523,143.305-30.823,201.442-72.23l3.467-2.462c3.24-2.214,8.154-7.625,22.529-23.771  c16.848-18.932,51.905-58.342,63.32-62.996c4.612-1.879,8.305-4.082,11.362-6.545c23.166,4.277,68.375,18.727,68.375,66.377  c0,50.328-22.993,67.349-43.276,82.372c-5.324,3.942-10.357,7.668-14.861,11.858c-1.382,1.274-137.052,132.937-130.972,168.037  c0.95,5.476,4.374,9.85,9.407,11.999c1.868,0.799,3.856,1.21,5.929,1.21c0,0,0,0,0.011,0c12.139,0,22.313-13.241,42.584-39.593  c24.451-31.774,57.92-75.298,102.686-103.594c21.395-13.532,84.499-71.831,87.62-130.205  C1438.44,493.452,1379.051,447.908,1316.929,434.149z M515.85,607.327c-8.1-8.77-12.679-20.66,5.065-29.527  C524.63,575.942,518.118,609.79,515.85,607.327z M739.097,660.496c-1.415,4.482-8.089,8.219-18.77,10.487  c-13.09,2.819-17.798,0.821-18.511-0.173c-2.398-3.37,1.62-17.248,8.122-28.026c1.058-1.76,1.372-3.683,1.372-5.594h19.105  c0.13,2.138,0.702,4.255,1.858,5.994c0.713,1.08,1.588,1.976,2.56,2.7C737.045,649.058,740.598,655.733,739.097,660.496z   M848.177,551.88c-2.624,1.458-5.897,0.454-7.322-2.16c-7.376-13.554-14.569-16.157-20.92-18.446  c-6.242-2.257-13.316-4.817-13.986-17.075c-0.13-2.257,0.821-4.817,2.538-9.45c2.581-6.977,7.042-19.04,5.443-27.799  c-1.112,2.538-2.484,5.454-4.104,8.845c-1.134,2.365-2.084,4.298-2.452,5.292c-0.022,0.076-0.054,0.151-0.076,0.227  c-0.972,2.797-4.007,4.331-6.836,3.348c-2.808-0.95-4.32-4.007-3.391-6.815c0.011-0.032,0.022-0.076,0.043-0.119  c0.486-1.404,0.961-2.732,1.436-3.985c-0.335,0.367-0.68,0.745-1.048,1.123c-1.987,2.128-5.292,2.279-7.484,0.389  c-2.192-1.901-2.484-5.195-0.67-7.463c0.734-0.918,1.447-1.793,2.138-2.614c-2.02,1.879-3.607,3.758-4.417,5.152  c-2.776,4.806,0.961,14.256,5,20.876c2.7,4.417,3.121,12.215,3.38,21.946c0.054,1.933,0.097,3.704,0.194,5.152  c0.67,11.124,12.388,26.093,16.848,30.92c2.03,2.192,1.89,5.605-0.302,7.625c-1.037,0.961-2.354,1.436-3.661,1.436  c-1.458,0-2.905-0.583-3.964-1.739c-0.767-0.821-18.652-20.39-19.688-37.584c-0.097-1.555-0.151-3.445-0.205-5.508  c-0.13-4.644-0.389-14.299-1.804-16.61c-3.64-5.972-11.437-21.017-5.152-31.914c3.175-5.486,14.342-16.664,25.79-17.647  c2.581-0.216,4.298,0.605,5.411,1.555c0.454-0.14,0.788-0.205,1.058-0.238c2.041-0.259,4.936,0.81,6.124,2.419  c0.497,0.67,0.864,1.393,1.08,2.192c1.555,0.518,3.316,1.696,4.709,4.212c7.139,12.938,0.616,30.564-3.283,41.094  c-0.788,2.138-1.782,4.795-1.89,5.584c0.292,4.655,1.296,5.022,6.89,7.042c6.923,2.506,17.399,6.296,26.73,23.447  C851.773,547.171,850.801,550.454,848.177,551.88z"></path></svg>