<svg xmlns="http://www.w3.org/2000/svg" xmlns:xlink="http://www.w3.org/1999/xlink" version="1.1" x="0px" y="0px" viewBox="0 0 100 100" enable-background="new 0 0 100 100" xml:space="preserve"><g><path d="M80.928,42.14c0.374,0.478,0.931,0.728,1.494,0.728c0.408,0,0.819-0.132,1.166-0.402c0.824-0.645,0.969-1.836,0.324-2.661   l-0.623-0.796c-0.644-0.824-1.835-0.97-2.659-0.325s-0.97,1.836-0.324,2.66L80.928,42.14z"></path><path d="M85.483,58.902c-0.777-0.722-1.994-0.674-2.715,0.104c-0.72,0.78-0.673,1.994,0.105,2.715l3.042,2.816   c0.371,0.344,0.839,0.512,1.306,0.512c0.517,0,1.031-0.207,1.41-0.616c0.722-0.779,0.674-1.995-0.105-2.716L85.483,58.902z"></path></g><path d="M96.294,45.043c-0.245-0.54-0.783-0.87-1.374-0.87c-0.001,0-0.001,0-0.002,0L82.91,44.179c-0.035,0-0.856-0.002-2.201-0.005  l-3.949-5.05c-0.645-0.824-1.835-0.971-2.66-0.326c-0.824,0.645-0.971,1.835-0.325,2.661l2.115,2.705  c-5.324-0.011-12.523-0.024-17.346-0.024c-8.226,0-12.494,5.967-15.611,10.318c-0.809,1.128-1.593,2.225-2.331,3.045  c-9.474,0.163-21.965,0.368-24.92,0.368c-5.605,0-7.846-4.387-7.954-4.604c-0.52-1.083-1.817-1.544-2.905-1.029  c-1.092,0.515-1.559,1.818-1.043,2.91c0.137,0.29,3.45,7.097,11.901,7.097c2.813,0,13.809-0.178,22.96-0.332  c0.11,0.026,0.223,0.047,0.339,0.047h9.176l-1.909,1.861c-0.679,0.663-0.888,1.659-0.53,2.538c0.358,0.878,1.211,1.431,2.16,1.431  h10.229c1.287,0,2.33-1.044,2.33-2.332s-1.043-2.333-2.33-2.333h-4.503c0,0,2.814-2.621,2.823-2.63c0.932-0.9,1.484-1.725,1.7-2.517  c0.503-1.844-0.054-3.993-0.889-4.685c-0.557-0.462-0.635-1.288-0.173-1.848c0.463-0.557,1.29-0.635,1.848-0.174  c1.72,1.427,2.487,4.674,1.745,7.396c-0.237,0.875-0.619,1.654-1.118,2.326c0.001-0.001,0.004-0.003,0.004-0.003  c-0.459,0.551-0.015,0.969,0.771,0.969h6.632c2.337,0,4.646-0.322,6.899-0.887l4.427,4.265c0.373,0.358,0.853,0.538,1.332,0.538  c0.504,0,1.008-0.197,1.384-0.589c0.736-0.764,0.714-1.98-0.05-2.716l-2.941-2.834c7.306-2.864,13.73-8.065,18.059-13.016  C96.446,46.274,96.54,45.583,96.294,45.043z"></path></svg>