<svg xmlns="http://www.w3.org/2000/svg" xmlns:xlink="http://www.w3.org/1999/xlink" version="1.1" x="0px" y="0px" viewBox="0 0 100 100" style="enable-background:new 0 0 100 100;" xml:space="preserve"><metadata><?xpacket begin="&#65279;" id="W5M0MpCehiHzreSzNTczkc9d"?><x:xmpmeta xmlns:x="adobe:ns:meta/" x:xmptk="Adobe XMP Core 5.6-c111 79.158366, 2015/09/25-01:12:00        "></x:xmpmeta><?xpacket end="w"?></metadata><g><polygon points="62.9,90.9 63.7,90.1 62.8,89.2 63.7,88.2 62.9,87.4 61.9,88.3 61,87.4 60.2,88.2 61.1,89.2 60.2,90.1 61,90.9    61.9,90  "></polygon><path d="M70.4,87.8l-1.2,0.1c0.1,2.3-1.9,3.7-4,4.4c0.3-0.4,0.5-0.9,0.7-1.4c1-1,3-3.3,2.8-6.8l-1.2,0.1c0.1,2-0.6,3.6-1.4,4.6   c-0.2-1.8-1.3-4.3-5.3-6.9l-0.7-0.4l-0.5,0.6c-0.1,0.2-2.4,3.1-2.5,6.4c-0.3-0.1-0.6-0.2-1-0.2c-0.1,0-0.2,0-0.3,0   c1.8-6.5,3.7-15.8,0.8-18.5c-1.1-1-2.6-1.1-4.5-0.4c-2.2,0.9-3.7,2.5-4.7,4.7c-1.1,2.7-1.1,6.1-0.6,9.4c-2.2-1.4-5.5-2.3-10.2-1.3   l-0.6,0.1l-0.1,0.6c-0.1,0.3-1.6,7.8,2.3,11.9c1.6,1.7,3.9,2.5,6.8,2.5c1.1,0,2.2-0.1,3.5-0.3c6-1.1,8.5-3.2,9.5-4.7   c0.1,0.1,0.2,0.3,0.3,0.4c0.8,1.1,1.9,1.6,3.1,1.6c0.3,0,0.6,0,0.9-0.1c0,0,0.1,0,0.1,0C64.6,93.9,70.7,92.5,70.4,87.8z M49.1,74.9   c0.7-1.8,1.9-3,3.7-3.7c0.7-0.3,1.2-0.4,1.5-0.4c0.6,0,0.9,0.3,1,0.4c2.3,2.2,0,12.7-2.3,20.3c0,0,0,0,0,0.1l0,0.1   c-0.1,0.2-0.1,0.4-0.2,0.6c-0.2,0.5-0.3,1-0.5,1.4l-0.8,0.1c-0.5-1.4-1.7-4.6-2.5-8.2l-0.1-0.3l0,0C48.2,81.8,47.9,77.8,49.1,74.9z    M43.9,95.5c-0.6-0.1-1.2-0.2-1.7-0.3l4.9-9.1c0.1,0.1,0.1,0.1,0.2,0.2c0.2,0.7,0.3,1.5,0.5,2.1l-0.1,0L43.9,95.5z M37.7,89.6   l3.2-5.9c0.5,0,1,0.1,1.5,0.2l-4.1,7.7C38,90.9,37.8,90.3,37.7,89.6z M38.7,83.8l-1.3,2.5c0-1,0.1-1.8,0.2-2.3   C38,83.8,38.4,83.8,38.7,83.8z M39.4,93.3l4.8-9c0.5,0.2,0.9,0.4,1.4,0.7l-5,9.4c-0.3-0.2-0.7-0.5-1-0.8   C39.5,93.5,39.4,93.4,39.4,93.3z M48.2,95.2c-0.8,0.2-1.6,0.2-2.3,0.3l2.5-4.7c0.6,1.9,1.2,3.4,1.5,4.1   C49.4,95,48.9,95.1,48.2,95.2z M54.4,93.2c0-0.2,0.1-0.3,0.2-0.5c0-0.1,0.1-0.3,0.1-0.4c0.7-1.6,1.2-2,1.5-2c0.2,0,0.5,0.3,0.7,0.6   C56.7,91.2,56.1,92.2,54.4,93.2z M59.8,91.7c-2-2.8-0.2-6.3,0.7-7.7c2.7,1.9,4.1,4.1,3.7,6c-0.3,1.5-1.4,2.4-2.3,2.6   C61.4,92.7,60.5,92.7,59.8,91.7z"></path><path d="M54.3,4.7l-1.2-1.4c0,0-0.5,0.4-1.2,1.1l1.3,1.3C53.8,5.1,54.3,4.7,54.3,4.7z"></path><path d="M51.2,7.7l-1.3-1.2c-0.7,0.7-1.3,1.5-1.9,2.3l1.4,1.1C49.9,9.1,50.5,8.4,51.2,7.7z"></path><path d="M47.7,12.1l-1.5-1c-0.6,0.9-1.1,1.7-1.5,2.6l1.6,0.8C46.7,13.7,47.2,12.9,47.7,12.1z"></path><path d="M59.3,42.7c-0.3-1-0.7-1.9-1.3-2.8l-1.6,0.9c0.5,0.8,0.8,1.6,1.1,2.5L59.3,42.7z"></path><path d="M53,36.6c0.7,0.6,1.4,1.3,1.9,2l1.4-1.2c-0.6-0.7-1.3-1.5-2.1-2.2L53,36.6z"></path><path d="M58.2,47.1c0,0.5,0,1-0.1,1.4l1.8,0.2c0.1-0.6,0.1-1.1,0.1-1.6c0-0.5,0-1-0.1-1.4l-1.8,0.2C58.2,46.3,58.2,46.7,58.2,47.1z   "></path><path d="M59.3,51.7l-1.8-0.5c-0.3,0.8-0.6,1.7-1,2.6l1.7,0.8C58.7,53.6,59.1,52.7,59.3,51.7z"></path><path d="M53.7,58.5l1.5,1.1c0.6-0.8,1.2-1.6,1.7-2.5l-1.6-1C54.8,57,54.3,57.8,53.7,58.5z"></path><path d="M45,25c-0.3-0.8-0.4-1.7-0.5-2.6l-1.8,0.1c0.1,1,0.3,2.1,0.6,3L45,25z"></path><path d="M44.5,28.4c0.5,0.8,1.1,1.7,1.8,2.5l1.4-1.2c-0.6-0.7-1.2-1.4-1.6-2.2L44.5,28.4z"></path><path d="M45.3,17.1l-1.7-0.6c-0.3,1-0.6,2-0.7,3l1.8,0.3C44.8,18.9,45,18,45.3,17.1z"></path><path d="M48.5,33c0.6,0.5,1.3,1,1.9,1.5c0.1,0.1,0.3,0.2,0.4,0.3l1.1-1.5c-0.1-0.1-0.3-0.2-0.4-0.3c-0.6-0.5-1.3-0.9-1.8-1.4   L48.5,33z"></path><path d="M50.8,61.7l1.2,1.4c0,0,0.5-0.4,1.1-1.1l-1.3-1.2C51.2,61.4,50.8,61.7,50.8,61.7z"></path></g></svg>