<svg xmlns="http://www.w3.org/2000/svg" xmlns:xlink="http://www.w3.org/1999/xlink" version="1.1" x="0px" y="0px" viewBox="0 0 100 100" enable-background="new 0 0 100 100" xml:space="preserve"><g><path fill="#000000" d="M48.8,64.2c0,0,3.2,2.5,6.8,2.5c0.9,0,1.9-0.2,2.9-0.6l9.1-3.4c0,0,0.1,0,0.2,0c0.4,0,1.3,0.1,1.9,1.5   l1.2,2.5L85,60.6c0.8-0.4,1.1-1.3,0.7-2.1L85.5,58c-0.3-0.5-0.8-0.8-1.3-0.8c-0.2,0-0.4,0-0.6,0.1c-2.1,0.9-6.1,2.6-7.1,2.6   c-1.4,0-15-9.4-21-15.4c-5.7-5.7-16.6-24.8-21.1-30.3c-0.3-0.4-0.7-0.5-1.1-0.5c-0.2,0-0.4,0-0.6,0.1L15,22.3c0,0,2.2,2.7,5,9.8   L48.8,64.2z"></path><path fill="#000000" d="M16.1,26.5c0,0-1.5-2.7-2.2-3.3L12.3,24l2.7,3.1L16.1,26.5z"></path><path fill="#000000" d="M89.9,73.1c-0.2-0.7-0.6-1.7-1.7-1.7c-0.3,0-0.6,0.1-1,0.2L65.1,82.8l2.5,2.8l21.7-11.3   C89.8,74.1,90,73.6,89.9,73.1z"></path><polygon fill="#000000" points="55.1,42.8 56.3,39.3 53.4,36 52.4,39.3  "></polygon><path fill="#000000" d="M60.1,28.7c0.2-0.7,0-1.4-0.5-1.9c-1-1-2.7-0.6-3.1,0.8l-0.2,0.7l2.9,3.4L60.1,28.7z"></path><path fill="#000000" d="M18.4,83.1c0.1,0,0.2,0,0.3,0c0.7,0,1.2-0.5,1.4-1.2l6-37c0.1-0.8-0.4-1.5-1.1-1.6l-1.2-0.2   c-0.1,0-0.2,0-0.3,0c-0.7,0-1.3,0.5-1.4,1.2l-5.8,37.1c-0.1,0.7,0.4,1.4,1.1,1.6L18.4,83.1z M23.8,44.9c0.5,0,0.9,0.4,0.9,0.9   s-0.4,0.9-0.9,0.9c-0.5,0-0.9-0.4-0.9-0.9S23.3,44.9,23.8,44.9z"></path><path fill="#000000" d="M94.6,73.2L84.6,62l-5.1,2.2l6.1,7l1.1-0.5l0.1,0l0.1,0c0.5-0.2,0.9-0.3,1.3-0.3c1.4,0,2.4,0.9,2.8,2.5   c0.2,1-0.2,2-1.1,2.5l-0.3,0.2l1.2,1.4c0.6,0.6,1.5,0.7,2.2,0.1l1.7-1.8C95.1,74.7,95.2,73.8,94.6,73.2z"></path><path fill="#000000" d="M34.6,13.1c0.2,0.1,0.4,0.3,0.6,0.5c0.3,0.3,0.6,0.7,0.9,1.1L73.2,57c1.6,1,2.8,1.7,3.3,1.9   c0.4,0,1.6-0.4,4.1-1.4L37.2,8.6C36.6,8,35.7,8,35.1,8.5l-1.4,1.3c-0.6,0.5-0.7,1.5-0.1,2.1L34.6,13.1z M55.9,32.6   c0.5,0,0.9,0.4,0.9,0.9c0,0.5-0.4,0.9-0.9,0.9c-0.5,0-0.9-0.4-0.9-0.9C55,33,55.4,32.6,55.9,32.6z"></path><path fill="#000000" d="M67,64.3l-14.1,4.9l3.5,3.9l12.4-4.3c0.8-0.3,1.1-1.1,0.8-1.9l-0.8-1.9C68.5,64.4,67.7,64.1,67,64.3z"></path><path fill="#000000" d="M9,22.3c-0.3-0.3-0.7-0.5-1.1-0.5c-0.3,0-0.7,0.1-1,0.4l-1.4,1.3c-0.6,0.5-0.7,1.5-0.1,2.1l15.9,17.8   c0.4-0.8,1.3-1.4,2.2-1.4c0.2,0,0.3,0,0.5,0l1.2,0.2c1.3,0.3,2.2,1.5,2,2.9l-0.7,4.1l37.6,42.1c0.3,0.3,0.7,0.5,1.1,0.5   c0.4,0,0.8-0.1,1-0.4l1.7-1.8c0.6-0.6,0.6-1.5,0.1-2.1L9,22.3z M50.5,73.2c-0.5,0-0.9-0.4-0.9-0.9c0-0.5,0.4-0.9,0.9-0.9   c0.5,0,0.9,0.4,0.9,0.9C51.4,72.8,51,73.2,50.5,73.2z"></path><path fill="#000000" d="M21.5,80.1l-0.3,2c-0.2,1.2-1.2,2.1-2.4,2.1c-0.2,0-0.3,0-0.5,0l-1-0.2c-0.9-0.2-1.6-0.8-1.9-1.7l-1.4,0.5   c-0.7,0.3-1.1,1-0.9,1.7l0.6,1.8c0.2,0.8,1.1,1.2,1.8,0.9l33.3-11.4l-3.5-3.9L21.5,80.1z"></path></g></svg>