<?xml version="1.0" encoding="UTF-8" standalone="no"?>
<!DOCTYPE svg PUBLIC "-//W3C//DTD SVG 1.1//EN" "http://www.w3.org/Graphics/SVG/1.1/DTD/svg11.dtd">
<svg width="100%" height="100%" viewBox="0 0 100 100" version="1.1" xmlns="http://www.w3.org/2000/svg" xmlns:xlink="http://www.w3.org/1999/xlink" xml:space="preserve" xmlns:serif="http://www.serif.com/" style="fill-rule:evenodd;clip-rule:evenodd;stroke-miterlimit:10;">
    <g>
        <g transform="matrix(0.268305,0,0,0.240356,0.648201,33.84)">
            <path d="M182,203.4C182,211 179.3,218 179.3,218C176.3,225 157.7,269 117.7,269.4C83.3,269.8 53.5,237.6 53.5,203.4C53.5,160.7 99.5,130.6 117.7,137.4C130.2,142 131.8,164.6 150.9,169C157.4,170.5 159.3,168.3 164.9,171C177.7,177 182,194.4 182,203.4Z" style="fill-rule:nonzero;stroke:black;stroke-width:1px;"/>
        </g>
        <g transform="matrix(0.268305,0,0,0.240356,0.648201,33.84)">
            <path d="M108,171.4C114.1,169 117.2,162 114.8,155.8L64.4,28.5C62,22.4 55,19.3 48.8,21.7C42.7,24.1 39.6,31.1 42,37.3L92.3,164.6C94.8,170.7 101.8,173.8 108,171.4Z" style="fill-rule:nonzero;stroke:black;stroke-width:1px;"/>
        </g>
        <g transform="matrix(0.268305,0,0,0.240356,0.648201,33.84)">
            <path d="M85.2,188C79.1,190.5 72.1,187.5 69.6,181.4L27.9,78.4C25.4,72.3 28.4,65.3 34.5,62.8C40.6,60.3 47.6,63.3 50.1,69.4L91.8,172.4C94.3,178.5 91.4,185.6 85.2,188Z" style="fill-rule:nonzero;stroke:black;stroke-width:1px;"/>
        </g>
        <g transform="matrix(0.268305,0,0,0.240356,0.648201,33.84)">
            <path d="M74.9,235C68.8,237.5 61.8,234.5 59.3,228.4L23.4,139.7C20.9,133.6 23.9,126.6 30,124.1C36.1,121.6 43.1,124.6 45.6,130.7L81.5,219.4C84,225.5 81,232.6 74.9,235Z" style="fill-rule:nonzero;stroke:black;stroke-width:1px;"/>
        </g>
        <g transform="matrix(0.268305,0,0,0.240356,0.648201,33.84)">
            <path d="M146.1,189.4C152.2,187 155.3,180 152.9,173.8L102.6,46.5C100.2,40.4 93.2,37.3 87,39.7C80.9,42.1 77.8,49.1 80.2,55.3L130.5,182.6C133,188.7 140,191.8 146.1,189.4Z" style="fill-rule:nonzero;stroke:black;stroke-width:1px;"/>
        </g>
        <g transform="matrix(0.268305,0,0,0.240356,0.648201,33.84)">
            <path d="M160.6,231L152.7,228C146.5,225.7 143.4,218.7 145.7,212.5C154.9,188 164.2,163.5 173.4,139C174.5,136.9 177.3,132.2 182.9,129C186.1,127.2 189.1,126.5 191.2,126.2C192.2,126.4 193.3,126.6 194.4,127C196.3,127.6 197.9,128.4 199,129.2C200.9,131.3 203.4,134.5 204.4,139C205.7,144.7 204.1,149.3 203.4,151C194.3,175.3 185.1,199.7 176,224C173.7,230.2 166.8,233.3 160.6,231Z" style="fill-rule:nonzero;stroke:black;stroke-width:1px;"/>
        </g>
        <g transform="matrix(0.268305,0,0,0.240356,0.648201,33.84)">
            <path d="M198,203.3C198,210.9 200.7,217.9 200.7,217.9C203.7,224.9 222.3,268.9 262.3,269.3C296.7,269.7 326.5,237.5 326.5,203.3C326.5,160.6 280.5,130.5 262.3,137.3C249.8,141.9 248.2,164.5 229.1,168.9C222.6,170.4 220.7,168.2 215.1,170.9C202.3,176.8 198,194.2 198,203.3Z" style="fill-rule:nonzero;stroke:black;stroke-width:1px;"/>
        </g>
        <g transform="matrix(0.268305,0,0,0.240356,0.648201,33.84)">
            <path d="M272,171.2C265.9,168.8 262.8,161.8 265.2,155.6L315.5,28.3C317.9,22.2 324.9,19.1 331.1,21.5C337.2,23.9 340.3,30.9 337.9,37.1L287.6,164.4C285.1,170.6 278.1,173.6 272,171.2Z" style="fill-rule:nonzero;stroke:black;stroke-width:1px;"/>
        </g>
        <g transform="matrix(0.268305,0,0,0.240356,0.648201,33.84)">
            <path d="M294.7,187.9C300.8,190.4 307.8,187.4 310.3,181.3L352,78.3C354.5,72.2 351.5,65.2 345.4,62.7C339.3,60.2 332.3,63.2 329.8,69.3L288.1,172.3C285.6,178.4 288.6,185.4 294.7,187.9Z" style="fill-rule:nonzero;stroke:black;stroke-width:1px;"/>
        </g>
        <g transform="matrix(0.268305,0,0,0.240356,0.648201,33.84)">
            <path d="M305,234.9C311.1,237.4 318.1,234.4 320.6,228.3L352.5,149.7C355,143.6 352,136.6 345.9,134.1C339.8,131.6 332.8,134.6 330.3,140.7L298.4,219.3C295.9,225.4 298.9,232.4 305,234.9Z" style="fill-rule:nonzero;stroke:black;stroke-width:1px;"/>
        </g>
        <g transform="matrix(0.268305,0,0,0.240356,0.648201,33.84)">
            <path d="M233.8,189.2C227.7,186.8 224.6,179.8 227,173.6L277.3,46.3C279.7,40.2 286.7,37.1 292.9,39.5C299,41.9 302.1,48.9 299.7,55.1L249.4,182.4C247,188.6 240,191.6 233.8,189.2Z" style="fill-rule:nonzero;stroke:black;stroke-width:1px;"/>
        </g>
        <g transform="matrix(0.268305,0,0,0.240356,0.648201,33.84)">
            <path d="M219.4,230.8L227.3,227.8C233.5,225.5 236.6,218.5 234.3,212.3C225.1,187.8 215.8,163.3 206.6,138.8C205.5,136.7 202.7,132 197.1,128.8C193.9,127 190.9,126.3 188.8,126C187.8,126.2 186.7,126.4 185.6,126.8C183.7,127.4 182.1,128.2 181,129C179.1,131.1 176.6,134.3 175.6,138.8C174.3,144.5 175.9,149.1 176.6,150.8C185.7,175.1 194.9,199.5 204,223.8C206.2,230 213.2,233.2 219.4,230.8Z" style="fill-rule:nonzero;stroke:black;stroke-width:1px;"/>
        </g>
        <g transform="matrix(0.268305,0,0,0.240356,0.648201,33.84)">
            <path d="M208.8,145C208.8,168.2 200.4,186.9 190,186.9" style="fill:none;stroke:black;stroke-width:1px;"/>
        </g>
    </g>
    <g transform="matrix(0.640727,0,0,0.640727,16.724,-4.76562)">
        <path d="M94.775,27.611C93.539,27.513 92.686,28.201 91.992,29.234C90.944,27.274 93.029,26.428 92.915,24.372C89.962,26.191 88.383,29.257 85.441,31.442C86.096,29.243 87.668,27.984 87.926,26.141C88.387,25.35 88.586,24.676 87.272,24.68C85.559,27.47 83.681,30.138 81.502,32.865C81.05,31.17 82.295,29.915 81.681,28.477C80.507,28.435 80.417,29.465 80.179,30.162C78.167,36.068 73.519,39.633 68.762,43.091C67.155,44.259 65.441,45.278 63.782,46.374C63.293,46.697 62.94,47.278 62.179,46.784C61.116,46.094 61.808,45.75 62.372,45.338C60.9,44.127 62.531,41.447 60.147,40.639C59.877,40.548 59.48,39.993 59.528,39.923C61.436,37.186 58.154,38.007 57.561,36.998C58.589,36.422 59.716,36.201 58.727,34.348C57.202,31.49 57.656,27.924 55.92,25.052C55.86,24.952 55.77,24.8 55.805,24.722C57.863,20.184 54.186,22.437 52.615,22.292C52.993,20.139 54.445,18.643 55.026,16.678C52.715,17.267 52.715,17.267 49.895,20.841C49.851,18.647 50.854,16.914 50.984,15.05C51.039,14.263 51.504,12.54 49.698,14.1C49.545,14.232 49.35,14.315 49.175,14.421C49.124,14.058 49.028,13.694 49.032,13.331C49.037,12.83 49.122,12.178 48.624,12.021C47.94,11.806 47.562,12.393 47.221,12.957C45.544,15.73 44.489,18.769 43.327,22.451C43.041,20.611 42.853,19.405 42.676,18.266C41.768,18.21 41.568,18.702 41.479,19.18C40.577,24.054 39.544,28.913 38.912,33.823C38.72,35.314 38.658,36.686 37.875,38.022C36.528,40.321 36.623,42.648 37.592,45.171C39.23,49.434 41.365,53.621 40.869,58.426C40.754,59.537 40.699,60.667 40.448,61.749C40.139,63.08 39.134,63.017 37.882,62.62C39.216,60.683 40.538,58.715 38.828,56.395C37.384,54.436 33.262,52.976 31.047,54.287C26.82,56.789 22.1,57.125 17.517,57.983C13.496,58.735 5.552,60.595 5.552,60.595C5.552,60.595 3.355,63.235 7.739,62.905C12.123,62.574 16.362,63.413 21.747,62.72C23.707,62.468 25.57,61.751 25.08,65.058C24.849,66.622 26.013,67.883 27.143,68.876C37.22,77.731 48.463,83.945 62.313,83.952C64.515,83.953 66.299,84.452 68.241,85.566C70.991,87.142 73.972,89.695 77.335,86.48C77.398,86.42 77.54,86.399 77.69,86.377C79.094,86.175 81.463,87.584 81.495,84.953C81.527,82.322 80.366,79.835 77.812,78.457C76.383,77.686 74.756,77.343 73.194,76.991C69.581,76.177 69.969,72.618 68.431,70.396C68.16,70.005 68.515,69.831 68.889,69.683C75.644,67.009 78.19,60.478 82.142,55.226C86.649,49.236 88.005,41.655 92.171,35.5C90.481,32.025 95.877,30.891 94.775,27.611Z" style="fill-rule:nonzero;"/>
        <path d="M87.272,24.68C87.991,24.943 87.791,25.617 87.926,26.141C88.195,25.738 88.585,25.368 88.704,24.925C88.869,24.308 90.005,23.545 88.992,23.071C87.604,22.422 87.618,23.876 87.272,24.68Z" style="fill-rule:nonzero;"/>
    </g>
</svg>
