<svg xmlns="http://www.w3.org/2000/svg" xmlns:xlink="http://www.w3.org/1999/xlink" xml:space="preserve" version="1.1" style="shape-rendering:geometricPrecision;text-rendering:geometricPrecision;image-rendering:optimizeQuality;" viewBox="0 0 275 144" x="0px" y="0px" fill-rule="evenodd" clip-rule="evenodd"><defs><style type="text/css">
   
    .fil0 {fill:black}
   
  </style></defs><g><path class="fil0" d="M65 144c37,0 38,-16 57,-44 9,-12 22,-12 30,0 21,29 21,44 58,44 90,0 86,-144 -7,-144l-131 0c-93,0 -97,144 -7,144zm138 -131c75,0 79,118 7,118 -30,0 -30,-14 -47,-38 -13,-20 -38,-20 -51,0 -18,24 -17,38 -47,38 -72,0 -69,-118 7,-118l131 0z"></path><path class="fil0" d="M203 26c57,0 63,92 7,92 -22,0 -22,-13 -36,-33 -19,-27 -54,-27 -73,0 -14,20 -15,33 -36,33 -56,0 -51,-92 7,-92l131 0z"></path></g></svg>