<svg xmlns:dc="http://purl.org/dc/elements/1.1/" xmlns:cc="http://creativecommons.org/ns#" xmlns:rdf="http://www.w3.org/1999/02/22-rdf-syntax-ns#" xmlns:svg="http://www.w3.org/2000/svg" xmlns="http://www.w3.org/2000/svg" xmlns:sodipodi="http://sodipodi.sourceforge.net/DTD/sodipodi-0.dtd" xmlns:inkscape="http://www.inkscape.org/namespaces/inkscape" version="1.1" x="0px" y="0px" viewBox="0 0 100 100"><g transform="translate(0,-952.36218)"><path style="font-size:medium;font-style:normal;font-variant:normal;font-weight:normal;font-stretch:normal;text-indent:0;text-align:start;text-decoration:none;line-height:normal;letter-spacing:normal;word-spacing:normal;text-transform:none;direction:ltr;block-progression:tb;writing-mode:lr-tb;text-anchor:start;baseline-shift:baseline;opacity:1;color:#000000;fill:#000000;fill-opacity:1;stroke:none;stroke-width:6;marker:none;visibility:visible;display:inline;overflow:visible;enable-background:accumulate;font-family:Sans;-inkscape-font-specification:Sans" d="M 16.6875 5 A 3.0003 3.0003 0 0 0 14.5 9.65625 C 18.85118 16.10269 20 21.74349 20 27 C 20 33.40486 17.914543 39.44148 15.65625 46.15625 C 13.397957 52.871 11 60.2551 11 69 C 11 77.5725 11.725813 85.10145 17.5 93.65625 A 3.0003 3.0003 0 0 0 20 95 L 71 95 A 3.0003 3.0003 0 0 0 73.5 90.3125 C 68.461534 82.8477 68 77.2909 68 69 C 68 65.640153 68.423864 62.256292 69.0625 59.15625 C 71.229269 58.616708 73.37952 57.92253 75.4375 57.03125 C 82.727224 53.87425 89 47.6732 89 38.125 L 89 25 A 3.0003 3.0003 0 0 0 85.625 22 A 3.0003 3.0003 0 0 0 83.875 22.875 L 76.90625 29.84375 C 76.978285 28.911945 77 27.958053 77 27 C 77 20.82005 75.508598 13.73294 70.5 6.3125 A 3.0003 3.0003 0 0 0 68 5 L 17 5 A 3.0003 3.0003 0 0 0 16.6875 5 z M 22.15625 11 L 66.28125 11 C 69.902203 16.87619 71 22.12043 71 27 C 71 30.486614 70.396963 33.834983 69.46875 37.28125 L 35.8125 70.875 A 3.0003 3.0003 0 1 0 40.03125 75.125 L 54.25 60.90625 C 56.864701 60.866935 59.766533 60.69502 62.75 60.3125 C 62.297131 63.094069 62 66.021896 62 69 C 62 75.9757 62.64399 82.2859 65.9375 89 L 21.75 89 C 17.542171 82.2016 17 76.7773 17 69 C 17 61.3532 19.102043 54.75915 21.34375 48.09375 C 23.585457 41.42825 26 34.68259 26 27 C 26 22.13594 24.995304 16.7058 22.15625 11 z M 83 32.25 L 83 38.125 C 83 45.22124 79.075862 48.92705 73.0625 51.53125 C 69.353822 53.13745 65.027631 53.92215 60.78125 54.40625 L 83 32.25 z " transform="translate(0,952.36218)"></path></g></svg>