<svg xmlns="http://www.w3.org/2000/svg" xmlns:xlink="http://www.w3.org/1999/xlink" version="1.1" x="0px" y="0px" viewBox="0 0 100 100" enable-background="new 0 0 100 100" xml:space="preserve"><g><path fill="#000000" d="M45.47,28.147c8.001,5.041,7.772-6.063,19.644,14.003c3.508,5.93,8.197,4.925,10.876,8.808l2.116,1.686   c0.597,0.475,1.119,1.021,1.598,1.602c4.701-4.641,5.03-13.652,0.393-21.489C67.72,11.834,47.179,13.461,37.14,19.401   c-2.33,1.379-5.5,3.958-6.934,6.213c0.564,1.649,4.112,2.54,5.955,1.22C37.109,25.56,44.115,27.293,45.47,28.147z"></path><path fill="#000000" d="M55.385,75.448c-9.242-3.734-9.075-5.778-14.589-11.71c-1.642-1.765-8.166-5.844-10.389-6.732   c-3.204-2.067-2.985-2.591-4.555-4.239c-3.138-3.295-3.582-0.919-4.89-5.363c0.379-2.932,2.867-5.891,3.318-6.19l-1.935-1.451   c-0.344-0.274-1.995-1.257-2.298-1.572c-7.529,4.622-9.239,17.118-3.732,26.425c2.578,4.358,6.371,7.704,10.68,9.427   c1.537,0.615,2.895,1.549,4.035,2.774c7.464,8.029,20.393,9.411,30.744,3.288c1.627-0.963,3.114-2.076,4.469-3.296   C63.51,77.949,58.149,76.676,55.385,75.448z"></path><path fill="#000000" d="M82.492,77.328c1.417-1.779,2.473-4.843,1.38-6.692c-0.321-0.542-3.722-2.908-4.245-3.324l-9.53-3.948   l1.024-1.422c1.679-2.107,1.789-4.96,0.493-7.15c-0.379-0.641-0.88-1.225-1.498-1.72L42.184,30.811   c-1.308-1.044-2.978-1.526-4.639-1.337c-1.665,0.188-3.802,2.302-4.845,3.612l-6.935-7.295c-2.3-1.834-6.741-4.204-8.575-1.904   l-0.524,0.702c-0.878,1.105-2.052,2.399-1.893,3.804c0.085,0.753,0.6,2.167,0.98,2.808c0.326,0.551,2.854,2.511,3.365,2.92   l8.787,5.254c-1.045,1.311-2.758,3.751-2.571,5.415c0.099,0.894,0.388,1.747,0.838,2.507c0.386,0.652,0.893,1.236,1.498,1.72   l27.932,22.263c2.724,2.171,7.031,2.557,10.182-2.172l6.24,7.19c1.104,0.882,5.494,3.158,6.898,2.999   C80.326,79.144,81.61,78.432,82.492,77.328z"></path></g></svg>