<svg xmlns="http://www.w3.org/2000/svg" xmlns:xlink="http://www.w3.org/1999/xlink" xml:space="preserve" version="1.1" style="shape-rendering:geometricPrecision;text-rendering:geometricPrecision;image-rendering:optimizeQuality;" viewBox="0 0 847 847" x="0px" y="0px" fill-rule="evenodd" clip-rule="evenodd"><defs><style type="text/css">
   
    .str0 {stroke:black;stroke-width:20;stroke-linecap:round;stroke-linejoin:round}
    .fil0 {fill:none}
    .fil1 {fill:black}
   
  </style></defs><g><path class="fil0 str0" d="M424 -1229c0,0 -209,236 -2,510 108,75 160,-114 -31,-256 -78,-180 156,-256 218,-165l-11 -60c0,0 82,51 99,159 0,0 14,55 53,59 40,5 11,64 -6,71 0,0 -58,-66 -129,-97 3,54 50,131 105,109 0,0 -96,72 -139,-74 0,0 -49,11 -19,61 291,213 162,477 -126,504 -553,51 -579,-840 -12,-821z"></path><path class="fil0 str0" d="M422 -719c0,0 -73,19 -135,-39 0,0 24,82 143,155 0,0 -121,46 -198,-34 0,0 16,115 204,229"></path><path class="fil0 str0" d="M716 -783c45,-157 153,-13 109,87l-39 -58 -39 40 -31 -69z"></path><path class="fil0 str0" d="M1256 -1044c0,0 79,191 278,191 0,0 -88,-198 -7,-280 0,0 -31,2 -60,29 0,0 28,-52 96,-64 0,0 -57,-35 -111,14 47,-152 447,-139 394,91 0,0 33,12 62,-26 0,0 11,46 -71,66 0,0 -44,93 -66,5 -87,-132 -219,-3 -110,183 0,0 237,-5 325,-216 0,0 217,281 -57,590 0,0 40,-104 9,-229 0,0 -37,130 -117,163 0,0 58,-227 -116,-177 134,291 -320,361 -362,258 0,0 267,-9 260,-211 0,0 -227,-175 -187,121 0,0 -66,0 -102,-152 0,0 -59,27 -15,199 0,0 -270,-233 -43,-555z"></path><path class="fil1" d="M407 409c-243,-151 -32,-384 -32,-384 -334,39 -478,468 -207,689l2 -79c52,58 116,63 116,63 -41,-34 -41,-110 -41,-110 66,74 137,47 137,47 -83,-27 -77,-112 -77,-112 145,25 139,127 139,127 -48,143 -216,106 -216,106 202,123 474,6 551,-207 78,-212 -28,-466 -233,-418 -5,-45 47,-81 47,-81 -118,38 -110,94 -110,94l-41 -54 10 91 -25 106c24,75 71,51 100,-8 173,-33 100,249 -120,130z"></path></g></svg>