<svg xmlns="http://www.w3.org/2000/svg" viewBox="0 0 64 64" x="0px" y="0px"><path d="M61.74,7.96a1.953,1.953,0,0,0-1.28-.94c-1.69-.36-7.37-1.73-9.68-3.94A3.9,3.9,0,0,0,48.1,2a3.811,3.811,0,0,0-1.54.33c-2.95,1.29-8.77.63-10.48.39a1.975,1.975,0,0,0-2.22,1.89l-.57,29.84c-1.01,5.89.48,14.63,6.98,15.77a7.516,7.516,0,0,0,1.24.11c2.48,0,4.88-1.32,6.86-3.8a20.329,20.329,0,0,0,3.86-8.74L61.9,9.54A1.907,1.907,0,0,0,61.74,7.96ZM46.808,39.469a10.728,10.728,0,0,1-2.1,4.88,4.591,4.591,0,0,1-3.44,1.92,3.639,3.639,0,0,1-.56-.05c-2.66-.47-4.16-4.17-3.41-8.42s3.43-7.22,6.09-6.75S47.558,35.219,46.808,39.469ZM45,27.794a1,1,0,0,1-.983.826.95.95,0,0,1-.175-.016,1,1,0,0,1-.811-1.158L47.016,4.827a1,1,0,0,1,1.968.348Z"></path><path d="M30.71,46.12l-.57-29.85a1.959,1.959,0,0,0-.7-1.44,1.981,1.981,0,0,0-1.52-.44,42.87,42.87,0,0,1-5.31.38A13.836,13.836,0,0,1,17.44,14a3.838,3.838,0,0,0-4.22.75c-2.31,2.21-7.99,3.57-9.68,3.94a1.953,1.953,0,0,0-1.28.94,1.923,1.923,0,0,0-.16,1.59l9.67,28.24a20.329,20.329,0,0,0,3.86,8.74c1.98,2.48,4.38,3.8,6.86,3.8a7.516,7.516,0,0,0,1.24-.11C30.23,60.74,31.72,52.01,30.71,46.12ZM15.016,17.175a1,1,0,1,1,1.968-.348l3.989,22.621a1,1,0,0,1-.811,1.158,1.043,1.043,0,0,1-.175.015A1,1,0,0,1,19,39.8ZM23.4,58.219a3.639,3.639,0,0,1-.56.05c-2.48,0-4.84-2.84-5.54-6.8a12.431,12.431,0,0,1-.19-2.15c0-3.29,1.41-5.88,3.61-6.27,2.66-.47,5.34,2.49,6.09,6.75S26.057,57.749,23.4,58.219Z"></path></svg>