<svg xmlns="http://www.w3.org/2000/svg" xmlns:xlink="http://www.w3.org/1999/xlink" viewBox="0 0 25 25" version="1.1" x="0px" y="0px"><title>23 - Flour (Solid)</title><desc>Created with Sketch.</desc><g stroke="none" stroke-width="1" fill="none" fill-rule="evenodd"><g fill="#000000"><path d="M12.1008,15.02 C10.3838,15.02 9.1008,15.812 9.1008,16.52 C9.1008,17.228 10.3838,18.02 12.1008,18.02 C13.8178,18.02 15.1008,17.228 15.1008,16.52 C15.1008,15.812 13.8178,15.02 12.1008,15.02"></path><path d="M12.1008,20.02 C9.2968,20.02 7.1008,18.483 7.1008,16.52 C7.1008,14.557 9.2968,13.02 12.1008,13.02 C14.9048,13.02 17.1008,14.557 17.1008,16.52 C17.1008,18.483 14.9048,20.02 12.1008,20.02 M6.8208,8.534 L3.5538,8.035 C3.7838,7.575 4.5428,7.062 5.5258,7.062 L18.1408,7.062 C19.0938,7.062 19.8348,7.542 20.0888,8.039 L16.5968,8.552 C14.2958,8.889 9.0888,8.879 6.8208,8.534 M23.6128,20.673 L22.4628,19.524 L21.2798,9.772 C21.8248,9.48 22.1848,8.957 22.1848,8.308 C22.1848,6.833 20.8778,5.562 19.1648,5.186 C18.4288,3.981 15.9858,0.509 11.9918,0.027 L11.8718,0.013 L11.7508,0.027 C7.7828,0.506 5.3468,3.936 4.5928,5.163 C2.8348,5.514 1.4818,6.819 1.4818,8.399 C1.4818,9.083 1.9618,9.653 2.6588,9.896 L1.7208,19.536 L0.5838,20.672 C0.0778,21.179 -0.0482,21.951 0.2718,22.591 C0.5928,23.233 1.2858,23.59 1.9968,23.496 L4.2728,23.169 C6.8448,23.74 9.4378,24.026 12.0318,24.026 C14.4978,24.026 16.9658,23.767 19.4188,23.251 L19.8508,23.16 L22.2008,23.496 C22.9168,23.597 23.5978,23.244 23.9228,22.593 C24.2438,21.952 24.1188,21.18 23.6128,20.673"></path></g></g></svg>