<svg xmlns="http://www.w3.org/2000/svg" xmlns:xlink="http://www.w3.org/1999/xlink" version="1.1" x="0px" y="0px" viewBox="0 0 800 800" enable-background="new 0 0 800 800" xml:space="preserve"><path fill="#000000" d="M661.411,456.541c-4.11,2.109-8.25,3.179-12.307,3.179c-9.717,0.001-18.479-6.125-24.878-17.317  c-0.427-0.745-0.843-1.515-1.248-2.306c-2.186-4.253-4.323-8.619-6.39-12.842l-1.859-3.794c-5.57-11.329-11.124-22.658-16.68-33.997  c-0.548,0.13-1.098,0.259-1.646,0.386l-0.77,0.18c1.455,6.472,2.888,13.048,4.275,19.414c3.234,14.84,6.579,30.184,10.399,45.137  c3.886,15.188,8.231,30.539,12.433,45.384c2.89,10.215,5.88,20.777,8.694,31.201c2.793,10.338,2.11,19.44-1.973,26.326  c-3.354,5.656-8.935,9.564-16.136,11.301c-2.453,0.592-4.865,0.892-7.172,0.892c-12.504,0.001-22.072-8.876-26.254-24.354  l-0.775-2.872c-3.604-13.354-7.317-27.104-11.814-40.541l0.94,8.251c1.67,14.64,3.396,29.779,5.05,44.677l0.245,2.153  c0.516,4.498,1.05,9.146,1.058,13.739c0.028,15.576-9.324,26.537-23.823,27.924c-0.909,0.087-1.827,0.131-2.728,0.131  c-13.718,0.001-24.565-10.018-26.377-24.361c-2.227-17.598-4.223-35.518-6.153-52.848c-0.795-7.137-1.59-14.275-2.401-21.412  c-0.528,0.062-1.059,0.123-1.588,0.183c0.004,6.188,0.043,12.374,0.083,18.562c0.095,14.567,0.191,29.632-0.228,44.442  c-0.12,4.231-0.879,8.143-2.182,11.631c-3.91,10.463-12.718,17.11-23.857,17.11c-0.001,0,0,0-0.001,0  c-0.526,0-1.057-0.016-1.59-0.047c-15.598-0.91-25.727-13.032-25.808-30.882c-0.073-17.567-0.048-34.856,0.888-52.332  c-0.118,0.673-0.236,1.346-0.354,2.019c-1.876,10.687-3.815,21.734-6.054,32.54c-2.694,13.022-11.291,20.491-23.587,20.491  c-1.695,0-3.465-0.147-5.261-0.438c-13.526-2.173-21.464-13.734-19.301-28.113c0.462-3.077,0.914-6.159,1.366-9.245  c2.652-18.104,5.395-36.823,10.419-54.594c8.419-29.8,4.863-59.836,1.425-88.884l-0.305-2.581  c-3.227-27.297-5.377-52.069,1.022-78.819c3.188-13.343-0.103-28.577-3.284-43.31c-1.25-5.784-2.542-11.766-3.417-17.534  c-0.817-5.39-2.24-10.796-3.616-16.025c-1.057-4.012-2.149-8.162-2.968-12.3c-1.056-5.316-0.482-9.631,1.706-12.824  c2.152-3.143,5.87-5.197,11.05-6.107c14.31-2.513,28.612-5.065,42.914-7.618c22.673-4.047,46.117-8.231,69.205-12.18  c10.311-1.762,16.347,3.586,17.949,15.887c0.587,4.503,1.135,9.014,1.682,13.524c1.188,9.78,2.415,19.893,4.056,29.762  c2.924,17.58,8.786,37.2,30.094,49.428c20.996,12.058,37.185,30.169,48.118,53.832c8.186,17.716,17.044,35.484,25.611,52.667  c4.421,8.867,8.992,18.035,13.417,27.087C679.594,433.656,676.109,448.999,661.411,456.541z M393.643,523.288  c-0.309-1.519-0.617-3.034-0.917-4.553c-0.776-3.926-1.564-7.848-2.354-11.769c-8.341-41.408-16.965-84.227-7.431-127.933  c4.448-20.386,5.022-38.147,1.707-52.79c-5.104-22.55-2.859-43.428,0.326-62.63c2.884-17.38,6.76-34.625,10.171-49.201  c2.396-10.245-1.58-16.558-12.156-19.3c-2.426-0.628-4.946-0.964-7.384-1.29c-1.457-0.194-2.964-0.396-4.424-0.655  c-10.462-1.867-20.921-3.75-31.381-5.632c-20.887-3.759-42.485-7.646-63.75-11.34c-3.807-0.661-6.682-0.968-9.047-0.968  c-9.935,0-12.567,5.643-14.709,18.293c-1.106,6.527-1.911,13.209-2.69,19.671c-0.52,4.315-1.058,8.777-1.68,13.148  c-3.147,22.121-9.478,44.702-34.273,60.014c-15.085,9.315-29.323,24.175-39.061,40.77c-14.193,24.18-26.282,50.113-37.972,75.19  c-3.018,6.475-6.138,13.169-9.245,19.725c-2.576,5.435-3.563,12.576-2.515,18.193c2.274,12.188,10.85,19.928,23.526,21.229  c11.393,1.176,20.935-4.347,26.516-15.329c6.534-12.866,13.024-26.021,19.301-38.743c2.233-4.526,4.467-9.055,6.708-13.579  c-0.45,15.575-2.681,30.932-6.799,46.847c-4.93,19.039-10.352,38.296-15.595,56.919c-3.342,11.872-6.799,24.146-10.095,36.25  c-2.631,9.661-1.891,18.764,2.083,25.633c3.271,5.652,8.542,9.566,15.243,11.319c2.59,0.678,5.151,1.021,7.614,1.021  c9.351,0,17.102-4.819,22.224-13.526c1.732-2.943,3.165-6.329,4.255-10.129c2.947-10.282,5.697-20.802,8.356-30.975  c1.124-4.297,2.247-8.594,3.387-12.886l1.033,0.309c-0.685,5.902-1.366,11.806-2.046,17.708  c-1.743,15.113-3.545,30.741-5.399,46.105c-0.14,1.155-0.223,2.3-0.253,3.429c-0.207,7.792,2.177,14.847,6.865,20.135  c4.935,5.566,12.04,8.632,20.005,8.632c0.358,0,0.718-0.006,1.082-0.019c15.603-0.533,24.3-10.432,26.588-30.262  c1.549-13.421,2.961-27.087,4.326-40.303c0.607-5.872,1.213-11.742,1.833-17.612l0.6,0.009c0.597,0.008,1.194,0.017,1.792,0.022  c-0.002,5.124-0.029,10.25-0.056,15.375c-0.063,12.009-0.128,24.425,0.141,36.632c0.381,16.989,11.682,29.333,26.893,29.408  c0.047,0.001,0.094,0.005,0.142,0.005l0.233-0.002c15.747-0.13,25.936-11.905,25.957-29.998c0.016-12.732,0.012-25.462,0.008-38.188  l-0.001-10.505c1.107,4.974,2.037,9.982,2.944,14.873c0.96,5.176,1.954,10.526,3.141,15.743c0.178,0.773,0.381,1.53,0.608,2.271  c0.009,0.03,0.021,0.059,0.031,0.088c0.498,1.597,1.122,3.101,1.845,4.519c4.273,8.386,12.278,13.514,21.829,13.513  c1.704,0,3.441-0.17,5.164-0.506c13.082-2.559,21.478-15.743,19.114-30.019C395.313,531.508,394.465,527.329,393.643,523.288z"></path></svg>