<svg xmlns="http://www.w3.org/2000/svg" xmlns:xlink="http://www.w3.org/1999/xlink" version="1.1" x="0px" y="0px" viewBox="0 0 100 100" enable-background="new 0 0 100 100" xml:space="preserve"><path d="M48.757,50.78v-6.858c0,0,0-1.855,0-2.159V19.874c0-1.49-1.313-2.698-2.93-2.698c-1.619,0-2.93,1.208-2.93,2.698v14.439  c0,0.426-0.375,0.771-0.837,0.771s-0.837-0.345-0.837-0.771v-21.53c0-1.489-1.312-2.698-2.93-2.698s-2.93,1.209-2.93,2.698v18.307  c0,0.426-0.375,0.77-0.837,0.77s-0.837-0.344-0.837-0.77V9.392c0-1.49-1.312-2.698-2.93-2.698s-2.929,1.208-2.929,2.698v21.465  c0,0.427-0.376,0.771-0.838,0.771s-0.837-0.345-0.837-0.771V12.782c0-1.489-1.311-2.698-2.93-2.698c-1.617,0-2.93,1.209-2.93,2.698  v21.891c0,0-0.027,2.443-0.854,4.93c-1.153-2.557-2.694-5.165-3.386-8.082c-0.367-2.083-1.588-3.722-3.827-3.614  c-2.239,0.107-3.963,2.287-3.518,4.811c1.317,5.843,3.36,10.813,6.575,15.995c0.658,1.272,1.161,3.302,1.161,3.302  s-0.386,12.939-4.396,31.406c0,0,20.49,6.803,39.143,0C51.195,83.421,48.757,70.222,48.757,50.78z"></path><path d="M90.867,31.511c0.882-1.199,0.541-2.949-0.763-3.908c-1.305-0.96-3.076-0.763-3.959,0.438L75.439,42.602  c-0.252,0.343-0.759,0.399-1.132,0.125c-0.372-0.274-0.47-0.773-0.218-1.117l12.717-17.294c0.882-1.201,0.541-2.95-0.764-3.908  c-1.302-0.958-3.074-0.762-3.958,0.438l-12.852,17.48c-0.253,0.343-0.76,0.399-1.132,0.125c-0.373-0.274-0.471-0.773-0.218-1.117  l10.844-14.748c0.883-1.201,0.542-2.949-0.762-3.909c-1.303-0.958-3.074-0.762-3.958,0.439L61.254,36.461  c-0.252,0.342-0.759,0.398-1.132,0.125c-0.372-0.274-0.47-0.773-0.217-1.117l8.553-11.633c0.883-1.2,0.542-2.951-0.762-3.909  c-1.303-0.958-3.074-0.762-3.957,0.438L50.794,37.969v13.424c0,19.057,2.389,32.231,2.413,32.362l0.234,1.272l-1.215,0.444  c-2.691,0.981-5.547,1.726-8.538,2.244c6.663,3.863,11.974,5.589,11.974,5.589c7.709-17.255,15.063-27.907,15.063-27.907  s1.607-1.338,2.893-1.974c5.66-2.27,10.248-5.063,14.772-8.99c1.854-1.771,1.757-4.547,0.016-5.959  c-1.739-1.413-3.693-0.815-5.225,0.644c-2.284,1.941-5.07,3.129-7.514,4.506c0.807-2.494,2.23-4.479,2.23-4.479L90.867,31.511z"></path></svg>