<svg xmlns="http://www.w3.org/2000/svg" xmlns:xlink="http://www.w3.org/1999/xlink" version="1.1" x="0px" y="0px" viewBox="0 0 100 100" enable-background="new 0 0 100 100" xml:space="preserve"><g><path d="M63.079,53.547c0.327,0.725,1.414,0.232,1.085-0.492c-0.7-1.551-2.562-2.549-4.685-2.55c-2.117,0-4.053,0.991-4.757,2.55   c-0.326,0.724,0.76,1.217,1.086,0.492c0.36-0.8,1.335-1.51,2.646-1.756c-0.45,0.302-0.747,0.815-0.747,1.396   c0,0.925,0.749,1.677,1.676,1.677c0.926,0,1.675-0.752,1.675-1.677c0-0.61-0.327-1.145-0.814-1.438   C61.659,51.951,62.691,52.691,63.079,53.547z"></path><path d="M38.901,53.188c0,0.926,0.751,1.677,1.677,1.677c0.923,0,1.676-0.752,1.676-1.677c0-0.58-0.297-1.094-0.752-1.396   c1.313,0.247,2.286,0.955,2.648,1.755c0.327,0.725,1.412,0.232,1.085-0.492c-0.704-1.559-2.639-2.549-4.754-2.549   c-2.124,0-3.988,0.998-4.687,2.549c-0.328,0.725,0.759,1.217,1.086,0.493c0.387-0.856,1.418-1.597,2.836-1.798   C39.227,52.045,38.901,52.578,38.901,53.188z"></path><path d="M58.009,63.802c-0.575,0.161-0.335,1.025,0.243,0.864c0.662-0.188,1.39,0.662,1.455,1.273   c0.066,0.592,0.954,0.498,0.891-0.094C60.471,64.691,59.238,63.457,58.009,63.802z"></path><path d="M71.001,35.678V19.386c0-3.582-9.372-6.485-20.932-6.485c-11.557,0-20.93,2.903-20.93,6.485v16.249   c6.877,0.07,14.708,0.176,22.998,0.176C58.83,35.811,65.2,35.741,71.001,35.678z"></path><path d="M65.669,47.853c-1.517-0.654-3.216-1.019-5.008-1.019c-2.693,0-5.115,0.825-7.07,2.217   c-1.134,0.807,0.075,2.507,1.206,1.703c1.608-1.145,3.606-1.835,5.864-1.836c1.508,0,2.923,0.31,4.178,0.852   C66.116,50.32,66.945,48.405,65.669,47.853z"></path><path d="M88.108,73.853c-2.692-1.298-3.034-0.806-3.133-0.752c-0.363,0.2-1.149,1.181-2.419,3.54c-1.418,2.631-6.2,0.656-6.2,0.656   S53.378,68.67,52.67,68.555c-0.242-0.048-0.466,0.192-0.11,0.375c0.425,0.196,27.692,11.912,27.92,12.015   c0.591,0.262,0.004,1.151,0.289,1.413c0.083,0.078,0.297,0.211,0.585,0.291c0.279,0.077,0.437-0.009,0.713-0.667   c0.119-0.285,0.306-0.385,0.494-0.354c5.364,1.106,7.667-4.069,8.065-5.01C91.06,75.591,89.707,74.681,88.108,73.853z    M87.669,75.01c-1.186-0.578-2.105-1.18-2.056-1.347c0.052-0.163,1.051,0.176,2.234,0.754c1.188,0.577,2.108,1.18,2.06,1.345   C89.855,75.926,88.855,75.591,87.669,75.01z"></path><path d="M30.084,56.531c0.194,0.681,0.75,1.242,1.236,1.207c1.066-0.084,0.386-1.671,0.322-1.822c-0.788-2-2.326-3.746-3.901-3.355   c-0.735,0.182-0.461,1.283,0.274,1.103c0.508-0.126,1.449,0.471,2.181,1.816C30.013,55.705,29.958,56.093,30.084,56.531z"></path><path d="M45.423,61.017c-0.781-0.146-0.997,1.028-0.212,1.172c0.715,0.132,1.189,0.445,1.681,0.77   c-0.033,0.207,0.047,0.429,0.301,0.546c0.836,0.388,1.729,0.501,2.79,0.509c0.937-0.008,1.833-0.121,2.667-0.509   c0.296-0.137,0.359-0.416,0.276-0.647l0.259-0.179c0.462-0.303,0.93-0.463,1.49-0.479c0.797-0.021,0.763-1.212-0.03-1.192   c-2.169,0.057-2.697,1.73-4.688,1.73C47.812,62.737,47.305,61.361,45.423,61.017z"></path><path d="M50.018,36.945c-27.175,0-49.377-1.138-49.377,1.616c0,1.951,11.065,3.64,27.184,4.459c0.441,2.124,1.113,4.36,1.945,6.672   c-0.831-0.405-1.73-0.54-2.601-0.259c-1.846,0.609-2.221,2.856-1.864,4.928c0.177,1.03,0.546,2.115,1.085,3.144   c0.736,1.401,1.406,2.509,2.063,3.334c1.027,1.291,2.082,1.936,3.31,1.864c0.64,4.363,1.255,8.439,1.52,9.36   c0.71,2.841,2.562,6.235,5.79,8.723c0.23,0.744,0.477,1.52,0.743,2.33l0.025,0.064c0,0,0.032,0.074,0.118,0.203   c1.803,2.716,7.412,3.147,10.027,3.147c2.608,0,8.217-0.432,10.018-3.147c0.087-0.129,0.122-0.203,0.122-0.203l0.022-0.064   c0.27-0.815,0.516-1.596,0.745-2.341c2.104-1.624,3.625-3.635,4.62-5.627l-3.836-1.674c-0.403,0.393-0.824,0.745-1.248,1.061   c-1.271,0.94-2.621,1.569-3.952,1.993c-0.715,0.225-1.418,0.393-2.096,0.518c0.104-0.695-0.954-0.921-1.117-0.199   c-0.213,0.929-0.886,1.828-3.282,1.924c-2.397-0.096-3.069-0.995-3.28-1.923c-0.165-0.722-1.221-0.496-1.118,0.199   c-0.68-0.125-1.381-0.293-2.096-0.519c-1.332-0.422-2.684-1.051-3.952-1.993c-1.341-0.994-2.603-2.345-3.644-4.194   c-0.844-1.488-1.548-3.31-2.04-5.535c-0.209-0.937-0.375-1.938-0.501-3.014c-0.061-0.528-0.635-0.618-0.942-0.37   c-0.024,0.007-0.048,0.014-0.073,0.025c-1.032,0.327-1.895,0.063-2.996-1.314c-0.589-0.742-1.22-1.775-1.945-3.155   c-0.485-0.928-0.813-1.901-0.971-2.808c-0.354-2.035,0.168-3.351,1.095-3.654c0.605-0.198,1.3-0.087,2.029,0.35   c0.501,0.297,1.001,0.741,1.465,1.317c0.474,0.589,1.359-0.122,0.883-0.714c-0.068-0.086-0.141-0.172-0.212-0.254   c-0.229-2.108-0.38-3.96-0.458-5.582c-0.085-3.235,3.602-4.356,10.742-4.708c-1.77,1.299-4.261,2.286-5.959,1.925   c-0.713-0.154-1.041,0.537-0.475,0.996c1.991,1.615,5.562,1.368,7.879,0.244l-0.136,0.366c-0.092,0.247-0.174,0.443-0.269,0.6   c-0.347,0.579,0.061,1.064,0.691,0.823c2.459-0.946,4.778-2.744,6.042-5.101h0.234l0.592,0.001   c-0.156,1.152-0.558,2.345-1.195,3.497c-0.356,0.636,0.207,1.153,0.812,0.746c1.684-1.132,2.984-2.601,3.728-4.219   c9.767,0.148,14.877,1.02,14.814,4.79c-0.081,1.643-0.232,3.513-0.466,5.643c-0.064,0.075-0.131,0.154-0.194,0.234   c-0.478,0.59,0.406,1.302,0.884,0.713c0.464-0.575,0.965-1.02,1.463-1.317c0.729-0.437,1.426-0.547,2.031-0.35   c0.925,0.305,1.447,1.62,1.094,3.654c-0.157,0.907-0.485,1.88-0.972,2.808c-0.722,1.381-1.354,2.413-1.945,3.155   c-1.101,1.379-1.963,1.643-2.993,1.313c-0.026-0.01-0.052-0.017-0.075-0.023c-0.307-0.251-0.882-0.158-0.943,0.369   c-0.126,1.076-0.292,2.077-0.498,3.014c-0.491,2.227-1.198,4.047-2.041,5.535c-0.278,0.499-0.571,0.955-0.88,1.381l3.234,1.193   c0.093-0.288,0.174-0.573,0.243-0.851c0.264-0.921,0.88-4.998,1.521-9.362c1.232,0.08,2.291-0.567,3.321-1.862   c0.656-0.825,1.329-1.933,2.062-3.334c0.536-1.028,0.906-2.113,1.085-3.144c0.36-2.071-0.016-4.319-1.864-4.928   c-0.874-0.282-1.782-0.145-2.617,0.27c0.835-2.322,1.509-4.565,1.953-6.697c15.968-0.825,26.907-2.506,26.907-4.445   C99.038,35.808,77.189,36.945,50.018,36.945z M49.977,84.267c3.82,0,6.923-0.967,9.383-2.446l-0.3,0.936   c-1.524,2.298-7.039,2.637-9.08,2.637c-2.04-0.001-7.551-0.34-9.075-2.637l-0.302-0.928C43.061,83.304,46.163,84.267,49.977,84.267   z M44.062,42.316c-0.023,0.015-0.047,0.034-0.071,0.056c-1.147,1.043-3.468,1.655-5.427,1.444c1.98-0.511,4.003-1.736,5.234-2.964   l0.615-0.019C44.334,41.365,44.212,41.842,44.062,42.316z M44.575,44.23l0.032-0.073c0.494-1.11,0.811-2.245,0.957-3.348   c0.912-0.016,1.866-0.025,2.86-0.029C47.572,42.103,46.255,43.333,44.575,44.23z M51.325,42.588   c0.187-0.603,0.314-1.208,0.389-1.807l0.937,0.006C52.307,41.417,51.862,42.022,51.325,42.588z"></path><path d="M71.948,53.661c0.732,0.183,1.006-0.919,0.272-1.101c-1.574-0.389-3.111,1.356-3.901,3.355   c-0.063,0.149-0.743,1.736,0.325,1.82c0.486,0.036,1.041-0.525,1.236-1.207c0.122-0.438,0.069-0.825-0.112-1.051   C70.499,54.134,71.44,53.537,71.948,53.661z"></path><path d="M42.264,66.968c0.077,0.049,0.169,0.099,0.283,0.146c0.347,0.142,0.591,0.514,0.933,0.817   c0.373,0.332,0.748,0.615,1.134,0.862c1.361,0.898,3.09,1.803,5.273,1.809c1.302-0.003,2.442-0.326,3.435-0.775l-2.032-0.891   c-0.426,0.046-0.891,0.069-1.403,0.069c-1.822,0-3.061-0.313-3.951-0.725l-0.185-0.09c-0.129-0.063-0.25-0.132-0.364-0.199   c-0.164-0.097-0.317-0.2-0.466-0.311c1.3,0.188,2.925,0.279,4.96,0.279c2.04,0,3.67-0.092,4.974-0.282   c-0.149,0.111-0.305,0.217-0.47,0.312c-0.113,0.067-0.236,0.136-0.363,0.199l-0.202,0.097l1.358,0.492   c0.38-0.243,0.75-0.521,1.115-0.848c0.343-0.305,0.584-0.678,0.931-0.818c0.124-0.051,0.225-0.104,0.301-0.155   c0.327-0.153,0.614-0.324,0.865-0.514c0.58-0.446-0.086-1.321-0.667-0.876c-1.06,0.811-3.202,1.294-7.843,1.294   c-4.643,0-6.779-0.483-7.835-1.294c-0.584-0.443-1.25,0.43-0.668,0.876C41.632,66.639,41.927,66.814,42.264,66.968z"></path><path d="M40.067,65.939c0.068-0.611,0.793-1.461,1.458-1.273c0.574,0.161,0.816-0.703,0.242-0.864   c-1.228-0.345-2.463,0.89-2.59,2.043C39.115,66.438,40.003,66.531,40.067,65.939z"></path><path d="M46.368,49.051c-1.958-1.391-4.376-2.217-7.072-2.217c-1.79,0-3.49,0.364-5.003,1.018   c-1.278,0.553-0.451,2.468,0.826,1.917c1.252-0.542,2.67-0.851,4.178-0.851c2.258,0,4.255,0.69,5.865,1.835   C46.295,51.558,47.505,49.857,46.368,49.051z"></path></g></svg>