<svg xmlns="http://www.w3.org/2000/svg" xmlns:xlink="http://www.w3.org/1999/xlink" xml:space="preserve" style="shape-rendering:geometricPrecision;text-rendering:geometricPrecision;image-rendering:optimizeQuality;" viewBox="0 0 100 100" x="0px" y="0px" fill-rule="evenodd" clip-rule="evenodd"><defs><style type="text/css">
   
    .fil0 {fill:black}
   
  </style></defs><g><path class="fil0" d="M48.9417 45.3901c-4.58389,5.24295 -8.44259,8.78393 -12.1843,14.1474 -4.92405,7.05596 -3.47719,13.2592 4.76224,18.1608 6.49493,3.86224 11.8324,3.18073 15.9048,-1.66182 6.64848,6.15595 13.7883,3.47719 19.6714,-3.69806 5.4024,-6.58588 3.68034,-12.4406 -2.2323,-16.3738 -6.50084,-4.32287 -13.167,-8.9422 -21.3273,-12.8611 -0.772447,-0.370869 -1.83781,-0.962606 -2.44726,-1.88978 3.36499,-0.0944889 5.79099,3.32955 9.15952,4.91579 6.82446,3.21499 15.0568,5.5028 22.2699,1.98427 12.7655,-6.22682 7.20124,-20.973 0.386224,-20.5891 5.82288,-6.11934 -1.58387,-14.367 -10.5001,-13.369 -6.41698,0.376775 -11.5028,5.7402 -16.4186,14.7911 -1.55907,2.87128 -3.1016,9.2611 -5.10004,11.3658 -1.54017,-3.90003 7.3973,-16.9808 8.51109,-26.9825 0.556304,-9.04141 -10.9749,-11.8005 -15.319,-6.56462 -5.54532,-6.47958 -18.4608,5.94099 -17.6234,11.517 0.501972,3.34136 2.71419,7.20006 6.98864,10.8461 4.15515,3.5457 10.3513,7.33116 16.3123,11.3115 -3.00475,-0.480712 -5.49335,-1.76222 -8.28314,-2.8075 -6.37328,-2.38703 -10.8485,-5.6339 -19.7931,-5.8276 -3.41223,-0.464177 -8.5418,0.681501 -10.708,8.24062 -1.51537,5.29138 -2.28073,11.0528 2.57128,11.4036 -2.67286,7.85321 2.28545,16.31 10.5095,14.9033 5.77327,-0.987409 12.3391,-10.6867 18.123,-16.9419 2.60199,-2.81577 5.91973,-8.07054 8.00203,-7.78589 1.17521,0.459452 -1.11024,3.62129 -1.23544,3.76538zm-33.4562 49.3976l16.9891 -27.7597 0.413389 2.56656 -15.932 26.275 -1.47048 -1.0819z"></path></g></svg>