<svg xmlns="http://www.w3.org/2000/svg" xmlns:xlink="http://www.w3.org/1999/xlink" version="1.1" x="0px" y="0px" viewBox="0 0 100 100" enable-background="new 0 0 100 100" xml:space="preserve"><g><path d="M94.1,62.3c0,0,0,0-0.1,0.1c-1,0.5-8.5,4.7-13,9.2c-4.3,4.3-14.1,14-28.3,17.5h0c0,0,0,0,0,0c-0.3,0.1-0.6,0.2-1,0.2   c-0.2,0-0.3,0.1-0.5,0.1c-0.3,0.1-0.6,0.1-0.9,0.2c-0.2,0-0.4,0.1-0.7,0.1c-0.3,0-0.6,0.1-0.8,0.1c-0.5,0.1-0.9,0.1-1.4,0.2   c-0.2,0-0.4,0-0.6,0.1c-0.3,0-0.7,0.1-1,0.1c-0.2,0-0.4,0-0.6,0.1c-0.4,0-0.7,0.1-1.1,0.1c-0.2,0-0.4,0-0.5,0c-0.6,0-1.1,0-1.7,0   c-2.8,0-5.6-0.3-8.6-0.8C8.4,85,6,66.6,6,66.6S2.1,82.3,23.5,91.3c6,2.5,13,3.7,20.3,3.7c23.4,0,49.3-11.7,50.5-25.7L94.1,62.3z"></path><path d="M19,14.6c0,0.1,0,0.2,0.1,0.3c0,0.1,0.1,0.2,0.1,0.3c1.9,4.5,15.9,8,32.8,8c17.4,0,31.6-3.7,32.9-8.3   c0-0.1,0.1-0.2,0.1-0.3c0-0.1,0-0.2,0-0.4C85,9.1,70.2,5,52,5s-33,4.1-33,9.1c0,0.1,0,0.3,0,0.4C19,14.5,19,14.5,19,14.6z"></path><path d="M11.7,75.6c4.6,6.4,12,10.6,21.7,12.5c2.8,0.5,5.6,0.8,8.3,0.8c19.5,0,33-13.4,38-18.4c5-4.9,13.2-9.4,13.5-9.6l0.3-0.2   c-1.2-3.9-5.1-6.4-12.5-8.5c0-2.7,0-5.6,0.1-8.2c0.2-6.2,2.1-19.2,3.1-25.8c-5.2,4.4-18.9,6.6-32.4,6.6c-13.3,0-26.7-2.2-32.1-6.4   c1.1,5.7,3,16.2,3.4,26.2c0.1,2.3,0.2,4.4,0.2,6.3c-6,2.3-16,7.1-16.2,13.3v0l0.3,2.3C7.6,66.5,8.3,70.8,11.7,75.6z M23.6,52.3   c0,0,8.1,8.1,28.4,8.1s29.2-7.6,29.2-7.6l0.1,9.1c0,1.5-0.5,3-1.4,4.2c-2.7,3.3-9.9,8.8-27.9,8.8c-18,0-24.8-5.5-27.3-8.8   c-0.9-1.2-1.3-2.6-1.3-4.1L23.6,52.3z"></path></g></svg>