<svg xmlns="http://www.w3.org/2000/svg" xmlns:xlink="http://www.w3.org/1999/xlink" version="1.1" x="0px" y="0px" viewBox="0 0 100 100" enable-background="new 0 0 100 100" xml:space="preserve"><g><path fill="#000000" d="M60.7,53.5L50,58.7l-10.7-5.2c-3.1,0.7-28.7,7-31.2,26.8c-0.2,2,0.6,3.9,2.2,5.1c2.9,2,8.5,5.1,17.6,7.3   l37.7-37.8C63.2,54.1,61.4,53.7,60.7,53.5z"></path><path fill="#000000" d="M91.9,80.4c-1.5-12.2-11.9-19.3-20.3-23.1L35,94c4.4,0.6,9.3,1,15,1h0c23.1,0,35-6.3,39.7-9.6   C91.3,84.3,92.2,82.4,91.9,80.4z M73,76.4v2.8V82l-6.4,5.2L60.3,82v-2.8v-2.8v-2.1H73V76.4z"></path><polygon fill="#000000" points="70.3,18.6 73,5 49.8,5 26.5,5 29.3,18.6  "></polygon><path fill="#000000" d="M49.8,51.8c11.6,0,21-9.9,21-22c0-2.7-0.5-5.3-1.3-7.7H30.1c0,0.1-0.1,0.2-0.1,0.3L29.8,22l-8.6,9.4h7.6   C29.7,42.8,38.7,51.8,49.8,51.8z"></path></g></svg>