<svg xmlns="http://www.w3.org/2000/svg" xmlns:xlink="http://www.w3.org/1999/xlink" version="1.1" x="0px" y="0px" viewBox="0 0 96 96" enable-background="new 0 0 96 96" xml:space="preserve"><path d="M82.137,14.222c-7.817-7.817-20.492-7.817-28.309,0c-6.728,6.728-7.65,17.046-2.799,24.775L25.053,64.973l-4.696-4.696  l-2.696,2.696l4.697,4.697l-1.966,1.965l-4.697-4.696L8,72.633l4.697,4.696l-3.098,3.099c-1.391,1.392-1.1,3.938,0.648,5.685  c1.748,1.749,4.293,2.039,5.684,0.649l41.43-41.431c7.73,4.852,18.048,3.928,24.774-2.799C89.953,34.714,89.955,22.04,82.137,14.222  z M74.352,34.747c-3.517,3.518-9.221,3.519-12.739,0c-3.519-3.518-3.518-9.221,0-12.738c3.518-3.518,9.221-3.519,12.739,0  C77.869,25.526,77.869,31.229,74.352,34.747z"></path></svg>