<svg xmlns="http://www.w3.org/2000/svg" xmlns:xlink="http://www.w3.org/1999/xlink" version="1.1" x="0px" y="0px" viewBox="0 0 90 90" enable-background="new 0 0 90 90" xml:space="preserve"><path d="M57.999,11.911c-0.05-1.657-1.435-2.959-3.089-2.909c-1.656,0.049-2.958,1.432-2.909,3.088L52.237,20H37.762l0.236-7.911  c0.05-1.656-1.253-3.039-2.909-3.088c-1.637-0.053-3.038,1.253-3.088,2.909l-2,67c-0.05,1.656,1.253,3.09,2.909,3.09  c0.03,0,0.061,0,0.091,0c1.616,0,2.949-1.285,2.997-2.91L36.24,71h17.52l0.241,8.09C54.05,80.715,55.383,82,56.998,82  c0.03,0,0.062,0,0.092,0c1.656,0,2.958-1.434,2.909-3.09L57.999,11.911z M37.583,26h14.833l0.269,9h-15.37L37.583,26z M36.419,65  l0.269-9h3.339l2.348-2.185l-2.119-1.614L41.701,50h-4.834l0.269-9h15.729l0.269,9h-5.451l-0.688,1.049l3.132,2.386L47.367,56h5.944  l0.269,9H36.419z"></path></svg>