<svg xmlns="http://www.w3.org/2000/svg" xmlns:xlink="http://www.w3.org/1999/xlink" version="1.1" x="0px" y="0px" viewBox="0 0 59.279 76.32" enable-background="new 0 0 59.279 76.32" xml:space="preserve"><path fill-rule="evenodd" clip-rule="evenodd" d="M52.69,3.188c0.208,0,0.414,0,0.622,0c1.651,5.197,0.101,9.642,0,15.528  c-0.147,8.543-0.061,17.274-0.312,25.987c-0.251,8.775-1.081,17.767,0.935,26.303c-7.166,3.339-16.738,1.972-25.822,1.9  c-7.607-0.059-15.576,1.138-22.087-1.268C5.362,49.992,8.534,27.767,7.894,5.089C22.765,4.492,40.707,6.465,52.69,3.188z   M52.69,5.407c-0.313,0-0.37-0.257-0.622-0.317c-1.999,2.069-4.241,1.173-6.845,1.585c-1.085,0.171-2.307,1.088-3.422,1.268  c-10.528,1.69-24.053-1.139-32.353,0c-0.969,16.063-1.775,34-2.177,52.605c-0.075,3.468-0.739,5.756,0.311,9.19  c15.555-0.551,27.521,0.64,44.486-0.317C50.741,49.398,53.088,27.148,52.69,5.407z"></path><path fill-rule="evenodd" clip-rule="evenodd" d="M49.891,10.16c-1.17,3.104-7.177,2.151-10.266,1.584  C40.206,8.017,47.344,11.017,49.891,10.16z"></path><path fill-rule="evenodd" clip-rule="evenodd" d="M48.958,14.279c-1.464,1.711-6.424,1.441-9.021,0.951  c-0.128-0.763,0.566-0.689,0.31-1.585C42.708,13.019,46.593,12.723,48.958,14.279z"></path><path fill-rule="evenodd" clip-rule="evenodd" d="M48.023,18.083c0.926,0.913-0.778,0.55-0.621,1.584  c-2.295-0.579-4.836,0.352-7.156-0.951C40.664,15.687,45.854,18.015,48.023,18.083z"></path><path fill-rule="evenodd" clip-rule="evenodd" d="M24.692,25.054c0,0.74,0,1.479,0,2.219c-2.153,1.22-4.761,0.291-8.089,0.316  c-2.353,0.018-5.174,1.104-5.599-1.268c0.889-1.869,2.942-0.552,4.667-0.634C18.594,25.549,22,24.245,24.692,25.054z"></path><path fill-rule="evenodd" clip-rule="evenodd" d="M47.402,32.343c-1.298,1.795-3.714,1.031-5.601,1.268  c-3.182,0.399-6.719,1.276-9.954,0.95c-1.021-0.103-1.818-0.886-2.8-0.95c-5.821-0.384-11.945,0.86-16.799-0.634  c-0.088-0.512,0.294-0.545,0.311-0.951C23.443,32.167,36.19,31.539,47.402,32.343z"></path><path fill-rule="evenodd" clip-rule="evenodd" d="M48.023,36.78c0.878,1.204-1.467,1.315-1.865,2.218  c-3.979-1.282-8.23,0.792-12.444,0.633c-4.111-0.153-7.588-1.55-11.511-1.267c-3.113,0.225-7.257,1.743-10.888,0.316  c2.382-2.184,7.76-1.895,11.2-1.901c2.912-0.005,5.897,0.677,8.711,0.633c3.181-0.049,6.066-1.496,9.021-1.267  C43.283,36.381,45.398,37.526,48.023,36.78z"></path><path fill-rule="evenodd" clip-rule="evenodd" d="M47.714,43.119c-2.118,3.568-7.602,1.271-10.889,1.268  c-3.473-0.006-7.388,2.015-11.822,0.95c0.734-4.14,5.023-1.08,7.156-0.95c1.726,0.104,2.534-0.847,4.354-1.268  C40.035,42.302,43.896,43.474,47.714,43.119z"></path><path fill-rule="evenodd" clip-rule="evenodd" d="M23.137,43.751c1.13,1.497-2.295,2.537-3.111,1.268  c-2.342,0.557-5.286,1.524-7.777,0.951C11.981,40.701,21.065,45.643,23.137,43.751z"></path><path fill-rule="evenodd" clip-rule="evenodd" d="M17.848,49.456c-0.878,1.81-5.105-0.255-6.844,1.268  C10.633,47.22,16.634,47.309,17.848,49.456z"></path><path fill-rule="evenodd" clip-rule="evenodd" d="M47.402,47.871c0.058,2.636-6.354,2.635-8.089,1.268  C40.507,46.838,45.385,48.539,47.402,47.871z"></path><path fill-rule="evenodd" clip-rule="evenodd" d="M36.202,49.456c-0.578,1.324-4.419,1.538-6.222,1.585  c-3.105,0.08-6.709-0.339-9.333-0.95c-0.191-0.282-0.376-0.567,0-0.635C25.365,48.21,33.014,49.125,36.202,49.456z"></path><path fill-rule="evenodd" clip-rule="evenodd" d="M27.181,53.576c0.188,1.458-1.612,0.894-1.867,1.9  c-4.259-1.346-8.482-0.323-13.688-0.315C13.759,51.335,22.364,53.101,27.181,53.576z"></path><path fill-rule="evenodd" clip-rule="evenodd" d="M44.913,54.526c-2.569,1.846-7.066,1.701-10.266,0.317  c-1.254,0.454-3.56,1.622-4.667,0.317c1.936-3.117,6.539-1.01,9.956-0.952C41.887,54.243,43.876,52.754,44.913,54.526z"></path><path fill-rule="evenodd" clip-rule="evenodd" d="M38.692,58.329c-0.393,2.938-3.06,1.023-4.979,0.952  c-4.686-0.179-11.212,1.81-15.244,0.633c0.745-1.998,3.124-1.042,4.978-1.268C28.686,58.009,34.574,56.369,38.692,58.329z"></path><path fill-rule="evenodd" clip-rule="evenodd" d="M46.158,59.281c-0.982,0.149-4.222,0.154-5.601-0.317  C40.758,57.305,46.483,56.724,46.158,59.281z"></path><path fill-rule="evenodd" clip-rule="evenodd" d="M15.359,59.596c-1.173,0.39-2.483,0.64-4.044,0.635  c-0.127-0.764,0.568-0.688,0.312-1.585C12.918,58.356,15.261,57.846,15.359,59.596z"></path><path fill-rule="evenodd" clip-rule="evenodd" d="M47.402,63.399c-0.576,2.165-3.323,1.814-4.978,1.902  c-2.311,0.123-5.021-0.688-7.777-0.635c-3.277,0.064-6.387,1.145-9.333,0.951c-2.789-0.183-5.55-1.405-8.088-1.268  c-1.815,0.099-3.352,1.548-4.978,0.634c3.091-3.923,8.394-2.095,13.377-1.585C32.015,64.052,40.659,62.655,47.402,63.399z"></path></svg>