<svg xmlns="http://www.w3.org/2000/svg" xmlns:xlink="http://www.w3.org/1999/xlink" version="1.1" x="0px" y="0px" viewBox="0 0 100 100" enable-background="new 0 0 100 100" xml:space="preserve"><g><path d="M26.713,35.632c-5.684,0-10.293,4.608-10.293,10.293v38.77c0,5.685,4.609,10.293,10.293,10.293h45.559   c1.027-1.451,1.516-3.722,1.516-6.921V35.657c-0.166-0.008-0.332-0.025-0.5-0.025H26.713z M58.992,69.348   c-0.367,7.123-5.783,12.939-12.918,12.939c-7.133,0-12.914-5.738-12.914-12.873c0-4.338,2.773-7.68,4.936-10.187   c2.531-2.933,5.414-5.496,6.068-12.976c0,0,6.457,4.415,6.457,13.652c0,0,3.43-1.584,3.787-6.812   C54.408,53.093,59.465,60.134,58.992,69.348z"></path><path d="M79.434,37.684c0.062,0.122,0.107,0.256,0.107,0.403c0,0.496-0.404,0.898-0.898,0.898c-0.498,0-0.898-0.402-0.898-0.898   c0-0.497,0.4-0.899,0.898-0.899c0.033,0,0.064,0.017,0.1,0.021c-0.885-0.555-1.857-0.977-2.896-1.242v52.101   c0,1.416-0.01,4.337-1.131,6.811c1.363-0.19,2.637-0.644,3.773-1.312c-0.42-0.075-0.744-0.426-0.744-0.868   c0-0.497,0.4-0.898,0.898-0.898c0.494,0,0.898,0.401,0.898,0.898c0,0.066-0.025,0.126-0.039,0.188   c1.301-0.989,2.357-2.278,3.066-3.768c-0.139,0.091-0.295,0.156-0.473,0.156c-0.5,0-0.902-0.402-0.902-0.9   c0-0.496,0.402-0.898,0.902-0.898c0.428,0,0.773,0.312,0.861,0.718c0.396-1.094,0.623-2.268,0.623-3.498v-38.77   C83.58,42.548,81.945,39.561,79.434,37.684z M78.643,41.952c0.494,0,0.898,0.402,0.898,0.898c0,0.497-0.404,0.9-0.898,0.9   c-0.498,0-0.898-0.403-0.898-0.9C77.744,42.354,78.145,41.952,78.643,41.952z M78.643,50.32c0.494,0,0.898,0.402,0.898,0.899   c0,0.496-0.404,0.898-0.898,0.898c-0.498,0-0.898-0.402-0.898-0.898C77.744,50.723,78.145,50.32,78.643,50.32z M77.744,47.187   c0-0.496,0.4-0.898,0.898-0.898c0.494,0,0.898,0.402,0.898,0.898c0,0.497-0.404,0.899-0.898,0.899   C78.145,48.086,77.744,47.684,77.744,47.187z M78.643,54.483c0.494,0,0.898,0.403,0.898,0.899c0,0.498-0.404,0.899-0.898,0.899   c-0.498,0-0.898-0.401-0.898-0.899C77.744,54.887,78.145,54.483,78.643,54.483z M78.643,58.435c0.494,0,0.898,0.403,0.898,0.899   s-0.404,0.898-0.898,0.898c-0.498,0-0.898-0.402-0.898-0.898S78.145,58.435,78.643,58.435z M78.643,62.598   c0.494,0,0.898,0.403,0.898,0.898c0,0.498-0.404,0.901-0.898,0.901c-0.498,0-0.898-0.403-0.898-0.901   C77.744,63.001,78.145,62.598,78.643,62.598z M78.643,66.63c0.494,0,0.898,0.403,0.898,0.899c0,0.497-0.404,0.899-0.898,0.899   c-0.498,0-0.898-0.402-0.898-0.899C77.744,67.033,78.145,66.63,78.643,66.63z M78.643,70.794c0.494,0,0.898,0.403,0.898,0.899   s-0.404,0.899-0.898,0.899c-0.498,0-0.898-0.403-0.898-0.899S78.145,70.794,78.643,70.794z M78.643,75.114   c0.494,0,0.898,0.403,0.898,0.899s-0.404,0.899-0.898,0.899c-0.498,0-0.898-0.403-0.898-0.899S78.145,75.114,78.643,75.114z    M78.643,79.279c0.494,0,0.898,0.402,0.898,0.897c0,0.498-0.404,0.9-0.898,0.9c-0.498,0-0.898-0.402-0.898-0.9   C77.744,79.682,78.145,79.279,78.643,79.279z M78.643,83.311c0.494,0,0.898,0.403,0.898,0.899c0,0.497-0.404,0.899-0.898,0.899   c-0.498,0-0.898-0.402-0.898-0.899C77.744,83.714,78.145,83.311,78.643,83.311z M79.469,82.268c0-0.495,0.402-0.898,0.898-0.898   s0.9,0.403,0.9,0.898c0,0.497-0.404,0.9-0.9,0.9S79.469,82.765,79.469,82.268z M80.367,79.004c-0.496,0-0.898-0.403-0.898-0.899   c0-0.497,0.402-0.899,0.898-0.899s0.9,0.402,0.9,0.899C81.268,78.601,80.863,79.004,80.367,79.004z M80.367,74.683   c-0.496,0-0.898-0.401-0.898-0.898c0-0.496,0.402-0.899,0.898-0.899s0.9,0.403,0.9,0.899   C81.268,74.281,80.863,74.683,80.367,74.683z M80.367,70.52c-0.496,0-0.898-0.402-0.898-0.899c0-0.496,0.402-0.898,0.898-0.898   s0.9,0.402,0.9,0.898C81.268,70.117,80.863,70.52,80.367,70.52z M80.367,66.487c-0.496,0-0.898-0.402-0.898-0.899   c0-0.496,0.402-0.899,0.898-0.899s0.9,0.403,0.9,0.899C81.268,66.085,80.863,66.487,80.367,66.487z M80.367,62.323   c-0.496,0-0.898-0.402-0.898-0.898s0.402-0.899,0.898-0.899s0.9,0.403,0.9,0.899S80.863,62.323,80.367,62.323z M80.367,58.373   c-0.496,0-0.898-0.402-0.898-0.899c0-0.496,0.402-0.899,0.898-0.899s0.9,0.403,0.9,0.899   C81.268,57.971,80.863,58.373,80.367,58.373z M80.367,54.209c-0.496,0-0.898-0.402-0.898-0.899c0-0.496,0.402-0.9,0.898-0.9   s0.9,0.404,0.9,0.9C81.268,53.807,80.863,54.209,80.367,54.209z M80.367,50.177c-0.496,0-0.898-0.402-0.898-0.899   c0-0.496,0.402-0.898,0.898-0.898s0.9,0.402,0.9,0.898C81.268,49.774,80.863,50.177,80.367,50.177z M80.367,46.014   c-0.496,0-0.898-0.404-0.898-0.901c0-0.494,0.402-0.898,0.898-0.898s0.9,0.404,0.9,0.898   C81.268,45.609,80.863,46.014,80.367,46.014z M76.916,39.878c0.496,0,0.898,0.404,0.898,0.899c0,0.496-0.402,0.9-0.898,0.9   c-0.498,0-0.898-0.404-0.898-0.9C76.018,40.282,76.418,39.878,76.916,39.878z M76.916,44.214c0.496,0,0.898,0.404,0.898,0.898   c0,0.497-0.402,0.901-0.898,0.901c-0.498,0-0.898-0.404-0.898-0.901C76.018,44.618,76.418,44.214,76.916,44.214z M76.916,48.379   c0.496,0,0.898,0.402,0.898,0.898c0,0.497-0.402,0.899-0.898,0.899c-0.498,0-0.898-0.402-0.898-0.899   C76.018,48.781,76.418,48.379,76.916,48.379z M76.916,52.409c0.496,0,0.898,0.404,0.898,0.9c0,0.497-0.402,0.899-0.898,0.899   c-0.498,0-0.898-0.402-0.898-0.899C76.018,52.813,76.418,52.409,76.916,52.409z M76.916,56.574c0.496,0,0.898,0.403,0.898,0.899   c0,0.497-0.402,0.899-0.898,0.899c-0.498,0-0.898-0.402-0.898-0.899C76.018,56.978,76.418,56.574,76.916,56.574z M76.916,60.525   c0.496,0,0.898,0.403,0.898,0.899s-0.402,0.898-0.898,0.898c-0.498,0-0.898-0.402-0.898-0.898S76.418,60.525,76.916,60.525z    M76.916,64.688c0.496,0,0.898,0.403,0.898,0.899c0,0.497-0.402,0.899-0.898,0.899c-0.498,0-0.898-0.402-0.898-0.899   C76.018,65.092,76.418,64.688,76.916,64.688z M76.916,68.722c0.496,0,0.898,0.402,0.898,0.898c0,0.497-0.402,0.899-0.898,0.899   c-0.498,0-0.898-0.402-0.898-0.899C76.018,69.124,76.418,68.722,76.916,68.722z M76.916,72.885c0.496,0,0.898,0.403,0.898,0.899   c0,0.497-0.402,0.898-0.898,0.898c-0.498,0-0.898-0.401-0.898-0.898C76.018,73.288,76.418,72.885,76.916,72.885z M76.916,77.205   c0.496,0,0.898,0.402,0.898,0.899c0,0.496-0.402,0.899-0.898,0.899c-0.498,0-0.898-0.403-0.898-0.899   C76.018,77.607,76.418,77.205,76.916,77.205z M76.916,81.369c0.496,0,0.898,0.403,0.898,0.898c0,0.497-0.402,0.9-0.898,0.9   c-0.498,0-0.898-0.403-0.898-0.9C76.018,81.772,76.418,81.369,76.916,81.369z M76.916,85.401c0.496,0,0.898,0.403,0.898,0.898   c0,0.497-0.402,0.899-0.898,0.899c-0.498,0-0.898-0.402-0.898-0.899C76.018,85.805,76.418,85.401,76.916,85.401z M76.916,91.364   c-0.498,0-0.898-0.404-0.898-0.899c0-0.497,0.4-0.899,0.898-0.899c0.496,0,0.898,0.402,0.898,0.899   C77.814,90.96,77.412,91.364,76.916,91.364z M78.643,89.273c-0.498,0-0.898-0.402-0.898-0.9c0-0.496,0.4-0.898,0.898-0.898   c0.494,0,0.898,0.402,0.898,0.898C79.541,88.871,79.137,89.273,78.643,89.273z M81.268,90.465c0,0.495-0.404,0.899-0.9,0.899   s-0.898-0.404-0.898-0.899c0-0.497,0.402-0.899,0.898-0.899S81.268,89.968,81.268,90.465z M80.367,87.199   c-0.496,0-0.898-0.402-0.898-0.899c0-0.495,0.402-0.898,0.898-0.898s0.9,0.403,0.9,0.898   C81.268,86.797,80.863,87.199,80.367,87.199z M82.096,85.109c-0.5,0-0.902-0.402-0.902-0.899c0-0.496,0.402-0.899,0.902-0.899   c0.492,0,0.898,0.403,0.898,0.899C82.994,84.707,82.588,85.109,82.096,85.109z M82.096,81.077c-0.5,0-0.902-0.402-0.902-0.9   c0-0.495,0.402-0.897,0.902-0.897c0.492,0,0.898,0.402,0.898,0.897C82.994,80.675,82.588,81.077,82.096,81.077z M82.096,76.913   c-0.5,0-0.902-0.403-0.902-0.899s0.402-0.899,0.902-0.899c0.492,0,0.898,0.403,0.898,0.899S82.588,76.913,82.096,76.913z    M82.096,72.593c-0.5,0-0.902-0.403-0.902-0.899s0.402-0.899,0.902-0.899c0.492,0,0.898,0.403,0.898,0.899   S82.588,72.593,82.096,72.593z M82.096,68.429c-0.5,0-0.902-0.402-0.902-0.899c0-0.496,0.402-0.899,0.902-0.899   c0.492,0,0.898,0.403,0.898,0.899C82.994,68.026,82.588,68.429,82.096,68.429z M82.096,64.397c-0.5,0-0.902-0.403-0.902-0.901   c0-0.495,0.402-0.898,0.902-0.898c0.492,0,0.898,0.403,0.898,0.898C82.994,63.994,82.588,64.397,82.096,64.397z M82.096,60.232   c-0.5,0-0.902-0.402-0.902-0.898s0.402-0.899,0.902-0.899c0.492,0,0.898,0.403,0.898,0.899S82.588,60.232,82.096,60.232z    M82.096,56.282c-0.5,0-0.902-0.401-0.902-0.899c0-0.496,0.402-0.899,0.902-0.899c0.492,0,0.898,0.403,0.898,0.899   C82.994,55.881,82.588,56.282,82.096,56.282z M82.096,52.118c-0.5,0-0.902-0.402-0.902-0.898c0-0.497,0.402-0.899,0.902-0.899   c0.492,0,0.898,0.402,0.898,0.899C82.994,51.716,82.588,52.118,82.096,52.118z M82.096,48.086c-0.5,0-0.902-0.402-0.902-0.899   c0-0.496,0.402-0.898,0.902-0.898c0.492,0,0.898,0.402,0.898,0.898C82.994,47.684,82.588,48.086,82.096,48.086z M82.096,41.952   c0.492,0,0.898,0.402,0.898,0.898c0,0.497-0.406,0.9-0.898,0.9c-0.5,0-0.902-0.403-0.902-0.9   C81.193,42.354,81.596,41.952,82.096,41.952z M81.268,40.777c0,0.496-0.404,0.9-0.9,0.9s-0.898-0.404-0.898-0.9   c0-0.495,0.402-0.899,0.898-0.899S81.268,40.282,81.268,40.777z"></path><path d="M74.084,5.264c2.553,2.009,4.203,5.132,4.203,8.645v20.721c0,0.004-0.002,0.007-0.002,0.011   c2.379,1.057,4.357,2.845,5.662,5.076c0-0.025,0.008-0.049,0.008-0.075V17.365C83.955,11.403,79.709,6.415,74.084,5.264z"></path><path d="M26.713,33.573h46.574c1.016,0,1.998,0.136,2.941,0.368V13.908c0-4.831-3.824-8.768-8.57-8.896H28.396   c-6.811,0-12.352,5.541-12.352,12.353v22.275c0,0.025,0.008,0.049,0.008,0.073C18.199,36.048,22.168,33.573,26.713,33.573z    M33.943,32.212h-3.156v-6.26c0.5,0.201,1.025,0.322,1.58,0.322c0.553,0,1.076-0.121,1.576-0.321V32.212z M48.477,32.212H45.32   v-6.26c0.5,0.201,1.025,0.322,1.58,0.322c0.553,0,1.078-0.121,1.576-0.321V32.212z M63.01,32.212h-3.156v-6.26   c0.498,0.201,1.025,0.322,1.578,0.322c0.555,0,1.078-0.121,1.578-0.321V32.212z M61.432,11.289c2.629,0,4.324,2.116,4.324,5.393   c0,3.802-2.141,7.534-4.324,7.534c-2.182,0-4.32-3.732-4.32-7.534C57.111,13.405,58.807,11.289,61.432,11.289z M46.9,11.289   c2.625,0,4.322,2.116,4.322,5.393c0,3.802-2.141,7.534-4.322,7.534s-4.322-3.732-4.322-7.534   C42.578,13.405,44.273,11.289,46.9,11.289z M32.367,11.289c2.625,0,4.324,2.116,4.324,5.393c0,3.802-2.143,7.534-4.324,7.534   s-4.322-3.732-4.322-7.534C28.045,13.405,29.742,11.289,32.367,11.289z"></path></g></svg>