<svg xmlns="http://www.w3.org/2000/svg" xmlns:xlink="http://www.w3.org/1999/xlink" version="1.1" x="0px" y="0px" viewBox="0 0 100 100" enable-background="new 0 0 100 100" xml:space="preserve"><path d="M90.473,9.528c-6.04-6.039-15.829-6.037-21.865,0c0,0-9.939,7.951-13.915,21.866c0,0-0.995,4.968-2.981,6.956l0,0L5,85.062  L14.939,95L62.4,47.537c2.281-1.537,6.143-2.292,6.143-2.292c12.438-3.552,20.106-11.832,21.6-13.556  c0.107-0.102,0.223-0.191,0.328-0.297C96.509,25.356,96.51,15.568,90.473,9.528z M11.958,86.056L9.97,84.069l43.729-43.732  l1.987,1.989L11.958,86.056z"></path></svg>