<svg xmlns="http://www.w3.org/2000/svg" xmlns:xlink="http://www.w3.org/1999/xlink" version="1.1" x="0px" y="0px" viewBox="0 0 20 20" enable-background="new 0 0 20 20" xml:space="preserve"><g><path fill="#000000" d="M7.2,2h5.6C12.9,2,13,1.9,13,1.8V1c0-0.6-0.4-1-1-1H8C7.4,0,7,0.4,7,1v0.8C7,1.9,7.1,2,7.2,2z"></path><path fill="#000000" d="M13.6,6.6l-0.2-0.2c-0.9-0.9-1.4-2-1.4-3.2C12,3.1,11.9,3,11.8,3H8.2C8.1,3,8,3.1,8,3.2   c0,1.2-0.5,2.4-1.4,3.2L6.4,6.6C5.5,7.5,5,8.7,5,10v9c0,0.6,0.4,1,1,1h8c0.6,0,1-0.4,1-1v-9C15,8.7,14.5,7.5,13.6,6.6z"></path></g></svg>