<svg xmlns="http://www.w3.org/2000/svg" xmlns:xlink="http://www.w3.org/1999/xlink" version="1.1" x="0px" y="0px" viewBox="0 0 100 100" enable-background="new 0 0 100 100" xml:space="preserve"><g><path d="M37.82,37.283c-0.77-0.051-1.396,0.798-1.396,1.896c0,1.1,0.622,2.031,1.392,2.082c0.771,0.051,1.396-0.799,1.396-1.897   C39.212,38.264,38.591,37.333,37.82,37.283z"></path><path d="M31.476,33.442c-0.922-0.061-1.669,0.956-1.67,2.273c0,1.314,0.745,2.431,1.666,2.491c0.922,0.062,1.67-0.958,1.672-2.271   C33.144,34.62,32.399,33.502,31.476,33.442z"></path><path d="M40.195,52.548l12.266,7.835c1.684,1.195,4.592,1.609,6.282,0.923l7.626-3.099l-15.815-10.13L40.195,52.548z"></path><path d="M77.044,52.062l-14.315-9.239l-9.98,4.307l15.869,10.165l8.506-3.456c0.526-0.214,0.782-0.479,0.802-0.646   C77.95,52.968,77.687,52.519,77.044,52.062z"></path><path d="M43.26,23.375L6.497,38.669v4.845L56.39,75.422L93.152,60.13v-4.847L43.26,23.375z M38.739,28.198l2.909,6.391   l-13.124-4.116C31.054,29.296,34.646,28.467,38.739,28.198z M80.678,53.515c-0.146,1.249-1.062,2.304-2.513,2.894l-6.688,2.717   l0.974,0.625c0.461,0.294,0.596,0.907,0.299,1.367c-0.187,0.296-0.508,0.457-0.833,0.457c-0.183,0-0.368-0.051-0.535-0.156   l-2.151-1.379l-9.443,3.836c-0.893,0.362-1.945,0.535-3.039,0.535c-2.059,0-4.266-0.611-5.837-1.73l-13.789-8.806l-1.324,0.571   c-0.159,0.065-0.327,0.101-0.501,0.101c-0.924,0-1.673-0.978-1.673-2.187c0-0.878,0.396-1.634,0.966-1.981v-0.003   c0.12-0.072,0.248-0.128,0.381-0.162l11.3-4.879l-4.702-3.013v3.01l-5.934-2.134c0.026-0.186,0.041-0.38,0.041-0.579   c0.001-1.657-0.936-3.061-2.099-3.137c-1.009-0.067-1.851,0.894-2.054,2.237l-3.325-1.197v-9.19l13.371,4.199v4.439l6.896,4.417   l14.022-6.055c0.175-0.081,0.361-0.125,0.559-0.125c0.922,0,1.67,0.979,1.67,2.187c0,0.133-0.032,0.253-0.05,0.378l13.936,8.996   C80.096,50.83,80.833,52.184,80.678,53.515z"></path></g></svg>