<svg xmlns="http://www.w3.org/2000/svg" xmlns:xlink="http://www.w3.org/1999/xlink" version="1.1" x="0px" y="0px" viewBox="0 0 50 50" enable-background="new 0 0 50 50" xml:space="preserve"><g><path d="M5.9,5.7H49V5.2c0-1.2-1-2.2-2.2-2.2H5.3C2.9,2.9,0.9,5,1,7.5c0.1,2.3,2.2,4.1,4.6,4.1l43.4,0V8.9H5.9   C5,8.9,4.3,8.1,4.3,7.3S5,5.7,5.9,5.7z"></path><path d="M28.1,28.4c0-3.5,2.9-6.4,6.4-6.4H49v-9.4H5.6c-1.9,0-3.6-0.9-4.6-2.3v32.9h0c0.2,2.2,2.1,3.9,4.3,3.9h41.4   c1.2,0,2.3-1,2.3-2.3v-10H34.6C31,34.9,28.1,32,28.1,28.4z"></path><path d="M29.1,28.4c0,3,2.4,5.4,5.4,5.4H49V23H34.6C31.6,23,29.1,25.4,29.1,28.4z M37.5,28.4c0,1.5-1.2,2.8-2.8,2.8   c-1.5,0-2.8-1.2-2.8-2.8c0-1.5,1.2-2.8,2.8-2.8C36.3,25.7,37.5,26.9,37.5,28.4z"></path></g></svg>