<?xml version="1.0" encoding="UTF-8" standalone="no"?>
<!DOCTYPE svg PUBLIC "-//W3C//DTD SVG 1.1//EN" "http://www.w3.org/Graphics/SVG/1.1/DTD/svg11.dtd">
<svg width="100%" height="100%" viewBox="0 0 100 100" version="1.1" xmlns="http://www.w3.org/2000/svg" xmlns:xlink="http://www.w3.org/1999/xlink" xml:space="preserve" xmlns:serif="http://www.serif.com/" style="fill-rule:evenodd;clip-rule:evenodd;stroke-miterlimit:10;">
    <g>
        <g transform="matrix(0.268305,0,0,0.240356,0.648201,33.84)">
            <path d="M182,203.4C182,211 179.3,218 179.3,218C176.3,225 157.7,269 117.7,269.4C83.3,269.8 53.5,237.6 53.5,203.4C53.5,160.7 99.5,130.6 117.7,137.4C130.2,142 131.8,164.6 150.9,169C157.4,170.5 159.3,168.3 164.9,171C177.7,177 182,194.4 182,203.4Z" style="fill-rule:nonzero;stroke:black;stroke-width:1px;"/>
        </g>
        <g transform="matrix(0.268305,0,0,0.240356,0.648201,33.84)">
            <path d="M108,171.4C114.1,169 117.2,162 114.8,155.8L64.4,28.5C62,22.4 55,19.3 48.8,21.7C42.7,24.1 39.6,31.1 42,37.3L92.3,164.6C94.8,170.7 101.8,173.8 108,171.4Z" style="fill-rule:nonzero;stroke:black;stroke-width:1px;"/>
        </g>
        <g transform="matrix(0.268305,0,0,0.240356,0.648201,33.84)">
            <path d="M85.2,188C79.1,190.5 72.1,187.5 69.6,181.4L27.9,78.4C25.4,72.3 28.4,65.3 34.5,62.8C40.6,60.3 47.6,63.3 50.1,69.4L91.8,172.4C94.3,178.5 91.4,185.6 85.2,188Z" style="fill-rule:nonzero;stroke:black;stroke-width:1px;"/>
        </g>
        <g transform="matrix(0.268305,0,0,0.240356,0.648201,33.84)">
            <path d="M74.9,235C68.8,237.5 61.8,234.5 59.3,228.4L23.4,139.7C20.9,133.6 23.9,126.6 30,124.1C36.1,121.6 43.1,124.6 45.6,130.7L81.5,219.4C84,225.5 81,232.6 74.9,235Z" style="fill-rule:nonzero;stroke:black;stroke-width:1px;"/>
        </g>
        <g transform="matrix(0.268305,0,0,0.240356,0.648201,33.84)">
            <path d="M146.1,189.4C152.2,187 155.3,180 152.9,173.8L102.6,46.5C100.2,40.4 93.2,37.3 87,39.7C80.9,42.1 77.8,49.1 80.2,55.3L130.5,182.6C133,188.7 140,191.8 146.1,189.4Z" style="fill-rule:nonzero;stroke:black;stroke-width:1px;"/>
        </g>
        <g transform="matrix(0.268305,0,0,0.240356,0.648201,33.84)">
            <path d="M160.6,231L152.7,228C146.5,225.7 143.4,218.7 145.7,212.5C154.9,188 164.2,163.5 173.4,139C174.5,136.9 177.3,132.2 182.9,129C186.1,127.2 189.1,126.5 191.2,126.2C192.2,126.4 193.3,126.6 194.4,127C196.3,127.6 197.9,128.4 199,129.2C200.9,131.3 203.4,134.5 204.4,139C205.7,144.7 204.1,149.3 203.4,151C194.3,175.3 185.1,199.7 176,224C173.7,230.2 166.8,233.3 160.6,231Z" style="fill-rule:nonzero;stroke:black;stroke-width:1px;"/>
        </g>
        <g transform="matrix(0.268305,0,0,0.240356,0.648201,33.84)">
            <path d="M198,203.3C198,210.9 200.7,217.9 200.7,217.9C203.7,224.9 222.3,268.9 262.3,269.3C296.7,269.7 326.5,237.5 326.5,203.3C326.5,160.6 280.5,130.5 262.3,137.3C249.8,141.9 248.2,164.5 229.1,168.9C222.6,170.4 220.7,168.2 215.1,170.9C202.3,176.8 198,194.2 198,203.3Z" style="fill-rule:nonzero;stroke:black;stroke-width:1px;"/>
        </g>
        <g transform="matrix(0.268305,0,0,0.240356,0.648201,33.84)">
            <path d="M272,171.2C265.9,168.8 262.8,161.8 265.2,155.6L315.5,28.3C317.9,22.2 324.9,19.1 331.1,21.5C337.2,23.9 340.3,30.9 337.9,37.1L287.6,164.4C285.1,170.6 278.1,173.6 272,171.2Z" style="fill-rule:nonzero;stroke:black;stroke-width:1px;"/>
        </g>
        <g transform="matrix(0.268305,0,0,0.240356,0.648201,33.84)">
            <path d="M294.7,187.9C300.8,190.4 307.8,187.4 310.3,181.3L352,78.3C354.5,72.2 351.5,65.2 345.4,62.7C339.3,60.2 332.3,63.2 329.8,69.3L288.1,172.3C285.6,178.4 288.6,185.4 294.7,187.9Z" style="fill-rule:nonzero;stroke:black;stroke-width:1px;"/>
        </g>
        <g transform="matrix(0.268305,0,0,0.240356,0.648201,33.84)">
            <path d="M305,234.9C311.1,237.4 318.1,234.4 320.6,228.3L352.5,149.7C355,143.6 352,136.6 345.9,134.1C339.8,131.6 332.8,134.6 330.3,140.7L298.4,219.3C295.9,225.4 298.9,232.4 305,234.9Z" style="fill-rule:nonzero;stroke:black;stroke-width:1px;"/>
        </g>
        <g transform="matrix(0.268305,0,0,0.240356,0.648201,33.84)">
            <path d="M233.8,189.2C227.7,186.8 224.6,179.8 227,173.6L277.3,46.3C279.7,40.2 286.7,37.1 292.9,39.5C299,41.9 302.1,48.9 299.7,55.1L249.4,182.4C247,188.6 240,191.6 233.8,189.2Z" style="fill-rule:nonzero;stroke:black;stroke-width:1px;"/>
        </g>
        <g transform="matrix(0.268305,0,0,0.240356,0.648201,33.84)">
            <path d="M219.4,230.8L227.3,227.8C233.5,225.5 236.6,218.5 234.3,212.3C225.1,187.8 215.8,163.3 206.6,138.8C205.5,136.7 202.7,132 197.1,128.8C193.9,127 190.9,126.3 188.8,126C187.8,126.2 186.7,126.4 185.6,126.8C183.7,127.4 182.1,128.2 181,129C179.1,131.1 176.6,134.3 175.6,138.8C174.3,144.5 175.9,149.1 176.6,150.8C185.7,175.1 194.9,199.5 204,223.8C206.2,230 213.2,233.2 219.4,230.8Z" style="fill-rule:nonzero;stroke:black;stroke-width:1px;"/>
        </g>
        <g transform="matrix(0.268305,0,0,0.240356,0.648201,33.84)">
            <path d="M208.8,145C208.8,168.2 200.4,186.9 190,186.9" style="fill:none;stroke:black;stroke-width:1px;"/>
        </g>
        <g transform="matrix(1.07482,0,0,1.09633,23.5611,-4.82467)">
            <path d="M41.854,12.113C41.244,12.113 40.75,11.618 40.75,11.008C40.75,10.398 41.244,9.903 41.854,9.903C42.464,9.903 42.959,10.398 42.959,11.008C42.959,11.617 42.464,12.113 41.854,12.113M24.975,19.527L10.224,25.543C6.846,26.921 4.623,29.965 4.623,33.651L4.659,34.733C4.72,35.954 4.762,36.845 3.629,38.043L0.167,41.7C-0.064,41.945 -0.054,42.332 0.191,42.562C0.292,42.656 0.614,42.732 0.774,42.732L8.622,42.732C8.778,42.732 8.92,42.674 9.028,42.578C9.42,42.285 9.826,41.947 10.264,41.583C11.959,40.177 14.171,38.344 15.703,38.68C18.363,39.265 20.787,39.587 23.218,39.642C25.643,39.698 28.068,39.488 30.736,39.009C32.433,38.704 33.925,40.332 35.189,41.713L35.968,42.546C36.083,42.663 36.24,42.731 36.403,42.73L44.415,42.73C44.753,42.73 45.028,42.455 45.028,42.117C45.028,41.936 44.949,41.773 44.823,41.66L41.976,38.733C40.988,37.72 41.002,36.464 41.685,35.287C43.964,31.352 45.272,29.093 45.239,24.057L45.195,22.777C45.106,20.958 45.007,18.885 46.216,17.861L48.009,16.344C48.364,18.323 48.432,22.209 48.167,24.045C48.052,24.845 49.23,24.914 49.388,24.199C50.334,19.926 49.988,16.333 49.629,12.348C49.551,11.495 49.306,10.658 48.853,10.122C48.624,9.851 48.342,9.65 48.004,9.549L45.098,8.679C42.93,7.547 41.546,7.011 39.008,7.378C37.02,7.67 34.792,8.978 33.733,10.7C33.214,11.439 32.753,12.134 32.318,12.789C30.333,15.782 28.914,17.92 24.975,19.527Z"/>
        </g>
    </g>
</svg>
