<svg xmlns="http://www.w3.org/2000/svg" data-name="Kitchen Objects" viewBox="0 0 60 60" x="0px" y="0px"><title>Kitchen Objects - 083 - Tin Opener</title><path d="M58.81,37.61,42.54,21.35a3.07592,3.07592,0,0,0-3.4-.56995l-.13-.13013L28.71,10.34l4.78.44006c.1.01.21.01.31.01a3.29775,3.29775,0,0,0,2.23-.8501A2.86562,2.86562,0,0,0,37,7.79V6.21a2.86562,2.86562,0,0,0-.97-2.1499A3.33671,3.33671,0,0,0,33.49,3.22l-8.37.76a7.49559,7.49559,0,0,0-13.24,0L3.51,3.22a3.36232,3.36232,0,0,0-2.54.84009A2.86562,2.86562,0,0,0,0,6.21V7.79a2.86562,2.86562,0,0,0,.97,2.1499A3.29775,3.29775,0,0,0,3.2,10.79c.1,0,.21,0,.31-.01l7.95-.73A7.4867,7.4867,0,0,0,14,13.48v17.7A3.01048,3.01048,0,0,0,12,34V57a3.00887,3.00887,0,0,0,3,3h7a3.00887,3.00887,0,0,0,3-3V34a3.01048,3.01048,0,0,0-2-2.82007V17.36l9.77,9.78a2.98733,2.98733,0,0,0,.58,3.4L49.61,46.8a3.006,3.006,0,0,0,4.25,0L58.81,41.86a3.03019,3.03019,0,0,0,0-4.25ZM18.5,4A3.50389,3.50389,0,0,1,22,7.5c0,.1-.01.2-.01.3a1.02735,1.02735,0,0,1-1.06.97.98418.98418,0,0,1-.94-1.03c.01-.12.01-.17993.01-.24a1.5,1.5,0,1,0-2.32,1.26.99965.99965,0,0,1-.54,1.84.97127.97127,0,0,1-.54-.16A3.50037,3.50037,0,0,1,18.5,4ZM19,55a1,1,0,0,1-2,0V52a1,1,0,0,1,2,0Zm0-7a1,1,0,0,1-2,0V36a1,1,0,0,1,2,0Zm2-17H16V14.57007c.06.0199.13.02991.19.04993a6.3131,6.3131,0,0,0,.62.17q.21.045.42.09c.23.03992.47.05994.71.08.12.01.25.02.37.03.07,0,.13.01.19.01.12,0,.24-.03.36-.03.24-.01.47-.03.7-.06006.17-.0199.33-.05994.5-.08984.11-.03.23-.03.34-.06006l.36.35.24.24Zm13.06-5.41-9.64-9.64L23,14.53V13.5c.04-.03.06-.06006.1-.09009a7.162,7.162,0,0,0,.59-.51c.05-.04993.11-.09985.16-.1499a7.44513,7.44513,0,0,0,.63-.74,2.34437,2.34437,0,0,0,.17-.26,6.62413,6.62413,0,0,0,.36-.56006c.07-.11987.13-.24.19-.36.09-.17.16-.35.24-.52991.03-.08008.08-.16.11-.24l12.04,12ZM48.2,36.90991a1.02416,1.02416,0,0,1-.71.29,1.042,1.042,0,0,1-.71-.29l-8.48-8.49A.997.997,0,0,1,39.71,27.01l8.49,8.48A1.00782,1.00782,0,0,1,48.2,36.90991ZM53.15,41.86a1.024,1.024,0,0,1-.71.28992,1.04213,1.04213,0,0,1-.71-.28992l-2.12-2.13a.99573.99573,0,0,1,0-1.40991,1.00776,1.00776,0,0,1,1.42,0l2.12,2.11987A1.00808,1.00808,0,0,1,53.15,41.86Z"></path></svg>