<svg xmlns="http://www.w3.org/2000/svg" xmlns:xlink="http://www.w3.org/1999/xlink" version="1.1" x="0px" y="0px" viewBox="0 0 100 100" enable-background="new 0 0 100 100" xml:space="preserve"><path fill="#000000" d="M54.572,50.979l-4.958-13.31l-0.172-0.295L24.393,7c0,0-0.334-0.333-0.513-0.403  c-1.574-0.623-9.607-3.412-15.191,2.061C3.117,14.119,5.938,22.16,6.62,23.849c0.083,0.206,0.467,0.594,0.467,0.594l30.201,25.043  l0.244,0.142l13.439,4.951l28.507,28.477c0,0,3.501,3.73,5.066,8.326c1.235,4.578,4.55,3.034,4.55,3.034l4.963-4.963  c1.41-2.268,0.488-4.046-2.681-4.862c-3.518-1.222-8.292-5.101-8.292-5.101L54.572,50.979z"></path></svg>