<svg xmlns="http://www.w3.org/2000/svg" xmlns:xlink="http://www.w3.org/1999/xlink" version="1.1" x="0px" y="0px" viewBox="0 0 100 100" enable-background="new 0 0 100 100" xml:space="preserve"><g><path fill="#000000" d="M94.899,45.562c-1.381-20.72-20.958-37.15-44.922-37.159c5.273,0.009,9.621,15.089,10.256,34.571   c1.709-2.238,4.398-3.688,7.431-3.688c2.893,0,5.469,1.317,7.186,3.377l-0.075-0.021L52.065,78.417H50.2l10.011-35.105   l-2.407,0.005l-7.945,35.1h-2.097l-5.627-35.034c1.685-2.473,4.521-4.098,7.738-4.098c3.285,0,6.17,1.697,7.84,4.259   C57.282,23.823,53.97,8.47,49.94,8.405c0.009-0.002,0.02-0.003,0.03-0.003c-0.004,0-0.008,0-0.012,0   c-0.013,0-0.025,0.001-0.038,0.001c-0.001,0-0.004-0.001-0.006-0.001c-0.003,0-0.007,0.001-0.009,0.001   c-0.049,0.001-0.099,0.003-0.147,0.003c0.03,0,0.061,0.002,0.091,0.004c0,0-0.002,0-0.002,0c-0.071-0.003-0.143-0.008-0.215-0.008   c-0.21,0-0.417,0.017-0.626,0.024c0.029-0.001,0.058-0.004,0.086-0.005C25.432,8.813,6.236,25.208,4.999,45.788h0.335l-0.035,0.249   l36.94,32.44v13.171h13.231V78.432l39.527-32.6L94.899,45.562z M42.651,78.417L6.219,43.963c1.619-2.788,4.613-4.678,8.07-4.678   c3.044,0,5.74,1.46,7.449,3.711C23.394,24.228,34.421,9.553,48.044,8.485C35.667,9.664,25.683,24.493,24.288,43.368l-0.048-0.081   L21.656,43l23.198,35.417H42.651z M45.181,78.417L24.322,43.425c1.681-2.494,4.525-4.139,7.758-4.139   c3.15,0,5.929,1.561,7.625,3.947c0.586-19.005,4.704-33.87,9.78-34.77c-3.833,1.037-6.933,15.926-7.364,34.9l-2.447,0.024   l7.713,35.029H45.181z M50.979,8.457c13.841,0.917,25.056,15.881,26.588,34.972l-2.643-0.745   C73.33,24.011,63.318,9.449,50.979,8.457z M54.955,78.417h-2.441l25.054-34.978c0.003,0.045,0.01,0.09,0.013,0.136   c1.667-2.578,4.561-4.29,7.858-4.29c3.535,0,6.596,1.973,8.186,4.866L54.955,78.417z"></path></g></svg>