<svg xmlns="http://www.w3.org/2000/svg" xmlns:xlink="http://www.w3.org/1999/xlink" version="1.1" x="0px" y="0px" viewBox="0 0 100 100" style="enable-background:new 0 0 100 100;" xml:space="preserve"><path d="M90.4,28.7L55.8,10.1c-2-1.1-4.5-1.2-6.6-0.2L9.5,28.8C7,30,5.4,32.6,5.4,35.4v28.9c0,2.7,1.5,5.1,3.8,6.4l34.6,18.7  c2,1.1,4.5,1.2,6.6,0.2l39.8-18.9c2.5-1.2,4.1-3.8,4.1-6.6V35.1C94.2,32.4,92.7,30,90.4,28.7z M52.5,10.8l15.8,8.6L26.2,39.5  l-15.8-8.6L52.5,10.8z M83.9,60.4L62.8,70.7V55.8l21.1-10.3V60.4z M48.2,50.2v30.4c0,0.6-0.5,1.1-1.1,1.1s-1.1-0.5-1.1-1.1V50.1  l-17.3-9.3l42.2-20.1l18.4,10L48.2,50.2z"></path></svg>