<svg xmlns="http://www.w3.org/2000/svg" xmlns:xlink="http://www.w3.org/1999/xlink" version="1.1" x="0px" y="0px" viewBox="0 0 100 100" enable-background="new 0 0 100 100" xml:space="preserve"><g><path d="M94.775,27.611c-1.236-0.098-2.089,0.59-2.783,1.623c-1.048-1.96,1.037-2.806,0.923-4.862   c-2.953,1.819-4.532,4.885-7.474,7.07c0.655-2.199,2.227-3.458,2.485-5.301c0.461-0.791,0.66-1.465-0.654-1.461   c-1.713,2.79-3.591,5.458-5.77,8.185c-0.452-1.695,0.793-2.95,0.179-4.388c-1.174-0.042-1.264,0.988-1.502,1.685   c-2.012,5.906-6.66,9.471-11.417,12.929c-1.607,1.168-3.321,2.187-4.98,3.283c-0.489,0.323-0.842,0.904-1.603,0.41   c-1.063-0.69-0.371-1.034,0.193-1.446c-1.472-1.211,0.159-3.891-2.225-4.699c-0.27-0.091-0.667-0.646-0.619-0.716   c1.908-2.737-1.374-1.916-1.967-2.925c1.028-0.576,2.155-0.797,1.166-2.65c-1.525-2.858-1.071-6.424-2.807-9.296   c-0.06-0.1-0.15-0.252-0.115-0.33c2.058-4.538-1.619-2.285-3.19-2.43c0.378-2.153,1.83-3.649,2.411-5.614   c-2.311,0.589-2.311,0.589-5.131,4.163c-0.044-2.194,0.959-3.927,1.089-5.791c0.055-0.787,0.52-2.51-1.286-0.95   c-0.153,0.132-0.348,0.215-0.523,0.321c-0.051-0.363-0.147-0.727-0.143-1.09c0.005-0.501,0.09-1.153-0.408-1.31   c-0.684-0.215-1.062,0.372-1.403,0.936c-1.677,2.773-2.732,5.812-3.894,9.494c-0.286-1.84-0.474-3.046-0.651-4.185   c-0.908-0.056-1.108,0.436-1.197,0.914c-0.902,4.874-1.935,9.733-2.567,14.643c-0.192,1.491-0.254,2.863-1.037,4.199   c-1.347,2.299-1.252,4.626-0.283,7.149c1.638,4.263,3.773,8.45,3.277,13.255c-0.115,1.111-0.17,2.241-0.421,3.323   c-0.309,1.331-1.314,1.268-2.566,0.871c1.334-1.937,2.656-3.905,0.946-6.225c-1.444-1.959-5.566-3.419-7.781-2.108   c-4.227,2.502-8.947,2.838-13.53,3.696c-4.021,0.752-11.965,2.612-11.965,2.612s-2.197,2.64,2.187,2.31   c4.384-0.331,8.623,0.508,14.008-0.185c1.96-0.252,3.823-0.969,3.333,2.338c-0.231,1.564,0.933,2.825,2.063,3.818   c10.077,8.855,21.32,15.069,35.17,15.076c2.202,0.001,3.986,0.5,5.928,1.614c2.75,1.576,5.731,4.129,9.094,0.914   c0.063-0.06,0.205-0.081,0.355-0.103c1.404-0.202,3.773,1.207,3.805-1.424c0.032-2.631-1.129-5.118-3.683-6.496   c-1.429-0.771-3.056-1.114-4.618-1.466c-3.613-0.814-3.225-4.373-4.763-6.595c-0.271-0.391,0.084-0.565,0.458-0.713   c6.755-2.674,9.301-9.205,13.253-14.457c4.507-5.99,5.863-13.571,10.029-19.726C90.481,32.025,95.877,30.891,94.775,27.611z"></path><path d="M87.272,24.68c0.719,0.263,0.519,0.937,0.654,1.461c0.269-0.403,0.659-0.773,0.778-1.216   c0.165-0.617,1.301-1.38,0.288-1.854C87.604,22.422,87.618,23.876,87.272,24.68z"></path></g></svg>