<svg xmlns="http://www.w3.org/2000/svg" xmlns:xlink="http://www.w3.org/1999/xlink" version="1.1" x="0px" y="0px" viewBox="0 0 50 50" enable-background="new 0 0 50 50" xml:space="preserve"><g><path fill-rule="evenodd" clip-rule="evenodd" d="M28.633,7.054c-0.69,0-1.249-0.559-1.249-1.25c0-0.69,0.559-1.25,1.249-1.25   c0.69,0,1.25,0.56,1.25,1.25C29.883,6.495,29.323,7.054,28.633,7.054 M33.948,4.047c-1.169-1.682-3.077-2.691-5.128-2.691   c-3.448,0-6.25,2.803-6.25,6.251c0,3.206,3.182,7.672,3.182,7.907c0.455,0.741,0.91,1.482,1.315,2.21   c-8.548-3.918-14.051,0.021-18.158,6.352c-2.089,3.222-3.765,7.038-5.302,10.692c8.825-2.02,13.386-3.437,20.343-11.665   C20.935,33.992,11.616,35.856,2.26,37.978c-0.708,1.671-1.401,3.246-2.106,4.632c-0.355,0.699-0.077,1.554,0.622,1.908   c0.499,0.254,1.055,0.115,1.582,0.053c2.831-0.33,7.285-0.85,12.112-1.826v3.059h-1.509c-0.784,0-1.42,0.636-1.42,1.42   c0,0.784,0.636,1.42,1.42,1.42h7.252c0.784,0,1.42-0.636,1.42-1.42c0-0.784-0.636-1.42-1.42-1.42h-2.903v-3.679   c2.186-0.515,4.358-1.121,6.481-1.853c9.495-3.277,17.421-8.969,14.843-19.1c-0.447-1.759-1.313-3.197-2.287-4.528   c0.804,0.245,1.656,0.416,2.538,0.503c2.241,0.222,4.696-0.094,7.104-1.096c0.907-0.377,3.134-1.495,3.736-2.281   c0.253-0.329,0.368-0.731,0.189-1.26c-0.115-0.341-0.36-0.639-0.707-0.812L36.497,5.326L33.948,4.047z"></path></g></svg>