<svg xmlns="http://www.w3.org/2000/svg" xmlns:xlink="http://www.w3.org/1999/xlink" version="1.1" x="0px" y="0px" viewBox="0 0 64 64" style="enable-background:new 0 0 64 64;" xml:space="preserve"><g><path d="M62.386,16.128C61.453,11.931,57.799,9,53.5,9c-1.378,0-2.5,1.122-2.5,2.5c0,1.37,1.601,2.193,2.091,2.413l0.069,0.028   c1.564,0.565,2.023,5.405,1.84,8.558c0,7.723-5.712,14.335-12.983,15.358c0.176-7.701,2.109-11.092,3.746-12.574   c1.573-1.426,3.063-1.295,3.113-1.29l1.73,0.216l-0.687-1.603C47.13,16.098,52.85,3.545,52.908,3.419L53,3.219V1h-1   c-3.042,0-6.03,0.779-8.642,2.252C37.376,6.627,28.044,13.125,25,22.083V4.051c0-1.318-0.792-2.478-1.972-2.885   c-1.281-0.444-2.695,0.03-3.44,1.149L14.465,10h-1.977C8.911,10,6,12.911,6,16.488v2.495l-2.213,0.009   C2.25,18.999,1,20.255,1,21.792c0,0.224,0.022,0.43,0.066,0.629C1.676,25.152,4.044,29.67,13,29.983v7.477   c0,6.852,2.825,13.554,7.752,18.387c4.712,4.623,10.826,7.152,17.263,7.152c0.156,0,0.312-0.001,0.468-0.004   C52.001,62.739,63,51.526,63,38V21.72C63,19.842,62.793,17.961,62.386,16.128z M44.34,4.994c1.994-1.125,4.238-1.792,6.547-1.955   c-0.937,2.148-4.602,11.127-3.531,17.779c-2.89-0.722-8.59-2.465-10.65-4.526l-1.414,1.414c2.41,2.41,8.151,4.151,10.933,4.884   c-0.552,0.258-1.14,0.62-1.729,1.14c-2.846,2.513-4.35,7.307-4.484,14.25c-3.883,0-7.56-1.441-10.382-4.142   c-1.634-1.564-2.85-3.431-3.631-5.473V28C26,16.984,37.491,8.858,44.34,4.994z M35,53v-2.391c0.647-0.199,1.315-0.342,2-0.429   v10.79c-0.671-0.03-1.339-0.087-2-0.177V55h-2v5.425c-0.676-0.156-1.342-0.347-2-0.566v-7.123c0.62-0.502,1.289-0.942,2-1.311V53   H35z M47,56v-2.339c1.145,1.161,2.055,2.561,2.648,4.129c-0.85,0.505-1.733,0.958-2.648,1.352V58h-2v1.896   c-0.655,0.212-1.321,0.398-2,0.55v-9.469c0.7,0.289,1.369,0.643,2,1.056V56H47z M41,60.798c-0.659,0.087-1.326,0.143-2,0.173   V50.097c0.679,0.029,1.348,0.116,2,0.258V60.798z M29,59.084c-0.609-0.27-1.207-0.568-1.793-0.893   C27.624,56.949,28.235,55.81,29,54.8V59.084z M51.354,56.673c-2.131-5.121-7.229-8.596-12.854-8.596   c-5.864,0-11.025,3.657-13.033,9.049c-1.169-0.79-2.28-1.691-3.315-2.707C17.607,49.959,15,43.778,15,37.46V28h-1   c-2.559,0-4.719-0.368-6.443-1.065c2.447-0.278,4.715-1.467,6.217-3.302l-1.548-1.267C10.877,24.016,8.719,25,6.455,25H4.61   c-0.791-0.841-1.331-1.848-1.592-3.015C3.006,21.93,3,21.865,3,21.792c0-0.439,0.357-0.797,0.796-0.799L8,20.974v-4.486   C8,14.014,10.014,12,12.488,12h3.047l5.717-8.575c0.245-0.368,0.697-0.517,1.123-0.368C22.743,3.184,23,3.593,23,4.051V23   c0,1.425,0.193,2.813,0.528,4.156c-2.077,0.388-4.753,1.62-5.498,4.601l1.94,0.485c0.578-2.315,2.881-2.975,4.162-3.164   c0.566,1.481,1.341,2.875,2.312,4.153c-1.681,0.469-3.717,1.735-4.415,4.526l1.94,0.484c0.772-3.086,3.734-3.234,4.011-3.241   c0.092,0.092,0.173,0.192,0.267,0.282c3.383,3.237,7.835,4.91,12.52,4.7C49.87,39.582,57,31.901,56.998,22.557   c0.091-1.523,0.364-9.164-3.116-10.482C53.535,11.914,53.064,11.588,53,11.5c0-0.276,0.224-0.5,0.5-0.5   c3.354,0,6.206,2.287,6.934,5.562C60.81,18.252,61,19.988,61,21.72V38c0,1.631-0.178,3.223-0.508,4.763   C59.171,41.487,56.82,40,53,40v2c4.256,0,6.23,2.168,6.867,3.07c-0.326,0.995-0.716,1.962-1.17,2.895C57.422,46.65,55.023,45,51,45   v2c3.911,0,5.894,1.83,6.684,2.827C56.058,52.512,53.896,54.842,51.354,56.673z"></path><path d="M13,14c-1.654,0-3,1.346-3,3s1.346,3,3,3s3-1.346,3-3S14.654,14,13,14z M13,18c-0.551,0-1-0.449-1-1s0.449-1,1-1   s1,0.449,1,1S13.551,18,13,18z"></path></g></svg>