<svg xmlns="http://www.w3.org/2000/svg" xmlns:xlink="http://www.w3.org/1999/xlink" version="1.1" x="0px" y="0px" viewBox="0 0 66 66" enable-background="new 0 0 66 66" xml:space="preserve"><g><path d="M27.9,37.9c0.7-1.4,1.6-2.6,2.2-3.4c3.4-4.6,2.4-9.7-0.1-12c-1.3-0.7-6.5-4.8-5.6-11.5l1.1-8.9C18,4.5,12.7,10.4,12.7,17.4   v30.8C15.5,43,21.1,39.2,27.9,37.9z"></path><path d="M33,1c-1.8,0-3.6,0.2-5.3,0.6l-1.3,9.7c-0.6,4.6,1.6,6.8,4.9,9.6c3.5,3.1,4.1,9.5,1.3,13.6c-0.3,0.7-1.2,1.5-2.1,3   c0.8-0.1,1.7-0.1,2.6-0.1c9.9,0,17,4.9,20.3,10.9V17.4C53.3,9.5,45.5,1,33,1z M38.1,10.8c-0.5,0.2-1.1,0-1.3-0.5l-0.9-1.9   c-0.2-0.5,0-1.1,0.5-1.3c0.5-0.2,1.1,0,1.3,0.5l0.9,1.9C38.8,10,38.6,10.6,38.1,10.8z M42.6,34.6L41.2,36c-0.4,0.4-1,0.4-1.4,0   c-0.4-0.4-0.4-1,0-1.4l1.5-1.5c0.4-0.4,1-0.4,1.4,0S43,34.2,42.6,34.6z M44.7,21.7l-2.1-0.2c-0.5,0-1-0.5-0.9-1.1   c0-0.5,0.5-1,1.1-0.9l2.1,0.2c0.5,0,1,0.5,0.9,1.1C45.8,21.4,45.3,21.8,44.7,21.7z"></path><path d="M33,39.4c-20.9,0-20.3,17.5-20.3,17.6c0,4.4,4.4,8,9.9,8h2.7c-4.8-4.1-4.8-10.2,0.2-14.4c6.4-5.3,19-2.5,19,3.6   c0,4-5.5,7.5-10.5,4.7c-4.4-2.5-0.2-8,4.1-5.5c0.5,0.3,0.7,1,0.4,1.5c-0.3,0.5-1,0.7-1.5,0.4c-1.6-0.9-3.9,0.6-2,1.7   c3.5,2,7.2-0.4,7.2-2.7c0-3.7-10-6.3-15.4-1.9c-7.6,6.3,1.8,12.3,2.1,12.7h14.5c5.4,0,9.9-3.6,9.9-8C53.3,56.9,53.5,39.4,33,39.4z"></path></g></svg>