<svg xmlns:x="http://ns.adobe.com/Extensibility/1.0/" xmlns:i="http://ns.adobe.com/AdobeIllustrator/10.0/" xmlns:graph="http://ns.adobe.com/Graphs/1.0/" xmlns="http://www.w3.org/2000/svg" xmlns:xlink="http://www.w3.org/1999/xlink" version="1.1" x="0px" y="0px" viewBox="0 0 100 100" enable-background="new 0 0 100 100" xml:space="preserve"><metadata><sfw xmlns="http://ns.adobe.com/SaveForWeb/1.0/"><slices></slices><sliceSourceBounds width="1449" height="1448" y="-1448.9" x="0.5" bottomLeftOrigin="true"></sliceSourceBounds></sfw></metadata><path d="M8.8,66.3l10.2-5l2.1-1.1l-3.4,9.7l4.6-0.4l10.1,12.5l10.1-12.5l4.6,0.4l-3.3-9.7c0.6,0.3,1.2,0.7,1.8,0.9L56,66.3  c2.7,1.3,4.6,3.9,5.2,6.9l0.8,4.4c-7.7,6.1-18.1,9.9-29.6,9.9c-11.5,0-21.9-3.8-29.6-9.9l0.8-4.4C4.1,70.2,6,67.7,8.8,66.3z   M40.6,57.7L40.6,57.7l0-3c0,0,9.4,0.3,13.9-4.3c0,0-6.5-1.8-5.3-13.7c1.2-11.9-1.5-22.3-11-21.4c0,0-4.1-5-12.3-1.8  c-2.8,1.1-10.4,3.8-10,20.2C16.2,50.2,10,50.2,10,50.2s3.2,4.7,14.1,4.6v3.1l8.3,24.2l8.3-24.1L40.6,57.7z M68.4,47.7L61,55.1  c-0.1,0.1-0.3,0.2-0.5,0.2c-0.3,0-0.7-0.3-0.7-0.6v-6.9h-0.1c-2.9,0-5.3-2.4-5.3-5.3V20.5c0-2.9,2.4-5.3,5.3-5.3h32.1  c2.9,0,5.3,2.4,5.3,5.3v21.9c0,2.9-2.4,5.3-5.3,5.3H68.4z M61.7,42.7l10.4-9.8l2.9,2.5c0.2,0.2,0.5,0.3,0.8,0.3  c0.3,0,0.6-0.1,0.8-0.3l2.9-2.5l10.4,9.8c0.3,0.2,0.6,0.4,0.9,0.4c0.3,0,0.7-0.1,1-0.4c0.5-0.5,0.5-1.4-0.1-1.9l-10.2-9.6l10.2-8.6  c0.6-0.5,0.6-1.3,0.2-1.8c-0.5-0.6-1.3-0.6-1.8-0.2L75.9,32.7L61.7,20.6c-0.6-0.5-1.4-0.4-1.8,0.2c-0.5,0.6-0.4,1.4,0.2,1.8  l10.2,8.6l-10.2,9.6c-0.5,0.5-0.6,1.3-0.1,1.9c0.3,0.3,0.6,0.4,1,0.4C61.1,43.1,61.5,42.9,61.7,42.7z"></path></svg>