<svg xmlns="http://www.w3.org/2000/svg" xmlns:xlink="http://www.w3.org/1999/xlink" version="1.1" x="0px" y="0px" viewBox="0 0 100 100" enable-background="new 0 0 100 100" xml:space="preserve"><symbol viewBox="-0.55 -8.85 10.95 11.05"><g><path fill-rule="evenodd" clip-rule="evenodd" d="M2.4,2.2h5C9-1.5,10-5.183,10.4-8.85H-0.55C-0.15-5.283,0.833-1.6,2.4,2.2z"></path></g></symbol><g><g><g><path d="M65.248,6.492c0.369-0.917-0.135-1.601-1.111-1.478L39.021,8.153c-0.977,0.123-1.76,1.029-1.76,2.014v3.657h25.068     L65.248,6.492z M83.716,67.117L71.988,43.214c-1.307-3.485-4.449-5.734-7.916-6.086c-10.071,0-18.59,0.01-28.25,0.01     c-3.424,0.386-6.518,2.627-7.809,6.076L16.284,67.117c-3.707,8.991,3.203,14.855,3.203,14.855     c0.982,0.955,2.163,1.575,3.404,1.878v9.301c0,0.122,0.012,0.244,0.036,0.365c0.011,0.054,0.031,0.104,0.047,0.156     c0.018,0.062,0.033,0.126,0.058,0.187c0.027,0.065,0.064,0.125,0.098,0.186c0.024,0.044,0.043,0.09,0.071,0.132     c0.136,0.203,0.311,0.378,0.514,0.514c0.036,0.023,0.074,0.039,0.111,0.061c0.067,0.038,0.133,0.078,0.206,0.108     c0.056,0.023,0.115,0.036,0.173,0.054c0.057,0.017,0.112,0.039,0.171,0.051C24.494,94.987,24.614,95,24.735,95h50.619     c0.121,0,0.242-0.013,0.361-0.036c0.058-0.012,0.111-0.033,0.168-0.05c0.059-0.018,0.118-0.031,0.175-0.055     c0.077-0.032,0.147-0.074,0.218-0.115c0.032-0.019,0.066-0.032,0.098-0.053c0.205-0.137,0.381-0.312,0.518-0.518     c0.019-0.028,0.03-0.06,0.047-0.088c0.044-0.074,0.087-0.147,0.12-0.228c0.023-0.056,0.036-0.113,0.053-0.17     c0.018-0.058,0.04-0.113,0.052-0.173c0.023-0.12,0.036-0.242,0.036-0.364V83.83c1.209-0.311,2.356-0.925,3.314-1.857     C80.514,81.973,87.421,76.108,83.716,67.117z M70.917,57.416L49.996,78.442L29.159,57.416H70.917z M26.58,83.806     c1.241-0.334,2.414-0.987,3.375-1.975c2.851-2.931,2.787-7.617-0.142-10.469l-0.339-0.393l-2.895-2.174v-8.743l14.26,14.39     L26.58,88.701V83.806z M29.187,91.311l14.25-14.248l5.248,5.296c0.001,0.001,0.001,0.001,0.002,0.002     c0.002,0.003,0.004,0.005,0.006,0.008c0.063,0.062,0.133,0.112,0.202,0.163c0.028,0.021,0.054,0.049,0.083,0.068     c0.07,0.046,0.146,0.08,0.22,0.116c0.034,0.017,0.066,0.038,0.102,0.053c0.083,0.034,0.17,0.056,0.257,0.077     c0.029,0.007,0.056,0.02,0.085,0.024c0.116,0.022,0.234,0.034,0.353,0.034s0.236-0.012,0.353-0.034     c0.011-0.002,0.021-0.007,0.031-0.009c0.105-0.022,0.21-0.052,0.311-0.093c0.019-0.008,0.035-0.02,0.053-0.027     c0.091-0.041,0.181-0.085,0.266-0.141c0.099-0.065,0.192-0.143,0.281-0.229c0-0.001,0.001-0.001,0.002-0.002     c0.003-0.003,0.008-0.006,0.011-0.009l5.312-5.339l14.288,14.288H29.187z M73.511,68.729l-2.986,2.241l-0.339,0.393     c-2.929,2.852-2.99,7.538-0.14,10.469c0.984,1.011,2.19,1.673,3.465,1.998v4.874L59.216,74.407l14.295-14.368V68.729z      M49.794,33.172c6.865,0,12.426-5.355,12.6-12.352h7.104c0.986,0,1.518-0.243,1.639-0.578c0.126-0.35-0.884-0.928-1.771-1.351     l-6.994-3.375v-0.046h-25.11v6.489C37.876,28.292,43.279,33.172,49.794,33.172z"></path></g></g></g></svg>