<svg xmlns="http://www.w3.org/2000/svg" xmlns:xlink="http://www.w3.org/1999/xlink" version="1.1" x="0px" y="0px" viewBox="0 0 100 100" enable-background="new 0 0 100 100" xml:space="preserve"><g><polygon points="33.444,65.932 33.411,65.932 33.446,65.958  "></polygon><path d="M80.406,65.932l-5.444-16.285c-3.188-9.567-10.628-16.292-20.415-16.292H50h-4.548c-9.787,0-17.226,6.725-20.415,16.292   l-5.444,16.285c-3.337,8.099,2.885,13.377,2.885,13.377c0.609,0.594,1.309,1.034,2.048,1.344c0.269,0.112,0.601,0.204,0.927,0.278   v2.699L50.076,95l24.472-11.372v-2.697c0.326-0.074,0.657-0.166,0.926-0.278c0.739-0.31,1.438-0.75,2.048-1.344   C77.521,79.309,83.743,74.03,80.406,65.932z M50.073,43.065l6.811,3.063l-18.305,9.095l-7.73-3.568L50.073,43.065z M48.496,90.794   L28.611,81.61v-0.633c1.21-0.268,2.364-0.84,3.294-1.796c2.568-2.639,2.511-6.859-0.127-9.427l-0.305-0.354l-2.862-2.147V54.1   l19.885,9.182V90.794z M50.073,60.531l-7.817-3.609l18.353-9.118l8.564,3.852L50.073,60.531z M51.652,90.787V63.278l17.988-8.359   l1.75-0.812v13.146l-2.864,2.149l-0.304,0.354c-2.638,2.567-2.695,6.788-0.127,9.427c0.931,0.956,2.085,1.529,3.295,1.796v0.635   L51.652,90.787z"></path><polygon points="39.255,82.625 40.948,83.412 40.948,77.556 41.866,77.983 40.089,74.454 38.343,76.342 39.255,76.767  "></polygon><polygon points="46.547,86.024 45.5,85.536 45.5,79.679 46.416,80.106 44.639,76.576 42.894,78.463 43.805,78.889 43.805,84.746    38.213,82.14 38.213,83.051 46.547,86.936  "></polygon><path d="M63.978,4.439c0.337-0.84-0.123-1.437-1.021-1.324L39.887,5.998c-0.898,0.112-1.634,0.945-1.634,1.85v3.292h23.045   L63.978,4.439z"></path><path d="M49.777,29.016c6.303,0,11.42-5.031,11.581-11.293h6.522c0.905,0,1.394-0.271,1.504-0.579   c0.116-0.321-0.811-0.897-1.628-1.286l-6.459-3.072H38.253v5.891C38.877,24.489,43.797,29.016,49.777,29.016z"></path></g></svg>