<svg xmlns:dc="http://purl.org/dc/elements/1.1/" xmlns:cc="http://creativecommons.org/ns#" xmlns:rdf="http://www.w3.org/1999/02/22-rdf-syntax-ns#" xmlns:svg="http://www.w3.org/2000/svg" xmlns="http://www.w3.org/2000/svg" xmlns:sodipodi="http://sodipodi.sourceforge.net/DTD/sodipodi-0.dtd" xmlns:inkscape="http://www.inkscape.org/namespaces/inkscape" version="1.1" x="0px" y="0px" viewBox="0 0 100 100"><g transform="translate(0,-952.36218)"><path d="m 98,1002.3309 c 0,5.4039 -3.9633,9.948 -9.1262,10.8438 -0.8834,5.1769 -5.43,9.1875 -10.8452,9.1875 -5.4152,0 -9.9618,-4.0106 -10.8452,-9.1875 -4.1867,-0.7099 -7.5949,-3.8203 -8.7512,-7.8438 l -2.5628,0 c -0.3975,1.1814 -1.5975,2.0438 -2.8442,2.0438 -1.2466,0 -2.4467,-0.8624 -2.8441,-2.0438 l -23.1465,0 0,3 -6.0008,0 0,-1 -2.0003,0 0,3 -6.0008,0 0,-3 -2.0002,0 0,4 -6.0009,0 0,-6 -3.0316,0 0,-5.99999 48.1811,0 c 0.3974,-1.1814 1.5975,-2.0438 2.8441,-2.0438 1.2467,0 2.4467,0.8624 2.8442,2.0438 l 2.5628,0 c 1.1563,-4.0235 4.5645,-7.1339 8.7512,-7.8437 0.8959,-5.1622 5.4405,-9.125 10.8452,-9.125 5.4046,0 9.9493,3.9628 10.8452,9.125 5.1629,0.8958 9.1262,5.4398 9.1262,10.84369 z m -6.0008,0 c 0,-2.37679 -1.5872,-4.31209 -3.7818,-4.84369 -0.8066,1.964 -2.1901,3.63449 -3.9067,4.84369 1.7129,1.2024 3.0646,2.8899 3.8755,4.8438 2.2098,-0.5212 3.813,-2.4563 3.813,-4.8438 z m -9.1262,10.1875 c -1.9701,-0.8089 -3.6655,-2.1826 -4.8757,-3.9062 -1.2068,1.7138 -2.8847,3.0674 -4.8444,3.875 0.5075,2.2294 2.474,3.875 4.8757,3.875 2.3882,0 4.3235,-1.6336 4.8444,-3.8438 z m 0,-20.37499 c -0.5311,-2.1952 -2.4667,-3.7812 -4.8444,-3.7812 -2.3878,0 -4.3232,1.6029 -4.8444,3.8125 1.9483,0.8089 3.6117,2.1688 4.8131,3.875 1.2102,-1.7237 2.9056,-3.0974 4.8757,-3.9063 z m -11.1578,10.18749 c -1.7245,-1.2148 -3.0703,-2.89939 -3.8755,-4.87499 -2.2168,0.5164 -3.8442,2.4827 -3.8442,4.87499 0,2.4027 1.6438,4.369 3.8755,4.875 0.8095,-1.9655 2.1233,-3.6671 3.8442,-4.875 z" style="text-indent:0;text-transform:none;direction:ltr;block-progression:tb;baseline-shift:baseline;color:#000000;enable-background:accumulate;" fill="#000000" fill-opacity="1" fill-rule="nonzero" stroke="none" marker="none" visibility="visible" display="inline" overflow="visible"></path></g></svg>