<svg xmlns="http://www.w3.org/2000/svg" xmlns:xlink="http://www.w3.org/1999/xlink" version="1.0" x="0px" y="0px" viewBox="0 0 100 100" enable-background="new 0 0 100 100" xml:space="preserve"><path d="M69.094,54.512c-1.302-1.299-3.008-1.951-4.713-1.951h-7.73c-0.254-3.226-2.064-6.193-4.944-7.859V19.996  c0-5.521-4.479-9.996-9.996-9.996v31.27L19.599,19.159c-3.905,3.901-3.905,10.234,0,14.138l17.485,17.489  c-0.858,3.25-0.02,6.586,2.058,9.018l-5.481,5.481c-1.207,1.208-1.953,2.874-1.953,4.717V90h6.666V69.995l6.793-6.79  c3.694,0.576,7.37-1.006,9.557-3.98h9.658l14.236,14.24l4.714-4.713L69.094,54.512z M46.706,56.666c-1.843,0-3.333-1.49-3.333-3.333  c0-1.839,1.49-3.332,3.333-3.332c1.842,0,3.33,1.491,3.33,3.332C50.036,55.176,48.548,56.666,46.706,56.666z"></path></svg>