<svg xmlns="http://www.w3.org/2000/svg" xmlns:xlink="http://www.w3.org/1999/xlink" version="1.1" x="0px" y="0px" viewBox="0 0 100 100" enable-background="new 0 0 100 100" xml:space="preserve"><g><path fill-rule="evenodd" clip-rule="evenodd" d="M60.066,92.866c0.204,0.348,1.307,0.59,2.577,0.72   c1.686,0.171,3.562,0.096,4.219-0.192c0.882-0.386,1.434-2.974,1.895-5.132c0.075-0.354,0.148-0.695,0.206-0.96   c-0.074,0.029-0.153,0.058-0.237,0.085c-2.702,0.911-5.203,0.229-7.699-0.46c-0.043,0.067-0.099,0.177-0.16,0.313   c-0.141,0.301-0.275,0.698-0.397,1.145C60.013,90.039,59.722,92.278,60.066,92.866L60.066,92.866z M69.525,6.37   c8.604,0.45,11.706,8.125,13.327,15.471c1.451,6.571,1.629,17.954-0.071,30.234c-1.209,8.723-2.582,36.19-13.662,40.525   c-0.123,0.049-0.248,0.093-0.379,0.135c0.52-1.192,0.86-2.778,1.164-4.204c1.068-0.668,2.174-1.638,3.229-2.93   c1.779-2.176,3.445-5.279,4.578-9.412c1.256-4.585,1.954-8.365,2.354-11.514c0.403-3.155,0.506-5.655,0.577-7.697   c0.097-2.721,0.139-5.218,0.358-7.941c0.721-8.967-0.3-18.016-9.872-18.99c-3.018-0.307-5.382,0.644-6.822,2.497   c-1.846,2.377-2.325,6.035-2.394,8.19c-0.315,9.849-5.763,17.285-7.143,27.294c-0.526,3.825-0.573,7.641-0.09,10.865l-0.001,0.001   c0.46,3.059,1.407,5.609,2.886,7.17c0.634,0.668,1.253,1.214,1.866,1.659c-0.035,0.114-0.069,0.23-0.103,0.351   c-0.253,0.924-0.447,2.036-0.518,3.028l-0.097-0.071c-5.28-3.932-5.915-12.065-5.821-18.487c0.071-4.781,1.197-10.629,1.839-13.481   c1.051-4.657,1.909-9.493,1.744-16.108c-0.058-2.38-0.456-4.958-0.793-7.672c-0.914-7.386-0.539-12.248,2.666-19.237   C60.877,10.537,64.781,5.804,69.525,6.37L69.525,6.37z M61.723,49.55c4.329-0.437,13.003-0.285,17.71,3.055   c0.059,1.046,0.098,2.503,0.033,4.326c-0.07,2.029-0.173,4.512-0.566,7.598c-0.394,3.092-1.083,6.814-2.325,11.35   c-1.084,3.959-2.667,6.916-4.353,8.976c-0.658,0.807-1.329,1.472-1.986,2.003c0.036-0.562-0.15-0.819-0.58-0.916   c-0.284-0.064-0.539,0.036-0.887,0.173c-0.121,0.049-0.261,0.104-0.416,0.155c-2.377,0.8-4.716,0.155-7.051-0.489l-0.157-0.042   c-0.226-0.063-0.444-0.029-0.649,0.092c-0.229,0.135-0.438,0.397-0.62,0.751c-0.476-0.368-0.961-0.807-1.456-1.331   c-1.3-1.37-2.144-3.697-2.569-6.53h-0.004c-0.467-3.111-0.42-6.812,0.093-10.532c0.849-6.157,3.537-12.949,5.162-17.056   C61.336,50.538,61.549,49.999,61.723,49.55z"></path><path fill-rule="evenodd" clip-rule="evenodd" d="M39.935,92.866c-0.204,0.348-1.306,0.59-2.578,0.72   c-1.684,0.171-3.56,0.096-4.218-0.192c-0.88-0.386-1.435-2.974-1.895-5.132c-0.075-0.354-0.148-0.695-0.207-0.96   c0.074,0.029,0.154,0.058,0.237,0.085c2.704,0.911,5.205,0.229,7.7-0.46c0.043,0.067,0.099,0.177,0.162,0.313   c0.138,0.301,0.274,0.698,0.397,1.145C39.989,90.039,40.279,92.278,39.935,92.866L39.935,92.866z M30.476,6.37   c-8.604,0.45-11.705,8.125-13.328,15.471c-1.45,6.571-1.629,17.954,0.072,30.234c1.21,8.723,2.582,36.19,13.662,40.525   c0.123,0.049,0.25,0.093,0.378,0.135c-0.519-1.192-0.859-2.778-1.164-4.204c-1.066-0.668-2.172-1.638-3.229-2.93   c-1.779-2.176-3.445-5.279-4.578-9.412c-1.257-4.585-1.954-8.365-2.355-11.514c-0.401-3.155-0.505-5.655-0.577-7.697   c-0.096-2.721-0.138-5.218-0.357-7.941c-0.721-8.967,0.3-18.016,9.872-18.99c3.017-0.307,5.383,0.644,6.821,2.497   c1.847,2.377,2.325,6.035,2.395,8.19c0.316,9.849,5.764,17.285,7.143,27.294c0.526,3.825,0.574,7.641,0.089,10.865l0.003,0.001   c-0.461,3.059-1.407,5.609-2.887,7.17c-0.634,0.668-1.252,1.214-1.865,1.659c0.034,0.114,0.068,0.23,0.102,0.351   c0.254,0.924,0.447,2.036,0.518,3.028l0.098-0.071c5.28-3.932,5.914-12.065,5.819-18.487c-0.069-4.781-1.194-10.629-1.838-13.481   c-1.05-4.657-1.909-9.493-1.745-16.108c0.059-2.38,0.458-4.958,0.794-7.672c0.913-7.386,0.539-12.248-2.666-19.237   C39.124,10.537,35.22,5.804,30.476,6.37L30.476,6.37z M38.278,49.55c-4.329-0.437-13.003-0.285-17.71,3.055   c-0.061,1.046-0.098,2.503-0.034,4.326c0.072,2.029,0.175,4.512,0.567,7.598c0.394,3.092,1.082,6.814,2.324,11.35   c1.086,3.959,2.668,6.916,4.354,8.976c0.659,0.807,1.33,1.472,1.988,2.003c-0.038-0.562,0.149-0.819,0.579-0.916   c0.283-0.064,0.537,0.036,0.885,0.173c0.123,0.049,0.262,0.104,0.417,0.155c2.377,0.8,4.715,0.155,7.051-0.489l0.157-0.042   c0.227-0.063,0.443-0.029,0.649,0.092c0.229,0.135,0.438,0.397,0.62,0.751c0.477-0.368,0.96-0.807,1.456-1.331   c1.3-1.37,2.146-3.697,2.57-6.53h0.002c0.469-3.111,0.421-6.812-0.091-10.532c-0.849-6.157-3.538-12.949-5.163-17.056   C38.666,50.538,38.453,49.999,38.278,49.55z"></path></g></svg>