<svg xmlns:dc="http://purl.org/dc/elements/1.1/" xmlns:cc="http://creativecommons.org/ns#" xmlns:rdf="http://www.w3.org/1999/02/22-rdf-syntax-ns#" xmlns:svg="http://www.w3.org/2000/svg" xmlns="http://www.w3.org/2000/svg" xmlns:sodipodi="http://sodipodi.sourceforge.net/DTD/sodipodi-0.dtd" xmlns:inkscape="http://www.inkscape.org/namespaces/inkscape" version="1.1" x="0px" y="0px" viewBox="0 0 100 100"><g transform="translate(0,-952.36218)"><g transform="matrix(1.0555557,0,0,1.0555557,-168.22266,489.81068)"><path d="m 206.76632,497.14993 c -16.67078,0 -37.21391,-3.95712 -44.9896,-11.42349 l 0,14.7094 c 0,0.0463 -0.007,0.089 -0.007,0.13799 -0.001,6.83723 24.28431,15.06525 44.98797,15.06525 20.71509,0 45.00102,-8.22802 45.00102,-15.06525 l 0.011,0 0,-14.85102 c -7.67525,6.66448 -20.2178,11.42712 -45.00427,11.42712 z"></path><g style="" transform="matrix(0.28382022,0,0,0.28382022,98.163678,375.00978)" fill="#000000"><path style="" d="m 320.46875,295.8125 c -72.9464,0 -150.53125,17.00374 -150.53125,41.09375 0,0.17921 0.0312,0.32074 0.0312,0.5 l 0,5.875 c 0,0.17273 -0.0312,0.35221 -0.0312,0.53125 0,0.17274 0.0312,0.37384 0.0312,0.5625 l 0,60.84375 c 0.22399,0.53418 0.59375,1.02758 0.59375,1.59375 0,10.37363 58.41294,37.4375 149.9375,37.4375 91.53609,0 149.9375,-27.06387 149.9375,-37.4375 0,-0.60776 0.38396,-1.15257 0.625,-1.71875 l 0,-68.1875 -0.0625,0 C 471.00009,312.81624 393.45533,295.8125 320.4687,295.8125 z m 0,39.78125 c 3.37117,0 6.66754,0.0399 9.875,0.0937 1.74302,0.84959 2.8125,1.89838 2.8125,2.9375 0,2.28776 -5.1188,5.40625 -11.4375,5.40625 -6.3162,0 -11.4375,-3.11849 -11.4375,-5.40625 0,-1.05146 1.09384,-2.11408 2.875,-2.96875 2.4063,-0.0298 4.81615,-0.0625 7.3125,-0.0625 z m -14.875,0.21875 c 1.59342,0.82732 2.5625,1.82402 2.5625,2.8125 0,2.28777 -5.1188,5.40625 -11.4375,5.40625 -6.3162,0 -11.4375,-3.11848 -11.4375,-5.40625 0,-0.6691 0.44142,-1.34351 1.21875,-1.96875 6.00582,-0.39164 12.36456,-0.66882 19.09375,-0.84375 z m 33.46875,0.0937 c 6.93121,0.22862 13.45306,0.57103 19.59375,1.03125 0.0113,8e-4 0.0199,0.0304 0.0312,0.0312 0.55772,0.53745 0.875,1.09498 0.875,1.65625 0,2.28777 -5.1189,5.40625 -11.4375,5.40625 -6.3162,0 -11.4375,-3.11848 -11.4375,-5.40625 0,-0.94733 0.89856,-1.9116 2.375,-2.71875 z m -57.8125,1.125 c 0.51692,0.51861 0.8125,1.05449 0.8125,1.59375 0,2.28776 -5.1188,5.40625 -11.4375,5.40625 -5.66958,0 -10.37695,-2.51842 -11.28125,-4.6875 6.68149,-0.92472 13.97875,-1.69844 21.90625,-2.3125 z m 81.6875,0.28125 c 7.9626,0.68046 15.24332,1.53682 21.90625,2.53125 -1.35956,2.0351 -5.76547,4.1875 -11,4.1875 -6.3162,0 -11.4375,-3.11848 -11.4375,-5.40625 0,-0.44012 0.18038,-0.88207 0.53125,-1.3125 z m -109.03125,2.84375 c -1.57189,1.94023 -5.8027,3.875 -10.78125,3.875 -2.01213,0 -3.88858,-0.30722 -5.53125,-0.8125 4.96011,-1.10835 10.36807,-2.13111 16.3125,-3.0625 z M 389.5,340.5625 c 5.41218,0.8965 10.40593,1.86242 14.96875,2.90625 -1.3975,0.34243 -2.94508,0.5625 -4.5625,0.5625 -4.63188,0 -8.60801,-1.6721 -10.40625,-3.46875 z m -146.375,7.03125 c 6.31866,0 11.4375,2.39839 11.4375,4.6875 0,2.28776 -5.11884,5.40625 -11.4375,5.40625 -6.31617,0 -11.4375,-3.11849 -11.4375,-5.40625 0,-2.28866 5.12133,-4.6875 11.4375,-4.6875 z m 27.5,0 c 6.3187,0 11.4375,2.39839 11.4375,4.6875 0,2.28776 -5.1188,5.40625 -11.4375,5.40625 -6.3162,0 -11.4375,-3.11849 -11.4375,-5.40625 0,-2.28866 5.1213,-4.6875 11.4375,-4.6875 z m 26.09375,0 c 6.3187,0 11.4375,2.39839 11.4375,4.6875 0,2.28776 -5.1188,5.40625 -11.4375,5.40625 -6.3162,0 -11.4375,-3.11849 -11.4375,-5.40625 0,-2.28866 5.1213,-4.6875 11.4375,-4.6875 z m 25,0 c 6.3187,0 11.4375,2.39839 11.4375,4.6875 0,2.28776 -5.1188,5.40625 -11.4375,5.40625 -6.3162,0 -11.4375,-3.11849 -11.4375,-5.40625 0,-2.28866 5.1213,-4.6875 11.4375,-4.6875 z m 26.40625,0 c 6.3186,0 11.4375,2.39839 11.4375,4.6875 0,2.28776 -5.1189,5.40625 -11.4375,5.40625 -6.3162,0 -11.4375,-3.11849 -11.4375,-5.40625 0,-2.28866 5.1213,-4.6875 11.4375,-4.6875 z m 25.71875,0 c 6.3186,0 11.4375,2.39839 11.4375,4.6875 0,2.28776 -5.1189,5.40625 -11.4375,5.40625 -6.3162,0 -11.4375,-3.11849 -11.4375,-5.40625 0,-2.28866 5.1213,-4.6875 11.4375,-4.6875 z m 26.0625,0 c 6.3187,0 11.46875,2.39839 11.46875,4.6875 0,2.28776 -5.15005,5.40625 -11.46875,5.40625 -6.3162,0 -11.4375,-3.11849 -11.4375,-5.40625 0,-2.28866 5.1213,-4.6875 11.4375,-4.6875 z m -179.125,0.15625 c 5.03674,0.54889 8.78125,2.57349 8.78125,4.53125 0,2.28776 -5.11884,5.40625 -11.4375,5.40625 -5.6106,0 -10.27715,-2.47171 -11.25,-4.625 3.85084,-1.75509 8.45542,-3.5553 13.90625,-5.3125 z m 199.90625,0.15625 c 5.8894,1.9216 10.74519,3.91287 14.75,5.8125 -1.50637,1.97263 -5.8123,3.96875 -10.875,3.96875 -6.3162,0 -11.4375,-3.11849 -11.4375,-5.40625 0,-1.79469 3.15744,-3.65465 7.5625,-4.375 z m -228.125,13.53125 c 0.18959,-0.004 0.37059,0 0.5625,0 6.31866,0 11.4375,2.39839 11.4375,4.6875 0,2.05201 -4.12284,4.77364 -9.53125,5.3125 -4.66136,-3.73428 -6.34375,-6.3125 -6.34375,-6.3125 0,0 1.04165,-1.45139 3.875,-3.6875 z m 25.5625,0 c 6.31866,0 11.4375,2.39839 11.4375,4.6875 0,2.28776 -5.11884,5.40625 -11.4375,5.40625 -6.31617,0 -11.4375,-3.11849 -11.4375,-5.40625 0,-2.28866 5.12133,-4.6875 11.4375,-4.6875 z m 25,0 c 6.31866,0 11.4375,2.39839 11.4375,4.6875 0,2.28776 -5.11884,5.40625 -11.4375,5.40625 -6.31617,0 -11.4375,-3.11849 -11.4375,-5.40625 0,-2.28866 5.12133,-4.6875 11.4375,-4.6875 z m 27.5,0 c 6.3187,0 11.4375,2.39839 11.4375,4.6875 0,2.28776 -5.1188,5.40625 -11.4375,5.40625 -6.3162,0 -11.4375,-3.11849 -11.4375,-5.40625 0,-2.28866 5.1213,-4.6875 11.4375,-4.6875 z m 26.09375,0 c 6.3187,0 11.4375,2.39839 11.4375,4.6875 0,2.28776 -5.1188,5.40625 -11.4375,5.40625 -6.3162,0 -11.4375,-3.11849 -11.4375,-5.40625 0,-2.28866 5.1213,-4.6875 11.4375,-4.6875 z m 25,0 c 6.3187,0 11.4375,2.39839 11.4375,4.6875 0,2.28776 -5.1188,5.40625 -11.4375,5.40625 -6.3162,0 -11.4375,-3.11849 -11.4375,-5.40625 0,-2.28866 5.1213,-4.6875 11.4375,-4.6875 z m 26.40625,0 c 6.3186,0 11.4375,2.39839 11.4375,4.6875 0,2.28776 -5.1189,5.40625 -11.4375,5.40625 -6.3162,0 -11.4375,-3.11849 -11.4375,-5.40625 0,-2.28866 5.1213,-4.6875 11.4375,-4.6875 z m 25.71875,0 c 6.3186,0 11.4375,2.39839 11.4375,4.6875 0,2.28776 -5.1189,5.40625 -11.4375,5.40625 -6.3162,0 -11.4375,-3.11849 -11.4375,-5.40625 0,-2.28866 5.1213,-4.6875 11.4375,-4.6875 z m 26.0625,0 c 6.3187,0 11.46875,2.39839 11.46875,4.6875 0,2.28776 -5.15005,5.40625 -11.46875,5.40625 -6.3162,0 -11.4375,-3.11849 -11.4375,-5.40625 0,-2.28866 5.1213,-4.6875 11.4375,-4.6875 z m 24.65625,0 c 6.3186,0 11.4375,2.39839 11.4375,4.6875 0,2.28776 -5.1189,5.40625 -11.4375,5.40625 -6.3162,0 -11.4375,-3.11849 -11.4375,-5.40625 0,-2.28866 5.1213,-4.6875 11.4375,-4.6875 z m 23.8125,0 c 2.83422,2.23611 3.90625,3.6875 3.90625,3.6875 0,0 -1.67213,2.54622 -6.28125,6.25 -5.11622,-0.66867 -8.9375,-3.2727 -8.9375,-5.25 0,-2.27321 5.05525,-4.6554 11.3125,-4.6875 z m -230.25,14.1875 c 6.31866,0 11.4375,2.42964 11.4375,4.71875 0,1.89588 -3.5121,4.34303 -8.3125,5.125 -5.56146,-2.06655 -10.23267,-4.21371 -14.15625,-6.28125 1.33802,-1.884 5.77462,-3.5625 11.03125,-3.5625 z m 25,0 c 6.31866,0 11.4375,2.42964 11.4375,4.71875 0,2.28776 -5.11884,5.375 -11.4375,5.375 -6.31617,0 -11.4375,-3.08724 -11.4375,-5.375 0,-2.28866 5.12133,-4.71875 11.4375,-4.71875 z m 27.5,0 c 6.3187,0 11.4375,2.42964 11.4375,4.71875 0,2.28776 -5.1188,5.375 -11.4375,5.375 -6.3162,0 -11.4375,-3.08724 -11.4375,-5.375 0,-2.28866 5.1213,-4.71875 11.4375,-4.71875 z m 26.09375,0 c 6.3187,0 11.4375,2.42964 11.4375,4.71875 0,2.28776 -5.1188,5.375 -11.4375,5.375 -6.3162,0 -11.4375,-3.08724 -11.4375,-5.375 0,-2.28866 5.1213,-4.71875 11.4375,-4.71875 z m 25,0 c 6.3187,0 11.4375,2.42964 11.4375,4.71875 0,2.28776 -5.1188,5.375 -11.4375,5.375 -6.3162,0 -11.4375,-3.08724 -11.4375,-5.375 0,-2.28866 5.1213,-4.71875 11.4375,-4.71875 z m 26.40625,0 c 6.3186,0 11.4375,2.42964 11.4375,4.71875 0,2.28776 -5.1189,5.375 -11.4375,5.375 -6.3162,0 -11.4375,-3.08724 -11.4375,-5.375 0,-2.28866 5.1213,-4.71875 11.4375,-4.71875 z m 25.71875,0 c 6.3186,0 11.4375,2.42964 11.4375,4.71875 0,2.28776 -5.1189,5.375 -11.4375,5.375 -6.3162,0 -11.4375,-3.08724 -11.4375,-5.375 0,-2.28866 5.1213,-4.71875 11.4375,-4.71875 z m 26.0625,0 c 6.3187,0 11.46875,2.42964 11.46875,4.71875 0,2.28776 -5.15005,5.375 -11.46875,5.375 -6.3162,0 -11.4375,-3.08724 -11.4375,-5.375 0,-2.28866 5.1213,-4.71875 11.4375,-4.71875 z m 24.65625,0 c 4.65476,0 8.65172,1.32794 10.4375,2.9375 -4.00884,2.18176 -8.84889,4.45618 -14.6875,6.65625 -4.20357,-0.95353 -7.1875,-3.13342 -7.1875,-4.875 0,-2.28866 5.1213,-4.71875 11.4375,-4.71875 z M 243.125,390 c 5.88979,0 10.71288,2.10951 11.34375,4.25 -6.05769,-1.09516 -11.57891,-2.34735 -16.625,-3.65625 C 239.42807,390.21958 241.21264,390 243.125,390 z m 27.5,0 c 6.3187,0 11.4375,2.42964 11.4375,4.71875 0,0.92316 -0.8405,1.97811 -2.25,2.90625 -7.42522,-0.7031 -14.27893,-1.56909 -20.59375,-2.59375 -0.0198,-0.10433 -0.0312,-0.21098 -0.0312,-0.3125 0,-2.28866 5.1213,-4.71875 11.4375,-4.71875 z m 26.09375,0 c 6.3187,0 11.4375,2.42964 11.4375,4.71875 0,1.48538 -2.16318,3.31063 -5.40625,4.40625 -4.82272,-0.17683 -9.43491,-0.43895 -13.875,-0.75 -2.21177,-1.07487 -3.59375,-2.46837 -3.59375,-3.65625 0,-2.28865 5.1213,-4.71875 11.4375,-4.71875 z m 25,0 c 6.3187,0 11.4375,2.42964 11.4375,4.71875 0,1.63067 -2.62418,3.65197 -6.40625,4.6875 -2.06634,0.0252 -4.14926,0.0312 -6.28125,0.0312 -1.24702,0 -2.46301,0.009 -3.6875,0 -3.83344,-1.02718 -6.5,-3.07442 -6.5,-4.71875 0,-2.28865 5.1213,-4.71875 11.4375,-4.71875 z m 26.40625,0 c 6.3186,0 11.4375,2.42964 11.4375,4.71875 0,1.0687 -1.13419,2.29108 -2.96875,3.3125 -4.74533,0.38896 -9.73412,0.70558 -14.9375,0.9375 -3.00453,-1.10666 -4.96875,-2.83073 -4.96875,-4.25 0,-2.28865 5.1213,-4.71875 11.4375,-4.71875 z m 25.71875,0 c 6.06586,0 11.01914,2.23311 11.40625,4.4375 -6.41059,1.1279 -13.38378,2.08488 -21,2.875 -1.14715,-0.85043 -1.84375,-1.76902 -1.84375,-2.59375 0,-2.28865 5.1213,-4.71875 11.4375,-4.71875 z m 26.0625,0 c 1.45127,0 2.84527,0.11855 4.125,0.34375 -4.66633,1.23434 -9.76734,2.4144 -15.3125,3.46875 1.10408,-1.984 5.69556,-3.8125 11.1875,-3.8125 z" transform="translate(62.338063,-20.151821)" fill="#000000"></path></g></g></g></svg>