<svg xmlns:dc="http://purl.org/dc/elements/1.1/" xmlns:cc="http://creativecommons.org/ns#" xmlns:rdf="http://www.w3.org/1999/02/22-rdf-syntax-ns#" xmlns:svg="http://www.w3.org/2000/svg" xmlns="http://www.w3.org/2000/svg" xmlns:sodipodi="http://sodipodi.sourceforge.net/DTD/sodipodi-0.dtd" xmlns:inkscape="http://www.inkscape.org/namespaces/inkscape" viewBox="0 0 32 32.000001" version="1.1" x="0px" y="0px"><g transform="translate(0,-1020.3622)"><path style="color:#000000;font-style:normal;font-variant:normal;font-weight:normal;font-stretch:normal;font-size:medium;line-height:normal;font-family:sans-serif;text-indent:0;text-align:start;text-decoration:none;text-decoration-line:none;text-decoration-style:solid;text-decoration-color:#000000;letter-spacing:normal;word-spacing:normal;text-transform:none;direction:ltr;writing-mode:lr-tb;baseline-shift:baseline;text-anchor:start;white-space:normal;clip-rule:nonzero;display:inline;overflow:visible;visibility:visible;opacity:1;isolation:auto;mix-blend-mode:normal;color-interpolation:sRGB;color-interpolation-filters:linearRGB;solid-color:#000000;solid-opacity:1;fill:#000000;fill-opacity:1;fill-rule:nonzero;stroke:none;stroke-width:0.99999994;stroke-linecap:butt;stroke-linejoin:round;stroke-miterlimit:4;stroke-dasharray:none;stroke-dashoffset:0;stroke-opacity:1;color-rendering:auto;image-rendering:auto;shape-rendering:auto;text-rendering:auto;enable-background:accumulate" d="m 15.2503,1026.3625 0,7.7505 a 0.50004997,0.50008217 0 0 1 -0.1601,0.3672 l -8.8399,8.1548 c -1.2206,1.4515 -1.579,3.4399 -0.9355,5.225 0.6451,1.7892 2.1947,3.0958 4.0664,3.4299 1.849,0.33 3.6942,-0.5014 5.1289,-1.8478 l 11.4902,-10.782 0,-12.2976 z m 9.7481,7.1118 c -0.014,1.5915 -0.01,3.1839 -0.01,4.7757 l 0,0 -3.4199,3.1818 c -1.1084,-1.4361 -1.3409,-3.3244 -0.6289,-4.9749 0.7107,-1.6479 2.2927,-2.7809 4.0547,-2.9826 z"></path><path style="color:#000000;font-style:normal;font-variant:normal;font-weight:normal;font-stretch:normal;font-size:medium;line-height:normal;font-family:sans-serif;text-indent:0;text-align:start;text-decoration:none;text-decoration-line:none;text-decoration-style:solid;text-decoration-color:#000000;letter-spacing:normal;word-spacing:normal;text-transform:none;direction:ltr;writing-mode:lr-tb;baseline-shift:baseline;text-anchor:start;white-space:normal;clip-rule:nonzero;display:inline;overflow:visible;visibility:visible;opacity:1;isolation:auto;mix-blend-mode:normal;color-interpolation:sRGB;color-interpolation-filters:linearRGB;solid-color:#000000;solid-opacity:1;fill:#000000;fill-opacity:1;fill-rule:nonzero;stroke:none;stroke-width:0.99999994;stroke-linecap:butt;stroke-linejoin:round;stroke-miterlimit:4;stroke-dasharray:none;stroke-dashoffset:0;stroke-opacity:1;color-rendering:auto;image-rendering:auto;shape-rendering:auto;text-rendering:auto;enable-background:accumulate" d="m 14.5003,1021.3622 c -0.2856,0 -0.5,0.2143 -0.5,0.5 l 0,3.0002 c 0,0.2856 0.2144,0.5 0.5,0.5 l 12.25,0 c 0.2857,0 0.5,-0.2144 0.5,-0.5 l 0,-3.0002 c 0,-0.2857 -0.2143,-0.5 -0.5,-0.5 z m 1.6172,0.9961 a 0.50005,0.5000822 0 0 1 0.5078,0.5059 l 0,0.9864 a 0.50005,0.5000822 0 1 1 -1,0 l 0,-0.9864 a 0.50005,0.5000822 0 0 1 0.4922,-0.5059 z m 2.25,0 a 0.50005,0.5000822 0 0 1 0.5078,0.5059 l 0,0.9864 a 0.50005,0.5000822 0 1 1 -1,0 l 0,-0.9864 a 0.50005,0.5000822 0 0 1 0.4922,-0.5059 z m 2.25,0.01 a 0.50005,0.5000822 0 0 1 0.5078,0.5079 l 0,0.9864 a 0.50005,0.5000822 0 1 1 -1,0 l 0,-0.9864 a 0.50005,0.5000822 0 0 1 0.4922,-0.5079 z m 2.25,0 a 0.50005,0.5000822 0 0 1 0.5078,0.5079 l 0,0.9864 a 0.50005,0.5000822 0 1 1 -1,0 l 0,-0.9864 a 0.50005,0.5000822 0 0 1 0.4922,-0.5079 z m 2.25,0 a 0.50005,0.5000822 0 0 1 0.5078,0.5079 l 0,0.9864 a 0.50005,0.5000822 0 1 1 -1,0 l 0,-0.9864 a 0.50005,0.5000822 0 0 1 0.4922,-0.5079 z"></path></g></svg>