<svg xmlns="http://www.w3.org/2000/svg" xmlns:xlink="http://www.w3.org/1999/xlink" version="1.1" x="0px" y="0px" viewBox="0 0 100 100" enable-background="new 0 0 100 100" xml:space="preserve"><g><path fill="none" d="M47.699,49.575c-0.938,0.735-7.923,13.105,3.651,17.341c11.225,4.109,12.713-10.515,12.381-11.987   C63.498,53.908,49.133,48.448,47.699,49.575z M47.323,53.836c-0.214-0.105-0.141-0.482,0.091-0.511   c1.021-0.125,1.928-0.506,2.878-0.887c0.841-0.338,1.802-0.831,2.728-0.767c0.828,0.057,0.875,1.151,0.129,1.39   c-1.039,0.333-2.188,0.604-3.258,0.839C49.046,54.086,48.129,54.231,47.323,53.836z M57.454,54.442   c-1.014,0.636-2.353,0.862-3.516,1.077c-1.164,0.215-2.406,0.484-3.593,0.389c-0.323-0.026-0.41-0.437-0.135-0.6   c1.033-0.61,2.286-0.788,3.434-1.086c1.139-0.295,2.205-0.77,3.329-1.093C57.788,52.897,58.094,54.041,57.454,54.442z"></path><path fill="none" d="M12.451,36.064c-0.96,0.706-8.723,12.588,2.562,17.537c10.947,4.802,13.567-9.759,13.105-11.191   C27.414,40.238,14.666,34.439,12.451,36.064z M11.586,40.134c-0.328,0.005-0.394-0.446-0.133-0.592   c1.398-0.783,3.248-1.318,4.831-1.515c0.798-0.1,1.097,1.069,0.281,1.24c-0.916,0.192-1.843,0.329-2.76,0.523   C13.074,39.945,12.336,40.123,11.586,40.134z M19.495,40.806c-0.923,0.36-1.924,0.519-2.88,0.778   c-1.016,0.274-2.028,0.651-3.071,0.8c-0.32,0.046-0.647-0.389-0.323-0.622c0.89-0.64,1.93-1.01,2.952-1.386   c0.911-0.335,1.884-0.737,2.85-0.859C19.744,39.427,20.281,40.5,19.495,40.806z"></path><path d="M94.51,55.361c-1.225-5.518-25.763-2.073-25.763-2.073l-0.437-0.054c0.093,0.79-0.018,2.828-0.539,5.269   c0.521-2.44,0.631-4.477,0.538-5.268c-0.007-0.07-0.017-0.133-0.029-0.182c-0.336-1.484-21.156-9.392-23.232-7.762   c-0.127,0.098-0.332,0.351-0.581,0.72c-1.273-1.075-5.801-4.441-11.713-3.855c0.06-0.629,0.064-1.102,0.02-1.338   c-0.183-0.949-3.022-2.655-6.644-4.351c0,0,9.987-1.281,13.33-1.085c3.911,0.23,2.585,5.489,5.861,5.086   c1.327-0.164,3.691-6.018,1.4-9.549c-3.353-5.176-30.233-0.49-35.687,0.521c-0.619,0.115-0.962,0.182-0.962,0.182   c-1.422,0.979-12.64,18.24,3.714,25.414c10.926,4.79,16.004-3.692,17.973-10.139c0.018-0.059,0.031-0.115,0.049-0.174   c6.155-0.427,9.574,2.472,10.553,3.473c-0.029,0.074-0.059,0.139-0.088,0.214c-2.291,6.056-3.427,15.802,8.064,20.01   c9.027,3.306,13.711-1.753,16.005-7.273c0,0,0-0.001,0-0.001c0.005-0.001,17.836-4.615,21.138-4.067   c3.592,0.596,2.348,6.236,5.628,5.831C94.435,64.748,95.735,60.879,94.51,55.361z M15.013,53.601   c-11.286-4.95-3.523-16.831-2.562-17.537c2.215-1.624,14.964,4.174,15.667,6.347C28.581,43.842,25.96,58.403,15.013,53.601z    M51.35,66.916c-11.574-4.236-4.588-16.606-3.651-17.341c1.434-1.126,15.799,4.333,16.032,5.355   C64.063,56.401,62.574,71.026,51.35,66.916z"></path><path d="M16.565,39.267c0.816-0.171,0.518-1.34-0.281-1.24c-1.583,0.198-3.433,0.732-4.831,1.515   c-0.261,0.146-0.195,0.597,0.133,0.592c0.75-0.011,1.488-0.189,2.22-0.344C14.722,39.596,15.649,39.459,16.565,39.267z"></path><path d="M19.024,39.517c-0.966,0.122-1.939,0.524-2.85,0.859c-1.022,0.376-2.062,0.746-2.952,1.386   c-0.324,0.233,0.003,0.668,0.323,0.622c1.043-0.15,2.056-0.526,3.071-0.8c0.956-0.258,1.957-0.417,2.88-0.778   C20.281,40.5,19.744,39.427,19.024,39.517z"></path><path d="M53.021,51.671c-0.926-0.064-1.887,0.429-2.728,0.767c-0.95,0.381-1.857,0.762-2.878,0.887   c-0.232,0.029-0.305,0.406-0.091,0.511c0.806,0.395,1.723,0.25,2.569,0.065c1.07-0.235,2.219-0.506,3.258-0.839   C53.896,52.822,53.849,51.728,53.021,51.671z"></path><path d="M56.974,53.131c-1.124,0.323-2.19,0.797-3.329,1.093c-1.148,0.297-2.402,0.476-3.434,1.086   c-0.275,0.163-0.189,0.574,0.135,0.6c1.187,0.095,2.429-0.174,3.593-0.389c1.163-0.215,2.501-0.441,3.516-1.077   C58.094,54.041,57.788,52.897,56.974,53.131z"></path></g></svg>