<svg xmlns="http://www.w3.org/2000/svg" xmlns:xlink="http://www.w3.org/1999/xlink" version="1.1" x="0px" y="0px" viewBox="0 0 390 289" style="enable-background:new 0 0 390 289;" xml:space="preserve"><style type="text/css">
	.st0{stroke:#000000;stroke-miterlimit:10;}
	.st1{fill:none;stroke:#000000;stroke-miterlimit:10;}
</style><path class="st0" d="M182,203.4c0,7.6-2.7,14.6-2.7,14.6c-3,7-21.6,51-61.6,51.4c-34.4,0.4-64.2-31.8-64.2-66  c0-42.7,46-72.8,64.2-66c12.5,4.6,14.1,27.2,33.2,31.6c6.5,1.5,8.4-0.7,14,2C177.7,177,182,194.4,182,203.4z"></path><path class="st0" d="M108,171.4L108,171.4c6.1-2.4,9.2-9.4,6.8-15.6L64.4,28.5c-2.4-6.1-9.4-9.2-15.6-6.8l0,0  c-6.1,2.4-9.2,9.4-6.8,15.6l50.3,127.3C94.8,170.7,101.8,173.8,108,171.4z"></path><path class="st0" d="M85.2,188L85.2,188c-6.1,2.5-13.1-0.5-15.6-6.6l-41.7-103c-2.5-6.1,0.5-13.1,6.6-15.6l0,0  c6.1-2.5,13.1,0.5,15.6,6.6l41.7,103C94.3,178.5,91.4,185.6,85.2,188z"></path><path class="st0" d="M74.9,235L74.9,235c-6.1,2.5-13.1-0.5-15.6-6.6l-35.9-88.7c-2.5-6.1,0.5-13.1,6.6-15.6l0,0  c6.1-2.5,13.1,0.5,15.6,6.6l35.9,88.7C84,225.5,81,232.6,74.9,235z"></path><path class="st0" d="M146.1,189.4L146.1,189.4c6.1-2.4,9.2-9.4,6.8-15.6L102.6,46.5c-2.4-6.1-9.4-9.2-15.6-6.8l0,0  c-6.1,2.4-9.2,9.4-6.8,15.6l50.3,127.3C133,188.7,140,191.8,146.1,189.4z"></path><path class="st0" d="M160.6,231l-7.9-3c-6.2-2.3-9.3-9.3-7-15.5c9.2-24.5,18.5-49,27.7-73.5c1.1-2.1,3.9-6.8,9.5-10  c3.2-1.8,6.2-2.5,8.3-2.8c1,0.2,2.1,0.4,3.2,0.8c1.9,0.6,3.5,1.4,4.6,2.2c1.9,2.1,4.4,5.3,5.4,9.8c1.3,5.7-0.3,10.3-1,12  c-9.1,24.3-18.3,48.7-27.4,73C173.7,230.2,166.8,233.3,160.6,231z"></path><path class="st0" d="M264.7,208.9"></path><path class="st0" d="M194.4,220.5"></path><path class="st0" d="M198,203.3c0,7.6,2.7,14.6,2.7,14.6c3,7,21.6,51,61.6,51.4c34.4,0.4,64.2-31.8,64.2-66  c0-42.7-46-72.8-64.2-66c-12.5,4.6-14.1,27.2-33.2,31.6c-6.5,1.5-8.4-0.7-14,2C202.3,176.8,198,194.2,198,203.3z"></path><path class="st0" d="M272,171.2L272,171.2c-6.1-2.4-9.2-9.4-6.8-15.6l50.3-127.3c2.4-6.1,9.4-9.2,15.6-6.8l0,0  c6.1,2.4,9.2,9.4,6.8,15.6l-50.3,127.3C285.1,170.6,278.1,173.6,272,171.2z"></path><path class="st0" d="M294.7,187.9L294.7,187.9c6.1,2.5,13.1-0.5,15.6-6.6l41.7-103c2.5-6.1-0.5-13.1-6.6-15.6l0,0  c-6.1-2.5-13.1,0.5-15.6,6.6l-41.7,103C285.6,178.4,288.6,185.4,294.7,187.9z"></path><path class="st0" d="M305,234.9L305,234.9c6.1,2.5,13.1-0.5,15.6-6.6l31.9-78.6c2.5-6.1-0.5-13.1-6.6-15.6h0  c-6.1-2.5-13.1,0.5-15.6,6.6l-31.9,78.6C295.9,225.4,298.9,232.4,305,234.9z"></path><path class="st0" d="M233.8,189.2L233.8,189.2c-6.1-2.4-9.2-9.4-6.8-15.6l50.3-127.3c2.4-6.1,9.4-9.2,15.6-6.8l0,0  c6.1,2.4,9.2,9.4,6.8,15.6l-50.3,127.3C247,188.6,240,191.6,233.8,189.2z"></path><path class="st0" d="M219.4,230.8l7.9-3c6.2-2.3,9.3-9.3,7-15.5c-9.2-24.5-18.5-49-27.7-73.5  c-1.1-2.1-3.9-6.8-9.5-10c-3.2-1.8-6.2-2.5-8.3-2.8c-1,0.2-2.1,0.4-3.2,0.8c-1.9,0.6-3.5,1.4-4.6,2.2c-1.9,2.1-4.4,5.3-5.4,9.8  c-1.3,5.7,0.3,10.3,1,12c9.1,24.3,18.3,48.7,27.4,73C206.2,230,213.2,233.2,219.4,230.8z"></path><path class="st0" d="M185.6,240.7"></path><path class="st1" d="M208.8,145c0,23.2-8.4,41.9-18.8,41.9"></path></svg>