<svg xmlns="http://www.w3.org/2000/svg" xmlns:xlink="http://www.w3.org/1999/xlink" version="1.1" x="0px" y="0px" viewBox="0 0 100 100" style="enable-background:new 0 0 100 100;" xml:space="preserve"><path d="M71.47998,49h-5.66846c-0.55225,0-1,0.44727-1,1s0.44775,1,1,1h5.66846c0.55225,0,1-0.44727,1-1S72.03223,49,71.47998,49z"></path><path d="M89,49h-3.03174c-0.47668-2.75684-2.87915-4.8623-5.77002-4.8623c-3.23242,0-5.8623,2.62988-5.8623,5.8623  s2.62988,5.8623,5.8623,5.8623c2.89087,0,5.29333-2.10547,5.77002-4.8623H89c0.55225,0,1-0.44727,1-1S89.55225,49,89,49z   M80.19824,53.8623c-2.12988,0-3.8623-1.73242-3.8623-3.8623s1.73242-3.8623,3.8623-3.8623  c2.12939,0,3.86182,1.73242,3.86182,3.8623S82.32764,53.8623,80.19824,53.8623z"></path><path d="M67.2085,27.22852c-0.74316,0.74316-1.15234,1.73047-1.15234,2.78125s0.40918,2.03906,1.15234,2.78223  c0.7666,0.7666,1.77393,1.15039,2.78125,1.15039s2.01465-0.38379,2.78174-1.15039c0,0,0,0,0.00049,0  c1.5332-1.53418,1.53271-4.03027-0.00049-5.56348C71.2373,25.69531,68.7417,25.69531,67.2085,27.22852z M71.35742,31.37793  c-0.75488,0.75391-1.98096,0.75391-2.73486,0c-0.36523-0.36523-0.56641-0.85156-0.56641-1.36816s0.20117-1.00195,0.56641-1.36719  c0.37695-0.37695,0.87207-0.56543,1.36719-0.56543s0.99072,0.18848,1.36768,0.56543  C72.11084,29.39648,72.11084,30.62305,71.35742,31.37793z"></path><path d="M65.89551,35.51855c0.39062-0.39062,0.39062-1.02344,0-1.41406s-1.02344-0.39062-1.41406,0l-4.0083,4.00781  c-0.39062,0.39062-0.39062,1.02344,0,1.41406c0.19531,0.19531,0.45117,0.29297,0.70703,0.29297s0.51172-0.09766,0.70703-0.29297  L65.89551,35.51855z"></path><path d="M76.87012,21.71582l-2.78613,2.78613c-0.39062,0.39062-0.39062,1.02344,0,1.41406  c0.19531,0.19531,0.45117,0.29297,0.70703,0.29297s0.51172-0.09766,0.70703-0.29297l2.78613-2.78613  c0.39062-0.39062,0.39062-1.02344,0-1.41406S77.26074,21.3252,76.87012,21.71582z"></path><path d="M51,28.52051c0-0.55273-0.44775-1-1-1s-1,0.44727-1,1v5.66797c0,0.55273,0.44775,1,1,1s1-0.44727,1-1V28.52051z"></path><path d="M50,10c-0.55225,0-1,0.44727-1,1v3.03217c-2.75671,0.47656-4.86182,2.87872-4.86182,5.76959  c0,3.23242,2.62939,5.8623,5.86182,5.8623s5.86182-2.62988,5.86182-5.8623c0-2.89087-2.1051-5.29303-4.86182-5.76959V11  C51,10.44727,50.55225,10,50,10z M53.86182,19.80176c0,2.12988-1.73242,3.8623-3.86182,3.8623s-3.86182-1.73242-3.86182-3.8623  c0-2.12891,1.73242-3.86133,3.86182-3.86133S53.86182,17.67285,53.86182,19.80176z"></path><path d="M27.22852,27.22852c-1.5332,1.5332-1.53369,4.0293,0,5.56348c0.76709,0.7666,1.77441,1.15039,2.78174,1.15039  s2.01465-0.38379,2.78125-1.15039c0.74316-0.74316,1.15234-1.73145,1.15234-2.78223s-0.40918-2.03809-1.15234-2.78125  C31.2583,25.69531,28.7627,25.69531,27.22852,27.22852z M31.37744,31.37793c-0.75391,0.75391-1.98047,0.75391-2.73438,0  s-0.75439-1.98145-0.00049-2.73535c0.37695-0.37695,0.87256-0.56543,1.36768-0.56543s0.99023,0.18848,1.36719,0.56543  c0.36523,0.36523,0.56641,0.85059,0.56641,1.36719S31.74268,31.0127,31.37744,31.37793z"></path><path d="M34.10449,35.51855l4.0083,4.00781c0.19531,0.19531,0.45117,0.29297,0.70703,0.29297s0.51172-0.09766,0.70703-0.29297  c0.39062-0.39062,0.39062-1.02344,0-1.41406l-4.0083-4.00781c-0.39062-0.39062-1.02344-0.39062-1.41406,0  S33.71387,35.12793,34.10449,35.51855z"></path><path d="M23.12988,21.71582c-0.39062-0.39062-1.02344-0.39062-1.41406,0s-0.39062,1.02344,0,1.41406l2.78613,2.78613  c0.19531,0.19531,0.45117,0.29297,0.70703,0.29297s0.51172-0.09766,0.70703-0.29297c0.39062-0.39062,0.39062-1.02344,0-1.41406  L23.12988,21.71582z"></path><path d="M28.52002,51h5.66846c0.55225,0,1-0.44727,1-1s-0.44775-1-1-1h-5.66846c-0.55225,0-1,0.44727-1,1S27.96777,51,28.52002,51z"></path><path d="M11,51h3.03174c0.47668,2.75684,2.87915,4.8623,5.77002,4.8623c3.23242,0,5.8623-2.62988,5.8623-5.8623  s-2.62988-5.8623-5.8623-5.8623c-2.89087,0-5.29333,2.10547-5.77002,4.8623H11c-0.55225,0-1,0.44727-1,1S10.44775,51,11,51z   M19.80176,46.1377c2.12988,0,3.8623,1.73242,3.8623,3.8623s-1.73242,3.8623-3.8623,3.8623  c-2.12939,0-3.86182-1.73242-3.86182-3.8623S17.67236,46.1377,19.80176,46.1377z"></path><path d="M30.01025,73.92188c1.00732,0,2.01465-0.38379,2.78125-1.15039c0.74316-0.74316,1.15234-1.73047,1.15234-2.78125  s-0.40918-2.03906-1.15234-2.78223c-1.5332-1.5332-4.02881-1.5332-5.56299,0c0,0,0,0-0.00049,0  c-1.5332,1.53418-1.53271,4.03027,0.00049,5.56348C27.99561,73.53809,29.00293,73.92188,30.01025,73.92188z M28.64258,68.62207  c0.75488-0.75391,1.98096-0.75391,2.73486,0c0.36523,0.36523,0.56641,0.85156,0.56641,1.36816s-0.20117,1.00195-0.56641,1.36719  c-0.75391,0.75391-1.98096,0.75391-2.73486,0C27.88916,70.60352,27.88916,69.37695,28.64258,68.62207z"></path><path d="M38.11279,60.47363l-4.0083,4.00781c-0.39062,0.39062-0.39062,1.02344,0,1.41406  c0.19531,0.19531,0.45117,0.29297,0.70703,0.29297s0.51172-0.09766,0.70703-0.29297l4.0083-4.00781  c0.39062-0.39062,0.39062-1.02344,0-1.41406S38.50342,60.08301,38.11279,60.47363z"></path><path d="M22.42285,78.57715c0.25586,0,0.51172-0.09766,0.70703-0.29297l2.78613-2.78613c0.39062-0.39062,0.39062-1.02344,0-1.41406  s-1.02344-0.39062-1.41406,0l-2.78613,2.78613c-0.39062,0.39062-0.39062,1.02344,0,1.41406  C21.91113,78.47949,22.16699,78.57715,22.42285,78.57715z"></path><path d="M50,72.47949c0.55225,0,1-0.44727,1-1v-5.66797c0-0.55273-0.44775-1-1-1s-1,0.44727-1,1v5.66797  C49,72.03223,49.44775,72.47949,50,72.47949z"></path><path d="M50,90c0.55225,0,1-0.44727,1-1v-3.03223c2.75671-0.47656,4.86182-2.87866,4.86182-5.76953  c0-3.23242-2.62939-5.8623-5.86182-5.8623s-5.86182,2.62988-5.86182,5.8623c0,2.89087,2.1051,5.29297,4.86182,5.76953V89  C49,89.55273,49.44775,90,50,90z M46.13818,80.19824c0-2.12988,1.73242-3.8623,3.86182-3.8623s3.86182,1.73242,3.86182,3.8623  c0,2.12891-1.73242,3.86133-3.86182,3.86133S46.13818,82.32715,46.13818,80.19824z"></path><path d="M69.98975,73.92188c1.00732,0,2.01465-0.38379,2.78174-1.15039c1.5332-1.5332,1.53369-4.0293,0-5.56348  c-1.53418-1.5332-4.02979-1.5332-5.56299,0c-0.74316,0.74316-1.15234,1.73145-1.15234,2.78223s0.40918,2.03809,1.15234,2.78125  C67.9751,73.53809,68.98242,73.92188,69.98975,73.92188z M68.62256,68.62207c0.37695-0.37695,0.87207-0.56543,1.36719-0.56543  s0.99023,0.18848,1.36719,0.56543c0.75391,0.75391,0.75439,1.98145,0.00049,2.73535s-1.98096,0.75391-2.73486,0  c-0.36523-0.36523-0.56641-0.85059-0.56641-1.36719S68.25732,68.9873,68.62256,68.62207z"></path><path d="M65.89551,64.48145l-4.0083-4.00781c-0.39062-0.39062-1.02344-0.39062-1.41406,0s-0.39062,1.02344,0,1.41406l4.0083,4.00781  c0.19531,0.19531,0.45117,0.29297,0.70703,0.29297s0.51172-0.09766,0.70703-0.29297  C66.28613,65.50488,66.28613,64.87207,65.89551,64.48145z"></path><path d="M76.87012,78.28418c0.19531,0.19531,0.45117,0.29297,0.70703,0.29297s0.51172-0.09766,0.70703-0.29297  c0.39062-0.39062,0.39062-1.02344,0-1.41406l-2.78613-2.78613c-0.39062-0.39062-1.02344-0.39062-1.41406,0  s-0.39062,1.02344,0,1.41406L76.87012,78.28418z"></path><path d="M61.59814,50c0-0.55273-0.44775-1-1-1H55.3291c-0.55225,0-1,0.44727-1,1s0.44775,1,1,1h5.26904  C61.15039,51,61.59814,50.55273,61.59814,50z"></path><path d="M53.70068,47.06738c0.25586,0,0.51172-0.09766,0.70703-0.29297l3.72559-3.72559c0.39062-0.39062,0.39062-1.02344,0-1.41406  s-1.02344-0.39062-1.41406,0l-3.72559,3.72559c-0.39062,0.39062-0.39062,1.02344,0,1.41406  C53.18896,46.96973,53.44482,47.06738,53.70068,47.06738z"></path><path d="M49.76807,45.43848c0.55225,0,1-0.44727,1-1v-5.26855c0-0.55273-0.44775-1-1-1s-1,0.44727-1,1v5.26855  C48.76807,44.99121,49.21582,45.43848,49.76807,45.43848z"></path><path d="M46.54297,45.36035l-3.72559-3.72559c-0.39062-0.39062-1.02344-0.39062-1.41406,0s-0.39062,1.02344,0,1.41406  l3.72559,3.72559c0.19531,0.19531,0.45117,0.29297,0.70703,0.29297s0.51172-0.09766,0.70703-0.29297  C46.93359,46.38379,46.93359,45.75098,46.54297,45.36035z"></path><path d="M45.20703,50c0-0.55273-0.44775-1-1-1h-5.26904c-0.55225,0-1,0.44727-1,1s0.44775,1,1,1h5.26904  C44.75928,51,45.20703,50.55273,45.20703,50z"></path><path d="M42.11035,58.6582c0.25586,0,0.51172-0.09766,0.70703-0.29297l3.72559-3.72559c0.39062-0.39062,0.39062-1.02344,0-1.41406  s-1.02344-0.39062-1.41406,0l-3.72559,3.72559c-0.39062,0.39062-0.39062,1.02344,0,1.41406  C41.59863,58.56055,41.85449,58.6582,42.11035,58.6582z"></path><path d="M48.76807,60.83008c0,0.55273,0.44775,1,1,1s1-0.44727,1-1v-5.26855c0-0.55273-0.44775-1-1-1s-1,0.44727-1,1V60.83008z"></path><path d="M52.99365,54.63965l3.72559,3.72559c0.19531,0.19531,0.45117,0.29297,0.70703,0.29297s0.51172-0.09766,0.70703-0.29297  c0.39062-0.39062,0.39062-1.02344,0-1.41406l-3.72559-3.72559c-0.39062-0.39062-1.02344-0.39062-1.41406,0  S52.60303,54.24902,52.99365,54.63965z"></path><path d="M87.15576,35.12012c-0.19873-0.51465-0.77734-0.77051-1.29297-0.57227L64.23242,42.9043  c-0.51514,0.19922-0.77148,0.77734-0.57227,1.29297c0.15283,0.39648,0.53174,0.63965,0.93262,0.63965  c0.12012,0,0.2417-0.02148,0.36035-0.06738l21.63037-8.35645C87.09863,36.21387,87.35498,35.63574,87.15576,35.12012z"></path><path d="M65.6958,13.03613c-0.50586-0.22559-1.0957,0.00391-1.31934,0.50977L54.99072,34.75  c-0.22363,0.50488,0.00488,1.09473,0.50977,1.31836c0.13184,0.05859,0.26904,0.08594,0.4043,0.08594  c0.38379,0,0.74951-0.22168,0.91504-0.5957l9.38574-21.2041C66.4292,13.84961,66.20068,13.25977,65.6958,13.03613z"></path><path d="M34.90576,12.59473c-0.51514,0.19922-0.77148,0.77734-0.57227,1.29297l8.35645,21.63086  c0.15283,0.39648,0.53174,0.63965,0.93262,0.63965c0.12012,0,0.2417-0.02148,0.36035-0.06738  c0.51514-0.19922,0.77148-0.77734,0.57227-1.29297l-8.35645-21.63086C36,12.65234,35.42236,12.39746,34.90576,12.59473z"></path><path d="M12.82129,34.05371c-0.22363,0.50586,0.00488,1.0957,0.50977,1.31934l21.2041,9.38672  c0.13184,0.05859,0.26904,0.08594,0.4043,0.08594c0.38379,0,0.74951-0.22168,0.91504-0.59473  c0.22363-0.50586-0.00488-1.0957-0.50977-1.31934l-21.2041-9.38672C13.63379,33.31934,13.04492,33.54883,12.82129,34.05371z"></path><path d="M12.38037,64.84473c0.15332,0.39648,0.53174,0.63965,0.93262,0.63965c0.12012,0,0.2417-0.02148,0.36035-0.06738  l21.63037-8.35645c0.51514-0.19922,0.77148-0.77734,0.57227-1.29297c-0.19824-0.51465-0.77783-0.77051-1.29297-0.57227  l-21.63037,8.35645C12.4375,63.75098,12.18115,64.3291,12.38037,64.84473z"></path><path d="M33.84033,86.92871c0.13184,0.05859,0.26904,0.08594,0.4043,0.08594c0.38379,0,0.74951-0.22168,0.91504-0.5957  l9.38574-21.2041c0.22363-0.50488-0.00488-1.09473-0.50977-1.31836c-0.50684-0.22559-1.0957,0.00293-1.31934,0.50977  l-9.38574,21.2041C33.10693,86.11523,33.33545,86.70508,33.84033,86.92871z"></path><path d="M64.27051,87.4375c0.12012,0,0.2417-0.02148,0.36035-0.06738c0.51514-0.19922,0.77148-0.77734,0.57227-1.29297  l-8.35693-21.63086c-0.19922-0.51465-0.77686-0.77051-1.29297-0.57227c-0.51514,0.19922-0.77148,0.77734-0.57227,1.29297  l8.35693,21.63086C63.49121,87.19434,63.86963,87.4375,64.27051,87.4375z"></path><path d="M85.7998,66.50586c0.38379,0,0.74951-0.22168,0.91504-0.59473c0.22363-0.50586-0.00488-1.0957-0.50977-1.31934  l-21.2041-9.38672c-0.50635-0.22656-1.0957,0.00391-1.31934,0.50879c-0.22363,0.50586,0.00488,1.0957,0.50977,1.31934  l21.2041,9.38672C85.52734,66.47852,85.66455,66.50586,85.7998,66.50586z"></path></svg>