<svg xmlns="http://www.w3.org/2000/svg" xmlns:xlink="http://www.w3.org/1999/xlink" version="1.1" x="0px" y="0px" viewBox="0 0 100 100" enable-background="new 0 0 100 100" xml:space="preserve"><path fill="none" stroke="#000000" stroke-width="0.5" stroke-miterlimit="10" d="M159.859,5.016"></path><g><ellipse cx="50" cy="13.268" rx="33.408" ry="8.253"></ellipse><path d="M50,23.38c-18.451,0-33.408-3.695-33.408-8.253v6.402c0,2.401,4.154,4.561,10.779,6.069L17.07,86.22   c-0.172,0.978,0.58,1.874,1.573,1.874h2.547c0.775,0,1.439-0.557,1.573-1.321L32.979,28.63c4.148,0.608,8.874,1,13.926,1.115   v64.239c0,0.552,0.448,1,1,1h4.389c0.552,0,1-0.448,1-1V29.742c5.013-0.121,9.699-0.517,13.814-1.124L77.254,86.72   c0.133,0.765,0.797,1.323,1.573,1.323h2.547c0.992,0,1.744-0.895,1.573-1.872L72.717,27.578c6.573-1.507,10.691-3.659,10.691-6.049   v-6.402C83.408,19.685,68.451,23.38,50,23.38z"></path></g></svg>