<svg xmlns="http://www.w3.org/2000/svg" xmlns:xlink="http://www.w3.org/1999/xlink" version="1.1" x="0px" y="0px" viewBox="0 0 64 64" enable-background="new 0 0 64 64" xml:space="preserve"><g><g><path fill="#000000" d="M28.4,3c-0.8-0.7-1.3-1.4-1.3-1.8l-3.7,1.5L22,3.4l0,0c-3.5,1.2-4.4,3.1-4.4,6.8v23.1h4.8V12.8    c0-2,0.6-3.9,1.6-5.6L28.4,3z M21.7,19.7h-3.6v-2.5h3.6V19.7z M34.7,3.6c-0.6,0.3-1.2,0.5-1.9,0.6v19.6h-1.6V4.1    c-0.7,0-1.3-0.2-1.8-0.5L25,7.5c-1.1,1.7-1.6,3.7-1.6,5.7v49.6H31V35.1c0-0.2,0.1-0.3,0.2-0.4c0.9-0.7,1.9-0.1,1.9,0.7v27.4h7.6    V13.2c0-2-0.6-4-1.6-5.7L34.7,3.6z M29.6,44.1h-5.1v-2.5h5.1V44.1z M39.6,44.1h-5.1v-2.5h5.1V44.1z M42,3.4L42,3.4l-1.4-0.6    l-3.8-1.5c0,0.3-0.5,1.1-1.3,1.7L40,7.2c1,1.7,1.6,3.7,1.6,5.6v20.5h4.8V10.2C46.5,6.4,45.6,4.6,42,3.4z M45.9,19.7h-3.6v-2.5h3.6    V19.7z"></path></g></g></svg>