<svg xmlns="http://www.w3.org/2000/svg" xmlns:xlink="http://www.w3.org/1999/xlink" version="1.1" x="0px" y="0px" viewBox="0 0 100 100" enable-background="new 0 0 100 100" xml:space="preserve"><path d="M71.479,95H28.521c0-4.318,4.823-7.83,10.752-7.83h1.021v-3.836c4.698-0.353,8.106-3.127,9.706-6.479v0.006  c0.542,1.139,1.279,2.204,2.206,3.123c1.975,1.957,4.608,3.126,7.5,3.349v3.837h1.021C66.656,87.17,71.479,90.682,71.479,95z"></path><path d="M85.294,83.334v3.836h-1.021c-5.929,0-10.752,3.513-10.752,7.83H95V76.855C93.4,80.207,89.992,82.981,85.294,83.334z"></path><path d="M85.294,38.334v3.836h-1.021c-5.929,0-10.752,3.513-10.752,7.83s4.823,7.83,10.752,7.83h1.021v3.837  c2.891,0.223,5.524,1.392,7.5,3.349C93.721,65.935,94.458,67,95,68.139V31.855C93.4,35.207,89.992,37.981,85.294,38.334z"></path><path d="M15.727,87.17h-1.021v-3.837c-2.891-0.223-5.524-1.392-7.5-3.349C6.279,79.065,5.542,78,5,76.861V95h21.479  C26.479,90.682,21.656,87.17,15.727,87.17z"></path><path d="M39.273,12.83h1.021v3.837c2.891,0.223,5.525,1.392,7.5,3.349C48.721,20.935,49.458,22,50,23.139v0.006  c1.6-3.352,5.008-6.126,9.706-6.479V12.83h1.021c5.929,0,10.752-3.513,10.752-7.83H28.521C28.521,9.318,33.344,12.83,39.273,12.83z"></path><path d="M14.706,61.666V57.83h1.021c5.929,0,10.752-3.513,10.752-7.83s-4.823-7.83-10.752-7.83h-1.021v-3.837  c-2.891-0.223-5.524-1.392-7.5-3.349C6.279,34.065,5.542,33,5,31.861v36.284C6.6,64.793,10.008,62.019,14.706,61.666z"></path><path d="M14.706,16.666V12.83h1.021c5.929,0,10.752-3.513,10.752-7.83H5v18.145C6.6,19.793,10.008,17.019,14.706,16.666z"></path><path d="M73.521,5c0,4.318,4.823,7.83,10.752,7.83h1.021v3.837c2.891,0.223,5.524,1.392,7.5,3.349  C93.721,20.935,94.458,22,95,23.139V5H73.521z"></path><path d="M61.748,59.841v3.829h-1.021c-5.995,0-9.706,4.584-9.706,8.83s3.711,8.83,9.706,8.83h1.021v3.829  c4.841,0.296,8.929,2.682,10.752,5.984c1.824-3.302,5.912-5.687,10.752-5.984V81.33h1.021c5.995,0,9.706-4.584,9.706-8.83  s-3.711-8.83-9.706-8.83h-1.021v-3.829c-4.841-0.296-8.929-2.682-10.752-5.984C70.676,57.159,66.588,59.544,61.748,59.841z"></path><path d="M84.273,18.67h-1.021v-3.829c-4.841-0.296-8.929-2.682-10.752-5.984c-1.824,3.302-5.912,5.687-10.752,5.984v3.829h-1.021  c-5.995,0-9.706,4.584-9.706,8.83s3.711,8.83,9.706,8.83h1.021v3.829c4.841,0.296,8.929,2.682,10.752,5.984  c1.824-3.302,5.912-5.687,10.752-5.984V36.33h1.021c5.995,0,9.706-4.584,9.706-8.83S90.268,18.67,84.273,18.67z"></path><path d="M39.273,63.67h-1.021v-3.829c-4.841-0.296-8.928-2.682-10.752-5.984c-1.824,3.302-5.912,5.687-10.752,5.984v3.829h-1.021  c-5.995,0-9.706,4.584-9.706,8.83s3.711,8.83,9.706,8.83h1.021v3.829c4.841,0.296,8.929,2.682,10.752,5.984  c1.824-3.302,5.912-5.687,10.752-5.984V81.33h1.021c5.995,0,9.706-4.584,9.706-8.83S45.268,63.67,39.273,63.67z"></path><path d="M59.706,61.666V57.83h1.021c5.929,0,10.752-3.513,10.752-7.83s-4.823-7.83-10.752-7.83h-1.021v-3.837  c-2.891-0.223-5.525-1.392-7.5-3.349C51.279,34.065,50.542,33,50,31.861v-0.006c-1.6,3.352-5.008,6.126-9.706,6.479v3.836h-1.021  c-5.929,0-10.752,3.513-10.752,7.83s4.823,7.83,10.752,7.83h1.021v3.837c2.891,0.223,5.525,1.392,7.5,3.349  C48.721,65.935,49.458,67,50,68.139v0.006C51.6,64.793,55.008,62.019,59.706,61.666z"></path><path d="M38.252,40.159V36.33h1.021c5.995,0,9.706-4.584,9.706-8.83s-3.711-8.83-9.706-8.83h-1.021v-3.829  c-4.841-0.296-8.928-2.682-10.752-5.984c-1.824,3.302-5.912,5.687-10.752,5.984v3.829h-1.021c-5.995,0-9.706,4.584-9.706,8.83  s3.711,8.83,9.706,8.83h1.021v3.829c4.841,0.296,8.929,2.682,10.752,5.984C29.324,42.841,33.412,40.456,38.252,40.159z"></path></svg>