<svg xmlns="http://www.w3.org/2000/svg" xmlns:xlink="http://www.w3.org/1999/xlink" version="1.1" x="0px" y="0px" viewBox="0 0 100 100" enable-background="new 0 0 100 100" xml:space="preserve"><g><g><g><path d="M94.987,70.125c-0.631,0-1.143-0.508-1.142-1.146c0-0.634,0.512-1.144,1.143-1.141v-2c-0.631,0-1.141-0.511-1.143-1.146     c0-0.634,0.511-1.145,1.143-1.145l-0.001-1.999c-0.631,0-1.142-0.509-1.143-1.146c0.003-0.636,0.512-1.145,1.143-1.145     l0.001-2.001c-4.028,0-7.292-3.263-7.292-7.291c0-4.027,3.266-7.292,7.291-7.291v-2.003c-0.63,0-1.142-0.515-1.142-1.147     c0-0.626,0.512-1.14,1.143-1.14v-2.002c-0.631,0-1.143-0.517-1.143-1.148c0-0.626,0.511-1.14,1.143-1.141l-0.001-2.002     c-0.63,0-1.142-0.515-1.142-1.145c0-0.627,0.512-1.142,1.142-1.141l0.001-1.219h-90v1.219c0.633,0,1.145,0.513,1.145,1.141     c0,0.63-0.512,1.145-1.145,1.145v2.002c0.632,0,1.145,0.516,1.145,1.142c0,0.631-0.512,1.148-1.145,1.148v2.003     c0.632,0,1.145,0.516,1.145,1.142c0.001,0.629-0.513,1.143-1.145,1.144v2.003c4.029,0,7.292,3.266,7.292,7.293     c-0.001,4.029-3.264,7.293-7.292,7.292v2c0.633,0,1.145,0.511,1.145,1.146c0,0.634-0.512,1.145-1.145,1.145v1.996     c0.633,0.001,1.145,0.51,1.146,1.146c-0.001,0.636-0.513,1.145-1.146,1.145v2c0.633,0,1.145,0.511,1.145,1.145     c0.001,0.635-0.512,1.143-1.144,1.143l-0.001,1.287l89.999,0.002V70.125z M18.824,67.337l-0.001-34.741l62.333,0.001     l-0.001,34.738L18.824,67.337z"></path></g></g><rect x="25.649" y="36.837" width="48.751" height="4.93"></rect><rect x="25.648" y="44.868" width="22.555" height="2.845"></rect><rect x="25.649" y="50.236" width="22.554" height="2.843"></rect><rect x="25.648" y="55.601" width="22.555" height="2.844"></rect><rect x="25.648" y="60.967" width="17.537" height="2.844"></rect><rect x="55.456" y="44.868" width="18.944" height="18.943"></rect></g></svg>