<svg xmlns="http://www.w3.org/2000/svg" xmlns:xlink="http://www.w3.org/1999/xlink" version="1.1" x="0px" y="0px" viewBox="0 0 100 100" style="enable-background:new 0 0 100 100;" xml:space="preserve"><style type="text/css">
	.st0{fill:none;stroke:#000000;stroke-width:2;stroke-linecap:round;stroke-linejoin:round;stroke-miterlimit:10;}
</style><g><g><polygon points="66.8,16 33.2,16 33,19.3 67,19.3   "></polygon><path d="M38.4,28.7c-1.6,2.7-5,4.1-6.4,4.6l-3.3,48.3L41.3,84l7.8-37.7v-25h-8.3C40.6,22.8,40.1,25.9,38.4,28.7z"></path><path d="M52.2,32V21.3h-1.1v12.5C51.6,33.6,52.2,33.1,52.2,32z"></path><path d="M63.3,27.7c1,1.7,3.1,2.8,4.5,3.4l-0.7-9.8h-5.8C61.4,22.7,61.9,25.3,63.3,27.7z"></path><path d="M61.6,28.7c-1.7-2.9-2.2-5.9-2.3-7.4h-5.1V32c0,2.4-1.6,3.5-3.1,3.9v10.4L58.7,84l12.6-2.3L68,33.3    C66.5,32.8,63.2,31.4,61.6,28.7z"></path><path d="M36.7,27.7c1.4-2.4,1.9-5,2-6.4h-5.9l-0.7,9.8C33.6,30.6,35.7,29.4,36.7,27.7z"></path></g></g></svg>