<svg xmlns="http://www.w3.org/2000/svg" xmlns:xlink="http://www.w3.org/1999/xlink" version="1.1" x="0px" y="0px" viewBox="0 0 50 50" enable-background="new 0 0 50 50" xml:space="preserve"><g><path fill-rule="evenodd" clip-rule="evenodd" d="M41.854,12.113c-0.61,0-1.104-0.495-1.104-1.105c0-0.61,0.494-1.105,1.104-1.105   c0.61,0,1.105,0.495,1.105,1.105C42.959,11.617,42.464,12.113,41.854,12.113 M24.975,19.527l-14.751,6.016   c-3.378,1.378-5.601,4.422-5.601,8.108l0.036,1.082c0.061,1.221,0.103,2.112-1.03,3.31L0.167,41.7   c-0.231,0.245-0.221,0.632,0.024,0.862c0.101,0.094,0.423,0.17,0.583,0.17h7.848c0.156,0,0.298-0.058,0.406-0.154   c0.392-0.293,0.798-0.631,1.236-0.995c1.695-1.406,3.907-3.239,5.439-2.903c2.66,0.585,5.084,0.907,7.515,0.962   c2.425,0.056,4.85-0.154,7.518-0.633c1.697-0.305,3.189,1.323,4.453,2.704l0.779,0.833c0.115,0.117,0.272,0.185,0.435,0.184h8.012   c0.338,0,0.613-0.275,0.613-0.613c0-0.181-0.079-0.344-0.205-0.457l-2.847-2.927c-0.988-1.013-0.974-2.269-0.291-3.446   c2.279-3.935,3.587-6.194,3.554-11.23l-0.044-1.28c-0.089-1.819-0.188-3.892,1.021-4.916l1.793-1.517   c0.355,1.979,0.423,5.865,0.158,7.701c-0.115,0.8,1.063,0.869,1.221,0.154c0.946-4.273,0.6-7.866,0.241-11.851   c-0.078-0.853-0.323-1.69-0.776-2.226c-0.229-0.271-0.511-0.472-0.849-0.573l-2.906-0.87c-2.168-1.132-3.552-1.668-6.09-1.301   C37.02,7.67,34.792,8.978,33.733,10.7c-0.519,0.739-0.98,1.434-1.415,2.089C30.333,15.782,28.914,17.92,24.975,19.527z"></path></g></svg>