<?xml version="1.0" encoding="UTF-8" standalone="no"?>
<!DOCTYPE svg PUBLIC "-//W3C//DTD SVG 1.1//EN" "http://www.w3.org/Graphics/SVG/1.1/DTD/svg11.dtd">
<svg width="100%" height="100%" viewBox="0 0 100 100" version="1.1" xmlns="http://www.w3.org/2000/svg" xmlns:xlink="http://www.w3.org/1999/xlink" xml:space="preserve" xmlns:serif="http://www.serif.com/" style="fill-rule:evenodd;clip-rule:evenodd;stroke-miterlimit:10;">
    <g>
        <g transform="matrix(0.692677,0,0,0.723487,15.8489,-1.64542)">
            <path d="M49.3,83.5C43.6,80.2 40,76.3 38.8,71.7C38.6,70.8 38.4,69.9 38.3,69C38.3,68.9 38.3,68.9 38.3,68.8C38.3,68.4 37.7,68.4 37.7,68.8C36.8,73.3 36.6,77.7 37.7,82.1C38.3,84.6 42.9,91.9 44.6,94.4C44.8,94.7 45.3,94.6 45.3,94.3C45.7,92.2 46.7,88.1 49.5,83.9C49.6,83.8 49.5,83.6 49.3,83.5Z" style="fill-rule:nonzero;"/>
        </g>
        <g transform="matrix(0.692677,0,0,0.723487,15.8489,-1.64542)">
            <path d="M68.9,63.6C67.3,65.8 65.4,67.9 63.1,69.8C62.1,70.6 61.1,71.3 60.1,71.9C58.1,73.2 56.3,74.4 55,76.3C54.6,76.9 54.3,77.4 54,78C53.8,78.3 54.2,78.6 54.5,78.4C54.6,78.3 54.7,78.2 54.9,78.1C61.2,73 68,72.3 70.7,72.2C70.9,72.2 71,72 71,71.8C70.8,70.8 70.2,67.6 69.6,63.7C69.4,63.5 69,63.4 68.9,63.6Z" style="fill-rule:nonzero;"/>
        </g>
        <g transform="matrix(0.692677,0,0,0.723487,15.8489,-1.64542)">
            <path d="M39.5,22.1C39.6,22.3 39.9,22.4 40.1,22.3C40.6,22 41,21.8 41.4,21.6C41.6,21.5 41.9,21.4 42.1,21.2C42.3,21.1 42.4,20.7 42.2,20.5C38.6,16.7 34.5,11.4 30.1,5.4C30,5.3 29.9,5.4 30,5.5C33.9,11.7 37.2,17.4 39.5,22.1Z" style="fill-rule:nonzero;"/>
        </g>
        <g transform="matrix(0.692677,0,0,0.723487,15.8489,-1.64542)">
            <path d="M72.3,40.1C71.2,35.8 68.5,31.3 65,27.7C62,24.7 58.3,22.7 54,21.8C53.6,21.7 53.3,21.6 52.9,21.5L52.7,21.4L52.6,21.2C52.4,20.4 52.7,19.7 53.1,18.7C53.5,17.6 54.1,16.2 54.1,14.3C54.1,13.5 54,12.7 53.9,11.9C53.9,11.7 53.5,11.6 53.4,11.9C52.8,13.2 52.1,14.4 51.2,15.5C49.7,17.3 47.9,18.6 46.2,19.7C44.9,20.5 43.5,21.4 41.8,22.2C40.4,22.9 38.6,24.1 37,25.9C36.2,26.9 35.5,28 35.1,29.3C34.9,29.8 34.7,30.3 34.5,30.8C33.6,33.1 32.5,34.7 32.1,35.3C32.1,35.4 32,35.4 32,35.4C30.8,37.2 29.8,38 29,38.7C28.2,39.4 27.7,39.9 27.2,40.9C26.7,42.2 26.6,43.8 27,45.6C27.4,46.8 28.1,47.6 28.9,48.1C29.3,48.3 29.8,48.4 30.9,48.7C32,49 32.6,49.1 32.9,49.1C33.6,49.1 34.1,48.4 34.8,47.2C35.4,46.2 36.2,44.9 37.5,43.9C40.2,41.8 44.7,41.1 46.3,41.1C48.4,41 49,40.4 49.3,40.2L50.3,39.3L50,40.7C50,40.8 49.6,42.4 47.8,44.5C46.8,45.7 45.7,46.5 44.9,47C44.7,47.1 44.5,47.3 44.3,47.3C42.9,48 41.5,48.4 39.8,48.8C38.9,49 37.8,49.3 36.6,49.6C36.4,49.6 36.1,49.8 35.6,50C34.9,50.3 34.2,50.8 33.6,51.4C32.3,52.8 31.6,54.7 31.8,56.6C32,58.5 33,60.2 34.6,61.4C36.4,62.7 37.8,64.5 38.5,66.5C38.8,67.3 39,68.2 39.1,69C39.2,69.9 39.4,70.7 39.6,71.5C40.8,75.9 44.3,79.8 50.1,82.9C50.1,82.9 50.2,82.9 50.2,83C50.8,83.3 51.5,83 51.6,82.3C51.7,81.5 51.9,80.7 52.2,80C52.7,78.5 53.4,77.1 54.2,75.9C55.6,73.9 57.6,72.5 59.6,71.3C60.6,70.6 61.6,70 62.6,69.2C65.2,67.1 67.3,64.7 69,62.2C69.2,61.8 69.4,61.5 69.6,61.2C70.9,59 71.8,56.7 72.5,54.2C73.6,49.5 73.6,44.7 72.3,40.1ZM29.4,44.9C29.2,44.7 29.1,44.6 28.9,44.3C28.8,44.2 28.7,44.1 28.7,44C28.4,43.6 28.6,43.2 29.1,43.2C29.4,43.2 29.7,43.5 29.7,43.7C29.7,44 29.7,44.3 29.8,44.7C29.8,44.8 29.8,44.8 29.8,44.9C29.9,45.1 29.6,45.1 29.4,44.9ZM41.4,29.3C41.4,29.8 41.2,30.3 40.8,30.6L39.2,31.8C38.8,32.1 38.2,31.6 38.5,31.1L40.5,28.2C40.8,27.8 41.5,28 41.5,28.5L41.5,29.3L41.4,29.3Z" style="fill-rule:nonzero;"/>
        </g>
        <g transform="matrix(0.268305,0,0,0.240356,0.648201,33.84)">
            <path d="M182,203.4C182,211 179.3,218 179.3,218C176.3,225 157.7,269 117.7,269.4C83.3,269.8 53.5,237.6 53.5,203.4C53.5,160.7 99.5,130.6 117.7,137.4C130.2,142 131.8,164.6 150.9,169C157.4,170.5 159.3,168.3 164.9,171C177.7,177 182,194.4 182,203.4Z" style="fill-rule:nonzero;stroke:black;stroke-width:1px;"/>
        </g>
        <g transform="matrix(0.268305,0,0,0.240356,0.648201,33.84)">
            <path d="M108,171.4C114.1,169 117.2,162 114.8,155.8L64.4,28.5C62,22.4 55,19.3 48.8,21.7C42.7,24.1 39.6,31.1 42,37.3L92.3,164.6C94.8,170.7 101.8,173.8 108,171.4Z" style="fill-rule:nonzero;stroke:black;stroke-width:1px;"/>
        </g>
        <g transform="matrix(0.268305,0,0,0.240356,0.648201,33.84)">
            <path d="M85.2,188C79.1,190.5 72.1,187.5 69.6,181.4L27.9,78.4C25.4,72.3 28.4,65.3 34.5,62.8C40.6,60.3 47.6,63.3 50.1,69.4L91.8,172.4C94.3,178.5 91.4,185.6 85.2,188Z" style="fill-rule:nonzero;stroke:black;stroke-width:1px;"/>
        </g>
        <g transform="matrix(0.268305,0,0,0.240356,0.648201,33.84)">
            <path d="M74.9,235C68.8,237.5 61.8,234.5 59.3,228.4L23.4,139.7C20.9,133.6 23.9,126.6 30,124.1C36.1,121.6 43.1,124.6 45.6,130.7L81.5,219.4C84,225.5 81,232.6 74.9,235Z" style="fill-rule:nonzero;stroke:black;stroke-width:1px;"/>
        </g>
        <g transform="matrix(0.268305,0,0,0.240356,0.648201,33.84)">
            <path d="M146.1,189.4C152.2,187 155.3,180 152.9,173.8L102.6,46.5C100.2,40.4 93.2,37.3 87,39.7C80.9,42.1 77.8,49.1 80.2,55.3L130.5,182.6C133,188.7 140,191.8 146.1,189.4Z" style="fill-rule:nonzero;stroke:black;stroke-width:1px;"/>
        </g>
        <g transform="matrix(0.268305,0,0,0.240356,0.648201,33.84)">
            <path d="M160.6,231L152.7,228C146.5,225.7 143.4,218.7 145.7,212.5C154.9,188 164.2,163.5 173.4,139C174.5,136.9 177.3,132.2 182.9,129C186.1,127.2 189.1,126.5 191.2,126.2C192.2,126.4 193.3,126.6 194.4,127C196.3,127.6 197.9,128.4 199,129.2C200.9,131.3 203.4,134.5 204.4,139C205.7,144.7 204.1,149.3 203.4,151C194.3,175.3 185.1,199.7 176,224C173.7,230.2 166.8,233.3 160.6,231Z" style="fill-rule:nonzero;stroke:black;stroke-width:1px;"/>
        </g>
        <g transform="matrix(0.268305,0,0,0.240356,0.648201,33.84)">
            <path d="M198,203.3C198,210.9 200.7,217.9 200.7,217.9C203.7,224.9 222.3,268.9 262.3,269.3C296.7,269.7 326.5,237.5 326.5,203.3C326.5,160.6 280.5,130.5 262.3,137.3C249.8,141.9 248.2,164.5 229.1,168.9C222.6,170.4 220.7,168.2 215.1,170.9C202.3,176.8 198,194.2 198,203.3Z" style="fill-rule:nonzero;stroke:black;stroke-width:1px;"/>
        </g>
        <g transform="matrix(0.268305,0,0,0.240356,0.648201,33.84)">
            <path d="M272,171.2C265.9,168.8 262.8,161.8 265.2,155.6L315.5,28.3C317.9,22.2 324.9,19.1 331.1,21.5C337.2,23.9 340.3,30.9 337.9,37.1L287.6,164.4C285.1,170.6 278.1,173.6 272,171.2Z" style="fill-rule:nonzero;stroke:black;stroke-width:1px;"/>
        </g>
        <g transform="matrix(0.268305,0,0,0.240356,0.648201,33.84)">
            <path d="M294.7,187.9C300.8,190.4 307.8,187.4 310.3,181.3L352,78.3C354.5,72.2 351.5,65.2 345.4,62.7C339.3,60.2 332.3,63.2 329.8,69.3L288.1,172.3C285.6,178.4 288.6,185.4 294.7,187.9Z" style="fill-rule:nonzero;stroke:black;stroke-width:1px;"/>
        </g>
        <g transform="matrix(0.268305,0,0,0.240356,0.648201,33.84)">
            <path d="M305,234.9C311.1,237.4 318.1,234.4 320.6,228.3L352.5,149.7C355,143.6 352,136.6 345.9,134.1C339.8,131.6 332.8,134.6 330.3,140.7L298.4,219.3C295.9,225.4 298.9,232.4 305,234.9Z" style="fill-rule:nonzero;stroke:black;stroke-width:1px;"/>
        </g>
        <g transform="matrix(0.268305,0,0,0.240356,0.648201,33.84)">
            <path d="M233.8,189.2C227.7,186.8 224.6,179.8 227,173.6L277.3,46.3C279.7,40.2 286.7,37.1 292.9,39.5C299,41.9 302.1,48.9 299.7,55.1L249.4,182.4C247,188.6 240,191.6 233.8,189.2Z" style="fill-rule:nonzero;stroke:black;stroke-width:1px;"/>
        </g>
        <g transform="matrix(0.268305,0,0,0.240356,0.648201,33.84)">
            <path d="M219.4,230.8L227.3,227.8C233.5,225.5 236.6,218.5 234.3,212.3C225.1,187.8 215.8,163.3 206.6,138.8C205.5,136.7 202.7,132 197.1,128.8C193.9,127 190.9,126.3 188.8,126C187.8,126.2 186.7,126.4 185.6,126.8C183.7,127.4 182.1,128.2 181,129C179.1,131.1 176.6,134.3 175.6,138.8C174.3,144.5 175.9,149.1 176.6,150.8C185.7,175.1 194.9,199.5 204,223.8C206.2,230 213.2,233.2 219.4,230.8Z" style="fill-rule:nonzero;stroke:black;stroke-width:1px;"/>
        </g>
        <g transform="matrix(0.268305,0,0,0.240356,0.648201,33.84)">
            <path d="M208.8,145C208.8,168.2 200.4,186.9 190,186.9" style="fill:none;stroke:black;stroke-width:1px;"/>
        </g>
    </g>
</svg>
