<svg xmlns:x="http://ns.adobe.com/Extensibility/1.0/" xmlns:i="http://ns.adobe.com/AdobeIllustrator/10.0/" xmlns:graph="http://ns.adobe.com/Graphs/1.0/" xmlns="http://www.w3.org/2000/svg" xmlns:xlink="http://www.w3.org/1999/xlink" xmlns:a="http://ns.adobe.com/AdobeSVGViewerExtensions/3.0/" version="1.1" baseProfile="basic" x="0px" y="0px" viewBox="0 0 100 100" xml:space="preserve"><path d="M91.632,51.333c0.193-3.154-7.678-6.428-19.505-8.659L53.461-0.162L32.862,40.164c-11.816,0.704-19.871,2.919-20.064,6.044  c-0.155,2.518,4.825,5.11,12.85,7.189c-0.112,0.229-0.227,0.461-0.333,0.687c-5.051,1.778-9.2,4.568-6.403,8.726  c5.807,8.636-11.946,11.846-2.128,19.047c8.716,6.394,1.042,8.296,4.157,11.968c1.123,1.324,7.148-7.81,10.06-6.574  c5.353,2.271,8.306,14.006,8.288,9.52c-0.063-15.631,3.228-0.511,5.837-0.983l0.409-3.944c1.504-0.107,6.584,4.754,6.553,4.567  c6.014,1.597,13.017,2.486,13.895,2.27C68.152,98.146,69,94.282,69,93.117c0-0.004,0-0.007,0-0.011c1-0.757,1.879-1.824,2.1-2.619  c0.229-0.83-0.274-1.301-0.98-1.346c-0.502-0.034-1.322,0.948-2.856,0.367l-0.097-0.952l-1.077-0.563l-0.528,0.301  c-0.166-0.162-0.333-0.34-0.511-0.539c-0.357-0.399-0.771-0.695-1.208-0.95l0.072-0.501l-1.051-0.281l-0.111,0.278  c-1.88-0.647-3.989-0.507-5.175-0.61c-0.025-0.077,1.74-1.167,1.709-1.246c0.279-0.04,0.585-0.265,0.892-0.305L60.806,85h1.555  l0.779-0.733c0.716,0.231,1.474,0.688,2.104,1.18l-0.598,0.904l1.097,0.962l0.526-0.51c0.439,0.561,0.73,0.921,1.73,1.126V89h2  v-0.798c0,0.018,0.894,0.003,1.164-0.021c1.187,0.657,1.121-2.667,0.457-3.463c-0.662-0.794-0.039-1.217-0.149-3.605  c-0.107-2.39-2.485-3.608-2.485-3.608s-0.215-0.591-1.599,0.061c-0.055,0.734-0.517,2.2-1.339,2.181  c-0.205-0.004-0.252,0.008-0.255,0.019c-0.073-0.033-0.422-0.15-1.85-0.493c-2.975-0.715-1.407-3.132-1.407-3.132l1.238-1.355  c-0.07,0.547-0.254,1.65-0.695,2.48c-0.604,1.143,2.462,2.11,3.19,1.82c0.73-0.291-0.226-1.275,0.558-2.407  c0.782-1.132,3.993,0.846,5.255,3.461c0.13,0.27,0.307,0.507,0.479,0.746c3.32,4.643,5.882,5.206,5.882,5.206  s4.755-1.315,4.571-4.32c-0.028-0.464-2.422-9.381-3.292-10.702c-0.814-1.236-8.082-6.835-8.082-6.835s-1.424,0.931-3.705,0.269  c0.002-0.07-0.038-0.145-0.104-0.219c0.018,0.111,0.038,0.22,0.038,0.334c0,0.898-0.542,1.677-1.35,2.113  c0.154-0.266,0.245-0.58,0.245-0.921c0-0.933-0.675-1.688-1.508-1.688c-0.835,0-1.51,0.756-1.51,1.688  c0,0.446,0.157,0.85,0.409,1.15c-1.11-0.332-1.915-1.249-1.915-2.343c0-0.827,0.463-1.555,1.166-2.006  c-1.842-0.481-3.548-0.833-3.548-0.833l1.17-1.613c0,0,3.224,0.335,7.337,2.967c4.111,2.634,4.253-0.356,4.869-1.667  c0.295-0.627-0.037-2.444-0.462-4.17c1.402-0.099,2.764-0.211,4.042-0.353C85.711,55.961,91.469,53.971,91.632,51.333z   M50.512,51.234c-14.2-0.923-25.091-5.697-24.978-7.537c0.045-0.733,1.939-1.289,5.073-1.638l-1.148,2.246  c17.943,10.121,44.59,3.079,44.59,3.079l-1.048-2.401c2.53,0.685,3.997,1.397,3.956,2.058C76.845,48.88,64.713,52.157,50.512,51.234  z"></path></svg>