<svg xmlns="http://www.w3.org/2000/svg" data-name="Layer 1" viewBox="0 0 96 79.42" x="0px" y="0px"><title>07</title><path d="M71.21,47.25c-1.75,5.24-6.93,8.94-10.48,8.94,0,0-1.4,2.29-.7,4.1s4.37,2.87,4.37,2.87h0a5.49,5.49,0,0,0,6.75-1.27h0s4,1,6.73-1.95a9.48,9.48,0,0,1-2.53-4.59,13.31,13.31,0,0,0,4.16,3.8c1.5-.31,4-1.3,3.75-4.42a5.05,5.05,0,0,0,2.82-5.55,9.54,9.54,0,0,1-4.66-2c-.15-.11,3.07,1,5.21.52a5.55,5.55,0,0,0,.09-5.75s1.94-3.35-.56-5c-1.46.45-3.68,1-4.37.14a7.74,7.74,0,0,0,4.14-1.67,3.72,3.72,0,0,0-2.23-3.51h0c-3.13-5.19-8-8.23-10.22-6.78-3,1.92-7.2,6.16-5.26,11.64C68.22,36.71,73,42,71.21,47.25Z" transform="translate(-2 -10.29)"></path><path d="M25.17,66.34s-9.55,4.42-5.59,9.55,10,7,14,5.12a17,17,0,0,0,2-1.15h0s3.07.19,4-2.21A18.51,18.51,0,0,1,37.42,73a16.76,16.76,0,0,0,3.34,3.72,3.74,3.74,0,0,0,3.07-2.28h0c.09,0,1.53.61,2-.45,0,0-5-9.08-6-14.44C39.84,59.59,28.67,64.16,25.17,66.34Z" transform="translate(-2 -10.29)"></path><path d="M37,54.12c.14-.19.28-.35.42-.52-5.55-2.4-7.57-9-8.21-13.42a38.48,38.48,0,0,0-5.38,6A18.25,18.25,0,0,1,13.06,53s5.82-3.43,6.52-6.82c0,0-2.79,2.2-6.52-3.39S2.59,37.47,2.12,40.73s.47,3,1.63,7.92,1.86,10.24,10.48,13S29.83,64,37,54.12Z" transform="translate(-2 -10.29)"></path><path d="M51.41,34.41c-3.15-2.48-7.26-.43-7.26-.43a7.08,7.08,0,0,0-7.4,1.44h0a19.48,19.48,0,0,0-4.12,2s-.5.33-1.3,1a21.67,21.67,0,0,0,3.09,9.67,9.08,9.08,0,0,0,4.79,3.74c7.32-5.9,18,1.76,23.68-.14,6.29-2.1,6.75-10.52,2.79-12.83a24.42,24.42,0,0,0-2.91-1.37h0a4.85,4.85,0,0,0-5.44-1.83c-2.67-2.86-5.39-1.45-5.79-1.22Z" transform="translate(-2 -10.29)"></path><path d="M69.17,67.24c-5.14-1.27-9.65-3.12-12-6a18.61,18.61,0,0,1,0-5s-8.92-5-15.72-2.08c0,0,3.09,11.63,4.81,14.49S50.55,77.52,59.63,81l.38.15C61.54,77,64.53,70.53,69.17,67.24Z" transform="translate(-2 -10.29)"></path><path d="M95.25,71.91c-2.11-1.67-12.92-2-22.74-3.94-5.27,2.08-8.73,9.5-10.39,14.05,9.39,4,24,11.59,30.57,5.23C99.9,80.31,98.74,74.69,95.25,71.91Z" transform="translate(-2 -10.29)"></path><path d="M21,24.44c4.33,2.08,8,6.25,9.58,8.24.71-2.16,3-7.92,8.09-10.8a12.6,12.6,0,0,1,5.16-1.6A18.31,18.31,0,0,0,40,17.45c-7.19-4-20.14-10.43-22.86-5.22S15.16,21.64,21,24.44Z" transform="translate(-2 -10.29)"></path><path d="M32.91,32.85c2.74-1.49,9.15-3.93,18.57-1.2a40.24,40.24,0,0,0-5.56-9.11,10.67,10.67,0,0,0-6.15,1.31C35.77,26.12,33.71,30.66,32.91,32.85Z" transform="translate(-2 -10.29)"></path></svg>