<svg xmlns="http://www.w3.org/2000/svg" xmlns:xlink="http://www.w3.org/1999/xlink" version="1.1" x="0px" y="0px" viewBox="0 0 100 100" enable-background="new 0 0 100 100" xml:space="preserve"><path d="M94.461,92.202c-0.84-6.083-3.192-16.439-5.201-18.205c-0.119-0.105-26.188-11.859-26.188-11.859  c3.034-3.741,5.099-8.114,5.965-11.314c2.261-1.518,3.184-6.459,2.538-9.854l19.494-1.923c0.733-0.072,1.307-0.663,1.358-1.398  c0.052-0.735-0.435-1.4-1.151-1.573l-19.153-4.648c-0.119-3.436-1.022-13.215-7.268-19.619c-3.708-3.802-8.633-5.73-14.637-5.73  c-6.009,0-10.883,1.931-14.486,5.739c-6.033,6.378-6.668,16.096-6.69,19.592L7.93,36.069c-0.726,0.16-1.227,0.825-1.182,1.567  c0.045,0.742,0.623,1.341,1.363,1.412l21.163,2.04c-0.533,3.664,0.662,8.455,2.606,9.763c0.606,2.255,2.213,7.206,5.532,11.523  c0,0-26.513,11.495-26.645,11.624C8.9,75.816,6.499,87.277,5.552,92.119c-0.086,0.443,0.031,0.901,0.317,1.25  c0.287,0.349,0.715,0.55,1.166,0.55h85.929c0.437,0,0.852-0.189,1.139-0.518C94.39,93.072,94.52,92.635,94.461,92.202z   M73.891,82.388h3.858v9.24H22.902v-9.24h4.22c0.473,0,0.856-0.384,0.856-0.856V69.743l5.902-2.551v14.34  c0,0.473,0.383,0.856,0.856,0.856h31.543c0.473,0,0.856-0.384,0.856-0.856V67.175l5.902,2.54v11.817  C73.036,82.005,73.418,82.388,73.891,82.388z M40.676,64.224c2.868,2.564,6.085,3.866,9.589,3.866c3.228,0,6.479-1.42,9.494-4.122  c0.07,0.045,1.989,0.889,1.989,0.889c-0.641,3.623-3.897,6.392-7.815,6.392h-7.6c-4.028,0-7.145-2.567-7.674-6.122  C38.657,65.128,40.609,64.267,40.676,64.224z M34.643,49.459c-0.126-0.526-0.524-0.945-1.044-1.097  c-0.086-0.026-0.41-0.288-0.746-1.133c-0.835-2.1-0.055-6.599,0.055-6.861c6.648,0.377,28.428,0.367,34.988-0.029  c0.128,0.265,0.989,4.456,0.228,6.637c-0.347,0.997-0.703,1.321-0.798,1.356c-0.531,0.152-0.936,0.581-1.058,1.119  c-0.72,3.177-6.547,16.929-16.003,16.929C40.056,66.379,35.068,51.229,34.643,49.459z M31.291,83.637  c-1.605,0-2.91,1.306-2.91,2.911c0,1.605,1.305,2.911,2.91,2.911c1.605,0,2.91-1.306,2.91-2.911  C34.201,84.943,32.896,83.637,31.291,83.637z M70.084,83.637c-1.604,0-2.909,1.306-2.909,2.911c0,1.605,1.305,2.911,2.909,2.911  c1.605,0,2.91-1.306,2.91-2.911C72.994,84.943,71.689,83.637,70.084,83.637z"></path></svg>