<svg xmlns="http://www.w3.org/2000/svg" xmlns:xlink="http://www.w3.org/1999/xlink" version="1.1" x="0px" y="0px" viewBox="0 0 100 100" enable-background="new 0 0 100 100" xml:space="preserve"><path fill-rule="evenodd" clip-rule="evenodd" d="M15,59.275c-0.167-0.168-0.35-0.25-0.55-0.25h-3.5c-0.534,0-0.8,0.266-0.8,0.799  v8.701c0,0.533,0.267,0.799,0.8,0.799h8.55v-0.049l0.05,0.049c0.567,0,0.85-0.266,0.85-0.799v-3.551c0-0.566-0.283-0.85-0.85-0.85  l-0.05,0.049v-0.049h-4.25v-4.301C15.25,59.592,15.167,59.408,15,59.275z M20.45,35.025v-3.5c0-0.234-0.1-0.418-0.3-0.551  c-0.167-0.166-0.35-0.25-0.55-0.25h-8.7c-0.2,0-0.383,0.084-0.55,0.25c-0.167,0.133-0.25,0.316-0.25,0.551v8.549h0.05l-0.05,0.051  c0,0.266,0.083,0.467,0.25,0.6c0.167,0.166,0.35,0.25,0.55,0.25h3.55c0.566,0,0.85-0.283,0.85-0.85l-0.05-0.051h0.05v-4.25h4.3  c0.2,0,0.383-0.066,0.55-0.199C20.35,35.457,20.45,35.258,20.45,35.025z M63.6,63.674c3.767-3.766,5.65-8.316,5.65-13.648  c0-5.334-1.883-9.885-5.65-13.65c-3.767-3.768-8.317-5.65-13.65-5.65c-5.333,0-9.883,1.883-13.65,5.65  c-3.767,3.766-5.65,8.316-5.65,13.65c0,5.332,1.883,9.883,5.65,13.648c3.767,3.768,8.317,5.65,13.65,5.65  C55.283,69.324,59.833,67.441,63.6,63.674z M85.5,59.025c-0.567,0-0.85,0.283-0.85,0.85v4.299h-4.3c-0.567,0-0.85,0.283-0.85,0.852  v3.5c0,0.533,0.283,0.799,0.85,0.799H89c0.533,0,0.8-0.266,0.8-0.799v-8.65c0-0.566-0.267-0.85-0.8-0.85H85.5z M94.9,29.525H95  v40.949h-0.1c0,1.1-0.383,2.033-1.15,2.801c-0.767,0.766-1.7,1.148-2.8,1.148h-82c-1.1,0-2.05-0.383-2.85-1.148  C5.367,72.508,5,71.574,5,70.475V29.525c0-1.102,0.367-2.018,1.1-2.75c0.8-0.801,1.75-1.201,2.85-1.201h82  c1.1,0,2.033,0.4,2.8,1.201C94.517,27.541,94.9,28.457,94.9,29.525z M89.8,31.525c0-0.535-0.267-0.801-0.8-0.801h-8.65  c-0.567,0-0.85,0.266-0.85,0.801v3.5c0,0.566,0.283,0.85,0.85,0.85h4.3v4.299c0,0.566,0.283,0.852,0.85,0.852H89  c0.533,0,0.8-0.285,0.8-0.852V31.525z M55.25,49.824c0.467-1,0.7-2.066,0.7-3.199c0-0.566-0.1-1.201-0.3-1.9  c-0.333-1.434-1.017-2.633-2.05-3.6c-1.1-0.967-2.317-1.451-3.65-1.451c-1.3,0-2.483,0.467-3.55,1.4c-1.033,0.9-1.733,2.066-2.1,3.5  c-0.233,0.9-0.35,1.584-0.35,2.051c0,1.166,0.283,2.299,0.85,3.4c0.567,1.199,1.367,2.115,2.4,2.75l-8.05,3.799  c-0.566,0.201-0.85,0.666-0.85,1.4v0.1c-1.667-2.4-2.5-5.084-2.5-8.049c0-3.9,1.383-7.25,4.15-10.051c2.767-2.768,6.1-4.15,10-4.15  c3.9,0,7.25,1.383,10.05,4.15c2.767,2.801,4.15,6.15,4.15,10.051c0,2.965-0.833,5.648-2.5,8.049v-0.1c0-0.699-0.283-1.166-0.85-1.4  l-8-3.85C53.867,52.092,54.683,51.125,55.25,49.824z"></path></svg>