<svg xmlns="http://www.w3.org/2000/svg" xmlns:xlink="http://www.w3.org/1999/xlink" version="1.1" x="0px" y="0px" viewBox="0 0 100 100" enable-background="new 0 0 100 100" xml:space="preserve"><path fill="#000000" d="M31,30.979l13-7.67v-7.7L24.044,3.946L4.379,15.345L4,15.664v23.266l19.787,11.399l0.423,0.236l6.79-3.88  V30.979z M24,48.221L6,37.875V17.721l18,10.341V48.221z M6.823,16.138L24.288,6.054l17.921,10.347l-17.465,10.08l0,0L6.823,16.138z"></path><path fill="#000000" d="M75.757,3.946L56.236,15.345L56,15.664v7.645l13,7.67v15.716l6.358,3.634l0.495,0.236L96,38.929v-23.32  L75.757,3.946z M75.259,26.481L57.794,16.401L75.715,6.054L93.18,16.138L75.259,26.481z M94,37.875L76,48.221V28.062l18-10.341  V37.875z"></path><path fill="#000000" d="M63.684,56.481L50,64.382l-13.765-7.947l-5.928,3.449L30,60.201v23.267l19.644,11.398l0.352,0.236L70,83.468  V60.146L63.684,56.481z M49,92.444L32,82.413V61.758L49,71.81V92.444z M68,82.413L51,92.446V71.81l17-10.051V82.413z"></path><polygon fill="#000000" points="68,32.632 68,31.551 67.245,31.03 49.937,41.059 32.732,31.023 32,31.551 32,32.631 49,42.641   49,62.66 50,63.237 51,62.66 51,42.641 "></polygon></svg>