<svg xmlns="http://www.w3.org/2000/svg" xmlns:xlink="http://www.w3.org/1999/xlink" version="1.1" x="0px" y="0px" viewBox="0 0 100 100" style="enable-background:new 0 0 100 100;" xml:space="preserve"><g><path d="M78,18H22c-8.3,0-15,6.7-15,15v34c0,8.3,6.7,15,15,15h56c8.3,0,15-6.7,15-15V33C93,24.7,86.3,18,78,18z M22,24h56   c5,0,9,4,9,9v3H13v-3C13,28,17,24,22,24z M78,76H22c-5,0-9-4-9-9V42h74v25C87,72,83,76,78,76z"></path><path d="M22.7,56h19.2c1.7,0,3-1.3,3-3s-1.3-3-3-3H22.7c-1.7,0-3,1.3-3,3S21,56,22.7,56z"></path><path d="M66,62H22.7c-1.7,0-3,1.3-3,3c0,1.7,1.3,3,3,3H66c1.7,0,3-1.3,3-3C69,63.3,67.7,62,66,62z"></path></g></svg>