<svg xmlns="http://www.w3.org/2000/svg" xmlns:xlink="http://www.w3.org/1999/xlink" version="1.1" x="0px" y="0px" viewBox="0 0 100 100" enable-background="new 0 0 100 100" xml:space="preserve"><g><path d="M93.25,64.843V36.422H6.75v28.421H93.25z M63.695,42.292c2.22,0,4.235,0.842,5.768,2.215   c1.531-1.373,3.548-2.215,5.767-2.215c4.776,0,8.65,3.873,8.65,8.65s-3.874,8.65-8.65,8.65c-2.219,0-4.235-0.843-5.767-2.216   c-1.532,1.373-3.548,2.216-5.768,2.216c-4.776,0-8.649-3.873-8.649-8.65S58.919,42.292,63.695,42.292z M13.237,44.145H41.35v2.471   H13.237V44.145z M13.237,50.324H41.35v2.471H13.237V50.324z M41.35,56.502v2.472H13.237v-2.472H41.35z"></path><path d="M93.25,31.479v-0.927c0-2.73-2.213-4.943-4.942-4.943H11.693c-2.729,0-4.943,2.213-4.943,4.943v0.927H93.25z"></path><path d="M6.75,69.786v1.545c0,2.729,2.213,4.942,4.943,4.942h76.615c2.729,0,4.942-2.213,4.942-4.942v-1.545H6.75z"></path></g></svg>