<svg xmlns="http://www.w3.org/2000/svg" xmlns:xlink="http://www.w3.org/1999/xlink" version="1.1" x="0px" y="0px" viewBox="0 0 48 48" enable-background="new 0 0 48 48" xml:space="preserve"><g><polygon fill="#000000" points="14,24 14,24 14,24  "></polygon><polygon fill="#000000" points="34,24 34,24 34,24  "></polygon></g><g><path fill="#000000" d="M45,7.7H3c-1.7,0-3,1.3-3,3v26.5c0,1.7,1.3,3,3,3h42c1.7,0,3-1.3,3-3V10.7C48,9.1,46.7,7.7,45,7.7z    M13.7,11.7h0.8c0.7,0,1.2,0.5,1.2,1.2v0.8h-2V11.7z M13.7,15.7h2v3.7h-2V15.7z M13.7,21.4h2v0.8c0,0.7-0.5,1.2-1.2,1.2h-0.8V21.4z    M8,11.7h3.7v2H8V11.7z M8,15.7h3.7v3.7H8V15.7z M8,21.4h3.7v2H8V21.4z M4,12.9c0-0.7,0.5-1.2,1.2-1.2H6v2H4V12.9z M4,15.7h2v3.7H4   V15.7z M4,21.4h2v2H5.2c-0.7,0-1.2-0.5-1.2-1.2V21.4z M10.7,34.2H3c-0.5,0-1-0.4-1-1s0.5-1,1-1h7.7c0.5,0,1,0.4,1,1   S11.3,34.2,10.7,34.2z M22.3,34.2h-7.7c-0.6,0-1-0.4-1-1s0.4-1,1-1h7.7c0.5,0,1,0.4,1,1S22.8,34.2,22.3,34.2z M33.7,34.2h-7.6   c-0.6,0-1-0.4-1-1s0.4-1,1-1h7.6c0.6,0,1,0.4,1,1S34.3,34.2,33.7,34.2z M33.4,23.4c-3.2,0-5.8-2.6-5.8-5.8c0-3.2,2.6-5.8,5.8-5.8   c0.8,0,1.7,0.2,2.4,0.5c0.7-0.3,1.5-0.5,2.4-0.5c3.2,0,5.8,2.6,5.8,5.8c0,3.2-2.6,5.8-5.8,5.8c-0.8,0-1.7-0.2-2.4-0.5   C35.1,23.2,34.3,23.4,33.4,23.4z M45,34.2h-7.3c-0.6,0-1-0.4-1-1s0.4-1,1-1H45c0.6,0,1,0.4,1,1S45.6,34.2,45,34.2z"></path><path fill="#000000" d="M33.4,13.7c-2.1,0-3.8,1.7-3.8,3.8c0,2.1,1.7,3.8,3.8,3.8s3.8-1.7,3.8-3.8C37.3,15.5,35.5,13.7,33.4,13.7z"></path><path fill="#000000" d="M42,17.6c0-2.2-1.9-4-4.2-3.8c1.9,2.2,1.9,5.5,0,7.6C40.1,21.6,42,19.8,42,17.6z"></path></g></svg>