<svg xmlns="http://www.w3.org/2000/svg" xmlns:xlink="http://www.w3.org/1999/xlink" version="1.1" x="0px" y="0px" viewBox="0 0 100 100" enable-background="new 0 0 100 100" xml:space="preserve"><path d="M62.4,28.1c0,0,1.9-1.5,3.5-1.5c0,0-1.7-1.3,0.3-3.3c2-2,4-1.8,6.5,1.2c0,0,0.2-0.5,1.1-0.8c0,0,0.6-1.7,2.7-1.7  c2.1,0,2.2,1.4,2.2,1.4s2.8-0.6,5,0.6c2.2,1.2,4.9,2,8.1,2.1c3.1,0.1,5,0.6,4.1,1.8c0,0-0.2,0.7-0.7,1s-0.5,0.7-0.6,1.1  c-0.1,0.4-0.7,2.6-1.6,3.2c-0.8,0.6-5.2,2.4-6.9,3.2c-1.7,0.8-7.2,4.5-7.9,5c-0.7,0.5-1.1,1.4-1.7,1.7c-0.6,0.3-0.4,1.5-0.4,2.1  s-0.3,1.9,0,2.6c0.3,0.7,1.2,3,1.6,3.9c0.4,0.9,0.6,2.4,1.6,3.3s0.7,1.6,1.3,2.3c0.6,0.8,1.7,2.5,2,3.3c0.2,0.7,1.4,2.2,2.2,3.5  c0.8,1.2,1.6,2.1,1.7,2.9s1.8,1.6,2.4,3.2c0.6,1.6,0.4,1.8,0,2.3c-0.4,0.5-0.2-0.3-0.6-0.9c-0.4-0.6,0,0.6-0.5,0.7s-0.5-1.2-0.9-1.3  c-0.4-0.1-0.1,1.1-0.5,1.1c-0.4,0-0.2-0.9-0.8-1.1c-0.6-0.2-0.3,0.4-0.9,0c-0.6-0.4-1.7-1.2-2.2-1.7c-0.5-0.5-1-1.7-1.6-1.4  c-0.6,0.2-0.4,0.2-1,0c-0.6-0.3-1.2,0.5-1.5,0.3s-0.9,0-1.5-0.5s-4.5-2.6-5.9-3.6c-1.1-0.7-4-4.5-4-4.5s-1.5-1-1.7-1.6  c-0.2-0.6,0,0.4-0.6,1.4c-0.6,1-2.4,4-2.9,4.9c-0.5,0.9-1.2,3.4-1.6,4c-0.4,0.7-1.1,2.9-1,3.6c0.1,0.8,0.8,2.1,1.9,2.5  s3.3,0.3,3.7,0.9c0.5,0.7,1.3,1.9,0.7,1.8c-0.5-0.1-1.4-1-1.7-1s0.8,1.1,0.3,1.2c-0.5,0.1-1.8-0.9-2.1-1c-0.2-0.1,0.6,0.9,0,1  c-0.6,0.1-1.7-0.6-2.4-0.7c-0.7-0.1-4.2,0.3-5.3,0.1c-1.1-0.2-1.4-0.9-1.5-1.6c-0.1-0.7-0.7-1.3-1-1.9c-0.3-0.5-2.2-4.8-2.2-4.8  s-2.1-4.5-2-6.7c0.1-2.2-0.4-3.4-0.3-4.3s-4,2.4-5.7,2.7s-1.4,1.2-1.4,2c0,0.7,0.9,4,1,5c0.1,1.1,0.6,3.8,0.8,4.8  c0.1,1.1,1,1.9,2.2,2.2c1.2,0.3,3.2,1,3.5,1.9s-0.4,0.2-1.1,0.1c-0.8-0.1-1.1,0.6-1.7,0.4c-0.6-0.2-1.6-0.5-2.6-0.5  s-3.3,0.4-4.7,0.2c-1.4-0.1-2.2-0.5-2.5-1.1c-0.4-0.6-1.1-2.2-1.9-3.1c-0.8-0.9-2-3.1-2.3-3.5c-0.3-0.4-2.2-3.3-2.8-4.5  c-0.6-1.3-2.4-2.6-2.9-2.9c-0.5-0.3-1.9-0.6-2.5,0.1c-0.6,0.7-3.3,4.3-3.5,5.1c-0.2,0.8-2.2,5.1-3,6.1c-0.7,1-2,1.9-1.6,2.5  c0.4,0.6,3.1,0.7,3.6,1.6c0.5,1,0.1,0.8-0.6,0.7s-1.1,0.1-1.8,0.1c-0.6,0,0.1,1.2-0.8,0.7c-0.9-0.5-2.1-1.5-2.4-1.2  c-0.3,0.2-1,0.6-1.6,0.4C10,76.9,7.9,76.9,7,77.1s-0.9-1.6-1-2.4c-0.1-0.8-0.1-5.4,0.2-6.6c0.3-1.2-0.1-3.8,0-5.4  c0.1-1.6,0.6-8.7,0.9-10.4c0.2-1.6,1.1-9.6,4.4-14.8s6.4-9.2,14.1-10.8s12.9,2.2,18.2,2.1s4.2-0.5,6.8-1.5s5.7-2,8.8-1  C61.9,27,62.4,28.1,62.4,28.1z"></path></svg>