<svg xmlns="http://www.w3.org/2000/svg" xmlns:xlink="http://www.w3.org/1999/xlink" version="1.1" x="0px" y="0px" viewBox="0 0 100 100" enable-background="new 0 0 100 100" xml:space="preserve"><path d="M81.748,60.979c-0.495,0.243-4.477,1.65-30.091,1.65c-28.395,0-32.61-1.444-33.108-1.679  c-0.041-0.032-0.085-0.062-0.129-0.087c-0.181-0.102-4.408-2.526-4.408-8.291c0-5.888,3.599-7.05,4.555-7.254  c0.353,0.104,0.706,0.178,0.993,0.188c0.722,0.085,7.483,0.81,30.54,0.81c23.078,0,29.922-0.726,30.641-0.81  c0.258-0.009,0.587-0.075,0.932-0.167c1.091,0.26,4.476,1.526,4.476,7.233c0,5.328-3.469,7.799-4.204,8.275  C81.875,60.886,81.807,60.93,81.748,60.979z M17.018,36.158c-1.356,4.975,0.562,6.59,1.877,7.087  c0.026,0.007,0.051,0.033,0.076,0.042c0.343,0.125,0.601,0.164,0.664,0.164c0.042,0,0.089,0.008,0.13,0.013  c0.063,0.008,6.557,0.802,30.336,0.802c23.859,0,30.377-0.792,30.441-0.8c0.042-0.005,0.085-0.007,0.128-0.007  c0.04,0,0.178-0.016,0.376-0.062c0.131-0.076,0.273-0.126,0.435-0.138c1.304-0.521,3.139-2.433,1.806-7.33  C81.696,30.083,77.975,29,77.558,29H23.065C22.999,29,18.676,30.092,17.018,36.158z M18.06,62.906  c-0.67,0.592-2.13,2.566-0.539,7.781c1.558,5.139,4.165,6.062,4.19,6.071c0.063,0.021,0.142,0.054,0.2,0.087  c0.035,0.018,5.202,2.601,28.241,2.601c23.075,0,28.421-2.591,28.474-2.616c0.056-0.03,0.127-0.057,0.187-0.076  c0.01-0.004,2.616-0.928,4.174-6.064c1.628-5.339,0.064-7.278-0.592-7.825c-3.832,1.482-18.431,1.813-30.737,1.813  C38.216,64.678,22.256,64.354,18.06,62.906z M22.338,25.345c-0.246,0.763-0.042,1.344,0.102,1.623  c0.182,0.351,0.416,0.527,0.561,0.574l54.749,0.014c0.072,0,0.284-0.093,0.492-0.38c0.134-0.186,0.546-0.865,0.227-1.826  c-2.293-7.015-7.519-9.008-8.543-9.341C69.89,15.995,68.836,16,68.81,16H32.012c-0.041,0-1.117,0.006-1.179,0.026  C29.813,16.361,24.628,18.356,22.338,25.345z M23.572,86.207c4.136,4.365,8.229,7.229,26.683,7.229  c18.449,0,22.546-2.863,26.691-7.229c3.015-3.188,2.286-5.976,1.711-7.2c-2.329,0.776-9.604,2.488-28.504,2.488  c-18.776,0-25.967-1.693-28.294-2.479C21.294,80.256,20.587,83.058,23.572,86.207z M68.699,10.843  c-2.011-1.807-8.16-3.391-10.839-3.637c-2.458-0.225-12.074-0.15-15.012-0.008c-2.838,0.146-8.805,1.864-10.794,3.651  C30.521,12.226,30.747,13,31.033,14h38.682C70.001,13,70.237,12.223,68.699,10.843z M81.337,43.316  c0.046-0.017,0.095-0.038,0.143-0.056c-0.161,0.011-0.304,0.062-0.435,0.138C81.131,43.376,81.226,43.351,81.337,43.316z"></path></svg>