<svg xmlns="http://www.w3.org/2000/svg" data-name="Layer 1" viewBox="0 0 100 100" x="0px" y="0px"><title>berries</title><path d="M94.08,12.17a1.9,1.9,0,0,0-3.78-.34c0,.5-1.44,12.27-20.14,19a48.27,48.27,0,0,0-9.83,5L33.21,32.15C32.6,26.76,28.17,22,22,20.79,14.59,19.3,7.48,23.54,6.14,30.25s3.6,13.35,11,14.84S31.49,42.47,33,35.94L55.78,39C42.2,49.46,32.44,64.37,31.9,65.2c0,0,0,0,0,.06-7.36-1.36-14.35,2.85-15.68,9.49s3.6,13.35,11,14.84,14.55-2.75,15.89-9.46C44.25,74.55,41,69,35.62,66.47A121.69,121.69,0,0,1,54.78,44.74L57.5,61.95c-5.07,1-9.19,4.55-10.18,9.49-1.34,6.71,3.6,13.35,11,14.84s14.55-2.75,15.89-9.46-3.6-13.35-11-14.84a15.25,15.25,0,0,0-1.91-.24L58.19,42a49.68,49.68,0,0,1,13.26-7.59C92.57,26.8,94,12.76,94.08,12.17ZM10.84,26.73c-1.27,1.54-2.5,2.62-2.74,2.43S8.7,27.55,10,26s2.5-2.62,2.74-2.43S12.11,25.19,10.84,26.73Zm10.34,44.5c-1.27,1.54-2.5,2.62-2.74,2.43s.6-1.6,1.88-3.14,2.5-2.62,2.74-2.43S22.45,69.69,21.17,71.23ZM52,67.91c-1.27,1.54-2.5,2.62-2.74,2.43s.6-1.6,1.88-3.14,2.5-2.62,2.74-2.43S53.3,66.38,52,67.91Z"></path></svg>