<svg xmlns:dc="http://purl.org/dc/elements/1.1/" xmlns:cc="http://creativecommons.org/ns#" xmlns:rdf="http://www.w3.org/1999/02/22-rdf-syntax-ns#" xmlns:svg="http://www.w3.org/2000/svg" xmlns="http://www.w3.org/2000/svg" xmlns:sodipodi="http://sodipodi.sourceforge.net/DTD/sodipodi-0.dtd" xmlns:inkscape="http://www.inkscape.org/namespaces/inkscape" viewBox="0 0 32 32.000001" version="1.1" x="0px" y="0px"><g transform="translate(0,-1020.3622)"><path style="" d="m 2.515,1027.8622 c -0.1443,4.7287 0.6603,7.9976 4.5215,10.8594 0.1867,0.1441 0.5027,0.2996 0.7754,0.4219 0.5898,-1.3262 2.0898,-2.5762 3.8366,-2.9512 -0.011,-0.095 -0.012,-0.1985 -0.018,-0.2813 -4e-4,-1.396 0.5429,-2.6619 1.4102,-3.6269 9e-4,-10e-4 0,-0 0,-0 -2.872,-4.1721 -5.3372,-3.9435 -10.5234,-4.418 z" fill="#000000" fill-rule="evenodd" stroke="none"></path><path d="m 20.5013,1037.8622 a 4.499985,4.4999998 0 0 0 -4.5,4.5 4.499985,4.4999998 0 0 0 4.5,4.5 4.499985,4.4999998 0 0 0 4.5,-4.5 4.499985,4.4999998 0 0 0 -4.5,-4.5 z m 1.0195,2.4922 a 0.50004993,0.50004993 0 0 1 0.2461,0.9316 c 0,0 -0.2219,0.1441 -0.5019,0.2813 -0.2802,0.1372 -0.6016,0.2949 -1.0117,0.2949 -0.4102,0 -0.7395,-0.1577 -1.0196,-0.2949 -0.2803,-0.1372 -0.4941,-0.2813 -0.4941,-0.2813 a 0.50004993,0.50004993 0 0 1 0.1992,-0.9218 0.50004993,0.50004993 0 0 1 0.3399,0.08 c 0,0 0.1724,0.1119 0.3984,0.2226 0.2258,0.1108 0.5229,0.1992 0.5762,0.1992 0.053,0 0.3501,-0.089 0.5761,-0.1992 0.2259,-0.1107 0.3985,-0.2226 0.3985,-0.2226 a 0.50004993,0.50004993 0 0 1 0.2929,-0.09 z" style="opacity:1;fill:#000000;fill-opacity:1;stroke:none;stroke-width:0.99999988;stroke-linecap:round;stroke-linejoin:round;stroke-miterlimit:4;stroke-dasharray:none;stroke-dashoffset:0;stroke-opacity:1"></path><path d="m 13.0501,1036.8622 a 5.139583,5.0003625 0 0 0 -3.291,1.2285 5.139583,5.0003625 0 0 0 -0.5136,7.0391 5.139583,5.0003625 0 0 0 7.1171,0.6172 c -0.7622,-0.9274 -1.2402,-2.0954 -1.2402,-3.3828 0,-1.5555 0.6807,-2.9502 1.7461,-3.9336 a 5.139583,5.0003625 0 0 0 -3.8184,-1.5684 z m -0.082,2.002 a 0.50004993,0.50004993 0 0 1 0.4277,0.8046 c 0,0 -0.1098,0.148 -0.2519,0.3184 -0.1423,0.1705 -0.3018,0.3607 -0.4942,0.5156 -0.5289,0.4285 -1.4316,0.8125 -1.4316,0.8125 a 0.50036786,0.50036786 0 0 1 -0.4199,-0.9082 c 0,0 0.9521,-0.457 1.2246,-0.6777 a 0.50004993,0.50004993 0 0 1 0,-0.01 c 0.062,-0.05 0.2277,-0.2258 0.3535,-0.377 0.1259,-0.1508 0.2227,-0.2812 0.2227,-0.2812 a 0.50004993,0.50004993 0 0 1 0.3691,-0.1992 z" style="opacity:1;fill:#000000;fill-opacity:1;stroke:none;stroke-width:0.99999988;stroke-linecap:round;stroke-linejoin:round;stroke-miterlimit:4;stroke-dasharray:none;stroke-dashoffset:0;stroke-opacity:1"></path><path d="m 17.0013,1031.3603 a 4.5000188,4.5474919 0 0 0 -4.5,4.5488 4.5000188,4.5474919 0 0 0 0.01,0.1308 c 0.1766,-0.018 0.3505,-0.05 0.5293,-0.053 1.6811,-0.025 3.2999,0.6368 4.4609,1.834 l 0.057,0.059 c 0.8485,-0.5604 1.8618,-0.8906 2.9493,-0.8906 0.2881,0 0.5695,0.028 0.8457,0.072 a 4.5000188,4.5474919 0 0 0 0.1523,-1.1523 4.5000188,4.5474919 0 0 0 -4.5,-4.5489 z m -1.0078,2.5 a 0.50004993,0.50004993 0 0 1 0.2812,0.08 c 0,0 0.1725,0.112 0.3985,0.2227 0.2258,0.1107 0.5229,0.1992 0.5762,0.1992 0.053,0 0.3482,-0.089 0.5742,-0.1992 0.2259,-0.1107 0.3984,-0.2227 0.3984,-0.2227 a 0.50310684,0.50310684 0 1 1 0.5391,0.8497 c 0,0 -0.2141,0.1362 -0.4942,0.2734 -0.2801,0.1372 -0.6074,0.3027 -1.0175,0.3027 -0.4102,0 -0.7317,-0.1655 -1.0118,-0.3027 -0.2801,-0.1376 -0.5019,-0.2734 -0.5019,-0.2734 a 0.50004993,0.50004993 0 0 1 0.2578,-0.9297 z" style="opacity:1;fill:#000000;fill-opacity:1;stroke:none;stroke-width:0.99999988;stroke-linecap:round;stroke-linejoin:round;stroke-miterlimit:4;stroke-dasharray:none;stroke-dashoffset:0;stroke-opacity:1"></path><path d="m 29.4876,1025.8622 c -5.107,0.4683 -8.1204,0.6914 -11.0078,4.8398 2.2481,0.6515 3.9012,2.7439 3.9004,5.209 l 0,0 0,0 c 0,0.4586 -0.064,0.914 -0.1797,1.3575 0.2883,0.095 0.5677,0.2114 0.8321,0.3535 5.9558,-1.4646 6.5762,-6.7034 6.455,-11.7637 z" style="" fill="#000000" fill-rule="evenodd" stroke="none"></path></g></svg>