<svg xmlns:dc="http://purl.org/dc/elements/1.1/" xmlns:cc="http://creativecommons.org/ns#" xmlns:rdf="http://www.w3.org/1999/02/22-rdf-syntax-ns#" xmlns:svg="http://www.w3.org/2000/svg" xmlns="http://www.w3.org/2000/svg" xmlns:sodipodi="http://sodipodi.sourceforge.net/DTD/sodipodi-0.dtd" xmlns:inkscape="http://www.inkscape.org/namespaces/inkscape" viewBox="0 0 32 32.000001" version="1.1" x="0px" y="0px"><g transform="translate(0,-1020.3622)"><path style="opacity:1;fill:#000000;fill-opacity:1;fill-rule:evenodd;stroke:none;stroke-width:1;stroke-linecap:round;stroke-linejoin:round;stroke-miterlimit:4;stroke-dasharray:none;stroke-dashoffset:0;stroke-opacity:1" d="m 9.4345745,1032.8781 c -0.0974,-0.01 -0.19267,-0.01 -0.28711,0 -1.75652,0.2315 -3.36685,1.1767 -4.42578,2.6466 -2.09485,2.9152 -1.42894,6.9755 1.48632,9.0703 2.49113,1.7901 5.8143695,1.559 8.0371095,-0.3633 -0.31663,-1.171 -0.34781,-2.4341 -0.0234,-3.6894 0.32471,-1.2504 0.99175,-2.3438 1.8789,-3.2227 -0.26442,-0.3648 -0.72325,-0.6505 -1.13281,-0.7344 -0.82835,-0.17 -1.6588,-0.4349 -2.3418,-0.9238 -0.58225,-0.4202 -1.04247,-0.993 -1.42969,-1.6075 -0.3561,-0.5648 -1.08033,-1.1171 -1.7617095,-1.1796 z m 7.0585895,6.252 c -0.36748,0.5387 -0.65138,1.1405 -0.82031,1.7911 -0.15963,0.6176 -0.20898,1.2356 -0.16797,1.8377 0.68507,-1.1 1.02659,-2.3622 0.98828,-3.6288 z"></path><path style="opacity:1;fill:#000000;fill-opacity:1;fill-rule:evenodd;stroke:none;stroke-width:1;stroke-linecap:round;stroke-linejoin:round;stroke-miterlimit:4;stroke-dasharray:none;stroke-dashoffset:0;stroke-opacity:1" d="m 18.115154,1036.6677 c -1.55377,0.8513 -2.71266,2.3134 -3.16804,4.0668 -0.89812,3.4757 1.19141,7.0213 4.6671,7.9194 3.47569,0.8982 7.02136,-1.1914 7.91948,-4.667 0.48232,-1.8761 0.0996,-3.8504 -1.00731,-5.3986 -0.32523,-0.4548 -1.09197,-0.6643 -1.64374,-0.5707 -0.83368,0.1414 -1.70282,0.1946 -2.51641,-0.014 -0.69482,-0.181 -1.3325,-0.5491 -1.9158,-0.9818 -0.61303,-0.4547 -1.6669,-0.7205 -2.33528,-0.3543 z"></path><path d="m 18.889644,1024.6204 c -0.83236,0.028 -1.80672,0.1372 -2.37304,0.4629 -1.129,0.6494 -2.32813,3.1367 -2.32813,3.1367 0,0 2.76385,0.2138 3.89649,-0.4375 0.0839,-0.048 0.16783,-0.1247 0.25195,-0.1914 0.20156,-0.4997 0.37782,-1.0116 0.50977,-1.5391 l 0.35742,-1.4316 c -0.11404,10e-4 -0.19263,0 -0.31446,0 z" style="" fill="#000000" fill-rule="evenodd" stroke="none"></path><path style="color:#000000;font-style:normal;font-variant:normal;font-weight:normal;font-stretch:normal;font-size:medium;line-height:normal;font-family:sans-serif;text-indent:0;text-align:start;text-decoration:none;text-decoration-line:none;text-decoration-style:solid;text-decoration-color:#000000;letter-spacing:normal;word-spacing:normal;text-transform:none;direction:ltr;writing-mode:lr-tb;baseline-shift:baseline;text-anchor:start;white-space:normal;clip-rule:nonzero;display:inline;overflow:visible;visibility:visible;opacity:1;isolation:auto;mix-blend-mode:normal;color-interpolation:sRGB;color-interpolation-filters:linearRGB;solid-color:#000000;solid-opacity:1;fill:#000000;fill-opacity:1;fill-rule:evenodd;stroke:none;stroke-width:1px;stroke-linecap:round;stroke-linejoin:round;stroke-miterlimit:4;stroke-dasharray:none;stroke-dashoffset:0;stroke-opacity:1;color-rendering:auto;image-rendering:auto;shape-rendering:auto;text-rendering:auto;enable-background:accumulate" d="m 20.499024,1024.1124 a 0.50005,0.50005 0 0 0 -0.48828,0.379 l -0.43555,1.7423 c -0.66383,2.6538 -2.18105,5.0156 -4.31836,6.7246 l -2.4043,1.9218 c 0.0703,0.06 0.13952,0.1228 0.21289,0.1758 0.20774,0.1484 0.44562,0.2694 0.69532,0.3788 l 2.12109,-1.6953 c 2.3082,-1.8454 3.94516,-4.3975 4.66211,-7.2637 l 0.10742,-0.4336 0.55664,1.1114 c 1.29952,2.5977 1.65145,5.5667 0.99805,8.3965 l -0.33594,1.4628 c 0.22685,0.1096 0.45599,0.2039 0.68555,0.2637 0.0868,0.022 0.17931,0.032 0.26953,0.047 l 0.35547,-1.5488 c 0.70568,-3.0562 0.32534,-6.2629 -1.07813,-9.0684 l -1.16015,-2.3183 a 0.50005,0.50005 0 0 0 -0.44336,-0.2754 z"></path><path d="m 22.981444,1026.8352 c 0.42317,0.928 0.74843,1.8911 0.96289,2.877 0.12599,0.1122 0.2529,0.2145 0.37891,0.2871 1.13264,0.6513 3.89648,0.4355 3.89648,0.4355 0,0 -1.19912,-2.4873 -2.32812,-3.1367 -0.7079,-0.4071 -2.0011,-0.4684 -2.91016,-0.4629 z" style="" fill="#000000" fill-rule="evenodd" stroke="none"></path></g></svg>