<svg xmlns="http://www.w3.org/2000/svg" xmlns:xlink="http://www.w3.org/1999/xlink" version="1.1" x="0px" y="0px" viewBox="0 0 100 100" enable-background="new 0 0 100 100" xml:space="preserve"><g display="none"><rect x="-360.582" y="-361.489" display="inline" fill="#000000" stroke="#FFFFFF" stroke-width="3.2088" stroke-linecap="round" stroke-miterlimit="10" width="1175.643" height="710.073"></rect></g><g><path fill="none" d="M29.47,43.984c-0.202,1.804-0.294,3.667-0.258,5.577c0.047,4.828,0.009,9.841-0.107,14.848h8.957   c0.063-4.965,0.084-9.941,0.06-14.731c-0.02-1.954,0.035-3.851,0.145-5.693H29.47z"></path><path fill="none" d="M27.989,87.366h9.462c0.292-6.828,0.495-14.448,0.599-22.124h-8.968C28.892,72.894,28.52,80.488,27.989,87.366   z"></path><path fill="none" d="M38.811,87.366H49.24c0.002-7.217,0.004-14.635,0.004-22.124h-9.836   C39.304,72.917,39.102,80.535,38.811,87.366z"></path><path fill="none" d="M45.443,21.687c-3.165,0.778-6.052,2.41-8.493,4.873c-3.912,3.949-6.477,9.811-7.38,16.606h8.746   c0.684-9.672,3.128-17.488,6.76-21.139C45.198,21.907,45.321,21.799,45.443,21.687z"></path><path fill="none" d="M28.102,43.984h-6.379c-0.239,1.752-0.345,3.571-0.298,5.455c0.064,4.97,0.005,9.967-0.166,14.969h6.489   c0.116-5,0.154-10.008,0.107-14.828C27.818,47.668,27.905,45.798,28.102,43.984z"></path><path fill="none" d="M50,17.499c2.434,0,4.414-1.98,4.414-4.415S52.434,8.67,50,8.67s-4.415,1.98-4.415,4.415   S47.566,17.499,50,17.499z"></path><path fill="none" d="M49.244,43.167c-0.001-7.434-0.002-14.798-0.004-21.957c-1.114,0.167-2.188,0.759-3.2,1.776   c-3.349,3.366-5.678,10.949-6.358,20.181H49.244z"></path><path fill="none" d="M39.633,43.984c-0.115,1.842-0.173,3.738-0.153,5.683c0.025,4.794,0.003,9.774-0.059,14.742h9.823   c0.001-6.796,0-13.632,0-20.424H39.633z"></path><path fill="none" d="M35.985,25.605c1.233-1.245,2.582-2.272,4.01-3.12c-4.358,1.299-8.169,3.52-11.17,6.559   c-3.71,3.756-6.07,8.567-6.981,14.124h6.36C29.125,36.005,31.832,29.797,35.985,25.605z"></path><path fill="none" d="M19.657,87.346c-0.001,0.007-0.001,0.014-0.002,0.021h6.972c0.532-6.873,0.905-14.47,1.096-22.124h-6.499   C20.953,72.625,20.435,80.015,19.657,87.346z"></path><path fill="none" d="M78.576,49.448c0.022-1.882-0.103-3.705-0.354-5.464h-6.519c0.2,1.811,0.309,3.677,0.292,5.597v0   c-0.047,4.821-0.009,9.828,0.107,14.827h6.642C78.571,59.409,78.512,54.415,78.576,49.448z"></path><path fill="none" d="M61.797,65.243c0.103,7.674,0.303,15.294,0.591,22.124h9.464c-0.528-6.876-0.898-14.471-1.087-22.124H61.797z"></path><path fill="none" d="M78.775,65.243h-6.651c0.19,7.656,0.56,15.253,1.09,22.124h7.132c-0.001-0.007-0.001-0.014-0.002-0.021   C79.565,80.015,79.047,72.624,78.775,65.243z"></path><path fill="none" d="M70.635,49.569c0.017-1.919-0.089-3.782-0.294-5.585h-8.779c0.115,1.846,0.173,3.747,0.164,5.694   c-0.025,4.789-0.004,9.766,0.058,14.73h8.957C70.627,59.405,70.589,54.394,70.635,49.569z"></path><path fill="none" d="M66.118,28.231c2.859,3.905,4.737,9.076,5.495,14.936h6.487c-0.977-5.795-3.434-10.792-7.172-14.433   c-2.905-2.852-6.661-4.95-10.985-6.208C62.289,23.925,64.378,25.842,66.118,28.231z"></path><path fill="none" d="M65.021,29.032c-2.748-3.773-6.422-6.284-10.616-7.328c1.659,1.503,3.121,3.866,4.289,7.005   c1.448,3.884,2.404,8.884,2.809,14.458h8.735C69.497,37.609,67.718,32.717,65.021,29.032z"></path><path fill="none" d="M60.141,43.167c-0.398-5.403-1.323-10.238-2.719-13.984c-1.746-4.694-4.203-7.539-6.823-7.965   c0.002,7.156,0.004,14.518,0.004,21.949H60.141z"></path><path fill="none" d="M60.203,43.984h-9.6c0.001,6.792,0.001,13.628,0,20.424h9.823c-0.062-4.968-0.083-9.946-0.058-14.737   C60.377,47.725,60.319,45.825,60.203,43.984z"></path><path fill="none" d="M50.603,65.243c-0.001,7.489-0.002,14.906-0.004,22.124h10.43c-0.288-6.833-0.487-14.451-0.59-22.124H50.603z"></path><path d="M50,18.857c3.183,0,5.772-2.59,5.772-5.773S53.183,7.311,50,7.311s-5.773,2.59-5.773,5.773S46.817,18.857,50,18.857z    M50,8.67c2.434,0,4.414,1.98,4.414,4.415s-1.98,4.415-4.414,4.415s-4.415-1.98-4.415-4.415S47.566,8.67,50,8.67z"></path><path d="M81.707,87.366c-0.006-0.055-0.008-0.109-0.014-0.164c-0.773-7.283-1.289-14.626-1.56-21.959h1.761l-0.047-0.834h-1.747   c-0.172-4.994-0.231-9.983-0.167-14.944v-0.001c0.022-1.884-0.099-3.712-0.341-5.479h2.048l-0.047-0.817h-2.117   c-0.998-6.175-3.606-11.513-7.601-15.403c-5.215-5.122-12.987-7.951-21.875-7.967c-0.022,0-0.043,0.001-0.064,0   c-0.006,0-0.011,0-0.017,0c0,0,0,0,0,0c0,0,0,0,0,0c-0.01,0-0.02,0-0.03,0c-0.006,0-0.012,0.001-0.019,0.001   c-8.828-0.092-16.65,2.86-22.013,8.29c-3.964,4.013-6.469,9.152-7.396,15.079h-2.104v0.817h1.993   c-0.231,1.764-0.332,3.591-0.286,5.48c0.064,4.961,0.004,9.95-0.167,14.944h-1.794v0.834h1.762   c-0.271,7.333-0.787,14.676-1.56,21.959c-0.006,0.055-0.008,0.109-0.014,0.164H17.5v5.322h65v-5.322H81.707z M49.24,21.21   c0.002,7.159,0.004,14.523,0.004,21.957h-9.562c0.68-9.232,3.009-16.815,6.358-20.181C47.052,21.969,48.126,21.378,49.24,21.21z    M28.825,29.043c3.001-3.039,6.812-5.26,11.17-6.559c-1.427,0.849-2.776,1.876-4.01,3.12c-4.153,4.193-6.86,10.4-7.782,17.563   h-6.36C22.755,37.61,25.115,32.799,28.825,29.043z M26.627,87.366h-6.972c0.001-0.007,0.001-0.014,0.002-0.021   c0.778-7.33,1.296-14.721,1.568-22.103h6.499C27.533,72.896,27.16,80.493,26.627,87.366z M27.747,64.409h-6.489   c0.171-5.002,0.23-9.999,0.166-14.969c-0.047-1.885,0.059-3.704,0.298-5.455h6.379c-0.197,1.814-0.284,3.683-0.247,5.596   C27.901,54.401,27.863,59.409,27.747,64.409z M37.451,87.366h-9.462c0.531-6.878,0.903-14.472,1.093-22.124h8.968   C37.946,72.919,37.743,80.538,37.451,87.366z M38.063,64.409h-8.957c0.116-5.006,0.154-10.02,0.107-14.848   c-0.036-1.91,0.056-3.773,0.258-5.577h8.797c-0.11,1.842-0.165,3.739-0.145,5.693C38.147,54.468,38.125,59.444,38.063,64.409z    M29.571,43.167c0.903-6.795,3.467-12.657,7.38-16.606c2.44-2.463,5.327-4.096,8.493-4.873c-0.122,0.111-0.246,0.22-0.366,0.341   c-3.633,3.651-6.076,11.467-6.76,21.139H29.571z M49.24,87.366H38.811c0.291-6.831,0.494-14.449,0.598-22.124h9.836   C49.244,72.731,49.242,80.149,49.24,87.366z M49.245,64.409h-9.823c0.063-4.968,0.084-9.948,0.059-14.742   c-0.02-1.945,0.038-3.841,0.153-5.683h9.611C49.245,50.777,49.245,57.613,49.245,64.409z M70.927,28.734   c3.738,3.641,6.195,8.638,7.172,14.433h-6.487c-0.758-5.86-2.636-11.031-5.495-14.936c-1.74-2.389-3.829-4.306-6.175-5.705   C64.266,23.784,68.023,25.882,70.927,28.734z M57.421,29.183c1.396,3.746,2.321,8.581,2.719,13.984h-9.538   c-0.001-7.431-0.002-14.793-0.004-21.949C53.219,21.644,55.676,24.489,57.421,29.183z M60.426,64.409h-9.823   c0.001-6.796,0-13.632,0-20.424h9.6c0.116,1.84,0.173,3.741,0.164,5.687C60.343,54.463,60.364,59.441,60.426,64.409z    M50.599,87.366c0.002-7.217,0.004-14.635,0.004-22.124h9.835c0.103,7.673,0.302,15.291,0.59,22.124H50.599z M58.694,28.709   c-1.168-3.139-2.63-5.502-4.289-7.005c4.193,1.043,7.868,3.555,10.616,7.328c2.697,3.685,4.476,8.577,5.217,14.135h-8.735   C61.099,37.593,60.142,32.593,58.694,28.709z M61.726,49.678c0.009-1.947-0.049-3.848-0.164-5.694h8.779   c0.205,1.803,0.311,3.666,0.294,5.585c-0.047,4.825-0.009,9.836,0.106,14.839h-8.957C61.722,59.444,61.701,54.468,61.726,49.678z    M62.388,87.366c-0.288-6.829-0.488-14.449-0.591-22.124h8.968c0.189,7.653,0.559,15.248,1.087,22.124H62.388z M71.994,49.582   L71.994,49.582c0.017-1.921-0.092-3.786-0.292-5.598h6.519c0.251,1.758,0.376,3.582,0.354,5.464   c-0.064,4.967-0.005,9.961,0.166,14.961H72.1C71.985,59.41,71.947,54.403,71.994,49.582z M73.213,87.366   c-0.529-6.871-0.9-14.468-1.09-22.124h6.651c0.272,7.381,0.791,14.772,1.569,22.103c0.001,0.007,0.001,0.014,0.002,0.021H73.213z"></path></g></svg>