<svg xmlns="http://www.w3.org/2000/svg" xmlns:xlink="http://www.w3.org/1999/xlink" version="1.1" x="0px" y="0px" viewBox="0 0 100 100" enable-background="new 0 0 100 100" xml:space="preserve"><g><path d="M44.3,80.6c-8.2,7.4-23.2,7.9-31.9,0.7C7.6,77.4,6.1,72,5.6,66.2c-0.7-9.1,1.1-17.8,4.2-26.3c3.5-9.5,8.5-18.3,15-26.1   c1.5-1.7,3.1-3.4,4.8-4.8c2.7-2.3,5.2-2.1,7.2,0.7c2.4,3.4,4.7,7,6.6,10.7c4.6,9.5,7.1,19.6,7.7,30.1c0,0.7,0.1,1.4,0.1,1.4   c7.2,1.8,14.1,3.2,20.8,5.4c9.2,3,16.2,9,21.2,17.2c4.5,7.3,2.9,11-5.4,12.6c-11.5,2.3-23.1,1.9-34.3-1.8   C50.5,84.4,47.7,82.4,44.3,80.6z M22.7,28c-0.3,0-0.5,0.1-0.8,0.1c-1.2,4.3-0.2,8.6,0.3,12.9c0,0.2,0.3,0.5,0.5,0.6   c2.1,0.6,1.7,2.4,1.8,3.9c0.1,1.8,0.1,3.7,0.6,5.5c0.2,0.8,1.2,1.9,1.9,1.9c2.3,0,4.3,0.1,5,3.4c0.8-1.5,1.3-2.2,1.9-3.4   c3.1,4,1.2,9.2,3.8,13.5c0.3-1.3,0.5-2.1,0.8-2.9c3.9,2.8,5.9,2.8,7-0.4c1.4-4.2,2.8-8.5,3-12.8c0.3-9.8-2.4-19.1-6.5-27.9   c-1.8-3.9-4.3-7.6-6.7-11.2c-0.9-1.5-2.1-1.6-4-0.8c-3.8,1.8-5.4,5.4-7.6,8.4c-2.5,3.5-2.2,3.9,1.5,6.1c-0.3,2.9-0.7,5.8-1,8.8   c-0.1,0-0.2,0-0.4-0.1C23.5,31.6,23.1,29.8,22.7,28z M89.2,83.8c4.5-0.8,5.3-2,3.6-5.9c-0.9-2-2.1-3.9-3.4-5.6   c-6.7-8.9-16-13.4-26.6-15.5c-2.6-0.5-5.2-1-7.8-1.2c-0.8-0.1-1.6,0.7-2.4,1.1c0.5,0.8,0.8,1.8,1.4,2.2c1.9,1.3,4.1,2.3,6,3.7   c1.6,1.2,2.9,2.8,4.3,4.2c-0.2,0.2-0.3,0.5-0.5,0.7c-1.7-0.1-3.3-0.2-5.3-0.3c0.4,0.5,0.5,0.8,0.7,0.8c4.6,0.6,6.9,3.5,8.4,7.5   c1,2.5,3.5,3.3,6.2,2.3c0.6-0.2,1.2-0.5,1.6-0.7c1.5,1.6,2.5,3.7,4.1,4.3c1.8,0.6,4-0.1,6.1-0.2c0.1-0.3,0.2-0.6,0.3-0.9   c-4.2-2.1-8.5-4.2-12.7-6.4c0.1-0.2,0.2-0.5,0.3-0.7c1.9,0.4,3.8,1,5.8,1.3C84.7,75.4,88.5,78,89.2,83.8z M20,41.1   c0.3,0,0.6-0.1,0.9-0.1c-0.3-2.5-0.6-5.1-0.8-7.6c-0.2,0-0.4,0-0.6,0.1C19.6,36,19.8,38.6,20,41.1z"></path></g></svg>