<?xml version="1.0" encoding="utf-8"?><!DOCTYPE svg PUBLIC "-//W3C//DTD SVG 1.1//EN" "http://www.w3.org/Graphics/SVG/1.1/DTD/svg11.dtd"><svg version="1.1" xmlns="http://www.w3.org/2000/svg" xmlns:xlink="http://www.w3.org/1999/xlink" x="0px" y="0px" viewBox="0 0 67.643 100" enable-background="new 0 0 67.643 100" xml:space="preserve"><path fill="#010101" d="M59.348,16.419c-5.306-5.438-12.794-8.424-22.253-8.947c0.732-0.796,1.188-1.847,1.188-3.008
	C38.283,2.003,36.28,0,33.821,0c-2.461,0-4.463,2.003-4.463,4.464c0,1.17,0.463,2.229,1.204,3.026
	C0.625,9.492,0.002,36.967,0,37.264V100h6.82h9.444h10.034h15.042h10.035h9.443h6.82V37.288
	C67.653,36.795,67.842,25.126,59.348,16.419z M65.656,37.263v53.824h-4.834V37.283c0.011-0.573,0.177-14.15-8.394-22.889
	c-0.678-0.691-1.403-1.316-2.151-1.905c2.924,1.344,5.482,3.102,7.634,5.302C65.821,25.883,65.66,37.126,65.656,37.263z
	 M58.833,37.263v53.824h-7.457V48.825c0.308-2.1,0.835-4.039,1.761-5.022l3.685-1.016l-3.443-1.998l3.443-2.411
	c0,0-3.511-0.09-5.44-0.585c-0.002-0.003-0.002-0.004-0.005-0.007v-0.466c0.041-0.701,0.93-17.284-6.811-25.497
	c-0.27-0.285-0.551-0.546-0.834-0.802c2.778,1.073,5.212,2.655,7.27,4.752C58.986,23.909,58.836,37.112,58.833,37.263z
	 M18.251,37.223c-0.006-0.164-0.588-16.535,6.682-24.105c1.573-1.638,3.422-2.736,5.518-3.306
	c-3.875,6.396-4.144,23.417-4.151,27.451v19.771c-3.154,3.388-6.285,6.981-8.048,9.986V37.223z M33.821,9.357
	c0.004,0,0.008,0,0.011,0c0.021,0,0.04-0.001,0.059-0.001c0.38,0.005,0.744,0.184,1.112,0.555
	c3.664,3.682,4.386,20.989,4.354,27.353v3.55c-1.163,1.88-2.379,4-3.873,6.187c-1.121,1.638-4.017,4.58-7.199,7.924V37.265
	C28.307,25.726,30.041,9.504,33.821,9.357z M32.131,73.159c1.776,0.424,4.31,0.781,7.227,0.566v17.363H28.285V72.075
	C30.146,72.484,31.559,73.023,32.131,73.159z M41.344,91.088V73.487c0.794-0.129,1.601-0.288,2.431-0.52
	c2.727-0.763,4.488-2.252,5.616-4.024v22.146H41.344z M43.061,35.961c-0.605,0.549-1.169,1.2-1.717,1.918v-0.612
	c0.01-2.254-0.023-20.927-3.979-27.492c2.208,0.565,4.137,1.695,5.753,3.408c5.757,6.104,6.317,17.829,6.312,22.292
	C47.663,34.363,45.245,34.482,43.061,35.961z M18.688,72.647c2.606-1.13,5.303-1.204,7.612-0.916v19.357h-8.049V73.154
	L18.688,72.647z M23.499,11.742c-7.848,8.176-7.261,24.855-7.233,25.521v32.642l-5.961,0.439l3.52,2.618l-2.257,7.94l4.699-5.448
	v15.634H8.808V37.271c0.008-0.964,0.375-20.228,15.381-26.181C23.958,11.304,23.722,11.51,23.499,11.742z M33.823,1.986
	c1.366,0,2.476,1.11,2.476,2.479c0,1.365-1.11,2.476-2.476,2.476s-2.477-1.111-2.477-2.476C31.346,3.098,32.457,1.986,33.823,1.986z
	 M17.883,12.495C7.12,20.98,6.823,37.038,6.822,37.263v53.824H1.987V37.271C1.995,36.375,2.383,19.602,17.883,12.495z"></path></svg>