<svg xmlns:dc="http://purl.org/dc/elements/1.1/" xmlns:cc="http://creativecommons.org/ns#" xmlns:rdf="http://www.w3.org/1999/02/22-rdf-syntax-ns#" xmlns:svg="http://www.w3.org/2000/svg" xmlns="http://www.w3.org/2000/svg" xmlns:sodipodi="http://sodipodi.sourceforge.net/DTD/sodipodi-0.dtd" xmlns:inkscape="http://www.inkscape.org/namespaces/inkscape" version="1.1" x="0px" y="0px" viewBox="0 0 100 100"><g transform="translate(0,-952.36218)"><path style="color:#000000;enable-background:accumulate;" d="m 51.9851,983.36218 c -10.03902,0 -12.99569,9.14521 -22.99238,8.12908 -1.99934,-9.14521 -10.32632,-6.12529 -7.99735,0 -4.99835,5.08067 -7.99736,8.12907 -8.99703,8.12907 -1.9993302,0 -4.9983402,2.03227 -4.9983402,5.08067 0,3.0484 6.9976802,3.0484 10.9963602,3.0484 7.42332,2.4716 16.08907,5.3416 18.99371,7.1129 -9.99669,1.0162 -12.9957,2.0323 -12.9957,5.0807 l 33.98875,0 c 5.36343,0 13.10037,-7.3032 14.68263,-13.2097 1.78668,0.1016 5.22923,-0.033 5.31075,1.0161 -0.0274,0.748 -2.08656,1.7297 -3.06149,2.3498 -0.99967,0.6351 -2.05988,1.2923 -2.99901,2.1275 -0.93913,0.8353 -1.93686,1.9864 -1.93686,3.6518 0,1.1431 0.49364,2.2697 1.21835,3.0166 2.41249,2.113 5.97167,2.3561 8.71586,2.4451 4.44896,0.133 9.39272,-0.3811 11.05884,-0.3811 1.05628,0.015 2.02781,-0.9584 2.02781,-2.0322 0,-1.0738 -0.97153,-2.0475 -2.02781,-2.0323 -2.33256,0 -6.88565,0.5021 -10.93388,0.3811 -2.0982,-0.2435 -5.9985,0.1318 -6.06049,-1.3655 0.0206,-1.0719 2.04996,-1.7102 3.06149,-2.3497 0.99966,-0.6351 2.05987,-1.324 2.999,-2.1593 0.93913,-0.8353 1.93686,-1.9864 1.93686,-3.6517 0,-1.1009 -0.32537,-2.2383 -1.03091,-3.0802 -2.16074,-2.1453 -5.58489,-1.9984 -8.05983,-2.0005 C 71.82429,990.66288 61.45834,983.36223 51.9851,983.36223 z m -29.99007,12.19361 c 1.10421,0 1.99934,0.90988 1.99934,2.03227 0,1.12239 -0.89513,2.03227 -1.99934,2.03227 -1.1042,0 -1.99933,-0.90988 -1.99933,-2.03227 0,-1.12239 0.89513,-2.03227 1.99933,-2.03227 z" fill="#000000" stroke="none" marker="none" visibility="visible" display="inline" overflow="visible"></path></g></svg>