<svg xmlns="http://www.w3.org/2000/svg" xmlns:xlink="http://www.w3.org/1999/xlink" version="1.1" x="0px" y="0px" viewBox="0 0 100 100" enable-background="new 0 0 100 100" xml:space="preserve"><path fill="#000000" d="M50,62.3c-6.8,0-12.3-5.5-12.3-12.3S43.2,37.7,50,37.7c6.8,0,12.3,5.5,12.3,12.3S56.8,62.3,50,62.3z"></path><rect x="45.8" y="5" fill="#000000" width="8.4" height="22.5"></rect><rect x="45.8" y="72.5" fill="#000000" width="8.4" height="22.5"></rect><rect x="72.5" y="45.8" fill="#000000" width="22.5" height="8.4"></rect><rect x="5" y="45.8" fill="#000000" width="22.5" height="8.4"></rect><rect x="21.9" y="62.6" transform="matrix(0.7071 0.7071 -0.7071 0.7071 59.8855 3.155)" fill="#000000" width="8.4" height="22.5"></rect><rect x="14.9" y="21.9" transform="matrix(0.7071 0.7071 -0.7071 0.7071 26.1352 -10.8248)" fill="#000000" width="22.5" height="8.4"></rect><rect x="62.6" y="69.6" transform="matrix(0.7071 0.7071 -0.7071 0.7071 73.8653 -30.5952)" fill="#000000" width="22.5" height="8.4"></rect><rect x="69.6" y="14.9" transform="matrix(0.7071 0.7071 -0.7071 0.7071 40.1151 -44.5751)" fill="#000000" width="8.4" height="22.5"></rect></svg>