<svg xmlns="http://www.w3.org/2000/svg" xmlns:xlink="http://www.w3.org/1999/xlink" version="1.1" x="0px" y="0px" viewBox="0 0 44.33 58.576" enable-background="new 0 0 44.33 58.576" xml:space="preserve"><path d="M36.135,7.176h-0.1c-0.9-2.2-1.9-3.7-3-4.4c-1.1-0.7-2.2-0.6-3.4,0.4c-1.8-1.9-3.5-2.9-4.7-3.1c-1.3-0.3-2.4,0.3-3.2,1.6  c-2.3-0.9-4.2-1.2-5.6-1c-1.3,0.3-2.2,1.2-2.3,2.9l0,0c-2.5,0-4.4,0.4-5.5,1.1c-1.1,0.8-1.5,1.9-1.2,3.4c-2.3,1.2-3.7,2.4-4.4,3.5  c-0.7,1.2-0.4,2.5,0.7,3.6c-1.8,1.5-2.9,2.9-3.3,4.1c-0.4,1.3,0.1,2.3,1.4,3.3c0,0,0,0,0.1,0c-1.1,2.5-1.4,4.3-1,5.6  c0.3,1.5,1.4,2.3,3.2,2.5c-0.2,2.5,0.1,4.3,0.7,5.3c0.8,1.2,2,1.6,3.8,1.2c0.1,0.5,0.3,0.8,0.5,1.3c0,0,0,0-0.1,0l-8.4,13.3  c0,0.1,0,0.1,0,0.2s0,0.1,0.1,0.1h0.1l10.7-2.2l7.3,8.6c0.1,0.1,0.1,0.1,0.1,0.1s0.1,0,0.2-0.1l0,0l1.3-13.8c1.2,0,2.1-0.5,2.9-1.7  l0.1-0.1c0.2,0.2,0.5,0.3,0.9,0.4v0.1l1.4,15.1l0,0c0,0.1,0.2,0.1,0.2,0.1s0,0,0.1-0.1l7.3-8.6l10.6,2.2c0.1,0,0.2,0,0.2,0  c0.1,0,0.1,0,0.1-0.1s0-0.1,0-0.2l-7.6-12v-0.1c1-0.7,1.3-1.8,1.1-3.2l0,0h0.1c2.1-1.3,3.5-2.5,4.1-3.7c0.7-1.3,0.4-2.5-0.6-3.5  c1.8-1.6,2.9-3,3.2-4.2c0.3-1.3-0.1-2.4-1.3-3.3c0.9-2.5,1.1-4.4,0.7-5.7c-0.4-1.4-1.5-2.2-3.2-2.4c0,0,0,0,0-0.1  c0.1-2.3-0.2-4-0.9-5.1C38.834,7.276,37.635,6.976,36.135,7.176z M34.435,12.576c0.4,0.7,0.6,1.8,0.6,3.5l-3.4,1.6  c-0.5-1-1.2-1.9-2-2.7c-0.1-0.1-0.2-0.2-0.2-0.3l2.9-2.9C33.234,11.676,33.935,11.976,34.435,12.576z M42.635,22.076L42.635,22.076  c1.1,0.8,1.5,1.8,1.2,3c-0.3,1.1-1.4,2.4-3.2,3.9l0,0l-4.7-1.8c1.2-1.1,2-2,2.1-2.9c0.3-0.8,0-1.6-0.7-2.2H42.635z M40.535,29.476  h0.1c1,1,1.3,2,0.7,3.1c-0.5,1.1-1.9,2.3-4,3.6c-0.1,0-0.1,0-0.2,0l-4-3.6c1.7-0.9,2.7-1.8,3.1-2.6c0.4-0.8,0.3-1.6-0.2-2.3  L40.535,29.476z M37.734,24.176c-0.2,0.9-0.9,1.8-2.2,2.8c0,0-1.2-0.4-3.6-1.3l0,0c0.5-1.1,0.7-2.3,0.7-3.6c2.9,0.1,4.3,0.1,4.3,0.2  C37.635,22.776,37.935,23.476,37.734,24.176z M12.535,9.875c0.8-0.5,1.9-0.8,3.6-0.8l0,0l1.8,4c-1,0.5-1.8,1-2.5,1.9  c-0.1,0.1-0.1,0.1-0.2,0.1l-3.6-3.3l0,0C11.435,10.976,11.834,10.276,12.535,9.875z M18.334,13.276c1.1-0.5,2.3-0.8,3.6-0.8l0,0  c0.2,0,0.4,0,0.6,0c1.3,0,2.4,0.1,3.5,0.6c1.1,0.4,2.1,0.9,2.9,1.7c0.2,0.2,0.3,0.3,0.5,0.5c0.8,0.8,1.5,1.7,1.9,2.8  c0.6,1.1,0.8,2.4,0.9,3.9v0.1c0,1.4-0.3,2.5-0.7,3.6c-0.5,1.3-1.2,2.3-2.1,3.3c-0.1,0.1-0.3,0.2-0.3,0.2c-0.8,0.9-1.8,1.5-3,2  c-1.1,0.5-2.3,0.6-3.6,0.6c-1.2,0-2.4-0.1-3.5-0.6c-1.1-0.4-2.1-1-3.1-1.9v-0.1c-0.1,0-0.2-0.1-0.3-0.2c-0.8-0.8-1.5-1.7-1.9-2.7  c-0.6-1.2-0.9-2.5-0.9-3.8c0-0.1,0-0.2,0-0.4c0-1.1,0.1-2.3,0.6-3.4c0.4-1.1,1-2.2,2-3.1c0-0.2,0.2-0.3,0.2-0.3  C16.435,14.476,17.334,13.776,18.334,13.276z M1.935,22.776c0-0.1,0-0.1,0-0.1h5.3c-0.7,1.8-0.9,3-0.7,4c0.3,0.8,1,1.4,2.1,1.6  l-4.7,2h-0.1c-1.7-0.1-2.6-0.9-2.9-2.1C0.635,26.875,0.935,25.076,1.935,22.776z M12.435,22.276l-5-0.1c-0.7-0.6-1.1-1.2-0.9-2  c0.3-0.8,1.1-1.7,2.4-2.7l4,1.2c-0.3,1.1-0.5,2.3-0.5,3.4C12.435,22.176,12.435,22.176,12.435,22.276z M9.234,28.476c0,0,0,0,0-0.1  l4.2-1.7c0.5,0.9,1.1,1.8,2,2.6c0,0,0,0.1,0.1,0.2l-3.5,3.3c-1.1,0.1-1.8-0.1-2.2-0.8C9.334,31.176,9.135,29.976,9.234,28.476z   M9.234,38.276c-0.3-0.4-0.4-0.8-0.6-1.3l0,0l3.6-3.7c0.7,1.6,1.5,2.7,2.2,3.2c0.8,0.5,1.6,0.5,2.4,0l-1.8,4.8  c-0.9,0.5-1.6,0.7-1.9,0.7C11.834,41.976,10.435,40.776,9.234,38.276z M31.935,34.676c-0.7,0.5-1.8,0.6-3.5,0.7v0.1l-1.9-4  c1-0.5,1.9-1.1,2.8-1.8l3.5,3C33.035,33.576,32.635,34.176,31.935,34.676z M17.435,36.176c0,0,0,0-0.1,0l1.7-4.5l0,0  c1.1,0.3,2.1,0.5,3.3,0.5l0.2,4.9c-0.1,0-0.1,0-0.1,0.1c-0.5,0.7-1.1,1-2,0.8C19.635,37.875,18.635,37.276,17.435,36.176z   M20.435,38.476c0.8,0.1,1.5-0.2,2.1-0.8l0.2,5.1c-0.8,1.1-1.7,1.6-2.8,1.5c-1.1-0.2-2.4-1-4-2.4c-0.1-0.2-0.3-0.3-0.5-0.4v-0.1  l1.8-4.9C18.435,37.676,19.435,38.276,20.435,38.476z M15.834,42.176c1.5,1.5,2.8,2.2,3.9,2.5l-1.2,13.2l-5.5-6.6L15.834,42.176z   M24.435,43.476c2,0.6,3.5,0.7,4.6,0.2l2.2,7.6l-5.5,6.6L24.435,43.476z M8.935,38.776c1.3,2.4,2.7,3.6,4,3.6l-4.2,7.6l-7.9,1.7  L8.935,38.776z M1.834,22.276c0-0.1,0-0.1-0.1-0.1c-1.1-0.8-1.5-1.7-1.2-2.8c0.3-1.2,1.4-2.4,3.1-3.8l5,1.6h0.1  c-1.4,1.1-2.2,2-2.4,2.9c-0.3,0.8,0,1.5,0.6,2.2H1.834z M7.334,8.375v0.1l4.1,3.5c-1.7,0.8-2.7,1.7-3.2,2.5  c-0.4,0.7-0.5,1.5-0.1,2.1l-4.3-1.5c-1.1-1.1-1.3-2.2-0.8-3.3C3.635,10.676,5.035,9.576,7.334,8.375z M13.834,3.976L13.834,3.976  l2.2,4.7c-1.6,0-2.9,0.3-3.7,0.9c-0.7,0.4-1.1,1-1.1,1.9l-3.7-3.4l0,0c-0.3-1.4,0-2.5,1.1-3.1  C9.734,4.276,11.435,3.976,13.834,3.976z M21.535,2.076c0,0,0,0,0,0.1l0.1,5.3c-1.6-0.7-2.8-0.9-3.7-0.7c-0.8,0.2-1.5,0.7-1.8,1.5  l-2-4.6v-0.1l0,0c0.2-1.5,0.9-2.3,2.1-2.5C17.435,0.776,19.334,1.176,21.535,2.076z M35.734,7.476L35.734,7.476l-3.6,3.7  c-0.7-1.5-1.3-2.4-2-2.7c-0.7-0.6-1.4-0.7-2-0.3l1.5-4.6c1.2-0.9,2.2-1,3.3-0.4C33.935,3.776,34.834,5.176,35.734,7.476z   M36.135,7.576L36.135,7.576c1.4-0.2,2.4,0.1,3.1,1c0.7,1.1,0.9,2.7,0.8,5v0.1l-4.6,2.2c0-1.7-0.3-2.8-0.7-3.5  c-0.5-0.8-1.2-1.1-2.2-1L36.135,7.576z M37.734,17.776c-0.3-0.9-1-1.5-2.1-1.6l4.6-2.1c1.7,0.1,2.7,0.8,3,2c0.4,1.4,0.2,3.2-0.7,5.5  v0.1h-5.3C37.834,19.976,38.035,18.676,37.734,17.776z M29.435,3.476c-0.1,0-0.1,0-0.1,0.1l-1.7,4.8c0,0.1,0,0.1,0,0.1s0,0-0.1,0  c-1.2-1.4-2.4-2.1-3.4-2.3c-0.8-0.1-1.5,0.2-2.2,1v-5.1c0.7-1.4,1.7-1.9,2.9-1.6C26.135,0.676,27.635,1.676,29.435,3.476z   M24.135,6.576c0.9,0.2,2,1,3.2,2.2l-1.3,3.8c-1.1-0.4-2.2-0.5-3.5-0.5c-0.1,0-0.3,0-0.4,0l-0.2-4.4l0.2-0.1  C22.635,6.776,23.234,6.476,24.135,6.576z M4.834,35.776c-0.6-1-0.8-2.7-0.6-5.1v-0.1l4.6-2c-0.1,1.6,0.1,2.9,0.6,3.6  c0.5,0.8,1.3,1,2.3,1l-3.5,3.6l0,0C6.734,37.176,5.535,36.776,4.834,35.776z M30.635,40.776l-0.2,0.4c-0.1,1.1-0.6,1.8-1.6,2.2h0.1  c-1.1,0.4-2.6,0.3-4.6-0.5l-1.1-0.2l-0.1-0.1l-0.3-5.3h0.1c1.6,0.6,2.9,0.8,3.8,0.6c0.9-0.2,1.4-0.7,1.7-1.6L30.635,40.776z   M37.035,36.676c0.3,1.2-0.1,2.1-1.1,2.8l0,0c-1,0.7-2.8,1-5.1,1c0,0,0,0,0,0.1l-2.4-4.8c1.7-0.1,3-0.3,3.8-0.8c0.7-0.5,1-1,0.9-1.9  l3.9,3.4V36.676z M35.935,39.875v0.1l7.4,11.7l-7.8-1.7l-4.7-8.5v-0.5C33.135,40.875,34.935,40.476,35.935,39.875z"></path><path d="M22.535,13.076c-0.2,0-0.4,0-0.6,0.1c-1.3,0-2.3,0.3-3.3,0.8c-1,0.4-1.7,1-2.5,1.7c0,0.1-0.2,0.1-0.2,0.3  c-0.8,0.8-1.5,1.8-1.9,3c-0.3,1-0.5,2-0.5,3.1c0,2.5,0.9,4.6,2.6,6.3c0,0.1,0.2,0.2,0.3,0.3c0.9,0.8,1.9,1.5,2.9,1.8  c1,0.3,2.1,0.5,3.2,0.5c2.4,0,4.6-0.8,6.3-2.6c1.8-1.7,2.6-3.8,2.6-6.3c0-1.4-0.2-2.6-0.8-3.8c-0.4-1-1-1.8-1.8-2.6  c-0.2-0.1-0.3-0.2-0.4-0.4c-0.8-0.7-1.6-1.2-2.6-1.6S23.635,13.076,22.535,13.076z M20.234,23.375c-0.8,0.6-1.6,0.6-2.1,0  c-0.7-0.8-0.5-1.6,0.5-2.4c-1-0.9-1.2-1.7-0.6-2.5c0.6-0.8,1.4-0.8,2.2,0l2.4,2.3l-0.9-3.2c-0.3-1.1,0.1-1.7,1.1-1.9  c1.1-0.1,1.6,0.5,1.8,2c1.3-0.6,2.3-0.4,2.7,0.5c0.3,1,0,1.7-1.2,1.9l-3.2,1l3.2,1c1.2,0.2,1.5,0.8,1.2,1.6c-0.4,1-1.2,1.3-2.6,0.8  c-0.2,1.2-0.8,1.8-1.7,1.7c-1.1,0-1.5-0.6-1.1-1.8l0.7-2.7c-0.7,1-1.3,2-1.7,3.1c-0.3,0.8-0.5,2-0.5,3.9l-0.8-0.2  c0.3-2.8,1.2-5.1,2.8-7L20.234,23.375z"></path></svg>