<svg xmlns="http://www.w3.org/2000/svg" xmlns:xlink="http://www.w3.org/1999/xlink" version="1.1" x="0px" y="0px" viewBox="0 0 100 100" style="enable-background:new 0 0 100 100;" xml:space="preserve"><g><path d="M73.1,20c-4.6-1-7.9-5-7.9-9.8c0-2.5-2-4.5-4.5-4.5H39.3c-2.5,0-4.5,2-4.5,4.5c0,4.7-3.3,8.7-7.9,9.8   C15.5,22.5,9,28.7,9,43.2c0,22.6,27.4,51,41,51c13.6,0,41-28.4,41-51C91,28.7,84.5,22.5,73.1,20z M71.4,22.4c1.1,0,2,0.9,2,2   s-0.9,2-2,2c-1.1,0-2-0.9-2-2S70.4,22.4,71.4,22.4z M50,52.6c2.5,0,4.6,2.1,4.6,4.6c0,2.5-2.1,4.6-4.6,4.6s-4.6-2.1-4.6-4.6   C45.4,54.6,47.5,52.6,50,52.6z M28.6,22.4c1.1,0,2,0.9,2,2s-0.9,2-2,2c-1.1,0-2-0.9-2-2S27.5,22.4,28.6,22.4z M26.3,31.6   c0-1.2,1-2.3,2.3-2.3s2.3,1,2.3,2.3s-1,2.3-2.3,2.3S26.3,32.9,26.3,31.6z M27.7,39.3c0-1.4,1.2-2.6,2.6-2.6c1.4,0,2.6,1.2,2.6,2.6   c0,1.4-1.2,2.6-2.6,2.6C28.9,41.9,27.7,40.7,27.7,39.3z M33.8,49.7c-1.8,0-3.2-1.4-3.2-3.2c0-1.8,1.4-3.2,3.2-3.2   c1.8,0,3.2,1.4,3.2,3.2C37,48.3,35.6,49.7,33.8,49.7z M36.5,53.3c0-2.1,1.7-3.9,3.9-3.9c2.1,0,3.9,1.7,3.9,3.9   c0,2.1-1.7,3.9-3.9,3.9C38.3,57.2,36.5,55.4,36.5,53.3z M50,83.9l-7.5-12.5L50,64l7.5,7.5L50,83.9z M59.6,57.2   c-2.1,0-3.9-1.7-3.9-3.9c0-2.1,1.7-3.9,3.9-3.9c2.1,0,3.9,1.7,3.9,3.9C63.5,55.4,61.7,57.2,59.6,57.2z M66.2,49.7   c-1.8,0-3.2-1.4-3.2-3.2c0-1.8,1.4-3.2,3.2-3.2c1.8,0,3.2,1.4,3.2,3.2C69.4,48.3,67.9,49.7,66.2,49.7z M69.6,41.9   c-1.4,0-2.6-1.2-2.6-2.6c0-1.4,1.2-2.6,2.6-2.6c1.4,0,2.6,1.2,2.6,2.6C72.3,40.7,71.1,41.9,69.6,41.9z M71.4,33.9   c-1.2,0-2.3-1-2.3-2.3s1-2.3,2.3-2.3s2.3,1,2.3,2.3S72.7,33.9,71.4,33.9z"></path></g></svg>