<svg xmlns="http://www.w3.org/2000/svg" xmlns:xlink="http://www.w3.org/1999/xlink" version="1.1" x="0px" y="0px" viewBox="0 0 100 100" enable-background="new 0 0 100 100" xml:space="preserve"><path d="M78.2,46c-1.3-1.1-1.7-3-1-4.6l0.6-1.4c0.9-2.2-0.3-4.8-2.6-5.4l-1.5-0.4c-1.7-0.5-2.8-1.9-2.9-3.7l-0.1-1.6  c-0.1-2.4-2.3-4.2-4.7-3.8l-1.6,0.3c-1.7,0.3-3.4-0.5-4.2-2L59.5,22c-1.1-2.1-3.9-2.8-5.8-1.4l-1.3,0.9c-1.4,1-3.3,1-4.7,0l-1.3-0.9  c-2-1.4-4.7-0.8-5.9,1.3l-0.8,1.4c-0.8,1.5-2.5,2.3-4.2,2l-1.6-0.3c-2.4-0.4-4.6,1.3-4.7,3.7l-0.1,1.6c-0.1,1.7-1.3,3.2-2.9,3.6  l-1.5,0.4c-2.3,0.6-3.5,3.2-2.6,5.4l0.6,1.5c0.7,1.6,0.2,3.4-1.1,4.6l-1.2,1c-1.8,1.6-1.8,4.4,0,6l1.2,1c1.3,1.1,1.7,3,1,4.6  L22.2,60c-0.9,2.2,0.3,4.8,2.6,5.4l1.5,0.4c1.7,0.5,2.8,1.9,2.9,3.7l0.1,1.6c0.1,2.4,2.3,4.2,4.7,3.8l1.6-0.3c1.7-0.3,3.4,0.5,4.2,2  l0.7,1.4c1.1,2.1,3.9,2.8,5.8,1.4l1.3-0.9c1.4-1,3.3-1,4.7,0l1.3,0.9c2,1.4,4.7,0.8,5.9-1.3l0.8-1.4c0.8-1.5,2.5-2.3,4.2-2l1.6,0.3  c2.4,0.4,4.6-1.3,4.7-3.7l0.1-1.6c0.1-1.7,1.3-3.2,2.9-3.6l1.5-0.4c2.3-0.6,3.5-3.2,2.6-5.4l-0.6-1.5c-0.7-1.6-0.2-3.4,1.1-4.6  l1.2-1c1.8-1.6,1.8-4.4,0-6L78.2,46z M50,69.6c-10.8,0-19.6-8.8-19.6-19.6c0-10.8,8.8-19.6,19.6-19.6c10.8,0,19.6,8.8,19.6,19.6  C69.6,60.8,60.8,69.6,50,69.6z M64.1,50c0,7.8-6.3,14.1-14.1,14.1c-7.8,0-14.1-6.3-14.1-14.1S42.2,35.9,50,35.9  C57.8,35.9,64.1,42.2,64.1,50z M32.7,80.8L14.9,98.7c-0.6,0.6-1.6,0.2-1.7-0.6l-1.1-9.8c0-0.3-0.3-0.6-0.6-0.6L2,86.8  c-0.8-0.1-1.2-1.1-0.6-1.7l17-17c1.3,1.4,2.9,2.5,4.8,3l0.2,0l0,0.2C23.6,76.5,27.7,80.5,32.7,80.8z M98.7,14.9l-17,17  c-1.3-1.4-2.9-2.5-4.8-3l-0.2,0l0-0.2c-0.2-5.1-4.3-9.2-9.4-9.5L85.1,1.3c0.6-0.6,1.6-0.2,1.7,0.6l1.1,9.8c0,0.3,0.3,0.6,0.6,0.6  l9.6,0.9C98.9,13.3,99.2,14.3,98.7,14.9z"></path></svg>