<svg xmlns="http://www.w3.org/2000/svg" xmlns:xlink="http://www.w3.org/1999/xlink" version="1.1" x="0px" y="0px" viewBox="0 0 100 100" enable-background="new 0 0 100 100" xml:space="preserve"><path d="M70.899,7.19C70.899,4.797,50,5.005,50,5.005S29.101,4.797,29.101,7.19c0,0,0.409,0.415,1.493,1.501  c1.089,1.084,10.039,15.874,7.599,29.571c0,0-1.328,1.359-0.866,2.986c0,0-5.101,2.301-0.488,7.323c0,0,3.393,3.259,7.593,4.072  c0,0-0.677,0.952,1.359,1.9c0,0-2.17,1.763-1.897,2.443c0.27,0.677,1.084,1.49,2.443,2.17c1.354,0.68,0.134,2.036,0.268,2.713  c0.136,0.679,0.677,1.934,0.677,1.934s-1.763,6.497-9.223,8.656c0,0-2.17,2.039-1.354,4.206l0.622,1.643h-4.156v15.654  c0,0,7.436,1.27,16.908,1.002c9.472,0.268,16.811-1.002,16.811-1.002V78.307H62.67l0.624-1.643c0.814-2.167-1.356-3.828-1.356-3.828  c-7.462-2.157-9.225-8.84-9.225-8.84s0.54-1.354,0.679-2.036c0.139-0.677-1.084-2.078,0.273-2.758  c1.359-0.679,2.17-1.516,2.44-2.191c0.27-0.682-1.897-2.456-1.897-2.456c2.033-0.95,1.357-1.905,1.357-1.905  c4.203-0.813,7.596-4.077,7.596-4.077c4.613-5.022-0.488-7.326-0.488-7.326c0.459-1.627-0.866-2.983-0.866-2.983  c-2.443-13.699,6.51-28.49,7.599-29.573C70.49,7.605,70.899,7.19,70.899,7.19z"></path></svg>