<svg xmlns="http://www.w3.org/2000/svg" xmlns:xlink="http://www.w3.org/1999/xlink" version="1.1" x="0px" y="0px" viewBox="0 0 100 100" enable-background="new 0 0 100 100" xml:space="preserve"><g><path fill="#000000" d="M50,5H17.157l14.286,37.378c0,0-3.501,4.401,1.681,7.622c2.312,1.437,8.204,1.828,9.804,3.442   c2.1,2.121-0.338,5.517,0.676,7.796c5.133,11.54,0.323,24.015-10.024,26.378C28.527,88.77,26.02,91.482,24.581,95H50"></path><path fill="#000000" d="M49.383,5.001l32.844-0.026L67.969,42.364c0,0,3.506,4.398-1.674,7.623   c-2.311,1.438-8.203,1.834-9.801,3.45c-2.1,2.122,0.342,5.516-0.67,7.796C50.7,72.777,55.52,85.248,65.869,87.604   c5.052,1.149,7.561,3.86,9.002,7.377L49.453,95"></path></g></svg>