<svg xmlns="http://www.w3.org/2000/svg" xmlns:xlink="http://www.w3.org/1999/xlink" version="1.1" x="0px" y="0px" viewBox="0 0 128 128" enable-background="new 0 0 128 128" xml:space="preserve"><g><rect x="55.6" y="1" fill="#000000" width="16.7" height="16.5"></rect><path fill="#000000" d="M64,47.7c5,0,9.3,3,11.6,7.5c1.5-3.2,3-7.9,2.6-13.6c-3.5-5.7-5.5-12.2-5.8-18.9H55.6   c-0.4,6.7-2.4,13.1-5.8,18.8c-0.4,5.8,1.1,10.5,2.6,13.7C54.7,50.7,59,47.7,64,47.7z"></path><path fill="#000000" d="M83,48.5c-1.1,6.9-4.2,11.7-5.6,13.6c0,0.2,0,0.4,0,0.5c0,8.2-6,14.9-13.4,14.9c-7.4,0-13.4-6.7-13.4-14.9   c0-0.2,0-0.4,0-0.6c-1.4-1.9-4.4-6.7-5.5-13.6c-3.9,6.3-5.9,13.6-5.9,21.1v50.8c0,3.7,3,6.7,6.7,6.7h36.5c3.7,0,6.7-3,6.7-6.7V69.5   C88.9,62.1,86.8,54.8,83,48.5z"></path></g></svg>