<svg xmlns="http://www.w3.org/2000/svg" xmlns:xlink="http://www.w3.org/1999/xlink" version="1.1" x="0px" y="0px" viewBox="0 0 128 128" enable-background="new 0 0 128 128" xml:space="preserve"><g><path fill="#000000" d="M39.1,120.3c0,3.7,3,6.7,6.7,6.7h36.5c3.7,0,6.7-3,6.7-6.7v-4.5H39.1V120.3z"></path><path fill="#000000" d="M88.9,69.5H39.1c0,0,0,0,0,0v41.2h49.8L88.9,69.5C88.9,69.5,88.9,69.5,88.9,69.5z M64,106.9   c-6.9,0-12.2-7.4-12.2-16.8S57.1,73.4,64,73.4c6.9,0,12.2,7.4,12.2,16.8S70.9,106.9,64,106.9z"></path><rect x="55.6" y="1" fill="#000000" width="16.7" height="16.5"></rect><path fill="#000000" d="M80.6,45c-4.9-6.5-7.8-14.3-8.2-22.4H55.6c-0.4,8.1-3.3,15.9-8.2,22.4c-4.3,5.7-7,12.4-7.9,19.4h49.1   C87.7,57.4,84.9,50.7,80.6,45z"></path></g></svg>