<svg xmlns="http://www.w3.org/2000/svg" xmlns:xlink="http://www.w3.org/1999/xlink" version="1.1" x="0px" y="0px" viewBox="0 0 100 100" style="enable-background:new 0 0 100 100;" xml:space="preserve"><g><path d="M49.999,0C49.943,0,50.001,0,49.999,0L49.999,0z M49.999,0C50.055,0,49.997,0,49.999,0L49.999,0z M55.424,14.26   c0.91-0.521,1.37-1.246,1.37-2.167V4.771c0-2.966-2.926-4.746-6.795-4.771c-3.869,0.025-6.743,1.804-6.743,4.771v7.322   c0,0.888,0.427,1.594,1.273,2.109c-0.2,1.342-1.887,9.433-3.543,17.109l9.013,4.013l9.013-3.908   C57.348,24.021,55.548,15.661,55.424,14.26z M63.9,100H36.302c0,0-2.031-0.339-2.031-2.765c0-7.861-0.587-30.537,1.081-42.561   c0.921-6.633,3.235-12.55,4.178-16.811l10.47,4.576l10.477-4.502c-0.005-0.021-0.011-0.042-0.015-0.063l0.001-0.001   c0.942,4.261,3.258,10.177,4.179,16.811c1.672,12.052,1.092,34.788,1.092,42.551C65.732,99.661,63.9,100,63.9,100z M61.193,61.333   H38.805v24.95h22.389V61.333z"></path></g></svg>