<svg xmlns="http://www.w3.org/2000/svg" xmlns:xlink="http://www.w3.org/1999/xlink" version="1.1" x="0px" y="0px" viewBox="0 0 100 100" enable-background="new 0 0 100 100" xml:space="preserve"><g><path fill="#000000" d="M79.063,72.854c0.047-0.024,0.09-0.051,0.129-0.084c0.052-0.037,0.099-0.082,0.146-0.123   c-0.154,0.104-0.311,0.205-0.468,0.306c0.034-0.009,0.069-0.021,0.103-0.038C79.003,72.896,79.03,72.875,79.063,72.854z"></path><path fill="#000000" d="M83.276,69.596c0.072-0.057,0.121-0.129,0.158-0.207c-0.119,0.114-0.238,0.229-0.36,0.342   C83.142,69.686,83.213,69.646,83.276,69.596z"></path><path fill="#000000" d="M78.812,72.988c-0.011,0.008-0.02,0.015-0.028,0.02l0.005,0.008l-0.445,0.409   c-0.468,0.431-0.802,0.739-1.113,1.042c1.922,0.59,3.9,0.873,5.85,0.807c2.701-0.092,5.154-0.844,7.131-2.117   c-1.443,0.506-3.021,0.808-4.688,0.865C83.283,74.096,81.001,73.74,78.812,72.988z"></path><path fill="#000000" d="M96.989,59.273c-0.879-2.986-2.891-5.688-5.666-7.736c-0.025,1.365-0.157,2.716-0.395,4.042   c1.307,1.366,2.27,2.907,2.758,4.5c0.633,2.06,0.453,4.046-0.52,5.741c-1.438,2.504-4.395,4.013-8.113,4.141   c-0.707,0.023-1.42-0.01-2.135-0.089c-1.027,0.935-2.134,1.801-3.311,2.597c1.934,0.598,3.928,0.883,5.887,0.815   c4.738-0.16,8.732-2.343,10.686-5.835C97.539,65.023,97.826,62.119,96.989,59.273z"></path><path fill="#000000" d="M31.778,70.609l3.658,1.769c7.104,3.554,14.904,5.429,22.568,5.429c12.502,0,23.234-5.076,28.711-13.584   c3.807-5.914,4.827-13.099,2.873-20.229c-2.697-9.845-10.576-18.659-21.615-24.184l-3.656-1.765   c-7.104-3.554-14.905-5.431-22.569-5.431c-12.502,0-23.235,5.079-28.711,13.585c-3.808,5.915-4.828,13.1-2.874,20.231   c0.141,0.51,0.301,1.012,0.469,1.516l0.051-0.008c0.012,0.088,0.021,0.186,0.031,0.275C13.832,57.334,21.41,65.424,31.778,70.609z    M16.981,28.738c4.606-7.16,13.865-11.434,24.767-11.434c6.938,0,14.017,1.706,20.466,4.932l3.657,1.766   c9.854,4.932,16.849,12.668,19.194,21.23c1.619,5.914,0.828,11.604-2.295,16.451c-4.605,7.158-13.865,11.434-24.766,11.434   c-6.939,0-14.016-1.706-20.465-4.934l-3.66-1.768c-9.854-4.93-16.848-12.665-19.193-21.229   C13.067,39.276,13.858,33.587,16.981,28.738z"></path><path fill="#000000" d="M35.097,73.072l-3.66-1.768C21.833,66.5,14.589,59.232,10.96,50.947c0.033,0.473,0.064,0.957,0.098,1.473   c0.252,3.938,0.566,8.826,1.9,13.768c0.027,0.053,0.061,0.104,0.087,0.158c0.038,0.157,0.076,0.313,0.119,0.473   c2.177,7.834,8.384,14.813,17.03,19.15l-0.004,0.008c5.539,2.742,11.654,4.189,17.703,4.189c5.773,0,11.084-1.312,15.465-3.688   c2.354-1.351,4.549-3.111,6.746-5.359c0.133-0.155,0.273-0.305,0.403-0.463c0.011-0.01,0.022-0.014,0.034-0.022   c0.077-0.067,0.152-0.14,0.229-0.21c0.316-0.339,0.633-0.676,0.949-1.035l1.229-1.391c1.692-1.909,2.479-2.801,3.104-3.453   c-5.188,2.609-11.373,4.038-18.051,4.038C50.222,78.583,42.3,76.678,35.097,73.072z"></path><path fill="#000000" d="M39.565,37.934c6.238,0,12.547,1.511,18.244,4.368l-0.004,0.008c8.739,4.444,15.016,11.557,17.233,19.542   c0.521,1.875,0.782,3.756,0.819,5.612c2.56-1.688,4.695-3.769,6.261-6.2c2.999-4.658,3.76-10.132,2.198-15.826   c-2.287-8.35-9.137-15.91-18.789-20.741l-3.658-1.766c-6.348-3.176-13.305-4.853-20.123-4.853c-10.637,0-19.65,4.142-24.116,11.078   c-2.998,4.659-3.759,10.132-2.196,15.829c0.252,0.922,0.569,1.834,0.932,2.732C21.411,41.557,29.86,37.934,39.565,37.934z"></path><path fill="#000000" d="M34.224,65.723l3.659,1.768c6.347,3.176,13.304,4.854,20.123,4.854c6.544,0,12.47-1.572,17.104-4.396   c-0.002-1.928-0.264-3.896-0.815-5.887c-2.176-7.834-8.383-14.815-17.028-19.155l0.002-0.007   c-5.537-2.741-11.654-4.189-17.701-4.189c-9.635,0-17.998,3.637-22.859,9.812C19.756,55.445,25.955,61.586,34.224,65.723z"></path><path fill="#000000" d="M8.371,21.415c-0.474,0.764-0.759,1.608-0.854,2.503c0.074-0.143,0.146-0.288,0.23-0.427   c1.52-2.454,4.525-3.862,8.25-3.862c0.584,0,1.172,0.048,1.759,0.119c0.583-0.486,1.188-0.951,1.815-1.396   c-1.19-0.292-2.391-0.451-3.574-0.451C12.534,17.901,9.755,19.182,8.371,21.415z"></path><path fill="#000000" d="M3.052,27.83c0.047,0.851,0.158,1.709,0.346,2.567c0.744,3.434,2.521,6.599,5.027,9.118   c-0.008-1.205,0.066-2.398,0.225-3.575C5.882,33.748,3.899,30.92,3.052,27.83z"></path><path fill="#000000" d="M92.53,65.455c0.869-1.516,1.025-3.299,0.453-5.16c-0.412-1.339-1.186-2.643-2.231-3.826   c-0.147,0.678-0.317,1.348-0.521,2.008c0.869,1.104,1.525,2.287,1.899,3.504c0.396,1.297,0.468,2.562,0.228,3.748   C92.417,65.639,92.478,65.548,92.53,65.455z"></path><path fill="#000000" d="M7.034,26.748c-0.562-2.08-0.316-4.059,0.713-5.72c1.52-2.454,4.525-3.861,8.25-3.861   c1.447,0,2.92,0.226,4.367,0.641c1.096-0.728,2.252-1.393,3.461-1.994c-2.588-1.294-5.395-1.984-8.157-1.984   c-4.739,0-8.81,2.043-10.879,5.468c-1.438,2.378-1.824,5.271-1.083,8.143c0.744,2.892,2.543,5.555,5.076,7.658   c0.211-1.254,0.517-2.486,0.916-3.69C8.407,29.979,7.476,28.381,7.034,26.748z"></path></g></svg>