<svg xmlns="http://www.w3.org/2000/svg" xmlns:xlink="http://www.w3.org/1999/xlink" version="1.1" x="0px" y="0px" viewBox="0 0 64 64" enable-background="new 0 0 64 64" xml:space="preserve"><g><path fill="#000000" d="M48.702,57.528c-0.909-3.956-5.467-19.592-6.677-23.491c-0.416-1.339-1.019-1.483-2.258-1.191   c-1.87,0.436-3.667,0.681-5.51,0.764c0.398,1.765,0.765,3.399,1.137,5.029c0.71,3.115,1.398,6.235,2.154,9.338   c0.182,0.748-0.066,0.916-0.721,1.105c-0.745,0.215-0.95-0.03-1.101-0.699c-0.901-4.001-1.835-7.995-2.759-11.991   c-0.065-0.281-0.146-0.557-0.286-1.089c-0.492,2.11-0.915,3.981-1.37,5.844c-0.154,0.632-0.141,1.399-1.267,1.113   c-1.057-0.269-0.718-0.879-0.576-1.487c0.547-2.331,1.106-4.661,1.703-7.166c-1.822-0.086-3.601-0.33-5.451-0.762   c-1.239-0.292-1.842-0.148-2.258,1.191c-1.21,3.898-5.769,19.535-6.677,23.491c-0.167,0.732-0.124,1.545,0.407,2.119   c0.665,0.722,5.008,1.531,6.19,1.751c2.406,0.445,4.841,0.765,7.29,0.847c0.426,0.014,0.851,0.019,1.282,0.019   c0.306,0,0.485-0.005,0.791-0.014c0.306,0.01,0.485,0.014,0.791,0.014c0.43,0,0.856-0.005,1.282-0.019   c2.449-0.081,4.884-0.402,7.29-0.847c1.181-0.22,5.525-1.028,6.19-1.751C48.826,59.073,48.869,58.26,48.702,57.528z"></path><path fill="#000000" d="M33.008,6.25c-0.205-0.121-0.267-0.253-0.286-0.488c-0.024-0.313-0.084-0.647-0.229-0.914   c-0.111-0.199-0.372-0.324-0.582-0.456c-0.332-0.205-0.496-0.545-0.423-0.933c0.067-0.34,0.353-0.596,0.72-0.647   c0.488-0.067,0.857,0.235,0.952,0.776c0.07,0.421,0.297,0.604,0.625,0.51c0.302-0.084,0.469-0.464,0.377-0.86   c-0.256-1.127-1.442-1.787-2.521-1.38c-0.741,0.28-1.113,0.879-1.205,1.626c-0.081,0.666,0.164,1.235,0.739,1.628   c0.129,0.089,0.262,0.175,0.38,0.278c0.291,0.256,0.248,0.644-0.086,0.841c-1.2,0.704-2.399,1.407-3.599,2.111   c0.221,0.278,0.458,0.553,0.69,0.811c0.437-0.253,0.871-0.51,1.308-0.763c0.704-0.412,1.41-0.82,2.108-1.237   c0.156-0.094,0.27-0.092,0.426,0c1.127,0.663,2.257,1.321,3.386,1.979c0.243-0.272,0.485-0.55,0.709-0.833   C35.335,7.611,34.173,6.929,33.008,6.25z"></path><path fill="#000000" d="M51.255,21.069c-1.575,1.293-3.122,2.567-4.707,3.861c-0.486,0.408-1.225,0.311-1.595-0.214   c-0.681-0.963-1.332-1.877-2.052-2.888c-0.097-0.136-0.311-0.097-0.36,0.058c-0.671,2.489-1.138,4.687-1.935,6.758   c-0.36,0.924-1.381,1.994-2.295,2.217c-2.159,0.535-3.968,0.807-6.146,0.836c-2.178-0.029-3.997-0.301-6.146-0.836   c-0.914-0.224-1.945-1.293-2.295-2.217c-0.807-2.081-1.274-4.288-1.945-6.778c-0.049-0.156-0.243-0.185-0.34-0.058   c-0.671,0.953-1.284,1.809-1.916,2.703c-0.447,0.632-1.342,0.749-1.945,0.263c-1.711-1.41-3.384-2.781-5.105-4.201   c-0.292-0.233-0.331-0.671-0.078-0.943c1.721-1.896,3.355-3.87,4.969-5.854c1.293-1.575,2.762-3.073,4.22-4.483   c0.739-0.71,1.624-1.186,2.626-1.41c0.321-0.068,0.652-0.117,0.982-0.117c0.836-0.01,1.274,0.321,1.77,0.953   c0.311,0.408,0.661,0.807,1.002,1.186c0.136,0.156,0.282,0.301,0.428,0.447c1.225,1.186,2.353,1.828,3.773,1.964   c1.41-0.136,2.538-0.778,3.763-1.964c0.146-0.146,0.292-0.292,0.428-0.447c0.35-0.379,0.7-0.778,1.011-1.186   c0.486-0.632,0.933-0.963,1.76-0.953c0.34,0,0.671,0.049,0.992,0.117c1.002,0.224,1.877,0.7,2.626,1.41   c1.459,1.41,2.927,2.908,4.22,4.483c1.449,1.78,2.917,3.559,4.444,5.271C51.945,19.649,51.877,20.563,51.255,21.069z"></path></g></svg>