<svg xmlns="http://www.w3.org/2000/svg" xmlns:xlink="http://www.w3.org/1999/xlink" version="1.1" x="0px" y="0px" viewBox="0 0 100 100" enable-background="new 0 0 100 100" xml:space="preserve"><g><path d="M35.974,42.582c-2.354,5.106-7.787,18.334-10.826,37.287c24.306,6.883,43.939,2.369,50.492,0.411   c-2.35-10.583-7.019-29.756-11.6-37.754c-2.016,0.644-6.426,1.843-11.915,2.178v-2.479c3.243-0.165,6.76-0.733,10.349-1.978   c-0.003-0.003-0.006-0.008-0.009-0.011l0.968-19.344c-5.159-2.902-5.645-12.413-5.645-12.413l-2.577-0.645l-5.422,10.065   L44.368,7.833L41.79,8.479c0,0-0.484,9.511-5.643,12.413l0.967,19.344c0,0-0.009,0.018-0.028,0.052   c1.71,0.555,5.126,1.49,9.486,1.846v2.576C43.175,44.501,39.569,43.884,35.974,42.582z M47.572,42.2   c1.132,0.066,2.319,0.089,3.553,0.057v2.507c-1.144,0.045-2.335,0.042-3.553-0.003V42.2z"></path><path d="M24.587,83.636c-0.15,1.094-0.294,2.2-0.427,3.328c0,0,24.343,10.155,53.036,0.646c0,0-0.273-1.379-0.756-3.65   C53.048,90.228,30.24,85.108,24.587,83.636z"></path></g></svg>