<svg xmlns:dc="http://purl.org/dc/elements/1.1/" xmlns:cc="http://creativecommons.org/ns#" xmlns:rdf="http://www.w3.org/1999/02/22-rdf-syntax-ns#" xmlns:svg="http://www.w3.org/2000/svg" xmlns="http://www.w3.org/2000/svg" xmlns:sodipodi="http://sodipodi.sourceforge.net/DTD/sodipodi-0.dtd" xmlns:inkscape="http://www.inkscape.org/namespaces/inkscape" version="1.1" x="0px" y="0px" viewBox="0 0 100 100"><g transform="translate(0,-952.36218)"><path d="m 8,980.36217 c -1.108,0 -2,0.75 -2,1.6875 l 0,40.62503 c 0,0.9375 0.892,1.6875 2,1.6875 l 84,0 c 1.108,0 2,-0.75 2,-1.6875 l 0,-40.62503 c 0,-0.9375 -0.892,-1.6875 -2,-1.6875 z m 9.9999,8 64.0001,0 c 1.1046,0 2,0.89542 2,2.00002 0,1.1046 -0.8954,2 -2,2 l -64.0001,0 c -1.1046,0 -2,-0.8954 -2,-2 0,-1.1046 0.8954,-2.00002 2,-2.00002 z m 0,12.00003 34.0001,0 c 1.1046,0 2,0.8954 2,2 0,1.1046 -0.8954,2 -2,2 l -34.0001,0 c -1.1046,0 -2,-0.8954 -2,-2 0,-1.1046 0.8954,-2 2,-2 z m 46.8439,0 c 0.8632,-0.065 1.736,0.4987 2.0312,1.3125 l 2.5,6.875 2.875,-5.1563 c 0.3609,-0.6388 1.0962,-1.0466 1.8292,-1.0145 0.733,0.032 1.4298,0.5028 1.7333,1.1708 l 3.3125,7.4687 2.375,-0.5937 c 1.0145,-0.2618 2.1757,0.423 2.4375,1.4375 0.2618,1.0145 -0.423,2.1757 -1.4375,2.4375 l -4,1 c -0.9031,0.2262 -1.933,-0.2748 -2.3125,-1.125 l -2.375,-5.3437 -3.0625,5.5 c -0.3749,0.6628 -1.1542,1.0736 -1.9129,1.0082 -0.7587,-0.065 -1.4563,-0.6036 -1.7121,-1.3208 l -2.25,-6.1874 -3.0312,7.2812 c -0.2312,0.5751 -0.7446,1.0288 -1.3438,1.1875 l -4,1 c -1.0145,0.2618 -2.1757,-0.423 -2.4375,-1.4375 -0.2618,-1.0145 0.423,-2.1757 1.4375,-2.4375 l 3.0313,-0.75 4.625,-11.0937 c 0.2829,-0.6727 0.96,-1.1618 1.6875,-1.2188 z" style="color:#000000;enable-background:accumulate;" fill="#000000" stroke="none" marker="none" visibility="visible" display="inline" overflow="visible"></path></g></svg>