<svg xmlns="http://www.w3.org/2000/svg" xmlns:xlink="http://www.w3.org/1999/xlink" version="1.1" x="0px" y="0px" viewBox="0 0 48 48" enable-background="new 0 0 48 48" xml:space="preserve"><g><path d="M45,24.3H31.2l-5.6,5.6H45V45H3V29.9h11.5l0.9-4.8l0.9-0.8H3c-1.7,0-3,1.3-3,3V45c0,1.7,1.3,3,3,3h42c1.7,0,3-1.3,3-3V27.3   C48,25.6,46.6,24.3,45,24.3z"></path><rect x="5" y="37.6" width="38" height="1.5"></rect><rect x="5" y="41.1" width="38" height="1.5"></rect><rect x="5" y="34.1" width="22.5" height="1.5"></rect><rect x="32.5" y="32.3" width="10.4" height="3.3"></rect><polygon points="21.8,30.8 21.8,30.8 17.2,26.2 17.2,26.2 16.2,31.9  "></polygon><path d="M47.1,5.5c1.3-1.3,1.3-3.3,0-4.5C46.4,0.3,45.6,0,44.8,0c-0.8,0-1.6,0.3-2.3,0.9L39,4.5L43.5,9L47.1,5.5z"></path><rect x="25.9" y="7.8" transform="matrix(0.7071 0.7071 -0.7071 0.7071 21.9067 -15.0124)" width="6.4" height="22.3"></rect><path d="M36.3,17.9c-0.5,0.5-0.5,1.2,0,1.7c0.5,0.5,1.2,0.5,1.7,0l9-9c0.5-0.5,0.5-1.2,0-1.7c-0.5-0.5-1.2-0.5-1.7,0l-1.8,1.8   l-6.4-6.4l-2.6,2.6l6.4,6.4L36.3,17.9z"></path></g></svg>