<svg xmlns="http://www.w3.org/2000/svg" viewBox="0 0 48 68" x="0px" y="0px"><path fill="#000000" fill-rule="evenodd" d="M674.143047,178.742781 C673.617555,177.429053 674.585071,176 676,176 L704,176 C705.414929,176 706.382445,177.429053 705.856953,178.742781 L702.637431,186.791586 C704.174654,187.411981 705.711265,188.219572 707.156035,189.242951 C711.397751,192.2475 714,196.476155 714,202 C714,206.204516 713.057726,211.278299 711.339894,217.059464 C710.269298,220.662432 708.92037,224.459239 707.356953,228.367781 C705.918839,231.963066 704.379265,235.456717 702.839395,238.714134 C702.300046,239.855065 701.798836,240.885658 701.348428,241.78895 C701.190225,242.106224 701.049491,242.385266 700.927808,242.623951 C700.853926,242.768873 700.802274,242.869167 700.774434,242.922705 C700.430208,243.584677 699.746122,244 699,244 L681,244 C680.253878,244 679.569792,243.584677 679.225566,242.922705 C679.197726,242.869167 679.146074,242.768873 679.072192,242.623951 C678.950509,242.385266 678.809775,242.106224 678.651572,241.78895 C678.201164,240.885658 677.699954,239.855065 677.160605,238.714134 C675.620735,235.456717 674.081161,231.963066 672.643047,228.367781 C671.07963,224.459239 669.730702,220.662432 668.660106,217.059464 C666.942274,211.278299 666,206.204516 666,202 C666,196.476155 668.602249,192.2475 672.843965,189.242951 C674.288735,188.219572 675.825346,187.411981 677.362569,186.791586 L674.143047,178.742781 Z" transform="translate(-666 -176)"></path></svg>