<svg xmlns="http://www.w3.org/2000/svg" xmlns:xlink="http://www.w3.org/1999/xlink" version="1.1" x="0px" y="0px" viewBox="0 0 166.377 280" style="enable-background:new 0 0 166.377 280;" xml:space="preserve"><path d="M116.568,280c14.06,0,15.231-5.857,12.887-15.229c-2.343-9.375-4.456-26.35-3.513-45.691  c1.17-24.018,23.43-66.777,32.802-96.068c9.371-29.288,12.889-67.949-5.858-87.866c-18.743-19.916-48.031-12.887-52.719-16.402  c-4.684-3.514,3.515-8.201,4.688-12.887C106.025,1.171,102.509,0,94.31,0H72.07c-8.203,0-11.716,1.171-10.546,5.857  c1.171,4.685,9.374,9.373,4.688,12.887c-4.688,3.515-33.976-3.514-52.722,16.402C-5.253,55.063-1.739,93.724,7.633,123.012  c9.374,29.291,31.632,72.05,32.805,96.068c0.94,19.342-1.173,36.316-3.514,45.691C34.579,274.142,35.752,280,49.808,280H116.568z"></path></svg>