<svg xmlns="http://www.w3.org/2000/svg" xmlns:xlink="http://www.w3.org/1999/xlink" version="1.1" x="0px" y="0px" viewBox="0 0 100 100" style="enable-background:new 0 0 100 100;" xml:space="preserve"><path d="M68.7,34.5c-0.2,0-0.4,0-0.7,0c1.4-2.8,2.2-5.9,2.2-9.3c0-11-9-20.1-20.2-20.1s-20.2,9-20.2,20.2c0,3.3,0.8,6.5,2.2,9.3  c-0.2,0-0.4,0-0.7,0c-11.2-0.1-20.2,9-20.2,20.1S20.1,75,31.4,75c6.3,0,12-2.9,15.7-7.6C44.8,79.5,39,95,38.3,95h23.5  c-0.8,0-6.5-15.5-8.8-27.6C56.6,72,62.3,75,68.6,75c11.2,0,20.2-9,20.2-20.2S80,34.5,68.7,34.5z"></path></svg>