<svg xmlns="http://www.w3.org/2000/svg" xmlns:xlink="http://www.w3.org/1999/xlink" version="1.1" x="0px" y="0px" viewBox="0 0 100 100" style="enable-background:new 0 0 100 100;" xml:space="preserve"><g><path d="M80.773,49.78C80.717,49.409,80.739,50.04,80.773,49.78L80.773,49.78z"></path><path d="M89.968,48.905c-0.314-1.915,0.516-4.6-1.614-5.186c-1.346-0.37-6.755-2.123-8.023-1.342   c-1.082,0.666,0.289,6.388,0.442,7.402c0.064,0.378-0.024,0.693-0.265,0.946c-1.644-1.368-0.637-6.432-1.748-8.271   c-1.962-3.248-5.997-4.178-8.369-7.182c-2.499-3.166-6.032-2.345-9.403-4.097c-3.085-1.603-5.953-2.347-9.363-1.73   c-3.403,0.616-6.712,1.735-10.15,2.152c-1.82,0.221-3.575,0.268-5.398,0.062c-1.414-0.16-1.778,1.039-2.457,2.116   c-1.523,2.419-3.125,4.701-4.904,6.938c-1.07,1.346-2.072,2.765-3.049,4.179c-0.35,0.507-1.353,2.717-2.031,2.836   c-0.645,0.113,2.571-4.385,1.873-4.381c-2.559,0.015-6.74,2.214-9.238,2.994c-2.591,0.809-3.065,0.81-4.184,3.126   c-1.079,2.232-1.977,4.426-2.716,6.782c-0.57,1.817,3.837,4.564,4.933,5.476c1.867,1.555,4.539,3.688,6.953,4.335   c1.514,0.406,15.387-0.982,15.335-1.258c0.118,0.636-2.48,0.948-2.607,1.466c-0.213,0.868,4.327,2.257,5.101,2.61   c4.904,2.237,11.445,1.505,16.714,2.106c3.154,0.359,5.925-2.708,8.437-4.503c1.26-0.9,2.559-1.789,3.719-2.814   c0.949-0.838,3.371-3.636,4.818-3.818c0.505-0.064-3.395,3.257-3.535,3.631c-0.373,0.994,7.42,3.144,8.271,3.289   c1.65,0.282,4.51-2.633,5.787-3.644c2.425-1.919,4.789-3.89,6.968-6.09C92.327,54.958,90.398,51.526,89.968,48.905z M16.345,60.783   c-0.639-0.677-1.874-1.613-2.241-2.535c0.074-0.056,0.06-0.025,0.036-0.005c0.087-0.029,0.251,0.032,0.471,0.162   c0-0.028,0.033-0.055,0.097,0.002c-0.024,0.02-0.038,0.02-0.053,0.022c1.188,0.729,3.76,3.206,3.807,3.587   C18.596,63.093,16.544,60.993,16.345,60.783z M18.594,59.182c0.037,0.384-4.263-3.034-3.803-3.502   C15.019,55.448,18.594,58.931,18.594,59.182C18.594,59.017,18.608,59.328,18.594,59.182z M23.054,48.346   c-0.073-0.227-0.045-0.286,0.174-0.369C23.301,48.204,23.272,48.264,23.054,48.346z M42.973,58.943   C42.817,58.886,43.116,58.98,42.973,58.943c0.38,0.099-4.332,2.97-4.614,2.376C38.253,61.096,42.582,58.801,42.973,58.943z    M30.481,45.119c-0.728-0.608,3.307-5.402,4.033-6.043c0.005-0.009,0.021-0.026,0.066-0.059   C36.831,38.874,30.62,45.236,30.481,45.119z M36.473,37.287c-0.736,1.368-1.666,0.441-1.056-0.717   C36.052,35.367,37.086,36.149,36.473,37.287z M43.597,61.849c1.215-1.313-3.761,2.139-5.599,2.189   c-0.039-0.126-0.017-0.125,0.003-0.092c0.276-1.018,8.09-5.106,8.95-4.876C48.817,59.57,43.554,61.895,43.597,61.849z    M66.508,40.53c-0.098-0.48-2.135-4.122-1.997-4.222c1.022-0.734,4.076,6.802,4.191,7.273   C68.547,45.297,66.663,41.282,66.508,40.53z M67.804,36.515c0.732-0.342,2.983,4.508,3.219,5.306   c0.004,0.012,0.01,0.03,0.016,0.062C70.424,43.455,67.54,36.639,67.804,36.515z M78.4,57.291c-0.412,0.596-2.199,6.698-3.189,6.537   c-0.182-0.146-0.255-0.334-0.219-0.564c0.004-0.035,0.007-0.042,0.008-0.036c0.091-0.413,1.03-2.221,0.464-2.328   c-0.643-0.121-0.191,1.13-0.649,1.172c-0.703,0.064,0.239-2.66,0.687-2.607c0.592,0.071-0.017,1.19,0.312,1.233   c0.248,0.033,1.164-2.616,1.306-2.832c0.374-0.571,0.373-1.157,0.885-1.658C78.745,55.485,78.462,57.202,78.4,57.291z"></path></g></svg>