<svg xmlns="http://www.w3.org/2000/svg" xmlns:xlink="http://www.w3.org/1999/xlink" version="1.1" x="0px" y="0px" viewBox="0 0 48 48" enable-background="new 0 0 48 48" xml:space="preserve"><g><path fill="#000000" d="M35.8,12.4C25.6,2.1,13.4-2.3,8.6,2.4c-4.8,4.7-0.4,16.9,9.8,27.2c10.2,10.3,22.4,14.7,27.1,10   S46,22.6,35.8,12.4z M40.8,34.5c-3,2.9-11.4-0.8-18.9-8.3s-11.2-16-8.2-19c3-2.9,11.4,0.8,18.9,8.3S43.7,31.6,40.8,34.5z"></path><path fill="#000000" d="M34.4,46.3c-0.6,0-1-0.5-1-1c0-0.7-0.1-1.5-0.2-2.2c-0.1-0.3,0.1-0.6,0.3-0.9c-5.3-1.9-11.2-5.8-16.5-11.2   c-5.2-5.2-9-11-10.9-16.2c-0.2,0.2-0.4,0.4-0.7,0.4c0,0-0.1,0.1-0.1,0.2c-1,1.3-1.7,2.8-2.2,4.3c-0.1,0.4-0.6,0.7-1,0.7   c-0.1,0-0.2,0-0.3,0c-0.5-0.2-0.9-0.8-0.7-1.3c0.6-1.8,1.4-3.4,2.5-4.9c0.2-0.3,0.7-1,1.7-1c0.1,0,0.2,0,0.3,0   c-0.6-1.9-0.9-3.7-0.9-5.4c0-0.2,0-0.3,0-0.5c-6.5,10.1-5.3,23.7,3.5,32.5c5.5,5.5,12.8,8.1,20,7.7c-0.2-0.1-0.4-0.3-0.5-0.6   l-1.1-3.4c-0.2-0.5,0.1-1.1,0.7-1.3c0.5-0.2,1.1,0.1,1.3,0.7l1.1,3.4c0.1,0.4,0,0.8-0.3,1.1c1.8-0.2,3.6-0.5,5.4-1.1   C34.6,46.3,34.5,46.3,34.4,46.3L34.4,46.3z M2.8,25.7c-0.1,0-0.1,0-0.2,0C2,25.6,1.6,25,1.7,24.5c0.2-1.1,0.6-2.1,1.2-3.1   c0.3-0.5,0.9-0.7,1.4-0.4C4.9,21.3,5,22,4.7,22.4C4.3,23.2,4,24,3.8,24.9C3.7,25.4,3.3,25.7,2.8,25.7z M7.2,28.3l-0.4,5.5   c0,0.5-0.5,1-1,1c0,0-0.1,0-0.1,0c-0.6,0-1-0.5-1-1.1l0.4-5.5c-0.2-0.4-0.1-0.9,0.2-1.2c0.4-0.4,1.1-0.4,1.5,0   C7.2,27.4,7.2,28.1,7.2,28.3z M10,28.2L10,28.2c-0.6,0-1-0.5-1-1c0-0.7-0.1-1.4-0.2-2.1c-0.3-0.2-0.5-0.5-0.5-0.8   c-0.1-0.6,0.4-1.1,0.9-1.1c0.7-0.1,1.4,0.4,1.6,1.5c0.1,0.8,0.2,1.7,0.2,2.5C11,27.7,10.6,28.2,10,28.2z M14,42.6c0,0-0.1,0-0.1,0   c-0.5,0-1-0.4-1-0.9L12,35.6c0-0.3-0.1-0.8-0.3-0.9c-0.4-0.4-0.5-1-0.1-1.5c0.4-0.4,1-0.5,1.5-0.1c0.8,0.7,0.9,1.7,1,2.3l0.8,6.1   C14.9,42,14.5,42.5,14,42.6z M20.6,42.4C20.5,42.4,20.5,42.4,20.6,42.4c-0.6,0-1.1-0.4-1.1-1c-0.1-1.4-0.6-2.9-1.4-4   c-0.3-0.5-0.2-1.1,0.2-1.5c0.5-0.3,1.1-0.2,1.5,0.2c1.1,1.5,1.7,3.3,1.8,5.1C21.6,41.9,21.1,42.4,20.6,42.4z"></path><path fill="#000000" d="M35.3,42.8c0.1,0.8,0.2,1.7,0.2,2.5c0,0.4-0.2,0.8-0.6,0.9c2-0.7,4-1.5,5.8-2.7c-0.1,0-0.3,0-0.4,0   C38.7,43.5,37,43.2,35.3,42.8z"></path></g></svg>