<svg xmlns="http://www.w3.org/2000/svg" xmlns:xlink="http://www.w3.org/1999/xlink" version="1.1" x="0px" y="0px" viewBox="0 0 100 100" enable-background="new 0 0 100 100" xml:space="preserve"><path fill="#000000" d="M30.099,57.71c2.287-7.064,14.917-12.899,31.539-12.899c3.207,0,6.271,0.204,9.146,0.582  c0.393-1.78,0.604-3.616,0.604-5.496c0-7.32-3.114-14.004-8.24-19.105c2.55,2.104,4.876,4.504,6.969,7.086  c0.018,0.021,0.05,0.026,0.072,0.009c0.023-0.017,0.028-0.05,0.011-0.072c-2.851-3.948-6.274-7.545-10.298-10.379  c1.739,0.947,3.433,1.985,5.035,3.166c5.111,3.797,9.431,8.629,13.081,13.892c0.017,0.022,0.049,0.029,0.072,0.014  c0.024-0.015,0.032-0.048,0.017-0.071c-3.403-5.438-7.564-10.482-12.658-14.503c-1.735-1.378-3.579-2.647-5.532-3.721  c1.404,0.517,2.789,1.082,4.146,1.713c2.563,1.174,5.035,2.572,7.292,4.287c0.022,0.017,0.056,0.014,0.073-0.009  c0.019-0.022,0.016-0.056-0.007-0.073c-4.367-3.669-9.632-6.14-15.016-7.976c-2.698-0.923-5.443-1.746-8.253-2.25  c-1.542-0.257-3.092-0.479-4.649-0.623c-1.729-0.243-3.501-0.374-5.309-0.374C19.861,10.906,5,23.886,5,39.896  c0,13.841,11.11,25.41,25.965,28.293C30.729,67.036,28.842,61.592,30.099,57.71z M9.69,46.979c-0.932,0.157-1.963-1.352-2.303-3.371  c-0.341-2.02,0.14-3.784,1.071-3.941c0.932-0.156,1.964,1.354,2.304,3.372C11.102,45.06,10.623,46.823,9.69,46.979z M12.841,32.727  c-0.883,1.849-2.289,3.018-3.142,2.61s-0.829-2.235,0.053-4.084c0.882-1.848,2.289-3.016,3.142-2.609  C13.746,29.051,13.723,30.88,12.841,32.727z M16.227,42.323c-1.605-0.13-2.809-1.429-2.69-2.902c0.12-1.472,1.517-2.562,3.122-2.433  c1.604,0.133,2.808,1.43,2.689,2.902C19.227,41.364,17.831,42.453,16.227,42.323z M94.952,50.229  c-0.028-0.003-0.054,0.018-0.058,0.047c-0.31,2.817-0.996,5.573-1.91,8.241c-0.476,1.418-1.021,2.812-1.612,4.186  c0.566-2.155,0.915-4.364,1.11-6.572c0.589-6.461-0.204-12.951-1.806-19.163c-0.007-0.027-0.034-0.045-0.062-0.039  c-0.029,0.006-0.048,0.034-0.041,0.062c1.304,6.271,1.834,12.731,1.07,19.053c-0.108,0.865-0.252,1.725-0.414,2.579  c-0.081-0.385-0.205-0.762-0.361-1.135c0.114-3.434-0.2-6.875-0.831-10.228c-0.006-0.026-0.031-0.046-0.061-0.043  c-0.028,0.004-0.048,0.03-0.045,0.06c0.398,3.035,0.542,6.107,0.385,9.152c-3.432-5.479-14.968-9.51-28.68-9.51  c-16.416,0-29.724,5.775-29.724,12.899c0,16.168,13.309,29.276,29.724,29.276c14.173,0,26.021-9.774,28.997-22.849  c2.281-5.048,4.029-10.421,4.365-15.96C95.002,50.258,94.981,50.231,94.952,50.229z M79.25,69.424  c0.05,0.445,0.103,0.871,0.213,1.251c0.16,0.571,0.443,1.049,0.839,1.358c0.864,0.677,1.017,1.926,0.339,2.79  c-0.677,0.865-1.926,1.018-2.79,0.34c-0.425-0.331-0.677-0.802-0.744-1.296l-0.063-0.466c-0.167-1.254-0.062-2.344,0.085-3.31  c-1.547,0.439-3.198,0.815-4.936,1.119c0.302,0.404,0.57,0.832,0.785,1.291c0.395,0.821,0.622,1.707,0.79,2.599  c0.174,0.895,0.313,1.802,0.536,2.765l0.058,0.245c0.286,1.237-0.483,2.472-1.721,2.759c-1.236,0.287-2.472-0.482-2.759-1.719  c-0.171-0.734,0.039-1.479,0.491-2.014c0.512-0.599,0.803-1.28,0.941-1.975c0.131-0.694,0.117-1.399-0.012-2.079  c-0.115-0.58-0.36-1.129-0.695-1.62c-2.819,0.409-5.833,0.634-8.97,0.634c-15.627,0-28.294-5.497-28.294-12.279  c0-6.781,12.667-12.278,28.294-12.278c15.627,0,28.295,5.497,28.295,12.278C89.933,63.708,85.758,67.175,79.25,69.424z M61.638,51.2  c-10.968,0-19.858,3.857-19.858,8.617s8.89,8.618,19.858,8.618c10.967,0,19.857-3.858,19.857-8.618S72.604,51.2,61.638,51.2z"></path></svg>