<svg xmlns="http://www.w3.org/2000/svg" xmlns:xlink="http://www.w3.org/1999/xlink" version="1.1" x="0px" y="0px" viewBox="0 0 100 100" enable-background="new 0 0 100 100" xml:space="preserve"><path d="M68.792,80.482c-1.013,0-1.853,0.84-1.853,1.853s0.84,1.832,1.853,1.832s1.833-0.819,1.833-1.832  S69.805,80.482,68.792,80.482z"></path><path d="M32.007,69.652H44.18l5.216,9.562l0.486,1.868c0.085,0.337,0.404,0.544,0.741,0.46l20.456-5.217  c0.338-0.085,0.547-0.429,0.461-0.767l-4.117-16.135c4.011-4.336,6.495-10.416,6.495-17.13c0-13.182-9.605-23.857-21.453-23.857  c-11.847,0-21.452,10.675-21.452,23.857c0,0.252,0.018,0.516,0.025,0.767c-0.025,0.035-0.051,0.068-0.076,0.103l-4.373,6.264  c-0.897,1.29-0.574,3.039,0.714,3.938l1.638,1.15c-0.068,0.393-0.128,0.799-0.128,1.228c0,0.575,0.083,1.128,0.204,1.637  c-0.773,0.772-0.614,1.276-0.614,2.02c0,1.019,0.428,1.477,1.637,2.685c-0.238,0.703-0.382,1.493-0.382,2.353  c0,0.596,0.085,1.161,0.203,1.688c-0.171,0.333-0.281,0.699-0.281,1.1C29.579,68.563,30.667,69.653,32.007,69.652L32.007,69.652z"></path><circle cx="60.012" cy="86.306" r="1.833"></circle><circle cx="49.8" cy="87.584" r="1.833"></circle><path d="M77.248,22.608c-1.014,0-1.852,0.82-1.852,1.833s0.838,1.833,1.852,1.833s1.812-0.819,1.812-1.833  C79.062,23.428,78.262,22.608,77.248,22.608z"></path><circle cx="76.273" cy="76.589" r="1.833"></circle><circle cx="86.162" cy="41.334" r="1.833"></circle><circle cx="85.857" cy="60.002" r="1.833"></circle><path d="M50.009,5.009C25.159,5.009,5,25.149,5,50c0,24.852,20.159,44.99,45.009,44.99C74.859,94.99,95,74.852,95,50  C95,25.149,74.859,5.009,50.009,5.009z M50.009,91.154C27.277,91.154,8.837,72.732,8.837,50c0-22.733,18.44-41.173,41.172-41.173  c22.733,0,41.154,18.44,41.154,41.173C91.163,72.732,72.742,91.154,50.009,91.154z"></path><path d="M87.288,49.065c-1.013,0-1.832,0.838-1.832,1.852c0,1.013,0.819,1.833,1.832,1.833c1.014,0,1.833-0.82,1.833-1.833  C89.121,49.903,88.302,49.065,87.288,49.065z"></path><circle cx="82.822" cy="32.095" r="1.832"></circle><circle cx="82.497" cy="68.935" r="1.833"></circle><circle cx="18.381" cy="69.413" r="1.833"></circle><circle cx="13.608" cy="40.704" r="1.832"></circle><circle cx="17.426" cy="31.771" r="1.833"></circle><path d="M60.184,16.062c1.014,0,1.832-0.82,1.832-1.833s-0.818-1.833-1.832-1.833c-1.013,0-1.852,0.819-1.852,1.833  C58.332,15.242,59.171,16.062,60.184,16.062z"></path><circle cx="40.066" cy="86.353" r="1.833"></circle><circle cx="14.238" cy="60.479" r="1.833"></circle><path d="M14.487,51.221c0-1.012-0.839-1.831-1.852-1.831c-1.013,0-1.813,0.819-1.813,1.831c0,1.014,0.8,1.853,1.813,1.853  C13.648,53.072,14.487,52.234,14.487,51.221z"></path><circle cx="69.422" cy="18.218" r="1.833"></circle><path d="M24.298,75.062c-1.013,0-1.851,0.838-1.851,1.852c0,1.013,0.838,1.832,1.851,1.832c1.013,0,1.833-0.819,1.833-1.832  C26.13,75.9,25.311,75.062,24.298,75.062z"></path><circle cx="23.649" cy="24.269" r="1.833"></circle><path d="M31.628,80.979c-1.013,0-1.833,0.802-1.833,1.813c0,1.015,0.819,1.853,1.833,1.853c1.013,0,1.832-0.838,1.832-1.853  C33.46,81.78,32.641,80.979,31.628,80.979z"></path><path d="M50.296,14.458c1.013,0,1.832-0.819,1.832-1.833c0-1.013-0.819-1.833-1.832-1.833s-1.852,0.82-1.852,1.833  C48.444,13.639,49.283,14.458,50.296,14.458z"></path><path d="M40.408,16.062c1.013,0,1.813-0.82,1.813-1.833s-0.8-1.833-1.813-1.833c-1.013,0-1.852,0.819-1.852,1.833  C38.557,15.242,39.396,16.062,40.408,16.062z"></path><circle cx="31.303" cy="17.894" r="1.833"></circle></svg>