<svg xmlns="http://www.w3.org/2000/svg" xmlns:xlink="http://www.w3.org/1999/xlink" viewBox="0 0 100 100" version="1.1" x="0px" y="0px"><title>slice-1 copy 19</title><desc>Created with Sketch.</desc><g stroke="none" stroke-width="1" fill="none" fill-rule="evenodd"><path d="M5,42.2527675 C5,35.5467006 9.46676961,29.1223286 17.5783367,24.1626615 C26.187954,18.898591 37.7020531,16 49.9997296,16 C62.2974061,16 73.8115052,18.898591 82.4211225,24.1626615 C90.5326896,29.1223286 95,35.5467006 95,42.2527675 C95,48.959375 90.5326896,55.383747 82.4211225,60.3428734 C73.8115052,65.6069439 62.2974061,68.5060756 49.9997296,68.5060756 C37.7020531,68.5060756 26.187954,65.6069439 17.5783367,60.3428734 C9.46676961,55.383747 5,48.959375 5,42.2527675 L5,42.2527675 L5,42.2527675 Z M84.7967301,75.7522828 L84.7967301,66.4666268 C81.7413732,68.2378978 78.3956222,69.751264 74.8270734,70.9899643 L74.8270734,81.0682587 C77.5412038,80.0004137 80.0903989,78.7552253 82.4211225,77.3305307 C83.2549916,76.8206685 84.0401913,76.2913418 84.7967301,75.7522828 L84.7967301,75.7522828 L84.7967301,75.7522828 Z M72.6639888,71.6987971 C69.4810099,72.6812145 66.1449928,73.4560105 62.6937913,74.0037203 L62.6937913,84.415615 C66.1796021,83.8111336 69.521027,82.9563169 72.6639888,81.8668446 L72.6639888,71.6987971 L72.6639888,71.6987971 Z M12.0002824,73.173775 L12.0002824,64.4504272 C9.27101046,62.5672352 6.92947143,60.5088625 5,58.3126161 L5,59.2404248 C5,64.1990105 7.44807095,69.0013394 12.0002824,73.173775 L12.0002824,73.173775 L12.0002824,73.173775 Z M95,58.3126161 C92.8293446,60.7835285 90.1379267,63.0798008 86.9598147,65.1479057 L86.9598147,74.0810377 C92.1766339,69.7053062 95,64.5628889 95,59.2404248 L95,58.3126161 L95,58.3126161 Z M36.265765,73.8269177 C32.8102374,73.2294651 29.4688125,72.4135774 26.2961083,71.3770919 L26.2961083,81.5018849 C29.4271731,82.6556982 32.7713019,83.5689085 36.265765,84.2301614 L36.265765,73.8269177 L36.265765,73.8269177 Z M48.3979655,74.970458 C45.0073305,74.9055763 41.6723948,74.6357765 38.4288495,74.1697094 L38.4288495,84.603772 C41.6534678,85.1093087 44.9916481,85.3996544 48.3979655,85.469943 L48.3979655,74.970458 L48.3979655,74.970458 Z M60.5307068,74.3129899 C57.2822946,74.7358025 53.9473589,74.9628885 50.5610501,74.9855971 L50.5610501,85.485082 C53.9625005,85.4607514 57.30014,85.2131195 60.5307068,84.7557033 L60.5307068,74.3129899 L60.5307068,74.3129899 Z M17.5783367,77.3305307 C16.3524085,76.5806061 15.2200338,75.7939152 14.163367,74.9812717 L14.163367,65.859442 C14.1731008,65.8659301 14.1828347,65.8718776 14.1931094,65.8783658 C17.2225093,67.7301983 20.5606895,69.3192599 24.1330237,70.6282487 L24.1330237,80.6486902 C21.8066262,79.6770864 19.6094731,78.5719344 17.5783367,77.3305307 L17.5783367,77.3305307 L17.5783367,77.3305307 Z" fill="#000000"></path></g></svg>