<svg xmlns="http://www.w3.org/2000/svg" xmlns:xlink="http://www.w3.org/1999/xlink" version="1.1" x="0px" y="0px" viewBox="0 0 100 100" enable-background="new 0 0 100 100" xml:space="preserve"><g><path fill="#000000" d="M89.2,59.7H68.6c-1.4,0-2.6-1.2-2.6-2.7c0-1.4,1.2-2.6,2.6-2.6H76c2.2,0,4-1.8,4-4s-1.8-4-4-4H51.4v1.4H76   c1.4,0,2.6,1.2,2.6,2.6s-1.2,2.6-2.6,2.6h-7.4c-2.2,0-4,1.8-4,4.1c0,2.2,1.8,4,4,4h20.6c0.4,0,0.7-0.3,0.7-0.7S89.6,59.7,89.2,59.7   z"></path><polygon fill="#000000" points="23.5,39.6 23.5,43.2 33.4,41.4  "></polygon><polygon fill="#000000" points="51.4,43.2 51.4,39.6 41.4,41.4  "></polygon><path fill="#000000" d="M37.4,40.7l13.8-2.5c0,0,0.1,0,0.1,0v-8.5H23.5v8.5c0,0,0.1,0,0.1,0L37.4,40.7z"></path><path fill="#000000" d="M23.5,46.5h27.9v-1.9c0,0-0.1,0-0.1,0l-13.8-2.5l-13.8,2.5c0,0-0.1,0-0.1,0v25.7h27.9V47.9H23.5V46.5z"></path><path fill="#000000" d="M56.4,71.6H18.5c-1.1,0-1.9,0.9-1.9,1.9v7.9c0,1.1,0.9,1.9,1.9,1.9h37.9c1.1,0,1.9-0.9,1.9-1.9v-7.9   C58.3,72.4,57.4,71.6,56.4,71.6z"></path><path fill="#000000" d="M18.5,28.4h37.9c1.1,0,1.9-0.9,1.9-1.9v-7.9c0-1.1-0.9-1.9-1.9-1.9H18.5c-1.1,0-1.9,0.9-1.9,1.9v7.9   C16.5,27.6,17.4,28.4,18.5,28.4z"></path></g></svg>