<svg xmlns="http://www.w3.org/2000/svg" xmlns:xlink="http://www.w3.org/1999/xlink" version="1.1" x="0px" y="0px" viewBox="0 0 50 50" enable-background="new 0 0 50 50" xml:space="preserve"><path d="M18.872,23.461l-2.78,19.689c-0.064,0.457-0.417,0.819-0.872,0.895c-0.455,0.076-0.907-0.151-1.116-0.562L7.042,29.633  c-0.194-0.381-0.292-0.804-0.286-1.231L7.04,9.513c0.005-0.356,0.232-0.67,0.568-0.788s0.709-0.012,0.935,0.264l9.548,11.677  C18.73,21.448,19.014,22.461,18.872,23.461z M18.572,19.985c0.678,0.829,1.749,1.231,2.804,1.053l23.733-3.991  c0.317-0.053,0.569-0.294,0.638-0.607c0.068-0.314-0.062-0.637-0.327-0.817L31.237,6.021c-0.348-0.236-0.763-0.354-1.184-0.336  L9.541,6.555C9.183,6.57,8.864,6.787,8.717,7.113C8.571,7.44,8.622,7.822,8.849,8.1L18.572,19.985z M46.542,18.161  c-0.219-0.272-0.567-0.405-0.912-0.347l-23.14,3.892c-1.509,0.254-2.679,1.456-2.894,2.97l-2.756,19.49  c-0.076,0.537,0.135,1.075,0.556,1.418c0.421,0.342,0.992,0.438,1.502,0.254l19.234-6.948c0.413-0.149,0.743-0.467,0.908-0.875  l7.644-18.888C46.814,18.802,46.76,18.433,46.542,18.161z"></path></svg>