<svg xmlns="http://www.w3.org/2000/svg" xmlns:xlink="http://www.w3.org/1999/xlink" version="1.1" x="0px" y="0px" viewBox="0 0 100 100" enable-background="new 0 0 100 100" xml:space="preserve"><path d="M87.116,8.466C86,8.442,84.859,8.87,83.981,9.748L9.44,81.867l-0.024,0.024c-0.642,0.642-0.927,1.448-0.95,2.281  c0,0.807,0.309,1.64,0.926,2.257l0.048,0.048l4.085,4.086l0.023,0.023l0.024,0.024c0.617,0.617,1.426,0.903,2.256,0.926  c0.831-0.024,1.663-0.332,2.281-0.95l0.024-0.024l72.118-74.542c0.831-0.879,1.283-1.995,1.283-3.135  c0.001-1.139-0.427-2.28-1.282-3.135C89.398,8.895,88.257,8.466,87.116,8.466z M34.073,71.534l-5.606-5.606l1.188-1.141l5.559,5.559  L34.073,71.534z M36.852,68.66l-5.511-5.511L84.1,12.101c0.427,0.759,0.974,1.496,1.639,2.161c0.665,0.665,1.401,1.211,2.161,1.639  L36.852,68.66z"></path></svg>