<svg xmlns="http://www.w3.org/2000/svg" xmlns:xlink="http://www.w3.org/1999/xlink" viewBox="0 0 84 64" version="1.1" x="0px" y="0px"><title>Shape</title><desc>Created with Sketch.</desc><g stroke="none" stroke-width="1" fill="none" fill-rule="evenodd"><g transform="translate(-423.000000, -2519.000000)" fill="#000000"><path d="M476.76,2575.52 C470.867837,2576.91184 464.789221,2577.34072 458.76,2576.79 C456.01,2576.54 453.65,2578.54 451.45,2580.2 C449.25,2581.86 446.26,2583.32 443.85,2581.98 C442.11,2580.98 441.36,2578.88 441.13,2576.9 C440.9,2574.92 441.02,2572.9 440.37,2570.98 C439.65,2568.89 438.08,2567.24 436.73,2565.49 C432.473523,2559.94266 430.278191,2553.088 430.52,2546.1 C430.7,2541.57 422.82,2540 423,2535.46 C423.1,2532.92 425.94,2531.29 428.48,2531.21 C431.02,2531.13 433.48,2532.07 436.03,2532.21 C440.19,2532.5 444.18,2530.78 448.13,2529.44 C457.359451,2526.32418 467.143659,2525.19615 476.84,2526.13 C479.28,2526.36 481.13,2524.13 482.66,2522.2 C484.19,2520.27 486.54,2518.31 488.81,2519.2 C491.47,2520.3 491.23,2524.03 491.48,2526.9 C492.09,2533.84 498.08,2539.21 499.61,2546 C500.81,2551.35 499.28,2557.55 502.51,2562 C504.14,2564.27 507,2566.56 506,2569.13 C505,2571.7 501.52,2571.32 498.87,2571.13 C491.35,2570.54 484.13,2573.79 476.79,2575.53 L476.76,2575.52 Z M464.79,2529.89 C464.478787,2529.90092 464.190423,2530.05619 464.01,2530.31 C463.912249,2530.61666 463.968076,2530.95162 464.16,2531.21 C470.432353,2543.36289 473.748864,2556.82422 473.84,2570.5 C473.695513,2570.97919 473.871825,2571.49721 474.278638,2571.78876 C474.685451,2572.08031 475.232657,2572.08081 475.64,2571.79 L481.27,2570 C482.73,2569.55 482.89,2567.57 482.74,2566.05 C481.489315,2554.1827 477.740462,2542.71462 471.74,2532.4 C471.322163,2531.5632 470.728652,2530.82642 470,2530.24 C468.53,2529.24 466.56,2529.53 464.81,2529.88 L464.79,2529.89 Z M460.81,2533.15 C460.05,2531.94 458.81,2530.61 457.47,2530.97 L451.78,2532.46 C459.964138,2543.63015 464.304632,2557.1534 464.15,2571 C464.256771,2572.00231 465.009032,2572.81557 466,2573 C466.966997,2573.17485 467.960683,2573.13387 468.91,2572.88 C469.5,2572.77 470.18,2572.59 470.43,2572.04 C470.522749,2571.78757 470.56026,2571.51817 470.54,2571.25 C470.43,2558 467.86,2544.38 460.76,2533.15 L460.81,2533.15 Z M447.49,2544.72 C449.81,2549.25 452.17,2553.87 452.97,2558.9 C453.33,2561.17 453.37,2563.48 453.65,2565.76 C453.758381,2567.68518 454.410242,2569.54022 455.53,2571.11 C456.75,2572.59 458.95,2573.41 460.66,2572.53 C460.99,2561.66 457.66,2550.95 453.07,2541.1 C452.365806,2539.30923 451.272847,2537.69711 449.87,2536.38 C448.408987,2535.06134 446.288085,2534.77538 444.53,2535.66 C442.9,2536.66 442.53,2539.45 444.2,2540.46 C445.663965,2541.55827 446.801301,2543.03439 447.49,2544.73 L447.49,2544.72 Z M480.19,2530.73 C479.645878,2530.44378 479.033654,2530.31234 478.42,2530.35 L474.82,2530.25 C480.930974,2541.49339 484.648943,2553.87981 485.74,2566.63 C485.862008,2567.21334 486.229512,2567.71579 486.748475,2568.00878 C487.267437,2568.30177 487.887501,2568.35688 488.45,2568.16 C489.572425,2567.67998 490.356376,2566.64106 490.51,2565.43 C490.649141,2564.23956 490.598512,2563.03458 490.36,2561.86 C489.71,2557.21 489.56,2552.47 488.43,2547.92 C487,2542.22 484.08,2537.03 481.18,2531.92 C480.949869,2531.4359 480.606936,2531.01409 480.18,2530.69 L480.19,2530.73 Z M429.81,2536.21 C429.503233,2536.46906 429.381158,2536.88647 429.5,2537.27 C429.84,2539 431.62,2540 433.14,2541 C441.781269,2546.42416 446.984314,2555.94793 446.88,2566.15 C446.8,2569.67 446.08,2573.23 446.88,2576.67 C447.1,2577.67 448.56,2577.77 449.4,2577.19 C451,2576.09 451.19,2573.84 451.13,2571.91 C450.813427,2561.9855 448.018548,2552.29796 443,2543.73 C441.29,2540.82 439.13,2537.89 435.94,2536.73 C434.159159,2536.20817 432.303461,2535.98847 430.45,2536.08 C430.240453,2536.06066 430.029592,2536.09868 429.84,2536.19 L429.81,2536.21 Z M492.4,2552.11 C492.68,2554.24 492.81,2556.38 493.1,2558.5 C493.39,2560.62 493.84,2562.68 494.29,2564.76 C494.58099,2565.73539 495.383484,2566.47261 496.38,2566.68 C497.371385,2566.86563 498.388615,2566.86563 499.38,2566.68 C498.93,2563.95 494.96,2562.68 494.89,2559.93 C494.915095,2555.64993 494.556999,2551.37621 493.82,2547.16 C493.073105,2542.92327 491.201131,2538.96518 488.4,2535.7 C487.929678,2535.06943 487.235245,2534.64347 486.46,2534.51 C489.597743,2539.9179 491.636742,2545.89217 492.46,2552.09 L492.4,2552.11 Z M444.83,2566.31 C444.238371,2563.12668 443.446804,2559.98379 442.46,2556.9 C442.11,2555.8 441.73,2554.71 441.27,2553.65 C439.93983,2550.73426 438.146659,2548.05295 435.96,2545.71 C435.632044,2552.19493 437.59682,2558.58841 441.51,2563.77 C442.274544,2564.99101 443.458744,2565.89071 444.84,2566.3 L444.83,2566.31 Z M486.24,2532.66 L486.11,2527.23 C486.109281,2527.09871 486.071121,2526.97036 486,2526.86 C485.79,2526.54 485.28,2526.78 485,2527.07 C483.663456,2528.68613 483.663456,2531.02387 485,2532.64 C485.41,2533 486.25,2533.16 486.24,2532.66 Z"></path></g></g></svg>