<svg xmlns="http://www.w3.org/2000/svg" xmlns:xlink="http://www.w3.org/1999/xlink" version="1.1" x="0px" y="0px" viewBox="0 0 750 612" style="enable-background:new 0 0 750 612;" xml:space="preserve"><path d="M716.1,441.1c0,0,59-154.1-11.4-296.8c0,0,41.9-64.7,22.8-83.7c-23.8-23.8-87.5,5.7-110.4,19  c0,0-274-79.9-479.5,11.5c0,0-91.4-34.3-99-7.7c-7.6,26.7,26.6,99,26.6,99S0.6,327,65.3,441.1c0,0-38.3,70.1-15.2,95.1  c22.8,24.7,95.1-32.3,95.1-32.3s289.2,66.6,487.1,9.6c0,0,81.8,43.7,104.6,28.5C753.8,530.8,716.1,441.1,716.1,441.1z M675.7,427.2  c-1.5,5-6,8.2-11,8.2c-1,0-2.1-0.2-3.2-0.5c-6.1-1.8-9.5-8.1-7.8-14.2c3.7-12.7,21-87.2,19.8-125.2c-1.2-38-20.4-98.4-20.4-98.4  c-6.1-18-11.5-27.9-11.7-28.2c-3.1-5.5-1.1-12.5,4.4-15.6c5.4-3.1,12.4-1.2,15.5,4.4C663.9,162.1,722.2,268.4,675.7,427.2z"></path></svg>