<svg xmlns:dc="http://purl.org/dc/elements/1.1/" xmlns:cc="http://creativecommons.org/ns#" xmlns:rdf="http://www.w3.org/1999/02/22-rdf-syntax-ns#" xmlns:svg="http://www.w3.org/2000/svg" xmlns="http://www.w3.org/2000/svg" xmlns:sodipodi="http://sodipodi.sourceforge.net/DTD/sodipodi-0.dtd" xmlns:inkscape="http://www.inkscape.org/namespaces/inkscape" viewBox="0 0 95.000001 95.000001" version="1.1" x="0px" y="0px"><g transform="translate(0,-957.3622)"><path style="" d="m 56.279983,962.35183 c -1.485561,0.96647 -3.096186,2.21778 -4.877314,3.85858 -1.149168,1.05867 -2.244511,2.03033 -3.305203,2.94551 -1.817824,0.79909 -3.471139,1.45743 -5.038297,2.05506 -3.730903,0.2975 -6.839205,0.9353 -10.335679,2.99833 -0.11993,-0.0739 -0.239791,-0.14837 -0.359699,-0.22387 -7.417215,4.99001 -11.769049,6.77802 -15.17023,12.79068 -5.453664,-0.0567 -10.5598956,0.38811 -14.23954,1.68027 0.3540374,1.76518 1.0639796,3.82431 2.1934076,6.2155 -0.78927,0.43101 -1.5385992,0.87509 -2.1934076,1.34572 0.9664696,1.48547 2.2177728,3.09874 3.8585852,4.87979 1.0586581,1.1492 2.0303204,2.2446 2.9455056,3.3053 0.7986622,1.8168 1.4601752,3.4668 2.0575762,5.0333 0.297404,3.7328 0.931649,6.8426 2.995813,10.3407 -0.0735,0.1193 -0.148751,0.2378 -0.223868,0.3571 4.989298,7.4161 6.78006,11.7693 12.790684,15.1703 -0.05691,5.4546 0.387912,10.5618 1.680271,14.242 1.765171,-0.354 3.824301,-1.0664 6.215493,-2.1959 0.431013,0.7893 0.875099,1.541 1.345727,2.1959 1.48547,-0.9665 3.098739,-2.2178 4.879828,-3.8586 1.149168,-1.0587 2.244498,-2.0303 3.305203,-2.9455 1.817806,-0.7991 3.471152,-1.4599 5.038298,-2.0575 3.729851,-0.2975 6.837924,-0.9342 10.333162,-2.9958 0.120159,0.074 0.239506,0.1481 0.359699,0.2238 7.41714,-4.9901 11.771521,-6.7805 15.172746,-12.7932 5.453664,0.058 10.559897,-0.3834 14.239541,-1.6803 -0.354038,-1.7651 -1.063981,-3.8242 -2.193407,-6.2154 0.789268,-0.4311 1.538598,-0.8751 2.193407,-1.3458 -0.966469,-1.4855 -2.217774,-3.0987 -3.858586,-4.8798 -1.058658,-1.1491 -2.030319,-2.2445 -2.945505,-3.3052 -0.798663,-1.8168 -1.460176,-3.4669 -2.057578,-5.0333 -0.297351,-3.73205 -0.932812,-6.8412 -2.995812,-10.3382 0.07387,-0.11993 0.14837,-0.2398 0.223869,-0.3597 -4.989299,-7.41618 -6.780061,-11.76926 -12.790685,-15.17023 0.0569,-5.45462 -0.390428,-10.55933 -1.682787,-14.23954 -1.765158,0.35403 -3.821784,1.06397 -6.212976,2.1934 -0.431051,-0.78927 -0.877524,-1.5386 -1.348242,-2.1934 z M 44.601094,994.2166 c 2.105581,0.41047 4.147709,0.78007 6.119908,1.11432 0.01674,0.10199 0.02228,0.19819 0.03773,0.29933 0.535953,-0.0502 0.949691,-0.0765 1.466464,-0.12326 -0.08041,0.30621 -0.157022,0.60393 -0.254053,0.93824 -0.238394,0.8214 -0.524974,1.5712 -0.830074,2.2915 0.864055,0.39539 1.667453,0.76691 2.487707,1.1445 -1.576036,1.20347 -3.170575,2.05187 -4.761606,2.63107 -0.05444,-0.1967 -0.107615,-0.3933 -0.166015,-0.5911 -0.03987,-0.01 -0.08096,-0.01 -0.120738,-0.015 -0.0072,-0.1452 2.73e-4,-0.2831 -0.005,-0.4276 -0.538417,-1.90601 -0.961226,-3.75814 -1.39855,-5.48857 0.274975,1.80039 0.24683,3.51866 0.04779,5.16657 0.120335,0.6023 0.202886,1.2 0.274175,1.796 -0.75603,0.2096 -1.50766,0.3649 -2.256292,0.483 0.08635,-3.47882 0.316907,-6.65275 -0.64142,-9.21891 z m -4.117669,4.45222 c 1.20361,1.57618 2.054321,3.17048 2.633597,4.76158 -0.197673,0.055 -0.39483,0.1098 -0.593628,0.1686 -0.0064,0.04 -0.009,0.081 -0.01509,0.1207 -0.145169,0.013 -0.283101,-3e-4 -0.427613,0 -1.905987,0.5385 -3.758114,0.9612 -5.48855,1.3986 1.800381,-0.2751 3.518659,-0.247 5.166581,-0.048 0.602235,-0.1203 1.199941,-0.2029 1.795978,-0.2742 0.209549,0.7555 0.362305,1.5082 0.480437,2.2563 -3.476839,-0.086 -6.648776,-0.3162 -9.213821,0.6414 0.410159,-2.1042 0.78026,-4.1464 1.114312,-6.1174 0.102012,-0.017 0.198194,-0.023 0.299329,-0.038 -0.05007,-0.5351 -0.07652,-0.948 -0.123253,-1.464 0.30545,0.08 0.602321,0.1548 0.93572,0.2516 0.821405,0.2384 1.5712,0.525 2.291507,0.8301 0.395594,-0.8646 0.766717,-1.66709 1.144497,-2.48775 z m 17.597566,5.33258 c -0.410159,2.1043 -0.78026,4.1464 -1.11431,6.1174 -0.102013,0.017 -0.198195,0.022 -0.29933,0.038 0.05024,0.5368 0.07637,0.9513 0.123253,1.469 -0.305447,-0.08 -0.602324,-0.1549 -0.935719,-0.2516 -0.821405,-0.2384 -1.5712,-0.525 -2.291507,-0.8301 -0.395264,0.8638 -0.767037,1.6652 -1.144497,2.4852 -1.203726,-1.5759 -2.054151,-3.1706 -2.633598,-4.7616 0.197679,-0.055 0.394873,-0.1098 0.593628,-0.1685 0,-0.04 0.01252,-0.083 0.01509,-0.1233 0.145143,-0.013 0.283114,3e-4 0.427613,0 1.906051,-0.5384 3.758036,-0.9611 5.48855,-1.3985 -1.800445,0.275 -3.51862,0.247 -5.166582,0.048 -0.602202,0.1203 -1.199935,0.2029 -1.795978,0.2742 -0.209547,-0.7555 -0.362303,-1.5082 -0.480436,-2.2563 3.477413,0.086 6.648419,0.3163 9.21382,-0.6415 z m -11.520419,0.6289 c -0.04129,0.1652 -0.07796,0.3346 -0.120738,0.498 -0.14281,-0.1651 -0.296982,-0.3251 -0.427615,-0.4955 0.184905,-0.01 0.364613,3e-4 0.548353,0 z m 1.10928,0.7773 c 0.0055,0.1866 0.0022,0.3679 0.005,0.5533 -0.167646,-0.042 -0.339495,-0.08 -0.505591,-0.1232 0.166538,-0.1441 0.328696,-0.2984 0.50056,-0.4301 z m -2.44243,0.3269 c 0.167723,0.042 0.339625,0.08 0.50559,0.1233 -0.166282,0.1443 -0.328697,0.2984 -0.500558,0.4301 -0.0055,-0.1866 -0.0022,-0.3679 -0.005,-0.5534 z m 1.23505,0.8326 c 0.143087,0.165 0.297011,0.3251 0.427614,0.4956 -0.184905,0.01 -0.364612,-3e-4 -0.548352,0 0.04118,-0.1651 0.07796,-0.3345 0.120738,-0.4981 z m 1.197318,1.6929 c -0.08641,3.4811 -0.316712,6.6568 0.643936,9.2239 -2.106082,-0.4106 -4.14984,-0.78 -6.122423,-1.1143 -0.017,-0.1018 -0.02253,-0.1983 -0.03773,-0.2994 -0.535965,0.05 -0.949697,0.077 -1.466464,0.1233 0.08073,-0.3076 0.156537,-0.6073 0.254053,-0.9433 0.238395,-0.8213 0.524974,-1.5712 0.830074,-2.2915 -0.864054,-0.3954 -1.667454,-0.7669 -2.487706,-1.1445 1.576035,-1.2034 3.170574,-2.0518 4.761605,-2.6311 0.05444,0.1967 0.107615,0.3934 0.166015,0.5911 0.03987,0 0.08095,0.013 0.120738,0.015 0.0072,0.1452 -2.64e-4,0.2831 0.005,0.4276 0.538417,1.9061 0.961224,3.7581 1.398549,5.4886 -0.274975,-1.8004 -0.246829,-3.5186 -0.04779,-5.1666 -0.120336,-0.6022 -0.202886,-1.1999 -0.274176,-1.796 0.755814,-0.2094 1.507875,-0.3649 2.256291,-0.4829 z" fill="#000000" fill-rule="evenodd" stroke="none"></path></g></svg>