<svg xmlns="http://www.w3.org/2000/svg" xmlns:xlink="http://www.w3.org/1999/xlink" version="1.1" x="0px" y="0px" viewBox="0 0 100 100" enable-background="new 0 0 100 100" xml:space="preserve"><path d="M63.1,28l-3.7,5.8c10.9,4.1,18.8,14.7,18.8,27c0,15.9-13,28.9-28.9,28.9s-28.9-13-28.9-28.9c0-12.5,8-23.2,19.2-27.2l-4-5.7  c-12.9,5.4-22,18.1-22,32.9c0,19.7,16,35.7,35.7,35.7C69,96.5,85,80.5,85,60.8C85,46.1,75.9,33.4,63.1,28z"></path><path d="M60,2.9H38.9L28.8,14.1l14,19.2h12.9l14.2-19.2L60,2.9z M51.1,6.2h2.5l1.3,6.5h-3.9V6.2z M40.3,6.2h1.4l-1.5,6.5h-5.7  L40.3,6.2z M47.8,30.1h-0.5l-3.8-14.2h4.2V30.1z M54.7,29.1l3.5-13.2h6.3L54.7,29.1z"></path></svg>