<svg xmlns="http://www.w3.org/2000/svg" xmlns:xlink="http://www.w3.org/1999/xlink" version="1.1" x="0px" y="0px" viewBox="-255 347 100 100" style="enable-background:new -255 347 100 100;" xml:space="preserve"><style type="text/css">
	.st0{fill:none;stroke:#000000;stroke-width:4;stroke-miterlimit:10;}
	.st1{fill:none;stroke:#000000;stroke-width:3;stroke-linecap:round;stroke-miterlimit:10;}
</style><path d="M-204.6,373.3c-19.1,0-34.6,15.5-34.6,34.6c0,19.1,15.5,34.6,34.6,34.6S-170,427-170,407.9  C-170,388.8-185.6,373.3-204.6,373.3z M-204.6,432.4c-13.5,0-24.5-11-24.5-24.5c0-13.5,11-24.5,24.5-24.5s24.5,11,24.5,24.5  C-180.2,421.4-191.1,432.4-204.6,432.4z"></path><g><path class="st0" d="M-220.7,358.2l14,20.7c1,1.5,3.2,1.5,4.2,0l14-20.7c1.1-1.7-0.1-3.9-2.1-3.9h-28   C-220.7,354.2-221.9,356.5-220.7,358.2z"></path><line class="st1" x1="-204.5" y1="379.7" x2="-197" y2="354.2"></line><line class="st1" x1="-212.3" y1="354.2" x2="-204.8" y2="379.7"></line></g></svg>