<svg xmlns="http://www.w3.org/2000/svg" xmlns:xlink="http://www.w3.org/1999/xlink" version="1.1" x="0px" y="0px" viewBox="0 0 96 96" enable-background="new 0 0 96 96" xml:space="preserve"><g display="none"><g display="inline" opacity="0.2"><g><path fill="#000000" stroke="#EC2227" stroke-width="0.5" stroke-miterlimit="10" d="M90.594,84.536     c0,3.331-2.727,6.058-6.057,6.058H11.65c-3.33,0-6.057-2.727-6.057-6.058V11.65c0-3.331,2.727-6.057,6.057-6.057h72.887     c3.33,0,6.057,2.726,6.057,6.057V84.536z"></path><path fill="#000000" stroke="#EC2227" stroke-width="0.5" stroke-miterlimit="10" d="M20.738,94.594c-3.074,0-5.59-2.564-5.59-5.703     V7.295c0-3.136,2.516-5.701,5.59-5.701h54.541c3.074,0,5.588,2.565,5.588,5.701v81.596c0,3.139-2.514,5.703-5.588,5.703H20.738z"></path><path fill="#000000" stroke="#EC2227" stroke-width="0.5" stroke-miterlimit="10" d="M7.266,80.885     c-3.176,0-5.773-2.486-5.773-5.529V20.643c0-3.04,2.598-5.527,5.773-5.527h81.449c3.176,0,5.773,2.487,5.773,5.527v54.713     c0,3.043-2.598,5.529-5.773,5.529H7.266z"></path></g><circle fill="#000000" stroke="#EC2227" stroke-width="0.5" stroke-miterlimit="10" cx="48" cy="48" r="19.363"></circle><circle fill="#000000" stroke="#EC2227" stroke-width="0.5" stroke-miterlimit="10" cx="48" cy="48" r="46.5"></circle><line fill="#000000" stroke="#EC2227" stroke-width="0.5" stroke-miterlimit="10" x1="0.008" y1="0.008" x2="95.992" y2="95.992"></line><line fill="#000000" stroke="#EC2227" stroke-width="0.5" stroke-miterlimit="10" x1="95.992" y1="0.008" x2="0.008" y2="95.992"></line></g></g><g><path d="M51.961,18.19v6.551c15.512,1.955,27.551,15.22,27.551,31.253c0,17.376-14.136,31.512-31.512,31.512   S16.488,73.37,16.488,55.994c0-16.033,12.039-29.298,27.551-31.253V18.19C24.934,20.178,9.988,36.373,9.988,55.994   c0,20.96,17.052,38.012,38.012,38.012s38.012-17.052,38.012-38.012C86.012,36.373,71.066,20.178,51.961,18.19z"></path><polygon points="46.988,6.944 36.888,6.944 44.457,15.02  "></polygon><polygon points="36.763,5.444 42.643,5.444 39.115,2.637  "></polygon><polygon points="59.112,6.944 49.206,6.944 51.729,14.819  "></polygon><polygon points="50.949,5.444 54.844,2.344 41.156,2.344 45.051,5.444  "></polygon><polygon points="50.444,15.72 48.102,8.41 45.811,15.72  "></polygon><polygon points="56.885,2.637 53.357,5.444 59.237,5.444  "></polygon><polygon points="50.399,25.336 50.461,25.336 50.461,24.589 50.461,18.071 50.461,17.319 50.461,17.22 45.539,17.22 45.539,17.319    45.539,18.071 45.539,24.589 45.539,25.336 45.601,25.336  "></polygon></g></svg>