<svg xmlns:dc="http://purl.org/dc/elements/1.1/" xmlns:cc="http://creativecommons.org/ns#" xmlns:rdf="http://www.w3.org/1999/02/22-rdf-syntax-ns#" xmlns:svg="http://www.w3.org/2000/svg" xmlns="http://www.w3.org/2000/svg" xmlns:sodipodi="http://sodipodi.sourceforge.net/DTD/sodipodi-0.dtd" xmlns:inkscape="http://www.inkscape.org/namespaces/inkscape" version="1.1" x="0px" y="0px" viewBox="0 0 100 100"><g transform="translate(0,-952.36218)"><path d="m 38.074247,957.7855 c -2.45724,9.837 -5.31133,15.6721 -9.47254,19.8367 -4.12932,4.1327 -9.755741,6.7839 -18.069731,9.7306 -0.8730196,0.2107 -1.5427796,1.0725 -1.5318596,1.9712 l 0,14.0172 c 0.001,0.4647 0.1703,0.927 0.46894,1.2828 l 35.3578906,42.2705 c 0.90381,1.4955 1.76933,1.6888 3.09499,1.2828 17.97593,-4.7999 27.97994,-7.8036 40.10979,-13.579 0.0246,-4.8631 0.003,-9.6021 -0.0625,-13.7982 0.78084,-0.6366 1.58051,-1.2713 2.34469,-1.9087 0.86024,-0.7127 0.92239,-2.1896 0.12505,-2.9723 l -4.81443,-4.8184 c 0.98686,-1.1571 1.97239,-2.3301 2.93868,-3.4731 0.61014,-0.717 0.61014,-1.8798 0,-2.5968 l -37.0148,-43.0527 c -0.43597,-0.5155 -1.1453,-0.7849 -1.81323,-0.6884 -1.23797,0.3449 -1.95766,1.3962 -2.87615,2.3154 l -5.28336,-6.6018 c -1.47098,-1.2471 -2.70435,-0.5061 -3.5014,0.7822 z m 2.78236,4.7558 33.7635,42.0202 c -5.4955,11.4714 -13.24826,21.0217 -25.7603,26.0005 -11.30702,-13.5034 -22.95777,-26.9418 -34.451281,-40.3619 1.49273,-0.5566 2.90177,-1.1153 4.2517,-1.6895 l 13.567931,16.4576 c 0.28223,0.3717 0.84243,0.4981 1.2567,0.2834 0.41428,-0.2147 0.63449,-0.7455 0.494,-1.1907 l -1.40681,-4.9749 5.03326,2.1588 c 0.41221,0.2021 0.95879,0.072 1.23652,-0.2933 0.27774,-0.3658 0.25628,-0.9276 -0.0485,-1.271 l -12.34873,-15.2374 c 1.80869,-1.1835 3.47038,-2.472 4.97073,-3.9737 4.18862,-4.1919 7.08297,-9.9105 9.44128,-17.9281 z m 9.03486,3.692 34.48254,40.0803 c -10.32342,12.1731 -21.39811,24.5543 -35.35789,28.6914 l 0,-0.2504 c 14.78523,-5.4196 23.86796,-16.6823 29.82443,-29.5987 0.313,-0.6717 0.21214,-1.5171 -0.2501,-2.0962 l -29.19918,-36.3258 z m -36.889751,28.5036 32.012801,37.3895 0,8.7608 -32.012801,-38.2657 z m 69.996741,19.3987 3.03247,3.035 c -8.12561,6.663 -17.07548,13.1277 -26.47934,17.678 8.95747,-5.0314 16.52142,-12.7724 23.44687,-20.713 z m 1.03167,9.8246 0,8.0411 c -5.78694,2.7568 -18.13025,7.2048 -35.01401,11.7644 l 0,-0.6258 c 12.7095,-3.5049 24.5245,-11.0168 35.01401,-19.1797 z" style="text-indent:0;text-transform:none;direction:ltr;block-progression:tb;baseline-shift:baseline;color:#000000;enable-background:accumulate;" fill="#000000" fill-opacity="1" stroke="none" marker="none" visibility="visible" display="inline" overflow="visible"></path></g></svg>