<svg xmlns="http://www.w3.org/2000/svg" xmlns:xlink="http://www.w3.org/1999/xlink" version="1.1" x="0px" y="0px" viewBox="0 0 90 90" enable-background="new 0 0 90 90" xml:space="preserve"><g><path d="M53.94,63.57l0.226,0.139c-0.071-0.049-0.139-0.096-0.207-0.145L53.94,63.57z"></path><path d="M87.642,38.16l-0.062-0.015l0.029-0.131L50.61,30.472l-1.491-6.141V14.092h-2.491l-1.233-5.07l-20.855,5.07h-8.43   l-0.048,0.338l-1.583,2.112l-0.826,0.2L2.358,19.287L4.7,29.55l-0.417,0.554H4.174l-0.002,0.148l-0.089,0.121l0.088,0.012   L3.604,77.346l-0.002,0.184h12.042l0.786,3.449l14.187-3.449h18.503v-4.498l11.185-2.723l-1.138-4.678l21.963,4.479L87.642,38.16z    M48.756,73.117v4.051H32.101H15.56H3.97l0.562-46.706l0.178-0.003l9.716,1.374l1.276-12.316l0.483-3.391l0.239-1.673h6.634h23.658   h2.04v8.39v7.249l-7.704-1.569l-0.177-0.036l-0.027,0.132l-0.458-0.094l-0.785,3.851H19.502v1.638h19.767l-0.85,4.184H7.047v1.637   h31.037l-0.854,4.186H19.502v1.637h17.395l-0.854,4.188H10.769v1.637h24.943l-0.854,4.184H19.502v1.637h15.021l-0.646,3.172   l4.971,1.014H13.68v1.637h30.404v-0.57l4.672,0.953V73.117z M49.119,62.738l-0.182-0.039l-0.182-0.035l-4.672-0.953l-1.089-0.223   l-8.143-1.66l0.518-2.525l0.331-1.637l0.854-4.184l0.334-1.637l0.854-4.188l0.334-1.637l0.854-4.186l0.334-1.637l0.852-4.184   l0.335-1.638l0.706-3.461l7.598,1.547l0.182,0.039l0.182,0.036l1.588,0.325l36.475,7.436l-6.306,30.918L58.949,64.74L49.119,62.738   z"></path><rect x="29.529" y="26.556" width="14.555" height="1.638"></rect><rect x="19.502" y="67.311" width="24.582" height="1.639"></rect><path d="M56.11,34.894l-12.496-2.545l-3.24,15.879l12.5,2.548L56.11,34.894z M51.37,48.785c-0.521-0.799-1.707-2.154-3.562-2.713   c-1.392-0.42-3.153-0.388-5.291,0.666c-0.053,0.029-0.12,0.097-0.193,0.185L44.9,34.295l9.264,1.885l-2.579,12.648L51.37,48.785z"></path><path d="M49.139,35.819c-0.312-0.048-0.619-0.052-0.922-0.017c-1.866,0.212-3.491,1.909-3.84,4.177   c-0.4,2.637,1.077,5.048,3.308,5.389c0.058,0.011,0.116,0.017,0.171,0.02c2.167,0.219,4.198-1.611,4.59-4.181   C52.847,38.572,51.365,36.158,49.139,35.819z"></path><rect x="61.063" y="38.816" transform="matrix(0.9799 0.1995 -0.1995 0.9799 9.3426 -13.4573)" width="20.784" height="1.638"></rect><rect x="59.8" y="45.017" transform="matrix(-0.9799 -0.1995 0.1995 -0.9799 129.8239 104.7544)" width="20.781" height="1.637"></rect><rect x="58.534" y="51.21" transform="matrix(-0.9799 -0.1996 0.1996 -0.9799 126.0774 116.7737)" width="20.783" height="1.642"></rect><rect x="39.656" y="55.637" transform="matrix(-0.9799 -0.1996 0.1996 -0.9799 105.4282 123.5412)" width="38.574" height="1.636"></rect></g></svg>