<svg xmlns="http://www.w3.org/2000/svg" xmlns:xlink="http://www.w3.org/1999/xlink" xml:space="preserve" style="shape-rendering:geometricPrecision;text-rendering:geometricPrecision;image-rendering:optimizeQuality;" viewBox="0 0 0.193528 0.320507" x="0px" y="0px" fill-rule="evenodd" clip-rule="evenodd"><defs><style type="text/css">
   
    .fil0 {fill:black;fill-rule:nonzero}
   
  </style></defs><g><path class="fil0" d="M0.0960768 0.0119648l-0.0302486 -0.0119648 -0.020717 0.00690565 -0.0436269 0.12077 0.0177326 0.0104293 0.0329849 -0.0896947 0.00356306 0.000196854 0.0115278 0.0465167 -2.75596e-005 0.000984272 -0.0672651 0.220607c0.00239769,-0.00136617 0.00509065,-0.00208272 0.00785449,-0.00208272 0.0047875,0 0.00929546,0.00215752 0.0123152,0.00587414l0.00500404 0c0.00301975,-0.00371661 0.00752771,-0.00587414 0.0123152,-0.00587414 0.00479144,0 0.0092994,0.00215752 0.0123152,0.00587414l0.00500798 0c0.00301581,-0.00371661 0.00752378,-0.00587414 0.0123152,-0.00587414 0.0047875,0 0.0092994,0.00215752 0.0123152,0.00587414l0.00500798 0c0.00301581,-0.00371661 0.00752378,-0.00587414 0.0123152,-0.00587414 0.0047875,0 0.00929546,0.00215752 0.0123152,0.00587414l0.00500404 0c0.00301581,-0.00371661 0.00752771,-0.00587414 0.0123152,-0.00587414 0.0047875,0 0.0092994,0.00215752 0.0123152,0.00587414l0.00500798 0c0.00301581,-0.00371661 0.00752378,-0.00587414 0.0123152,-0.00587414 0.0047875,0 0.00929546,0.00215752 0.0123152,0.00587414l0.00500404 0c0.00301975,-0.00371661 0.00752771,-0.00587414 0.0123152,-0.00587414 0.0027599,0 0.00546074,0.00071655 0.00785449,0.00208272l-0.0672651 -0.220607 -2.75596e-005 -0.000984272 0.0115278 -0.0465167 0.003567 -0.000196854 0.032981 0.0896947 0.0177287 -0.0104293 -0.0436229 -0.12077 -0.020717 -0.00690565 -0.0302486 0.0119648 -0.00137404 0zm0.000685053 0.0105238c0.00187012,0 0.0033859,0.00151578 0.0033859,0.0033859 0,0.00187012 -0.00151578,0.0033859 -0.0033859,0.0033859 -0.00187012,0 -0.0033859,-0.00151578 -0.0033859,-0.0033859 0,-0.00187012 0.00151578,-0.0033859 0.0033859,-0.0033859zm0 0.0166657c0.00187012,0 0.0033859,0.00151578 0.0033859,0.0033859 0,0.00187012 -0.00151578,0.0033859 -0.0033859,0.0033859 -0.00187012,0 -0.0033859,-0.00151578 -0.0033859,-0.0033859 0,-0.00187012 0.00151578,-0.0033859 0.0033859,-0.0033859zm0 0.0166657c0.00187012,0 0.0033859,0.00151578 0.0033859,0.0033859 0,0.00187012 -0.00151578,0.0033859 -0.0033859,0.0033859 -0.00187012,0 -0.0033859,-0.00151578 -0.0033859,-0.0033859 0,-0.00187012 0.00151578,-0.0033859 0.0033859,-0.0033859zm0 0.0166657c0.00187012,0 0.0033859,0.00151578 0.0033859,0.0033859 0,0.00187012 -0.00151578,0.0033859 -0.0033859,0.0033859 -0.00187012,0 -0.0033859,-0.00151578 -0.0033859,-0.0033859 0,-0.00187012 0.00151578,-0.0033859 0.0033859,-0.0033859zm0 0.0166657c0.00187012,0 0.0033859,0.00151578 0.0033859,0.0033859 0,0.00187012 -0.00151578,0.0033859 -0.0033859,0.0033859 -0.00187012,0 -0.0033859,-0.00151578 -0.0033859,-0.0033859 0,-0.00187012 0.00151578,-0.0033859 0.0033859,-0.0033859z"></path></g></svg>