<svg xmlns="http://www.w3.org/2000/svg" xmlns:xlink="http://www.w3.org/1999/xlink" version="1.1" x="0px" y="0px" viewBox="0 0 100 100" enable-background="new 0 0 100 100" xml:space="preserve"><g><path d="M37.909,48.632L22.191,89.933c18.06,6.812,37.983,6.812,56.042,0L62.516,48.632C54.471,50.901,45.953,50.901,37.909,48.632   z"></path></g><g><path d="M46.818,30.159c-3.646-3.002-6.385-6.953-7.909-11.418l-2.584,0.59c1.441,4.676,1.812,9.605,1.088,14.443   c-0.079,0.527-0.084,1.061-0.018,1.588l1.397,10.941c7.472,2.074,15.365,2.074,22.837,0l1.397-10.941   c0.068-0.527,0.062-1.061-0.018-1.588c-0.724-4.838-0.352-9.768,1.088-14.443l-2.584-0.59c-1.524,4.465-4.261,8.416-7.908,11.418   c-0.132,0.105-0.261,0.227-0.384,0.346c-1.67,1.639-4.35,1.639-6.022,0C47.078,30.386,46.95,30.265,46.818,30.159z"></path></g><g><path d="M43.033,25.394c-0.199-0.268-0.39-0.535-0.577-0.809h15.51c-0.186,0.273-0.377,0.541-0.574,0.809H43.033z"></path></g><g><path d="M36.921,24.585c0.037,0.266,0.07,0.541,0.1,0.809h-1.31c-0.803,0.949-2.038,1.426-3.271,1.258   c-1.993-0.273-3.389-2.109-3.118-4.1c0.269-1.996,2.104-3.389,4.097-3.121c0.795,0.111,1.598,0.154,2.399,0.146   c0.473,1.541,0.828,3.123,1.062,4.719c-0.111,0.092-0.22,0.189-0.327,0.289H36.921z"></path></g><g><path d="M40.723,21.646c-0.42-0.844-0.791-1.701-1.112-2.58c3.044-0.795,5.79-2.461,7.894-4.803c0.086-0.1,0.176-0.184,0.271-0.275   c1.496-1.342,3.798-1.223,5.143,0.275c2.104,2.342,4.851,4.008,7.895,4.803c-0.321,0.879-0.692,1.736-1.112,2.58   C53.768,18.495,46.656,18.495,40.723,21.646z"></path></g><g><path d="M63.543,24.296c0.236-1.596,0.59-3.178,1.062-4.719c0.801,0.008,1.604-0.035,2.398-0.146   c1.234-0.17,2.469,0.309,3.271,1.258c1.297,1.541,1.105,3.832-0.43,5.133c-1.537,1.301-3.834,1.104-5.133-0.428h-1.311   c0.03-0.268,0.063-0.543,0.101-0.809h0.367C63.764,24.485,63.654,24.388,63.543,24.296z"></path></g><g><path d="M46.988,6.339c0.436-0.789,1.144-1.393,1.995-1.695c1.916-0.676,4.019,0.324,4.696,2.242   c0.68,1.914-0.322,4.016-2.238,4.697c-0.334,0.119-0.559,0.436-0.559,0.787v0.227h-1.066V12.3c0-0.844,0.513-1.602,1.297-1.912   c1.258-0.498,1.871-1.92,1.373-3.178c-0.497-1.252-1.92-1.871-3.176-1.371c-0.692,0.273-1.222,0.852-1.438,1.561   c-0.097,0.316-0.369,0.541-0.696,0.576c-0.454,0.057-0.861-0.273-0.914-0.723C46.211,6.802,46.537,6.388,46.988,6.339z"></path></g></svg>