<svg xmlns="http://www.w3.org/2000/svg" xmlns:xlink="http://www.w3.org/1999/xlink" version="1.1" x="0px" y="0px" viewBox="0 0 100 100" enable-background="new 0 0 100 100" xml:space="preserve"><path d="M84.887,47.62c-4.162-2.334-10.679-6.673-27.869-8.505c0,0,0.18-34.368,0.361-36.535c0.182-2.17,0.182-2.84-1.266-2.84  c-1.449,0-2.537-0.499-2.352,0.502c0.025,0.144,0.041,1.068,0.054,2.517C37.981-0.769,25.124,2.811,20.779,4.316  c-2.514-4.375-5.909-2.687-5.566-1.736c0.363,1,6.517,16.513,9.773,39.868c3.257,23.355,0.363,36.868,0.363,36.868  s1.99,1.167,2.895,0.833c0.903-0.333,2.172-0.669,2.896-5.337c0.277-1.796,0.422-4.942,0.484-8.299  c2.001,1.882,5.48,4.509,11.305,7.374c0.506,10.086,1.294,22.681,2.145,24.444l2.17,1.669l2.716-0.831l0.131-25.711l2.925-0.815  h2.011l0.05-0.573l23.916-6.651C78.876,72.162,78.964,81.212,80,86.655l2.171,1.002l2.353-0.5l1.631-36.869  C86.154,50.289,89.047,49.956,84.887,47.62z M79.13,60.076l-3.763-1.388l3.857-0.996C79.199,58.278,79.166,59.087,79.13,60.076z   M30.203,44.624c-0.083-0.432-0.344-1.797-0.73-3.788c3.633-0.973,13.113-3.256,24.298-3.995c-0.003,1.019-0.006,1.809-0.009,2.309  C47.552,39.586,34.418,41.411,30.203,44.624z M39.182,35.113c-0.686,0.091-1.368,0.187-2.04,0.29l-3.595-24.849  c0.869-0.034,1.745-0.073,2.621-0.127L39.182,35.113z M34.263,35.889c-0.777,0.146-1.528,0.299-2.24,0.462l-4.757-25.684  c0.995,0,2.075-0.008,3.202-0.029L34.263,35.889z M46.485,34.327L44.48,9.688c1.463-0.162,2.835-0.327,4.069-0.482l0.487,24.912  C48.241,34.179,47.381,34.249,46.485,34.327z M53.785,33.816c-0.43,0.021-1.008,0.054-1.7,0.097L50.787,8.915  c1.424-0.191,2.487-0.347,3.052-0.429C53.848,16.058,53.811,27.073,53.785,33.816z M42.09,9.94l1.702,24.64  c-0.638,0.062-1.286,0.134-1.941,0.207l-3.084-24.538C39.892,10.154,41.003,10.051,42.09,9.94z M22.935,10.625  c0.546,0.014,1.223,0.023,1.993,0.031l5.066,26.219c-0.431,0.126-0.84,0.258-1.226,0.395C27.242,29.592,24.817,17.81,22.935,10.625z   M31.662,61.673c-0.001-1.197-0.011-2.347-0.025-3.401c2.839,1.567,8.351,4.592,10.846,5.837c0.061,1.434,0.138,3.283,0.235,5.372  C39.896,67.659,34.493,64.082,31.662,61.673z M50.133,65.217l2.801-0.726l-0.103,3.206l-2.716,0.662L50.133,65.217z M55.758,63.762  l13.852-3.582l4.854,2.235L55.487,67.05L55.758,63.762z"></path></svg>