<svg xmlns="http://www.w3.org/2000/svg" xmlns:xlink="http://www.w3.org/1999/xlink" version="1.1" x="0px" y="0px" viewBox="0 0 100 100" enable-background="new 0 0 100 100" xml:space="preserve"><g><path fill="#000000" d="M31.1,52.6l19.1,4.7l30.8-5.6c0.5-0.1,0.6-0.7,0.2-1c-3.6-1.9-14-7-24.5-7C46.9,43.7,29.2,46.1,31.1,52.6z"></path><polygon fill="#000000" points="55.8,66.3 55.5,77.6 57.7,78.6 59.9,77.8 60.7,65.3 57.7,65.9  "></polygon><path fill="#000000" d="M82.2,52.8l-32.1,5.9l-19.7-4.9c-0.5,0-0.9-1.2-0.9-2.2c0-1.5,0.6-2.4,1.1-3c1-1.2,1.5-1.3,1.6-2l-1.4-6.3   c3.9-1.3,14.3-3,20.5-2.9l0.4,5.1l2.1-0.2h1.2H56L53.3,5.1c0,0-0.6,0-1.7,0l0.9,11.2c0.1,1-0.6,1.8-1.6,1.9l-1.3,0.1l1.2,13   c-3.3,0.1-12.3,0.6-21.4,2.4L26.6,21L23.1,5.8c0,0-0.1,0-0.1,0L19.5,6l-1.8,1.6l8.1,38c0,0,1.2,4.4,0.7,8.7s-2.8,29.8-2.8,29.8   l1.9,2l3.7-0.9L32.6,60l14.7,4l0.3,29.1l2.5,1.9l3.2-1.1l0.5-28.6l22.5-4.9l0.7,26.6l2.9,0.9l2.5-1.1L82.2,52.8z"></path><path fill="#000000" d="M49.1,17.1l1.7-0.1c0.3,0,0.6-0.3,0.6-0.7L50.5,5C45.6,5,34.8,4.9,24.2,5.7l2.9,13   C30.7,18.2,38,17.5,49.1,17.1z"></path></g></svg>