<svg xmlns="http://www.w3.org/2000/svg" xmlns:xlink="http://www.w3.org/1999/xlink" version="1.1" x="0px" y="0px" viewBox="0 0 50 50" enable-background="new 0 0 50 50" xml:space="preserve"><g><path d="M14.392,26.223c0.771,0.408,9.167,3.44,10.985,3.4c0.767,0.044,1.046-0.059,2.324-0.685   c1.277-0.632,5.239-2.866,4.979-3.666v-0.101c0,0-3.242-3.717-10.269-2.992c-2.511,0.169-7.107,2.087-8.308,3.097   C13.764,25.563,13.617,25.817,14.392,26.223z"></path><path d="M36.996,8.951c-0.558-1.879-2.151-4.371-6.884-4.023c-1.887,0.13-5.503,0.703-6.41,2.366   c-0.914,1.661-0.859,3.664-0.29,6.889c0.562,3.236,0.738,5.85-0.019,7.278c0.316,0.015,0.657,0.064,0.937,0.097   c0.184,0.002,0.36,0.005,0.532,0.015c0.044-0.508,0.305-3.686,0.184-4.741c0-0.384,0.503-0.58,1.116-0.398   c0.616,0.189,3.396,1.125,5.863,0.837c0.587-0.068,1.006,0.498,1.273,1.063c-0.584,2.157-0.973,4.237-0.716,5.977   c0.033,0.055,0.077,0.101,0.117,0.15c0.217,0.202,0.327,0.36,0.35,0.389c0.264,0.354,0.305,0.629-0.026,1.022   c-0.833,1.389-4.288,3.141-5.088,3.53c-1.102,0.544-1.55,0.742-2.262,0.749c-0.099,0-0.198,0-0.305-0.007h-0.007   c-1.994,0.021-10.412-3.038-11.216-3.455c-0.242-0.131-0.503-0.296-0.672-0.523c-0.051,0.799,0.246,1.663,0.313,1.924   c-0.026,0.806-0.11,0.81,0.018,1.886c0.121,1.079,1.34,8.921,1.34,8.921s0.271,0.382,0.466,0.231   c0.195-0.158-0.385-8.973-0.385-8.973s-0.121-0.423-0.426-0.643c-0.309-0.235-0.081-1.008,0.341-0.855   c0.418,0.146,6.197,2.948,9.439,2.926c0.323,0.225,0.672,0.529,0.639,1.072c-0.04,0.536,0.367,11.925,0.367,11.925   s0.396,0.462,0.581,0.264c0.198-0.19,0.518-11.895,0.518-11.895s-0.121-0.966,0.764-1.432c0.881-0.471,3.451-1.8,4.589-3.044   c0.228-0.114,0.279,0.499,0.198,0.62c-0.073,0.118,0.48,7.034,1.77,8.687c0.463,0.301,0.845,0.18,0.528-0.896   c-0.322-1.072-0.767-8.605-0.477-10.77c0.154-0.775,0.103-1.664-0.056-2.701c-0.165-1.039,0.133-2.656,0.882-5.008   C35.627,16.05,37.551,10.833,36.996,8.951z M28.545,15.332c-0.503-0.024-1.028-0.002-1.509,0.096   c-1.04,0.204-2.001-0.142-2.126-0.716c-0.114-0.574-1.781-5.835,1.182-6.634c0.918-0.041,2.284,0.641,2.405,2.368   C28.604,11.83,28.566,14.365,28.545,15.332z M33.854,16.408c-0.595-0.003-1.719-0.059-2.192-0.325   c-0.268-0.156-0.804-0.354-1.457-0.509c0-2.258-0.025-5.248,1.45-6.992c0.313-0.369,0.712-0.595,1.149-0.7   c1.152-0.261,2.492,0.384,2.684,1.67c0.088,0.604-0.019,1.328-0.169,1.917C34.933,13.03,34.375,14.721,33.854,16.408z"></path><path d="M24.701,32.615c0.007-0.188-0.066-0.327-0.297-0.515c-0.165-0.003-0.356-0.015-0.54-0.033   c0.092,0.757,0.25,1.862,0.448,2.468c0.154,0.492,0.323,0.73,0.444,0.852C24.712,33.903,24.686,32.787,24.701,32.615z"></path></g></svg>