<svg xmlns="http://www.w3.org/2000/svg" xmlns:xlink="http://www.w3.org/1999/xlink" version="1.0" x="0px" y="0px" viewBox="0 0 100 100" enable-background="new 0 0 100 100" xml:space="preserve"><path d="M74.5881805,86.6006012l-0.0469818-0.2185974c-4.0495605-15.0265045-3.6808472-31.8492584-3.4791031-36.5546722  c0.0912704-0.2002869,0.1393814-0.40411,0.1393814-0.610939v-3.2131996c0-2.7739258-6.1190186-5.10326-14.3882637-5.7543983  c0.3034248-2.4082756,0.6625824-4.7963066,1.0319023-7.2495804c0.2238731-1.4868965,0.4552765-3.0243473,0.6765137-4.5864639  c1.0349159-7.3091736,1.569458-16.3977432-3.5255623-21.8458023c-3.0147934-3.2238352-7.5566788-4.8370237-13.8216629-4.893086  c-0.2048073-0.0041424-0.4065552-0.005178-0.6027489-0.0005649c-0.9594154,0.0064489-1.9575195,0.0476835-2.9959183,0.1244571  c-4.4800797,0.3307246-7.7461834,1.8580076-9.7074661,4.5395784c-4.022356,5.4994612-1.8587608,14.5710869,0.4318333,24.1754684  c1.2616119,5.2896175,2.5660591,10.7592335,2.8001919,15.5838795c0.7958851,16.4000969-5.2485695,35.4273529-5.4913654,36.1823807  l-0.1180553,0.3313828c-0.3572731,1.0031891,0.1663513,2.1059799,1.169445,2.4631577  c0.2138004,0.0761642,0.4321175,0.1123123,0.6468582,0.1123123c0.7924957,0,1.5351906-0.4924622,1.8163013-1.2818527  l0.1275635-0.3582153l0.0164757-0.0481949c0.2387466-0.7310257,5.2720585-16.3280334,5.7285595-32.0446548  c1.6741447,0.8955345,4.3213081,1.6409607,7.5770569,2.139164c-0.6664848,18.8240013-0.6780205,39.3876228-0.6780205,40.6824226  c0,1.0648499,0.8632011,1.9280472,1.928051,1.9280472c1.0648537,0,1.928051-0.8631973,1.928051-1.9280472  c0-0.3162766,0.0115318-21.1913681,0.6736412-40.2352409c1.7968597,0.1482735,3.7075882,0.2282028,5.6889229,0.2282028  c0.0140762,0,0.0280075-0.0001411,0.0420837-0.0001411c0.1352348,6.5930748,1.0209808,14.1816635,3.2427559,23.6725998  c0.242794,1.0369873,1.2800636,1.6801758,2.3167686,1.437851c1.0367966-0.2426987,1.6805458-1.2799683,1.4378471-2.3167648  c-2.1667519-9.2557755-3.0331955-16.5423508-3.1599617-22.8980446c4.4822006-0.2449112,8.389843-0.9056091,11.1215477-1.8230324  c-0.1578827,6.8986626,0.0462189,21.4261169,3.6834412,34.9719391c0.1742554,0.925705,0.9833221,1.5716171,1.8925552,1.5716171  c0.1175842,0,0.2369614-0.0108261,0.3567123-0.033226C74.0942078,88.6545181,74.7839966,87.6472855,74.5881805,86.6006012z   M30.9807339,8.6137114c0.2570591-0.3514366,0.555069-0.6700163,0.8911591-0.9590826  c-1.7486134,4.6684132-0.9175663,11.7106438,2.4456501,20.2316742c2.5724564,6.5174294,3.2758942,11.2031174,3.3478203,14.237915  c-1.1668549,0.4199715-2.1468391,0.8914413-2.9015846,1.4018364c-0.4726906-4.5052643-1.6073494-9.2729988-2.7127304-13.9078007  C29.9729328,20.9051247,28.0101452,12.675231,30.9807339,8.6137114z M41.4903946,41.0711327  c-0.243969-4.2747993-1.4454231-9.177206-3.5860023-14.6005535c-3.3729591-8.5456486-4.0057869-15.6001644-1.6928787-18.8710709  c0.9591751-1.3564134,2.4296417-2.0351849,4.4835625-2.0711942c0.0789375-0.0003767,0.159008-0.0016007,0.2372398-0.0014596  c0.1051559,0.000659,0.2101288,0.001224,0.318203,0.005084c2.5851707,0.09339,3.4627724,0.7943792,3.897995,1.3135781  c1.8200684,2.1711273,0.9602585,8.3010645-0.2298965,16.7851429c-0.2240639,1.5974197-0.4557495,3.2493477-0.692894,5.0281811  c-0.4259033,3.1940403-0.7738571,7.3824654-1.0583572,12.0999718C42.5902214,40.854229,42.0303993,40.9583969,41.4903946,41.0711327  z M47.0639954,40.2776947c0.269062-4.3442307,0.5932884-8.1792412,0.9839363-11.1091633  c0.2354507-1.7659359,0.4662895-3.4110851,0.6894073-5.0021973c1.0961075-7.8140163,1.8563156-13.2465887,0.8264847-16.9264526  c1.0163689,0.5297427,1.8875656,1.1821547,2.6158562,1.960906c3.1038971,3.3190136,3.8822746,9.0774622,2.5238838,18.6713943  c-0.2187881,1.5453587-0.448967,3.074337-0.671524,4.552948c-0.3836784,2.5486412-0.7628403,5.0683784-1.0801506,7.6481819  c-0.2779579-0.0037193-0.5571861-0.0059776-0.8381081-0.0059776C50.3654976,40.0673332,48.6726189,40.1408119,47.0639954,40.2776947  z"></path></svg>