<svg xmlns="http://www.w3.org/2000/svg" xmlns:xlink="http://www.w3.org/1999/xlink" version="1.1" x="0px" y="0px" viewBox="0 0 100 100" style="enable-background:new 0 0 100 100;" xml:space="preserve"><title>keys-100px</title><path d="M74.4,94.3c0.3-0.3,0.3-0.7,0-0.9l-1.7-1.8c-0.4-0.4-0.4-1.1,0-1.6l1.5-1.4c0.4-0.4,1.1-0.4,1.6,0l1.4,1.4  c0.4,0.4,1.1,0.4,1.6,0l0,0l9.6-9.5c0.4-0.4,0.4-1.1,0-1.6l0,0L44.2,35.7c0.6-1.5,0.6-2.8-0.2-3.6c-0.8-0.7-1.8-0.9-2.8-0.6  c-0.2,0.1-0.5-0.1-0.5-0.3c0-0.1,0-0.1,0-0.2c0.1-0.6-0.1-1.1-0.5-1.6c-0.8-0.6-1.8-0.8-2.7-0.4l-0.2-0.2c-1.3-1.3-1.6-3.2-0.7-4.8  c2.7-5.1,3.1-10.9,0-14.1c-5-5.1-13.5-4.6-20.9,2.5s-7.9,15.8-3.2,20.7c3.3,3.4,9.5,3.1,15,0.1c1.6-0.9,3.6-0.6,4.9,0.7l0.1,0.1  c-0.4,0.9-0.2,1.8,0.3,2.6c0.4,0.4,1,0.6,1.6,0.6c0.2,0,0.5,0.2,0.5,0.4v0.1c-0.3,0.9-0.1,1.9,0.5,2.7c0.8,0.8,2.1,0.9,3.5,0.3  l36.1,38c0.4,0.4,0.4,1.1,0,1.6L67.2,88c-0.4,0.4-0.4,1.1,0,1.6l0,0l5.6,5.4c0.3,0.3,0.7,0.3,0.9,0L74.4,94.3z M28,27.2  c-0.3,1.2-0.9,2.2-1.8,3.1c-2.8,2.7-7.6,2.4-10.6-0.7s-3.1-7.9-0.3-10.6c0.9-0.8,2-1.4,3.1-1.7c0.8-0.2,1.4-0.8,1.6-1.6  c0.3-1.2,0.9-2.2,1.8-3.1c2.8-2.7,7.6-2.4,10.6,0.7s3.2,7.9,0.3,10.6c-0.9,0.8-2,1.4-3.1,1.7C28.8,25.8,28.2,26.4,28,27.2z"></path></svg>