<svg xmlns="http://www.w3.org/2000/svg" xmlns:xlink="http://www.w3.org/1999/xlink" version="1.1" x="0px" y="0px" viewBox="0 0 100 100" style="enable-background:new 0 0 100 100;" xml:space="preserve"><g><path d="M57.2368164,44.168457c-0.6613159,3.413208-0.6819458,4.1775513,0.5880737,5.0127563   c1.9306641,1.0375366,4.3082886,1.87677,7.2001953,2.2138672c0.5489502,0.0117188,1.0849609,0.03302,1.607605,0.06427   C66.3009033,38.1513672,55.3795776,27.425293,41.9931641,27.425293c-8.9155273,0-16.7406616,4.756897-21.0715942,11.8654785   c3.0178223,0.7223511,4.6697388,5.1292725,4.6697388,12.614502c0,7.3994751-1.7991333,12.024353-4.850647,12.6525879   c4.2905884,7.2797241,12.2081909,12.1779785,21.2525024,12.1779785c12.7752686,0,23.3104858-9.7678223,24.5344849-22.2269287   c-3.9224854-0.3005981-5.7163086,3.3430786-7.973938,8.93396c-0.2490234,0.6171875-0.4946289,1.2255859-0.7431641,1.8134766   c-2.0683594,4.9023438-7.1220703,5.4794922-9.3876953,5.4794922c-0.6347656,0-1.0507812-0.0449219-1.1206055-0.0537109   c-0.8227539-0.0966797-1.4111328-0.8417969-1.3144531-1.6650391c0.0966797-0.8212891,0.847168-1.4150391,1.6601562-1.3144531   c0.1954956,0.0223999,4.1228027,0.4121704,6.3830566-2.0419922c-1.211792-0.2114258-2.3192749-0.9075928-2.9567871-1.9326172   c-0.5112305-0.8222656-1.6782227-0.6914062-1.7280273-0.6835938c-0.8110352,0.1025391-1.5683594-0.4736328-1.6782227-1.2871094   c-0.109375-0.8144531,0.4462891-1.5634766,1.2587891-1.6835938c1.1601562-0.1669922,3.4545898,0.0742188,4.6953125,2.0703125   c0.2460938,0.3955078,0.7983398,0.6435547,1.3173828,0.5830078c0.4918823-0.055542,0.8450928-0.3776855,1.053833-0.953064   c1.013916-2.5012207,2.1782837-5.2157593,3.8778076-7.2337036c-6.3396606,0.3234253-11.4044189,0.2280273-15.4130859-0.3054199   c-0.8212891-0.109375-1.3989258-0.8632812-1.2895508-1.684082c0.1088867-0.8217773,0.8666992-1.3989258,1.684082-1.2895508   c3.0596924,0.4061279,6.788147,0.546936,11.302124,0.4268799c-5.5005493-3.0562744-7.8200073-7.4859009-7.9534912-7.7501221   c-0.3735352-0.7392578-0.0771484-1.6416016,0.6621094-2.015625c0.7353516-0.3725586,1.6376953-0.078125,2.0131836,0.6577148   c0.0760498,0.1479492,0.9907837,1.8536377,2.975647,3.7379761c0.0824585-0.8640137,0.2557983-1.7727661,0.4393921-2.7203979   c0.0996094-0.5141602,0.2060547-1.0620117,0.3085938-1.6479492c0.1118164-0.6391602,0.1162109-1.2236328,0.0126953-1.737793   c-0.1640625-0.8120117,0.3618164-1.6030273,1.1738281-1.7666016c0.8110352-0.1699219,1.6025391,0.3623047,1.7666016,1.1738281   c0.1777344,0.8813477,0.1787109,1.8393555,0.0019531,2.8481445C57.4492188,43.0722656,57.3393555,43.6376953,57.2368164,44.168457z   "></path><path d="M76.2158203,49.4604492c0.0961914,1.2943115,0.116333,2.5795288,0.072937,3.8535767   c2.288269,0.7515259,4.416626,1.6498413,6.5852661,2.5692749c3.2610474,1.3829346,6.6256104,2.8051147,10.8308716,3.8153687   c0.0772095-2.1386108-0.2537842-4.0899658-0.5105591-5.2333374c-8.6682739-0.0636597-13.916687-2.7648926-17.0309448-5.5411377   C76.1795654,49.1033325,76.2024536,49.2805176,76.2158203,49.4604492z"></path><path d="M91.5608521,66.2937622c0.861084-1.0913696,1.4047241-2.3354492,1.7301025-3.6141357   c-4.5683594-1.0667114-8.1367798-2.5706177-11.5883179-4.0336304c-1.9151611-0.8121948-3.7479248-1.5872192-5.6553345-2.2498169   c-0.2349243,1.8990479-0.6265259,3.7619019-1.1693726,5.5754395c0.2595215-0.0823364,0.5231323-0.1594849,0.7958984-0.2230835   C78.3346558,61.1286621,83.8504028,60.9572144,91.5608521,66.2937622z"></path><path d="M73.3031616,52.4547729c0.0098877-0.9185791-0.010437-1.8421021-0.0795288-2.7716675   c-0.1734619-2.3345337-0.6104736-4.597168-1.2733154-6.7628784c-0.0007935-0.0026245-0.0028687-0.0088501-0.00354-0.0110474   c-0.0003662-0.0011597-0.0003662-0.0023804-0.0007324-0.00354c-3.7417603-12.2042236-14.7908325-21.272583-27.9689941-22.0838623   c-0.6542969-0.0400391-1.3066406-0.0600586-1.9555664-0.0600586c-12.7539062,0-24.2832031,7.6967773-29.0874023,19.6254883   c-0.2973633,0.7363281-0.8110352,1.3505859-1.4868164,1.777832c-1.9575195,1.2373047-3.0800781,5.2348633-3.0800781,10.9682617   c0,5.9667969,1.4072266,10.3740234,3.5854492,11.2275391c0.925293,0.3613281,1.6669922,1.0185547,2.0888672,1.8496094   c5.371582,10.6035156,16.0820312,17.1904297,27.9516602,17.1904297c8.6806641,0,17.0483398-3.6503906,22.9575195-10.015625   c2.1783447-2.3462524,3.9474487-4.9546509,5.2926025-7.7457275c0.0148926-0.0354614,0.0239868-0.0720215,0.0418701-0.1068115   c0.0210571-0.0410156,0.0494995-0.0785522,0.0715942-0.1190796c1.4678345-3.1105957,2.395874-6.4489136,2.7665405-9.9093018   c-1.1425781-0.2994385-2.3375244-0.5484619-3.6075439-0.7362671C68.159729,68.760437,56.3353271,79.7358398,41.9931641,79.7358398   c-15.2495117,0-27.6557617-12.40625-27.6557617-27.6552734s12.40625-27.6552734,27.6557617-27.6552734   c15.1399536,0,27.4712524,12.230896,27.6470337,27.3299561C70.9298706,51.9346924,72.1453247,52.1712036,73.3031616,52.4547729z"></path><path d="M20.0107422,42.1728516c-0.1816406,0-0.4326172,0.0483398-0.7607422,0.4248047   c-0.0065308,0.0075073-0.0145874,0.0125732-0.0212402,0.0198975c-1.2166138,2.9155884-1.8913574,6.1116333-1.8913574,9.4630127   c0,2.9966431,0.5387573,5.8695679,1.5222778,8.5286255c0.0775146,0.0766602,0.149353,0.1608887,0.2106323,0.2565308   c0.2260742,0.3525391,0.5727539,0.7724609,0.9404297,0.7724609c1.0820312,0,2.5805664-3.3828125,2.5805664-9.7329102   C22.5913086,45.5839844,21.2617188,42.1728516,20.0107422,42.1728516z"></path></g></svg>