<svg xmlns="http://www.w3.org/2000/svg" xmlns:xlink="http://www.w3.org/1999/xlink" viewBox="0 0 22 20" version="1.1" x="0px" y="0px"><title>Medical 24px - Solid - 082 - Eye</title><desc>Created with Sketch.</desc><g stroke="none" stroke-width="1" fill="none" fill-rule="evenodd"><g fill-rule="nonzero" fill="#000000"><path d="M2.11572,4.57617 C2.06310543,4.52154322 1.98866043,4.49355884 1.91309,4.5 C1.01025,4.5 0,6.85205 0,10 C0,13.14795 1.01025,15.5 1.91309,15.5 C1.98866381,15.5064443 2.06311315,15.4784596 2.11573,15.42383 C2.53761,14.9961 2.51221,13.22803 2.4878,11.51807 C2.481,11.0332 2.47363,10.52441 2.47363,10 C2.47363,9.47559 2.48095,8.9668 2.48779,8.48193 C2.51221,6.772 2.5376,5.00391 2.11572,4.57617 Z"></path><path d="M21.47021,8 C21.216875,8.00007792 21.0035283,7.81064454 20.97363,7.55908 C20.35645,2.35449 15.53076,0.5 11.22021,0.5 C8.08075556,0.435267272 5.0530946,1.665749 2.84888,3.90222 C3.54035,4.63916 3.51966,6.25885 3.4878,8.49609 C3.48096,8.97656 3.47364,9.48047 3.47364,10 C3.47364,10.51953 3.48096,11.02344 3.4878,11.50391 C3.52003,13.76612 3.54346,15.40039 2.82813,16.12549 L2.8155,16.13403 C5.04169638,18.3545224 8.07769822,19.5702667 11.2212,19.50003 C16.3169,19.50003 20.42042,16.15237 20.97804,11.54003 C21.0086666,11.2889967 21.2217254,11.1002394 21.47462,11.10009 L22,11.10009 L22,8 L21.47021,8 Z M18,10 L16.74976,10 L13.8999,13.7998 C13.79279,13.9426705 13.6175957,14.0175458 13.4403113,13.9962211 C13.2630268,13.9748963 13.1105857,13.8606113 13.0404112,13.6964161 C12.9702368,13.5322208 12.99299,13.3430605 13.1001,13.20019 L15.50024,10 L11.26758,10 L9.416,12.77734 C9.26165717,13.0040258 8.95352462,13.0640858 8.72534523,12.9119598 C8.49716585,12.7598338 8.4341053,12.4523013 8.584,12.22265 L10.06573,10 L6.5,10 C6.22385763,10 6,9.77614237 6,9.5 C6,9.22385763 6.22385763,9 6.5,9 L10.06573,9 L8.584,6.77734 C8.48281192,6.62872344 8.46920753,6.43722162 8.54836985,6.27579288 C8.62753216,6.11436415 8.78727081,6.00786724 8.96672857,5.99687534 C9.14618633,5.98588344 9.31772813,6.07208922 9.416,6.22265 L11.26758,9 L15.50025,9 L13.1001,5.7998 C12.99299,5.65692949 12.9702368,5.46776918 13.0404112,5.30357393 C13.1105857,5.13937869 13.2630268,5.02509366 13.4403113,5.00376893 C13.6175957,4.9824442 13.79279,5.05731949 13.8999,5.20019 L16.74976,9 L18,9 C18.2761424,9 18.5,9.22385763 18.5,9.5 C18.5,9.77614237 18.2761424,10 18,10 Z"></path></g></g></svg>