<svg xmlns="http://www.w3.org/2000/svg" xmlns:xlink="http://www.w3.org/1999/xlink" version="1.1" x="0px" y="0px" viewBox="0 0 90 90"><desc iVinci="yes" version="4.4" gridStep="20" showGrid="no" snapToGrid="no" codePlatform="0"></desc><g><g><desc type="0" basicInfo-basicType="0" basicInfo-roundedRectRadius="12" basicInfo-polygonSides="6" basicInfo-starPoints="5" bounding="rect(-44.3887,-45.2222,88.7773,90.4444)" text="" font-familyName="" font-pixelSize="20" font-bold="0" font-underline="0" font-alignment="1" strokeStyle="0" markerStart="0" markerEnd="0" shadowEnabled="0" shadowOffsetX="0" shadowOffsetY="2" shadowBlur="4" shadowOpacity="160" blurEnabled="0" blurRadius="4" transform="matrix(1.01267,0,0,1,44.9513,44.9406)" pers-center="0,0" pers-size="0,0" pers-start="0,0" pers-end="0,0" locked="0" mesh="" flag=""></desc><path d="M73.3184,22.609 C72.6258,23.33 71.0703,24.044 71.1037,27.087 C71.1371,30.131 74.3493,34.143 64.6641,46.488 C60.5247,51.7643 70.9285,55.008 72.247,47.936 C72.7807,45.078 72.6794,42.393 73.3913,40.891 C74.48,38.592 75.358,36.923 75.6911,35.952 C76.0598,34.88 81.5241,25.587 80.1206,24.932 C78.718,24.276 79.1383,24.157 78.2157,23.526 C77.1808,22.819 74.0111,21.888 73.3184,22.609 M52.6315,45.915 C51.9824,46.897 52.3692,47.725 52.8654,48.383 C53.3617,49.041 55.3809,48.58 56.746,50.601 C58.1101,52.621 61.1025,48.321 61.2524,46.655 C61.4013,44.989 63.9684,37.526 65.6798,34.573 C67.3913,31.621 70.6156,28.575 71.1037,27.087 C71.5918,25.6 73.1514,23.325 72.6369,22.038 C72.1215,20.751 72.488,20.75 71.2303,20.212 C69.9715,19.673 69.6242,19.203 68.4951,19.957 C67.367,20.711 66.7269,20.816 66.2662,22.257 C65.8054,23.698 62.3127,35.094 54.2721,43.567 C53.6148,44.259 53.2806,44.934 52.6315,45.915 M63.0266,15.872 C63.8489,15.795 67.932,17.971 67.4834,19.509 C67.0338,21.047 65.3527,23.718 63.2575,25.399 C61.3081,26.962 60.5172,28.169 58.6407,30.267 C56.7653,32.364 56.5485,35.036 54.2953,38.78 C52.0421,42.525 50.7966,44.809 49.2978,45.998 C47.799,47.188 46.3367,48.841 44.2111,48.093 C42.0865,47.345 40.3468,45.689 40.368,44.109 C40.3903,42.53 39.3756,43.309 40.9027,40.575 C56.2154,29.597 56.4544,19.656 59.1157,19.721 C61.776,19.786 62.2053,15.949 63.0266,15.872 M54.4257,10.0163 C50.8329,14.4168 50.4796,22.473 32.8702,30.272 C29.2448,35.508 34.0084,38.995 36.0804,39.171 C38.1533,39.346 40.3225,38.241 40.7356,35.976 C45.0972,29.495 54.185,19.343 57.9045,19.322 C61.6231,19.301 62.2307,15.783 63.8611,14.549 C62.4494,14.453 60.3329,12.429 59.6534,11.63 C57.5977,11.501 55.9559,8.95119 54.4257,10.0163 M53.9642,2.014 C52.2578,0.882 44.6253,5.97 40.0025,7.071 C36.7892,7.836 38.7812,6.64 36.1229,7.398 C33.4646,8.157 34.5401,9.038 34.5401,9.038 C34.5401,9.038 36.7315,10.562 37.008,11.824 C37.2844,13.086 36.8166,13.267 37.0404,14.438 C37.2642,15.609 37.9062,16.346 39.8121,15.534 C41.7179,14.722 43.9225,10.449 47.5266,10.119 C51.1307,9.788 54.8736,10.802 56.985,8.279 C58.2691,6.745 55.228,2.853 53.9642,2.014 M31.4423,9.027 C32.5269,8.545 35.2611,9.604 36.0976,10.799 C36.933,11.994 36.53,13.564 36.53,13.564 C36.53,13.564 37.1244,14.838 35.8788,16.799 C34.6333,18.76 30.935,17.137 28.6402,18.752 C26.3445,20.367 24.6645,24.662 24.2614,24.015 C23.8594,23.369 24.1865,20.531 20.4953,19.219 C31.8585,12.977 30.3588,9.508 31.4423,9.027 M18.9743,19.784 C17.197,20.551 17.2163,22.607 16.2309,23.724 C15.2456,24.84 10.2825,26.344 12.2207,28.055 C14.159,29.767 15.9211,27.193 17.0947,26.285 C18.2684,25.378 19.7196,25.131 22.3222,25.559 C24.9258,25.987 22.2948,21.051 22.2948,21.051 C22.2948,21.051 20.7515,19.016 18.9743,19.784 M27.4169,34.163 C26.3324,35.684 23.0574,44.294 17.1464,47.528 C11.0491,50.864 14.0648,52.964 14.0648,52.964 L15.4998,53.84 L17.1201,56.192 C17.1201,56.192 20.4092,55.734 21.1414,52.942 C21.8725,50.15 31.34,42.978 34.7467,42.039 C37.4566,41.292 32.5846,38.661 30.618,33.952 C29.9729,32.407 28.2797,32.951 27.4169,34.163 M39.2764,44.613 C39.2764,44.613 38.4774,43.803 37.3776,46.491 C36.2768,49.179 32.6677,57.535 26.2635,63.161 C24.7678,63.823 24.3688,64.109 24.1166,65.464 C23.8645,66.818 26.306,67.429 26.306,67.429 C26.306,67.429 27.1202,70.055 28.8954,69.504 C30.6707,68.952 30.4762,67.404 31.0464,66.852 C36.053,59.093 39.9751,54.628 43.3888,53.688 C46.5443,52.82 46.2284,50.814 46.2284,50.814 L39.2764,44.613 M52.0178,48.252 C51.1915,48.39 50.4715,48.906 50.2416,50.182 C47.7899,63.773 42.123,65.595 42.123,65.595 C42.123,65.595 40.525,67.885 40.8096,68.589 C41.0931,69.293 43.7878,70.59 43.7878,70.59 C43.7878,70.59 46.3712,73.62 47.3616,72.549 C48.352,71.477 48.8867,68.91 48.8867,68.91 C48.8867,68.91 51.3009,60.386 56.8837,55.762 C58.7977,54.177 59.6028,53.168 59.4934,52.561 C59.383,51.954 52.8442,48.113 52.0178,48.252 M61.3243,51.548 C59.4873,53.375 62.1537,55.749 57.6777,64.204 C56.6113,66.218 54.8057,66.675 55.1095,67.777 C55.5926,69.534 56.5394,69.239 58.1506,69.487 C59.2119,69.651 59.5349,71.272 60.5517,70.514 C62.3724,69.157 60.7238,66.921 63.1238,63.618 C65.9036,59.794 65.7538,59.075 66.9163,57.747 C68.1021,56.394 69.6394,56.072 69.7012,54.582 C69.7639,53.077 62.9324,49.951 61.3243,51.548 M11.2911,52.916 C8.74929,58.066 8.79892,57.56 4.73505,61.277 C1.94412,63.83 5.61507,63.089 6.47685,63.835 C7.33864,64.581 6.99028,66.285 8.07384,66.277 C9.1574,66.27 10.5012,63.745 12.0334,61.354 C13.0552,59.758 16.9084,59.705 16.9145,57.596 C16.9196,55.488 12.4911,50.486 11.2911,52.916 M21.6771,67.614 C22.5764,66.914 24.1885,66.635 24.8113,66.769 C26.2443,67.078 27.0402,69.237 27.7096,70.196 C28.38,71.154 28.2028,71.158 27.6286,72.466 C27.0544,73.775 23.5151,73.698 21.8523,78.279 C20.5915,81.752 19.5434,82.853 18.8021,81.509 C18.0365,80.121 16.5671,79.764 14.4618,79.129 C13.7691,78.92 15.2284,77.185 16.7535,76.49 C20.7627,74.663 20.7768,68.313 21.6771,67.614 M39.5022,70.624 C40.7873,69.304 47.8213,71.461 44.7762,74.95 C41.8567,78.295 42.3833,76.49 40.3225,80.202 C38.2617,83.914 37.5305,85.132 36.8895,84.447 C35.9153,83.406 36.4277,82.244 33.7512,81.099 C32.6687,80.636 35.411,79.435 36.9108,77.603 C38.4095,75.771 37.9913,72.176 39.5022,70.624 M31.9983,81.714 C32.7598,80.6 33.2631,81.025 33.2631,81.025 L37.0141,84.663 C37.0141,84.663 36.5371,85.59 35.7016,85.927 C34.8662,86.264 33.9902,85.313 32.1269,88.758 C30.2636,92.203 25.7136,88.523 30.7,86.134 C32.534,84.223 31.2357,82.828 31.9983,81.714 M11.0045,84.594 C13.44,82.452 11.5038,81.798 12.8466,80.396 C14.1894,78.994 15.6871,80.013 16.5631,80.573 C17.4391,81.133 18.7565,82.155 18.1388,83.243 C17.5211,84.33 14.9023,83.689 13.7357,86.391 C11.6547,91.312 6.53053,87.784 11.0045,84.594 M1.31525,69.606 C4.36847,66.062 2.28539,64.817 3.20996,63.96 C4.13454,63.103 5.30924,63.559 6.09204,63.943 C6.87484,64.326 7.39231,65.917 7.39231,65.917 L7.45105,67.776 C7.45105,67.776 4.30872,67.972 3.76593,70.95 C3.22313,73.928 -2.52886,73.793 1.31525,69.606 M54.1971,69.854 C54.8857,68.754 56.9911,69.831 58.0645,70.605 C58.7531,71.101 60.5111,70.907 59.5471,72.771 C58.2509,75.278 57.5916,73.749 54.7814,77.013 C53.1804,78.873 53.151,81.695 52.7389,81.204 C49.8892,77.816 49.4963,79.935 49.0851,78.904 C48.4502,77.312 51.6634,77.59 52.59,75.056 C53.0437,73.816 53.2675,71.34 54.1971,69.854 M48.7277,79.835 C47.7788,80.281 48.9545,82.182 46.4653,84.204 C42.5716,87.367 47.4314,89.172 48.4198,86.585 C49.4082,83.998 50.2771,84.001 50.2771,84.001 C50.2771,84.001 52.7267,82.917 52.4989,81.917 C52.27,80.916 49.6765,79.389 48.7277,79.835 M57.4002,2.785 C58.9526,0.438999 64.0545,-1.09 65.3173,0.331001 C66.6621,1.844 68.5467,2.784 68.7037,4.359 C68.967,7.003 68.5477,8.367 67.1502,7.9 C64.0717,6.87 56.023,11.223 56.8837,10.119 C59.3871,6.909 56.4685,4.193 57.4002,2.785 M67.2637,8.7 C68.4779,10.133 67.2069,12.633 66.5801,13.544 C65.7355,14.771 63.0276,14.338 62.2823,13.608 C61.538,12.877 60.1982,11.718 60.6752,9.874 C60.9182,8.935 66.808,8.161 67.2637,8.7 M66.4535,0.526001 C66.5477,-0.178001 70.5194,-0.277 71.7376,-0.278 C73.1119,-0.278999 77.9008,-0.438999 78.4547,1.497 C79.0076,3.432 78.2471,5.818 76.1428,5.601 C71.2728,5.099 70.3705,7.949 69.5786,6.964 C68.7867,5.979 69.7052,5.742 69.4794,4.254 C69.2546,2.766 66.3604,1.229 66.4535,0.526001 M72.3169,7.368 C74.3919,6.422 75.5686,5.88 76.3544,7.041 C76.9701,7.951 78.4254,10.028 77.3286,10.686 C68.9771,15.695 70.7321,18.601 70.1528,18.836 C69.5736,19.071 66.8292,17.146 66.5882,15.945 C66.3482,14.744 68.572,11.501 67.8085,9.28 C67.4672,8.288 71.1179,7.915 72.3169,7.368 M79.2932,11.635 C80.1165,12.874 79.7175,15.799 78.636,17.235 C77.5545,18.67 74.8911,20.88 73.5372,20.76 C72.1822,20.641 70.7503,19.817 70.7959,18.164 C70.8425,16.511 71.7235,15.323 73.123,14.402 C74.5215,13.481 78.4699,10.397 79.2932,11.635 M79.2497,17.972 C79.8461,18.768 82.0153,20.29 81.352,21.496 C80.6877,22.703 81.0381,23.68 80.0142,23.466 C78.9904,23.253 72.4253,21.26 74.1559,20.959 C76.7899,20.501 78.6532,17.176 79.2497,17.972 M80.4305,11.729 C80.9024,10.153 85.9262,9.286 89.3622,12.427 C90.2595,13.248 90.0002,16.08 88.8731,16.931 C87.5799,17.908 84.1763,16.07 85.5303,18.206 C86.2017,19.265 82.8416,20.46 81.4421,20.014 C80.0416,19.568 79.8927,13.526 80.4305,11.729 M79.5039,3.234 C78.2998,3.176 78.9145,3.861 77.676,5.341 C76.637,6.582 77.0481,8.486 79.2993,9.366 C81.5505,10.245 85.0786,10.321 85.8311,8.706 C86.5024,7.265 85.6153,6.883 84.4265,5.466 C83.2386,4.05 80.7079,3.292 79.5039,3.234 " style="" stroke="none" fill-rule="nonzero" fill="#000000" fill-opacity="1"></path></g></g></svg>