<svg xmlns="http://www.w3.org/2000/svg" xmlns:xlink="http://www.w3.org/1999/xlink" version="1.1" viewBox="0 0 97.35 79.221" overflow="visible" enable-background="new 0 0 97.35 79.221" xml:space="preserve" x="0px" y="0px"><g display="none"><g display="inline"><g><path fill="none" stroke="#000000" d="M72.636,0.5c-12.194,0-22.278,9.473-23.961,21.795C46.992,9.973,36.908,0.5,24.713,0.5     C11.341,0.5,0.5,11.889,0.5,25.938c0,25.613,48.447,52.71,48.447,52.71S96.85,51.55,96.85,25.937     C96.85,11.889,86.008,0.5,72.636,0.5z"></path></g></g></g><g><g><g><path fill="#000000" stroke="#010101" d="M91.514,40.241c0.414-0.667,0.653-1.415,0.653-2.207c0-2.794-2.891-5.059-6.457-5.059     c-2.325,0-4.357,0.966-5.494,2.41c-6.544-0.216-18.276-0.602-30.028-0.989c-11.489-0.378-23.503-2.048-30.504-3.17     c-0.778-3.902-4.461-6.86-8.896-6.86c-5,0-9.053,3.759-9.053,8.395c0,3.405,2.19,6.33,5.332,7.647     c-2.224,1.397-3.692,3.788-3.692,6.507c0,4.309,3.687,7.802,8.234,7.802c2.856,0,5.372-1.38,6.848-3.473     c7.375-1.153,19.884-2.856,31.946-3.319c14.41-0.553,25.512,0.582,29.86,1.133c0.889,3.404,3.53,5.875,6.653,5.875     c3.852,0,6.973-3.758,6.973-8.392C93.889,44.027,92.967,41.779,91.514,40.241z"></path></g></g></g></svg>