<svg xmlns="http://www.w3.org/2000/svg" xmlns:xlink="http://www.w3.org/1999/xlink" version="1.1" x="0px" y="0px" viewBox="0 0 100 100" enable-background="new 0 0 100 100" xml:space="preserve"><g><path fill-rule="evenodd" clip-rule="evenodd" d="M73.376,32.029c8.28,3.591,13.57,11.118,19.067,18.886   c0.206-0.077,0.429-0.119,0.662-0.119c1.046,0,1.895,0.848,1.895,1.895c0,0.458-0.163,0.878-0.434,1.206l0.001,0.001   C94.837,54.225,95,54.646,95,55.103c0,1.046-0.849,1.895-1.895,1.895c-0.301,0-0.585-0.071-0.836-0.194   c-5.751,6.902-10.547,11.902-17.094,14.691l0.433,2.878c-2.054,1.835-5.264,2.918-7.786,2.79l0.67-3.721   c-2.325,0.408-4.874,0.616-7.717,0.616c-6.451,0-11.98-1.416-16.723-3.448l-3.029,2.59c-3.923-1.818-7.992-5.391-10.026-8.732   l1.369-0.769c-2.112-1.563-3.962-3.064-5.582-4.299c-0.789-0.601-1.824-1.356-2.514-0.811c-3.66,2.896-6.72,7.712-10.248,15.654   c-6.529-4.09-6.101-14.621-1.93-18.11c-5.316-2.627-10.939-12.23-3.528-25.114c4.695,9.597,13.076,18.567,15.69,19.881   c0.768,0.387,1.785-0.448,2.817-1.575c2.417-2.641,5.377-5.796,8.913-8.791l-1.167-1.613c8.531-12.086,22.916-16.325,35.742-16.084   L73.376,32.029z M76.523,47.557c1.432,0,2.594,1.161,2.594,2.594c0,1.431-1.161,2.592-2.594,2.592   c-1.431,0-2.592-1.161-2.592-2.592C73.931,48.718,75.092,47.557,76.523,47.557L76.523,47.557z M68.981,36.472   c-8.79,8.79-8.79,23.212,0,32.002C58.47,62.101,55.351,44.469,68.981,36.472L68.981,36.472z"></path></g></svg>