<svg xmlns="http://www.w3.org/2000/svg" xmlns:xlink="http://www.w3.org/1999/xlink" version="1.1" x="0px" y="0px" viewBox="0 0 30 30" xml:space="preserve"><g transform="translate(-210 -80)"><g xmlns="http://www.w3.org/2000/svg" xmlns:xlink="http://www.w3.org/1999/xlink"><path d="M219,89.705v-2.75c0-0.276-0.224-0.5-0.5-0.5c-0.276,0-0.5,0.224-0.5,0.5v3c0,0.157,0.074,0.306,0.2,0.4l1.768,1.325    c0.26-0.231,0.522-0.452,0.788-0.658L219,89.705z"></path><path d="M216.888,94.537l-0.913-2.74c-0.087-0.262-0.368-0.404-0.633-0.315c-0.262,0.087-0.403,0.37-0.315,0.632l1,3    c0.054,0.162,0.186,0.285,0.352,0.326l0.501,0.126c0.165-0.309,0.34-0.608,0.526-0.899L216.888,94.537z"></path><path d="M220,106.205c0,0.276,0.224,0.5,0.5,0.5c0.276,0,0.5-0.224,0.5-0.5v-1.977c-0.337,0.167-0.67,0.292-1,0.394V106.205z"></path><path d="M231.8,90.355c0.126-0.095,0.2-0.243,0.2-0.4v-3c0-0.276-0.224-0.5-0.5-0.5c-0.276,0-0.5,0.224-0.5,0.5v2.75l-1.756,1.317    c0.266,0.206,0.528,0.427,0.788,0.658L231.8,90.355z"></path><path d="M233.975,95.113l1-3c0.087-0.262-0.055-0.545-0.316-0.632c-0.264-0.089-0.545,0.054-0.632,0.315l-0.914,2.74l-0.518,0.129    c0.186,0.291,0.361,0.591,0.525,0.899l0.501-0.126C233.787,95.398,233.921,95.275,233.975,95.113z"></path><path d="M229,106.205c0,0.276,0.224,0.5,0.5,0.5c0.276,0,0.5-0.224,0.5-0.5v-1.583c-0.33-0.102-0.663-0.227-1-0.394V106.205z"></path><path d="M225,100.742c-0.696,0.926-1.478,1.732-2.287,2.381c0.613,1.139,1.412,1.832,2.287,1.832c0.876,0,1.674-0.693,2.287-1.832    C226.477,102.475,225.696,101.668,225,100.742z"></path><path d="M220.75,88.455c0,1.193,0.837,2.187,1.954,2.437c-0.356,0.215-0.732,0.469-1.116,0.755    c-0.266,0.198-0.534,0.414-0.803,0.646c-0.833,0.719-1.656,1.599-2.358,2.629c-0.195,0.285-0.382,0.582-0.555,0.892    c-0.821,1.465-1.372,3.183-1.372,5.142c0,2.674,1.577,3.332,3.5,2.613c0.326-0.122,0.659-0.271,1-0.47    c0.426-0.249,0.856-0.562,1.283-0.921c0.98-0.824,1.935-1.918,2.717-3.223c0.783,1.305,1.736,2.398,2.718,3.223    c0.426,0.359,0.857,0.672,1.282,0.921c0.341,0.199,0.674,0.348,1,0.47c1.923,0.719,3.5,0.061,3.5-2.613    c0-1.959-0.551-3.677-1.372-5.142c-0.173-0.31-0.359-0.606-0.555-0.892c-0.702-1.03-1.525-1.91-2.357-2.629    c-0.27-0.232-0.538-0.448-0.804-0.646c-0.383-0.286-0.76-0.54-1.116-0.755c1.117-0.25,1.954-1.243,1.954-2.437    c0-1.295-0.988-2.348-2.25-2.475v-1v-1.025h-1v1.088v1.039c-0.379,0.121-0.723,0.318-1,0.591c-0.277-0.272-0.621-0.47-1-0.591    v-1.039v-1.088h-1v1.025v1C221.738,86.107,220.75,87.16,220.75,88.455z"></path></g></g></svg>