<svg xmlns="http://www.w3.org/2000/svg" xmlns:xlink="http://www.w3.org/1999/xlink" version="1.1" x="0px" y="0px" viewBox="0 0 100 100" enable-background="new 0 0 100 100" xml:space="preserve"><symbol viewBox="-35.722 -48.606 71.443 97.213"><g><g><g><g><path fill="#000000" d="M11.848,7.991c0.263-1.996-0.724-4.814-3.999-9.173C-0.735-12.602-8.237-39.56-1.132-48.606       c0,0-0.93,5.204,2.871,12.287c0,0,1.978-4.678,7.533-10.262c0,0-1.226,9.189-0.37,18.727c0.72,8.054,2.176,16.015,6.124,22.283       c0.545,1.443,1.224,3.27,1.822,4.979C17.79,2.093,15.073,5.389,11.848,7.991z"></path><path fill="#000000" d="M20.048,5.805c-1.955,3.022-5.155,5.154-7.465,6.401C10.997,13.058-0.53,21.35-5.73,29.169       l-4.442-0.709c0,0,11.072-11.104,15.285-14.234c2.605-1.936,6.312-3.005,6.735-6.234c3.226-2.603,5.942-5.898,5.001-8.584       c-0.599-1.709-1.277-3.536-1.822-4.979c1.299,2.063,2.863,3.939,4.764,5.576c0.014,0.012,0.022,0.023,0.036,0.038       C20.552,1.66,21.208,4.01,20.048,5.805z"></path><path fill="#000000" d="M11.198,15.786C4.079,19.266,1.7,27.958,1.326,30.301l-7.057-1.131       c5.2-7.82,16.728-16.112,18.313-16.963c2.31-1.248,5.51-3.379,7.465-6.401c1.16-1.794,0.504-4.145-0.222-5.762       C27.433,6.642,18.308,12.315,11.198,15.786z"></path></g><g><path fill="#000000" d="M2.77,13.549c2.822,5.595-1.907,14.566-1.907,14.566l-0.646,0.066l-6.852,6.586       c4.699-11.038,0.192-7.002,2.156-11.51c1.723-3.956-0.565-8.439-7.553-13.386c3.447,0.59,6.625,0.729,8.263,0.908       C-1.483,11.035,1.341,12.649,2.77,13.549z"></path><path fill="#000000" d="M-3.77,10.78c-1.638-0.179-4.816-0.318-8.263-0.908c-2.685-1.9-6.062-3.867-10.172-5.902       c-14.81-7.318-4.1-27.384,0.064-34.673c4.16-7.296,2.888-13.38,2.888-13.38c3.308,3.586,3.956,12.238,3.956,12.238       c4.234-3.377,6.889-9.395,6.889-9.395c2.317,9.902-12.918,27.543-14.295,36.514C-24.076,4.243-0.569,7.651,2.616,13.217       c0.061,0.106,0.098,0.223,0.153,0.332C1.341,12.649-1.483,11.035-3.77,10.78z"></path></g><g><path fill="#000000" d="M-29.872,37.61c-1.718,0.655-3.464,1.822-4.984,3.037c0.017-0.028,0.028-0.056,0.045-0.087       c0.301-0.468,0.631-1.017,0.975-1.605c1.142-1.967,2.435-4.527,3.437-7.174c0.981-0.654,2.422-1.846,2.936-3.477       c0.5-1.586-0.496-3.69-1.424-5.475c-0.125-0.756-0.344-1.453-0.693-2.064c-0.904-1.584-1.852-4.016-2.544-6.51       c-0.543-1.96-0.923-3.952-1.001-5.597c3.545,5.804,10.104,11.296,12.086,15.924C-18.39,30.766-25.235,35.841-29.872,37.61z"></path><path fill="#000000" d="M-5.853,34.212c-0.012-0.076-0.172-0.102-1.423,1.288c-1.601,1.778-14.737,12.169-21.849,13.06       c-4.209,0.525-8.468-3.504-5.732-7.913c1.521-1.215,3.267-2.382,4.984-3.037c4.637-1.769,11.483-6.845,8.832-13.027       c-1.982-4.628-8.541-10.121-12.086-15.924c-0.13-2.833,0.649-4.625,3.104-3.397c0.044,0.021,0.096,0.049,0.141,0.073       c-0.684,0.062-1.186,0.384-1.055,1.259c0.315,2.1,18.099,11.634,22.811,15.427c0.284,0.375,0.513,0.729,0.671,1.037       C-5.401,27.169-5.819,33.736-5.853,34.212z"></path><path fill="#000000" d="M-27.464,28.305c-0.514,1.63-1.955,2.823-2.936,3.477c1.182-3.135,1.938-6.391,1.512-8.951       C-27.96,24.615-26.964,26.718-27.464,28.305z"></path></g><g><path fill="#000000" d="M18.261,28.336C19.726,25.245,30.41,16.639,33.021,9.94c-0.165,1.35-0.479,2.842-0.888,4.314       c-0.691,2.495-1.64,4.926-2.543,6.509c-0.35,0.612-0.568,1.309-0.693,2.064c-0.928,1.786-1.926,3.889-1.426,5.475       c0.516,1.63,1.955,2.823,2.938,3.476c1,2.647,2.297,5.207,3.437,7.175c0.342,0.588,0.672,1.136,0.975,1.604       c0.639,1.004,0.903,1.983,0.9,2.9c-0.979-0.85-2.738-1.674-5.76-2.762C24.441,38.712,16.272,32.53,18.261,28.336z"></path><path fill="#000000" d="M29.132,48.56C22.022,47.668,8.886,37.278,7.286,35.5c-1.252-1.389-1.413-1.364-1.425-1.288       c-0.034-0.477-0.452-7.043,1.603-11.154c0.158-0.308,0.389-0.662,0.67-1.037c4.713-3.793,22.495-13.326,22.811-15.426       c0.131-0.875-0.371-1.197-1.052-1.259c0.044-0.024,0.094-0.052,0.14-0.073c2.805-1.404,3.42,1.143,2.989,4.678       c-2.611,6.699-13.296,15.304-14.761,18.395c-1.988,4.194,6.181,10.376,11.701,12.362c3.021,1.088,4.781,1.912,5.76,2.762       C35.714,46.61,32.414,48.969,29.132,48.56z"></path><path fill="#000000" d="M27.472,28.304c-0.5-1.586,0.498-3.689,1.426-5.475c-0.426,2.56,0.33,5.817,1.512,8.951       C29.427,31.126,27.987,29.934,27.472,28.304z"></path></g><path fill="#000000" d="M30.944,6.594c0.131-0.875-0.371-1.197-1.052-1.259C24.535,8.059,11.685,17.31,8.134,22.021      C12.847,18.227,30.629,8.694,30.944,6.594z"></path><path fill="#000000" d="M-5.856,34.256c0,0,0.002-0.026,0.004-0.044C-5.85,34.23-5.856,34.256-5.856,34.256z"></path><path fill="#000000" d="M-30.937,6.594c-0.131-0.875,0.371-1.197,1.055-1.259c5.357,2.724,18.208,11.975,21.756,16.686      C-12.838,18.229-30.621,8.694-30.937,6.594z"></path><path fill="#000000" d="M-31.239,43.114c0,0-0.495,2.233,1.736,2.481c2.23,0.247,17.357-8.43,17.357-8.43      s-11.406,5.454-13.887,5.206C-28.513,42.124-30.495,41.379-31.239,43.114z"></path><path fill="#000000" d="M12.676,37.088c0,0,12.132,9.419,18.392,9.419c0.694,0,2.272-3.76-0.354-2.839      C27.157,44.911,12.676,37.088,12.676,37.088z"></path><path fill="#000000" d="M5.907,31.708c0,0,8.156,5.902,8.677,4.861c0.522-1.043-6.249-4.517-6.249-4.517      s5.034,0.867,5.207,0.177c0.175-0.695-6.42-1.737-6.42-1.737s6.596-2.604,6.596-3.298c0-0.695-6.249,1.563-6.249,1.563      s6.769-7.81,5.901-8.159c-0.866-0.346-6.076,5.556-6.77,6.423C5.907,27.889,5.907,31.708,5.907,31.708z"></path><path fill="#000000" d="M-6.244,31.709c0,0-8.157,5.901-8.681,4.861c-0.519-1.043,6.25-4.516,6.25-4.516      s-5.034,0.866-5.206,0.176c-0.175-0.695,6.421-1.736,6.421-1.736s-6.596-2.604-6.596-3.299c0-0.695,6.25,1.563,6.25,1.563      s-6.77-7.81-5.903-8.158c0.868-0.347,6.076,5.555,6.771,6.421C-6.244,27.89-6.244,31.709-6.244,31.709z"></path><g><path fill="#000000" d="M7.45,24.077c-0.048,0.619-0.113,1.455-0.2,2.404c-8.144-2.135-13.556-0.992-15.791-0.26       c-0.074-0.779-0.08-1.51-0.018-2.165C-4.608,23.528,1.462,23.085,7.45,24.077z"></path><path fill="#000000" d="M-8.558,24.056c0.141-1.455,0.662-2.493,1.814-2.594c4.088-0.356,14.395,0,14.217,2.307       c-0.008,0.094-0.016,0.205-0.023,0.308C1.462,23.085-4.608,23.528-8.558,24.056z"></path><path fill="#000000" d="M7.25,26.481c-0.272,2.969-0.754,6.922-1.554,7.953c-1.098,1.418-10.308,1.601-11.553,0.535       c-0.734-0.633-2.34-5.114-2.684-8.748C-6.306,25.489-0.894,24.346,7.25,26.481z"></path></g><path fill="#000000" d="M-5.724,33.099c0,0,0.868,1.213,4.688,1.213c3.818-0.001,6.422-1.388,6.422-1.388      s-0.347-1.563-2.081-1.044c-1.737,0.523-3.647,1.911-5.556,1.044C-4.16,32.054-6.243,31.362-5.724,33.099z"></path><path fill="#000000" d="M-31.845,6.899c0,0,1.88,3.928,11.445,8.713C-20.399,15.612-31.673,11.682-31.845,6.899z"></path><path fill="#000000" d="M17.005,18.342c0,0,15.543-8.197,15.201-10.931C32.206,7.411,19.054,16.976,17.005,18.342z"></path></g></g></g></symbol><g><path fill="none" d="M58.321,52.036c-0.611-1.228-1.214-1.797-1.405-1.8c-0.142,0.144-0.28,1.408,0.459,3.463   c0.457,1.26,0.96,2.035,1.348,2.481c-0.248-0.882-0.392-1.935-0.426-2.894C58.284,52.872,58.295,52.452,58.321,52.036z"></path><path fill="none" d="M38.615,60.546c0.549-1.52,0.478-2.501,0.355-2.652c-0.063,0.06-0.477,0.5-0.914,1.383   c0.004,0.195,0.025,0.385,0.018,0.582c-0.028,0.808-0.21,1.915-0.595,2.675c0.015,0.004,0.029,0.01,0.045,0.015   C37.821,62.215,38.247,61.562,38.615,60.546z"></path><path fill="none" d="M29.579,30.73c0.102,1.777,0.498,2.944,0.81,3.405c0.071-0.007,0.138-0.007,0.208-0.013   c-0.121-0.705-0.419-1.786-0.935-3.22C29.638,30.837,29.603,30.794,29.579,30.73z"></path><path fill="none" d="M30.356,26.424c-0.237,0.046-0.688,1.125-0.776,2.968c0.185,0.386,0.358,0.783,0.504,1.185   c0.438,1.214,0.699,2.506,0.676,3.534c0.039-0.002,0.077-0.006,0.116-0.007c0.293-0.526,0.636-1.805,0.568-3.734   C31.354,27.845,30.64,26.459,30.356,26.424z"></path><path fill="none" d="M41.566,72.744c-2.043,0.396-4.079,2.865-4.109,4.987c-0.021,1.427,0.898,2.388,2.655,2.781   c2.177,0.499,5.822-2.39,9.421-6.057c-1.504-1.35-4.162-1.857-6.224-1.857C42.646,72.599,42.047,72.651,41.566,72.744z"></path><path fill="none" d="M36.703,57.25c-0.198,0.235-0.545,1.094-0.598,2.54c-0.034,0.94,0.079,1.614,0.21,2.058   c0.06-0.618,0.203-1.298,0.447-1.97c0.095-0.265,0.217-0.537,0.341-0.806C37.053,58.083,36.844,57.45,36.703,57.25z"></path><path fill="none" d="M28.69,29.076c-0.731-1.035-1.504-1.599-1.748-1.599c-0.25,0.138,0.549,1.692,1.405,4.068   c0.497,1.374,0.179,2.327,0.673,2.874c-0.246-1.012-0.392-2.162-0.426-3.148C28.569,30.56,28.604,29.801,28.69,29.076z"></path><path fill="none" d="M86.595,40.856c-0.001,0.131,0.003,0.268-0.001,0.395c-0.043,1.222-0.243,2.578-0.6,3.622   c0.528,0.149,1.024,0.322,1.463,0.56c0.611-0.744,1.309-1.904,1.905-3.557c0.512-1.419,0.818-3.428,0.859-4.535   c0.024-0.69-0.065-1.386-0.172-1.808c-0.075-0.016-0.149-0.039-0.228-0.039c-0.216,0-0.436,0.078-0.657,0.191   c-0.708,0.832-1.648,2.568-2.409,4.674C86.692,40.528,86.649,40.689,86.595,40.856z"></path><path fill="none" d="M85.939,44.855c0.025-0.106,0.223-1.055,0.346-2.918c-0.284,1.157-0.392,2.162-0.378,2.907   C85.918,44.847,85.928,44.852,85.939,44.855z"></path><path fill="none" d="M18.515,33.7c0.553-0.269,1.228-0.75,1.302-1.516c0.092-0.959-0.722-2.138-2.294-3.317   c-1.094-0.823-2.337-0.88-3.41-0.159c-1.32,0.886-1.947,2.637-1.524,4.256c0.214,0.821,0.858,1.622,1.711,2.357   c1.437-0.001,2.1-0.385,2.945-0.905C17.605,34.194,18.012,33.944,18.515,33.7z"></path><path fill="none" d="M85.695,37.696c-0.239-0.848-0.865-1.033-0.906-1.035c-0.232,0-1.042,1.274-1.139,4.088   c-0.041,1.18,0.779,2.29,1.014,3.121c0.064,0.227,0.187,0.401,0.329,0.542c0.101-1.14,0.407-2.453,0.864-3.721   c0.109-0.301,0.229-0.604,0.356-0.905C86.077,39.01,85.858,38.275,85.695,37.696z"></path><path fill="none" d="M70.561,81.01c-0.008,0.238,0.01,0.424,0.024,0.617c0.054-0.205,0.084-0.42,0.151-0.606   c0.034-0.094,0.112-0.292,0.219-0.526c-0.024-0.399-0.071-0.741-0.137-0.942C70.707,79.833,70.583,80.33,70.561,81.01z"></path><path fill="none" d="M71.932,81.062c-0.009,0.27-0.039,0.549-0.083,0.821c0.06-0.133,0.122-0.241,0.18-0.399   c0.232-0.643,0.303-1.15,0.303-1.449c-0.116,0.136-0.258,0.37-0.403,0.654C71.93,80.814,71.936,80.943,71.932,81.062z"></path><path fill="none" d="M84.307,17.619c0.859-2.391,0.979-4.348,0.65-5.045c-0.049-0.101-0.101-0.168-0.149-0.185   c-0.004,0-0.004,0-0.004,0c-0.466,0-1.394,0.985-2.26,2.748c0.044,0.65,0.062,1.304,0.042,1.919   c-0.046,1.306-0.245,2.776-0.584,4.006c0.13,0.037,0.269,0.061,0.395,0.103C82.998,20.447,83.703,19.286,84.307,17.619z"></path><path fill="none" d="M59.878,49.317c-0.151,0.077-0.521,0.95-0.598,2.507c0.159,0.336,0.308,0.681,0.433,1.031   c0.377,1.04,0.618,2.125,0.622,3c0.227-0.47,0.502-1.527,0.446-3.157C60.703,50.518,60.102,49.395,59.878,49.317z"></path><path fill="none" d="M80.093,20.717c-0.001-0.102-0.019-0.169-0.014-0.28c0.036-0.925,0.283-2.042,0.633-3.188   c-0.021-0.334-0.034-0.681-0.021-1.05c0.116-3.356,0.198-5.121-0.19-5.134c-0.459,0-1.371,1.914-1.475,5.043   c-0.052,1.44,0.078,2.792,0.366,3.81c0.098,0.347,0.068,0.592,0.014,0.794C79.633,20.71,79.858,20.701,80.093,20.717z"></path><path d="M86.378,25.729c0.304-1.575-0.975-3.213-3.038-4.18c0.722-0.954,1.384-2.276,1.864-3.605   c0.882-2.439,1.124-4.708,0.62-5.777c-0.202-0.428-0.489-0.605-0.691-0.678c-0.872-0.304-1.896,0.644-2.775,2.026   c-0.299-1.762-0.893-3.189-1.857-3.223c-1.532,0-2.335,3.276-2.432,6.148c-0.05,1.483,0.084,3.221,0.372,4.338   c-1.993,0.262-3.522,1.247-3.8,2.685c-0.398,2.062,1.906,4.241,5.147,4.867C83.03,28.956,85.979,27.791,86.378,25.729z    M82.585,17.056c0.021-0.615,0.003-1.269-0.042-1.919c0.867-1.763,1.794-2.748,2.26-2.748c0,0,0,0,0.004,0   c0.049,0.017,0.101,0.084,0.149,0.185c0.329,0.697,0.209,2.654-0.65,5.045c-0.604,1.668-1.31,2.828-1.911,3.547   c-0.126-0.042-0.265-0.066-0.395-0.103C82.34,19.833,82.539,18.362,82.585,17.056z M79.391,19.918   c-0.288-1.018-0.418-2.37-0.366-3.81c0.105-3.128,1.016-5.043,1.475-5.043c0.388,0.013,0.306,1.778,0.19,5.134   c-0.013,0.368,0,0.716,0.021,1.05c-0.35,1.146-0.597,2.263-0.633,3.188c-0.004,0.111,0.014,0.179,0.014,0.28   c-0.235-0.016-0.46-0.007-0.688-0.005C79.46,20.51,79.489,20.265,79.391,19.918z"></path><path d="M84.789,35.799c-1.319,0-2.01,2.692-2.096,5.105c-0.045,1.277,0.075,2.677,0.336,3.602c0.014,0.05,0.032,0.082,0.046,0.13   c-1.632,0.223-2.902,1.008-3.13,2.189c-0.329,1.704,1.575,3.505,4.254,4.022c2.678,0.517,5.116-0.446,5.445-2.15   c0.184-0.95-0.372-1.906-1.323-2.677c0.759-1.008,1.453-2.393,1.936-3.737c0.545-1.509,0.87-3.003,0.915-4.206   c0.067-1.767-0.493-2.346-0.975-2.519c-0.047-0.017-0.1-0.015-0.149-0.026c0.107,0.422,0.196,1.119,0.172,1.808   c-0.041,1.108-0.347,3.116-0.859,4.535c-0.596,1.653-1.294,2.813-1.905,3.557c-0.438-0.238-0.934-0.411-1.463-0.56   c0.356-1.044,0.556-2.4,0.6-3.622c0.004-0.127,0-0.264,0.001-0.395c0.054-0.167,0.098-0.329,0.159-0.5   c0.762-2.106,1.701-3.842,2.409-4.674c-0.937,0.476-1.893,1.859-2.638,3.425c-0.058-0.616-0.146-1.193-0.268-1.625   C85.865,36.081,85.26,35.814,84.789,35.799z M84.993,44.413c-0.142-0.141-0.265-0.315-0.329-0.542   c-0.235-0.831-1.055-1.941-1.014-3.121c0.097-2.815,0.908-4.088,1.139-4.088c0.041,0.002,0.667,0.187,0.906,1.035   c0.164,0.579,0.382,1.314,0.519,2.091c-0.128,0.301-0.248,0.604-0.356,0.905C85.4,41.96,85.093,43.273,84.993,44.413z    M85.939,44.855c-0.011-0.003-0.021-0.007-0.032-0.011c-0.014-0.745,0.094-1.75,0.378-2.907   C86.162,43.8,85.964,44.749,85.939,44.855z"></path><path d="M90.048,35.532c-0.057-0.225-0.117-0.394-0.172-0.394c-0.004,0-0.004,0-0.007,0c-0.178,0-0.428,0.218-0.706,0.545   c0.221-0.113,0.442-0.191,0.657-0.191C89.899,35.492,89.973,35.516,90.048,35.532z"></path><path d="M72.72,78.941L72.481,78.9c-0.279,0-0.525,0.177-0.752,0.408c-0.083-0.261-0.184-0.497-0.332-0.655   c-0.19-0.205-0.4-0.254-0.56-0.258c-0.844,0-1.192,1.393-1.233,2.585c-0.021,0.616,0.043,1.341,0.242,1.878   c-0.662,0.139-1.172,0.477-1.269,0.98c-0.153,0.795,0.735,1.636,1.985,1.877c1.25,0.241,2.387-0.208,2.541-1.003   c0.105-0.542-0.297-1.09-0.943-1.47c0.403-0.54,0.691-1.222,0.766-1.433C73.336,80.674,73.531,79.239,72.72,78.941z M70.736,81.021   c-0.067,0.186-0.097,0.401-0.151,0.606c-0.014-0.193-0.032-0.379-0.024-0.617c0.022-0.68,0.146-1.177,0.258-1.457   c0.065,0.201,0.113,0.543,0.137,0.942C70.849,80.729,70.77,80.927,70.736,81.021z M72.029,81.484   c-0.058,0.158-0.119,0.266-0.18,0.399c0.043-0.272,0.073-0.552,0.083-0.821c0.005-0.119-0.002-0.248-0.004-0.374   c0.146-0.284,0.288-0.518,0.403-0.654C72.331,80.334,72.26,80.842,72.029,81.484z"></path><path d="M61.422,55.995c0.228-0.907,0.355-2.074,0.316-3.206c-0.078-2.142-0.68-4.176-1.875-4.176   c-0.667,0.024-1.095,0.825-1.336,1.898c-0.604-0.854-1.286-1.395-1.918-1.179c-1.109,0.403-0.844,2.716-0.131,4.692   c0.333,0.929,0.798,1.846,1.312,2.526c-1.366,0.681-2.204,1.79-1.998,2.857c0.278,1.439,2.336,2.252,4.598,1.815   c2.262-0.437,3.87-1.957,3.592-3.396C63.795,56.849,62.757,56.2,61.422,55.995z M57.375,53.698   c-0.74-2.054-0.601-3.319-0.459-3.463c0.191,0.003,0.794,0.572,1.405,1.8c-0.026,0.415-0.037,0.836-0.023,1.249   c0.033,0.959,0.178,2.012,0.426,2.894C58.335,55.733,57.832,54.959,57.375,53.698z M60.336,55.855c-0.005-0.875-0.246-1.96-0.622-3   c-0.126-0.35-0.275-0.695-0.433-1.031c0.077-1.557,0.447-2.43,0.598-2.507c0.224,0.078,0.826,1.201,0.904,3.381   C60.838,54.328,60.563,55.385,60.336,55.855z"></path><path d="M39.962,65.107c0.159-0.822-0.475-1.667-1.503-2.211c0.428-0.568,0.8-1.32,1.053-2.025   c0.299-0.818,0.474-1.632,0.497-2.292c0.041-1.072-0.34-1.436-0.661-1.554l-0.28-0.047c-0.417,0-0.82,0.338-1.187,0.802   c-0.203-0.862-0.565-1.509-1.17-1.532c-0.994,0-1.498,1.761-1.561,3.508c-0.03,0.872,0.052,1.701,0.232,2.335   c0.035,0.127,0.08,0.207,0.12,0.311c-1.061,0.162-1.885,0.677-2.034,1.452c-0.22,1.141,1.055,2.347,2.849,2.693   C38.109,66.894,39.741,66.249,39.962,65.107z M38.074,59.859c0.007-0.197-0.014-0.386-0.018-0.582   c0.437-0.883,0.851-1.323,0.914-1.383c0.123,0.151,0.194,1.132-0.355,2.652c-0.368,1.016-0.794,1.669-1.092,2.003   c-0.016-0.004-0.029-0.01-0.045-0.015C37.863,61.774,38.046,60.666,38.074,59.859z M36.315,61.848   c-0.131-0.444-0.244-1.118-0.21-2.058c0.052-1.446,0.4-2.305,0.598-2.54c0.142,0.201,0.35,0.833,0.401,1.822   c-0.124,0.268-0.246,0.541-0.341,0.806C36.519,60.55,36.375,61.229,36.315,61.848z"></path><path d="M35.049,36.257c-0.211-1.09-1.351-1.817-2.822-2.075c0.149-0.923,0.203-1.944,0.172-2.845   c-0.082-2.346-0.755-5.469-2.077-5.469c-0.732,0.026-1.204,0.982-1.471,2.226c-0.713-1.069-1.528-1.768-2.239-1.517   c-1.229,0.448-0.919,3.057-0.112,5.293c0.384,1.066,0.917,2.114,1.503,2.887c-1.607,0.779-2.593,2.072-2.353,3.315   c0.319,1.652,2.681,2.584,5.277,2.083C33.523,39.654,35.368,37.909,35.049,36.257z M28.347,31.545   c-0.855-2.376-1.655-3.93-1.405-4.068c0.244,0,1.017,0.565,1.748,1.599c-0.086,0.724-0.121,1.484-0.097,2.195   c0.035,0.986,0.18,2.135,0.426,3.148C28.526,33.872,28.844,32.919,28.347,31.545z M30.388,34.135   c-0.312-0.461-0.708-1.628-0.81-3.405c0.025,0.064,0.059,0.107,0.083,0.172c0.515,1.433,0.814,2.515,0.935,3.22   C30.526,34.128,30.459,34.128,30.388,34.135z M30.876,34.104c-0.038,0.001-0.077,0.005-0.116,0.007   c0.022-1.028-0.239-2.32-0.676-3.534c-0.145-0.402-0.319-0.799-0.504-1.185c0.088-1.843,0.54-2.922,0.776-2.968   c0.284,0.035,0.997,1.421,1.087,3.946C31.512,32.299,31.168,33.578,30.876,34.104z"></path><path d="M91.287,80.146c-8.341-2.051-11.787-23.002-11.82-23.213c-0.04-0.251-0.274-0.417-0.525-0.38   c-0.25,0.04-0.42,0.276-0.38,0.525c0.142,0.887,3.579,21.763,12.507,23.958c0.037,0.009,0.073,0.013,0.109,0.013   c0.207,0,0.394-0.14,0.445-0.349C91.684,80.455,91.533,80.206,91.287,80.146z"></path><path d="M96.875,81.643c-8.341-2.051-11.787-23.002-11.82-23.213c-0.041-0.25-0.271-0.415-0.525-0.38   c-0.25,0.04-0.42,0.276-0.38,0.525c0.142,0.887,3.579,21.763,12.507,23.958c0.037,0.009,0.073,0.013,0.109,0.013   c0.207,0,0.394-0.14,0.445-0.349C97.272,81.952,97.122,81.703,96.875,81.643z"></path><path d="M58.91,63.296c-1.796,2.472-5.2,6.798-8.741,10.501c-2.309-2.09-6.734-2.349-8.778-1.954   c-2.457,0.476-4.815,3.331-4.852,5.874c-0.027,1.86,1.202,3.205,3.372,3.69c2.569,0.571,6.534-2.514,10.231-6.262   c0.013,0.02,0.027,0.039,0.04,0.059c1.017,1.563,0.584,3.721-1.289,6.417c-0.145,0.208-0.093,0.493,0.115,0.638   c0.08,0.055,0.171,0.081,0.261,0.081c0.145,0,0.288-0.069,0.377-0.197c2.106-3.032,2.544-5.535,1.304-7.44   c-0.051-0.078-0.103-0.153-0.158-0.227c4.554-4.743,8.557-10.225,8.859-10.643c0.149-0.205,0.104-0.491-0.101-0.64   C59.346,63.047,59.06,63.09,58.91,63.296z M40.111,80.512c-1.757-0.393-2.676-1.354-2.655-2.781   c0.03-2.122,2.066-4.591,4.109-4.987c0.482-0.093,1.081-0.145,1.742-0.145c2.063,0,4.721,0.507,6.224,1.857   C45.933,78.122,42.288,81.01,40.111,80.512z"></path><path d="M74.895,28.199c-0.089,0.102-9.094,10.135-31.489,5.464c-0.25-0.055-0.491,0.107-0.542,0.355   c-0.052,0.248,0.107,0.491,0.355,0.542c4.365,0.91,8.226,1.281,11.622,1.281c14.434,0,20.443-6.691,20.747-7.041   c0.166-0.191,0.145-0.481-0.047-0.647C75.352,27.988,75.061,28.008,74.895,28.199z"></path><path d="M72.501,32.855c-0.056,0.065-5.841,6.447-20.129,3.468c-0.251-0.054-0.491,0.107-0.542,0.355   c-0.052,0.248,0.107,0.491,0.355,0.542c2.82,0.588,5.316,0.828,7.513,0.828c9.379,0,13.297-4.363,13.494-4.591   c0.166-0.191,0.145-0.479-0.046-0.645C72.957,32.645,72.667,32.665,72.501,32.855z"></path><path d="M21.706,38.873c-0.659,0.106-3.851-1.043-6.291-2.706c0.977-0.152,1.593-0.531,2.31-0.972   c0.358-0.22,0.727-0.447,1.19-0.672c1.385-0.673,1.751-1.596,1.814-2.253c0.126-1.308-0.792-2.739-2.655-4.138   c-1.404-1.054-3.075-1.123-4.471-0.187c-1.639,1.1-2.42,3.258-1.9,5.249c0.183,0.699,0.598,1.371,1.161,2.002   c-0.453-0.064-0.962-0.155-1.54-0.277c-5.005-1.053-5.533-2.816-5.919-4.103c-0.073-0.243-0.328-0.379-0.571-0.307   c-0.243,0.073-0.38,0.328-0.307,0.571c0.542,1.807,1.498,3.662,6.609,4.737c1.156,0.243,2.068,0.37,2.815,0.408   c2.59,2.123,6.547,3.565,7.74,3.565c0.055,0,0.103-0.003,0.146-0.009c0.251-0.036,0.425-0.269,0.389-0.519   C22.188,39.011,21.953,38.837,21.706,38.873z M12.59,32.963c-0.423-1.62,0.203-3.37,1.524-4.256   c1.073-0.721,2.316-0.663,3.41,0.159c1.571,1.18,2.386,2.358,2.294,3.317c-0.074,0.766-0.749,1.247-1.302,1.516   c-0.504,0.244-0.91,0.495-1.269,0.716c-0.845,0.519-1.508,0.903-2.945,0.905C13.447,34.586,12.804,33.785,12.59,32.963z"></path></g></svg>