<svg xmlns="http://www.w3.org/2000/svg" xmlns:xlink="http://www.w3.org/1999/xlink" version="1.1" x="0px" y="0px" viewBox="0 0 100 100" enable-background="new 0 0 100 100" xml:space="preserve"><g><path d="M93.842,48.595c-1.174-2.347-1.174-6.312,0-8.658c1.49-2.981,2.658-7.668,2.658-10.671c0-2.743-2.278-4.586-5.669-4.586   c-1.204,0-2.484,0.223-3.806,0.664c-1.819,0.606-4.38,0.954-7.025,0.954s-5.206-0.348-7.026-0.955   c-2.144-0.714-4.976-1.107-7.974-1.107s-5.83,0.393-7.975,1.107c-1.846,0.615-3.819,0.954-5.557,0.954   c-1.832,0-2.703-0.387-2.909-0.592c-0.948-0.948-2.473-1.47-4.294-1.469c-1.649,0-3.402,0.422-4.937,1.188   c-1.109,0.555-2.688,0.873-4.329,0.873s-3.22-0.318-4.329-0.873c-1.535-0.767-3.549-1.189-5.671-1.189s-4.136,0.422-5.67,1.189   c-1.109,0.555-2.688,0.873-4.329,0.873s-3.22-0.318-4.329-0.873c-0.989-0.494-1.962-0.745-2.892-0.745   c-2.519,0-4.279,1.886-4.279,4.586c0,3.002,1.167,7.689,2.658,10.671c1.173,2.347,1.173,6.312,0,8.658   c-1.701,3.401-1.58,7.37,0.281,9.231c0.626,0.626,1.065,4.182-0.362,8.465c-0.907,2.721-0.887,4.852,0.058,6.162   c0.938,1.301,2.657,1.593,4.536,0.654c1.109-0.555,2.688-0.873,4.329-0.873s3.22,0.318,4.329,0.873   c1.534,0.767,3.809,1.189,6.405,1.189c2.525,0,5.096-0.394,7.24-1.108c1.82-0.606,4.38-0.954,7.026-0.954s5.206,0.348,7.026,0.954   c2.144,0.715,4.976,1.108,7.974,1.108s5.83-0.394,7.975-1.108c1.819-0.606,4.38-0.954,7.025-0.954s5.206,0.348,7.025,0.954   c4.263,1.421,10.083,2.577,12.975,2.577c1.739,0,3.185-0.724,3.965-1.986c0.867-1.403,0.822-3.293-0.123-5.185   c-1.174-2.347-1.174-6.312,0-8.658C95.432,56.757,95.432,51.774,93.842,48.595z M91.158,49.937c1.174,2.347,1.174,6.312,0,8.658   c-1.59,3.18-1.59,8.162,0,11.342c0.464,0.927,0.559,1.773,0.255,2.266c-0.304,0.49-1.016,0.563-1.413,0.563   c-2.578,0-8.085-1.109-12.025-2.423c-2.145-0.715-4.977-1.108-7.975-1.108s-5.83,0.394-7.975,1.108   c-1.819,0.606-4.38,0.954-7.025,0.954s-5.206-0.348-7.026-0.954c-2.144-0.715-4.976-1.108-7.974-1.108s-5.831,0.394-7.974,1.108   c-1.847,0.615-4.081,0.954-6.292,0.954c-2.108,0-3.954-0.318-5.063-0.873c-1.534-0.767-3.548-1.189-5.671-1.189   s-4.137,0.423-5.671,1.189c-0.443,0.222-0.688,0.246-0.756,0.28c-0.123-0.142-0.423-1.143,0.35-3.464   c1.388-4.164,1.709-9.464-0.362-11.535c-0.708-0.708-0.95-3.307,0.281-5.769c1.59-3.18,1.59-8.162,0-11.342   C7.572,36.056,6.5,31.784,6.5,29.266c0-1.586,0.963-1.586,1.279-1.586c0.454,0,0.99,0.148,1.55,0.428   c1.534,0.767,3.548,1.189,5.671,1.189s4.137-0.422,5.671-1.189c1.109-0.555,2.687-0.873,4.329-0.873c1.642,0,3.22,0.318,4.33,0.873   c1.534,0.767,3.548,1.189,5.671,1.189s4.137-0.422,5.67-1.189c1.109-0.554,2.42-0.872,3.595-0.872c1.167,0,1.888,0.305,2.174,0.591   c1.215,1.215,3.406,1.471,5.029,1.471c2.051,0,4.361-0.394,6.505-1.108c1.82-0.606,4.381-0.954,7.026-0.954   s5.206,0.347,7.025,0.953c2.145,0.715,4.977,1.108,7.975,1.108s5.83-0.394,7.974-1.108c1.001-0.333,1.989-0.51,2.857-0.51   c0.626,0,2.669,0.115,2.669,1.586c0,2.519-1.072,6.791-2.342,9.329C89.568,41.775,89.568,46.756,91.158,49.937z"></path><path d="M22.5,45.766c2.206,0,4-1.794,4-4s-1.794-4-4-4s-4,1.794-4,4S20.294,45.766,22.5,45.766z M22.5,40.766c0.551,0,1,0.449,1,1   s-0.449,1-1,1s-1-0.449-1-1S21.949,40.766,22.5,40.766z"></path><path d="M25,52.766c-3.584,0-6.5,2.916-6.5,6.5s2.916,6.5,6.5,6.5s6.5-2.916,6.5-6.5S28.584,52.766,25,52.766z M25,62.766   c-1.93,0-3.5-1.57-3.5-3.5s1.57-3.5,3.5-3.5s3.5,1.57,3.5,3.5S26.93,62.766,25,62.766z"></path><path d="M40,45.766c3.584,0,6.5-2.916,6.5-6.5s-2.916-6.5-6.5-6.5s-6.5,2.916-6.5,6.5S36.416,45.766,40,45.766z M40,35.766   c1.93,0,3.5,1.57,3.5,3.5s-1.57,3.5-3.5,3.5s-3.5-1.57-3.5-3.5S38.07,35.766,40,35.766z"></path><path d="M37.5,52.766c-2.206,0-4,1.794-4,4s1.794,4,4,4s4-1.794,4-4S39.706,52.766,37.5,52.766z M37.5,57.766c-0.551,0-1-0.448-1-1   s0.449-1,1-1s1,0.448,1,1S38.051,57.766,37.5,57.766z"></path><path d="M55,42.766c-3.584,0-6.5,2.916-6.5,6.5s2.916,6.5,6.5,6.5s6.5-2.916,6.5-6.5S58.584,42.766,55,42.766z M55,52.766   c-1.93,0-3.5-1.57-3.5-3.5s1.57-3.5,3.5-3.5s3.5,1.57,3.5,3.5S56.93,52.766,55,52.766z"></path><path d="M57.5,32.766c-2.206,0-4,1.794-4,4s1.794,4,4,4s4-1.794,4-4S59.706,32.766,57.5,32.766z M57.5,37.766c-0.552,0-1-0.449-1-1   s0.448-1,1-1s1,0.449,1,1S58.052,37.766,57.5,37.766z"></path><path d="M47.5,57.766c-2.206,0-4,1.794-4,4s1.794,4,4,4s4-1.794,4-4S49.706,57.766,47.5,57.766z M47.5,62.766c-0.551,0-1-0.448-1-1   s0.449-1,1-1s1,0.448,1,1S48.051,62.766,47.5,62.766z"></path><path d="M81.5,39.266c0-3.584-2.916-6.5-6.5-6.5s-6.5,2.916-6.5,6.5s2.916,6.5,6.5,6.5S81.5,42.85,81.5,39.266z M75,42.766   c-1.93,0-3.5-1.57-3.5-3.5s1.57-3.5,3.5-3.5s3.5,1.57,3.5,3.5S76.93,42.766,75,42.766z"></path><path d="M71.5,51.766c0-2.206-1.794-4-4-4s-4,1.794-4,4c0,2.206,1.794,4,4,4S71.5,53.972,71.5,51.766z M67.5,52.766   c-0.552,0-1-0.448-1-1s0.448-1,1-1s1,0.448,1,1S68.052,52.766,67.5,52.766z"></path><path d="M82.5,52.766c-2.206,0-4,1.794-4,4s1.794,4,4,4s4-1.794,4-4S84.706,52.766,82.5,52.766z M82.5,57.766c-0.552,0-1-0.448-1-1   s0.448-1,1-1s1,0.448,1,1S83.052,57.766,82.5,57.766z"></path><path d="M72.5,57.766c-2.206,0-4,1.794-4,4s1.794,4,4,4s4-1.794,4-4S74.706,57.766,72.5,57.766z M72.5,62.766c-0.552,0-1-0.448-1-1   s0.448-1,1-1s1,0.448,1,1S73.052,62.766,72.5,62.766z"></path></g></svg>