<svg xmlns="http://www.w3.org/2000/svg" xmlns:xlink="http://www.w3.org/1999/xlink" version="1.1" x="0px" y="0px" viewBox="0 0 100 100" enable-background="new 0 0 100 100" xml:space="preserve"><path d="M47.086,28.775c0-1.639,1.336-2.965,2.975-2.965c1.093,0,2.074,0.587,2.59,1.518c-1.882,0.658-3.349,2.196-3.906,4.118  C47.754,30.95,47.086,29.918,47.086,28.775z M67.282,74.192c0,1.74-1.406,3.01-3.147,3.01c-0.01,0-0.01,0-0.02,0  c-0.83,0-1.619-0.172-2.216-0.759c-0.607-0.597-0.931-1.194-0.941-2.034c-0.01-1.74,1.406-3.207,3.147-3.207h0.01  C65.855,71.203,67.272,72.452,67.282,74.192z M65.734,75.967c-0.425,0.435-1.002,0.556-1.609,0.556  c-0.273,0-0.506-0.142-0.506-0.415c0-0.283,0.223-0.425,0.506-0.425c0.334,0,0.648-0.192,0.89-0.435  c0.233-0.243,0.364-0.678,0.364-1.012c0-0.283,0.223-0.749,0.506-0.749c0.273,0,0.506,0.405,0.506,0.688  C66.392,74.783,66.159,75.532,65.734,75.967z M71.249,56.095c-0.132-0.03-0.243-0.132-0.314-0.243  c-0.071-0.111-0.101-0.293-0.071-0.425c0.071-0.354,0.111-0.776,0.111-1.059c-0.01-2.196-1.801-4.165-3.997-4.165  c-0.01,0-0.01,0-0.02,0c-1.376,0-2.641,0.867-3.38,2.04c-0.071,0.111-0.192,0.337-0.324,0.368c-0.142,0.03-0.283-0.102-0.395-0.183  c-0.981-0.678-2.135-1.225-3.349-1.225h-0.03c-1.882,0-3.602,1.055-4.735,2.552c-0.162,0.212-0.476,0.431-0.698,0.279  c-0.668-0.476-1.427-0.887-2.297-0.877c-0.648,0-1.123,0.184-1.669,0.487c-0.132,0.071-0.374,0.132-0.526,0.072  c-0.142-0.061-0.243-0.282-0.283-0.434c-0.951-3.46-4.118-6.08-7.71-6.08h-0.03c-3.552,0-6.628,2.508-7.639,5.888  c-0.081,0.263-0.364,0.632-0.637,0.551c-0.465-0.142-1.002-0.205-1.508-0.215c-1.558,0.01-3.015,0.616-4.108,1.729  c-1.093,1.103-1.69,2.569-1.68,4.138c0.01,2.287,1.376,4.351,3.481,5.271c0.233,0.101,0.354,0.344,0.293,0.587  c-0.071,0.293-0.111,0.597-0.111,0.921c0.01,1.447,0.809,2.772,2.084,3.471c0.182,0.101,0.283,0.283,0.253,0.496  c-0.01,0.111-0.01,0.001-0.01,0.113c0.02,3.491,2.843,6.052,6.314,6.052h0.03c2.712,0,5.11-1.499,5.96-4.069  c0.061-0.152,0.182-0.102,0.344-0.153c0.152-0.051,0.324,0.02,0.455,0.121c0.718,0.567,1.609,0.931,2.57,0.89  c1.781-0.01,3.137-1.437,3.147-1.447c0.101-0.111,0.253-0.197,0.405-0.177c0.152,0.01,0.283-0.122,0.374,0  c0.83,1.143,3.42,3.835,5.464,3.835h0.01c1.062,0,2.074-0.018,2.965-0.574c-0.01-0.121-0.04-0.139-0.04-0.26  c-0.01-2.297,1.852-4.166,4.159-4.166h0.01c1.417,0,2.671,0.773,3.43,1.855c1.224-0.951,1.821-2.275,1.831-2.285  c0.081-0.182,0.263-0.272,0.455-0.272c1.811-0.01,3.521-0.713,4.796-1.998c1.285-1.295,1.983-2.997,1.973-4.809  C76.591,59.527,74.335,56.742,71.249,56.095z M46.357,57.825c-0.283,0-0.506-0.223-0.506-0.506c0-0.455-0.374-0.84-0.84-0.84  c-0.465,0-0.84,0.385-0.84,0.84c0,0.283-0.223,0.506-0.506,0.506c-0.273,0-0.506-0.223-0.506-0.506c0-1.022,0.83-1.852,1.852-1.852  s1.852,0.83,1.852,1.852C46.863,57.602,46.631,57.825,46.357,57.825z M58.388,63.015c-0.283,0-0.506-0.233-0.506-0.506  c0-0.992-0.809-1.801-1.801-1.801c-0.992,0-1.791,0.809-1.791,1.801c0,0.273-0.233,0.506-0.506,0.506  c-0.283,0-0.506-0.233-0.506-0.506c0-1.558,1.255-2.813,2.803-2.813c1.548,0,2.813,1.255,2.813,2.813  C58.894,62.783,58.671,63.015,58.388,63.015z M38.56,36.663c-0.34-2.15-1.84-3.92-3.88-4.62c0-0.18-0.02-0.39-0.05-0.6  c-0.23-1.44-1.16-2.67-2.48-3.26l-0.01-0.08c-0.53-3.41-3.74-5.75-7.16-5.22c-2.45,0.39-4.42,2.15-5.07,4.49  c-0.7-0.27-1.48-0.35-2.27-0.23c-0.79,0.12-1.54,0.49-2.25,1.1c-1.59-1.34-3.9-1.38-5.57-0.04c-0.91,0.74-1.48,1.79-1.6,2.95  c-0.13,1.17,0.21,2.32,0.94,3.23c0.06,0.07,0.11,0.13,0.17,0.19c-0.16,0.11-0.32,0.22-0.48,0.35c-1.16,0.94-1.89,2.27-2.05,3.76  c-0.15,1.49,0.28,2.95,1.22,4.12c1.1,1.36,2.72,2.11,4.48,2.07c0.14,0.53,0.4,1.02,0.75,1.45c1.37,1.71,3.88,1.98,5.59,0.6  c0.09-0.07,0.18-0.15,0.26-0.23c1.47,1.79,3.67,2.82,5.96,2.82c0.39,0,0.78-0.03,1.18-0.09c3.21-0.5,5.71-2.89,6.36-6.01  c0.38,0.01,0.74,0,1.08-0.05c1.54-0.24,2.9-1.08,3.82-2.34C38.42,39.753,38.8,38.203,38.56,36.663z M20.69,37.033  c-0.24,0.13-0.54,0.05-0.68-0.19c-0.28-0.5-0.71-0.85-1.26-1c-0.54-0.15-1.1-0.09-1.6,0.19c-0.57,0.32-0.93,0.85-1.05,1.54  c-0.05,0.28-0.31,0.46-0.58,0.41c-0.27-0.04-0.46-0.3-0.41-0.57c0.17-0.99,0.72-1.79,1.55-2.25c0.74-0.41,1.56-0.51,2.36-0.28  c0.81,0.23,1.45,0.73,1.86,1.47C21.02,36.593,20.93,36.893,20.69,37.033z M27.69,31.233c-0.27,0-0.49-0.23-0.49-0.51  c0.01-0.2-0.06-0.39-0.18-0.54c-0.09-0.11-0.25-0.26-0.53-0.32c-0.24-0.05-0.46-0.01-0.67,0.12c-0.21,0.14-0.34,0.34-0.4,0.64  c-0.06,0.27-0.33,0.45-0.6,0.39c-0.11-0.03-0.21-0.09-0.28-0.18c-0.09-0.11-0.13-0.26-0.1-0.41c0.12-0.57,0.4-1,0.84-1.28  c0.43-0.27,0.93-0.36,1.43-0.25c0.55,0.12,0.9,0.42,1.09,0.66c0.19,0.23,0.41,0.63,0.4,1.19C28.2,31.023,27.97,31.243,27.69,31.233z   M13.377,25.628c0.129,0,0.259-0.049,0.358-0.148c0.823-0.824,1.701-1.313,2.609-1.455c0.996-0.151,1.995,0.026,2.814,0.506  c0.141,0.084,0.32,0.092,0.469,0.023c0.151-0.07,0.258-0.21,0.286-0.374c0.474-2.8,2.693-4.982,5.519-5.428  c2.181-0.337,4.376,0.429,5.881,2.045c0.191,0.205,0.511,0.216,0.715,0.026c0.205-0.191,0.215-0.511,0.026-0.715  c-1.733-1.863-4.262-2.744-6.779-2.356c-3.033,0.479-5.457,2.693-6.219,5.603c-0.883-0.367-1.88-0.479-2.867-0.329  c-1.125,0.175-2.193,0.76-3.17,1.739c-0.198,0.198-0.198,0.519,0,0.715C13.118,25.579,13.248,25.628,13.377,25.628z M34.031,81.041  c-1.062-0.166-2.085-0.597-2.959-1.247c-2.053-1.512-3.064-4.116-2.577-6.634c0.032-0.163-0.02-0.331-0.135-0.45  c-0.118-0.12-0.285-0.174-0.448-0.145c-0.222,0.039-0.472,0.042-0.743,0.012c-1.624-0.185-2.795-1.656-2.611-3.28  c0.06-0.533,0.258-1.033,0.57-1.446c0.169-0.223,0.125-0.541-0.098-0.708c-0.221-0.169-0.541-0.125-0.708,0.098  c-0.423,0.558-0.689,1.229-0.77,1.942c-0.121,1.057,0.178,2.097,0.838,2.927c0.661,0.829,1.607,1.353,2.665,1.473  c0.119,0.013,0.236,0.022,0.35,0.025c-0.287,2.694,0.874,5.387,3.065,7c1.004,0.746,2.181,1.242,3.405,1.434  c0.027,0.004,0.052,0.006,0.079,0.006c0.244,0,0.459-0.178,0.499-0.428C34.496,81.344,34.307,81.085,34.031,81.041z M79.507,56.707  c-0.038-0.183-0.089-0.38-0.163-0.578c-0.529-1.481-1.82-2.554-3.368-2.799c-0.274-0.043-0.536,0.144-0.579,0.421  c-0.043,0.276,0.145,0.535,0.421,0.579c1.183,0.187,2.169,1.007,2.576,2.146c0.079,0.21,0.131,0.439,0.178,0.764  c0.034,0.235,0.226,0.416,0.463,0.434c1.904,0.14,3.55,1.388,4.195,3.178c0.437,1.22,0.374,2.538-0.176,3.71  c-0.551,1.173-1.524,2.059-2.74,2.494c-0.264,0.094-0.4,0.383-0.306,0.646c0.074,0.208,0.269,0.336,0.476,0.336  c0.056,0,0.114-0.01,0.17-0.03c1.472-0.527,2.65-1.598,3.316-3.017c0.664-1.416,0.74-3.007,0.212-4.481  C83.448,58.469,81.638,57.01,79.507,56.707z M17.631,54.03c-0.89,0-1.73,0.263-2.469,0.749c-0.132,1.315-0.901,2.428-1.993,3.036  c-0.051,0.263-0.091,0.516-0.091,0.769c0,2.52,2.044,4.563,4.553,4.563c2.519,0,4.563-2.044,4.563-4.563  C22.195,56.074,20.151,54.03,17.631,54.03z M17.631,62.429c-0.273,0-0.506-0.233-0.506-0.506c0-0.283,0.233-0.506,0.506-0.506  c1.558,0,2.823-1.275,2.823-2.833c0-0.273,0.233-0.506,0.506-0.506c0.283,0,0.506,0.233,0.506,0.506  C21.466,60.708,19.746,62.429,17.631,62.429z M13.798,63.394c-0.256,0.114-0.371,0.413-0.257,0.668  c0.198,0.445,0.298,0.92,0.298,1.413c0,1.922-1.563,3.486-3.485,3.486s-3.486-1.564-3.486-3.486c0-1.922,1.564-3.485,3.486-3.485  c0.238,0,0.474,0.024,0.703,0.071c0.268,0.053,0.541-0.121,0.598-0.394c0.055-0.274-0.121-0.541-0.394-0.598  c-0.295-0.06-0.6-0.091-0.906-0.091c-2.48,0-4.498,2.018-4.498,4.497c0,2.48,2.018,4.498,4.498,4.498  c2.479,0,4.497-2.018,4.497-4.498c0-0.635-0.129-1.249-0.385-1.824C14.352,63.395,14.049,63.281,13.798,63.394z M69.802,19.564  c1.976,0,3.584-1.608,3.584-3.584s-1.608-3.584-3.584-3.584c-0.33,0-0.659,0.045-0.976,0.134c-0.269,0.076-0.425,0.356-0.35,0.624  c0.076,0.27,0.354,0.426,0.624,0.35c0.227-0.064,0.463-0.097,0.702-0.097c1.418,0,2.572,1.154,2.572,2.572s-1.154,2.572-2.572,2.572  s-2.572-1.154-2.572-2.572c0-0.516,0.152-1.013,0.439-1.438c0.157-0.231,0.096-0.546-0.135-0.703  c-0.231-0.156-0.545-0.096-0.703,0.135c-0.401,0.593-0.613,1.287-0.613,2.005C66.218,17.957,67.825,19.564,69.802,19.564z   M78.959,38.428c-0.019,0.094-0.001,0.187,0.026,0.273c0.204-0.207,0.764-0.64,1.054-0.822c0.051-1.843-1.165-3.557-3.022-3.994  c-0.121-0.03-0.233-0.071-0.354-0.081c0.617-2.651-0.202-5.464-2.186-7.336c-2.307-2.206-5.798-2.742-8.641-1.376  c-0.212-0.304-0.445-0.577-0.698-0.82c-2.327-2.226-6.041-2.135-8.287,0.213c-0.729,0.769-1.214,1.71-1.437,2.732  c0.314,0.078,0.701,0.215,0.96,0.331c0.176-0.887,0.576-1.695,1.216-2.364c1.852-1.943,4.918-2.024,6.85-0.182  c0.293,0.283,0.546,0.617,0.789,1.012c0.142,0.243,0.445,0.314,0.688,0.182c2.519-1.427,5.757-1.012,7.862,1.002  c1.852,1.75,2.54,4.462,1.75,6.911c-0.051,0.162-0.02,0.334,0.081,0.465c0.111,0.132,0.273,0.213,0.435,0.192  c0.213-0.02,0.455,0.01,0.739,0.081C78.362,35.23,79.343,36.829,78.959,38.428z M92.163,34.942c-2.1,0-3.602,1.543-3.673,3.506  c1.277,0.484,2.4,2.117,2.641,3.531c0.334,0.101,0.678,0.223,1.032,0.223c0,0,0,0,0.01,0c2.416,0,3.683-1.796,3.683-3.602  C95.856,36.913,94.616,34.942,92.163,34.942z M50.061,25.81c-1.639,0-2.975,1.326-2.975,2.965c0,1.143,0.668,2.175,1.659,2.671  c0.556-1.923,2.024-3.461,3.906-4.118C52.135,26.397,51.153,25.81,50.061,25.81z M54.705,27.976c-2.863,0-5.201,2.337-5.201,5.201  s2.337,5.191,5.201,5.191c2.864,0,5.191-2.327,5.191-5.191S57.569,27.976,54.705,27.976z M56.414,36.819  c-0.081,0.051-0.172,0.071-0.253,0.071c-0.172,0-0.344-0.091-0.445-0.263c-0.132-0.243-0.051-0.546,0.192-0.688  c1.123-0.637,1.811-1.821,1.811-3.106c0-0.314-0.04-0.617-0.121-0.921c-0.071-0.263,0.091-0.546,0.364-0.617  c0.263-0.071,0.546,0.091,0.617,0.364c0.101,0.385,0.152,0.779,0.152,1.174C58.731,34.481,57.84,36.009,56.414,36.819z   M49.565,79.387c-3.228,0-5.859,2.621-5.859,5.848s2.631,5.848,5.859,5.848s5.848-2.621,5.848-5.848S52.793,79.387,49.565,79.387z   M49.565,89.323c-0.283,0-0.506-0.223-0.506-0.506c0-0.273,0.223-0.506,0.506-0.506c1.69,0,3.076-1.376,3.076-3.076  c0-0.283,0.223-0.506,0.506-0.506c0.283,0,0.506,0.223,0.506,0.506C53.653,87.492,51.821,89.323,49.565,89.323z M77.885,70.647  c-1.414,0-2.565,1.151-2.565,2.565s1.151,2.565,2.565,2.565s2.565-1.151,2.565-2.565S79.299,70.647,77.885,70.647z M67.378,44.989  c0-1.602-1.302-2.904-2.904-2.904s-2.904,1.302-2.904,2.904s1.302,2.905,2.904,2.905S67.378,46.59,67.378,44.989z M44.051,21.214  c0.633,0,1.268-0.241,1.75-0.723c0.964-0.964,0.964-2.535,0-3.5c-0.964-0.964-2.536-0.964-3.5,0c-0.964,0.965-0.964,2.536,0,3.5  C42.783,20.973,43.418,21.214,44.051,21.214z M14.512,54.279c0-1.799-1.458-3.257-3.257-3.257s-3.257,1.458-3.257,3.257  c0,1.799,1.458,3.257,3.257,3.257S14.512,56.078,14.512,54.279z M84.774,38.14c-3.177,0-5.753,2.576-5.753,5.753  s2.576,5.753,5.753,5.753c3.177,0,5.753-2.576,5.753-5.753S87.951,38.14,84.774,38.14z M71.407,88.616  c-2.308,0-4.187-1.878-4.187-4.187s1.878-4.187,4.187-4.187s4.187,1.878,4.187,4.187S73.716,88.616,71.407,88.616z M71.407,81.255  c-1.751,0-3.175,1.424-3.175,3.175s1.424,3.175,3.175,3.175c1.751,0,3.175-1.424,3.175-3.175S73.158,81.255,71.407,81.255z   M90.275,66.028c-1.151,0-2.088-0.937-2.088-2.088s0.937-2.088,2.088-2.088s2.088,0.937,2.088,2.088S91.426,66.028,90.275,66.028z   M90.275,62.864c-0.593,0-1.076,0.483-1.076,1.076s0.483,1.076,1.076,1.076s1.076-0.483,1.076-1.076S90.867,62.864,90.275,62.864z   M55.615,16.774c-2.669,0-4.841-2.172-4.841-4.841c0-2.67,2.172-4.842,4.841-4.842s4.841,2.172,4.841,4.842  C60.456,14.602,58.284,16.774,55.615,16.774z M55.615,8.103c-2.112,0-3.829,1.718-3.829,3.83s1.717,3.829,3.829,3.829  s3.829-1.717,3.829-3.829S57.727,8.103,55.615,8.103z M21.607,80.754c-1.786,0-3.239-1.454-3.239-3.239  c0-1.786,1.454-3.239,3.239-3.239c1.786,0,3.239,1.454,3.239,3.239C24.846,79.3,23.393,80.754,21.607,80.754z M21.607,75.287  c-1.228,0-2.227,0.999-2.227,2.227c0,1.228,0.999,2.227,2.227,2.227c1.228,0,2.227-0.999,2.227-2.227  C23.834,76.286,22.835,75.287,21.607,75.287z"></path></svg>