<svg xmlns="http://www.w3.org/2000/svg" xmlns:xlink="http://www.w3.org/1999/xlink" version="1.1" x="0px" y="0px" viewBox="0 0 100 100" enable-background="new 0 0 100 100" xml:space="preserve"><path d="M88.3,69c-1.3-2.5-4.9-5.6-8.6-6c3.4,1,5.6,4.2,7,6.7c0,0,0,0,0,0c-0.9,5.3-4.6,9-8.9,9.8c-0.1-2.7-1.2-6.1-4.6-7.8  c2.9,2.2,3,5.4,3.2,8c0,0,0,0-0.1,0c-1.5,2.9-5.2,4.5-9.6,3.9c0.7-2.1,1.1-4.2-0.7-7.3c0.9,3.2,0.3,5.3-0.5,7.1  c-2.5,1.4-7.5,1.4-10.1-0.4c1.6-1.3,3.1-2.8,3-6.2c-0.8,3.2-2.4,4.5-3.9,5.5c0,0,0,0,0,0c-2.1,0.6-6.9-0.8-8.5-2.9  c1.9-0.4,3.7-1.2,5.3-4c-2.1,2.1-4,2.7-5.8,2.9c0,0,0,0,0,0c-2.8-0.6-5.1-2.1-6.4-3.9c0,0,0,0,0,0c-0.6-1.4-0.9-2.9-0.8-4.3  c0-0.4-0.1-0.9-0.5-1.1c-1.9-1.5-2.5-5.2-1.2-7.5c0.2-0.4,0.2-0.8,0.1-1.2c-1.5-3.2-0.9-6.7,1.5-8.2c0.4-0.2,0.6-0.6,0.6-1.1  c0.1-4,2.9-6.9,7.1-7.3c0.4,0,0.8-0.3,1-0.7c0.9-1.6,6-3.5,8.9-1.9c0.3,0.2,0.8,0.2,1.1,0c1.5-0.7,3.7-0.5,5.8,0.4  c2.1,0.9,3.7,2.4,4.3,4c0.2,0.4,0.5,0.7,1,0.8c1.5,0.3,2.9,1.3,3.7,2.9c0.9,1.8,1,3.9,0.2,5.4c-0.2,0.4-0.2,0.9,0.1,1.3  c1,1.5,0.9,3.6,0,5.6c-1,2.1-2.8,3.6-4.6,3.8c-0.3,0-0.6,0.2-0.8,0.4c-1.5,1.6-3.6,2.4-6.1,2.5c-2.6,0-4.8-0.8-5.4-1.1  c-1.8-0.8-3.8-3.3-4.6-5.8c-0.3-0.9-0.4-2.4-0.2-3.3c0.3-1.6,1-3,2.1-4.1c0.8-0.8,1.8-1.5,2.9-1.9c1.4-0.5,2.9-0.4,4.2,0.3  c1.1,0.5,1.9,1.4,2.5,2.4c0.5,1,0.6,2.7,0.2,3.6c-0.4,1-1.3,1.8-2.3,2.1c-0.3,0.1-0.6,0.1-0.9,0.1c-1,0-1.9-0.5-2.3-1.4  c-0.2-0.4-0.3-1.1-0.1-1.5c0.2-0.4,0.5-0.7,0.9-0.9c0.4-0.1,0.5-0.5,0.4-0.9c-0.1-0.4-0.5-0.5-0.9-0.4c-0.8,0.3-1.4,0.8-1.7,1.6  c-0.4,0.8-0.2,2,0.1,2.7c0.7,1.3,2,2.2,3.6,2.2c0.4,0,0.9-0.1,1.3-0.2c1.4-0.5,2.5-1.5,3.1-2.9c0.6-1.3,0.5-3.4-0.3-4.8  c-0.7-1.3-1.8-2.4-3.1-3c-1-0.5-2-0.7-3-0.7c-0.8,0-1.5,0.1-2.3,0.4c-1.3,0.5-2.5,1.2-3.5,2.2c-1.3,1.3-2.1,3-2.4,4.8  c-0.2,1.1-0.1,2.8,0.3,3.9c0.9,2.9,3.2,5.7,5.4,6.6c0.9,0.4,3.1,1.2,5.9,1.2c2.8,0,5.3-1,7-2.9c2.3-0.3,4.5-2,5.7-4.6  c1.2-2.5,1.1-5,0-6.9c0.9-1.9,0.8-4.5-0.3-6.6c-1-2-2.7-3.3-4.6-3.7c-0.7-2-2.6-3.7-5-4.7c-2.5-1.1-5-1.2-6.9-0.4  c-3.5-1.9-9.4,0.2-10.7,2.5c-4.9,0.6-8.2,4-8.3,8.6c-2.9,1.9-3.8,6.1-1.9,9.9c-1.6,2.9-0.9,7.3,1.5,9.3c-0.1,1.5,0.1,3,0.8,4.6  c-0.1,0-0.2,0.1-0.3,0.1c-17,5.4-25.9-0.6-29.1-2.8C6.8,69.4,6,66,7,63.1c1.6,2.3,5.2,4.5,8.7,4.9c-3.3-1.2-6.3-4.2-7.9-6.6  c0,0,0,0,0,0c-1.8-2.7-1.3-7.6,0.9-10.2c1,2.7,4.3,5.7,7.8,6.9c-3-1.8-5.5-5.4-6.5-8.2c0-0.1,0-0.1-0.1-0.2  c-1.4-4.6,1.3-9.8,5.3-12.2c-0.1,2.8,1.9,6.9,4.7,9.2c-2.2-2.9-3.2-7.4-3.1-10.3c0,0,0,0,0,0c0,0,0,0,0-0.1c0,0,0,0,0-0.1  c0-0.1,0-0.2,0-0.3c0-0.1,0-0.2,0-0.2v0c0.4-5.2,2.3-9.2,10-10.3c-1,2.9-0.5,8.6,1.8,11.7c-1.6-3.9-0.9-10.3,0.4-12.9l0,0  c1.9-3.9,7-6.5,11.6-6c-2.1,1.7-3.2,6.7-2.5,10.5c0.1-3.9,2.3-8.9,4.5-10c6.1-4.7,13.6-3.5,16.7-2c-2.4,1.2-5.7,5.1-5.7,8.9  c0.8-3.6,4.5-7,7.1-7.9c0,0,0,0,0,0c6.2-1.5,13.2,0.6,15.7,4.8c-2.8,0.2-8.2,3.2-9.9,6.5c2.5-2.9,8.1-4.6,10.7-4.7c0,0,0,0,0,0  c5.7-0.2,10.8,6,10.4,11.2c-2.5-1.1-8.7-0.5-11.6,2.1c3.4-1.4,8.6-1.4,11.2-0.2c0,0,0,0,0,0c5.4,2.3,6.8,9.4,4.9,13.8  c-2.7-1.5-7.3-2.7-10.9-1.2c3.8-0.7,7.7,1.1,10.1,2.7C95.6,59.2,92.8,66.5,88.3,69z"></path></svg>