<svg xmlns="http://www.w3.org/2000/svg" xmlns:xlink="http://www.w3.org/1999/xlink" version="1.1" x="0px" y="0px" viewBox="0 0 100 100" style="enable-background:new 0 0 100 100;" xml:space="preserve"><g><g><g><g><path d="M79.958,68.708c-2.554,0-9.558-0.055-9.558-0.055c-1.597,0-2.904,1.643-2.904,3c0,1.354,1.308,3,2.904,3h0.324      c-1.596,0-2.901,1.146-2.901,2.5s1.306,2.5,2.901,2.5h0.977c-1.595,0-2.901,1.644-2.901,3c0,1.354,1.307,3,2.901,3h1.302      c-1.597,0-2.902,0.645-2.902,2s1.306,2,2.902,2h6.093c0.052,0-0.072,0,0,0c5.212,0,9.316-6.989,9.316-12.394      C88.412,71.856,82.512,68.708,79.958,68.708z"></path><path d="M85.448,62.704c0,0-16.839,0.003-18.061,0.003c-1.108,0-1.455,0.681-1.524,1.21c-0.041,0.597-0.057,1.034-0.092,1.626      c0,0.609,0.312,1.3,1.616,1.3c0.806,0,18.061,0,18.061,0c1.548,0,2.815-0.933,2.815-2.071      C88.264,63.635,86.996,62.704,85.448,62.704z"></path><path d="M73.197,91.038c-0.01,0.085-0.03,0.159-0.03,0.254c0,1.632,1.44,2.958,3.221,2.958c1.779,0,3.221-1.326,3.221-2.958      c0-0.095-0.021-0.169-0.03-0.254H73.197z"></path><g><path d="M78.198,60.653c1.18,0,2.254-1.646,2.389-2.725l4.141-33.956c0.134-1.076-0.379-3.02-1.136-3.853l-6.048-6.637       c-0.757-0.832-1.979-0.816-2.716,0.032l-5.7,6.572c-0.736,0.851-1.229,2.427-1.095,3.506l4.142,34.335       c0.135,1.079,1.208,2.725,2.389,2.725"></path></g></g><g><path d="M71.662,80.236c-0.055-0.058-0.117-0.094-0.167-0.094v0.125C71.549,80.258,71.604,80.247,71.662,80.236z"></path><path d="M61.181,56.482c-0.908,0.057-5.162-0.486-6.29-3.594c-0.162-0.739-0.324-1.234-1.775-1.234c-0.686,0-5.531,0-9.224,0      c-1.97,0-3.612,0-4.115,0c-0.027,0-0.054,0-0.073,0h-0.001c-0.013,0-0.024,0-0.036,0c-0.004,0-0.008,0-0.014,0      c-0.001,0-0.014,0-0.038,0c-0.005,0-0.009,0-0.011,0c-0.012,0-0.023,0-0.038,0h-0.001c-1.1,0-12.341,0-13.411,0      c-1.451,0-1.612,0.495-1.775,1.234c-1.126,3.108-5.381,3.564-6.291,3.506c-1.242,0-2.254,1.233-2.254,1.233      c0.209,24.467,4.778,36.532,21.778,40.983v0.023c0-0.005-0.011-0.01,0-0.015c0.013,0.005,0,0.01,0,0.015V98.61      c17-4.452,23.594-16.473,23.805-40.939C61.416,57.67,62.426,56.482,61.181,56.482z"></path></g><g><path d="M56.277,35.614c-0.105,0-0.21-0.025-0.308-0.072c-1.717-0.854-4.111-0.854-5.827,0      c-0.313,0.156-0.703,0.047-0.873-0.239c-0.17-0.289-0.055-0.646,0.26-0.801c2.075-1.037,4.979-1.037,7.056,0      c0.311,0.154,0.429,0.512,0.258,0.801C56.727,35.5,56.506,35.614,56.277,35.614z"></path></g><g><path d="M42.104,35.614c-0.104,0-0.208-0.025-0.305-0.072c-1.718-0.854-4.114-0.854-5.829,0      c-0.313,0.156-0.704,0.047-0.875-0.239c-0.167-0.289-0.053-0.646,0.26-0.801c2.078-1.037,4.979-1.037,7.057,0      c0.313,0.154,0.429,0.512,0.26,0.801C42.556,35.5,42.333,35.614,42.104,35.614z"></path></g><g><path d="M45.97,49.139c-2.078,0-4.155-0.432-5.89-1.293c-0.312-0.159-0.43-0.517-0.259-0.803      c0.17-0.289,0.562-0.394,0.875-0.239c3.104,1.549,7.444,1.549,10.55,0c0.313-0.155,0.704-0.049,0.874,0.239      c0.168,0.286,0.054,0.644-0.259,0.803C50.127,48.707,48.05,49.139,45.97,49.139z"></path></g><ellipse cx="53.019" cy="36.815" rx="1.181" ry="1.085"></ellipse><ellipse cx="38.877" cy="36.735" rx="1.181" ry="1.087"></ellipse></g></g><g><path d="M22.991,33.287c0,5.527,1.496,10.854,3.221,14.927c0,0,0.647,1.083,1.506,1.083c0.859,0,3.074,0,4.295,0    c1.289,0,1.72-0.65,1.72-1.734c0-0.646,0-15.572,0-15.572s-0.223-1.517,1.31-1.947c1.183-0.401,3.815-1.049,6.851-1.296    c0,0,1.716-0.219,1.716,1.513c0,1.73,0,11.248,0,11.248c0,1.188,0.966,2.162,2.146,2.162h0.43c1.182,0,2.146-0.974,2.146-2.162    c0,0,0-9.518,0-11.248c0-1.947,1.608-1.513,1.608-1.513c3.034,0.248,5.776,0.896,6.958,1.296c1.532,0.43,1.312,1.947,1.312,1.947    s0,14.708,0,16.009c0,1.078,1.073,1.297,1.289,1.297s4.938,0,4.938,0c1.073,0,1.277-1.109,1.288-1.515c0,0,0-0.432,0-1.082    c-0.215-2.163-2.529-23.562-2.529-23.562c-0.196-1.74-0.046-3.694,1.241-5.207c0,0,0.412-0.736,0.43-2.383    C64.927,10.15,22.991,0.78,22.991,33.287z"></path></g></g><g><g><g><g><path d="M26.73,74.494c-0.042-0.045-0.09-0.071-0.128-0.071v0.094C26.646,74.508,26.688,74.499,26.73,74.494z"></path></g></g></g></g><g><g><g><path d="M79.163,72.494c0.043-0.045,0.09-0.071,0.131-0.071v0.094C79.249,72.508,79.206,72.499,79.163,72.494z"></path></g></g></g><g><path d="M85.816,38.484c0-0.001,0-0.003,0-0.004V38.484z"></path></g><g><path d="M40.102,11.207c0-1.65,1.064-3.83,2.366-4.844l1.136-0.885c1.301-1.014,3.432-1.014,4.732,0l1.136,0.885   c1.302,1.014,2.366,3.194,2.366,4.844v3.152c0,1.65-1.064,3.83-2.366,4.844l-1.136,0.886c-1.302,1.014-3.431,1.014-4.732,0   l-1.136-0.886c-1.302-1.014-2.366-3.194-2.366-4.844V11.207z"></path></g></svg>