<svg xmlns="http://www.w3.org/2000/svg" xmlns:xlink="http://www.w3.org/1999/xlink" version="1.1" x="0px" y="0px" viewBox="0 0 60 60" style="enable-background:new 0 0 60 60;" xml:space="preserve"><g><g><path d="M47.566,51.834c-0.224-0.36-0.449-0.719-0.68-1.07c-0.176-0.268-0.357-0.528-0.537-0.791    c-0.248-0.361-0.498-0.721-0.753-1.072c-0.177-0.244-0.358-0.481-0.539-0.72c-0.267-0.353-0.537-0.703-0.811-1.045    c-0.34-0.424-0.682-0.848-1.033-1.253c-2.598-2.997-6.961-3.687-10.305-1.756c1.013,1.576,2.029,3.605,3.087,5.726    c0.103,0.206,0.207,0.415,0.311,0.623c0.097,0.193,0.193,0.385,0.29,0.577c0.083,0.165,0.166,0.33,0.249,0.494    c0.226,0.445,0.452,0.881,0.675,1.306c0.026,0.05,0.053,0.098,0.079,0.147h10.673c-0.055-0.094-0.107-0.19-0.163-0.283    C47.932,52.418,47.748,52.127,47.566,51.834z"></path><path d="M13.915,46.211C9.709,46.797,7,48.514,7,50v3h3.397c0.156-0.292,0.312-0.585,0.469-0.888    c0.076-0.147,0.152-0.29,0.229-0.439c0.279-0.543,0.559-1.096,0.839-1.652c0.634-1.256,1.278-2.524,1.922-3.698    C13.876,46.286,13.895,46.247,13.915,46.211z"></path><path d="M7,46.632c1.803-1.359,4.7-2.307,8.182-2.558c0.378-0.58,0.753-1.099,1.124-1.527C18.259,40.293,21.075,39,24.032,39    c2.938,0,5.736,1.279,7.688,3.509c4.185-2.54,9.728-1.716,13.007,2.065c0,0.001,0,0.001,0,0.001    c0.193,0.223,0.376,0.464,0.566,0.693c2.915,0.293,5.541,0.819,7.709,1.54V23h-46v23.632H7z M41,27    c1.118,0,2.131,0.461,2.857,1.203C44.756,26.875,46.278,26,48,26c0.552,0,1,0.447,1,1s-0.448,1-1,1c-1.654,0-3,1.346-3,3    c0,0.553-0.448,1-1,1s-1-0.447-1-1c0-1.103-0.897-2-2-2c-0.552,0-1-0.447-1-1S40.448,27,41,27z M29,33    c1.118,0,2.131,0.461,2.857,1.203C32.756,32.875,34.278,32,36,32c0.552,0,1,0.447,1,1s-0.448,1-1,1c-1.654,0-3,1.346-3,3    c0,0.553-0.448,1-1,1s-1-0.447-1-1c0-1.103-0.897-2-2-2c-0.552,0-1-0.447-1-1S28.448,33,29,33z M11,30h1.142    c0.094-0.363,0.238-0.704,0.425-1.019l-1.274-1.274c-0.391-0.391-0.391-1.023,0-1.414s1.023-0.391,1.414,0l1.274,1.274    c0.315-0.186,0.656-0.33,1.019-0.425V26c0-0.553,0.448-1,1-1s1,0.447,1,1v1.142c0.363,0.094,0.704,0.238,1.019,0.425l1.274-1.274    c0.391-0.391,1.023-0.391,1.414,0s0.391,1.023,0,1.414l-1.273,1.274c0.186,0.316,0.33,0.656,0.424,1.019H21c0.552,0,1,0.447,1,1    s-0.448,1-1,1h-1.142c-0.094,0.363-0.238,0.704-0.424,1.019l1.273,1.274c0.391,0.391,0.391,1.023,0,1.414    C20.512,35.902,20.256,36,20,36s-0.512-0.098-0.707-0.293l-1.274-1.274c-0.315,0.186-0.656,0.33-1.019,0.425V36    c0,0.553-0.448,1-1,1s-1-0.447-1-1v-1.142c-0.363-0.094-0.704-0.238-1.019-0.425l-1.274,1.274C12.512,35.902,12.256,36,12,36    s-0.512-0.098-0.707-0.293c-0.391-0.391-0.391-1.023,0-1.414l1.274-1.274c-0.187-0.316-0.331-0.656-0.425-1.019H11    c-0.552,0-1-0.447-1-1S10.448,30,11,30z"></path><circle cx="16" cy="31" r="2"></circle><path d="M59,16H43.414l-8.247-8.247C35.691,6.962,36,6.017,36,5c0-2.757-2.243-5-5-5s-5,2.243-5,5    c0,1.017,0.309,1.962,0.833,2.753L18.586,16H1c-0.552,0-1,0.447-1,1v42c0,0.553,0.448,1,1,1h58c0.552,0,1-0.447,1-1V17    C60,16.447,59.552,16,59,16z M28,5c0-1.654,1.346-3,3-3s3,1.346,3,3s-1.346,3-3,3c-0.461,0-0.894-0.113-1.285-0.301l1.992-1.992    c0.391-0.391,0.391-1.023,0-1.414s-1.023-0.391-1.414,0l-1.992,1.992C28.114,5.894,28,5.462,28,5z M28.247,9.167    C29.038,9.691,29.983,10,31,10c1.018,0,1.962-0.309,2.753-0.833L40.586,16H21.414L28.247,9.167z M55,48.237V54    c0,0.553-0.448,1-1,1h-4H37H11H6c-0.552,0-1-0.447-1-1v-4V22c0-0.553,0.448-1,1-1h48c0.552,0,1,0.447,1,1V48.237z"></path><path d="M47.392,47.988c0.391,0.545,0.773,1.1,1.147,1.668c0.197,0.299,0.394,0.597,0.586,0.902    c0.371,0.588,0.729,1.192,1.081,1.802c0.125,0.216,0.261,0.421,0.384,0.64H53v-4.079c-1.649-0.606-3.693-1.095-5.946-1.425    C47.17,47.655,47.277,47.827,47.392,47.988z"></path><path d="M34.21,50.757c-0.582-1.165-1.173-2.35-1.758-3.435c-0.01-0.018-0.02-0.036-0.03-0.055    c-0.138-0.255-0.275-0.504-0.412-0.746c-0.013-0.023-0.026-0.046-0.04-0.069c-0.138-0.243-0.275-0.479-0.412-0.705    c-0.003-0.005-0.005-0.009-0.008-0.014c-0.288-0.475-0.571-0.91-0.848-1.289c-0.003-0.005-0.004-0.011-0.007-0.016    c-0.152-0.208-0.303-0.401-0.452-0.572C28.67,42.041,26.407,41,24.031,41s-4.641,1.041-6.214,2.856    c-0.403,0.465-0.825,1.082-1.256,1.781c-0.924,1.496-1.901,3.427-2.847,5.298c-0.324,0.641-0.646,1.277-0.968,1.899    c-0.028,0.054-0.057,0.112-0.084,0.166h22.68c-0.034-0.066-0.067-0.135-0.101-0.201C34.894,52.123,34.549,51.436,34.21,50.757z"></path></g></g></svg>