<svg xmlns:dc="http://purl.org/dc/elements/1.1/" xmlns:cc="http://creativecommons.org/ns#" xmlns:rdf="http://www.w3.org/1999/02/22-rdf-syntax-ns#" xmlns:svg="http://www.w3.org/2000/svg" xmlns="http://www.w3.org/2000/svg" xmlns:sodipodi="http://sodipodi.sourceforge.net/DTD/sodipodi-0.dtd" xmlns:inkscape="http://www.inkscape.org/namespaces/inkscape" viewBox="0 0 48 48.000001" version="1.1" x="0px" y="0px"><g transform="translate(0,-1004.3622)"><path style="color:#000000;font-style:normal;font-variant:normal;font-weight:normal;font-stretch:normal;font-size:medium;line-height:normal;font-family:sans-serif;text-indent:0;text-align:start;text-decoration:none;text-decoration-line:none;text-decoration-style:solid;text-decoration-color:#000000;letter-spacing:normal;word-spacing:normal;text-transform:none;direction:ltr;block-progression:tb;writing-mode:lr-tb;baseline-shift:baseline;text-anchor:start;white-space:normal;clip-rule:nonzero;display:inline;overflow:visible;visibility:visible;opacity:1;isolation:auto;mix-blend-mode:normal;color-interpolation:sRGB;color-interpolation-filters:linearRGB;solid-color:#000000;solid-opacity:1;fill:#000000;fill-opacity:1;fill-rule:nonzero;stroke:none;stroke-width:1.19999993;stroke-linecap:round;stroke-linejoin:miter;stroke-miterlimit:4;stroke-dasharray:none;stroke-dashoffset:0;stroke-opacity:1;color-rendering:auto;image-rendering:auto;shape-rendering:auto;text-rendering:auto;enable-background:accumulate" d="m 10.181641,1011.5956 3.259765,9.2051 9.681641,-9.0586 -0.158203,-0.1465 -12.783203,0 z m 14.853515,0 -0.158203,0.1484 9.681641,9.0567 3.259765,-9.2051 -12.783203,0 z m -15.9179684,0.5918 -6.0273437,9.9004 9.5332031,0 -3.5058594,-9.9004 z m 29.7636714,0 -3.503906,9.8985 9.533203,0 -6.029297,-9.8985 z m -14.28125,0.9356 0,8.9629 9.576172,0 -9.576172,-8.9629 z m -1.201171,0 -9.574219,8.961 9.576172,0 -0.002,-8.961 z m -19.541016,10.1622 18.68164,21.6503 -9.583984,-21.6503 -9.097656,0 z m 10.410156,0 9.134766,20.6328 -0.002,-20.6328 -9.132813,0 z m 10.332031,0 0.002,20.6269 9.13086,-20.6269 -9.132813,0 z m 10.445313,0 -9.667969,21.8398 18.769531,-21.8398 -9.101562,0 z"></path></g></svg>