<svg xmlns:dc="http://purl.org/dc/elements/1.1/" xmlns:cc="http://creativecommons.org/ns#" xmlns:rdf="http://www.w3.org/1999/02/22-rdf-syntax-ns#" xmlns:svg="http://www.w3.org/2000/svg" xmlns="http://www.w3.org/2000/svg" xmlns:sodipodi="http://sodipodi.sourceforge.net/DTD/sodipodi-0.dtd" xmlns:inkscape="http://www.inkscape.org/namespaces/inkscape" version="1.1" x="0px" y="0px" viewBox="0 0 100 100"><g transform="translate(0,-952.36218)"><path style="text-indent:0;text-transform:none;direction:ltr;block-progression:tb;baseline-shift:baseline;color:#000000;enable-background:accumulate;" d="m 49.8906,958.36345 c -0.3015,0.0143 -0.5788,0.10526 -0.8437,0.25 -0.2649,0.14474 -0.5126,0.34771 -0.6875,0.59375 l -29.8438,42 c -0.2383,0.3357 -0.375,0.7444 -0.375,1.1562 0,0.4119 0.1367,0.8206 0.375,1.1563 l 29.8438,42 c 0.184,0.2588 0.4365,0.4793 0.7188,0.625 0.2822,0.1456 0.5886,0.2187 0.9062,0.2187 0.3176,0 0.6553,-0.073 0.9375,-0.2187 0.2822,-0.1457 0.5348,-0.3662 0.7187,-0.625 l 29.8438,-42 c 0.2385,-0.3357 0.375,-0.7444 0.375,-1.1563 0,-0.4118 -0.1365,-0.8205 -0.375,-1.1562 l -29.8438,-42 c -0.1929,-0.27174 -0.4814,-0.51041 -0.7812,-0.65625 -0.2998,-0.14585 -0.6356,-0.20326 -0.9688,-0.1875 z m 0.094,8.65625 11.1875,33.3437 -22.375,0 11.1873,-33.3437 z m 5.9688,5.15625 20.0312,28.18745 -10.5938,0 -9.4374,-28.18745 z m -31.9376,32.18745 10.5626,0 9.4687,28.1875 -20.0313,-28.1875 z m 41.375,0 10.5938,0 -20.0312,28.1563 9.4374,-28.1563 z" fill="#000000" fill-opacity="1" fill-rule="evenodd" stroke="none" marker="none" visibility="visible" display="inline" overflow="visible"></path></g></svg>