<svg xmlns="http://www.w3.org/2000/svg" xmlns:xlink="http://www.w3.org/1999/xlink" version="1.1" x="0px" y="0px" viewBox="0 0 64 64" style="enable-background:new 0 0 64 64;" xml:space="preserve"><g><path d="M59,56H33c-1.657,0-3,1.343-3,3s1.343,3,3,3h26c1.657,0,3-1.343,3-3S60.657,56,59,56z"></path><path d="M26.729,30h-0.185C24.59,30,23,31.59,23,33.544c0,0.743,0.229,1.455,0.66,2.06L33,48.68V54h26V20.5   c0-1.379-1.121-2.5-2.5-2.5S54,19.121,54,20.5V30h-2V18.5c0-1.379-1.121-2.5-2.5-2.5S47,17.121,47,18.5V30h-2V16.5   c0-1.379-1.121-2.5-2.5-2.5S40,15.121,40,16.5V30h-2V18.5c0-1.379-1.121-2.5-2.5-2.5S33,17.121,33,18.5V36l-3.437-4.583   C28.897,30.53,27.837,30,26.729,30z M55,50h2v2h-2V50z M35,50h18v2H35V50z"></path><path d="M38,14.778V8.5C38,7.121,36.879,6,35.5,6S33,7.121,33,8.5v6.262C33.716,14.282,34.575,14,35.5,14   C36.428,14,37.283,14.295,38,14.778z"></path><path d="M12,42h13.771l-1.429-2H14v-2h8.914l-0.882-1.234C21.357,35.819,21,34.706,21,33.544C21,30.487,23.487,28,26.544,28h0.185   c1.646,0,3.225,0.747,4.271,2.01V18.5c0-0.171,0.032-0.334,0.051-0.5H31V6.5C31,5.121,29.879,4,28.5,4S26,5.121,26,6.5V18h-2V4.5   C24,3.121,22.879,2,21.5,2S19,3.121,19,4.5V18h-2V6.5C17,5.121,15.879,4,14.5,4S12,5.121,12,6.5V24l-3.437-4.583   C7.897,18.53,6.837,18,5.729,18H5.544C3.59,18,2,19.59,2,21.544c0,0.743,0.229,1.455,0.66,2.06L12,36.68V42z"></path><path d="M31,49.32L27.2,44H12c-1.657,0-3,1.343-3,3s1.343,3,3,3h19V49.32z"></path></g></svg>