<svg xmlns:dc="http://purl.org/dc/elements/1.1/" xmlns:cc="http://creativecommons.org/ns#" xmlns:rdf="http://www.w3.org/1999/02/22-rdf-syntax-ns#" xmlns:svg="http://www.w3.org/2000/svg" xmlns="http://www.w3.org/2000/svg" xmlns:sodipodi="http://sodipodi.sourceforge.net/DTD/sodipodi-0.dtd" xmlns:inkscape="http://www.inkscape.org/namespaces/inkscape" version="1.1" x="0px" y="0px" viewBox="0 0 100 100"><g transform="translate(0,-952.36218)"><path d="m 92.99999,1002.205 c 0,4.0806 -2.689802,7.5873 -6.376502,8.7268 -0.8355,2.7699 -2.9665,5.0352 -5.7826,5.976 -4.6785,1.5629 -9.8192,-1.0303 -11.3776,-5.7547 l 0,-0.032 c -0.6473,-1.9823 -0.5547,-4.0435 0.094,-5.8811 l -1.9379,0 -1.0941,1.6758 c -0.9769,1.4968 -3.3721,1.7424 -4.6261,0.4743 l -2.0629,-2.0869 c -0.4236,1.1692 -1.6199,2.0048 -2.8508,1.991 -1.231,-0.014 -2.4089,-0.8758 -2.8068,-2.0542 l -30.1945,-0.032 0,1.0434 c 1.6671,0 3.334,0 5.0011,0 0,3.4781 0,7.1192 0,10.1181 -1.7018,0 -3.5203,0 -5.0011,0 0,-1.0118 0,-2.0236 0,-3.0354 l -1.0003,0 c 0,1.0118 0,2.0236 0,3.0354 -2.0489,0 -4.2244,0 -6.0014,0 0,-1.0118 0,-2.0236 0,-3.0354 l -1.0002,0 c 0,1.0118 0,2.0236 0,3.0354 -1.7018,0 -3.5203,0 -5.0012,0 0,-3.478 0,-7.1191 0,-10.1181 1.6671,0 3.3341,0 5.0012,0 l 0,-1.0434 -5.9389,0 c -1.5853001,0.023 -3.0434001,-1.4316 -3.0434001,-3.0354 0,-1.6038 1.4581,-3.05809 3.0434001,-3.03549 l 44.135,0.031 c 0.3913,-1.1808 1.5647,-2.0498 2.7957,-2.0704 1.2311,-0.021 2.4321,0.8085 2.8619,1.9756 l 2.0629,-2.0552 c 1.254,-1.2681 3.6492,-1.0226 4.6261,0.4742 l 1.0941,1.6758 1.8442,0 c -0.5499,-1.756 -0.6106,-3.6949 0,-5.5649 l 0,-0.032 c 1.5584,-4.7244 6.6991,-7.3175 11.3776,-5.7547 2.7062,0.9041 4.7885,3.0204 5.6888,5.6598 3.9247,0.9128 6.479002,4.69 6.470302,8.72679 z m -6.001402,0 c 0,-1.6991 -1.2899,-3.01689 -2.9695,-3.03549 -0.7185,-0.022 -1.3312,-0.1897 -1.8444,-0.6639 -0.6906,-0.5281 -1.1364,-1.3708 -1.1878,-2.245 -0.072,-1.2516 -0.8548,-2.2944 -2.0317,-2.6876 -1.6075,-0.537 -3.2826,0.3028 -3.8135,1.9288 -0.5307,1.626 0.2994,3.2889 1.9068,3.8259 1.2872,0.3362 2.2649,1.62749 2.2505,2.97219 0.072,1.386 -0.9215,2.7534 -2.2505,3.0986 -1.6074,0.537 -2.4375,2.1999 -1.9068,3.8259 0.5309,1.626 2.206,2.4658 3.8135,1.9288 1.1334,-0.3787 1.8782,-1.3834 2.0005,-2.5611 0.015,-1.3397 0.5126,-2.1147 1.4065,-2.8774 0.5686,-0.387 1.1553,-0.4472 1.8121,-0.5057 1.6177,-0.018 2.7743,-1.2996 2.8143,-3.004 z m -60.014,12.1417 0,-6.0709 c -1.6671,0 -3.3341,0 -5.0012,0 0,-1.0223 0,-2.0447 0,-3.067 l -4.0009,0 c 0,1.0223 0,2.0447 0,3.067 -1.6671,0 -3.3341,0 -5.0012,0 l 0,6.0709 1.0002,0 c 0,-1.0118 0,-2.0236 0,-3.0355 1.8475,0 3.2686,0 5.0012,0 0,1.0119 0,2.0237 0,3.0355 l 2.0005,0 c 0,-1.0118 0,-2.0236 0,-3.0355 1.8474,0 3.2685,0 5.0011,0 0,1.0119 0,2.0237 0,3.0355 z" style="text-indent:0;text-transform:none;direction:ltr;block-progression:tb;baseline-shift:baseline;color:#000000;enable-background:accumulate;" fill="#000000" fill-opacity="1" fill-rule="nonzero" stroke="none" marker="none" visibility="visible" display="inline" overflow="visible"></path></g></svg>