<svg xmlns="http://www.w3.org/2000/svg" xmlns:xlink="http://www.w3.org/1999/xlink" version="1.1" x="0px" y="0px" viewBox="0 0 100 100" enable-background="new 0 0 100 100" xml:space="preserve"><circle cx="42.822" cy="13.388" r="8.389"></circle><path d="M30.923,25.795L19.421,53.456c-0.776,1.87,0.108,4.015,1.978,4.791c1.868,0.778,4.013-0.107,4.79-1.976l6.432-15.467  l-0.019,50.517c0,2.035,1.96,3.679,3.986,3.679h0.833c2.026,0,3.988-1.644,3.988-3.679V62.599c0-0.776,0.627-1.405,1.402-1.405  c0.773,0,1.4,0.629,1.4,1.405v28.723c0,2.035,1.96,3.679,3.988,3.679h0.828c2.032,0,3.992-1.644,3.992-3.679V38.063l3.756,6.146  c0.526,0.863,1.746,1.347,2.723,1.082l9.067-2.567v21.411h-8.175c0,0-2.346,20.294,10.148,20.294  c12.492,0,10.146-20.294,10.146-20.294H72.51V41.606l0.055-0.016c1.953-0.534,3.104-2.547,2.572-4.501  c-0.359-1.315-1.396-2.252-2.627-2.569V24.355c0-1.089-0.883-1.974-1.971-1.974c-1.089,0-1.974,0.885-1.974,1.974v10.758  l-7.451,2.139l-7.079-11.587c-0.529-0.862-1.776-1.563-2.788-1.563H33.459C32.449,24.103,31.313,24.86,30.923,25.795z"></path></svg>