<svg xmlns:dc="http://purl.org/dc/elements/1.1/" xmlns:cc="http://creativecommons.org/ns#" xmlns:rdf="http://www.w3.org/1999/02/22-rdf-syntax-ns#" xmlns:svg="http://www.w3.org/2000/svg" xmlns="http://www.w3.org/2000/svg" xmlns:sodipodi="http://sodipodi.sourceforge.net/DTD/sodipodi-0.dtd" xmlns:inkscape="http://www.inkscape.org/namespaces/inkscape" version="1.1" x="0px" y="0px" viewBox="0 0 100 100"><g transform="translate(0,-952.36218)"><path d="m 49.02185,981.36218 c 5.91469,0 9.95088,2.77872 13.15027,4.875 2.68127,1.7568 4.76013,2.98682 7.74648,3.125 0.64101,-1.56313 1.43116,-2.94931 2.5301,-3.90625 1.62936,-1.41883 3.77408,-2.04111 5.71615,-1.6875 1.94207,0.35361 3.67031,1.6572 4.56043,3.46875 0.59454,1.20999 0.67214,2.62112 0.49977,4.0625 2.12247,2.0829 4.12899,4.21053 6.40334,6.09375 0.0101,8.6e-4 0.0212,-9e-4 0.0312,0 0.23132,0.14668 0.41018,0.0609 0,0 1.72526,0.15412 3.21965,0.92004 4.56042,2.09375 1.50548,1.31792 2.77999,3.37502 2.77999,5.87502 0,1.9167 -1.35999,3.6016 -2.62381,4.3437 -1.26381,0.7422 -2.55334,1.03 -3.87324,1.25 -2.4418,0.4072 -4.97253,0.3759 -6.93434,0.375 -2.87096,0.9408 -5.78528,1.9205 -8.55861,2.875 1.42076,0.5371 2.87298,1.3817 3.68582,2.3438 0.90371,1.0978 1.3119,2.5625 1.3119,3.8125 -1.6e-4,1.5707 -1.4286,2.9998 -2.99863,3 l -33.98455,0 c -4.49796,0 -8.51758,-2.7715 -11.86961,-6.125 -2.57817,-2.5794 -4.79084,-5.5604 -5.68491,-8.8438 -1.37812,0.037 -3.07291,-0.2347 -3.09235,0.2188 0.0412,0.9262 2.88626,2.4371 3.99818,3.7187 0.80714,0.9421 1.6555,2.2813 1.6555,4.0313 0,1.375 -0.65251,2.7967 -1.53055,3.6875 -2.56182,2.299 -6.39483,2.5929 -9.37074,2.6875 -4.54859,0.1338 -9.5893902,-0.375 -11.0887101,-0.375 -1.5842201,0.022 -3.0413501,-1.4149 -3.0413501,-3 0,-1.5851 1.45713,-3.0224 3.0413501,-3 2.4988599,0 6.9537401,0.4911 10.9012901,0.375 1.55586,-0.165 4.40425,0.1226 4.71656,-0.6562 0.002,-0.9223 -2.88502,-2.4102 -3.96695,-3.6563 -0.80713,-0.9421 -1.6555,-2.3125 -1.6555,-4.0625 0,-1.25 0.37087,-2.6556 1.24944,-3.6875 2.13787,-2.1572 5.37173,-2.2979 7.93389,-2.3125 1.55212,-12.94673 13.0177,-20.99997 23.80168,-20.99997 z m 0,6 c -8.39618,0 -17.99182,6.69231 -17.99182,18.00002 0,1.5 1.72776,4.9785 4.37301,7.625 2.64525,2.6464 6.12222,4.375 7.62154,4.375 l 18.74148,0 c -1.16084,-1.3184 -0.79133,-3.665 0.71842,-4.5625 6.39792,-3.1931 13.0894,-5.1525 19.58485,-7.2813 0.30144,-0.1013 0.61908,-0.1543 0.93707,-0.1562 2.63108,-0.127 7.00391,0.1247 7.65277,-0.6563 -0.24999,-0.8288 -0.83019,-1.0294 -1.6555,-1.3437 -1.7492,0 -2.19832,-0.6081 -2.87369,-1.0938 -3.01638,-2.38341 -5.92224,-5.45606 -8.24625,-7.78122 -0.81341,-0.8113 -1.09402,-2.11289 -0.68719,-3.1875 0.43305,-0.70339 0.16206,-1.37151 -0.0937,-1.625 -0.93187,-0.13398 -1.92066,2.3309 -2.15527,3.34375 -0.26763,1.22454 -1.37744,2.21589 -2.6238,2.34375 -5.91312,0.59158 -10.14433,-1.94003 -13.4314,-4.09375 -3.28706,-2.15372 -5.74741,-3.90625 -9.87051,-3.90625 z m 29.67401,9.40625 c 1.10407,0 1.99909,0.89543 1.99909,2 0,1.10457 -0.89502,1.99997 -1.99909,1.99997 -1.10407,0 -1.99909,-0.8954 -1.99909,-1.99997 0,-1.10457 0.89502,-2 1.99909,-2 z" style="text-indent:0;text-transform:none;direction:ltr;block-progression:tb;baseline-shift:baseline;color:#000000;enable-background:accumulate;" fill="#000000" fill-opacity="1" stroke="none" marker="none" visibility="visible" display="inline" overflow="visible"></path></g></svg>