<svg xmlns="http://www.w3.org/2000/svg" xmlns:xlink="http://www.w3.org/1999/xlink" version="1.1" x="0px" y="0px" viewBox="0 0 100 100" enable-background="new 0 0 100 100" xml:space="preserve"><g><path d="M58.258,12.048c0,0-3.408,9.244-3.408,11.073c0,1.833,1.946,4.006,1.946,6.064c0,2.061-8.309,12.869-8.309,12.869   s-0.688,1.192-0.346,2.221c0.134,0.406,0.722,0.978,1.445,1.23c1.662,0.577,3.949,1.42,3.949,1.42s0.653,0.154,0.53,1.011   c-0.094,0.675-0.577,1.118-0.577,1.118l-2.594,2.739c0,0-0.108,0.131-0.209,0.312c-3.339-1.234-5.729-3.716-8.377-6.487   c-4.484-4.695-9.573-10.031-20.505-9.487c-5.779,0.279-11.094,2.882-14.965,7.329c-3.972,4.564-5.94,10.611-5.398,16.594   C2.469,71.45,12.22,80.038,23.644,80.038c0.679,0,1.367-0.03,2.057-0.092c11.896-1.077,15.578-7.054,18.826-12.327   c1.977-3.21,3.765-6.068,7.179-7.817c0.254,0.505,0.683,0.807,0.683,0.807l4.567,1.585c0,0-1.975,6.91-0.229,8.928   c4.348,5.032,19.452-0.686,19.452-0.686s3.504-0.236,5.035,0.686c4.578,2.746,18.568,17.986,18.568,17.986l0.099-77.06H58.258z    M42.02,66.074c-3.167,5.142-6.156,9.995-16.583,10.939C14.75,77.967,5.315,70.245,4.371,59.789   C3.902,54.602,5.61,49.354,9.059,45.393c3.339-3.836,7.915-6.083,12.886-6.322c0.468-0.022,0.923-0.033,1.366-0.033   c8.639,0,12.644,4.189,16.87,8.612c3.593,3.761,7.306,7.644,13.809,8.164C47.297,57.508,44.616,61.861,42.02,66.074z    M73.464,60.622c-7.566,0-13.722-5.543-13.722-12.359c0-4.134,2.277-7.973,6.093-10.274c0.479-0.281,1.091-0.132,1.376,0.343   c0.287,0.473,0.134,1.09-0.341,1.377c-3.207,1.933-5.121,5.132-5.121,8.554c0,5.708,5.255,10.352,11.715,10.352   c0.556,0,1.003,0.45,1.003,1.003C74.467,60.172,74.02,60.622,73.464,60.622z"></path></g></svg>