<svg xmlns="http://www.w3.org/2000/svg" xmlns:xlink="http://www.w3.org/1999/xlink" version="1.1" x="0px" y="0px" viewBox="0 0 100 100" enable-background="new 0 0 100 100" xml:space="preserve"><path d="M34.576,14.625c1.345-0.19,4.545,0.51,4.098,2.686c-0.705,3.228-1.779,2.264-3.104,6.521  c-0.099,0.889-0.146,1.782-0.127,2.688c0.03,1.771,0.318,3.539,0.698,5.302c0.375,1.764,0.824,3.535,1.074,5.344  c0.192,1.339,0.268,2.692,0.216,4.038c0.031-0.117,0.059-0.235,0.089-0.353c0.665-2.576,1.371-5.132,2.317-7.643  c1.884-4.991,5.027-9.648,9.444-12.829c3.716-2.747,8.182-4.267,12.685-5.012c-0.935-2.819-3.429-4.097-4.76-3.932  c-0.046-0.756,0.764-1.87,1.293-2.925c-0.009,0-0.018,0-0.025-0.002c-0.452-0.06-0.866-0.164-1.276-0.286  c-0.805-0.255-1.608-0.531-2.306-0.989c0.782,0.248,1.61,0.292,2.412,0.32c0.401,0.006,0.803-0.008,1.171-0.063  c0.164-0.024,0.322-0.063,0.435-0.112c0.104-0.628-0.094-1.165-0.934-1.486c-1.843-0.702-4.813-0.038-4.813,3.668l-2.358,0.337  C50.521,8.295,53.33,5.049,49.165,5c-2.526-0.03-3.633,3.045-3.584,4.898c0.072,2.71-1.011,3.37-2.695,3.032  c-0.556-1.849-2.67-3.252-5.608-3.518c-0.012,0.504-0.189,0.92-0.323,1.331c-0.245,0.6-0.559,1.151-0.914,1.67  c-0.361,0.51-0.759,1.014-1.271,1.365c0.437-0.437,0.723-0.984,0.976-1.532c0.245-0.553,0.443-1.127,0.561-1.702  c0.085-0.375,0.117-0.818,0.069-1.131C32.704,9.798,32.437,14.927,34.576,14.625z M58.886,7.486  c0.007-0.032,0.015-0.064,0.021-0.096c-0.001,0.001-0.001,0.001-0.002,0.002c-0.019,0.022-0.035,0.057-0.045,0.091L58.886,7.486z   M78.096,51.847c-2.393-15.544-13.067-19.271-18.447-19.692c-2.881,0.966-5.063,3.845-5.223,6.874c-0.033,1.521,0.742,3,1.753,4.25  c1.021,1.261,2.271,2.359,3.573,3.381c0.758,0.591,1.539,1.153,2.33,1.704c0.371-0.466,0.7-0.992,0.949-1.563  c-0.081,0.628-0.253,1.253-0.505,1.866c1.806,1.24,3.664,2.419,5.495,3.638c0.152,0.101,0.301,0.209,0.453,0.312  c0.077-0.094,0.143-0.208,0.193-0.352c0.242-0.585,0.342-1.308,0.539-1.998c0.186-0.695,0.418-1.405,0.832-2.008  c-0.152,0.709-0.241,1.4-0.319,2.104c-0.081,0.706-0.142,1.419-0.428,2.165c-0.063,0.15-0.157,0.312-0.274,0.46  c1.052,0.718,2.095,1.455,3.069,2.279c0.638,0.545,1.255,1.123,1.771,1.791c0.507,0.658,0.938,1.442,0.932,2.292  c-0.022-0.849-0.475-1.606-0.998-2.239c-0.531-0.642-1.162-1.192-1.813-1.712c-1.01-0.795-2.085-1.502-3.173-2.191  c-0.122,0.106-0.256,0.199-0.419,0.252c-0.454,0.138-0.877,0.052-1.231-0.083c-0.714-0.271-1.313-0.694-1.849-1.182  c0.682,0.25,1.336,0.543,1.99,0.682c0.369,0.078,0.67,0.065,0.907-0.05c-0.123-0.077-0.243-0.159-0.367-0.234  c-1.837-1.135-3.702-2.233-5.533-3.398c-0.196,0.354-0.442,0.706-0.813,0.993c-0.194,0.15-0.421,0.283-0.677,0.366  c-0.075,0.03-0.171,0.051-0.269,0.068c0.23,1.064,0.392,2.146,0.444,3.243c0.047,0.81,0.021,1.62-0.037,2.433l0.006-0.002  c0.401,1.028,1.475,1.964,2.441,2.886c0.996,0.928,2.027,1.865,2.954,2.92c0.925,1.051,1.756,2.231,2.287,3.566  c0.397,0.993,0.603,2.068,0.603,3.135c0.385,0.769,0.784,1.512,1.249,2.223c0.649,1.022,1.386,1.975,2.146,2.985  c-0.563-0.299-1.057-0.704-1.512-1.144c-0.461-0.438-0.853-0.943-1.204-1.475c-0.298-0.472-0.55-0.981-0.75-1.511  c-0.193,1.422-0.691,2.688-1.029,4.01c-0.342,1.212-0.672,2.425-0.973,3.645c0.028,1.211,0.218,2.371,0.727,3.405  c0.588,1.266,1.613,2.268,2.799,3.168c-0.718-0.212-1.391-0.579-1.984-1.065c-0.602-0.478-1.084-1.111-1.427-1.81  c-0.306-0.641-0.458-1.338-0.499-2.035c-0.453,2.218-0.643,4.505-0.025,6.72c-0.852-2.634-0.542-5.479,0.009-8.143  c0.268-1.346,0.582-2.679,0.901-4.009c0.286-1.335,0.736-2.66,0.851-3.96c0.113-1.313-0.114-2.629-0.648-3.817  c-0.533-1.191-1.342-2.251-2.263-3.208c-0.449-0.469-0.926-0.914-1.416-1.351c0.012,0.098,0.029,0.199,0.038,0.296  c0.07,0.81,0.027,1.604-0.078,2.387c-0.216,1.559-0.665,3.076-1.357,4.479c-0.325,0.696-0.751,1.325-1.225,1.913  c-0.134,1.217-0.227,2.388-0.138,3.559c0.077,1.293,0.381,2.539,0.824,3.826c-0.91-1.02-1.403-2.403-1.5-3.781  c-0.065-1.118,0.113-2.244,0.53-3.268c-0.425,0.496-0.874,0.971-1.329,1.424c-1.1,1.077-2.275,2.078-3.563,2.912  c1.24-0.901,2.355-1.958,3.387-3.083c1.023-1.136,2.003-2.311,2.562-3.711c0.587-1.381,0.936-2.867,1.056-4.351  c0.087-1.344,0.021-2.839-0.642-3.844c-0.05-0.041-0.098-0.083-0.146-0.126c-0.624-0.566-1.301-1.115-1.905-1.791  c-0.169,0.972-0.391,1.935-0.7,2.868c-0.794,2.339-2.005,4.498-3.384,6.472l-2.089,2.918c-0.706,0.956-1.345,1.947-1.793,3.065  c0.409-2.416,1.847-4.494,2.986-6.547c1.178-2.06,2.271-4.134,2.994-6.34c0.754-2.192,1.137-4.495,1.214-6.831  c0.058-2.182-0.146-4.389-0.492-6.603c-0.034-0.024-0.068-0.046-0.104-0.071c-1.36-0.996-2.683-2.075-3.816-3.379  c-1.113-1.289-2.088-2.917-2.121-4.792c0.051-2.814,1.556-5.461,3.818-7.081c2.594-2.397,8.575-1.331,8.575-1.331  s3.564-0.678,4.13-7.447c0.239-2.873-0.68-4.631-2.084-5.626c-0.635,0.337-1.188,0.864-1.653,1.483  c-0.62,0.835-1.07,1.823-1.349,2.863c-0.563,2.086-0.415,4.381,0.338,6.479c-0.961-2.009-1.373-4.338-1.002-6.619  c0.186-1.138,0.557-2.262,1.166-3.287c0.334-0.559,0.769-1.098,1.286-1.557c-0.936-0.35-1.971-0.479-2.987-0.434  c-4.908,0.528-9.734,1.897-13.764,4.74c-4.293,2.958-7.44,7.387-9.392,12.249c-0.973,2.433-1.744,4.98-2.458,7.521  c-0.725,2.542-1.304,5.146-2.304,7.631c-0.975,2.5-2.646,4.7-4.695,6.395c-0.105,0.089-0.22,0.168-0.328,0.256  c-0.316,0.737-0.56,1.428-0.656,2.145c-0.123,0.762-0.056,1.522,0.058,2.392c-0.601-0.642-0.857-1.593-0.729-2.488  c0.091-0.568,0.333-1.106,0.683-1.548c-1.787,1.362-3.72,2.518-5.688,3.583c2.301-1.311,4.56-2.727,6.547-4.473  c1.998-1.729,3.581-3.916,4.484-6.391c0.845-2.237,1.355-4.592,1.945-6.931c-0.012-1.459-0.167-2.912-0.463-4.333  c-0.358-1.767-0.91-3.486-1.4-5.24c-0.492-1.75-0.905-3.557-1.054-5.411c-0.138-1.611-0.06-3.27,0.15-4.87  c-0.204-0.386-0.424-0.733-0.658-1.036c-0.517,0.958-1.368,1.465-2.188,1.844c-1.687,0.729-3.468,0.929-5.217,1.001  c1.721-0.292,3.455-0.735,4.903-1.603c0.706-0.429,1.353-1.014,1.576-1.661c0.053-0.168,0.073-0.324,0.063-0.47  c-3.631-2.956-9.144,1.181-7.355,4.361c1.924,3.421,1.854,9.85-1.349,14.567s-8.928,12.129,0,29.819  c8.928,17.688,32.684,24.765,42.623,26.112c9.938,1.347,13.141-1.18,13.309-5.56C80.454,84.698,80.943,70.355,78.096,51.847z   M60.558,49.394c0.13,0.003,0.266-0.026,0.408-0.078c0.253-0.091,0.505-0.28,0.739-0.502c-0.719-0.466-1.427-0.947-2.125-1.447  c0.242,0.646,0.455,1.304,0.643,1.972C60.388,49.375,60.417,49.389,60.558,49.394z"></path></svg>