<svg xmlns="http://www.w3.org/2000/svg" xmlns:xlink="http://www.w3.org/1999/xlink" version="1.1" x="0px" y="0px" viewBox="0 0 30 30" xml:space="preserve"><g transform="translate(-510 -80)"><g xmlns="http://www.w3.org/2000/svg" xmlns:xlink="http://www.w3.org/1999/xlink"><path d="M527.982,89.354c-0.074,0.165-0.144,0.412-0.035,0.797c0.961,0.167,2.816,0.686,4.514,2.23    c-0.129-2.152-1.422-3.488-2.805-4.306C529.023,88.336,528.244,88.77,527.982,89.354z"></path><path d="M518.168,87.703c0.012-0.07,0.035-0.137,0.049-0.205c-0.625,0.451-1.176,1.219-1.371,2.529    c-0.549,3.647-3.834,2.084-1.643,6.773c0.375,0.807,0.752,1.434,1.125,1.933c0.078-1.304,0.6-3.356,2.715-5.296    C518.44,91.725,517.893,89.539,518.168,87.703z"></path><path d="M519.414,86.969c-0.117,0.291-0.213,0.586-0.256,0.883c-0.229,1.523,0.193,3.367,0.707,4.901    c0.315-0.237,0.658-0.472,1.029-0.7c0.311-0.193,0.633-0.383,0.988-0.568c-0.57-5.547,5.275-8.633,5.275-8.633l-1-2    c0,0-1.174,0.611-2.56,1.592l-1.74-1.916l-0.74,0.674l1.674,1.84c-0.26,0.201-0.518,0.416-0.773,0.637l-1.672-1.889l-0.74,0.673    l1.678,1.895c-0.24,0.237-0.471,0.481-0.685,0.732l-1.699-1.87l-0.74,0.673l1.82,2.005    C519.746,86.246,519.559,86.605,519.414,86.969z"></path><path d="M532.393,93.745c-2.26-2.536-5.145-2.677-5.145-2.677c-0.947-1.801,0.164-2.924,1.275-3.555    c0.816-0.463,1.635-0.662,1.635-0.662v-2c-2.703,0-4.402,0.822-5.473,1.928c-0.496,0.512-0.857,1.086-1.121,1.666    c-0.66,1.463-0.697,2.973-0.697,3.666c-0.738,0.352-1.367,0.725-1.924,1.105c-0.258,0.178-0.494,0.356-0.717,0.537    c-0.291,0.236-0.559,0.474-0.795,0.713c-2.352,2.375-2.148,4.787-2.063,5.335c0.012,0.075,0.023,0.126,0.023,0.126    c1.096,6.775,6.023,7.296,9.855,7.816c3.834,0.521,5.344,0.256,6.91-0.893c1.766-1.295,1.852-4.318,0.209-9.529    C533.881,95.779,533.174,94.621,532.393,93.745z"></path></g></g></svg>