<svg xmlns="http://www.w3.org/2000/svg" xmlns:xlink="http://www.w3.org/1999/xlink" xml:space="preserve" version="1.1" style="shape-rendering:geometricPrecision;text-rendering:geometricPrecision;image-rendering:optimizeQuality;" viewBox="0 0 847 847" x="0px" y="0px" fill-rule="evenodd" clip-rule="evenodd"><defs><style type="text/css">
   
    .fil0 {fill:black}
   
  </style></defs><g><path class="fil0" d="M149 556l85 50c36,7 155,-22 137,73 -47,256 257,127 208,-32 -15,-46 -44,-79 40,-134l79 -51 0 -99 -51 -31 0 -27 54 -30 -1 -102 -51 -32 0 -65 -87 -52 -91 53 0 63 -19 11 -19 -11 0 -65 -90 -52 -90 52 1 67 -54 31 1 57 -55 33 0 108 56 31 0 22 -54 31 1 101zm275 56c-1,69 69,144 20,163 -13,5 -54,-50 -20,-163zm137 -344l44 25 0 51 -44 25 -44 -25 0 -51c15,-8 29,-17 44,-25zm-273 195l-43 -25 0 -51c14,-8 29,-16 43,-25l44 25 0 51 -44 25zm66 -76l43 -25 44 25 0 51 -44 25c-14,-8 -29,-17 -43,-25l0 -51zm54 -43l0 -51 44 -25 44 25 0 50 -44 26 -44 -25zm-54 -95l0 -50 44 -26 43 26 0 50 -43 25c-15,-8 -29,-16 -44,-25zm-131 0l-54 31 0 76 54 31 0 51 -55 31 0 76c22,12 44,25 66,37l54 -31 55 32 65 -38 0 -63 44 -25 54 31 55 -31 54 31 66 -38 0 -75 -55 -31 0 -51 55 -31 0 -76 -54 -31 0 -63 -66 -38c-22,13 -43,25 -65,38l0 63 -44 25 -43 -25 0 -63 -66 -38c-22,13 -43,25 -65,38l0 63 -55 31 0 63zm11 120l-44 -26 0 -50 44 -25 44 25 0 50 -44 26zm43 113l0 50 -43 25c-15,-8 -29,-16 -44,-25l0 -50 44 -25c14,8 29,16 43,25zm22 0l44 -25 43 25 0 50 -43 26c-15,-9 -29,-17 -44,-26l0 -50zm-10 -208l-44 -25 0 -50 44 -26 43 26 0 50c-14,9 -29,17 -43,25zm10 19l44 -25 44 25 0 50 -44 26c-15,-9 -29,-17 -44,-26l0 -50zm88 -138l-44 25 -43 -25 0 -51c14,-8 29,-17 43,-25l44 25 0 51zm120 119l-44 -25 0 -50c15,-9 29,-17 44,-26l43 26 0 50c-14,9 -29,17 -43,25zm-1 88l44 25 0 51 -44 25c-14,-8 -29,-17 -43,-25l0 -51c14,-8 29,-16 43,-25zm66 26l43 -26 44 25 0 51 -44 25c-14,-8 -29,-17 -43,-25l0 -50zm33 -233l-44 25 -43 -25 0 -51c14,-8 29,-17 43,-25l44 25 0 51zm-33 44l44 -26 43 26 0 50 -43 25c-15,-8 -29,-16 -44,-25l0 -50z"></path></g></svg>