<svg xmlns="http://www.w3.org/2000/svg" xmlns:xlink="http://www.w3.org/1999/xlink" version="1.1" x="0px" y="0px" viewBox="0 0 100 100" enable-background="new 0 0 100 100" xml:space="preserve"><path d="M54,79c1.65,0,3.205,1.334,3.456,2.965l1.088,7.07C58.795,90.666,57.65,92,56,92H44  c-1.65,0-2.795-1.334-2.544-2.965l1.088-7.07C42.795,80.334,44.35,79,46,79H54"></path><path d="M76.292,17H88V7H65c-2.028,0-3.855,1.225-4.626,3.102c-0.77,1.876-0.33,4.032,1.113,5.457  C70.147,24.106,79,35.121,79,52c0,6.76-5.24,23.814-21.292,28.039c0.368,0.532,0.638,1.13,0.736,1.773l1.088,7.07  c0.053,0.341,0.045,0.672,0.011,0.997c10.244-2.482,16.898-8.698,20.91-14.121C86.762,67.232,89,57.631,89,52  C89,36.893,83.158,25.639,76.292,17z M83.542,43.25c1.013,0,1.833,0.821,1.833,1.833s-0.82,1.833-1.833,1.833  s-1.833-0.821-1.833-1.833S82.529,43.25,83.542,43.25z M80.552,32.441c0.828,0,1.499,0.671,1.499,1.5s-0.671,1.5-1.499,1.5  s-1.499-0.671-1.499-1.5S79.724,32.441,80.552,32.441z M68,83.875c-1.657,0-3-1.343-3-3s1.343-3,3-3s3,1.343,3,3  S69.657,83.875,68,83.875z M78.25,72.458c-1.357,0-2.458-1.101-2.458-2.458s1.101-2.458,2.458-2.458s2.458,1.101,2.458,2.458  S79.607,72.458,78.25,72.458z M83.084,60.593c-1.15,0-2.083-0.933-2.083-2.083s0.933-2.083,2.083-2.083s2.083,0.933,2.083,2.083  S84.234,60.593,83.084,60.593z"></path><path d="M27.584,69.735C23.061,63.594,21,56.237,21,52c0-16.636,8.428-27.357,17.536-36.464  c1.43-1.43,1.857-3.581,1.084-5.449C38.846,8.218,37.022,7,35,7H12v10h11.739C16.68,25.85,11,36.936,11,52  c0,11.908,8.773,32.864,29.459,37.893c-0.036-0.329-0.044-0.664,0.009-1.01l1.088-7.07c0.1-0.647,0.371-1.248,0.743-1.782  C36.422,78.473,31.489,75.035,27.584,69.735z M19.448,32.441c0.828,0,1.499,0.671,1.499,1.5s-0.671,1.5-1.499,1.5  s-1.499-0.671-1.499-1.5S18.62,32.441,19.448,32.441z M16.458,43.25c1.013,0,1.833,0.821,1.833,1.833s-0.82,1.833-1.833,1.833  s-1.833-0.821-1.833-1.833S15.445,43.25,16.458,43.25z M16.916,60.593c-1.15,0-2.083-0.933-2.083-2.083s0.933-2.083,2.083-2.083  s2.083,0.933,2.083,2.083S18.066,60.593,16.916,60.593z M21.75,72.458c-1.357,0-2.458-1.101-2.458-2.458s1.101-2.458,2.458-2.458  s2.458,1.101,2.458,2.458S23.107,72.458,21.75,72.458z M32,83.875c-1.657,0-3-1.343-3-3s1.343-3,3-3s3,1.343,3,3  S33.657,83.875,32,83.875z"></path></svg>