<svg xmlns="http://www.w3.org/2000/svg" xmlns:xlink="http://www.w3.org/1999/xlink" xmlns:sketch="http://www.bohemiancoding.com/sketch/ns" viewBox="0 0 60 60" version="1.1" x="0px" y="0px"><title>44 - Lucky Horseshoe (Solid)</title><desc>Created with Sketch.</desc><g stroke="none" stroke-width="1" fill="none" fill-rule="evenodd" sketch:type="MSPage"><g sketch:type="MSLayerGroup" fill="#000000"><path d="M17.405,3.308 L18.445,7.811 C21.708,6.333 25.518,5.585 29.795,5.585 L30.207,5.585 C34.467,5.585 38.277,6.334 41.556,7.815 L42.604,3.269 L42.799,2.102 C38.473,0.482 34.011,0 30.26,0 L29.741,0 C24.702,0 20.564,0.821 17.172,2.105 L17.405,3.308" sketch:type="MSShapeGroup"></path><path d="M57.754,48.636 C58.486,45.602 59.048,42.598 59.424,39.697 C61.027,27.348 59.281,17.578 54.234,10.659 C51.548,6.977 48.208,4.523 44.692,2.899 L44.565,3.659 L42.93,10.753 L41.783,10.149 C38.545,8.448 34.65,7.585 30.207,7.585 L29.795,7.585 C25.331,7.585 21.437,8.447 18.222,10.147 L17.072,10.756 L15.449,3.723 L15.29,2.904 C10.741,5.024 7.72,7.981 5.767,10.659 C0.721,17.578 -1.026,27.348 0.577,39.697 C0.954,42.598 1.515,45.602 2.248,48.637 L0.57,50.055 C0.151,50.408 -0.034,50.979 0.098,51.514 L2.221,60 L10.232,60 C10.299,60 10.362,59.994 10.406,59.987 C11.313,60.04 12.231,59.917 13.099,59.623 C14.895,59.017 16.334,57.757 17.151,56.076 C17.951,54.433 18.055,52.58 17.447,50.86 C15.437,45.174 11.076,27.053 17.193,18.665 C19.596,15.37 23.701,13.768 29.741,13.768 L30.26,13.768 C36.294,13.768 40.395,15.366 42.801,18.654 C48.93,27.038 44.699,44.748 42.552,50.863 C41.945,52.584 42.052,54.437 42.851,56.079 C43.669,57.759 45.108,59.018 46.903,59.623 C47.643,59.873 48.413,60 49.189,60 L57.781,60 L59.904,51.512 C60.037,50.973 59.857,50.416 59.433,50.056 L57.754,48.636 L57.754,48.636 Z M10.614,14.128 C10.938,13.682 11.564,13.583 12.011,13.909 C12.457,14.234 12.555,14.859 12.229,15.306 C9.51,19.033 8.09,23.981 8.005,30.013 C7.997,30.56 7.551,30.999 7.005,30.999 L6.991,30.999 C6.438,30.991 5.997,30.537 6.005,29.985 C6.096,23.531 7.646,18.196 10.614,14.128 L10.614,14.128 Z M4.001,36.5 C4.001,34.57 5.571,33 7.501,33 C9.43,33 11.001,34.57 11.001,36.5 C11.001,38.43 9.43,40 7.501,40 C5.571,40 4.001,38.43 4.001,36.5 L4.001,36.5 Z M9.501,51 C7.571,51 6.001,49.43 6.001,47.5 C6.001,45.57 7.571,44 9.501,44 C11.43,44 13.001,45.57 13.001,47.5 C13.001,49.43 11.43,51 9.501,51 L9.501,51 Z M47.991,13.909 C48.437,13.583 49.063,13.682 49.388,14.128 C52.356,18.199 53.907,23.534 53.997,29.986 C54.005,30.538 53.563,30.992 53.01,31 L52.997,31 C52.451,31 52.005,30.561 51.997,30.014 C51.913,23.984 50.492,19.036 47.772,15.306 C47.446,14.859 47.545,14.234 47.991,13.909 L47.991,13.909 Z M50.501,51 C48.571,51 47.001,49.43 47.001,47.5 C47.001,45.57 48.571,44 50.501,44 C52.43,44 54.001,45.57 54.001,47.5 C54.001,49.43 52.43,51 50.501,51 L50.501,51 Z M52.501,40 C50.571,40 49.001,38.43 49.001,36.5 C49.001,34.57 50.571,33 52.501,33 C54.43,33 56.001,34.57 56.001,36.5 C56.001,38.43 54.43,40 52.501,40 L52.501,40 Z" sketch:type="MSShapeGroup"></path></g></g></svg>