<svg xmlns="http://www.w3.org/2000/svg" xmlns:xlink="http://www.w3.org/1999/xlink" version="1.1" x="0px" y="0px" viewBox="0 0 52 52" style="enable-background:new 0 0 52 52;" xml:space="preserve"><style type="text/css">
	.st0{fill:none;}
</style><g><path d="M10.7196293,23.9985104h30.5399761l8.4700317-9.3200073c0.2699585-0.2999878,0.3299561-0.7199707,0.1699829-1.0800171   c-0.1600342-0.3599854-0.5100098-0.5999756-0.9100342-0.5999756H32.8692856   c-0.0001221-0.0797729,0.0092773-0.1586914-0.0109253-0.239563c-0.2363281-0.9453125-0.7568359-3.9482422-0.0756836-5.3105474   c1.1010742-2.2021484-0.9526348-4.3544922-2.3398418-5.2792969c-0.4609375-0.3056641-1.0805664-0.1816406-1.3867188,0.2773438   c-0.3061523,0.4599609-0.1821289,1.0800781,0.2773438,1.3867188c0.4785156,0.3193357,2.1625977,1.7158201,1.6601563,2.7207029   c-1.0188599,2.0376592-0.3577881,5.4524541-0.1332397,6.4446416h-2.9910889   c-0.0001221-0.0797729,0.0092773-0.1586914-0.0109253-0.239563c-0.2363281-0.9453125-0.7568359-3.9482422-0.0756836-5.3105474   c1.1010742-2.2021484-0.9526367-4.3544922-2.3398438-5.2792969c-0.4604492-0.3056641-1.0805664-0.1816406-1.3867188,0.2773438   c-0.3061523,0.4599609-0.1821289,1.0800781,0.2773438,1.3867188c0.4785156,0.3193357,2.1625977,1.7158201,1.6601563,2.7207029   c-1.0188599,2.0376592-0.3577881,5.4524541-0.1332397,6.4446416h-2.9910889   c-0.0001221-0.0797729,0.0092773-0.1586914-0.0109253-0.239563c-0.2363281-0.9453125-0.7568359-3.9482422-0.0756836-5.3105474   c1.1010742-2.2021484-0.9526367-4.3544922-2.3398438-5.2792969c-0.4604492-0.3056641-1.0800781-0.1816406-1.3867188,0.2773438   c-0.3061523,0.4599609-0.1821289,1.0800781,0.2773438,1.3867188c0.4785156,0.3193357,2.1625977,1.7158201,1.6601563,2.7207029   c-1.0188599,2.0376592-0.3577881,5.4524541-0.1332397,6.4446416H2.9895875c-0.3999634,0-0.75,0.2399902-0.9099731,0.5999756   c-0.159973,0.3600464-0.0999755,0.7800293,0.1699829,1.0800171L10.7196293,23.9985104z"></path><path d="M49.8396225,48.4485207l-9.3500366-22.4500103H11.4995975L2.0696046,48.6185036   c-0.1300048,0.3099976-0.0999755,0.6599731,0.0900269,0.9400024c0.1799927,0.2799683,0.5,0.4400024,0.8299561,0.4400024h17.8200073   c-0.4099731-0.4100342-0.7699585-0.8599854-1.0499878-1.3599854c-1.039978-1.8400269-1.0100098-4.0100098,0.0700073-5.8200073   c1.8800049-3.1799927,2.4199829-7.4400024,2.4799805-8.0100098l0.0100098-0.1300049   c0.1500244-1.2999878,1.1000366-2.3400269,2.3699951-2.6099854c0.1699829-0.0400391,0.4000244-0.0700054,0.6300049-0.0700054   c1.0599976,0,2.0499878,0.5800152,2.5900269,1.5100079l4.039978,7.0499878   c1.8300152,3.1900024,1.2399883,6.9799805-1.4000244,9.4400024h18.4400005c0.0100098,0,0.0100098,0,0.0200195,0   c0.5499878,0,1-0.4400024,1-1C50.0096054,48.7984962,49.9496078,48.6084938,49.8396225,48.4485207z"></path></g></svg>