<svg xmlns="http://www.w3.org/2000/svg" xmlns:xlink="http://www.w3.org/1999/xlink" version="1.1" x="0px" y="0px" viewBox="0 0 100 100" enable-background="new 0 0 100 100" xml:space="preserve"><g><g><path d="M81.36,57.024c-0.04,0.01-0.091,0.02-0.13,0.02l0.01,0.02l0.319-0.06C81.51,57.015,81.44,57.024,81.36,57.024z"></path><path d="M87.24,56.194c0.01,0.3-0.19,0.66-0.38,0.79c-0.71,0.51-6.36,5.84-8.591,9.1c-1.409,2.04-3.739,7.03-5.609,11.04    c-1.04,2.23-1.94,4.15-2.4,4.96c-1.7,3-3.569,5.01-5.55,5.97l-0.47,0.2c-0.3,0.12-0.61,0.21-0.95,0.29    c-3.54,0.79-8.01,1.27-9.65,1.27H46.36c-1.641,0-6.11-0.48-9.65-1.27c-0.34-0.08-0.65-0.17-0.95-0.29l-0.41-0.18    c-1.989-0.93-3.89-2.95-5.609-5.99c-0.46-0.81-1.36-2.73-2.4-4.96c-1.87-4.01-4.2-9-5.609-11.04c-2.23-3.26-7.881-8.59-8.601-9.1    c-0.18-0.13-0.38-0.49-0.37-0.79c0.01-0.08,0.03-0.13,0.04-0.16l0.021-0.02l0.02-0.01c0.03-0.02,0.25-0.07,0.59,0l0.4,0.09    c0.87,0.19,2.1,0.46,3.55,0.73c0.34,0.06,0.69,0.13,1.061,0.18c1.779,0.29,3.39,0.48,4.909,0.59    c4.551,0.33,18.011,1.18,25.561,1.18l1.09,0.02l1.09-0.02c7.55,0,21.01-0.85,25.561-1.18c0.39-0.03,0.779-0.06,1.18-0.1    c1.11-0.11,2.25-0.26,3.4-0.45l0.01,0.02l0.319-0.06c1.95-0.32,3.591-0.68,4.681-0.92l0.34-0.08c0.32-0.07,0.55-0.02,0.58,0    l0.02,0.01l0.021,0.02C87.21,56.064,87.23,56.115,87.24,56.194z"></path></g><path d="M64.99,92.515c-0.21,0.34-0.86,0.64-1.73,0.79c-1.49,0.26-6.14,0.71-8.35,0.78c-0.67,0.02-1.38,0.03-2.05,0.03H51.18   L50,94.084c0,0-0.08,0-0.22,0.01l-1.03,0.02c-0.98,0-2.4,0.01-3.66-0.03c-2.21-0.07-6.859-0.52-8.34-0.78   c-0.88-0.15-1.53-0.45-1.74-0.79c-0.069-0.11-0.08-0.22-0.04-0.34c0.05-0.16,0.101-0.34,0.17-0.56c0.17-0.58,0.4-1.35,0.73-2.26   c0.02,0,0.03,0.01,0.05,0.01c0.18,0.06,0.37,0.1,0.57,0.15c3.609,0.81,8.18,1.3,9.87,1.3h7.279c1.69,0,6.261-0.49,9.87-1.3   c0.19-0.04,0.38-0.09,0.57-0.15c0.02,0,0.03-0.01,0.05-0.01c0.33,0.91,0.561,1.68,0.73,2.26c0.069,0.22,0.12,0.4,0.17,0.56   C65.07,92.294,65.06,92.404,64.99,92.515z"></path><path d="M54.39,52.96c0.185-0.231,0.601-0.52,0.971-0.67c0.119-0.05,0.25-0.1,0.39-0.13c0.32-0.08,0.65-0.11,1-0.07h0.07   c0.069,0.01,0.14,0.02,0.21,0.03c0.12,0.02,0.239,0.05,0.359,0.09c0.45,0.16,0.851,0.42,1.181,0.79c0.189,0.2,0.5,0.22,0.71,0.03   c0.199-0.19,0.172-0.651-0.021-0.83s-0.64-0.54-1.01-0.72v-6.02c0.46-0.29,0.99-0.44,1.53-0.44c1.09,0,2.069,0.58,2.55,1.51   l0.28,0.53l0.47-0.37c0.52-0.4,1.16-0.63,1.82-0.63c1.1,0,2.079,0.58,2.55,1.51l0.26,0.5l0.47-0.32c0.48-0.33,1.05-0.5,1.65-0.5   c1.18,0,2.25,0.7,2.66,1.75l0.229,0.59l0.521-0.36c0.47-0.31,1.029-0.48,1.62-0.48c1.279,0,2.399,0.82,2.739,2l0.17,0.62   l0.561-0.33c0.43-0.25,0.939-0.39,1.46-0.39c1.04,0,1.99,0.54,2.49,1.41l0.27,0.44l0.39-0.24c0.4-0.2,0.83-0.3,1.28-0.3   c1.57,0,2.851,1.21,2.851,2.7c0,0.1-0.011,0.2-0.021,0.3h-0.1c-0.19,0-0.38,0.02-0.59,0.07L86.02,55.1   c-0.399,0.09-0.869,0.19-1.399,0.3c-0.57,0.12-1.21,0.26-1.91,0.38c-0.39,0.08-0.8,0.15-1.22,0.22h-0.03   c-0.1,0-0.19,0.03-0.19,0.03c-1.58,0.26-3.159,0.45-4.699,0.56c-4.53,0.33-17.96,1.18-25.49,1.18L50,57.79l-1.09-0.02   c-7.521,0-20.95-0.85-25.49-1.18c-1.5-0.1-3.07-0.29-4.83-0.58c-0.35-0.05-0.7-0.11-1.03-0.17c-1.43-0.27-2.649-0.54-3.52-0.72   l-0.39-0.09c-0.211-0.05-0.4-0.07-0.58-0.07h-0.12c-0.011-0.1-0.021-0.2-0.021-0.3c0-1.49,1.28-2.7,2.851-2.7   c0.449,0,0.88,0.1,1.279,0.3l0.42,0.24l0.24-0.44c0.5-0.87,1.46-1.41,2.49-1.41c0.52,0,1.03,0.14,1.46,0.39l0.56,0.33l0.171-0.62   c0.34-1.18,1.46-2,2.739-2c0.59,0,1.15,0.17,1.62,0.48l0.521,0.36L27.51,49c0.41-1.05,1.48-1.75,2.66-1.75   c0.6,0,1.17,0.17,1.65,0.5l0.47,0.32l0.26-0.5c0.47-0.93,1.45-1.51,2.55-1.51c0.66,0,1.301,0.23,1.82,0.63l0.47,0.37l0.28-0.53   c0.48-0.93,1.46-1.51,2.55-1.51c0.521,0,1.021,0.14,1.47,0.41v6.28c-0.34,0.22-0.792,0.655-0.899,0.84s-0.07,0.58,0.09,0.7   c0.09,0.07,0.2,0.1,0.3,0.1c0.09,0,0.339-0.127,0.59-0.39c0.234-0.246,0.44-0.39,0.69-0.53c0.09-0.06,0.18-0.1,0.27-0.13   c0.08-0.04,0.16-0.07,0.24-0.09c0.07-0.03,0.141-0.05,0.22-0.06c0.08-0.02,0.16-0.03,0.24-0.04c0.01-0.01,0.021-0.01,0.04-0.01   c0.271-0.03,0.54-0.03,0.82,0.02c0.64,0.11,1.21,0.42,1.649,0.9c0.19,0.21,0.5,0.22,0.711,0.04c0.199-0.19,0.235-0.607,0-0.86   c-0.176-0.189-0.61-0.51-0.961-0.69v-7.38c0.48,0.12,0.921,0.36,1.271,0.69l0.4,0.39l0.34-0.45c0.09-0.12,0.189-0.23,0.3-0.32V47   c-0.37,0.24-0.784,0.628-0.98,0.9s-0.06,0.59,0.091,0.7c0.09,0.07,0.199,0.1,0.31,0.1c0.09,0,0.29-0.03,0.381-0.157   s0.079-0.104,0.179-0.204c0.311-0.35,0.721-0.61,1.181-0.75c0.109-0.04,0.399-0.11,0.41-0.11c0.069-0.01,0.149-0.02,0.22-0.02   c0.2-0.03,0.68,0.01,0.71,0.02c0.06,0.01,0.11,0.02,0.17,0.03c0.1,0.01,0.2,0.04,0.3,0.08c0.021,0,0.05,0.01,0.08,0.03   c0.13,0.04,0.25,0.1,0.37,0.16c0.28,0.16,0.53,0.36,0.75,0.6c0.19,0.2,0.5,0.22,0.71,0.03c0.2-0.19,0.172-0.648-0.03-0.83   s-0.54-0.46-0.85-0.64v-2.5c0.11,0.09,0.21,0.2,0.3,0.32l0.34,0.45l0.4-0.39c0.34-0.32,0.75-0.55,1.21-0.68v7.59   c-0.32,0.21-0.687,0.529-0.83,0.79s-0.06,0.59,0.09,0.7c0.09,0.07,0.2,0.1,0.3,0.1C53.81,53.32,54.12,53.297,54.39,52.96z"></path><g><g><path d="M50.997,25.09v21.47c-0.1-0.03-0.21-0.05-0.32-0.07c-0.05-0.01-0.109-0.02-0.16-0.02h-0.069     c-0.17-0.02-0.33-0.03-0.5-0.02c-0.05,0-0.11,0-0.16,0.01c-0.271,0.01-0.54,0.04-0.79,0.11V25.09c0-0.55,0.45-1,1-1     S50.997,24.54,50.997,25.09z"></path><path d="M50.997,46.56c-0.16-0.04-0.32-0.07-0.48-0.09c0.051,0,0.11,0.01,0.16,0.02C50.787,46.51,50.897,46.53,50.997,46.56z"></path></g></g><g><g><path d="M44.687,29.8v21.35c-0.119-0.03-0.239-0.05-0.369-0.06c-0.04-0.01-0.091-0.01-0.131-0.01h-0.069     c-0.13,0-0.26-0.01-0.391-0.01c-0.1,0-0.199,0.01-0.3,0.02c-0.08,0.01-0.16,0.03-0.24,0.04c-0.17,0.01-0.34,0.05-0.5,0.11V29.8     c0-0.55,0.45-1,1-1C44.237,28.8,44.687,29.25,44.687,29.8z"></path></g></g><g><g><path d="M57.247,29.8v21.34c-0.04-0.01-0.07-0.01-0.11-0.02c-0.02,0-0.04-0.01-0.06-0.01c-0.05-0.01-0.101-0.02-0.15-0.02     c-0.06-0.01-0.12-0.01-0.18-0.01c-0.13-0.01-0.26-0.01-0.39-0.01c-0.381,0.01-0.75,0.05-1.11,0.16V29.8c0-0.55,0.45-1,1-1     S57.247,29.25,57.247,29.8z"></path></g></g><g><path d="M56.308,26.358c-0.066,0-0.134-0.013-0.199-0.041c-0.253-0.11-0.369-0.404-0.26-0.658c0.823-1.9,2.044-3.653,5.351-3.653    c0.047,0,0.094,0,0.143,0.001c1.812,0.027,3.549,0.621,5.081,1.144c1.325,0.453,2.466,0.846,3.268,0.733    c1.168-0.164,2.181-0.898,2.578-1.871c0.298-0.728,0.193-1.477-0.293-2.109c-0.614-0.8-1.561-0.906-2.243-0.74    c-0.723,0.177-1.254,0.653-1.353,1.212c-0.057,0.325,0.02,0.579,0.221,0.735c0.183,0.142,0.449,0.177,0.647,0.088    c0.188-0.085,0.293-0.269,0.31-0.545c0.016-0.275,0.225-0.485,0.529-0.469c0.275,0.017,0.485,0.253,0.469,0.529    c-0.039,0.647-0.365,1.156-0.896,1.396c-0.54,0.245-1.196,0.162-1.673-0.209c-0.498-0.386-0.714-1.005-0.592-1.698    c0.168-0.95,0.991-1.739,2.099-2.01c1.256-0.31,2.514,0.113,3.274,1.102c0.702,0.913,0.857,2.041,0.426,3.097    c-0.53,1.296-1.852,2.271-3.365,2.483c-1.032,0.146-2.281-0.283-3.729-0.777c-1.462-0.5-3.119-1.066-4.773-1.091    c-2.97-0.054-3.88,1.482-4.56,3.05C56.685,26.245,56.501,26.358,56.308,26.358z"></path></g><g><path d="M70.234,27.063c-1.917,0-3.81-0.789-5.567-1.521c-0.412-0.171-0.818-0.341-1.218-0.497    c-2.422-0.946-4.225-0.577-5.072,1.044c-0.129,0.245-0.433,0.341-0.675,0.211c-0.245-0.128-0.34-0.43-0.212-0.675    c0.521-0.993,2.177-3.128,6.322-1.512c0.406,0.159,0.82,0.331,1.239,0.505c2.909,1.212,5.919,2.468,8.727,0.093    c0.349-0.294,0.806-0.999,1.291-1.746c1.246-1.92,2.798-4.309,5.04-4.319c0.007,0,0.015,0,0.021,0c1.393,0,2.52,0.612,3.175,1.726    c0.623,1.061,0.683,2.413,0.146,3.365c-0.678,1.206-1.823,1.809-3.06,1.614c-0.972-0.154-1.731-0.791-1.892-1.586    c-0.096-0.473-0.054-1.391,1.296-2.226c0.232-0.145,0.542-0.073,0.688,0.162s0.073,0.543-0.162,0.688    c-0.609,0.377-0.916,0.807-0.842,1.178c0.076,0.375,0.525,0.709,1.068,0.796c0.812,0.125,1.565-0.29,2.032-1.117    c0.361-0.642,0.305-1.616-0.138-2.368c-0.468-0.795-1.289-1.233-2.313-1.233c-0.005,0-0.011,0-0.017,0    c-1.701,0.008-3.09,2.146-4.205,3.864c-0.549,0.845-1.023,1.576-1.483,1.965C73.044,26.644,71.633,27.063,70.234,27.063z"></path></g><g><path d="M49.201,22.726c-0.276,0-0.5-0.224-0.5-0.5c0-1.973,0.459-4.154,3.864-5.372c1.706-0.61,3.542-0.664,5.161-0.711    c1.4-0.041,2.61-0.076,3.315-0.459c1.036-0.563,1.727-1.606,1.757-2.657c0.023-0.786-0.336-1.451-1.014-1.873    c-0.854-0.533-1.78-0.301-2.359,0.094c-0.615,0.419-0.945,1.051-0.842,1.61c0.061,0.324,0.221,0.535,0.464,0.61    c0.222,0.07,0.483,0.01,0.638-0.144c0.147-0.146,0.181-0.355,0.1-0.62c-0.081-0.264,0.066-0.543,0.331-0.625    c0.264-0.081,0.544,0.067,0.624,0.331c0.19,0.62,0.063,1.211-0.349,1.622c-0.42,0.417-1.063,0.568-1.642,0.391    c-0.602-0.188-1.021-0.691-1.148-1.383c-0.177-0.948,0.318-1.976,1.261-2.619c1.071-0.732,2.394-0.775,3.452-0.116    c0.977,0.608,1.519,1.611,1.484,2.75c-0.041,1.4-0.937,2.776-2.28,3.506c-0.914,0.497-2.234,0.535-3.763,0.58    c-1.546,0.045-3.297,0.096-4.854,0.653c-2.953,1.056-3.2,2.84-3.2,4.43C49.701,22.502,49.478,22.726,49.201,22.726z"></path></g><g><path d="M50.725,22.156c-0.276,0-0.5-0.224-0.5-0.5c0-0.875,0.337-1.67,0.975-2.299c0.665-0.655,1.965-1.404,4.42-1.396    c0.437,0.006,0.885,0.022,1.339,0.039c3.146,0.111,6.408,0.232,8.202-2.974c0.223-0.397,0.404-1.219,0.597-2.088    c0.494-2.235,1.109-5.018,3.205-5.813c1.312-0.499,2.59-0.321,3.599,0.496c0.956,0.775,1.485,2.02,1.317,3.099    c-0.251,1.61-1.353,2.391-2.3,2.584c-0.96,0.198-1.899-0.133-2.328-0.821c-0.255-0.41-0.538-1.284,0.433-2.539    c0.17-0.219,0.485-0.257,0.701-0.09c0.219,0.169,0.259,0.483,0.09,0.701c-0.438,0.567-0.575,1.077-0.375,1.399    c0.203,0.324,0.737,0.481,1.279,0.37c0.801-0.163,1.366-0.821,1.512-1.758c0.113-0.728-0.281-1.619-0.959-2.168    c-0.722-0.584-1.649-0.705-2.613-0.338c-1.591,0.604-2.142,3.094-2.584,5.095c-0.218,0.984-0.406,1.834-0.7,2.361    c-2.093,3.738-5.819,3.6-9.111,3.485c-0.446-0.016-0.887-0.032-1.316-0.038c-1.666-0.018-2.956,0.371-3.704,1.108    c-0.442,0.437-0.677,0.986-0.677,1.587C51.225,21.932,51.001,22.156,50.725,22.156z"></path></g><g><path d="M43.506,26.983c-0.195,0-0.38-0.115-0.461-0.306c-0.094-0.224-0.204-0.451-0.316-0.684    c-0.689-1.424-1.547-3.196,0.089-5.811c0.962-1.537,2.369-2.715,3.61-3.755c1.075-0.9,2.003-1.678,2.318-2.415    c0.465-1.085,0.36-2.332-0.267-3.176c-0.468-0.63-1.168-0.934-1.954-0.84c-1.004,0.112-1.586,0.866-1.795,1.535    c-0.224,0.71-0.091,1.411,0.336,1.784c0.247,0.217,0.506,0.284,0.742,0.193c0.217-0.083,0.386-0.292,0.411-0.509    c0.024-0.206-0.078-0.39-0.306-0.547c-0.228-0.157-0.284-0.469-0.127-0.696c0.157-0.229,0.469-0.283,0.695-0.127    c0.533,0.369,0.8,0.911,0.73,1.489c-0.07,0.587-0.48,1.106-1.046,1.323c-0.59,0.226-1.23,0.089-1.759-0.374    c-0.726-0.635-0.974-1.748-0.633-2.836c0.389-1.237,1.399-2.092,2.639-2.23c1.149-0.125,2.188,0.324,2.868,1.238    c0.835,1.125,0.985,2.76,0.384,4.166c-0.41,0.957-1.423,1.805-2.596,2.788c-1.185,0.992-2.527,2.117-3.405,3.519    c-1.343,2.146-0.679,3.519-0.037,4.845c0.121,0.249,0.238,0.492,0.339,0.73c0.107,0.254-0.013,0.548-0.267,0.655    C43.637,26.97,43.571,26.983,43.506,26.983z"></path></g><g><path d="M44.616,25.591c-0.194,0-0.38-0.115-0.461-0.306c-0.655-1.552-1.188-3.876,1.746-6.127    c2.763-2.12,4.612-3.683,5.143-5.997c0.354-1.546,0.04-2.81-0.236-3.925c-0.32-1.288-0.623-2.504,0.35-3.602    c0.68-0.768,1.573-1.112,2.503-0.976c1.021,0.151,1.941,0.868,2.401,1.871c0.501,1.09,0.415,2.174-0.229,2.898    c-0.499,0.56-1.237,0.787-1.891,0.576c-0.69-0.223-1.14-0.877-1.232-1.795c-0.028-0.274,0.172-0.52,0.446-0.548    c0.271-0.025,0.521,0.171,0.548,0.447c0.053,0.512,0.246,0.848,0.546,0.945c0.269,0.084,0.604-0.029,0.835-0.289    c0.378-0.425,0.403-1.088,0.068-1.817c-0.316-0.688-0.96-1.198-1.64-1.298c-0.417-0.062-1.034,0.001-1.608,0.649    c-0.596,0.672-0.453,1.388-0.128,2.698c0.289,1.163,0.649,2.611,0.241,4.39c-0.604,2.64-2.573,4.313-5.508,6.566    c-2.339,1.793-2.071,3.437-1.434,4.945c0.107,0.254-0.012,0.547-0.267,0.655C44.747,25.579,44.682,25.591,44.616,25.591z"></path></g></g></svg>