<svg xmlns="http://www.w3.org/2000/svg" xmlns:xlink="http://www.w3.org/1999/xlink" version="1.1" x="0px" y="0px" viewBox="0 0 100 100" enable-background="new 0 0 100 100" xml:space="preserve"><path fill="#000000" d="M47.055,74.977c0,1.556,0.864,2.396,1.971,2.977c0.098-0.606,0.497-1.059,0.972-1.059  c0.479,0,0.874,0.452,0.977,1.059c1.107-0.581,1.966-1.421,1.966-2.977c0-1.993-2.942-4.486-2.942-5.88  C49.997,70.49,47.055,72.983,47.055,74.977z M63.655,33.209C74.131,28.129,81.371,17.424,81.371,5h-62.74  c0,12.424,7.238,23.129,17.714,28.212C20.896,38.805,9.839,53.561,9.839,70.94c0,9.039,3.022,17.352,8.062,24.06h64.202  c5.04-6.708,8.058-15.021,8.058-24.06C90.161,53.561,79.105,38.805,63.655,33.209z M26.514,90.03h-6.029  c-3.722-6.234-5.675-13.388-5.675-20.839c0-16.228,12.233-30.104,24.41-35.723c-6.666-5.12-13.732-13.567-15.148-23.495H50V54.24  c-14.14,0.003-25.602,11.465-25.602,25.604C24.398,83.466,25.16,86.905,26.514,90.03z M55.967,78.9v11.13H44.033V78.9h3.836  c-2.171-1.177-3.836-2.878-3.836-5.965c0-4.041,5.964-9.092,5.964-11.924c0,2.832,5.97,7.883,5.97,11.924  c0,3.087-1.666,4.788-3.836,5.965H55.967z"></path></svg>