<svg xmlns="http://www.w3.org/2000/svg" xmlns:xlink="http://www.w3.org/1999/xlink" xml:space="preserve" version="1.1" style="shape-rendering:geometricPrecision;text-rendering:geometricPrecision;image-rendering:optimizeQuality;" viewBox="0 0 0.88 1.279" x="0px" y="0px" fill-rule="evenodd" clip-rule="evenodd"><defs><style type="text/css">
   
    .fil0 {fill:black;fill-rule:nonzero}
   
  </style></defs><g><path class="fil0" d="M0.01 0.538l0.108 0.712c0.09,0.019 0.206,0.029 0.322,0.029 0.116,0 0.231,-0.01 0.321,-0.029l0.108 -0.712c-0.025,0.012 -0.057,0.022 -0.096,0.03 -0.085,0.019 -0.203,0.03 -0.333,0.03 -0.13,0 -0.248,-0.011 -0.334,-0.03 -0.038,-0.008 -0.071,-0.018 -0.096,-0.03zm0.87 -0.066c0,-0.205 -0.12,-0.375 -0.293,-0.436 -0.006,-0.021 -0.025,-0.036 -0.048,-0.036l-0.199 0c-0.022,0 -0.041,0.015 -0.048,0.036 -0.173,0.061 -0.292,0.231 -0.292,0.436l0 0 0.001 0.005c0.006,0.013 0.049,0.028 0.115,0.043 0.083,0.017 0.197,0.028 0.324,0.028 0.126,0 0.241,-0.011 0.323,-0.028 0.067,-0.015 0.11,-0.03 0.116,-0.043l0 -0.005 0.001 0zm-0.305 -0.388c0.144,0.053 0.244,0.191 0.254,0.36 -0.018,-0.006 -0.04,-0.011 -0.066,-0.017 -0.082,-0.017 -0.197,-0.028 -0.323,-0.028 -0.127,0 -0.241,0.011 -0.324,0.028 -0.025,0.006 -0.047,0.011 -0.065,0.017 0.01,-0.169 0.11,-0.307 0.253,-0.36 0.009,0.01 0.022,0.016 0.036,0.016l0.199 0c0.014,0 0.027,-0.006 0.036,-0.016z"></path></g></svg>