<svg xmlns="http://www.w3.org/2000/svg" xmlns:xlink="http://www.w3.org/1999/xlink" version="1.1" x="0px" y="0px" viewBox="0 0 100 100" enable-background="new 0 0 100 100" xml:space="preserve"><polygon points="50,35 22.444,35 32.778,88 50,88 67.223,88 77.555,35 "></polygon><path d="M78.211,32.697H50H21.789c-0.363,0-0.656,0.294-0.656,0.656c0,0.363,0.293,0.656,0.656,0.656H50h28.211  c0.363,0,0.656-0.293,0.656-0.656C78.867,32.991,78.574,32.697,78.211,32.697z"></path><path d="M67.188,89.313H50H32.811c-0.362,0-0.656,0.294-0.656,0.656c0,0.363,0.294,0.656,0.656,0.656H50h17.188  c0.363,0,0.656-0.293,0.656-0.656C67.844,89.607,67.551,89.313,67.188,89.313z"></path><path d="M67.188,96.688H50H32.811c-0.362,0-0.656,0.294-0.656,0.656c0,0.363,0.294,0.656,0.656,0.656H50h17.188  c0.363,0,0.656-0.293,0.656-0.656C67.844,96.981,67.551,96.688,67.188,96.688z"></path><polygon points="50,91.663 32.941,91.663 32.941,95.7 50,95.7 67.057,95.7 67.057,91.663 "></polygon><path d="M81.391,27.646c0-1.029-0.43-2.021-1.178-2.721l-1.076,1.148c0.438,0.41,0.68,0.969,0.68,1.572  c0,0.997-0.684,1.83-1.605,2.077v-0.96c0-0.362-0.293-0.656-0.656-0.656s-0.656,0.294-0.656,0.656v0.949  c-0.75-0.211-1.404-0.877-1.404-2.805C75.494,13.174,64.066,2,49.984,2c-14.05,0-25.48,11.174-25.48,24.908  c0,1.928-0.651,2.593-1.402,2.805v-0.949c0-0.362-0.293-0.656-0.656-0.656c-0.362,0-0.656,0.294-0.656,0.656v0.96  c-0.92-0.246-1.604-1.079-1.604-2.077c0-0.604,0.241-1.162,0.679-1.572l-1.076-1.148c-0.748,0.701-1.178,1.691-1.178,2.721  c0,1.868,1.384,3.407,3.179,3.677v0.721h1.313v-0.728c1.35-0.225,2.978-1.164,2.978-4.408c0-12.867,10.723-23.333,23.938-23.333  c13.181,0,23.907,10.466,23.907,23.333c0,3.244,1.625,4.185,2.975,4.408v0.728h1.313v-0.721  C80.004,31.053,81.391,29.515,81.391,27.646z"></path></svg>