<svg xmlns="http://www.w3.org/2000/svg" xmlns:xlink="http://www.w3.org/1999/xlink" version="1.1" x="0px" y="0px" viewBox="0 0 100 100" style="enable-background:new 0 0 100 100;" xml:space="preserve"><g><path style="" d="M97.186,15.528c-0.649,0.183-1.297,0.349-1.947,0.519   c-1.184,7.462-3.362,21.112-5.572,35.013c-5.465,5.255-14.436,7.918-26.751,7.918c-27.688,0-41.882-12.854-48.645-22.5   c1.528-1.442,2.39-3.552,2.121-5.798l-0.422-3.5c-0.452-3.76-3.893-6.574-7.974-5.909c2.913,0.497,5.287,2.824,5.66,5.909   l0.422,3.5c0.183,1.522-0.167,2.976-0.874,4.212c-3.035-4.711-4.229-8.358-4.366-8.795c-0.344-1.119-1.496-1.844-2.89-1.531   c-1.223,0.375-2.021,1.71-1.535,2.895c9.086,22.149,28.501,36.15,58.503,36.15c10.838,0,19.435-1.975,25.69-5.886   C85.478,77.421,82.601,95.7,82.77,95.403c-21.772,6.129-43.547,6.129-65.319,0c-0.262,0-5.279-32.331-9.092-57.155   c-3.931,0.685-7.434-2.167-7.886-5.929l-0.422-3.5c-0.442-3.663,2.1-6.978,5.704-7.565c-0.299-1.967-0.568-3.729-0.799-5.237   c-0.64-0.169-1.277-0.308-1.919-0.488c-2.052-0.579-3.246-2.71-2.67-4.763c0.576-2.054,2.703-3.25,4.758-2.671   c15.817,4.45,31.744,4.93,46.58,4.778c13.854-0.138,28.613-0.621,43.393-4.779c2.047-0.577,4.182,0.617,4.76,2.672   C100.432,12.819,99.236,14.95,97.186,15.528z M13.499,4.721C13.499,2.113,30.126,0,50.637,0c20.512,0,37.142,2.113,37.142,4.721   c0,2.608-16.63,4.722-37.142,4.722C30.126,9.443,13.499,7.329,13.499,4.721z" fill-rule="evenodd" clip-rule="evenodd"></path></g></svg>