<?xml version="1.0" encoding="UTF-8" standalone="no"?>
<!DOCTYPE svg PUBLIC "-//W3C//DTD SVG 1.1//EN" "http://www.w3.org/Graphics/SVG/1.1/DTD/svg11.dtd">
<svg width="100%" height="100%" viewBox="0 0 100 100" version="1.1" xmlns="http://www.w3.org/2000/svg" xmlns:xlink="http://www.w3.org/1999/xlink" xml:space="preserve" xmlns:serif="http://www.serif.com/" style="fill-rule:evenodd;clip-rule:evenodd;stroke-linejoin:round;stroke-miterlimit:1.41421;">
    <g>
        <path d="M23.264,69.367C21.767,69.854 20.722,70.847 20.039,72.436C18.01,77.149 19.758,82.834 24.091,86.036C24.653,85.543 25.102,84.982 25.451,84.33C26.282,82.777 26.534,80.756 26.244,77.973C25.85,74.162 24.867,71.347 23.264,69.367Z" style="fill:none;"/>
        <path d="M29.31,85.18C28.882,85.64 28.549,86.099 28.196,86.584C28.1,86.716 28.001,86.849 27.902,86.982C27.696,87.285 27.486,87.565 27.276,87.812C31.158,89.46 36.158,90.023 39.82,87.735C42.072,86.327 43.206,84.646 43.189,82.74C43.182,81.898 42.959,80.991 42.554,80.056C39.309,78.963 36.827,79.828 33.675,81.703C31.989,82.706 30.522,83.876 29.31,85.18Z" style="fill:none;"/>
        <path d="M29.936,81.934C30.714,81.302 31.554,80.711 32.45,80.165C31.562,80.612 30.725,81.114 29.968,81.645C29.958,81.742 29.948,81.838 29.936,81.934Z" style="fill:none;"/>
        <path d="M36.642,68.67C32.931,66.441 29.012,65.222 25.655,65.222C25.16,65.222 24.677,65.249 24.21,65.302C20.613,65.715 17.968,67.663 16.559,70.937C15.129,74.258 15.012,78.011 16.229,81.506C17.412,84.903 19.762,87.84 22.846,89.776C22.957,89.846 23.065,89.912 23.175,89.977C28.306,93.059 36.06,94.555 41.829,90.949C46.121,88.264 46.998,84.986 46.977,82.707C46.934,77.925 42.878,72.416 36.643,68.672L36.642,68.67ZM43.202,77.196C43.245,77.257 43.291,77.314 43.319,77.382C44.471,79.199 45.131,81.039 45.146,82.723C45.169,85.355 43.726,87.6 40.858,89.393C38.817,90.668 36.442,91.197 34.04,91.197C30.879,91.197 27.671,90.282 25.109,88.955C25.103,88.952 25.096,88.951 25.09,88.948L24.499,88.627C24.485,88.619 24.478,88.606 24.464,88.597C24.352,88.533 24.232,88.473 24.123,88.408C24.121,88.407 24.119,88.405 24.117,88.404L23.821,88.222C23.792,88.204 23.766,88.183 23.738,88.164L23.281,87.894C23.194,87.842 23.129,87.77 23.065,87.699C17.916,83.982 15.837,77.253 18.243,71.66C19.393,68.987 21.471,67.46 24.419,67.123C24.93,67.064 25.468,67.056 26.017,67.071C26.066,67.07 26.112,67.072 26.161,67.078C29.073,67.189 32.448,68.288 35.699,70.239C38.924,72.179 41.545,74.659 43.202,77.196Z" style="fill:none;"/>
        <path d="M28.169,69.276C29.871,72.119 29.957,75.103 30.051,78.46C30.058,78.718 30.063,78.981 30.066,79.246C33.077,77.435 36.836,76.161 40.053,76.305C38.629,74.709 36.795,73.183 34.691,71.92C32.484,70.594 30.233,69.693 28.169,69.276Z" style="fill:none;"/>
        <path d="M25.584,69.018C25.534,69.019 25.486,69.025 25.436,69.026C26.72,70.954 27.576,73.412 28.023,76.477C27.881,73.595 27.474,71.284 25.584,69.018Z" style="fill:none;"/>
        <path d="M63.267,17.595C63.663,17.002 64.18,16.099 64.778,15.055C65.274,14.189 65.813,13.252 66.382,12.311C65.365,11.365 64.259,10.907 62.91,10.353C62.3,10.103 61.674,9.846 61.01,9.525C60.857,9.686 60.686,9.862 60.503,10.051C56.506,14.185 55.811,15.622 55.933,16.099C56.201,16.883 57.624,17.522 59,18.141C60.021,18.6 61.062,19.074 61.908,19.699C62.352,18.994 62.802,18.289 63.267,17.595Z" style="fill:none;"/>
        <path d="M68.738,24.577C69.75,22.888 70.858,21.177 71.93,19.522C73.578,16.979 75.282,14.35 76.669,11.742C77.25,10.65 77.106,9.092 76.325,8.037C75.954,7.536 75.126,6.742 73.682,7.016C71.382,7.463 68.312,12.824 66.478,16.027C65.861,17.103 65.329,18.032 64.894,18.682C64.305,19.563 63.732,20.46 63.169,21.363C63.16,21.654 63.037,21.939 62.784,22.124C62.748,22.15 62.706,22.162 62.668,22.183C61.349,24.334 60.084,26.515 58.854,28.654C57.014,31.85 55.112,35.154 53.029,38.306C52.414,39.236 51.796,40.164 51.177,41.092C52.316,42.8 53.464,44.534 54.605,46.284C59.167,39.588 64.226,32.115 68.738,24.577Z" style="fill:none;"/>
        <path d="M37.648,66.995C38.434,67.469 39.183,67.972 39.901,68.495C40.423,67.637 40.725,67.165 41.221,66.388L41.308,66.251C40.227,65.745 39.069,64.958 37.844,63.88C37.558,63.629 37.309,63.359 37.083,63.08C36.937,63.264 36.79,63.451 36.655,63.619C35.992,64.444 35.531,65.022 35.259,65.718C36.061,66.105 36.861,66.52 37.649,66.993L37.648,66.995Z" style="fill:none;"/>
        <path d="M42.768,57.166C42.061,56.761 41.352,56.586 40.652,56.665C40.04,56.728 39.46,56.981 38.976,57.396C38.076,58.169 37.459,59.6 38.107,61.058C38.323,61.547 38.67,62.002 39.136,62.412C40.583,63.685 41.931,64.52 43.035,64.829C43.765,65.032 44.35,65.001 44.824,64.735C45.696,64.246 46.236,63.641 46.43,62.936C46.701,61.944 46.272,60.897 45.863,60.194C45.179,59.013 44.021,57.881 42.768,57.166Z" style="fill:none;"/>
        <path d="M42.317,54.886C42.8,55.016 43.278,55.203 43.739,55.467C44.856,56.104 45.876,56.99 46.688,57.983C47.396,56.919 48.106,55.856 48.821,54.798C47.688,53.122 46.558,51.464 45.438,49.82C44.274,51.645 43.25,53.307 42.317,54.886Z" style="fill:none;"/>
        <path d="M26.16,67.08C26.111,67.074 26.065,67.072 26.016,67.073C25.467,67.058 24.929,67.066 24.418,67.125C21.47,67.462 19.392,68.989 18.242,71.662C15.836,77.255 17.916,83.984 23.064,87.701C23.129,87.773 23.193,87.845 23.28,87.896L23.737,88.166C23.766,88.184 23.792,88.205 23.82,88.224L24.116,88.406C24.118,88.407 24.12,88.409 24.122,88.41C24.231,88.475 24.351,88.535 24.463,88.599C24.476,88.607 24.484,88.621 24.498,88.629L25.089,88.95C25.095,88.953 25.102,88.954 25.108,88.957C27.669,90.283 30.877,91.199 34.039,91.199C36.442,91.199 38.817,90.671 40.857,89.395C43.725,87.602 45.168,85.357 45.145,82.725C45.13,81.041 44.471,79.201 43.318,77.384C43.29,77.315 43.244,77.258 43.201,77.198C41.544,74.661 38.923,72.181 35.697,70.243C32.446,68.29 29.072,67.191 26.16,67.08ZM25.584,69.018C27.474,71.284 27.881,73.596 28.023,76.477C27.576,73.412 26.72,70.953 25.436,69.026C25.487,69.024 25.534,69.018 25.584,69.018ZM25.451,84.33C25.103,84.982 24.653,85.544 24.091,86.036C19.757,82.833 18.009,77.149 20.039,72.436C20.722,70.848 21.767,69.855 23.264,69.367C24.867,71.347 25.849,74.163 26.244,77.973C26.535,80.756 26.283,82.776 25.451,84.33ZM42.554,80.057C42.959,80.992 43.182,81.899 43.189,82.741C43.206,84.647 42.072,86.327 39.82,87.736C36.158,90.024 31.158,89.461 27.276,87.813C27.487,87.566 27.697,87.286 27.902,86.983C28.001,86.85 28.1,86.717 28.196,86.585C28.549,86.1 28.882,85.641 29.31,85.181C30.521,83.877 31.989,82.708 33.674,81.705C36.826,79.829 39.308,78.964 42.554,80.057ZM29.936,81.934C29.948,81.838 29.958,81.741 29.968,81.645C30.725,81.115 31.562,80.613 32.45,80.165C31.554,80.712 30.714,81.302 29.936,81.934ZM40.053,76.304C36.837,76.16 33.077,77.434 30.066,79.245C30.063,78.98 30.058,78.717 30.051,78.459C29.957,75.102 29.871,72.118 28.169,69.275C30.233,69.692 32.484,70.593 34.692,71.919C36.795,73.183 38.629,74.709 40.053,76.304Z" style="fill-rule:nonzero;"/>
        <path d="M47.86,59.191C48.248,59.767 53.413,52.227 58.826,43.927C59.261,43.26 59.698,42.588 60.134,41.915C64.331,35.435 68.458,28.854 70.417,25.582C71.41,23.923 72.509,22.227 73.572,20.586C75.243,18.008 76.97,15.342 78.396,12.661C79.343,10.882 79.143,8.557 77.898,6.873C76.8,5.39 75.127,4.739 73.308,5.096C71.245,5.497 69.22,7.913 67.435,10.635C66.239,9.614 64.975,9.086 63.652,8.543C62.885,8.228 62.091,7.903 61.258,7.457C60.861,7.244 60.367,7.331 60.065,7.67C59.843,7.919 59.503,8.272 59.096,8.692C55.957,11.937 53.412,14.783 54.079,16.731C54.624,18.321 56.44,19.137 58.196,19.926C59.18,20.369 60.188,20.823 60.873,21.367C59.587,23.471 58.356,25.596 57.157,27.679C55.332,30.849 41.314,52.71 40.112,54.78C39.229,54.934 38.4,55.312 37.702,55.911C36.149,57.244 35.547,59.284 36.08,61.169C35.742,61.623 35.42,62.033 35.13,62.393C34.434,63.259 33.847,63.994 33.466,64.928C30.15,63.606 26.844,63.033 23.985,63.359C19.652,63.856 16.462,66.209 14.76,70.163C13.137,73.935 13.002,78.192 14.381,82.15C15.709,85.965 18.346,89.262 21.802,91.43C21.924,91.507 22.049,91.585 22.171,91.656C25.457,93.629 29.74,94.999 34.025,94.998C37.095,94.998 40.165,94.295 42.866,92.606C47.927,89.442 48.958,85.466 48.934,82.688C48.895,78.349 46.072,73.561 41.454,69.707C42.04,68.74 42.346,68.26 42.869,67.441L43.235,66.866C43.465,66.899 43.69,66.916 43.909,66.916C44.588,66.916 45.214,66.757 45.779,66.441C47.126,65.687 47.979,64.681 48.316,63.452C48.628,62.313 48.477,60.475 47.86,59.191C48.572,58.118 47.142,60.259 47.86,59.191ZM58.998,18.142C57.622,17.524 56.2,16.885 55.931,16.1C55.81,15.622 56.504,14.185 60.501,10.052C60.684,9.863 60.855,9.686 61.008,9.526C61.672,9.847 62.298,10.104 62.908,10.354C64.258,10.908 65.363,11.365 66.38,12.312C65.811,13.253 65.273,14.19 64.776,15.056C64.178,16.1 63.661,17.003 63.265,17.596C62.801,18.29 62.351,18.994 61.904,19.7C61.06,19.074 60.019,18.601 58.998,18.142ZM46.978,56.665C46.755,57.01 43.104,57.038 43.739,54.78C44.667,51.482 56.245,32.238 59.096,27.679C63.696,20.324 59.06,27.705 59.096,27.679C59.35,27.494 64.303,19.564 64.892,18.683C65.327,18.033 65.859,17.104 66.476,16.028C68.31,12.825 71.381,7.464 73.68,7.017C75.125,6.743 75.953,7.538 76.323,8.038C77.103,9.093 77.248,10.651 76.667,11.743C75.281,14.35 48.626,54.121 46.978,56.665ZM36.655,63.619C36.79,63.451 36.937,63.265 37.083,63.08C37.309,63.36 37.558,63.629 37.844,63.88C39.069,64.957 40.227,65.745 41.308,66.251L41.221,66.388C40.725,67.165 40.424,67.637 39.901,68.495C39.183,67.972 38.433,67.469 37.648,66.995L37.649,66.992C36.861,66.519 36.062,66.104 35.259,65.717C35.531,65.022 35.992,64.444 36.655,63.619ZM46.978,82.706C46.999,84.985 46.122,88.263 41.83,90.948C36.061,94.555 28.307,93.058 23.176,89.976C23.066,89.911 22.958,89.845 22.847,89.775C19.763,87.839 17.413,84.903 16.23,81.505C15.013,78.01 15.129,74.257 16.56,70.936C17.968,67.662 20.614,65.714 24.211,65.301C24.678,65.247 25.162,65.221 25.656,65.221C29.013,65.221 32.932,66.44 36.643,68.669L36.645,68.67C42.878,72.415 46.935,77.925 46.978,82.706ZM46.43,62.936C46.236,63.641 45.696,64.246 44.824,64.735C44.349,65.001 43.764,65.032 43.035,64.829C41.932,64.52 40.584,63.685 39.136,62.412C38.67,62.002 38.323,61.547 38.107,61.058C37.459,59.6 38.076,58.169 38.976,57.396C39.459,56.981 40.039,56.728 40.652,56.665C41.352,56.586 42.061,56.761 42.768,57.166C44.02,57.882 45.178,59.014 45.863,60.195C46.273,60.897 46.702,61.944 46.43,62.936Z" style="fill-rule:nonzero;"/>
    </g>
</svg>
