<svg xmlns="http://www.w3.org/2000/svg" xmlns:xlink="http://www.w3.org/1999/xlink" version="1.1" x="0px" y="0px" viewBox="0 0 100 100" enable-background="new 0 0 100 100" xml:space="preserve"><g><path fill="none" d="M23.264,69.367c-1.497,0.487-2.542,1.48-3.225,3.069c-2.029,4.713-0.281,10.398,4.052,13.6   c0.562-0.493,1.011-1.054,1.36-1.706c0.831-1.553,1.083-3.574,0.793-6.357C25.85,74.162,24.867,71.347,23.264,69.367z"></path><path fill="none" d="M29.31,85.18c-0.428,0.46-0.761,0.919-1.114,1.404c-0.096,0.132-0.195,0.265-0.294,0.398   c-0.206,0.303-0.416,0.583-0.626,0.83c3.882,1.648,8.882,2.211,12.544-0.077c2.252-1.408,3.386-3.089,3.369-4.995   c-0.007-0.842-0.23-1.749-0.635-2.684c-3.245-1.093-5.727-0.228-8.879,1.647C31.989,82.706,30.522,83.876,29.31,85.18z"></path><path fill="none" d="M29.936,81.934c0.778-0.632,1.618-1.223,2.514-1.769c-0.888,0.447-1.725,0.949-2.482,1.48   C29.958,81.742,29.948,81.838,29.936,81.934z"></path><path fill="none" d="M36.642,68.67c-3.711-2.229-7.63-3.448-10.987-3.448c-0.495,0-0.978,0.027-1.445,0.08   c-3.597,0.413-6.242,2.361-7.651,5.635c-1.43,3.321-1.547,7.074-0.33,10.569c1.183,3.397,3.533,6.334,6.617,8.27   c0.111,0.07,0.219,0.136,0.329,0.201c5.131,3.082,12.885,4.578,18.654,0.972c4.292-2.685,5.169-5.963,5.148-8.242   c-0.043-4.782-4.099-10.291-10.334-14.035L36.642,68.67z M43.202,77.196c0.043,0.061,0.089,0.118,0.117,0.186   c1.152,1.817,1.812,3.657,1.827,5.341c0.023,2.632-1.42,4.877-4.288,6.67c-2.041,1.275-4.416,1.804-6.818,1.804   c-3.161,0-6.369-0.915-8.931-2.242c-0.006-0.003-0.013-0.004-0.019-0.007l-0.591-0.321c-0.014-0.008-0.021-0.021-0.035-0.03   c-0.112-0.064-0.232-0.124-0.341-0.189c-0.002-0.001-0.004-0.003-0.006-0.004l-0.296-0.182c-0.029-0.018-0.055-0.039-0.083-0.058   l-0.457-0.27c-0.087-0.052-0.152-0.124-0.216-0.195c-5.149-3.717-7.228-10.446-4.822-16.039c1.15-2.673,3.228-4.2,6.176-4.537   c0.511-0.059,1.049-0.067,1.598-0.052c0.049-0.001,0.095,0.001,0.144,0.007c2.912,0.111,6.287,1.21,9.538,3.161   C38.924,72.179,41.545,74.659,43.202,77.196z"></path><path fill="none" d="M28.169,69.276c1.702,2.843,1.788,5.827,1.882,9.184c0.007,0.258,0.012,0.521,0.015,0.786   c3.011-1.811,6.77-3.085,9.987-2.941c-1.424-1.596-3.258-3.122-5.362-4.385C32.484,70.594,30.233,69.693,28.169,69.276z"></path><path fill="none" d="M25.584,69.018c-0.05,0.001-0.098,0.007-0.148,0.008c1.284,1.928,2.14,4.386,2.587,7.451   C27.881,73.595,27.474,71.284,25.584,69.018z"></path><path fill="none" d="M58.69,66.25l0.038,0.06c0.526,0.823,0.829,1.298,1.365,2.181c0.72-0.523,1.47-1.026,2.256-1.498   c0.788-0.474,1.588-0.889,2.391-1.276c-0.276-0.705-0.744-1.292-1.418-2.131c-0.128-0.158-0.267-0.335-0.404-0.507   c-0.226,0.282-0.478,0.551-0.764,0.802C60.929,64.96,59.77,65.745,58.69,66.25z"></path><path fill="none" d="M63.267,17.595c0.396-0.593,0.913-1.496,1.511-2.54c0.496-0.866,1.035-1.803,1.604-2.744   c-1.017-0.946-2.123-1.404-3.472-1.958c-0.61-0.25-1.236-0.507-1.9-0.828c-0.153,0.161-0.324,0.337-0.507,0.526   c-3.997,4.134-4.692,5.571-4.57,6.048c0.268,0.784,1.691,1.423,3.067,2.042c1.021,0.459,2.062,0.933,2.908,1.558   C62.352,18.994,62.802,18.289,63.267,17.595z"></path><path fill="none" d="M36.734,17.595c0.425,0.635,0.835,1.28,1.245,1.925c0.884-0.663,1.999-1.119,3.093-1.561   c1.347-0.543,2.74-1.105,2.999-1.862c0.12-0.475-0.575-1.912-4.572-6.045c-0.183-0.19-0.354-0.367-0.507-0.527   c-0.664,0.321-1.29,0.578-1.9,0.828c-1.35,0.554-2.455,1.011-3.472,1.958c0.568,0.94,1.106,1.876,1.602,2.741   C35.82,16.097,36.337,17.001,36.734,17.595z"></path><path fill="none" d="M68.738,24.577c1.012-1.689,2.12-3.4,3.192-5.055c1.648-2.543,3.352-5.172,4.739-7.78   c0.581-1.092,0.437-2.65-0.344-3.705c-0.371-0.501-1.199-1.295-2.643-1.021c-2.3,0.447-5.37,5.808-7.204,9.011   c-0.617,1.076-1.149,2.005-1.584,2.655c-0.589,0.881-1.162,1.778-1.725,2.681c-0.009,0.291-0.132,0.576-0.385,0.761   c-0.036,0.026-0.078,0.038-0.116,0.059c-1.319,2.151-2.584,4.332-3.814,6.471c-1.84,3.196-3.742,6.5-5.825,9.652   c-0.615,0.93-1.233,1.858-1.852,2.786c1.139,1.708,2.287,3.442,3.428,5.192C59.167,39.588,64.226,32.115,68.738,24.577z"></path><path fill="none" d="M37.648,66.995c0.786,0.474,1.535,0.977,2.253,1.5c0.522-0.858,0.824-1.33,1.32-2.107l0.087-0.137   c-1.081-0.506-2.239-1.293-3.464-2.371c-0.286-0.251-0.535-0.521-0.761-0.8c-0.146,0.184-0.293,0.371-0.428,0.539   c-0.663,0.825-1.124,1.403-1.396,2.099c0.802,0.387,1.602,0.802,2.39,1.275L37.648,66.995z"></path><path fill="none" d="M74.418,69.016c-1.89,2.265-2.298,4.576-2.441,7.456c0.447-3.063,1.303-5.521,2.587-7.448   C74.514,69.022,74.468,69.016,74.418,69.016z"></path><path fill="none" d="M70.69,85.18c-1.21-1.304-2.679-2.473-4.363-3.476c-2.934-1.745-5.593-2.677-8.878-1.653   c-0.407,0.936-0.63,1.846-0.638,2.689c-0.017,1.906,1.117,3.586,3.369,4.995c3.672,2.294,8.687,1.724,12.573,0.065   c-0.352-0.404-0.655-0.814-0.949-1.218C71.451,86.098,71.118,85.639,70.69,85.18z"></path><path fill="none" d="M76.735,69.366c-1.602,1.98-2.585,4.796-2.98,8.606c-0.403,3.88,0.277,6.394,2.166,8.053   c4.325-3.203,6.067-8.883,4.039-13.591C79.278,70.846,78.232,69.853,76.735,69.366z"></path><path fill="none" d="M66.773,77.872c0.326,0.182,0.665,0.372,1.02,0.567c0.485,0.265,0.872,0.451,1.205,0.611   c0.341,0.164,0.641,0.31,0.938,0.483c-0.001-0.361,0.003-0.72,0.013-1.073c0.095-3.355,0.181-6.337,1.88-9.177   c-2.065,0.417-4.31,1.31-6.519,2.636c-1.87,1.123-3.53,2.453-4.876,3.855C62.762,75.636,64.545,76.626,66.773,77.872z"></path><path fill="none" d="M75.79,65.303c-0.467-0.054-0.951-0.08-1.445-0.08c-3.357,0-7.275,1.219-10.987,3.448   c-6.236,3.745-10.293,9.255-10.336,14.036c-0.021,2.279,0.856,5.557,5.148,8.242c5.768,3.607,13.521,2.11,18.651-0.969l0.332-0.203   c3.084-1.936,5.434-4.872,6.618-8.27c1.216-3.495,1.1-7.248-0.331-10.569C82.033,67.663,79.387,65.715,75.79,65.303z    M76.324,88.123c-0.005,0.003-0.009,0.007-0.014,0.009c-0.045,0.029-0.086,0.062-0.131,0.09v0.001l-0.3,0.184   c-0.102,0.061-0.214,0.117-0.319,0.177c-0.04,0.026-0.08,0.049-0.123,0.068c-0.186,0.104-0.367,0.211-0.56,0.311   c-0.003,0.001-0.005,0.003-0.008,0.004c-2.558,1.32-5.758,2.229-8.91,2.229c-2.403,0-4.777-0.528-6.818-1.804   c-2.868-1.793-4.311-4.038-4.288-6.67c0.011-1.214,0.36-2.51,0.981-3.819c0.019-0.052,0.04-0.101,0.067-0.149   c0.315-0.642,0.7-1.286,1.142-1.925c0.037-0.054,0.065-0.112,0.113-0.158c1.666-2.352,4.141-4.627,7.143-6.431   c3.254-1.954,6.632-3.055,9.546-3.163c0.044-0.005,0.087-0.007,0.131-0.007c0.551-0.015,1.091-0.007,1.603,0.053   c2.948,0.337,5.026,1.864,6.176,4.537C84.259,77.472,81.92,84.513,76.324,88.123z"></path><path fill="none" d="M42.768,57.166c-0.707-0.405-1.416-0.58-2.116-0.501c-0.612,0.063-1.192,0.316-1.676,0.731   c-0.9,0.773-1.517,2.204-0.869,3.662c0.216,0.489,0.563,0.944,1.029,1.354c1.447,1.273,2.795,2.108,3.899,2.417   c0.73,0.203,1.315,0.172,1.789-0.094c0.872-0.489,1.412-1.094,1.606-1.799c0.271-0.992-0.158-2.039-0.567-2.742   C45.179,59.013,44.021,57.881,42.768,57.166z"></path><path fill="none" d="M62.16,59.802c-0.006-0.901-0.43-1.8-1.137-2.407c-0.575-0.493-1.26-0.742-1.979-0.742   c-0.595,0-1.213,0.17-1.812,0.512c-1.333,0.761-2.459,1.903-3.119,3.067c-0.005,0.008-0.009,0.017-0.015,0.026   c-0.391,0.698-0.615,1.404-0.612,2.039c0.004,1.006,0.557,1.803,1.69,2.436c1.186,0.665,3.257-0.184,5.688-2.322   C61.718,61.662,62.166,60.759,62.16,59.802z"></path><path fill="none" d="M42.317,54.886c0.483,0.13,0.961,0.317,1.422,0.581c1.117,0.637,2.137,1.523,2.949,2.516   c0.708-1.064,1.418-2.127,2.133-3.185c-1.133-1.676-2.263-3.334-3.383-4.978C44.274,51.645,43.25,53.307,42.317,54.886z"></path><path fill="none" d="M56.261,55.467c0.46-0.263,0.934-0.448,1.411-0.576c-2.636-4.457-5.535-8.831-8.361-13.069   c-0.042-0.064-0.085-0.127-0.127-0.191l0,0c-0.739-1.107-1.477-2.215-2.21-3.324c-2.084-3.154-3.987-6.459-5.827-9.656   c-1.905-3.31-3.876-6.734-6.038-9.968c-0.435-0.65-0.969-1.58-1.586-2.658c-1.834-3.202-4.905-8.561-7.203-9.008   c-1.434-0.274-2.272,0.521-2.643,1.021c-0.781,1.055-0.925,2.613-0.344,3.705c1.386,2.606,3.091,5.235,4.738,7.779   c1.072,1.655,2.181,3.366,3.193,5.056c4.782,7.988,10.111,15.805,15.264,23.364c1.411,2.069,2.846,4.18,4.279,6.303   c0.008,0.012,0.016,0.022,0.023,0.034c0.83,1.229,1.655,2.462,2.476,3.695C54.163,56.932,55.228,56.057,56.261,55.467z"></path><path d="M26.16,67.08c-0.049-0.006-0.095-0.008-0.144-0.007c-0.549-0.015-1.087-0.007-1.598,0.052   c-2.948,0.337-5.026,1.864-6.176,4.537c-2.406,5.593-0.326,12.322,4.822,16.039c0.065,0.072,0.129,0.144,0.216,0.195l0.457,0.27   c0.029,0.018,0.055,0.039,0.083,0.058l0.296,0.182c0.002,0.001,0.004,0.003,0.006,0.004c0.109,0.065,0.229,0.125,0.341,0.189   c0.013,0.008,0.021,0.022,0.035,0.03l0.591,0.321c0.006,0.003,0.013,0.004,0.019,0.007c2.561,1.326,5.769,2.242,8.931,2.242   c2.403,0,4.778-0.528,6.818-1.804c2.868-1.793,4.311-4.038,4.288-6.67c-0.015-1.684-0.674-3.524-1.827-5.341   c-0.028-0.069-0.074-0.126-0.117-0.186c-1.657-2.537-4.278-5.017-7.504-6.955C32.446,68.29,29.072,67.191,26.16,67.08z    M25.584,69.018c1.89,2.266,2.297,4.578,2.439,7.459c-0.447-3.065-1.303-5.524-2.587-7.451   C25.487,69.024,25.534,69.018,25.584,69.018z M25.451,84.33c-0.348,0.652-0.798,1.214-1.36,1.706   c-4.334-3.203-6.082-8.887-4.052-13.6c0.683-1.588,1.728-2.581,3.225-3.069c1.603,1.98,2.585,4.796,2.98,8.606   C26.535,80.756,26.283,82.776,25.451,84.33z M42.554,80.057c0.405,0.935,0.628,1.842,0.635,2.684   c0.017,1.906-1.117,3.586-3.369,4.995c-3.662,2.288-8.662,1.725-12.544,0.077c0.211-0.247,0.421-0.527,0.626-0.83   c0.099-0.133,0.198-0.266,0.294-0.398c0.353-0.485,0.686-0.944,1.114-1.404c1.211-1.304,2.679-2.473,4.364-3.476   C36.826,79.829,39.308,78.964,42.554,80.057z M29.936,81.934c0.012-0.096,0.022-0.193,0.032-0.289   c0.757-0.53,1.594-1.032,2.482-1.48C31.554,80.712,30.714,81.302,29.936,81.934z M40.053,76.304   c-3.216-0.144-6.976,1.13-9.987,2.941c-0.003-0.265-0.008-0.528-0.015-0.786c-0.094-3.357-0.18-6.341-1.882-9.184   c2.064,0.417,4.315,1.318,6.523,2.644C36.795,73.183,38.629,74.709,40.053,76.304z"></path><path d="M75.582,67.124c-0.512-0.059-1.052-0.068-1.603-0.053c-0.045-0.001-0.087,0.001-0.131,0.007   c-2.914,0.109-6.293,1.21-9.546,3.163c-3.003,1.803-5.478,4.078-7.143,6.431c-0.048,0.046-0.076,0.105-0.113,0.158   c-0.442,0.64-0.827,1.283-1.142,1.925c-0.028,0.048-0.048,0.097-0.067,0.149c-0.621,1.309-0.97,2.605-0.981,3.819   c-0.023,2.632,1.42,4.877,4.288,6.67c2.041,1.275,4.415,1.804,6.818,1.804c3.152,0,6.351-0.91,8.91-2.229   c0.003-0.001,0.005-0.003,0.008-0.004c0.193-0.1,0.375-0.207,0.56-0.311c0.043-0.02,0.083-0.042,0.123-0.068   c0.105-0.06,0.217-0.116,0.319-0.177l0.3-0.184v-0.001c0.045-0.028,0.086-0.061,0.131-0.09c0.005-0.002,0.009-0.007,0.014-0.009   c5.596-3.61,7.935-10.651,5.435-16.462C80.608,68.988,78.531,67.462,75.582,67.124z M74.418,69.016   c0.05,0.001,0.096,0.007,0.146,0.008c-1.283,1.927-2.139,4.384-2.587,7.448C72.121,73.591,72.528,71.281,74.418,69.016z    M65.309,71.918c2.209-1.326,4.454-2.219,6.519-2.636c-1.699,2.84-1.785,5.822-1.88,9.177c-0.01,0.353-0.014,0.712-0.013,1.073   c-0.297-0.173-0.597-0.319-0.938-0.483c-0.333-0.161-0.719-0.347-1.205-0.611c-0.355-0.195-0.695-0.385-1.02-0.567   c-2.228-1.246-4.01-2.236-6.34-2.099C61.779,74.371,63.44,73.041,65.309,71.918z M60.18,87.735   c-2.252-1.408-3.386-3.089-3.369-4.995c0.008-0.843,0.231-1.753,0.638-2.689c3.285-1.024,5.944-0.092,8.878,1.653   c1.684,1.002,3.153,2.172,4.363,3.476c0.428,0.46,0.761,0.918,1.114,1.403c0.294,0.404,0.597,0.814,0.949,1.218   C68.867,89.459,63.852,90.03,60.18,87.735z M75.921,86.026c-1.889-1.659-2.569-4.173-2.166-8.053   c0.395-3.81,1.377-6.626,2.98-8.606c1.497,0.487,2.543,1.48,3.226,3.069C81.988,77.143,80.246,82.822,75.921,86.026z"></path><path d="M85.239,70.163c-1.702-3.954-4.892-6.307-9.225-6.804c-2.861-0.332-6.166,0.243-9.48,1.567   c-0.385-0.945-0.98-1.689-1.687-2.567c-0.283-0.352-0.598-0.753-0.927-1.193c0.127-0.448,0.2-0.907,0.197-1.375   c-0.009-1.482-0.672-2.896-1.819-3.88c-0.713-0.612-1.542-0.98-2.414-1.129c-1.318-2.268-2.705-4.51-4.125-6.72   c4.696-6.888,9.965-14.64,14.658-22.48c0.993-1.659,2.092-3.355,3.155-4.996c1.671-2.578,3.398-5.244,4.824-7.925   c0.947-1.779,0.747-4.104-0.498-5.788C76.8,5.39,75.127,4.739,73.308,5.096c-2.063,0.401-4.088,2.817-5.873,5.539   c-1.196-1.021-2.46-1.549-3.783-2.092c-0.767-0.315-1.561-0.64-2.394-1.086c-0.397-0.213-0.891-0.126-1.193,0.213   c-0.222,0.249-0.562,0.602-0.969,1.022c-3.139,3.245-5.684,6.091-5.017,8.039c0.545,1.59,2.361,2.406,4.117,3.195   c0.984,0.443,1.992,0.897,2.677,1.441c-1.286,2.104-2.517,4.229-3.716,6.312c-1.825,3.17-3.712,6.447-5.761,9.548   c-0.463,0.701-0.929,1.399-1.395,2.099c-0.466-0.699-0.932-1.398-1.396-2.099c-2.05-3.102-3.937-6.381-5.763-9.553   c-1.232-2.14-2.498-4.324-3.822-6.484c0.681-0.562,1.743-0.996,2.783-1.416c1.755-0.708,3.569-1.44,4.119-3.043   c0.667-1.948-1.878-4.794-5.018-8.039c-0.406-0.42-0.747-0.773-0.969-1.022c-0.302-0.34-0.795-0.427-1.193-0.213   c-0.833,0.446-1.627,0.772-2.395,1.086c-1.323,0.544-2.587,1.072-3.782,2.092c-1.786-2.723-3.811-5.139-5.874-5.539   c-1.817-0.358-3.492,0.293-4.59,1.778c-1.245,1.683-1.445,4.009-0.498,5.788c1.426,2.681,3.153,5.345,4.823,7.923   c1.063,1.641,2.162,3.337,3.156,4.997c4.606,7.693,9.697,15.199,14.659,22.478c-1.595,2.483-2.927,4.65-4.129,6.72   c-0.883,0.154-1.712,0.532-2.41,1.131c-1.553,1.333-2.155,3.373-1.622,5.258c-0.338,0.454-0.66,0.864-0.95,1.224   c-0.696,0.866-1.283,1.601-1.664,2.535c-3.316-1.322-6.622-1.895-9.481-1.569c-4.333,0.497-7.523,2.85-9.225,6.804   c-1.623,3.772-1.758,8.029-0.379,11.987c1.328,3.815,3.965,7.112,7.421,9.28c0.122,0.077,0.247,0.155,0.369,0.226   c3.286,1.973,7.569,3.343,11.854,3.342c3.07,0,6.14-0.703,8.841-2.392c5.061-3.164,6.092-7.14,6.068-9.918   c-0.039-4.339-2.862-9.127-7.48-12.981c0.586-0.967,0.892-1.447,1.415-2.266l0.366-0.575c0.23,0.033,0.455,0.05,0.674,0.05   c0.679,0,1.305-0.159,1.87-0.475c1.347-0.754,2.2-1.76,2.537-2.989c0.312-1.139,0.15-2.404-0.467-3.688   c0.712-1.073,1.43-2.142,2.148-3.21c0.719,1.068,1.439,2.136,2.147,3.205c-0.388,0.811-0.62,1.672-0.617,2.547   c0.005,1.203,0.476,2.896,2.691,4.136c0.566,0.316,1.189,0.474,1.866,0.474c0.22,0,0.446-0.018,0.677-0.051l0.317,0.498   c0.554,0.867,0.859,1.346,1.461,2.34c-4.601,3.839-7.436,8.638-7.475,12.986c-0.025,2.777,1.007,6.753,6.068,9.918   C59.835,94.296,62.905,95,65.975,95c4.283,0,8.567-1.369,11.849-3.34c0.124-0.075,0.247-0.15,0.37-0.227   c3.459-2.171,6.096-5.468,7.425-9.282C86.997,78.191,86.862,73.935,85.239,70.163z M62.919,63.078   c0.137,0.172,0.276,0.349,0.404,0.507c0.674,0.839,1.142,1.426,1.418,2.131c-0.803,0.388-1.602,0.803-2.391,1.276   c-0.786,0.472-1.537,0.975-2.256,1.498c-0.536-0.883-0.84-1.358-1.365-2.181l-0.038-0.06c1.079-0.505,2.238-1.29,3.465-2.369   C62.441,63.63,62.693,63.36,62.919,63.078z M58.998,18.142c-1.376-0.618-2.798-1.257-3.067-2.042   c-0.121-0.478,0.573-1.915,4.57-6.048c0.183-0.189,0.354-0.366,0.507-0.526c0.664,0.321,1.29,0.578,1.9,0.828   c1.35,0.554,2.455,1.011,3.472,1.958c-0.569,0.941-1.107,1.878-1.604,2.744c-0.598,1.044-1.115,1.947-1.511,2.54   c-0.464,0.694-0.914,1.398-1.361,2.104C61.06,19.074,60.019,18.601,58.998,18.142z M53.027,38.307   c2.083-3.152,3.985-6.456,5.825-9.652c1.231-2.138,2.495-4.32,3.814-6.471c0.038-0.021,0.08-0.033,0.116-0.059   c0.254-0.185,0.376-0.47,0.385-0.761c0.563-0.903,1.136-1.8,1.725-2.681c0.435-0.65,0.967-1.579,1.584-2.655   c1.834-3.203,4.905-8.564,7.204-9.011c1.445-0.274,2.273,0.521,2.643,1.021c0.78,1.055,0.925,2.613,0.344,3.705   c-1.386,2.607-3.091,5.236-4.739,7.78c-1.072,1.655-2.18,3.366-3.192,5.055c-4.512,7.538-9.571,15.011-14.135,21.707   c-1.142-1.749-2.289-3.483-3.428-5.192C51.794,40.165,52.412,39.237,53.027,38.307z M37.091,10.354   c0.61-0.25,1.236-0.507,1.9-0.828c0.153,0.161,0.324,0.337,0.507,0.527c3.997,4.133,4.693,5.57,4.572,6.045   c-0.259,0.757-1.652,1.319-2.999,1.862c-1.094,0.441-2.209,0.898-3.093,1.561c-0.41-0.645-0.82-1.29-1.245-1.925   c-0.397-0.594-0.914-1.498-1.514-2.543c-0.496-0.865-1.034-1.801-1.602-2.741C34.635,11.365,35.741,10.908,37.091,10.354z    M36.655,63.619c0.135-0.168,0.282-0.354,0.428-0.539c0.226,0.28,0.475,0.549,0.761,0.8c1.225,1.077,2.383,1.865,3.464,2.371   l-0.087,0.137c-0.496,0.777-0.797,1.249-1.32,2.107c-0.718-0.523-1.468-1.026-2.253-1.5l0.001-0.003   c-0.788-0.473-1.587-0.888-2.39-1.275C35.531,65.022,35.992,64.444,36.655,63.619z M46.978,82.706   c0.021,2.279-0.856,5.557-5.148,8.242c-5.769,3.607-13.523,2.11-18.654-0.972c-0.11-0.065-0.218-0.131-0.329-0.201   c-3.084-1.936-5.434-4.872-6.617-8.27c-1.217-3.495-1.101-7.248,0.33-10.569c1.408-3.274,4.054-5.222,7.651-5.635   c0.467-0.054,0.951-0.08,1.445-0.08c3.357,0,7.276,1.219,10.987,3.448l0.002,0.001C42.878,72.415,46.935,77.925,46.978,82.706z    M46.43,62.936c-0.194,0.705-0.734,1.31-1.606,1.799c-0.475,0.266-1.06,0.297-1.789,0.094c-1.103-0.309-2.451-1.144-3.899-2.417   c-0.466-0.41-0.813-0.865-1.029-1.354c-0.648-1.458-0.031-2.889,0.869-3.662c0.483-0.415,1.063-0.668,1.676-0.731   c0.7-0.079,1.409,0.096,2.116,0.501c1.252,0.716,2.41,1.848,3.095,3.029C46.273,60.897,46.702,61.944,46.43,62.936z M46.688,57.983   c-0.812-0.994-1.832-1.879-2.949-2.516c-0.461-0.264-0.939-0.451-1.422-0.581c0.933-1.579,1.957-3.241,3.12-5.066   c1.12,1.644,2.25,3.302,3.383,4.978C48.107,55.857,47.397,56.919,46.688,57.983z M50.828,54.279   c-0.007-0.012-0.015-0.023-0.023-0.034c-1.433-2.122-2.868-4.233-4.279-6.303c-5.153-7.56-10.482-15.377-15.264-23.364   c-1.012-1.69-2.121-3.401-3.193-5.056c-1.647-2.543-3.351-5.172-4.738-7.779c-0.581-1.092-0.437-2.65,0.344-3.705   c0.372-0.501,1.209-1.295,2.643-1.021c2.299,0.447,5.369,5.806,7.203,9.008c0.617,1.078,1.151,2.008,1.586,2.658   c2.162,3.234,4.133,6.658,6.038,9.968c1.84,3.197,3.743,6.502,5.827,9.656c0.734,1.109,1.472,2.217,2.21,3.324l0,0   c0.042,0.064,0.085,0.127,0.127,0.191c2.826,4.237,5.725,8.611,8.361,13.069c-0.477,0.128-0.951,0.313-1.411,0.576   c-1.033,0.59-2.098,1.465-2.957,2.506C52.483,56.74,51.658,55.508,50.828,54.279z M55.176,64.734   c-1.133-0.633-1.686-1.43-1.69-2.436c-0.003-0.635,0.22-1.341,0.612-2.039c0.006-0.008,0.01-0.017,0.015-0.026   c0.66-1.164,1.786-2.306,3.119-3.067c0.599-0.342,1.217-0.512,1.812-0.512c0.719,0,1.404,0.249,1.979,0.742   c0.707,0.607,1.131,1.506,1.137,2.407c0.006,0.956-0.442,1.859-1.296,2.609C58.432,64.55,56.361,65.399,55.176,64.734z    M83.772,81.506c-1.184,3.397-3.534,6.334-6.618,8.27l-0.332,0.203c-5.129,3.079-12.883,4.575-18.651,0.969   c-4.292-2.685-5.169-5.963-5.148-8.242c0.043-4.782,4.1-10.291,10.336-14.036c3.712-2.229,7.63-3.448,10.987-3.448   c0.495,0,0.978,0.027,1.445,0.08c3.597,0.413,6.242,2.361,7.651,5.635C84.871,74.258,84.988,78.012,83.772,81.506z"></path></g></svg>