<svg xmlns="http://www.w3.org/2000/svg" xmlns:xlink="http://www.w3.org/1999/xlink" version="1.1" viewBox="0 0 60 60" x="0px" y="0px"><g fill="#000000"><path d="M6,12l-2.62268e-07,-7.10543e-15c-3.31371,-1.44847e-07 -6,-2.68629 -6,-6c1.44847e-07,-3.31371 2.68629,-6 6,-6c3.31371,1.44847e-07 6,2.68629 6,6l-1.59208e-09,1.45834e-06c-0.00361637,3.31221 -2.68779,5.99638 -6,6Z" transform="translate(44, 8)"></path><path d="M4.00321,0.000617584l1.0991e-07,5.09388e-11c-1.3326,-0.000617584 -2.57778,0.663229 -3.32,1.77l-1.03845e-07,1.53103e-07c-0.446186,0.657835 -0.683209,1.43513 -0.68,2.23l4.61853e-14,6.03983e-07c3.33571e-07,2.20914 1.79086,4 4,4c2.20914,-3.33571e-07 4,-1.79086 4,-4c-3.33571e-07,-2.20914 -1.79086,-4 -4,-4Z" transform="translate(27.9968, 51.9994)"></path><path d="M4,1.59703e-07l-1.74846e-07,3.55271e-15c-2.20914,9.65645e-08 -4,1.79086 -4,4c9.65645e-08,2.20914 1.79086,4 4,4c2.20914,-9.65645e-08 4,-1.79086 4,-4l1.59653e-07,-0.00112998c0,-2.20851 -1.79036,-3.99887 -3.99887,-3.99887c-0.000753382,0 -0.00150676,2.12904e-07 -0.00226014,6.38712e-07Z" transform="translate(-9.65645e-08, 24)"></path><path d="M44.6751,29.0144h-0.02l-6.58018e-08,-4.08136e-11c-1.48926,-0.000923773 -2.90204,-0.659732 -3.86,-1.8l-0.85,-1.02l-7.13354e-07,-8.32772e-07c-1.94275,-2.26798 -2.74862,-5.29641 -2.19,-8.23l1.12263e-07,-5.57384e-07c0.180459,-0.895977 0.280855,-1.80623 0.3,-2.72l-8.04078e-08,5.71045e-06c0.0604841,-4.29544 -1.71919,-8.41164 -4.89,-11.31l1.14397e-07,1.05501e-07c-2.74763,-2.53397 -6.35232,-3.9344 -10.09,-3.92l-8.31739e-07,4.98638e-10c-0.55787,0.000334469 -1.11533,0.030377 -1.67,0.0900001l-8.12393e-07,8.88547e-08c-8.22583,0.899692 -14.1648,8.29739 -13.2651,16.5232c0.239375,2.18859 0.958135,4.29753 2.10514,6.17679l2.00199e-07,3.08621e-07c1.38111,2.12908 1.72309,4.7693 0.93,7.18l1.80699e-07,-5.20103e-07c-0.765936,2.20458 -2.40372,3.99783 -4.53,4.96l-2.63787e-07,1.15277e-07c-4.0491,1.76949 -6.64508,5.79149 -6.59,10.21l-4.6191e-07,-1.99808e-05c0.134467,5.81684 4.72948,10.547 10.54,10.85l-4.51279e-07,-1.89056e-08c6.06958,0.254276 11.1961,-4.45996 11.4504,-10.5295c0.117918,-2.8147 -0.848625,-5.56736 -2.70036,-7.69046l2.07587e-07,2.3855e-07c-1.09313,-1.25618 -1.41159,-3.00966 -0.82998,-4.57l0.13,-0.37006l1.20602e-07,-3.42629e-07c0.589995,-1.67617 2.16319,-2.80613 3.94,-2.82994h0.04l-6.55288e-07,-6.73616e-10c1.33711,0.00137453 2.66857,-0.173464 3.96,-0.52l-2.37019e-07,6.59073e-08c1.51461,-0.421164 3.13576,0.0788547 4.15,1.28l2.16,2.58l2.24395e-07,2.74299e-07c1.13141,1.38303 1.60584,3.18952 1.3,4.95l-7.71941e-08,4.7595e-07c-0.241485,1.48891 -0.166524,3.012 0.22,4.47l-5.91402e-07,-2.32408e-06c0.275664,1.0833 0.721184,2.1161 1.32,3.06c0.11,0.18 0.22,0.35 0.34,0.50995l-4.77624e-07,-6.77824e-07c3.4973,4.96322 10.3559,6.15158 15.3191,2.65428c2.94789,-2.07721 4.68959,-5.46811 4.66088,-9.07423l1.87831e-07,6.7493e-06c-0.170792,-6.13712 -5.24113,-10.9981 -11.38,-10.91Zm-41.62,18l-5.37953e-08,-6.03904e-10c-0.13069,-0.0014671 -0.259812,-0.0286507 -0.38,-0.08l7.02076e-08,2.93958e-08c-0.121143,-0.0507223 -0.232744,-0.121741 -0.33,-0.21l5.31319e-08,5.57797e-08c-0.182612,-0.191712 -0.286175,-0.445262 -0.29,-0.71l-2.19399e-09,1.95444e-07c0.00146707,-0.13069 0.0286507,-0.259812 0.0799999,-0.38l-4.40278e-08,1.11442e-07c0.048345,-0.12237 0.119623,-0.234378 0.21,-0.33l-1.16944e-07,1.06042e-07c0.0972875,-0.0882175 0.208881,-0.159232 0.33,-0.21l-9.51695e-09,3.84773e-09c0.372981,-0.150797 0.799742,-0.0685772 1.09,0.21l3.82034e-08,4.21121e-08c0.0882413,0.0972694 0.159258,0.208867 0.21,0.33l8.2162e-09,1.92308e-08c0.0513494,0.120188 0.0785331,0.24931 0.0800004,0.379999l7.26392e-09,7.38709e-07c0.00537767,0.546907 -0.433618,0.994622 -0.980525,0.999999c-0.00649176,6.38328e-05 -0.012984,6.38279e-05 -0.0194758,-1.45284e-08Zm7.96,5l2.18339e-07,2.34435e-09c0.253906,0.00272623 0.50773,-0.0106338 0.759947,-0.0399997c0.23,-0.02 0.46,-0.06 0.69,-0.1c0.23,-0.05 0.45,-0.11 0.67,-0.17c0.22,-0.07 0.43,-0.15 0.64,-0.24c0.21,-0.09 0.41,-0.19 0.61,-0.3l1.61911e-07,-8.31806e-08c0.201086,-0.103307 0.394871,-0.220246 0.579998,-0.349999l-7.98226e-09,5.17367e-09c0.188157,-0.121953 0.368509,-0.255547 0.54,-0.4c0.17,-0.14 0.34,-0.29 0.5,-0.45c0.16,-0.16 0.31,-0.33 0.45,-0.5l1.24532e-07,-1.47896e-07c0.14442,-0.171517 0.278013,-0.351866 0.4,-0.54c0.13,-0.19 0.25,-0.38 0.36,-0.58c0.1,-0.2 0.2,-0.4 0.29,-0.61c0.09,-0.21 0.17,-0.42 0.24,-0.64c0.06,-0.22 0.12,-0.43994 0.17,-0.67c0.04,-0.23 0.08,-0.46 0.1,-0.69l2.09912e-07,-1.77367e-06c0.0282777,-0.238936 0.0416549,-0.4794 0.0400539,-0.719999c0,-0.11 0,-0.21 -0.01,-0.32c0,-0.1 -0.01,-0.2 -0.02,-0.31c-0.01,-0.11 -0.02,-0.21 -0.03,-0.31c-0.02,-0.11 -0.03,-0.21 -0.05,-0.32c-0.02,-0.09 -0.04,-0.2 -0.07,-0.3c-0.02,-0.1 -0.04,-0.2 -0.07,-0.3l-0.09,-0.3c-0.03,-0.1 -0.06995,-0.2 -0.11,-0.3c-0.03,-0.09 -0.07,-0.19 -0.11,-0.29c-0.04,-0.09 -0.08,-0.18 -0.13,-0.28c-0.05,-0.09 -0.09,-0.19 -0.14,-0.28c-0.05,-0.09 -0.1,-0.18 -0.16,-0.27l7.1227e-08,1.35481e-07c-0.0474086,-0.0901756 -0.100864,-0.17704 -0.159999,-0.259999c-0.06,-0.09 -0.12,-0.18 -0.18,-0.26l6.37492e-09,9.66538e-09c-0.0576937,-0.0874727 -0.121168,-0.170992 -0.19,-0.25c-0.07,-0.09 -0.13,-0.17 -0.2,-0.25l-9.52166e-08,-1.07434e-07c-0.364769,-0.411574 -0.326827,-1.04092 0.0847466,-1.40569c0.411574,-0.364769 1.04092,-0.326827 1.40569,0.0847466c0.00321335,0.00362566 0.0064002,0.00727472 0.00956029,0.0109469c0.09,0.1 0.18,0.2 0.27,0.31c0.08,0.11 0.16,0.21 0.24,0.32l1.1855e-07,1.57401e-07c0.082372,0.109366 0.159137,0.222845 0.229999,0.339998c0.07,0.11 0.14,0.22 0.21,0.34l2.17536e-08,3.3951e-08c0.0725387,0.113212 0.139291,0.230028 0.2,0.35l1.1471e-07,1.95609e-07c0.0679437,0.115861 0.128077,0.236128 0.179999,0.359999c0.06,0.11 0.12,0.24 0.17,0.36c0.05,0.12 0.1,0.25 0.15,0.37c0.05,0.13 0.09,0.26 0.13,0.38c0.04,0.13 0.08,0.26 0.12,0.38c0.03,0.13 0.06,0.27 0.09,0.4c0.03,0.12 0.06,0.26 0.08,0.39c0.03,0.12994 0.05,0.25995 0.07,0.4c0.02,0.13 0.03,0.26 0.04,0.4c0.02,0.13 0.02,0.27 0.03,0.4c0.01,0.14 0.01,0.27 0.01,0.41c0,0.31 -0.02,0.62 -0.05,0.92l2.24941e-08,-2.40647e-07c-0.0279219,0.298714 -0.0713134,0.59578 -0.13,0.89l9.35438e-08,-4.42792e-07c-0.0613785,0.290537 -0.138153,0.577607 -0.229999,0.859996l2.18969e-07,-7.41012e-07c-0.0834416,0.282374 -0.183619,0.559531 -0.3,0.83l-6.9035e-08,1.65741e-07c-0.112438,0.269944 -0.239287,0.533657 -0.38,0.79c-0.14,0.25 -0.29,0.5 -0.45,0.74l-3.19055e-07,4.8342e-07c-0.158797,0.240603 -0.332469,0.471052 -0.52,0.69c-0.18,0.22 -0.38,0.44 -0.58,0.64c-0.2,0.2 -0.42,0.4 -0.64,0.58l1.58994e-07,-1.36217e-07c-0.21891,0.187551 -0.44934,0.361222 -0.689937,0.519998c-0.24005,0.16 -0.49005,0.31 -0.74005,0.45l4.89384e-07,-2.68691e-07c-0.25633,0.140735 -0.520043,0.267585 -0.789996,0.379998l-5.36304e-07,2.30792e-07c-0.270465,0.116391 -0.547622,0.216569 -0.83,0.3l-5.3648e-07,1.74546e-07c-0.28238,0.0918736 -0.569452,0.168649 -0.859995,0.229999l2.55646e-07,-5.09962e-08c-0.294218,0.0586906 -0.591282,0.102082 -0.889995,0.13c-0.3,0.03 -0.61,0.05 -0.92,0.05h-0.24l-0.11,-0.01l-3.45783e-07,-1.1445e-08c-0.301249,-0.00997101 -0.601711,-0.0366787 -0.899996,-0.0799994l-2.62157e-07,-3.47209e-08c-0.286025,-0.037882 -0.569777,-0.0912942 -0.85,-0.16l-2.53749e-07,-6.227e-08c-0.277731,-0.0681551 -0.551481,-0.151615 -0.819996,-0.249999l2.74426e-07,9.38099e-08c-0.26905,-0.0919722 -0.532788,-0.198803 -0.79,-0.32l-4.33569e-07,-1.91798e-07c-0.257946,-0.114108 -0.508441,-0.244365 -0.749995,-0.389997c-0.24,-0.14 -0.48,-0.29 -0.7,-0.45l-3.20987e-07,-2.27765e-07c-0.228561,-0.162182 -0.448838,-0.335734 -0.66,-0.52l3.32098e-07,2.80111e-07c-0.212861,-0.17954 -0.416458,-0.369785 -0.61,-0.57l-4.71858e-08,-4.7999e-08c-0.197096,-0.200493 -0.383998,-0.410757 -0.56,-0.63l-5.29802e-08,-6.67028e-08c-0.344418,-0.433626 -0.2721,-1.06436 0.161527,-1.40877c0.428623,-0.340444 1.05107,-0.274224 1.39848,0.148777c0.14,0.17 0.28,0.34 0.43,0.5c0.16,0.15 0.31,0.3 0.48,0.44c0.17,0.15 0.34,0.28 0.52,0.41l4.6125e-07,3.36422e-07c0.177142,0.129202 0.36071,0.249356 0.55,0.36c0.19,0.1 0.38,0.21 0.58,0.3c0.2,0.09 0.4,0.17 0.61,0.25c0.21,0.07 0.42,0.13 0.63,0.19c0.22,0.05 0.44,0.09 0.66,0.12c0.22,0.03 0.45,0.05 0.67,0.06c0.01,0 0.13,0.01 0.14,0.01m24.9,-34.46l9.30063e-09,-4.2754e-08c-0.100285,0.461 -0.508218,0.789844 -0.98,0.79l-2.06977e-08,9.5438e-10c-0.0705925,0.00325504 -0.141291,-0.00347815 -0.21,-0.02l-4.82937e-08,-1.00979e-08c-0.538004,-0.112493 -0.882949,-0.639825 -0.770456,-1.17783c0.000151295,-0.000723579 0.000303397,-0.00144699 0.000456305,-0.00217023l0.09,-0.49l0.129958,-1.35v-0.11c0,-0.19 0,-0.38 -0.01,-0.56l1.32703e-07,0.00118196c0,-0.187067 -0.00997223,-0.374001 -0.0298743,-0.560007l1.16677e-07,2.08387e-06c-0.010132,-0.18096 -0.0301619,-0.36123 -0.0599998,-0.54c-0.02,-0.18 -0.05,-0.36 -0.08,-0.54c-0.04,-0.18 -0.07,-0.36 -0.11,-0.53c-0.05,-0.18005 -0.09,-0.35 -0.14,-0.53c-0.05,-0.17 -0.11,-0.34 -0.17,-0.51c-0.05,-0.17 -0.12,-0.34 -0.18005,-0.51c-0.06995,-0.16 -0.14,-0.33 -0.22,-0.49c-0.07,-0.16 -0.15,-0.33 -0.23,-0.49c-0.09,-0.16 -0.17,-0.31 -0.27,-0.47c-0.09,-0.15 -0.18,-0.31 -0.28,-0.46c-0.1,-0.15 -0.2,-0.3 -0.31,-0.45c-0.11,-0.14 -0.22,-0.29 -0.34,-0.43c-0.11,-0.14 -0.23,-0.28 -0.35,-0.42c-0.12,-0.14 -0.25,-0.27 -0.37994,-0.41c-0.13,-0.13 -0.27,-0.26 -0.4,-0.38c-0.14,-0.13 -0.28,-0.25 -0.42,-0.37c-0.14,-0.11 -0.28,-0.23 -0.43,-0.34c-0.14,-0.11 -0.29,-0.21 -0.44,-0.31c-0.15,-0.11 -0.3,-0.2 -0.46,-0.3c-0.15,-0.09 -0.31,-0.18 -0.46,-0.27c-0.16,-0.08 -0.32,-0.16 -0.49,-0.24c-0.16,-0.08 -0.32,-0.15 -0.49,-0.22c-0.17,-0.07 -0.33,-0.14 -0.5,-0.2c-0.17,-0.06 -0.34,-0.12 -0.51,-0.17c-0.18,-0.05 -0.35,-0.1 -0.52,-0.15c-0.18,-0.04 -0.35,-0.08 -0.53,-0.11c-0.18,-0.04 -0.36,-0.07 -0.54,-0.1c-0.18005,-0.02 -0.36,-0.05 -0.54,-0.07c-0.19,-0.01 -0.37,-0.03 -0.56,-0.04c-0.180136,-0.0111773 -0.360136,-0.0111773 -0.550136,-0.0111773l-0.85,0.03l-4.98313e-08,1.59828e-09c-0.0538353,0.00172671 -0.107396,0.00842181 -0.16,0.02l-0.15,0.01c-0.38,0.04 -0.69,0.09 -0.99005,0.15c-0.31,0.06 -0.61,0.13 -0.9,0.21c-0.3,0.09 -0.59,0.19 -0.88,0.3c-0.28,0.11 -0.56,0.23 -0.84,0.36c-0.27,0.13 -0.54,0.28 -0.8,0.43005c-0.26,0.15005 -0.52,0.31995 -0.76,0.49c-0.25,0.18 -0.49,0.36 -0.72,0.56c-0.23,0.19 -0.46,0.4 -0.67,0.61l-8.51341e-07,8.05464e-07c-0.219463,0.207636 -0.426507,0.428017 -0.620057,0.659997c-0.2,0.23 -0.39,0.47 -0.56995,0.71c-0.18005,0.25 -0.34,0.5 -0.5,0.76l-2.51273e-07,4.06192e-07c-0.160211,0.258988 -0.307069,0.526002 -0.439998,0.799995l3.78741e-07,-7.25637e-07c-0.140889,0.269932 -0.267725,0.546968 -0.38,0.83l-1.10626e-08,2.72973e-08c-0.207625,0.51232 -0.791256,0.759324 -1.30358,0.551699c-0.5077,-0.205753 -0.755677,-0.781413 -0.556424,-1.2917c0.14,-0.34 0.29,-0.67 0.45,-0.99l9.77337e-08,-1.96584e-07c0.318996,-0.641636 0.693772,-1.25399 1.12,-1.83c0.21,-0.29004 0.43,-0.57004 0.66,-0.84c0.23,-0.27 0.48,-0.53 0.73,-0.79c0.26,-0.24 0.52,-0.49 0.79,-0.72c0.28,-0.22 0.56,-0.44 0.85,-0.65l-9.98605e-07,7.17455e-07c0.290032,-0.208376 0.590414,-0.401955 0.899995,-0.579997c0.31,-0.18 0.63,-0.35 0.95,-0.51c0.33,-0.16 0.66,-0.3 1,-0.43c0.34,-0.13 0.68,-0.25 1.03,-0.35c0.35,-0.1 0.71,-0.19 1.07,-0.26c0.36,-0.07 0.73,-0.12 1.1,-0.16c0.01,0 0.1,-0.00995 0.1,-0.00995l0.25,-0.03h0.1c0.01,0 0.14,-0.01 0.14,-0.01l0.13,-0.01l0.190062,-0.0100965h0.13l0.13,-0.01h0.27c0.22,0 0.44,0.01 0.65,0.02c0.22,0.01 0.44,0.02 0.65,0.04c0.22,0.03 0.43,0.05 0.64,0.08c0.22,0.04 0.43,0.06995 0.64,0.11c0.21,0.05 0.42,0.09 0.63,0.15c0.2,0.05 0.41,0.11 0.61,0.17c0.21,0.06 0.41,0.13 0.61,0.2c0.2,0.07 0.4,0.15 0.59,0.23c0.2,0.08 0.39,0.17 0.59,0.26c0.19,0.09 0.38,0.19 0.57,0.29c0.18,0.1 0.37,0.21 0.55,0.32c0.18,0.11 0.36,0.23 0.54,0.35c0.18,0.12 0.35,0.24 0.53,0.37c0.17,0.13 0.34,0.27 0.5,0.4c0.17,0.14 0.33,0.29 0.49,0.43c0.16,0.15 0.32,0.3 0.47,0.46c0.16,0.15 0.3,0.31 0.45,0.47c0.14,0.17 0.28,0.33 0.42,0.5c0.14,0.17 0.27,0.34 0.39,0.51c0.13,0.18 0.25,0.35 0.37,0.53c0.12,0.18 0.23,0.37 0.34,0.55c0.11,0.18 0.21,0.37 0.31,0.56c0.1,0.19 0.19,0.38 0.28,0.57c0.09,0.2 0.17,0.39 0.25,0.59c0.08,0.2 0.16,0.4 0.23,0.6c0.06,0.2 0.13,0.4 0.19,0.61c0.06,0.2 0.11,0.41 0.16,0.62c0.05,0.21 0.09,0.42 0.13,0.63c0.04,0.21 0.08,0.42 0.1,0.63c0.03,0.22 0.06,0.43 0.07,0.65c0.02,0.21 0.03,0.43 0.04,0.65c0.01,0.21 0.01,0.43 0.01,0.65v0.15c0,0.01 -0.01,0.15 -0.01,0.15Zm1.97,25.17l8.90494e-09,-8.48279e-09c-0.191718,0.18263 -0.445288,0.286195 -0.710042,0.290003l-5.37953e-08,-6.03897e-10c-0.13069,-0.0014671 -0.259812,-0.0286507 -0.38,-0.08l7.02076e-08,2.93958e-08c-0.121143,-0.0507223 -0.232744,-0.121741 -0.33,-0.21l-1.02522e-07,-1.04072e-07c-0.0925288,-0.0939277 -0.164101,-0.206399 -0.21,-0.33l1.36645e-08,3.1983e-08c-0.0513494,-0.120188 -0.0785331,-0.24931 -0.0800002,-0.38l-3.9901e-08,5.42764e-06c0.0019483,-0.265117 0.10578,-0.519331 0.289996,-0.710001l-1.16944e-07,1.06042e-07c0.0972875,-0.0882175 0.208881,-0.159232 0.33,-0.21l2.50526e-08,-1.0287e-08c0.24347,-0.0999726 0.51653,-0.0999726 0.76,-2.52863e-08l-8.1454e-08,-3.41424e-08c0.121119,0.0507683 0.232712,0.121782 0.33,0.21l1.76405e-08,1.94985e-08c0.0429977,0.0475263 0.0830714,0.0976184 0.12,0.15l2.5955e-08,3.81756e-08c0.037885,0.0557225 0.0681529,0.116258 0.0899999,0.18l3.60011e-10,7.05725e-10c0.0289017,0.0566566 0.0491274,0.117334 0.06,0.18l5.30596e-08,3.019e-07c0.0116133,0.0660776 0.0182997,0.132927 0.0200041,0.199996l1.15992e-08,4.43035e-07c0.00343447,0.131181 -0.023967,0.261338 -0.0800002,0.38l-1.65598e-09,4.19374e-09c-0.0483243,0.122381 -0.119604,0.234392 -0.21,0.33Zm7.18996,4.29h0.1c0.24,0 0.47,-0.01 0.7,-0.03c0.23,-0.03 0.46,-0.06 0.69,-0.11c0.22,-0.04 0.44,-0.1 0.66,-0.16c0.22,-0.07 0.43,-0.15 0.64,-0.23c0.21,-0.09 0.42,-0.19 0.62,-0.3c0.2,-0.11 0.4,-0.22 0.59,-0.35c0.19,-0.13 0.37,-0.27 0.55,-0.42l5.58273e-08,-4.44933e-08c0.182889,-0.145759 0.356556,-0.302727 0.52,-0.47c0.16,-0.17 0.32,-0.34 0.47,-0.52c0.15,-0.18 0.28,-0.37 0.41,-0.56c0.13,-0.19 0.24005,-0.39 0.35,-0.59c0.1,-0.2 0.2,-0.41 0.29,-0.62c0.08,-0.21 0.16,-0.42 0.22,-0.64l8.99058e-08,-3.14259e-07c0.126295,-0.441455 0.213301,-0.893215 0.26,-1.35c0.02,-0.24 0.03,-0.47 0.03,-0.71l-4.24612e-08,-8.49948e-06c-0.00275672,-0.552285 0.442724,-1.00223 0.995009,-1.00499c0.552285,-0.00275672 1.00223,0.442724 1.00499,0.995009c0,0 0,0 0,0c0,0.3 -0.01,0.6 -0.04,0.9l-1.99904e-07,2.3358e-06c-0.0252602,0.295155 -0.0653106,0.588858 -0.12,0.88c-0.06,0.29 -0.13,0.57 -0.21,0.86l-9.06726e-09,3.12679e-08c-0.0816824,0.281677 -0.17849,0.558745 -0.29,0.83c-0.11,0.27 -0.24005,0.53 -0.37006,0.79c-0.14,0.27 -0.29,0.52 -0.45,0.77c-0.17,0.24005 -0.34,0.48 -0.53,0.71c-0.19,0.23 -0.39,0.45 -0.6,0.67c-0.21,0.21 -0.43,0.41 -0.66,0.6c-0.23,0.19 -0.47,0.37 -0.72,0.54c-0.24,0.160033 -0.49,0.310033 -0.75,0.45l6.55277e-07,-3.55097e-07c-0.259743,0.140756 -0.526787,0.267602 -0.8,0.38c-0.27,0.11 -0.54,0.21 -0.83,0.3l-5.30438e-07,1.68267e-07c-0.279171,0.0885593 -0.562915,0.161999 -0.849996,0.219999c-0.29,0.05 -0.59,0.1 -0.88,0.13c-0.3,0.03 -0.6,0.04 -0.9,0.04l-1.05,-0.06l-5.00369e-07,-5.83859e-08c-0.452575,-0.0528091 -0.900516,-0.139723 -1.34,-0.26l-2.39531e-07,-6.36334e-08c-0.434776,-0.115502 -0.859494,-0.265993 -1.27,-0.449999l5.53167e-07,2.50467e-07c-0.405533,-0.18362 -0.796642,-0.39756 -1.17,-0.64l-4.13209e-07,-2.68911e-07c-0.373647,-0.243165 -0.731068,-0.510396 -1.07,-0.799997l-2.04273e-07,-1.78931e-07c-0.335531,-0.293905 -0.649662,-0.611378 -0.94,-0.95l-8.28729e-08,-9.69073e-08c-0.358964,-0.419754 -0.309684,-1.05103 0.110071,-1.40999c0.419725,-0.358939 1.05095,-0.309694 1.40993,0.109995l1.53462e-07,1.79177e-07c0.228743,0.267072 0.476022,0.517693 0.74,0.75l-2.36158e-07,-1.99865e-07c0.263846,0.223297 0.541024,0.430346 0.83,0.62l-3.67221e-07,-2.3979e-07c0.288975,0.188697 0.593393,0.352614 0.909998,0.489999l4.53381e-07,2.00132e-07c0.317753,0.140263 0.645283,0.257238 0.98,0.35l2.05426e-07,6.12734e-08c0.339136,0.101156 0.687535,0.168155 1.04,0.2l0.61,0.05" transform="translate(1.94492, 1.9856)"></path></g></svg>