<svg xmlns="http://www.w3.org/2000/svg" xmlns:xlink="http://www.w3.org/1999/xlink" version="1.1" x="0px" y="0px" viewBox="0 0 100 100" style="enable-background:new 0 0 100 100;" xml:space="preserve"><g><path d="M75.2529297,40.9072266c-0.4477539-0.2724609-0.7460938-0.7724609-0.7460938-1.296875v-2.7851562   c0-0.12146,0.0183716-0.2379761,0.0456543-0.3511353c-1.4376831-0.0776367-3.0778198-0.3049927-4.9714355-0.6078491   c-2.8852539,2.9101562-9.4868164,6.1171875-17.855957,1.1650391c-2.9404297,2.0361328-5.7158203,2.7626953-8.1796875,2.7626953   c-4.7583008,0.0009766-8.3535156-2.7099609-9.7363281-3.9365234c-0.4296875,0.0732422-0.855957,0.1484375-1.2763672,0.2216797   c-0.9856567,0.1725464-1.9397583,0.3379517-2.8537598,0.4724731c0.0164795,0.0889893,0.0275879,0.1799316,0.0275879,0.2736206   v2.7851562c0,0.5771484-0.3310547,1.1035156-0.8515625,1.3525391c-0.0820312,0.0458984-2.7294922,1.5429688-2.7294922,7.5341797   v26.5390625c0.199707,1.1660156,2.8056641,12.9726562,25.9814453,12.9726562   c23.1289062,0,25.7705078-11.7597656,25.980957-12.9755859V48.4970703   C78.0878906,42.6953125,75.3686523,40.9775391,75.2529297,40.9072266z"></path><path d="M30.3681641,16.3173828c0,1.2548828,7.4604492,4.3251953,21.2890625,4.3251953s21.2890625-3.0703125,21.2890625-4.3251953   c0-1.2558594-7.4604492-4.3261719-21.2890625-4.3261719S30.3681641,15.0615234,30.3681641,16.3173828z"></path><path d="M51.6572266,26.4677734c13.8286133,0,21.2890625-3.0703125,21.2890625-4.3251953V20.118042   c-5.0117188,2.7037964-15.1477051,3.5245361-21.2890625,3.5245361s-16.2773438-0.8207397-21.2890625-3.5245361v2.0245361   C30.3681641,23.3974609,37.8286133,26.4677734,51.6572266,26.4677734z"></path><path d="M24.4155273,28.5478516c-0.809082,2.1074219-0.6806641,4.1494141-0.0976562,4.8339844   c0.8095703,0.9482422,4.628418,0.2783203,7.6972656-0.2578125c0.6679688-0.1171875,1.3500977-0.2363281,2.0390625-0.3496094   c0.4980469-0.0791016,1.0058594,0.09375,1.3481445,0.4667969c0.2753906,0.296875,6.9306641,7.2773438,15.3388672,0.7949219   c0.5048828-0.3916016,1.2011719-0.4160156,1.7348633-0.0693359c9.5693359,6.234375,15.1474609-0.3769531,15.3808594-0.6621094   c0.3398438-0.4140625,0.8730469-0.6152344,1.4038086-0.5302734c4.5341797,0.7441406,7.6171875,1.1513672,9.1298828,0.0859375   c0.6835938-0.4814453,0.9882812-1.4423828,0.8349609-2.6357422c-0.225708-1.763855-1.5430298-4.1747437-4.4387817-5.5893555   c-3.8026733,3.7559814-16.0911865,4.8325195-23.1295776,4.8325195c-7.1286011,0-19.6436768-1.1040649-23.2722778-4.9781494   C25.9829712,25.1709595,24.8175049,27.5015869,24.4155273,28.5478516z"></path></g></svg>