<svg xmlns="http://www.w3.org/2000/svg" xmlns:xlink="http://www.w3.org/1999/xlink" version="1.1" x="0px" y="0px" viewBox="0 0 100 100" style="enable-background:new 0 0 100 100;" xml:space="preserve"><g><path d="M15.124,9.479V2.064C15.124,0.926,16.05,0,17.188,0h65.624c1.138,0,2.064,0.926,2.064,2.064v7.415   c0,1.139-0.927,2.064-2.064,2.064H17.188C16.05,11.544,15.124,10.618,15.124,9.479z M25.467,100h49.932   c1.873,0,3.482-1.152,4.158-2.785H21.308C21.983,98.848,23.592,100,25.467,100z M89.62,38.249v44.815   c0,11.827-7.843,12.266-8.247,12.279h-62.74c-0.493-0.019-8.252-0.516-8.252-12.279V38.249c0-4.777,2.472-6.966,5.088-9.282   c2.185-1.935,4.644-4.115,4.893-7.758h59.277c0.248,3.643,2.708,5.823,4.893,7.758C87.148,31.283,89.62,33.472,89.62,38.249z    M78.527,46.812c-9.221-2.401-18.721-3.618-28.253-3.618c-9.533,0-19.031,1.217-28.254,3.618v28.417   c9.223,2.4,18.721,3.617,28.254,3.617c9.532,0,19.032-1.217,28.253-3.617V46.812z M20.306,15.094c-0.701,0-1.269,0.568-1.269,1.269   c0,0.701,0.568,1.269,1.269,1.269h59.389c0.7,0,1.269-0.568,1.269-1.269c0-0.701-0.568-1.269-1.269-1.269H20.306z"></path></g></svg>