<svg xmlns="http://www.w3.org/2000/svg" xmlns:xlink="http://www.w3.org/1999/xlink" version="1.1" x="0px" y="0px" viewBox="0 0 100 100" style="enable-background:new 0 0 100 100;" xml:space="preserve"><g><path d="M25.8,90.6l12.3,3.9c0.2,0.1,0.4,0.1,0.6,0.1c0.4,0,0.7-0.1,1.1-0.3c0.5-0.3,0.8-0.8,0.9-1.4l5.2-36.6L50,42.6l4.2,13.7   l5.1,36.5c0.1,0.6,0.4,1.1,0.9,1.4s1.1,0.4,1.7,0.2l12.3-3.9c0.9-0.3,1.4-1.1,1.4-2l-3.2-77.2l0,0c0-0.1,0-0.2,0-0.2l-1-4   c-0.2-1-1-1.7-2-1.7H31.3c-1,0-1.8,0.7-2,1.7l-1,4c0,0.1,0,0.2,0,0.2l0,0l-3.9,77.2C24.4,89.5,24.9,90.3,25.8,90.6z M68.5,13.5   l0.3,6.1c-2.7-1-4.7-3.3-5.2-6.1H68.5z M48,12.5h3v11.7h-3V12.5z M32.2,13.5h4.3c-0.5,2.6-2.2,4.8-4.5,5.8L32.2,13.5z"></path></g></svg>