<svg xmlns="http://www.w3.org/2000/svg" xmlns:xlink="http://www.w3.org/1999/xlink" version="1.1" x="0px" y="0px" viewBox="0 0 100 100" style="enable-background:new 0 0 100 100;" xml:space="preserve"><g><path d="M67.6,15.5c0.9,1,2.2,1.6,3.7,1.8l-0.5-7l-5-0.1C65.9,11.2,66,13.8,67.6,15.5z"></path></g><g><path d="M34.5,14.4c1.4-1.5,1.7-3.6,1.8-4.6l-4.5-0.1l-0.5,6.1C32.6,15.7,33.7,15.3,34.5,14.4z"></path></g><g><path d="M50,21.9c0.3,0.3,0.6,0.5,0.9,0.6l0-12.5L48,10C47.9,12,47.8,19.5,50,21.9z"></path></g><g><path d="M71.4,18.3c-1.9-0.2-3.4-0.9-4.6-2.1c-2.3-2.6-1.9-6.4-1.9-6.6l0-0.5l5.9,0.1L70.9,3L32.1,2.6l-0.1,4.4l-0.2,1.9l5.4,0.1   l0,0.5c0,0.1,0.1,3.6-2.1,5.8c-1,1-2.4,1.7-4,1.8l-6.8,77.9l14.6,2.6l11.8-67.2l10.8,67.4l14.6-2.3L71.4,18.3z M48.4,4.9   c0.7-0.6,1.7-0.6,2.4,0c0.6,0.6,0.6,1.8,0,2.4c-0.6,0.6-1.5,0.6-2.2,0.1c-0.1,0-0.1-0.1-0.2-0.1c-0.1-0.1-0.1-0.1-0.1-0.2   C47.7,6.4,47.7,5.5,48.4,4.9z M63.9,10.1L51.8,10l0,13.5l-0.5,0c-0.8,0-1.4-0.3-2-0.9C46.8,19.9,47,12.1,47,10l-8.8-0.1l0-1   l25.7,0.2L63.9,10.1z"></path></g></svg>