<svg xmlns="http://www.w3.org/2000/svg" xmlns:xlink="http://www.w3.org/1999/xlink" version="1.1" x="0px" y="0px" viewBox="0 0 100 100" style="enable-background:new 0 0 100 100;" xml:space="preserve"><style type="text/css">
	.st0{fill:#010101;}
</style><path class="st0" d="M71.4,10.8 M71.6,5.8 M27.8,5.8 M25.1,93.2l19,4.4l0.2-2.9l-19-4.2L25.1,93.2z M74.5,93.2l-0.2-2.7l-19,4.2  l0.2,2.9L74.5,93.2z M74.2,88.7l-0.2,0l-18.9,4.2l-2.5-35.2L49.9,25h-0.2l-2.8,32.9l-2.5,34.8l-19-4.1l1.9-30.4l1.3-36.5l1.2-15.3  c6.2,0.7,13,1.1,19.9,1.1c6.9,0,13.6-0.4,19.7-1.1L70.6,21l1.6,37.3L74.2,88.7z M41.5,12h-1.5c0,4-3.1,7.5-8.1,7.5v1.6  C38,21.1,41.5,17,41.5,12z M68,19.5c-5,0-8.1-3.5-8.1-7.5h-1.5c0,5,3.6,9.1,9.6,9.1V19.5z M69.3,4.6L69.1,2h-1.5  c-5.5,0-11.6,0.9-17.9,0.9S37.5,2,31.9,2h-1.7L30,4.6c6.2,0.7,12.9,1.1,19.8,1.1C56.6,5.7,63.2,5.3,69.3,4.6z"></path></svg>