<svg xmlns="http://www.w3.org/2000/svg" xmlns:xlink="http://www.w3.org/1999/xlink" version="1.1" x="0px" y="0px" viewBox="0 0 100 100" enable-background="new 0 0 100 100" xml:space="preserve"><circle cx="11.291" cy="32.428" r="5.225"></circle><circle cx="49.819" cy="18.019" r="6.46"></circle><circle cx="88.709" cy="32.019" r="5.225"></circle><path d="M26.89,88.443c0,0-0.93-6.408-3.716-10.123c0,0,5.201,1.301,7.895,3.623c0,0,1.949-2.787,1.578-5.48  c0,0,3.809,2.508,4.923,5.154c0,0,0.185-1.811,1.856-2.832s2.322-2.322,2.322-2.322s1.672,2.508,2.879,3.158  s1.672,1.996,1.672,1.996s3.342-2.646,3.063-5.154c0,0,2.322,3.809,4.18,5.154c0,0,1.486-3.018,3.993-5.154  c0,0,1.857,2.787,2.973,5.154c0,0,1.207-3.762,4.458-5.154c0,0-0.094,4.273,1.392,5.154c0,0,1.51-1.104,2.136-2.67  c0.628-1.566,2.021-2.484,2.021-2.484s-0.645,4.32,0.332,5.619c0,0,3.817-4.863,8.172-5.619c0,0-4.743,7.824-4.743,11.98H26.89z"></path><path d="M30.725,80.441c0.496-0.932,1.186-2.561,0.973-4.098l-0.256-1.867l1.574,1.037c0.132,0.088,2.664,1.77,4.274,3.908  c0.337-0.561,0.841-1.145,1.589-1.604c1.423-0.869,1.998-1.963,2.004-1.973l0.658-1.318l0.817,1.227  c0.601,0.9,1.831,2.479,2.571,2.879c0.684,0.367,1.173,0.904,1.504,1.385c0.938-0.934,2.117-2.432,1.977-3.695l-0.424-3.824  l2.004,3.283c0.02,0.033,1.673,2.729,3.214,4.266c0.664-1.111,1.928-2.98,3.675-4.469l0.732-0.625l0.534,0.801  c0.061,0.09,1.188,1.787,2.217,3.668c0.739-1.322,2.059-3.078,4.164-3.98l1.219-0.521l-0.026,1.326  c-0.03,1.439,0.201,3.115,0.609,3.939c0.424-0.412,0.972-1.049,1.27-1.791c0.719-1.797,2.278-2.838,2.346-2.881l1.595-1.051  l-0.28,1.891c-0.187,1.254-0.257,2.738-0.15,3.785c0.93-0.98,2.421-2.375,4.208-3.422c2.198-4.92,3.067-10.494,3.331-15.42  c0.388-7.238,6.988-20.572,8.212-22.988c-2.155-0.355-3.865-2.025-4.275-4.162c-15.13,8.514-23.27,24.869-23.27,24.869  s1.521-8.692,0-16.292c-1.275-6.379-5.226-14.761-6.464-17.292c-0.903,0.481-1.935,0.756-3.031,0.756  c-1.082,0-2.1-0.269-2.995-0.739c-0.343,1.959-1.43,7.468-3.85,14.425c-3.04,8.74-1.71,18.05-1.71,18.05  c-7.969-18.989-21.071-24.055-23.803-24.927c0.031,0.23,0.053,0.464,0.053,0.702c0,2.014-1.141,3.759-2.81,4.631  c1.174,1.653,4.471,7.249,5.525,19.12c0.737,8.309,4.212,16.047,7.056,21.162C28.445,79.098,29.679,79.707,30.725,80.441z"></path></svg>