<svg xmlns:dc="http://purl.org/dc/elements/1.1/" xmlns:cc="http://creativecommons.org/ns#" xmlns:rdf="http://www.w3.org/1999/02/22-rdf-syntax-ns#" xmlns:svg="http://www.w3.org/2000/svg" xmlns="http://www.w3.org/2000/svg" xmlns:sodipodi="http://sodipodi.sourceforge.net/DTD/sodipodi-0.dtd" xmlns:inkscape="http://www.inkscape.org/namespaces/inkscape" version="1.1" x="0px" y="0px" viewBox="0 0 100 100"><g transform="translate(0,-952.36218)"><path d="m 49.999963,956.36224 c -3.3018,0 -5.9999,2.69814 -5.9999,6 0,1.56353 0.6062,2.9921 1.5938,4.0625 -2.5195,0.20974 -4.5934,0.99966 -6.0624,2.46875 -1.7357,1.7357 -2.5312,4.30206 -2.5312,7.46875 -2.0487,0.0806 -4.5237,0.60349 -6.0937,1.68745 -1.6477,1.17533 -2.5268,2.94564 -3.0312,5.06253 -2.0643,12.0165 -4.1633,24.04368 -6.2499,36.06238 -0.7859,4.0971 -1.0792,8.0372 0.625,11.1563 1.6096,2.9459 5.0361,4.8015 10.7498,5 l 0,1.0184 c -1.9999,10e-5 -3.9999,2.0001 -3.9999,4.0128 l 0,7 c 10e-5,0.5236 0.4764,1 1,1 l 39.9993,0 c 0.5236,0 0.9999,-0.4764 1,-1 l 0,-7 c 0,-2.0127 -2,-4.0127 -4,-4.0127 l 0,-1.0185 c 5.7137,-0.1985 9.1403,-2.0541 10.7498,-5 1.7043,-3.1191 1.411,-7.0592 0.625,-11.1563 l -6.2499,-35.99988 c -0.4479,-2.32465 -1.6248,-4.08461 -3.0312,-5.12503 -1.4696,-1.04825 -3.4284,-1.5559 -6.0936,-1.65625 -0.11,-2.98287 -0.8912,-5.79517 -2.5312,-7.49995 -1.4691,-1.46909 -3.5429,-2.25902 -6.0624,-2.46875 0.9876,-1.0704 1.5937,-2.49897 1.5937,-4.0625 0,-3.30186 -2.6981,-6 -5.9999,-6 z m 0,2 c 2.221,0 4,1.77902 4,4 0,2.22098 -1.779,4 -4,4 -2.2209,0 -3.9999,-1.77902 -3.9999,-4 0,-2.22098 1.779,-4 3.9999,-4 z m -2.9999,10 5.9999,0 c 2.8333,-3e-5 4.7669,0.67321 6.0311,1.9375 0.9428,0.94275 1.5835,2.27105 1.8437,4.0625 l -21.7496,0 c 0.2602,-1.79145 0.901,-3.11974 1.8437,-4.0625 1.2643,-1.2643 3.1979,-1.93753 6.0312,-1.9375 z m -9.9998,10.03125 c -9e-4,2.66521 0,5.31053 0,7.96863 0,0.8013 0.2571,1.535 0.7187,2.125 -7.4479,11.70538 -6.6194,24.47398 0.6562,36.15618 -0.5434,0.1382 -1.0496,0.3364 -1.4999,0.5938 -1.1065,0.6323 -1.875,1.7916 -1.875,3.125 l 0,3 c -0.8632,0.3565 -1.5041,1.2169 -1.8125,1.9687 -5.3804,-0.1457 -7.9549,-1.6819 -9.1873,-3.9375 -1.2953,-2.3707 -1.1627,-5.9001 -0.4062,-9.8438 2.0739,-12.0082 4.1649,-24.02178 6.2498,-36.03108 0.4457,-1.83064 1.0816,-3.03264 2.2188,-3.84378 1.7965,-0.88062 3.4155,-1.20487 4.9374,-1.28115 z m 25.9995,0 c 2.3607,0.1036 3.926,0.55982 4.9374,1.28125 1.1372,0.81114 1.773,2.01314 2.2187,3.84378 2.0468,12.0158 4.2264,24.01438 6.2499,36.03108 0.7565,3.9437 0.8891,7.4731 -0.4062,9.8438 -1.2325,2.2556 -3.8069,3.7918 -9.1874,3.9375 -0.3264,-0.8382 -1.0531,-1.4611 -1.8124,-1.9063 1e-4,-1.015 0,-2.043 0,-3.0625 0,-1.3333 -0.7685,-2.4927 -1.875,-3.125 -0.4504,-0.2573 -0.9565,-0.4555 -1.5,-0.5937 7.2757,-11.6822 8.1041,-24.4508 0.6563,-36.15618 0.4616,-0.59 0.7187,-1.3238 0.7187,-2.125 0,-2.6636 0,-5.29936 0,-7.96873 z m -23.9996,5.96873 21.9996,0 0,2 c -0.3992,1.8316 -2.5694,1.99 -3.9999,2 l -13.9997,0 c -1.9423,0.01 -3.4326,-0.479 -4,-2 z m 0.375,5.3125 c 1.0215,0.4574 2.2417,0.6875 3.625,0.6875 l 13.9997,0 c 1.3833,0 2.6035,-0.2301 3.6249,-0.6875 7.1576,11.33018 6.2022,23.34358 -1.2187,34.71868 -1.7595,-0.078 -3.6107,-0.031 -5.4061,-0.031 l 0,-5 c 0,-0.4316 -0.3046,-0.8473 -0.7188,-0.9687 0.566,-0.3407 1.0976,-0.7538 1.5625,-1.2188 1.2821,-1.2821 2.1562,-2.9791 2.1562,-4.8125 0,-2.25 -0.7907,-4.8627 -1.9687,-7.2187 -1.178,-2.356 -2.7127,-4.4543 -4.4687,-5.62498 -0.2243,-0.1558 -0.5142,-0.2138 -0.7812,-0.1562 -0.4472,0.1001 -0.7923,0.5419 -0.7812,0.99998 0,1.5 -1.3232,3.6713 -2.8125,5.7812 -1.265,1.9332 -3.1522,4.0152 -3.1874,6.2187 0,1.8334 0.8741,3.5304 2.1562,4.8125 0.4649,0.465 0.9965,0.8781 1.5624,1.2188 -0.4141,0.1214 -0.7226,0.5371 -0.7187,0.9687 l 0,5 c -1.7781,0.01 -3.6689,-0.027 -5.4061,0.031 -7.4209,-11.3751 -8.3763,-23.3885 -1.2188,-34.71868 z m 8.6249,30.68748 3.9999,0 0,4 -3.9999,0 z m -8.9999,12 21.9996,0 c 1.8098,0.078 3.4604,0.595 4,2 l 0,2 -29.9995,0 0,-2 c 0.6391,-1.6305 2.0476,-1.9866 3.9999,-2 z m -3.9999,6 29.9995,0 c 1.9999,-0.013 3.9999,-0.013 3.9999,2 l 0,6 -37.9993,0 0,-6 c 0,-2.0128 1.9999,-2.0128 3.9999,-2 z" style="text-indent:0;text-transform:none;direction:ltr;block-progression:tb;baseline-shift:baseline;color:#000000;enable-background:accumulate;" fill="#000000" fill-opacity="1" stroke="none" marker="none" visibility="visible" display="inline" overflow="visible"></path></g></svg>