<svg xmlns="http://www.w3.org/2000/svg" xmlns:xlink="http://www.w3.org/1999/xlink" version="1.1" x="0px" y="0px" viewBox="0 0 90 90" enable-background="new 0 0 90 90" xml:space="preserve"><g><g><path d="M50.273,24.928H39.725c-6.079,0-13.759,3.474-13.759,9.552v34.402c0,6.079,7.681,9.553,13.759,9.553h10.549    c6.079,0,13.761-3.474,13.761-9.553V34.48C64.034,28.401,56.353,24.928,50.273,24.928z M25.965,68.882    c0,6.079,7.681,9.553,13.759,9.553 M39.725,24.928c-6.079,0-13.759,3.474-13.759,9.552 M60.105,65.33    c0,4.825-6.096,8.735-10.921,8.735h-8.37c-4.826,0-10.92-3.91-10.92-8.735V38.031c0-4.823,6.094-8.736,10.92-8.736h8.37    c4.825,0,10.921,3.913,10.921,8.736V65.33z"></path><path d="M50.273,78.736H39.725c-5.895,0-14.06-3.424-14.06-9.854V34.48c0-6.429,8.165-9.853,14.06-9.853h10.549    c5.895,0,14.063,3.424,14.063,9.853v34.402C64.336,75.313,56.168,78.736,50.273,78.736z M39.725,78.134h10.549    c5.644,0,13.46-3.215,13.46-9.252V34.48c0-6.037-7.816-9.252-13.46-9.252H39.725c-5.642,0-13.459,3.215-13.459,9.252v34.402    C26.266,74.919,34.083,78.134,39.725,78.134z M49.185,74.367h-8.37c-5.083,0-11.221-4.031-11.221-9.037V38.031    c0-5.006,6.139-9.037,11.221-9.037h8.37c5.082,0,11.222,4.031,11.222,9.037V65.33C60.406,70.336,54.267,74.367,49.185,74.367z     M40.815,29.596c-4.78,0-10.619,3.892-10.619,8.435V65.33c0,4.543,5.839,8.434,10.619,8.434h8.37    c4.78,0,10.619-3.891,10.619-8.434V38.031c0-4.542-5.839-8.435-10.619-8.435H40.815z"></path></g><g><rect x="36.445" y="20.31" width="17.107" height="5.279"></rect><path d="M53.553,25.953H36.445c-0.201,0-0.363-0.163-0.363-0.364V20.31c0-0.2,0.163-0.364,0.363-0.364h17.107    c0.201,0,0.364,0.164,0.364,0.364v5.279C53.917,25.791,53.754,25.953,53.553,25.953z M36.81,25.225h16.378v-4.551H36.81V25.225z"></path></g><path d="M45,1.514c-5.831,0-10.554,4.726-10.554,10.556c0,5.829,4.723,10.556,10.554,10.556c5.831,0,10.555-4.727,10.555-10.556   C55.555,6.24,50.831,1.514,45,1.514z M45,19.82c-4.281,0-7.75-3.47-7.75-7.75c0-4.281,3.469-7.75,7.75-7.75   c4.281,0,7.752,3.469,7.752,7.75C52.752,16.35,49.281,19.82,45,19.82z"></path><g><path d="M63.018,88.311c0-9.95-8.068-18.018-18.018-18.018c-9.952,0-18.017,8.067-18.017,18.018H63.018z"></path><path d="M63.018,88.674H26.983c-0.201,0-0.365-0.163-0.365-0.363c0-10.137,8.246-18.381,18.381-18.381    c10.137,0,18.381,8.244,18.381,18.381C63.381,88.511,63.219,88.674,63.018,88.674z M27.351,87.946h35.298    c-0.194-9.567-8.036-17.29-17.648-17.29S27.545,78.379,27.351,87.946z"></path></g><rect x="38.631" y="29.295" width="12.554" height="5.151"></rect><rect x="38.631" y="67.477" width="12.554" height="5.152"></rect><g><g><g><path d="M49.185,62.931h-8.37c-4.826,0-8.738-3.911-8.738-8.734v4.697c0,4.824,3.912,8.736,8.738,8.736h8.37      c4.825,0,8.734-3.912,8.734-8.736v-4.697C57.919,59.02,54.01,62.931,49.185,62.931z"></path><path d="M49.185,68.358h-8.37c-5.219,0-9.465-4.246-9.465-9.465v-4.697h1.456c0,4.415,3.594,8.008,8.01,8.008h8.37      c4.416,0,8.008-3.593,8.008-8.008h1.456v4.697C58.648,64.112,54.403,68.358,49.185,68.358z M32.813,59.247      c0.186,4.252,3.704,7.655,8.001,7.655h8.37c4.297,0,7.815-3.402,8.001-7.655c-1.679,2.649-4.637,4.412-8.001,4.412h-8.37      C37.452,63.659,34.492,61.896,32.813,59.247z"></path></g><g><path d="M49.185,34.903h-8.37c-4.826,0-8.738,3.912-8.738,8.736v4.7c0-4.827,3.912-8.738,8.738-8.738h8.37      c4.825,0,8.734,3.911,8.734,8.738v-4.7C57.919,38.815,54.01,34.903,49.185,34.903z"></path><path d="M58.648,48.34h-1.456c0-4.416-3.592-8.01-8.008-8.01h-8.37c-4.416,0-8.01,3.594-8.01,8.01H31.35v-4.7      c0-5.22,4.246-9.464,9.465-9.464h8.37c5.219,0,9.464,4.244,9.464,9.464V48.34z M40.815,35.631c-4.299,0-7.818,3.404-8.001,7.657      c1.678-2.65,4.638-4.414,8.001-4.414h8.37c3.364,0,6.322,1.763,8.001,4.413c-0.186-4.253-3.702-7.657-8.001-7.657H40.815z"></path></g></g><g><line x1="32.077" y1="48.34" x2="32.077" y2="54.196"></line><rect x="31.35" y="48.34" width="1.456" height="5.856"></rect></g><g><line x1="57.919" y1="48.34" x2="57.919" y2="54.196"></line><rect x="57.192" y="48.34" width="1.456" height="5.856"></rect></g></g><circle fill="#000000" cx="44.908" cy="31.871" r="0.942"></circle><circle fill="#000000" cx="41.269" cy="31.871" r="0.942"></circle><path fill="#000000" d="M38.676,30.983c0.362,0.133,0.622,0.479,0.622,0.888c0,0.407-0.256,0.754-0.619,0.886"></path><path fill="#000000" d="M51.129,30.983c-0.36,0.133-0.623,0.479-0.623,0.888c0,0.407,0.261,0.754,0.622,0.886"></path><path fill="#000000" d="M49.49,31.871c0,0.52-0.421,0.941-0.943,0.941c-0.518,0-0.943-0.421-0.943-0.941   c0-0.521,0.426-0.943,0.943-0.943C49.069,30.928,49.49,31.351,49.49,31.871z"></path><g><path d="M34.673,61.71c-0.402,0-0.739-0.114-0.989-0.362l1.176-1.179c-0.063-0.064-0.128-0.085-0.147-0.088    c0.808,0.142,5.237-2.475,11.783-9.024c6.55-6.547,9.144-10.972,9.022-11.784c0.003,0.02,0.025,0.085,0.09,0.148l1.175-1.177    c0.876,0.874,0.317,2.598-1.811,5.59c-1.746,2.458-4.338,5.442-7.297,8.401C45.953,53.955,38.016,61.709,34.673,61.71z"></path></g><g><path d="M55.951,61.71c-3.341,0-11.279-7.755-13-9.476c-4.734-4.734-9.511-10.571-9.509-12.938c0-0.54,0.219-0.87,0.402-1.053    l1.175,1.178c0.064-0.063,0.085-0.129,0.089-0.148c-0.122,0.812,2.473,5.235,9.021,11.784c6.55,6.554,10.938,9.159,11.785,9.024    c-0.021,0.003-0.086,0.023-0.147,0.088l1.175,1.177C56.691,61.596,56.354,61.709,55.951,61.71z"></path></g><g><line fill="#000000" x1="35.825" y1="22.626" x2="51.691" y2="22.626"></line><path fill="#000000" d="M51.691,23.378H36.069c0-0.752,0-0.336,0-0.752s0,0,0-0.752h15.622c0.415,0,0.752,0.336,0.752,0.752    S52.106,23.378,51.691,23.378z"></path></g><g><line fill="#000000" x1="26.423" y1="83.422" x2="58.987" y2="83.422"></line><path fill="#000000" d="M58.987,84.927H26.931c0.347-1.505,0.095-0.714,0.347-1.505c0.365-1.146,0,0,0.487-1.504h31.222    c0.831,0,1.504,0.673,1.504,1.504S59.818,84.927,58.987,84.927z"></path></g></g><g><path d="M-41.465-71.356v46.328c0,11.328,9.182,20.507,20.511,20.507c11.324,0,20.507-9.179,20.507-20.507v-46.328H-41.465z"></path><path d="M-41.465-71.356h-0.912v46.328c0.001,11.83,9.589,21.419,21.423,21.419c11.828,0,21.419-9.589,21.42-21.419v-47.239   h-42.843v0.911H-41.465v0.913H-1.36v45.415c0,5.413-2.19,10.308-5.737,13.855c-3.549,3.549-8.444,5.74-13.856,5.74   c-5.416,0-10.31-2.191-13.859-5.74c-3.547-3.548-5.739-8.442-5.739-13.855v-46.328H-41.465v0.913V-71.356z"></path><circle fill="#000000" cx="-20.956" cy="-25.096" r="17.253"></circle><path fill="#000000" d="M-3.703-25.096h-0.911c0,4.515-1.828,8.593-4.785,11.555c-2.961,2.958-7.04,4.784-11.555,4.784   c-4.517,0-8.597-1.826-11.558-4.784c-2.958-2.962-4.785-7.04-4.785-11.555c0-4.516,1.827-8.596,4.785-11.555   c2.961-2.958,7.041-4.786,11.558-4.786c4.515,0,8.594,1.828,11.555,4.786c2.957,2.959,4.785,7.04,4.785,11.555H-3.703h0.912   c-0.001-10.033-8.132-18.165-18.163-18.166c-10.035,0.001-18.167,8.133-18.167,18.166c0,10.032,8.132,18.163,18.167,18.163   c10.032,0,18.162-8.131,18.163-18.163H-3.703z"></path><path d="M-10.552-37.19l-22.1,22.101c-0.355,0.357-0.355,0.935,0,1.289c0.356,0.358,0.934,0.358,1.29,0L-9.259-35.9   c0.355-0.356,0.355-0.934,0-1.291C-9.617-37.546-10.193-37.546-10.552-37.19"></path><path d="M-17.307-38.316l-16.469,16.468c-0.356,0.358-0.356,0.938,0,1.291c0.356,0.357,0.934,0.357,1.29,0l16.469-16.469   c0.355-0.357,0.355-0.935,0-1.29C-16.374-38.673-16.95-38.673-17.307-38.316"></path><path d="M-24.063-39.442l-10.84,10.838c-0.355,0.357-0.355,0.935,0,1.289c0.356,0.357,0.934,0.357,1.29,0l10.84-10.838   c0.356-0.356,0.356-0.934,0-1.29C-23.129-39.798-23.707-39.798-24.063-39.442"></path><path d="M-9.424-30.432l-16.47,16.47c-0.356,0.353-0.356,0.931,0,1.289c0.355,0.354,0.933,0.354,1.289,0l16.47-16.47   c0.357-0.357,0.357-0.935,0-1.289C-8.489-30.789-9.067-30.789-9.424-30.432"></path><path d="M-8.3-23.678l-10.838,10.844c-0.356,0.354-0.356,0.932,0,1.29c0.357,0.354,0.934,0.354,1.29,0L-7.01-22.389   c0.355-0.357,0.355-0.935,0-1.289C-7.366-24.035-7.943-24.035-8.3-23.678"></path><path fill="#000000" d="M-32.331-36.474c-0.739,0.741-0.739,1.941,0,2.683l20.07,20.067c0.74,0.741,1.938,0.741,2.679,0   c0.743-0.743,0.743-1.94,0-2.682l-20.064-20.069C-30.389-37.213-31.589-37.214-32.331-36.474z"></path><path d="M-32.331-36.474l-0.645-0.645c-0.546,0.546-0.822,1.271-0.822,1.986c0,0.714,0.276,1.441,0.822,1.987l20.069,20.069   c0.546,0.546,1.269,0.822,1.984,0.819c0.714,0.003,1.438-0.273,1.984-0.819c0.549-0.548,0.827-1.272,0.826-1.987   c0.001-0.719-0.281-1.441-0.827-1.988l-20.063-20.067l-0.001-0.001c-0.547-0.544-1.27-0.822-1.986-0.82   c-0.715-0.002-1.439,0.276-1.986,0.822l0,0L-32.331-36.474l0.646,0.646c0.195-0.195,0.439-0.288,0.695-0.288   c0.255,0,0.503,0.095,0.699,0.29l20.064,20.067l0,0c0.195,0.198,0.286,0.44,0.288,0.696c-0.002,0.253-0.094,0.5-0.289,0.695   c-0.196,0.195-0.441,0.286-0.695,0.291c-0.255-0.005-0.501-0.096-0.695-0.291l-20.064-20.064l-0.003-0.003   c-0.194-0.195-0.288-0.441-0.289-0.698c0.001-0.256,0.094-0.502,0.289-0.696l0,0L-32.331-36.474z"></path><path d="M-32.331-36.474c-0.739,0.741-0.739,1.941,0,2.683l10.034,10.036l2.683-2.685l-10.032-10.035   C-30.389-37.213-31.589-37.214-32.331-36.474z"></path><path d="M-32.331-36.474l-0.645-0.645c-0.546,0.546-0.822,1.271-0.822,1.986c0,0.714,0.276,1.441,0.822,1.987l10.678,10.68   l3.971-3.974L-29.003-37.12l0,0c-0.547-0.544-1.27-0.822-1.986-0.82c-0.715-0.002-1.439,0.276-1.986,0.822l0,0L-32.331-36.474   l0.646,0.646c0.195-0.195,0.439-0.288,0.695-0.288c0.255,0,0.503,0.095,0.699,0.29l9.387,9.388l-1.394,1.396l-9.388-9.391   c-0.194-0.195-0.288-0.441-0.289-0.698c0.001-0.256,0.094-0.502,0.289-0.696l0,0L-32.331-36.474z"></path><circle fill="#000000" cx="-20.956" cy="-25.097" r="1.898"></circle><path d="M-19.614-26.439l-0.645,0.645c0.192,0.195,0.287,0.441,0.287,0.696c0,0.258-0.095,0.506-0.29,0.701l0.003-0.003   l-0.001,0.003c-0.196,0.193-0.442,0.286-0.697,0.288c-0.254-0.002-0.501-0.095-0.696-0.288h0.001h0.001   c-0.195-0.195-0.289-0.443-0.29-0.701c0.001-0.255,0.094-0.503,0.288-0.696h0c0.195-0.193,0.442-0.288,0.696-0.288   c0.255,0,0.501,0.095,0.697,0.288l0,0L-19.614-26.439l0.645-0.645c-0.546-0.546-1.271-0.823-1.986-0.823   c-0.716,0-1.439,0.277-1.985,0.823h-0.001c-0.545,0.547-0.822,1.271-0.82,1.985c-0.001,0.718,0.274,1.441,0.819,1.988h-0.001   l0.004,0.002c0.546,0.546,1.269,0.823,1.985,0.819c0.716,0.004,1.44-0.273,1.986-0.819l0.001-0.002   c0.546-0.547,0.822-1.271,0.821-1.988c0.001-0.715-0.275-1.438-0.822-1.985l-0.007-0.009l0.007,0.009L-19.614-26.439z"></path><path fill="#000000" d="M-42.397-41.375h5.033c0.504,0,0.913-0.409,0.913-0.913c0-0.503-0.409-0.912-0.913-0.912h-5.033   c0,0.851,0,0.347,0,0.851S-42.397-42.349-42.397-41.375"></path><path fill="#000000" d="M-42.377-46.731h2.958c0.503,0,0.912-0.409,0.912-0.912s-0.409-0.913-0.912-0.913h-2.958   c0,0.935,0,0.432,0,0.935C-42.377-47.117-42.423-47.893-42.377-46.731"></path><path fill="#000000" d="M-42.377-57.638h2.958c0.503,0,0.912-0.409,0.912-0.912c0-0.503-0.409-0.912-0.912-0.912h-2.958   c0,0.935,0,0.431,0,0.935C-42.377-58.024-42.377-58.527-42.377-57.638"></path><path fill="#000000" d="M-42.377-52.162h5.013c0.504,0,0.913-0.409,0.913-0.913c0-0.503-0.409-0.912-0.913-0.912h-5.013   c0,1.127,0,0.431,0,0.934C-42.377-52.549-42.377-52.549-42.377-52.162"></path><path fill="#000000" d="M-42.377-63.011h5.013c0.504,0,0.913-0.409,0.913-0.912c0-0.504-0.409-0.913-0.913-0.913h-5.013   c-0.022,0.722,0,0.409,0,0.913C-42.377-63.42-42.377-63.923-42.377-63.011"></path><path fill="#000000" d="M0.466-41.375h-5.032c-0.504,0-0.915-0.409-0.915-0.913c0-0.503,0.411-0.912,0.915-0.912h5.032   c0,0.851,0,0.347,0,0.851S0.466-42.349,0.466-41.375"></path><path fill="#000000" d="M0.444-46.731h-2.956c-0.505,0-0.914-0.409-0.914-0.912s0.409-0.913,0.914-0.913h2.956   c0,0.935,0,0.432,0,0.935C0.444-47.117,0.491-47.893,0.444-46.731"></path><path fill="#000000" d="M0.444-57.638h-2.956c-0.505,0-0.914-0.409-0.914-0.912c0-0.503,0.409-0.912,0.914-0.912h2.956   c0,0.935,0,0.431,0,0.935C0.444-58.024,0.444-58.527,0.444-57.638"></path><path fill="#000000" d="M0.444-52.162h-5.011c-0.504,0-0.915-0.409-0.915-0.913c0-0.503,0.411-0.912,0.915-0.912h5.011   c0,1.127,0,0.431,0,0.934C0.444-52.549,0.444-52.549,0.444-52.162"></path><path fill="#000000" d="M0.444-63.011h-5.011c-0.504,0-0.915-0.409-0.915-0.912c0-0.504,0.411-0.913,0.915-0.913h5.011   c0.023,0.722,0,0.409,0,0.913C0.444-63.42,0.444-63.923,0.444-63.011"></path><path fill="#000000" d="M-14.71-69.111l0.003-3.261c-0.913-0.017-0.408-0.017-0.913-0.017c-0.502,0,0,0-0.912,0.016l-0.001,3.261   c0,0.504,0.405,0.913,0.911,0.914C-15.118-68.199-14.71-68.607-14.71-69.111"></path><path fill="#000000" d="M-25.196-69.112v-3.261c-0.911-0.017-0.409-0.017-0.911-0.017c-0.504,0,0,0-0.913,0.017v3.261   c0,0.503,0.409,0.913,0.913,0.913C-25.604-68.199-25.196-68.608-25.196-69.112"></path><path fill="#000000" d="M-9.54-67.658l0.001-4.593c-0.912-0.016-0.408-0.016-0.912-0.016c-0.504,0,0,0-0.911,0.016l-0.003,4.593   c0,0.503,0.409,0.911,0.913,0.912C-9.951-66.746-9.54-67.154-9.54-67.658"></path><path fill="#000000" d="M-19.926-67.658v-4.593c-0.912-0.016-0.409-0.016-0.912-0.016c-0.504,0,0,0-0.913,0.016v4.593   c0,0.504,0.409,0.913,0.913,0.913C-20.335-66.745-19.926-67.154-19.926-67.658"></path><path fill="#000000" d="M-30.362-67.658v-4.593c-0.913-0.016-0.41-0.016-0.913-0.016c-0.503,0,0,0-0.913,0.016v4.593   c0,0.503,0.409,0.912,0.913,0.912C-30.772-66.746-30.362-67.155-30.362-67.658"></path><path fill="#000000" d="M-20.958-61.584c0,0,0.385,7.596-7.725,7.596h7.729h7.727c-8.111,0-7.725-7.596-7.725-7.596"></path><path fill="#000000" d="M-21.869-61.539l0,0.02l0,0.094c0.006,0.463-0.084,2.184-0.961,3.67c-0.438,0.747-1.055,1.441-1.973,1.967   c-0.919,0.522-2.157,0.886-3.881,0.887c-0.24,0-0.475,0.098-0.645,0.268c-0.169,0.169-0.268,0.404-0.268,0.645   c0,0.24,0.099,0.474,0.268,0.645c0.17,0.169,0.405,0.267,0.645,0.267h7.729h7.727c0.241,0,0.476-0.098,0.645-0.267   c0.171-0.171,0.269-0.405,0.269-0.645c0-0.241-0.098-0.476-0.269-0.645c-0.169-0.169-0.403-0.268-0.645-0.268   c-1.722,0-2.96-0.364-3.879-0.886c-1.371-0.784-2.093-1.964-2.495-3.1c-0.399-1.131-0.442-2.188-0.442-2.534l0.001-0.097l0-0.02   c0.026-0.503-0.36-0.932-0.864-0.957c-0.503-0.026-0.931,0.361-0.957,0.864l-0.004,0.21c0.005,0.638,0.077,2.635,1.212,4.59   c0.569,0.973,1.42,1.931,2.645,2.628c1.226,0.699,2.804,1.127,4.783,1.126c0.241,0,0.476-0.098,0.645-0.267   c0.171-0.171,0.269-0.405,0.269-0.645c0-0.241-0.098-0.476-0.269-0.645c-0.169-0.169-0.403-0.268-0.645-0.268h-7.727h-7.729   c-0.24,0-0.475,0.098-0.645,0.268c-0.169,0.169-0.268,0.404-0.268,0.645c0,0.24,0.099,0.474,0.268,0.645   c0.17,0.169,0.405,0.267,0.645,0.267c1.98,0,3.56-0.428,4.785-1.128c1.844-1.049,2.82-2.67,3.311-4.083   c0.497-1.418,0.543-2.658,0.544-3.138l-0.005-0.206c-0.025-0.504-0.454-0.89-0.956-0.865   C-21.507-62.47-21.894-62.041-21.869-61.539z"></path><polyline fill="#000000" points="-20.042,-42.349 -20.042,-53.192 -21.867,-53.192 -21.867,-42.349  "></polyline><path d="M-17.927-5.053c-0.002,1.673-1.356,3.025-3.027,3.028c-1.676-0.003-3.029-1.355-3.031-3.028h-1.825   c0,2.682,2.174,4.852,4.856,4.852c2.679,0,4.851-2.17,4.853-4.852H-17.927z"></path><path d="M-16.225,4.644c-0.5,0-0.905-0.403-0.907-0.906c0.002-0.497,0.407-0.904,0.907-0.904c0.503,0,0.911-0.408,0.911-0.911   c0-0.505-0.408-0.913-0.911-0.913c-1.506,0-2.73,1.221-2.731,2.729c0,1.509,1.225,2.727,2.731,2.73   c0.503,0,0.911-0.409,0.911-0.911C-15.313,5.054-15.722,4.644-16.225,4.644z"></path><path d="M-18.529-0.801h11.701c0.503,0,0.913-0.408,0.913-0.913c0-0.503-0.41-0.911-0.913-0.911h-11.701   c-0.504,0-0.913,0.408-0.913,0.911C-19.442-1.209-19.033-0.801-18.529-0.801"></path><path d="M-16.359,6.468h12.185c0.505,0,0.912-0.409,0.912-0.911c0-0.503-0.407-0.913-0.912-0.913h-12.185   c-0.503,0-0.912,0.41-0.912,0.913C-17.271,6.059-16.862,6.468-16.359,6.468"></path><path d="M-16.359,2.833h9.531c0.503,0,0.913-0.408,0.913-0.911c0-0.505-0.41-0.913-0.913-0.913h-9.531   c-0.503,0-0.912,0.408-0.912,0.913C-17.271,2.425-16.862,2.833-16.359,2.833"></path><path d="M-6.828-0.801c0.5,0,0.903,0.402,0.903,0.903c0,0.504-0.403,0.906-0.903,0.906c-0.503,0-0.913,0.408-0.913,0.913   c0,0.503,0.41,0.911,0.913,0.911c1.508,0,2.729-1.223,2.729-2.73c0-1.506-1.221-2.728-2.729-2.728   c-0.503,0-0.913,0.408-0.913,0.911C-7.741-1.209-7.331-0.801-6.828-0.801z"></path></g><g><rect x="81.327" y="-53.977" fill="#000000" stroke="#FD5A1C" stroke-width="1.6159" stroke-miterlimit="10" width="42.014" height="5.566"></rect><path fill="#000000" stroke="#FD5A1C" stroke-width="1.6159" stroke-miterlimit="10" d="M121.456-46.446h-17.237   c0,1.041-0.843,1.885-1.886,1.885c-1.04,0-1.886-0.845-1.886-1.885H83.212c0,1.041-0.844,1.885-1.885,1.885v2.334h42.014v-2.334   C122.3-44.561,121.456-45.406,121.456-46.446z"></path><line fill="#000000" stroke="#FFFFFF" stroke-width="1.0773" stroke-linecap="round" stroke-miterlimit="10" x1="83.93" y1="-45.729" x2="99.281" y2="-45.729"></line><line fill="#000000" stroke="#FFFFFF" stroke-width="1.0773" stroke-linecap="round" stroke-miterlimit="10" x1="105.566" y1="-45.729" x2="120.916" y2="-45.729"></line><g><circle fill="#000000" cx="85.187" cy="-52.541" r="0.628"></circle><circle fill="#000000" cx="88.958" cy="-49.847" r="0.628"></circle><circle fill="#000000" cx="92.728" cy="-52.541" r="0.629"></circle><circle fill="#000000" cx="96.499" cy="-49.847" r="0.628"></circle><circle fill="#000000" cx="100.269" cy="-52.541" r="0.628"></circle><circle fill="#000000" cx="104.04" cy="-49.847" r="0.628"></circle><circle fill="#000000" cx="107.811" cy="-52.541" r="0.628"></circle><circle fill="#000000" cx="111.58" cy="-49.847" r="0.628"></circle><circle fill="#000000" cx="115.351" cy="-52.541" r="0.628"></circle><circle fill="#000000" cx="119.122" cy="-49.847" r="0.627"></circle></g><rect x="81.327" y="-25.56" fill="#000000" stroke="#FD5A1C" stroke-width="1.6159" stroke-miterlimit="10" width="42.014" height="5.566"></rect><g><circle fill="#000000" cx="85.187" cy="-24.123" r="0.628"></circle><circle fill="#000000" cx="88.958" cy="-21.431" r="0.628"></circle><circle fill="#000000" cx="92.728" cy="-24.123" r="0.629"></circle><circle fill="#000000" cx="96.499" cy="-21.431" r="0.628"></circle><circle fill="#000000" cx="100.269" cy="-24.123" r="0.628"></circle><circle fill="#000000" cx="104.04" cy="-21.431" r="0.628"></circle><circle fill="#000000" cx="107.811" cy="-24.123" r="0.628"></circle><circle fill="#000000" cx="111.58" cy="-21.431" r="0.628"></circle><circle fill="#000000" cx="115.351" cy="-24.123" r="0.628"></circle><circle fill="#000000" cx="119.122" cy="-21.431" r="0.627"></circle></g><path fill="#000000" stroke="#FD5A1C" stroke-width="1.6159" stroke-miterlimit="10" d="M117.415-40.46H87.251   c-3.271,0-5.924,2.654-5.924,5.926v3.052c0,3.273,2.652,5.926,5.924,5.926h0.181v9.156c0,1.636,1.326,2.963,2.963,2.963   c1.635,0,2.962-1.327,2.962-2.963v-9.156h5.027v5.564c0,1.289,1.046,2.335,2.334,2.335c1.289,0,2.336-1.046,2.336-2.335v-5.564   h14.361c3.272,0,5.926-2.652,5.926-5.926v-3.052C123.341-37.807,120.688-40.46,117.415-40.46z"></path><path fill="#000000" stroke="#FD5A1C" stroke-width="1.3748" stroke-linecap="round" stroke-miterlimit="10" d="M115.165-27.92   c2.784,0,5.04-2.257,5.04-5.041"></path><path fill="#000000" stroke="#FD5A1C" stroke-width="1.3748" stroke-linecap="round" stroke-miterlimit="10" d="M89.503-37.905   c-2.784,0-5.04,2.257-5.04,5.041"></path></g></svg>