<svg xmlns="http://www.w3.org/2000/svg" xmlns:xlink="http://www.w3.org/1999/xlink" version="1.1" x="0px" y="0px" viewBox="0 0 164 164" enable-background="new 0 0 164 164" xml:space="preserve"><path fill-rule="evenodd" clip-rule="evenodd" d="M81.365,4.632c9.952,0,9.952,12.487,0,12.487  C71.414,17.119,71.414,4.632,81.365,4.632L81.365,4.632z M89.483,120.436c-0.076,3.544-0.878,5.694-2.604,7.706  c-6.182-15.37-14.356-15.607-12.267-30.811c-9.726,20.982-6.564,38.258,9.685,45.357c-31.269-2.486-26.047-29.701-7.595-55.337  c0.645,11.015,4.058,18.241,8.8,23.516c2.306-2.283,3.161-5.819,2.169-11.867c9.159,13.811,21.066,33.693,1.253,43.676  C95.019,134.865,94.543,129.04,89.483,120.436L89.483,120.436z M108.154,145.347V81.271H53.663v64.075H108.154L108.154,145.347z   M115.795,85.389c2.424-2.27,3.944-5.494,3.944-9.057v-9.005c0-6.831-6.835-12.419-13.662-12.419h-2.367V32.892h-7.129  c2.416-5.33-0.3-11.746-6.022-13.63C97.487,10.83,92.077,0.32,81.018,0.32c-11.042,0-15.452,10.905-8.848,18.942  c-5.72,1.886-8.438,8.3-6.021,13.63h-7.786v22.016h-2.003c-6.829,0-12.419,5.59-12.419,12.419v9.005c0,3.05,1.115,5.853,2.956,8.021  v61.246h-2.957V164h74.153v-18.401h-2.3V85.389z"></path></svg>