<svg xmlns="http://www.w3.org/2000/svg" xmlns:xlink="http://www.w3.org/1999/xlink" version="1.0" x="0px" y="0px" viewBox="0 0 280 186" enable-background="new 0 0 280 186" xml:space="preserve"><g><path fill-rule="evenodd" clip-rule="evenodd" d="M130.6,82.8c1.8,1.1,4.4,3.8,4.4,9.5c0,4.7-5.4,7.2-10.3,8.5   c-9.9,1.1-16.7,3.5-16.7,6.3c0,3.9,13.2,7,29.5,7s29.5-3.1,29.5-7c0-2.8-6.9-5.2-16.8-6.3c-5.3-1.3-11.3-3.8-11.2-8.5   c0.1-5.8,2.9-8.4,4.6-9.5C149.7,80.1,154,74,154,67c0-9.4-7.6-17-17-17c-9.4,0-17,7.6-17,17C120,74.1,124.4,80.3,130.6,82.8z    M124.6,61.7c1.2-3.2,3.8-5.7,6.9-7c0.8-0.3,1.6,0.1,2,0.8c0.3,0.8-0.1,1.6-0.8,2c-2.4,1-4.3,2.9-5.3,5.3c-0.3,0.8-1.2,1.2-1.9,0.8   C124.7,63.4,124.3,62.5,124.6,61.7z"></path><path fill-rule="evenodd" clip-rule="evenodd" d="M132.3,95.2c0.2-0.4,0.4-0.7,0.5-1.1C100.4,94.7,75,101.1,75,109   c0,8.3,28.2,15,63,15c34.8,0,63-6.7,63-15c0-8-26.4-14.6-59.7-15c0.2,0.4,0.3,0.7,0.6,1.1c24.2,0.5,43.2,5.3,43.2,11.2   c0,6.2-21.1,11.2-47.1,11.2c-26,0-47.1-5-47.1-11.2C90.9,100.6,109,95.8,132.3,95.2z"></path><path fill-rule="evenodd" clip-rule="evenodd" d="M141.1,88c-0.1,0.4-0.1,0.8-0.1,1.2c43.3,0.3,78,8.7,78,19   c0,10.5-36,19.1-80.5,19.1S58,118.8,58,108.3c0-10.1,33.2-18.4,75.1-19c0-0.4-0.1-0.8-0.1-1.3C80.6,88.7,39,99,39,111.5   c0,13,44.5,23.5,99.5,23.5s99.5-10.5,99.5-23.5C238,98.7,194.9,88.3,141.1,88z"></path></g></svg>