<svg xmlns="http://www.w3.org/2000/svg" xmlns:xlink="http://www.w3.org/1999/xlink" version="1.1" x="0px" y="0px" viewBox="0 0 100 100" enable-background="new 0 0 100 100" xml:space="preserve"><path d="M27.565,25.435c-0.405-0.367-0.824-0.746-1.11-1.193c-0.425-0.664-0.563-1.112-0.643-1.493  c-3.762,6.105,1.423,8.668,1.423,8.668c-0.799-1.216-0.508-3.141-0.508-3.141c0.622,0.967,1.633,1.188,2.294,1.222  c-0.003-0.109,0.001-0.257,0.007-0.428c0.025-0.705,0.057-1.582-0.359-2.396C28.441,26.228,28.016,25.843,27.565,25.435z"></path><path d="M64.318,64.098c-6.567-5.33-10.588-19.195-10.588-19.195c3.353,8.382,8.507,15.726,10.707,18.669l1.729,0.814  c4.407,3.09,0.751-5.809-0.362-8.369C61.9,53.572,58.65,43.889,58.65,43.889c1.645,4.621,5.238,9.033,7.208,11.224  c1.227-1.229-1.581-5.637-2.987-7.666l8.698-4.732c0.845-0.46,1.158-1.519,0.697-2.364c-0.459-0.845-1.517-1.159-2.363-0.698  l-8.369,4.553c-4.253-14.537-13.001-18.584-15.336-19.425c-0.415,1.148-1.036,2.185-1.834,3.007  c-1.642,1.692-3.939,2.222-6.161,2.735c-1.851,0.427-3.765,0.868-5.249,1.985c-0.956,0.72-1.733,1.553-2.339,2.484  c0.025,0.514,0.033,0.854,0.033,0.854c1.404,8.637,6.698,13.919,10.285,16.587l0.452,2.734l-9.391,5.109  c-0.845,0.461-1.158,1.518-0.698,2.365c0.316,0.58,0.914,0.908,1.533,0.908c0.281,0,0.566-0.066,0.831-0.211l10.576-5.754  l1.444,0.428l1.525-0.271l0.094-0.168c-2.22-3.041,0.21-5.996,0.21-5.996c-0.766,2.682-0.127,4.945,0.397,6.182  c3.872,2.486,6.707,1.18,6.707,1.18l1.49,0.705c16.54,30.482,21.167,29.252,21.167,29.252l2.614,2.506l0.981-1.307  C70.836,75.611,66.25,68.021,64.318,64.098z"></path><path d="M34.271,15.298l-0.002-1.399c0.128-1.396-1.622-3.649-1.622-3.649c0.676,1.757-0.946,3.919-0.946,3.919l-1.085-2.433  c-1.421-3.667-3.239-3.109-3.239-3.109c2.568,1.082,1.665,6.666,1.665,6.666c-0.517-0.812-2.299-2.746-2.299-2.746  c-5.094-5.136-7.61-2.297-7.61-2.297c4.487,0.214,6.228,6.777,6.762,9.524c-0.08,1.22,0.531,2.592,0.981,3.423  c0.077,0.169,0.366,0.634,0.387,0.665c0.04,0.062,0.575,0.645,0.888,0.928c0.489,0.442,0.994,0.9,1.294,1.487  c0.52,1.017,0.481,2.062,0.454,2.825c-0.032,0.891,0.241,1.799,0.412,2.668c0.02,0.101,0.04,0.201,0.059,0.302  c0.069,0.521,0.12,1.053,0.16,1.553c0.542-0.661,1.175-1.266,1.901-1.812c1.632-1.228,3.638-1.691,5.577-2.139  c2.195-0.506,4.269-0.984,5.732-2.492c0.767-0.791,1.35-1.805,1.721-2.932C42.067,16.358,36.503,15.362,34.271,15.298z   M32.247,22.75c-0.722,0-1.307-0.585-1.307-1.307s0.585-1.307,1.307-1.307c0.722,0,1.307,0.585,1.307,1.307  S32.968,22.75,32.247,22.75z"></path></svg>