<svg xmlns="http://www.w3.org/2000/svg" xmlns:xlink="http://www.w3.org/1999/xlink" version="1.1" x="0px" y="0px" viewBox="0 0 100 100" enable-background="new 0 0 100 100" xml:space="preserve"><polygon points="57.853,64.041 57.838,63.997 44.143,56.709 67.472,94.683 "></polygon><polygon points="25.05,13.819 23.43,13.819 22.285,14.964 22.285,16.584 23.43,17.73 25.05,17.73 26.196,16.584 26.196,14.964 "></polygon><polygon points="19.758,18.278 19.831,15.047 17.491,14.015 15.131,14.942 14.502,19.19 16.005,23.242 22.119,27.151 20.253,21.827   "></polygon><path d="M34.271,11.441l3.657-2.192l-6.505-1.321l3.77-2.61l-9.496,0.1l-4.23,0.898l-3.685,1.871l-2.343,1.767l-0.893,1.396  l0.018,1.217l1.243,0.357l5.407-1.502l2.938-0.265l2.591,1.578l1.46,2.41l-6.341,18.469l-0.006,5.451l3.417,4.504l59.731,31.952  l0.493,0.267L34.271,11.441z M24.586,34.304l-0.949-5.86l61.422,46.978L24.586,34.304z"></path></svg>