<svg xmlns="http://www.w3.org/2000/svg" xmlns:xlink="http://www.w3.org/1999/xlink" version="1.1" x="0px" y="0px" viewBox="0 0 100 100" style="enable-background:new 0 0 100 100;" xml:space="preserve"><g><path d="M39.1,15c2.1,3.1,2.1,7,2.1,7s2.5-3.9,4.1-7.2c1.1-2.2,0.6-4.8-1.2-6.4l-1.2-1.1c0,0-8-1.4-10.8,3.8   C32.1,11.1,37,11.8,39.1,15z"></path><path d="M32.1,27.4c1.3,0.1,2.5-0.3,3.5-1.1l2.8-2.3c-0.3-9.4-8-10.1-8-10.1s-3.5,4.5-3.8,6.6c-0.3,2.1,0.7,3.5,0.7,3.5l-1.7,1.4   C27.4,26.7,30.2,27.2,32.1,27.4z"></path><path d="M39.9,81.6c-1,0.9-1.1,1.9-1.1,1.9C36.5,83,34.7,86,34.7,86c-2.8,0.2-4.4,3.2-4.4,3.2c-4.5,3.2-7.9,2.6-10,1.6   c1.3,2.8,3.9,5.3,5.5,6c2.4,1,8.7,1.7,11.5,0.7c0,0,4.9,0,6.6-1.4c0,0,4.9-0.3,7.3-3.5c0,0,2.6-0.3,4.8-1.8   C51.7,90.6,44,89.2,39.9,81.6z"></path><path d="M79.5,49.8c0,0,2.1-1.7,0.3-6.6c0,0,0.3-5.2-2.4-7.7c0,0,0.3-5.2-1.7-7c0,0,0-3.8-3.8-6.3c0,0-1-4.2-4.2-5.9   c0,0-0.7-3.5-4.5-5.9c0,0-2.1-3.5-5.6-4.5c0,0-2.8-2.1-5.9-1.7c0,0-5.6-4.9-10.8,0l3.5,0.7c0,0,0.2,0.1,0.6,0.3   c3.9,2,5.3,6.8,3.4,10.8c-3,7.9,0,12.5,0,12.5c0,3.7,2.6,5.6,2.6,5.6c-0.5,3.7,3.5,6.3,3.5,6.3C53.7,44.7,56,47,56,47   c-2.3,1.6-0.7,6-0.7,6c-1.4,2.1-0.7,5.6-0.7,5.6c-1.9,3.7-0.5,5.6-0.5,5.6c-1.6,1.9-2.6,4.4-2.6,4.4c-2.1,2.3-1.6,4.9-1.6,4.9   c-3,0.9-3.9,3.5-3.9,3.5c-2.3-0.2-3.5,3.5-3.5,3.5s3.7,7.9,16,7.3c0,0,5.2-0.3,6.3-7c0,0,4.5-0.7,6.3-7.3c0,0,4.2-3.1,4.2-8   c0,0,4.5-2.1,3.1-7C78.4,58.5,81.9,52.9,79.5,49.8z M61.8,41.6c0.1,0.6-0.6,1.2-1.6,1.4c-1,0.1-1.8-0.3-1.9-0.9   c-0.1-0.6,0.6-1.2,1.6-1.4C60.9,40.6,61.7,41,61.8,41.6z M57.4,33.9c0.8-0.5,1.8-0.4,2.1,0.1c0.3,0.6-0.1,1.4-0.9,1.9   c-0.8,0.5-1.8,0.4-2.1-0.1C56.2,35.2,56.6,34.3,57.4,33.9z M52.6,23.2c-0.8,0.5-1.8,0.4-2.1-0.1c-0.3-0.6,0.1-1.4,0.9-1.9   c0.8-0.5,1.8-0.4,2.1,0.1C53.9,21.8,53.5,22.7,52.6,23.2z M55.7,29.7c-0.8,0.5-1.8,0.4-2.1-0.1c-0.3-0.6,0.1-1.4,0.9-1.9   c0.8-0.5,1.8-0.4,2.1,0.1C56.9,28.3,56.5,29.2,55.7,29.7z M56.5,73.3c-0.2,0.6-1.1,0.8-2,0.5c-0.9-0.3-1.5-1.1-1.3-1.7   c0.2-0.6,1.1-0.8,2-0.5C56.1,72,56.7,72.7,56.5,73.3z M59,68.5c-0.2,0.6-1.1,0.8-2,0.5c-0.9-0.3-1.5-1.1-1.3-1.7   c0.2-0.6,1.1-0.8,2-0.5C58.7,67.1,59.3,67.9,59,68.5z M61.4,63.4c-0.2,0.6-1.1,0.8-2,0.5c-0.9-0.3-1.5-1.1-1.3-1.7   c0.2-0.6,1.1-0.8,2-0.5C61,62,61.6,62.8,61.4,63.4z M61.7,57.4c-0.2,0.6-1,0.9-2,0.7c-0.9-0.2-1.6-0.9-1.4-1.6c0.2-0.6,1-0.9,2-0.7   C61.2,56.1,61.9,56.8,61.7,57.4z M62.2,50.7c-0.2,0.6-1,0.9-2,0.7c-0.9-0.2-1.6-0.9-1.4-1.6c0.2-0.6,1-0.9,2-0.7   C61.8,49.3,62.4,50,62.2,50.7z"></path><path d="M29.3,86.9c0.7-2.6,4.2-3.5,4.2-3.5c0.5-3.2,4.2-2.8,4.2-2.8c0.5-1.9,3.5-2.8,3.5-2.8c-0.2-2.1,3.2-3.5,3.2-3.5   c-0.2-1.4,3-2.8,3-2.8c-0.9-2.3,1.9-4.2,1.9-4.2c-0.5-1.9,2.3-4.2,2.3-4.2c-1.6-2.1,0.7-5.3,0.7-5.3c-1.2-2.1,0.5-5.8,0.5-5.8   c-0.9-2.3,0-5.1,0-5.1c-1.6-2.6-1.4-6.3-1.4-6.3c-2.8-1.4-2.3-5.8-2.3-5.8c-3-1.4-3-6-3-6c-1.8-0.4-1.7-5.2-1.6-6.6   c-1.5,2-3.4,4-5.7,5.8c-1.7,1.3-3.6,2.2-5.8,2.4c-0.8,0.1-1.6,0-2.4-0.2l0,0c0,0-4-0.5-6.1-2.3s-4.6,0.2-4.6,0.2s1.6-0.5,2.8,0.9   c1.1,1.4,4.3,4.7,8.8,4.4c0.4,1,0.9,2,1.6,3c-1.3,0.9-3.5,2.5-4.3,2.1c-1.2-0.5-3.1-0.5-4.7,1.2c0,0,1.4-0.7,3.3,0.2   c1.5,0.7,4.6,0,6.7-0.9c0.2,1.3,0.7,3,2.4,3.4c0,0,0.1,0.4,0.3,1c-0.9,0.9-2.6,2.5-4.1,2.3c-2.1-0.3-3.1,0.9-4.2,2.3   c0,0,1.4-1,3.1-0.7c1.4,0.3,4.6-0.7,6-1.7c0.4,0.8,1,1.5,1.7,2c0,0-0.5,0.8,0,2.3c-0.9,0.5-2.9,1.6-3.6,1.3c-0.9-0.3-3,1-3,2.4   c0,0,1.2-1.6,2.6-0.7c1,0.6,3.5-0.5,4.9-1.3c0.2,0.2,0.3,0.5,0.5,0.7c0,0-2.1,3.1,0,6.3c0,0-3.1,3.5-1.7,5.9c0,0-3.5,2.4-3.5,4.9   c0,0-2.4,0.3-3.5,3.1c0,0-4.2,1.4-4.5,3.8c0,0-2.4-0.3-4.9,3.8c0,0-2.1,2.1-2.8,6.3c-0.2,1,0,2.1,0.3,3.1   C23.9,90.4,29.3,86.9,29.3,86.9z"></path></g></svg>