<svg xmlns="http://www.w3.org/2000/svg" xmlns:xlink="http://www.w3.org/1999/xlink" version="1.1" x="0px" y="0px" viewBox="0 0 100 100" enable-background="new 0 0 100 100" xml:space="preserve"><g><path d="M18.713,71.941c0.043-0.053,0.091-0.102,0.135-0.152c0.172-0.203,0.342-0.406,0.529-0.596   c-1.699-0.977-3.753-1.506-5.909-1.506c-5.409,0-9.809,3.322-9.809,7.404s4.4,7.402,9.809,7.402c1.242,0,2.444-0.174,3.587-0.518   c-0.004-0.008-0.006-0.018-0.01-0.025c-0.623-1.424-0.974-2.992-0.974-4.643c0-0.393,0.021-0.781,0.059-1.166   c0.012-0.117,0.036-0.232,0.051-0.35c0.035-0.266,0.069-0.529,0.121-0.791c0.023-0.115,0.058-0.225,0.084-0.34   c0.061-0.26,0.121-0.518,0.199-0.771c0.028-0.092,0.065-0.18,0.095-0.271c0.091-0.27,0.185-0.539,0.295-0.803   c0.027-0.064,0.06-0.127,0.088-0.189c0.125-0.283,0.255-0.563,0.402-0.834c0.025-0.045,0.054-0.09,0.08-0.135   c0.157-0.281,0.321-0.559,0.501-0.826c0.028-0.041,0.059-0.078,0.087-0.119C18.318,72.449,18.508,72.189,18.713,71.941z"></path><path d="M33.103,86.393c-0.114-0.146-0.227-0.295-0.333-0.445c-0.085-0.123-0.166-0.246-0.246-0.371   c-0.126-0.193-0.247-0.391-0.36-0.592c-0.057-0.102-0.112-0.203-0.167-0.307c-0.121-0.23-0.233-0.463-0.337-0.701   c-0.041-0.092-0.082-0.186-0.12-0.279c-0.103-0.25-0.195-0.504-0.28-0.762c-0.031-0.094-0.063-0.188-0.091-0.281   c-0.079-0.262-0.145-0.525-0.204-0.793c-0.022-0.1-0.048-0.197-0.068-0.299c-0.054-0.273-0.093-0.549-0.126-0.826   c-0.012-0.098-0.03-0.195-0.04-0.295c-0.036-0.373-0.058-0.752-0.058-1.133c0-0.383,0.021-0.76,0.058-1.135   c0.009-0.098,0.027-0.193,0.039-0.291c0.034-0.279,0.073-0.557,0.127-0.83c0.02-0.1,0.045-0.195,0.067-0.293   c0.06-0.27,0.127-0.537,0.206-0.801c0.028-0.092,0.059-0.182,0.089-0.271c0.086-0.262,0.179-0.52,0.284-0.773   c0.037-0.092,0.076-0.18,0.115-0.27c0.106-0.24,0.221-0.479,0.343-0.711c0.052-0.1,0.105-0.199,0.161-0.297   c0.115-0.205,0.238-0.404,0.366-0.602c0.078-0.123,0.157-0.244,0.24-0.363c0.108-0.152,0.222-0.303,0.338-0.451   c0.117-0.15,0.234-0.303,0.358-0.447c0.026-0.031,0.048-0.063,0.075-0.094c-1.676-1.291-3.718-1.992-5.848-1.992   c-2.31,0-4.431,0.82-6.091,2.182c-0.255,0.209-0.497,0.432-0.727,0.662c-0.101,0.102-0.192,0.211-0.288,0.316   c-0.125,0.139-0.252,0.275-0.369,0.42c-0.107,0.133-0.206,0.271-0.306,0.41c-0.093,0.127-0.187,0.256-0.273,0.389   c-0.096,0.146-0.185,0.297-0.272,0.449c-0.079,0.137-0.155,0.273-0.227,0.414c-0.078,0.152-0.152,0.305-0.222,0.461   c-0.069,0.154-0.132,0.313-0.193,0.469c-0.057,0.15-0.115,0.299-0.165,0.451c-0.059,0.18-0.108,0.363-0.156,0.547   c-0.037,0.139-0.077,0.275-0.107,0.416c-0.047,0.219-0.08,0.439-0.112,0.662c-0.016,0.113-0.04,0.225-0.052,0.34   c-0.037,0.34-0.058,0.686-0.058,1.033c0,0.383,0.029,0.766,0.075,1.146c0.011,0.088,0.028,0.176,0.041,0.266   c0.045,0.305,0.104,0.605,0.178,0.904c0.02,0.078,0.039,0.156,0.06,0.234c0.098,0.354,0.212,0.703,0.351,1.047   c0.004,0.01,0.007,0.02,0.011,0.029c0.151,0.369,0.326,0.73,0.523,1.08c1.651,2.928,4.786,4.912,8.38,4.912   c2.129,0,4.172-0.701,5.848-1.992c-0.026-0.029-0.048-0.063-0.074-0.092C33.339,86.697,33.221,86.545,33.103,86.393z"></path><path d="M50.231,81.482c-0.099-0.074-0.198-0.145-0.294-0.221c-0.334-0.266-0.656-0.545-0.962-0.842   c-0.154-0.15-0.296-0.307-0.441-0.463c-0.202-0.217-0.401-0.438-0.588-0.67c-0.155-0.191-0.3-0.391-0.443-0.59   c-0.129-0.182-0.252-0.367-0.372-0.557c-0.135-0.213-0.27-0.424-0.391-0.643c-0.142-0.258-0.267-0.523-0.392-0.791   c-0.13-0.283-0.25-0.568-0.359-0.861c-0.108-0.287-0.212-0.578-0.299-0.877c-0.054-0.186-0.099-0.373-0.145-0.563   c-0.077-0.314-0.14-0.635-0.192-0.961c-0.026-0.162-0.055-0.324-0.075-0.49c-0.06-0.492-0.099-0.99-0.099-1.498   c0-0.439,0.028-0.873,0.072-1.303c-0.954-0.309-1.946-0.467-2.958-0.467c-2.576,0-4.914,1.023-6.642,2.678   c-0.201,0.193-0.39,0.395-0.572,0.6c-0.036,0.041-0.074,0.08-0.109,0.121c-0.155,0.182-0.298,0.371-0.439,0.563   c-0.055,0.076-0.114,0.146-0.167,0.225c-0.1,0.145-0.188,0.295-0.279,0.443c-0.079,0.129-0.163,0.256-0.236,0.389   c-0.045,0.082-0.082,0.168-0.125,0.252c-0.667,1.309-1.052,2.785-1.052,4.352c0,1.311,0.266,2.561,0.743,3.701   c0.006,0.014,0.01,0.027,0.016,0.041c0.08,0.189,0.174,0.369,0.266,0.553c0.053,0.104,0.099,0.211,0.155,0.314   c0.064,0.117,0.139,0.229,0.208,0.342c0.1,0.166,0.197,0.332,0.308,0.49c0.045,0.066,0.096,0.127,0.142,0.191   c0.148,0.201,0.299,0.402,0.464,0.596c0.029,0.033,0.061,0.064,0.09,0.1c0.187,0.211,0.382,0.418,0.59,0.617   c1.729,1.652,4.064,2.674,6.639,2.674c4.208,0,7.864-2.695,9.139-6.645c-0.029-0.016-0.054-0.039-0.083-0.055   C50.962,81.998,50.59,81.75,50.231,81.482z"></path><path d="M66.861,72.457c-0.406,0-0.806-0.021-1.2-0.061c-0.132-0.014-0.26-0.039-0.39-0.057c-0.261-0.035-0.521-0.068-0.776-0.119   c-0.153-0.031-0.304-0.074-0.455-0.111c-0.226-0.055-0.452-0.105-0.672-0.174c-0.158-0.047-0.312-0.107-0.466-0.162   c-0.207-0.072-0.414-0.143-0.615-0.227c-0.158-0.064-0.309-0.141-0.463-0.211c-0.191-0.09-0.383-0.176-0.568-0.275   c-0.152-0.08-0.299-0.17-0.448-0.258c-0.177-0.104-0.355-0.207-0.526-0.32c-0.146-0.096-0.285-0.199-0.427-0.301   c-0.165-0.119-0.329-0.236-0.487-0.363c-0.137-0.109-0.268-0.225-0.398-0.34c-0.152-0.133-0.303-0.268-0.447-0.406   c-0.126-0.123-0.247-0.25-0.367-0.377c-0.139-0.146-0.275-0.293-0.406-0.445c-0.113-0.133-0.224-0.27-0.332-0.408   c-0.124-0.158-0.245-0.318-0.361-0.482c-0.102-0.145-0.199-0.291-0.295-0.439c-0.108-0.17-0.213-0.342-0.313-0.516   c-0.089-0.154-0.173-0.309-0.255-0.467c-0.093-0.18-0.18-0.363-0.264-0.547c-0.074-0.162-0.145-0.326-0.211-0.492   c-0.076-0.189-0.146-0.381-0.212-0.574c-0.058-0.17-0.114-0.34-0.165-0.512c-0.059-0.199-0.107-0.4-0.156-0.604   c-0.041-0.176-0.082-0.352-0.116-0.529c-0.039-0.207-0.067-0.416-0.097-0.627c-0.023-0.182-0.049-0.361-0.065-0.543   c-0.005-0.061-0.017-0.117-0.021-0.178c-3.834,1.051-6.691,4.148-7.479,7.982l-0.061,0.354c-0.111,0.643-0.165,1.229-0.165,1.789   c0,0.447,0.038,0.887,0.092,1.322c0.017,0.133,0.039,0.266,0.061,0.396c0.051,0.314,0.118,0.621,0.197,0.926   c0.034,0.131,0.062,0.264,0.101,0.393c0.114,0.379,0.25,0.75,0.405,1.111c0.067,0.154,0.145,0.303,0.219,0.453   c0.11,0.227,0.227,0.447,0.353,0.664c0.094,0.162,0.188,0.322,0.291,0.479c0.174,0.266,0.361,0.521,0.559,0.771   c0.108,0.137,0.22,0.268,0.334,0.398c0.217,0.246,0.444,0.486,0.686,0.713c0.09,0.086,0.183,0.17,0.276,0.252   c0.68,0.594,1.438,1.115,2.276,1.533c1.41,0.703,2.993,1.107,4.672,1.107c5.488,0,10.009-4.225,10.479-9.594   c-0.006,0.002-0.013,0-0.02,0.002C67.732,72.43,67.3,72.457,66.861,72.457z"></path><path d="M72.836,52.432c-0.02,0.033-0.045,0.061-0.065,0.092c-0.237,0.373-0.489,0.734-0.764,1.076   c-0.034,0.043-0.064,0.09-0.099,0.133c-0.281,0.342-0.582,0.664-0.897,0.975c-0.148,0.146-0.306,0.279-0.46,0.418   c-0.178,0.156-0.356,0.311-0.542,0.455c-0.186,0.146-0.373,0.289-0.566,0.424c-0.179,0.125-0.363,0.24-0.549,0.355   c-0.198,0.123-0.392,0.252-0.597,0.363c-0.359,0.195-0.731,0.371-1.111,0.531c-0.181,0.076-0.367,0.135-0.552,0.201   c-0.259,0.096-0.521,0.184-0.787,0.262c-0.182,0.051-0.364,0.098-0.548,0.141c-0.3,0.07-0.604,0.129-0.912,0.178   c-0.156,0.023-0.312,0.053-0.471,0.072c-0.469,0.055-0.944,0.09-1.428,0.09c-0.436,0-0.865-0.025-1.289-0.068   c-0.043-0.006-0.086-0.016-0.129-0.021c-0.388-0.045-0.771-0.105-1.146-0.186c-0.043-0.01-0.083-0.023-0.125-0.033   c-0.377-0.086-0.746-0.186-1.109-0.305c-0.058-0.02-0.113-0.043-0.172-0.063c-0.342-0.119-0.678-0.25-1.006-0.396   c-0.023-0.012-0.049-0.02-0.074-0.029c-0.389,1.08-0.586,2.205-0.586,3.354c0,5.52,4.49,10.008,10.01,10.008   c0.699,0,1.414-0.078,2.124-0.232c4.501-0.977,7.884-4.986,7.884-9.775C76.869,57.246,75.379,54.318,72.836,52.432z"></path><path d="M63.043,43.662c-0.528,0-1.051-0.032-1.572-0.08c-0.147-0.013-0.294-0.03-0.441-0.047   c-0.402-0.048-0.803-0.108-1.199-0.184c-0.123-0.023-0.247-0.042-0.369-0.067c-0.476-0.101-0.946-0.223-1.411-0.363   c-0.173-0.053-0.34-0.114-0.509-0.172c-0.293-0.099-0.582-0.203-0.869-0.318c-0.215-0.085-0.428-0.173-0.638-0.267   c-0.224-0.1-0.443-0.21-0.663-0.319c-0.479-0.238-0.943-0.498-1.396-0.778c-0.095-0.059-0.194-0.111-0.288-0.172   c-0.91,1.556-1.387,3.306-1.387,5.116c0,3.788,2.082,7.093,5.158,8.847c0.732,0.42,1.513,0.738,2.318,0.963   c0.076,0.021,0.154,0.041,0.23,0.059c0.322,0.082,0.649,0.146,0.979,0.195c0.093,0.014,0.186,0.031,0.279,0.043   c0.404,0.049,0.813,0.08,1.223,0.08c0.432,0,0.855-0.035,1.275-0.088c0.128-0.016,0.254-0.037,0.379-0.059   c0.305-0.049,0.605-0.113,0.9-0.191c0.124-0.031,0.25-0.059,0.372-0.096c0.37-0.109,0.732-0.24,1.085-0.393   c0.142-0.061,0.276-0.133,0.414-0.199c0.227-0.109,0.449-0.227,0.666-0.352c0.152-0.09,0.305-0.178,0.451-0.275   c0.248-0.16,0.487-0.334,0.721-0.518c0.131-0.104,0.26-0.207,0.386-0.316c0.249-0.217,0.488-0.443,0.716-0.684   c0.086-0.088,0.167-0.18,0.248-0.271c0.264-0.301,0.518-0.609,0.747-0.941c0.006-0.008,0.013-0.016,0.019-0.023   c0.261-0.381,0.498-0.785,0.711-1.207c0.695-1.377,1.098-2.928,1.098-4.574c0-1.604-0.381-3.178-1.108-4.604   C68.969,42.885,66.043,43.662,63.043,43.662z"></path><path d="M54.086,38.739c0.273,0.198,0.553,0.387,0.836,0.565c0.087,0.055,0.176,0.107,0.264,0.16   c0.276,0.167,0.555,0.329,0.84,0.478c0.113,0.059,0.23,0.11,0.346,0.167c0.391,0.191,0.787,0.363,1.189,0.52   c0.266,0.103,0.53,0.207,0.803,0.295c0.174,0.056,0.352,0.101,0.527,0.15c0.275,0.078,0.553,0.152,0.835,0.215   c0.172,0.039,0.345,0.072,0.518,0.104c0.308,0.058,0.619,0.104,0.934,0.143c0.151,0.019,0.301,0.04,0.452,0.055   c0.467,0.043,0.937,0.071,1.414,0.071c0.539,0,1.07-0.039,1.598-0.094c0.132-0.014,0.266-0.025,0.396-0.043   c0.474-0.062,0.94-0.146,1.4-0.249c0.195-0.045,0.389-0.099,0.581-0.15c0.282-0.075,0.56-0.162,0.837-0.253   c0.377-0.126,0.749-0.267,1.116-0.422c0.194-0.082,0.39-0.164,0.581-0.254c0.27-0.127,0.537-0.262,0.8-0.406   c0.14-0.076,0.274-0.16,0.411-0.24c0.205-0.121,0.413-0.239,0.614-0.37l0.292-0.19c1.398-0.963,2.649-2.157,3.684-3.572   c-4.289-0.982-7.643-4.168-8.922-8.269c-0.012-0.034-0.021-0.068-0.032-0.103c-0.097-0.32-0.181-0.646-0.251-0.977   c-0.018-0.078-0.036-0.156-0.052-0.235c-0.059-0.301-0.104-0.605-0.14-0.913c-0.012-0.093-0.027-0.185-0.036-0.278   c-0.037-0.392-0.06-0.786-0.06-1.188c0-0.001,0-0.001,0-0.001c0-0.471,0.032-0.935,0.084-1.392   c0.018-0.147,0.045-0.291,0.067-0.438c0.046-0.309,0.099-0.614,0.168-0.914c0.04-0.173,0.085-0.342,0.132-0.512   c0.074-0.267,0.156-0.53,0.247-0.79c0.062-0.177,0.124-0.353,0.193-0.526c0.101-0.248,0.213-0.489,0.329-0.729   c0.08-0.168,0.153-0.338,0.241-0.501c0.196-0.364,0.408-0.719,0.64-1.061c0.109-0.161,0.233-0.313,0.351-0.469   c0.149-0.2,0.298-0.399,0.46-0.589c0.131-0.155,0.27-0.303,0.41-0.451c0.176-0.188,0.356-0.371,0.544-0.548   c0.132-0.124,0.264-0.247,0.401-0.365c0.255-0.221,0.521-0.428,0.793-0.627c0.066-0.048,0.125-0.104,0.192-0.151   c-2.427-1.521-5.188-2.319-8.071-2.319c-8.434,0-15.294,6.861-15.294,15.295C47.749,31.455,50.254,35.957,54.086,38.739z"></path><path d="M82.986,24.9c0.084-0.085,0.172-0.164,0.259-0.246c0.1-0.093,0.198-0.187,0.303-0.275c0.092-0.077,0.188-0.149,0.282-0.223   c0.107-0.084,0.215-0.167,0.326-0.245c0.1-0.068,0.201-0.132,0.304-0.197c0.115-0.072,0.229-0.145,0.349-0.211   c0.105-0.061,0.215-0.115,0.324-0.171c0.121-0.061,0.242-0.121,0.366-0.177c0.112-0.05,0.228-0.095,0.343-0.14   c0.127-0.05,0.254-0.098,0.385-0.142c0.118-0.039,0.238-0.073,0.359-0.107c0.131-0.037,0.264-0.072,0.398-0.104   c0.123-0.027,0.248-0.052,0.373-0.073c0.137-0.024,0.274-0.046,0.414-0.063c0.127-0.016,0.256-0.028,0.385-0.038   c0.074-0.006,0.146-0.018,0.221-0.021c-0.475-5.176-4.885-9.289-10.238-9.289c-1.71,0-3.32,0.426-4.74,1.167   c-0.404,0.211-0.789,0.449-1.156,0.706c-0.056,0.039-0.109,0.082-0.164,0.123c-0.287,0.209-0.559,0.434-0.819,0.668   c-0.084,0.076-0.169,0.149-0.251,0.229c-0.287,0.276-0.561,0.566-0.813,0.872c-0.068,0.083-0.127,0.172-0.192,0.257   c-0.185,0.239-0.359,0.485-0.522,0.74c-0.08,0.126-0.158,0.254-0.232,0.384c-0.153,0.264-0.293,0.535-0.422,0.813   c-0.044,0.093-0.094,0.183-0.135,0.278c-0.158,0.369-0.291,0.749-0.406,1.136c-0.032,0.11-0.057,0.223-0.086,0.335   c-0.079,0.307-0.145,0.618-0.195,0.934c-0.02,0.119-0.04,0.238-0.055,0.359c-0.053,0.421-0.088,0.846-0.088,1.278   c0,0.347,0.018,0.69,0.052,1.029c0.005,0.056,0.017,0.11,0.023,0.167c0.034,0.288,0.073,0.574,0.131,0.854   c0.007,0.031,0.015,0.062,0.022,0.092c0.838,3.935,3.932,7.039,7.859,7.896c0.048,0.01,0.094,0.024,0.143,0.034   c0.244,0.05,0.495,0.082,0.746,0.114c0.092,0.012,0.182,0.03,0.275,0.04c0.338,0.033,0.68,0.052,1.025,0.052   c1.029,0,2.036-0.15,3.007-0.447c-0.015-0.041-0.024-0.084-0.039-0.126c-0.044-0.131-0.085-0.264-0.124-0.397   c-0.03-0.108-0.058-0.218-0.084-0.327c-0.03-0.128-0.061-0.256-0.084-0.387c-0.025-0.135-0.044-0.271-0.063-0.407   c-0.015-0.108-0.032-0.215-0.042-0.324c-0.024-0.251-0.038-0.503-0.038-0.756c0-0.275,0.014-0.547,0.041-0.815   c0.009-0.091,0.027-0.179,0.039-0.269c0.024-0.176,0.046-0.352,0.081-0.524c0.021-0.104,0.052-0.203,0.076-0.306   c0.038-0.154,0.072-0.31,0.118-0.46c0.033-0.106,0.074-0.209,0.111-0.313c0.051-0.142,0.098-0.283,0.154-0.421   c0.045-0.106,0.098-0.208,0.146-0.312c0.061-0.131,0.119-0.262,0.187-0.389c0.055-0.102,0.116-0.199,0.176-0.299   c0.072-0.122,0.143-0.245,0.221-0.362c0.064-0.098,0.136-0.19,0.204-0.284c0.082-0.113,0.162-0.227,0.25-0.335   c0.074-0.092,0.154-0.178,0.232-0.267C82.801,25.102,82.891,24.999,82.986,24.9z"></path><path d="M94.341,38.77l1.998-0.065c-0.079-2.398-1.408-4.143-2.305-5.055c0.535-0.907,0.848-1.961,0.848-3.088   c0-3.147-2.396-5.745-5.458-6.069l-0.097-0.007c-0.182-0.016-0.364-0.028-0.55-0.028c-3.367,0-6.105,2.738-6.105,6.104   c0,0.23,0.016,0.458,0.04,0.684c0.009,0.078,0.024,0.153,0.036,0.23c0.021,0.147,0.047,0.295,0.08,0.44   c0.02,0.084,0.041,0.166,0.064,0.248c0.039,0.145,0.084,0.289,0.135,0.431c0.023,0.069,0.049,0.138,0.075,0.206   c0.07,0.177,0.149,0.352,0.237,0.523c0.02,0.04,0.037,0.083,0.059,0.123l0.018,0.033c0.836,1.528,2.311,2.649,4.06,3.032   c0.2,1.332,1.045,3.72,4.46,5.079l0.738-1.858c-2.164-0.861-2.895-2.22-3.139-3.118c1.216-0.151,2.32-0.661,3.207-1.42   C93.397,35.901,94.287,37.151,94.341,38.77z"></path></g></svg>