<svg xmlns="http://www.w3.org/2000/svg" xmlns:xlink="http://www.w3.org/1999/xlink" version="1.1" x="0px" y="0px" viewBox="0 0 24 24" style="enable-background:new 0 0 24 24;" xml:space="preserve"><g><path d="M4.693,10.653c-1.571,0-2.843,1.272-2.843,2.843v7.661C1.85,22.728,3.123,24,4.693,24h6.582L6.924,10.653H4.693z"></path><path d="M19.307,10.653h-2.23L12.729,24h6.578c1.57,0,2.844-1.272,2.844-2.843v-7.661C22.15,11.926,20.877,10.653,19.307,10.653z    M20.01,19.579h-3.596c-0.221,0-0.4-0.179-0.4-0.398c0-0.219,0.18-0.397,0.4-0.397h3.596c0.219,0,0.396,0.179,0.396,0.397   C20.406,19.4,20.229,19.579,20.01,19.579z"></path><circle cx="12.001" cy="5.253" r="5.253"></circle><polygon points="12,11.346 9.432,13.501 12,21.381 14.568,13.501  "></polygon></g></svg>