<svg xmlns="http://www.w3.org/2000/svg" xmlns:xlink="http://www.w3.org/1999/xlink" version="1.1" x="0px" y="0px" viewBox="0 0 91 91" style="enable-background:new 0 0 91 91;" xml:space="preserve"><g><path d="M16,44.8c-0.3,1.4-0.6,2.8-0.9,3.8c2.7-0.1,6.1-0.4,9.3-0.7c4.4-0.4,7.6-0.7,9.9-0.7C31.4,45,26.8,41.3,19,35   C17.5,37.9,16.7,41.7,16,44.8z"></path><path d="M37.4,23.8c-0.7-1.1-1.3-2.1-1.9-3c-3.5,2.6-12,9.1-15,12.1c6.1,5,14.3,11.5,17.2,13.7c2.7-4.8,5.3-10.8,5.3-13.1   c0,0,0-0.1,0-0.1c0,0,0,0,0,0C42.8,32.2,39.4,27,37.4,23.8z"></path><path d="M56.1,36.1l2.2,0.7L53,18.2c-3.4,0.4-10.9,1.2-15.1,1.8c0.5,0.8,1,1.6,1.6,2.5c3.6,5.5,5.4,8.4,5.9,10   C47,33.2,52.6,35,56.1,36.1z"></path><path d="M73.2,37.2c-0.7-2.7-3.1-4.6-5.2-6.3l-0.9-0.7c-1.2-1-3.1-3.2-4.9-5.4c-3.1-3.7-5.2-6-6.6-6.7l5.5,19.3   C64.4,37.9,68.9,37.6,73.2,37.2z"></path><path d="M27.5,67.1c1.4,0.6,19.1,4.4,22.9,4.4c0.1,0,0.2,0,0.3,0c-3-9-10.5-19.3-13.7-21.6c-1.1-0.5-7.6,0.1-12.4,0.6   c-3.5,0.3-7.1,0.6-10,0.7c0.1,0.2,0.2,0.3,0.3,0.5c0.7,0.7,2.5,3.2,4.2,5.6C24.2,64.1,26.2,66.5,27.5,67.1z"></path><path d="M55.3,38.5c-5.2-1.7-8.2-2.7-9.9-3.4c-0.8,4-4.1,10.4-5.8,13.3c0,0.1,0,0.2,0,0.3c3.9,3.6,10.7,13.3,13.6,22.1   c3.6-1.2,9.2-3.8,12-5.1c0.4-0.2,0.7-0.5,0.8-0.9l3.9-9.5c0-0.1,0-0.1,0.1-0.2c1.1-4,2-8.1,2.9-12.1l0.5-2.5   c0.1-0.3,0.1-0.6,0.1-0.9c-3,0.2-6.1,0.5-8.8,0.5C63,40.2,55.3,38.5,55.3,38.5z"></path></g></svg>