<svg xmlns:dc="http://purl.org/dc/elements/1.1/" xmlns:cc="http://creativecommons.org/ns#" xmlns:rdf="http://www.w3.org/1999/02/22-rdf-syntax-ns#" xmlns:svg="http://www.w3.org/2000/svg" xmlns="http://www.w3.org/2000/svg" xmlns:sodipodi="http://sodipodi.sourceforge.net/DTD/sodipodi-0.dtd" xmlns:inkscape="http://www.inkscape.org/namespaces/inkscape" viewBox="0 0 344.735 750.25916" version="1.1" x="0px" y="0px"><g transform="translate(-147.31465,-267.75705)"><path style="" d="m 319.68165,267.75705 c -95.078,0 -172.367,104.805 -172.367,233.4593 0,101.3469 48.009,187.4925 114.912,219.6406 l 0,60.7281 c 0,49.3391 -9.673,97.7145 -18.425,146.1848 -1.676,9.4954 -1.57,19.5136 0.728,29.94 6.454,29.9137 31.474,54.06375 61.698,59.15275 48.408,8.2544 90.547,-28.89945 90.547,-75.88035 0,-7.8198 -1.281,-15.3491 -3.516,-22.4242 -14.15,-45.181 -16.121,-93.2561 -16.121,-140.6092 l 0,-57.213 c 66.84,-31.9618 114.912,-118.1726 114.912,-219.5195 0,-128.6543 -77.351,-233.4593 -172.368,-233.4593 z m 0,19.879 c 84.094,0 152.609,95.849 152.609,213.5803 0,117.7314 -68.515,213.4586 -152.609,213.4586 -84.217,0.062 -152.731,-95.6653 -152.731,-213.4586 0,-117.7313 68.576,-213.5803 152.731,-213.5803 z m 0,14.7882 c -76.647,0 -138.669,89.0667 -138.669,198.7921 0,22.156 2.557,43.473 7.273,63.3948 l 169.943,-254.3082 c -12.351,-5.027 -25.203,-7.8787 -38.547,-7.8787 z m 60,19.7578 -182.305,272.8544 c 3.91,10.4879 8.547,20.2668 13.698,29.5761 l 190.064,-284.1271 c -6.703,-7.013 -13.946,-13.1521 -21.457,-18.3034 z m 52.731,63.5166 -188.491,281.9452 c 21.786,20.3563 47.77,32.2431 75.76,32.2431 76.585,-0.062 138.67,-88.8832 138.67,-198.6706 0,-43.1329 -9.618,-82.9352 -25.939,-115.5177 z m -112.731,524.2527 c 17.378,0 31.516,14.1388 31.516,31.5161 0,17.3775 -14.138,31.3947 -31.516,31.3947 -17.377,0 -31.515,-14.0172 -31.515,-31.3947 0,-17.3773 14.138,-31.5161 31.515,-31.5161 z" fill="#000000"></path></g></svg>