<svg xmlns:dc="http://purl.org/dc/elements/1.1/" xmlns:cc="http://creativecommons.org/ns#" xmlns:rdf="http://www.w3.org/1999/02/22-rdf-syntax-ns#" xmlns:svg="http://www.w3.org/2000/svg" xmlns="http://www.w3.org/2000/svg" xmlns:sodipodi="http://sodipodi.sourceforge.net/DTD/sodipodi-0.dtd" xmlns:inkscape="http://www.inkscape.org/namespaces/inkscape" viewBox="0 0 536.37498 726.07518" version="1.1" x="0px" y="0px"><g transform="translate(-96.411231,-350.71003)"><path style="" d="m 364.53823,350.71003 c -147.893,0 -268.126999,162.8882 -268.126999,363.0375 0,200.2116 120.233999,363.03767 268.126999,363.03767 147.892,0 268.248,-162.82607 268.248,-363.03767 0,-200.1493 -120.356,-363.0375 -268.248,-363.0375 z m 0,30.6672 c 130.889,0 237.458,148.9807 237.458,332.2494 0,183.2686 -106.569,332.37027 -237.458,332.37027 -130.888,0 -237.459,-149.10167 -237.459,-332.37027 0,-183.2687 106.571,-332.2494 237.459,-332.2494 z m 0,23.1521 c -119.221,0 -215.883,138.3651 -215.883,309.0973 0,34.5684 4.129,67.759 11.515,98.7901 l 264.49,-395.5232 c -19.114,-7.9441 -39.269,-12.3642 -60.122,-12.3642 z m 93.456,30.7884 -283.642,424.3727 c 6.145,16.3843 13.268,31.6627 21.213,46.0611 l 295.643,-441.948 c -10.426,-10.861 -21.545,-20.3557 -33.214,-28.4858 z m 81.941,98.7901 -293.219,438.4328 c 33.888,31.77557 74.318,50.42517 117.822,50.42517 119.158,0 215.762,-138.42387 215.762,-309.21827 0.05,-67.1508 -15.042,-128.9974 -40.365,-179.6397 z" fill="#000000"></path></g></svg>