<svg xmlns="http://www.w3.org/2000/svg" xmlns:xlink="http://www.w3.org/1999/xlink" version="1.1" x="0px" y="0px" viewBox="0 0 64 64" enable-background="new 0 0 64 64" xml:space="preserve"><g><g><path fill="#000000" d="M52.4,11.1c-2.7,0.6-5.7-0.3-8.5-0.2c-3.2,0.1-6.3,0.4-9.5,0.6c-6.9,0.5-13.7-1.2-20.6-0.7    c-0.4,0-0.7,0.4-0.8,0.8c-0.4,3.6-0.3,7.1-0.2,10.7c0,0.3,0.1,0.4,0.4,0.5c5.7,0.7,11.4,0.1,17.1,0.3c7.2,0.3,14.2,0.7,21.4,0.6    c0.6,0,1.2-1.2,0.4-1.2c-7.8,0.1-15.5-0.4-23.3-0.7c-3.8-0.1-7.7,0.2-11.5,0.1c-4.8-0.1-3.5-5.3-3.3-8.8c0.1-2.3,17.8-0.2,20-0.3    c3.8-0.1,7.5-0.6,11.3-0.7c2.4,0,4.6,0.7,6.9,0.2C52.9,12.2,53.2,10.9,52.4,11.1L52.4,11.1z"></path><path fill="#000000" d="M13.2,16.2c12.8,0,25.5,0.9,38.3,0.9c0.6,0,1.2-1.2,0.4-1.2c-12.8,0-25.5-0.9-38.3-0.9    C13,15,12.4,16.2,13.2,16.2L13.2,16.2z"></path><path fill="#000000" d="M13.2,19.6c12.8,0,25.5,0.9,38.3,0.9c0.6,0,1.2-1.2,0.4-1.2c-12.8,0-25.5-0.9-38.3-0.9    C13,18.4,12.4,19.6,13.2,19.6L13.2,19.6z"></path><path fill="#000000" d="M15.5,11.9c0,3.5,0.2,6.9,0.2,10.4c0,0.9,1.2,0.3,1.2-0.3c0-3.5-0.2-6.9-0.2-10.4    C16.7,10.7,15.5,11.2,15.5,11.9L15.5,11.9z"></path></g><g><path fill="#000000" d="M52.4,25.7c-2.7,0.6-5.7-0.3-8.5-0.2c-3.2,0.1-6.3,0.4-9.5,0.6c-6.9,0.5-13.7-1.2-20.6-0.7    c-0.4,0-0.7,0.4-0.8,0.8c-0.4,3.6-0.3,7.1-0.2,10.6c0,0.3,0.1,0.4,0.4,0.5c5.7,0.7,11.4,0.1,17.1,0.3c7.2,0.3,14.2,0.7,21.4,0.6    c0.6,0,1.2-1.2,0.4-1.2c-7.8,0.1-15.5-0.4-23.3-0.7c-3.8-0.1-7.7,0.2-11.5,0.1c-4.8-0.1-3.5-5.3-3.3-8.8c0.1-2.3,17.8-0.2,20-0.3    c3.8-0.1,7.5-0.6,11.3-0.7c2.4,0,4.6,0.7,6.9,0.2C52.9,26.8,53.2,25.6,52.4,25.7L52.4,25.7z"></path><path fill="#000000" d="M13.2,30.8c12.8,0,25.5,0.9,38.3,0.9c0.6,0,1.2-1.2,0.4-1.2c-12.8,0-25.5-0.9-38.3-0.9    C13,29.6,12.4,30.8,13.2,30.8L13.2,30.8z"></path><path fill="#000000" d="M13.2,34.2c12.8,0,25.5,0.9,38.3,0.9c0.6,0,1.2-1.2,0.4-1.2c-12.8,0-25.5-0.9-38.3-0.9    C13,33,12.4,34.2,13.2,34.2L13.2,34.2z"></path><path fill="#000000" d="M15.5,26.5c0,3.5,0.2,6.9,0.2,10.4c0,0.9,1.2,0.3,1.2-0.3c0-3.5-0.2-6.9-0.2-10.4    C16.7,25.3,15.5,25.9,15.5,26.5L15.5,26.5z"></path></g><g><path fill="#000000" d="M52.4,40.9c-2.7,0.6-5.7-0.3-8.5-0.2c-3.2,0.1-6.3,0.4-9.5,0.6c-6.9,0.5-13.7-1.2-20.6-0.7    c-0.4,0-0.7,0.4-0.8,0.8c-0.4,3.6-0.3,7.1-0.2,10.6c0,0.3,0.1,0.4,0.4,0.5c5.7,0.7,11.4,0.1,17.1,0.3c7.2,0.3,14.2,0.7,21.4,0.6    c0.6,0,1.2-1.2,0.4-1.2c-7.8,0.1-15.5-0.4-23.3-0.7c-3.8-0.1-7.7,0.2-11.5,0.1c-4.8-0.1-3.5-5.3-3.3-8.8c0.1-2.3,17.8-0.2,20-0.3    c3.8-0.1,7.5-0.6,11.3-0.7c2.4,0,4.6,0.7,6.9,0.2C52.9,42,53.2,40.7,52.4,40.9L52.4,40.9z"></path><path fill="#000000" d="M13.2,46c12.8,0,25.5,0.9,38.3,0.9c0.6,0,1.2-1.2,0.4-1.2c-12.8,0-25.5-0.9-38.3-0.9    C13,44.8,12.4,46,13.2,46L13.2,46z"></path><path fill="#000000" d="M13.2,49.4c12.8,0,25.5,0.9,38.3,0.9c0.6,0,1.2-1.2,0.4-1.2c-12.8,0-25.5-0.9-38.3-0.9    C13,48.2,12.4,49.4,13.2,49.4L13.2,49.4z"></path><path fill="#000000" d="M15.5,41.7c0,3.5,0.2,6.9,0.2,10.4c0,0.9,1.2,0.3,1.2-0.3c0-3.5-0.2-6.9-0.2-10.4    C16.7,40.5,15.5,41,15.5,41.7L15.5,41.7z"></path></g><path fill="#000000" d="M24.6,16.4c-3.9-4.8-7,4.3-2.3,3.8c2.2-0.2,2.9-3.5,3.3-5.2c0.4-1.5,0.6-3,0.9-4.6c0.2-1.2,0.9-2.7,0.9-3.9   c0-0.9-1.2-0.3-1.2,0.3c0,3.6,6.7,3.2,8.9,3.4c0.1-0.4,0.2-0.8,0.2-1.2c-2.9,1.1-5.9,1.3-8.9,0.5c-0.6-0.2-1.3,1-0.7,1.2   c3.2,0.9,6.4,0.7,9.5-0.5c0.4-0.2,1-1.2,0.2-1.2c-1.6-0.1-8.2,0.2-8.2-2.5c0-0.9-1.2-0.3-1.2,0.3c0,0.9-0.5,2-0.7,2.9   c-0.3,1.6-0.5,3.2-0.9,4.7c-0.3,1.4-0.6,2.9-1.5,4.1c-0.8,1.1-2.3,0-2.3-1c0-2,1.9-1.2,2.6-0.3C24,17.9,25,16.9,24.6,16.4   L24.6,16.4z"></path><g><path fill="#000000" d="M39,14.8c-2.3-0.7-4.8,0.3-5.2,2.8c-0.2,1.5,1.6,3.6,3.1,2.5c1.6-1.2,2-3.7,2.3-5.5    c0.5-2.4,0.7-4.8,0.8-7.2c-0.3,0.2-0.6,0.5-0.9,0.7c3.2,1.1,6.3,1.2,9.3-0.3c-0.2-0.1-0.4-0.2-0.7-0.2c0.3,3.2,0.6,8.1-1.3,10.8    c-2.5,3.5-2.9-5.4,0.2-2.2c0.4,0.5,1.3-0.6,0.9-1.1c-3-3.1-5.8,3-3.5,5.1c1.5,1.4,3.6-1.7,4-2.7c1.3-3.1,1.2-7.2,0.9-10.5    c0-0.3-0.4-0.3-0.7-0.2c-2.8,1.3-5.6,1.2-8.5,0.2c-0.4-0.1-0.9,0.4-0.9,0.7c0,2.1-0.3,4.2-0.6,6.2c-0.2,1.3-0.5,2.7-1,4    c-0.1,0.4-0.5,1.5-1.1,1.3c-0.4-0.2-0.7-0.6-1-1c-1.9-2.7,2.5-2.4,3.1-2.2C38.9,16.2,39.6,15.1,39,14.8L39,14.8z"></path><path fill="#000000" d="M36.3,18c-0.4-0.4-0.9-0.9-1.2-1.4c-0.3,0.3-0.6,0.6-1,1c0.7,0.7,1.2,1.8,1.7,2.7c0.3,0.6,1.1-0.2,1.1-0.6    c0-0.8-0.2-1.6-0.6-2.3c-0.3,0.3-0.6,0.7-0.9,1c0.3,0.1,0.5,0.5,0.6,0.7c0.4,0.5,1.2-0.5,1-1c-0.3-0.6-0.5-1.2-0.8-1.8    c-0.3-0.6-1.2,0.3-1.1,0.7c0.1,0.7,0.7,1.1,1.1,1.5c0.3-0.4,0.6-0.7,0.9-1.1c-0.5-0.3-0.7-0.9-1.3-1.3c-0.3,0.4-0.6,0.7-0.9,1.1    c0.4,0.3,0.7,0.6,1,1c0.4,0.5,1.2-0.5,1-1c-0.3-0.5-0.7-0.9-0.7-1.4c-0.3,0.3-0.7,0.6-1,0.8C35.7,17.1,36.1,17.4,36.3,18    c0.3-0.4,0.6-0.7,0.9-1.1c0.1,0,0-0.4,0-0.6c-0.3,0.2-0.7,0.5-1,0.7c0.1,0.1,0.2,0.2,0.3,0.3c0.1,0.1,0.2,0.2,0.3,0.3    c0.2,0.2,0.1,0.3,0.1-0.1c0.2-0.2,0.4-0.4,0.6-0.6c0,0,0,0,0,0c0.2,0.1,0.3,0.2,0.5,0.3c0-0.4-0.2-0.8-0.3-1.3    c-0.1-0.8-1.2,0-1.1,0.6c0,0.4,0.2,0.8,0.3,1.3c0,0.2,0.3,0.4,0.5,0.3c1.3-0.5,0.3-1.6-0.3-2.1c-0.4-0.4-1,0.3-1,0.7    c0,0.5,0,1.3,0.5,1.5c0.5,0.2,1.1-0.6,0.9-1c-0.3-0.5-0.7-1-1.1-1.4c-0.4-0.4-1.1,0.4-1,0.8c0.1,0.6,0.5,1.1,0.8,1.7    c0.3-0.3,0.6-0.6,1-1c-0.3-0.4-0.6-0.8-1-1c-0.6-0.3-1.4,0.7-0.9,1.1c0.5,0.3,0.7,0.9,1.3,1.3c0.5,0.3,1.4-0.6,0.9-1.1    c-0.3-0.3-0.8-0.6-0.9-1c-0.4,0.2-0.7,0.5-1.1,0.7c0.3,0.6,0.5,1.2,0.8,1.8c0.3-0.3,0.6-0.6,1-1c-0.3-0.3-0.5-0.7-0.9-0.8    c-0.5-0.2-1.1,0.6-0.9,1c0.3,0.6,0.4,1.1,0.5,1.8c0.4-0.2,0.7-0.4,1.1-0.6c-0.5-1-1.1-2.1-1.9-2.9c-0.4-0.4-1.2,0.5-1,1    c0.3,0.6,0.9,1.1,1.4,1.6C35.8,19.5,36.7,18.4,36.3,18L36.3,18z"></path><path fill="#000000" d="M43.8,18.5c0.4,0.4,0.7,0.7,0.9,1.2c0.4,0.6,1.3-0.3,1.1-0.9C45.4,18,45.3,17,45,16.1    c-0.4,0.2-0.7,0.5-1.1,0.7c0.3,0.6,0.8,1.1,1,1.8c0.2,0.6,1.2-0.2,1.1-0.7c-0.2-0.9-0.3-1.9-0.5-2.8c-0.4,0.2-0.7,0.5-1.1,0.7    c0.3,0.8,0.7,1.5,1,2.3c0.2,0.7,1.1-0.3,1.1-0.7c0-0.6-0.2-1.2-0.3-1.8c-0.4,0.2-0.7,0.5-1.1,0.7c0.4,0.6,0.9,1.1,1.3,1.8    c0.4,0.6,1.3-0.3,1.1-0.9c-0.1-0.3-0.3-1-0.1-1.3c-0.1,0.1-0.3,0.3-0.4,0.4c0,0,0,0,0,0c-0.2,0-0.4-0.1-0.6-0.1c0,0,0,0,0,0    c0.1,0.8,1.2,0,1.1-0.6c0-0.1,0-0.2-0.1-0.2c-0.1-0.2-0.4-0.2-0.6-0.1c-1,0.5-0.7,2.1-0.4,2.9c0.4-0.3,0.7-0.6,1.1-0.9    c-0.4-0.6-0.9-1.1-1.3-1.8c-0.4-0.6-1.1,0.3-1.1,0.7c0,0.6,0.2,1.2,0.3,1.8c0.4-0.2,0.7-0.5,1.1-0.7c-0.3-0.8-0.7-1.5-1-2.3    c-0.2-0.6-1.2,0.2-1.1,0.7c0.2,0.9,0.3,1.9,0.5,2.8c0.4-0.2,0.7-0.5,1.1-0.7c-0.2-0.7-0.7-1.2-1-1.8c-0.3-0.6-1.2,0.2-1.1,0.7    c0.3,1,0.4,2,0.8,2.9c0.4-0.3,0.7-0.6,1.1-0.9c-0.3-0.5-0.7-1-1.1-1.4C44.2,17,43.3,18,43.8,18.5L43.8,18.5z"></path></g><path fill="#000000" d="M28.7,48.6c-2.3,0.5-1.3,5.3-3.8,2c-2.3-3,2.1-4.5,3.6-5.1c1.1-0.4,2.3-1,3-2c1.5-2.2,0.2-5.1-2.6-4.9   c-2,0.2-1.8,3.2-1.7,4.5c0.4,3.2,1.7,6.1,1.5,9.4c0,0.7-0.2,1.5-0.4,2.2c-0.1,0.5-0.2,0.9-0.4,1.3c-1.7,2.1-2.2,2.3-1.5,0.6   c0.6,0.1,1.3-1,0.7-1.2c-1.8-0.4-3.7,0.2-2.9,2.4c0.8,2.1,3.5,0.8,4.2-0.5c1.6-3.1,1.6-6.3,1-9.6c-0.2-1.3-0.6-2.6-0.9-3.9   c-0.1-0.6-0.2-1.3-0.3-1.9c2.4,0.8,2.7,1.5,0.8,2.1c-1.4,0.7-3.4,1.1-4.4,2.4c-4.8,5.9,5.4,9.2,6.4,3.6c0.5-2.6-1.8-5-4.3-3   c-2.1,1.7-0.4,3.3,1.7,2.8C29.2,49.7,29.5,48.4,28.7,48.6L28.7,48.6z"></path><path fill="#000000" d="M23.8,35.3c0.1,0.3,0.2,0.5,0.4,0.8c0.7,0.6,1.8-0.4,2-1.1c0.1-0.4,0.1-0.7,0.1-1.1c0-0.2,0-0.6-0.3-0.8   c-2.1-1.2-4.5-1.4-5.7,1.1c-0.8,1.7-0.5,4.2,1,5.5c2.1,1.7,4.8-1.2,5.7-2.9c2.2-3.8,1.4-8.8,2.7-12.9c-0.7,0.2-1.5,0.4-2.2,0.6   c0.9,4,5.1,3.8,8.4,3.7c0-0.7-0.1-1.4-0.1-2.1c-2.2,1.9-5.6,1.7-8.2,0.7c-1.1-0.5-2.6,1.8-1.3,2.4c3.4,1.4,7.7,1.2,10.5-1.3   c0.5-0.5,1.2-2.1-0.1-2.1c-2.4,0-6.3,0.6-6.9-2.5c-0.3-1.4-2-0.2-2.2,0.6c-0.7,2.1-0.9,4.4-1.2,6.6c-0.3,2.3-0.4,5.3-2.3,7   c-1,0.9-1.7-0.8-1.9-1.6c-0.5-2.4,1.5-0.3,1.7-0.9c0.7-0.4,1.3-0.7,2-1.1c0,0,0.1,0.1,0.1,0.2C25.6,32.6,23.4,34.1,23.8,35.3   L23.8,35.3z"></path><path fill="#000000" d="M35.2,35.3c0.1,0.3,0.2,0.5,0.4,0.8c0.7,0.7,1.8-0.4,2-1.1c0.1-0.4,0.1-0.7,0.1-1.1c0-0.2,0-0.6-0.3-0.8   c-2.1-1.2-4.5-1.4-5.7,1.1c-0.8,1.7-0.5,4.2,1,5.5c2.1,1.7,4.8-1.2,5.7-2.9c2.2-3.8,1.4-8.8,2.7-12.9c-0.7,0.2-1.5,0.4-2.2,0.6   c0.9,4,5.1,3.8,8.4,3.7c0-0.7-0.1-1.4-0.1-2.1c-2.2,1.9-5.6,1.7-8.2,0.7c-1.1-0.5-2.6,1.8-1.3,2.4c3.4,1.4,7.7,1.2,10.5-1.3   c0.5-0.5,1.2-2.1-0.1-2.1c-2.4,0-6.3,0.6-6.9-2.5c-0.3-1.4-2-0.2-2.2,0.6c-0.7,2.1-0.9,4.4-1.2,6.6c-0.3,2.3-0.4,5.3-2.3,7   c-1,0.9-1.7-0.8-1.9-1.6c-0.5-2.4,1.5-0.3,1.7-0.9c0.7-0.4,1.3-0.7,2-1.1c0,0,0.1,0.1,0.1,0.2C37,32.6,34.8,34.1,35.2,35.3   L35.2,35.3z"></path><path fill="#000000" d="M42.6,51.1c-2.2-0.7-4.2,0.7-4.7,2.9c-0.4,1.7,1.8,2.9,3.1,1.8c1.8-1.5,2-4.4,2.3-6.5   c0.4-2.9,0-7.2,1.5-9.8c0.5-0.8-0.6-1-1-0.3c-1.2,2-1.1,4.9-1.3,7.1c-0.2,1.7-0.4,3.4-0.7,5.1c-0.1,0.8-0.4,1.6-0.6,2.4   c-1.2,3.4-4.6-3.4,0.7-1.6C42.6,52.5,43.3,51.3,42.6,51.1L42.6,51.1z"></path><path fill="#000000" d="M38.1,52.9c-0.4,0.9,0.4,1.7,1,2.3c0.4,0.4,1-0.3,1-0.7c0-0.5,0-1.1,0-1.6c-0.4,0.2-0.7,0.4-1.1,0.6   c0.2,0.4,0.4,0.9,0.8,1.3c0.4,0.5,1.2-0.5,1-1c-0.2-0.4-0.2-0.9-0.2-1.3c-0.4,0.2-0.7,0.4-1.1,0.6c0.2,0.7,0.7,1.2,0.9,1.8   c0.2,0.6,1.1-0.2,1.1-0.6c0-0.9,0-1.8-0.2-2.7c-0.4,0.2-0.8,0.4-1.1,0.6c0.2,0.7,0.5,1.4,0.7,2.1c0.2,0.7,1.3,0,1.1-0.6   c-0.2-0.6-0.3-1.2-0.5-1.8c-0.4,0.2-0.7,0.5-1.1,0.7c0.2,0.2,0.4,0.7,0.8,0.7c0.3,0,0.7-0.3,0.7-0.6c0.1-0.3,0-0.6,0-0.9   c0-0.3-0.2-0.5-0.5-0.4c-0.4,0.1-0.6,0.4-0.6,0.7c-0.1,0.4-0.2,1.2,0.3,1.5c0.5,0.4,1.1-0.4,1.1-0.9c0.1-0.8-1.1-0.3-1.2,0.3   c0,0,0,0,0,0c0.1-0.1,0.2-0.3,0.3-0.4c0,0,0,0,0,0c0.1-0.1,0.3-0.1,0.4-0.2c0.3,0,0.2,0.2,0.2-0.1c0-0.2,0-0.4,0.1-0.6   c-0.4,0.1-0.8,0.2-1.2,0.3c0,0.1,0,0.2,0,0.3c0,0.1,0,0.5,0,0.3c0.2-0.2,0.5-0.4,0.7-0.6c0.2,0,0.2,0.1,0-0.1   c0-0.1-0.1-0.1-0.1-0.2c-0.4-0.5-1.3,0.2-1.1,0.7c0.2,0.6,0.3,1.2,0.5,1.8c0.4-0.2,0.8-0.4,1.1-0.6c-0.2-0.7-0.5-1.4-0.7-2.1   c-0.3-0.7-1.3,0-1.1,0.6c0.2,0.8,0.2,1.6,0.2,2.4c0.4-0.2,0.7-0.4,1.1-0.6c-0.2-0.6-0.7-1.2-0.9-1.8c-0.2-0.6-1.1,0.2-1.1,0.6   c0,0.6,0,1.3,0.3,1.9c0.3-0.3,0.6-0.6,1-1c-0.3-0.3-0.4-0.7-0.6-1c-0.3-0.6-1.1,0.2-1.1,0.6c0,0.5,0,1.1,0,1.6   c0.3-0.2,0.7-0.5,1-0.7c-0.3-0.3-0.6-0.6-0.8-1c-0.1-0.2,0-0.2-0.1,0.1C39.5,52.4,38.4,52.2,38.1,52.9L38.1,52.9z"></path><path fill="#000000" d="M8.2,3.2c-0.9,3.4-0.7,6.9-0.6,10.3C7.9,19.3,7.4,25,7.2,30.8c-0.4,8.5-0.7,17.3-0.3,25.8   c0.1,1.8,0.2,4.2,1.6,5.6c0.5,0.5,2.9,0.2,3,0.1c3.1-0.1,6.1,0.4,9.3,0c5.8-0.7,12,0.4,17.8,1c3.1,0.4,6.2,0.7,9.3,0.3   c2.9-0.4,5.5-1.1,8.4-0.9c0.4,0,0.7-0.4,0.8-0.8c0.8-10.2-0.7-20.4-0.3-30.6c0.4-9.9,0.3-19.7,0.3-29.7c0-0.2-0.1-0.5-0.4-0.5   C47.9,2.4,39.2,0.4,30.4,0C25.9-0.1,21.5,0.4,17,0.4c-3.1,0-6.1,0-9.1,1.1C7.5,1.7,6.9,2.7,7.7,2.7c0.1,0,0.3,0,0.4,0   c0.6,0,1.2-1.2,0.4-1.2c-0.1,0-0.3,0-0.4,0C8,1.9,7.9,2.3,7.8,2.7c3.7-1.4,7.8-1,11.6-1.1c4.9-0.2,9.7-0.4,14.6-0.1   c4.7,0.2,9.4,1.1,14.1,1.5c1.1,0.1,7.7-0.7,7.7,1.2c0,1.9,0.1,3.7,0.2,5.6c0.7,10.1-0.8,20.3-0.6,30.4c0.1,4.7,0.5,9.5,0.6,14.2   c0,1,0.8,7.4-1.2,7.2c-1.7-0.1-3.6,0.4-5.2,0.7c-9.3,1.9-19.1-1.8-28.6-1C19,61.4,10,62.6,8.8,60.4c-1.4-2.6-0.9-6.9-0.8-9.8   C8,43.3,8.1,35.9,8.4,28.5c0.2-4.1,0.6-8.1,0.5-12.2c-0.1-4.3-0.8-8.8,0.4-13C9.5,2.4,8.4,2.6,8.2,3.2L8.2,3.2z"></path></g></svg>