<svg xmlns="http://www.w3.org/2000/svg" xmlns:xlink="http://www.w3.org/1999/xlink" version="1.1" x="0px" y="0px" viewBox="0 0 100 100" enable-background="new 0 0 100 100" xml:space="preserve"><path fill="#000000" d="M4.901,79.622c0.001,0,0.002,0,0.003,0l14.469-5.088L5.951,75.621L3.177,78.32  C3.161,78.34,0.761,81.078,4.901,79.622z"></path><path fill="#000000" d="M91.32,15.327c1.803-0.324,4.209-0.703,6.759-0.953c0.008-0.003,1.649-0.463,0.361-0.836  c-0.095-0.023-0.19-0.048-0.284-0.07c-0.009-0.001-0.017-0.004-0.026-0.006c-2.411-0.564-4.482-0.741-5.639-0.794  C92.155,13.291,91.711,14.214,91.32,15.327z"></path><path fill="#000000" d="M96.7,19.057c1.681-0.804-0.12-0.698-0.251-0.69c-2.249,0.285-4.356,0.644-5.939,0.954  c-0.044,0.976,0.039,1.976,0.317,2.962c1.853-1.242,3.857-2.304,5.834-3.205C96.675,19.07,96.686,19.063,96.7,19.057z"></path><path fill="#000000" d="M7.899,67.404c-6.316,4.684,0.708,4.216,0.708,4.216l24.759-2.009C65.23,63.109,73.292,42.54,74.911,35.897  v-0.001c0-0.071,0.079-0.235,0.097-0.303c0.159-0.524,0.757-1.739,2.284-1.739h0.002c1.899,0.54,1.488,2.301,1.488,2.301  c-1.467,5.834-7.646,23.295-30.423,32.801c-0.024,0.01-0.046,0.045-0.073,0.057c-1.702,0.738-0.234,1.072-0.096,1.101  c0.811-0.036,1.612-0.075,2.396-0.136l-1.652,3.018V73l-0.097,0.176c-0.2,0.416-0.557,1.528,0.458,2.859l8.145,10.678l-5.327,0.554  h-0.002l-0.338-0.014c-0.55,0.093-1.484,0.438-1.345,1.897c0.188,1.988,2.361,1.778,2.361,1.778v-0.006l8.317-0.803l11.383,0.839  c0,0,2.173,0.365,2.42-1.874l0,0c0-1.345-0.905-1.7-1.53-1.81l-0.665-0.043l-10.714-0.812l-9.391-12.262l2.57-4.697  c9.718-1.48,17.052-5.173,21.855-11.042c8.971-10.96,6.081-25.927,6.052-26.077l-0.097-0.477l0.146-0.463  c0.805-2.561,2.454-4.774,4.545-6.678c-2.189-5.11-0.217-10.474,1.144-13.201c-3.554-1.759-6.842-2.652-9.791-2.652  c-12.741,0-16.225,17.053-16.258,17.225l-0.141,0.718L7.902,67.402C7.901,67.402,7.901,67.403,7.899,67.404z M79.799,14.706  c1.367,0,2.477,1.108,2.477,2.477c0,1.367-1.109,2.476-2.477,2.476s-2.477-1.109-2.477-2.476  C77.322,15.814,78.432,14.706,79.799,14.706z"></path></svg>