<svg xmlns="http://www.w3.org/2000/svg" xmlns:xlink="http://www.w3.org/1999/xlink" version="1.1" x="0px" y="0px" viewBox="0 0 612 792" enable-background="new 0 0 612 792" xml:space="preserve"><path fill="#000000" d="M651.5,703.6c-0.2,0.1-0.4,0.3-0.6,0.4c0,0-0.1-0.1-0.1-0.2C650.9,703.7,651.2,703.6,651.5,703.6  C651.4,703.5,651.5,703.6,651.5,703.6z"></path><path fill="#000000" d="M650.9,254.7c-0.3-0.1-0.6-0.2-0.9-0.3c0.1-0.1,0.1-0.2,0.2-0.3C650.4,254.3,650.6,254.5,650.9,254.7  C650.9,254.7,650.9,254.7,650.9,254.7z"></path><path d="M476,281.7c-14.6-22.8-32.1-43-52.1-61.1c-6.2-5.6-6.1-9.8-1.4-16.3c7.8-10.9,15.2-22.2,21.8-33.8  c13.8-24.3,6.2-51.8-16.5-61.8c-6.8-5.5-14.5-7.5-23.1-6.3c-10.9-2.6-19.3,3.6-29.4,9.4c2.3-11.1,4.4-20.8,6.4-30.5  c1.6-3.8,3.1-7.7,4.7-11.5c2.8-6.7,5.7-13.3,8.3-20c4.2-11.1,1.5-17.7-8.2-21c-11-3.8-17-0.8-21.3,10.1c-1.8,4.7-8,28-8.8,28.8  c-5.4,18.1-10.1,36.3-12.3,55.1c0.5,2.5,0.5,4.9-0.9,7.2c1.4,13,2.7,26,4.1,39c1,0.6,1.5,1.4,1.7,2.4c1.3,3.4,3.4,9,4.7,12.4  c3.8,7.4,13.9,22.1,18.6,31.4c7.7-10.1,13-17.6,18.2-25.4c0.6-0.6-9.9-18.3-10.8-24.2c-2.8-18,8.6-28.1,25.9-27  c10.7,0.7,15.3,4,17.3,12c1.6,6.4-10.4,22.2-16.7,35.3c-9.9,17.6-21.6,32.1-31.6,49.7c-8,14-14.5,15.2-27,5.1l0,0  c0.7-3.7,12.8-27.1,12.8-27.1s-15.8-24.5-20.8-30c0,1.9-19.9,48.6-26.9,61.8c-3.4,7.6-18.9,38.4-18.8,41.4c0.3,0.1,0.7,0.1,1,0.2  c-0.4,0-0.7-0.1-1.1-0.2c-8.3,14.4-14.2,29.9-20.7,46.7c20.8-4.3,40.4-4.8,59.8-2.7c10.7,1.1,17.7-1.7,21.9-11.5  c9.5-21.9,24.1-40.8,36.2-61.2c10.7-18,10.7-18,25.3-3.2c17.2,17.5,34.3,35,40.1,60.4c4.9,21.4-5.1,36.7-26.8,41  c-19.3,3.8-38.4,1.1-57.3-1.6c-43.9-6.3-87.2-6.7-129.8,7.8c-25.6,8.8-47.1,21.1-61.9,45.8c-16.3,27.2-18,72,4,94.7  c5.6,5.8,6.2,12.2,3.8,20.1c-4,12.6-64.7,155.4-64.7,155.4s88.8-128.7,97.4-139.2c2.7-3.3,4.4-5.1,9.2-3.3  c22.9,8.8,47.3,9.2,71.2,12.3c9,1.2,14.5-3.4,15.3-13c0.8-10.1-3.7-14.7-13.7-15.7c-19.5-2-38.8-5-57.6-10.8  c-5.3-1.6-6.2-3.5-3.1-7.8c18.7-25.8,33.1-54.2,49.7-81.3c7.2-11.8,14.1-23.9,22.7-34.6c11.3-14,26.4-0.9,39.5-3.4  c2.1-0.4,4.5,0.6,6.8,0.9c25.6,2.9,51.3,7.9,76.8,1.1c21.3-5.8,42.2-14,48.2-39C491.1,322.5,488.6,301.5,476,281.7z M226.2,438.9  c-6.4,14.7-13.8,28.9-20.9,43.7c-20.4-31.4-4.6-73.2,40.4-89.5C237.4,408.5,232.7,424.1,226.2,438.9z"></path></svg>