<svg xmlns="http://www.w3.org/2000/svg" xmlns:xlink="http://www.w3.org/1999/xlink" version="1.1" x="0px" y="0px" viewBox="0 0 100 100" enable-background="new 0 0 100 100" xml:space="preserve"><path fill="#000000" d="M19.6,83.8h60.8V16.2H19.6V83.8z M20.4,17.1h59.2v65.7H20.4V17.1z M91.5,46.7c-0.9-0.9-2.1-1.4-3.3-1.3  c0.8-0.8,1.3-2,1.3-3.2c0-2.5-2.1-4.6-4.6-4.6c0-2.6,2.4-2.6,2.4-5.3c0-2.6-2.4-2.6-2.4-5.3c0-2.6,2.4-2.6,2.4-5.3s-2.4-2.6-2.4-5.3  c2.5,0,4.6-2.1,4.6-4.6c0-2.5-2.1-4.6-4.6-4.6c-2.5,0-4.6,2.1-4.6,4.6c-2.6,0-2.6-2.4-5.3-2.4c-2.6,0-2.6,2.4-5.3,2.4  c-2.6,0-2.6-2.4-5.3-2.4c-2.6,0-2.6,2.4-5.3,2.4c0-2.5-2.1-4.6-4.6-4.6c0-2.5-2.1-4.6-4.6-4.6c-2.5,0-4.6,2.1-4.6,4.6  c-2.5,0-4.6,2.1-4.6,4.6c-2.6,0-2.6-2.4-5.3-2.4c-2.6,0-2.6,2.4-5.3,2.4c-2.6,0-2.6-2.4-5.3-2.4c-2.6,0-2.6,2.4-5.3,2.4  c0-2.5-2.1-4.6-4.6-4.6c-2.5,0-4.6,2.1-4.6,4.6c0,2.5,2.1,4.6,4.6,4.6c0,2.6-2.4,2.6-2.4,5.3S15,24.3,15,27c0,2.6-2.4,2.6-2.4,5.3  c0,2.6,2.4,2.6,2.4,5.3c-2.5,0-4.6,2.1-4.6,4.6c0,1.3,0.5,2.4,1.3,3.2c-1.2,0-2.4,0.4-3.3,1.3c-1.8,1.8-1.8,4.7,0,6.5  c0.9,0.9,2.1,1.4,3.3,1.4c-0.8,0.8-1.4,2-1.4,3.3c0,2.5,2.1,4.6,4.6,4.6c0,2.6-2.4,2.6-2.4,5.3c0,2.6,2.4,2.6,2.4,5.3  c0,2.6-2.4,2.6-2.4,5.3S15,81,15,83.6c-2.5,0-4.6,2.1-4.6,4.6s2.1,4.6,4.6,4.6c2.5,0,4.6-2.1,4.6-4.6c2.6,0,2.6,2.4,5.3,2.4  c2.6,0,2.6-2.4,5.3-2.4c2.6,0,2.6,2.4,5.3,2.4c2.6,0,2.6-2.4,5.3-2.4c0,2.5,2.1,4.6,4.6,4.6c0,2.5,2.1,4.6,4.6,4.6  c2.5,0,4.6-2.1,4.6-4.6c2.5,0,4.6-2.1,4.6-4.6c2.6,0,2.6,2.4,5.3,2.4c2.6,0,2.6-2.4,5.3-2.4c2.6,0,2.6,2.4,5.3,2.4  c2.6,0,2.6-2.4,5.3-2.4c0,2.5,2.1,4.6,4.6,4.6c2.5,0,4.6-2.1,4.6-4.6s-2.1-4.6-4.6-4.6c0-2.6,2.4-2.6,2.4-5.3s-2.4-2.6-2.4-5.3  c0-2.6,2.4-2.6,2.4-5.3c0-2.6-2.4-2.6-2.4-5.3c2.5,0,4.6-2.1,4.6-4.6c0-1.3-0.5-2.4-1.3-3.3c1.2,0,2.4-0.4,3.3-1.4  C93.3,51.4,93.3,48.5,91.5,46.7z M8.7,50.4c0,0.1,0,0.3,0.1,0.4c0,0.1,0.1,0.3,0.1,0.4c0,0.1,0,0.1,0,0.2c0,0.1,0,0.1,0.1,0.2  c0,0.1,0.1,0.2,0.1,0.3c0,0.1,0.1,0.2,0.1,0.2c0.1,0.1,0.1,0.2,0.1,0.2s-0.1,0-0.2-0.1C9,52,9,52,8.9,51.9c-0.1-0.1-0.2-0.1-0.2-0.2  c0,0-0.1-0.1-0.1-0.1c0-0.1-0.1-0.1-0.1-0.2c-0.1-0.1-0.1-0.3-0.2-0.4c0-0.1-0.1-0.3-0.1-0.5c0-0.2,0-0.3,0-0.5c0-0.2,0-0.3,0-0.5  c0-0.2,0.1-0.3,0.1-0.5c0.1-0.1,0.1-0.3,0.2-0.4c0-0.1,0.1-0.1,0.1-0.2c0-0.1,0.1-0.1,0.1-0.1c0.1-0.1,0.2-0.2,0.2-0.2  C9,48,9,48,9.1,47.9c0.1-0.1,0.2-0.1,0.2-0.1s0,0.1-0.1,0.2c0,0.1-0.1,0.1-0.1,0.2c0,0.1-0.1,0.2-0.1,0.3c0,0.1,0,0.1-0.1,0.2  c0,0.1,0,0.1,0,0.2c0,0.1-0.1,0.2-0.1,0.4c0,0.1,0,0.3-0.1,0.4c0,0.1,0,0.3,0,0.4C8.7,50.1,8.7,50.3,8.7,50.4z M14.8,91.7  c0,0-0.1,0-0.1,0c0,0-0.1,0-0.1,0c-0.1,0-0.2,0-0.3,0c-0.1,0-0.1,0-0.2,0c-0.1,0-0.1,0-0.2,0c-0.1,0-0.3-0.1-0.4-0.1  c-0.1-0.1-0.3-0.1-0.4-0.2c-0.1-0.1-0.3-0.2-0.4-0.3c-0.1-0.1-0.2-0.3-0.3-0.4c-0.1-0.1-0.2-0.3-0.2-0.4c-0.1-0.1-0.1-0.3-0.1-0.4  c0-0.1,0-0.1,0-0.2c0-0.1,0-0.1,0-0.2c0-0.1,0-0.2,0-0.3c0-0.1,0-0.2,0-0.3c0-0.1,0.1-0.2,0.1-0.2s0,0.1,0.1,0.2  c0,0.1,0,0.1,0.1,0.2c0,0.1,0.1,0.2,0.1,0.3c0,0.1,0,0.1,0.1,0.2c0,0.1,0.1,0.1,0.1,0.2c0.1,0.1,0.1,0.2,0.2,0.3  c0.1,0.1,0.2,0.2,0.2,0.3c0.1,0.1,0.2,0.2,0.3,0.3c0.1,0.1,0.2,0.2,0.3,0.3c0.1,0.1,0.2,0.2,0.3,0.2c0.1,0.1,0.2,0.1,0.3,0.2  c0.1,0,0.1,0.1,0.2,0.1c0.1,0,0.1,0,0.2,0.1c0.1,0.1,0.2,0.1,0.3,0.1c0.1,0,0.2,0.1,0.2,0.1c0.1,0,0.2,0.1,0.2,0.1  S14.9,91.7,14.8,91.7z M14.8,15.2c0,0-0.1,0-0.1,0c0,0-0.1,0-0.1,0c-0.1,0-0.2,0-0.3,0c-0.1,0-0.1,0-0.2,0c-0.1,0-0.1,0-0.2,0  c-0.1,0-0.3-0.1-0.4-0.1c-0.1-0.1-0.3-0.1-0.4-0.2c-0.1-0.1-0.3-0.2-0.4-0.3c-0.1-0.1-0.2-0.3-0.3-0.4c-0.1-0.1-0.2-0.3-0.2-0.4  c-0.1-0.1-0.1-0.3-0.1-0.4c0-0.1,0-0.1,0-0.2c0-0.1,0-0.1,0-0.2c0-0.1,0-0.2,0-0.3c0-0.1,0-0.2,0-0.3c0-0.1,0.1-0.2,0.1-0.2  s0,0.1,0.1,0.2c0,0.1,0,0.1,0.1,0.2c0,0.1,0.1,0.2,0.1,0.3c0,0.1,0,0.1,0.1,0.2c0,0.1,0.1,0.1,0.1,0.2c0.1,0.1,0.1,0.2,0.2,0.3  c0.1,0.1,0.2,0.2,0.2,0.3c0.1,0.1,0.2,0.2,0.3,0.3c0.1,0.1,0.2,0.2,0.3,0.3c0.1,0.1,0.2,0.2,0.3,0.2c0.1,0.1,0.2,0.1,0.3,0.2  c0.1,0,0.1,0.1,0.2,0.1c0.1,0,0.1,0,0.2,0.1c0.1,0.1,0.2,0.1,0.3,0.1c0.1,0,0.2,0.1,0.2,0.1c0.1,0,0.2,0.1,0.2,0.1  S14.9,15.2,14.8,15.2z M46.8,6.1c0-0.1,0-0.1,0-0.2c0-0.1,0-0.1,0-0.2c0-0.1,0.1-0.3,0.1-0.4c0.1-0.1,0.1-0.3,0.2-0.4  c0.1-0.1,0.2-0.3,0.3-0.4c0.1-0.1,0.2-0.2,0.4-0.3C48.1,4.1,48.3,4,48.4,4c0.1-0.1,0.3-0.1,0.4-0.1c0.1,0,0.1,0,0.2,0  c0.1,0,0.1,0,0.2,0c0.1,0,0.2,0,0.3,0c0.1,0,0.2,0,0.3,0c0.1,0,0.2,0.1,0.2,0.1s-0.1,0-0.2,0.1c-0.1,0-0.1,0-0.2,0.1  c-0.1,0-0.2,0.1-0.3,0.1c0,0-0.1,0-0.2,0.1c-0.1,0-0.1,0.1-0.2,0.1c-0.1,0.1-0.2,0.1-0.3,0.2c-0.1,0.1-0.2,0.1-0.3,0.2  C48.2,4.8,48.1,4.9,48,5c-0.1,0.1-0.2,0.2-0.3,0.3c-0.1,0.1-0.2,0.2-0.2,0.3c-0.1,0.1-0.1,0.2-0.2,0.3c0,0.1-0.1,0.1-0.1,0.2  c0,0.1,0,0.1-0.1,0.2c0,0.1-0.1,0.2-0.1,0.3C47,6.6,47,6.7,47,6.7c0,0.1-0.1,0.2-0.1,0.2s0-0.1-0.1-0.2c0-0.1,0-0.1,0-0.2  C46.8,6.4,46.8,6.3,46.8,6.1z M49.8,96.1c-0.1,0-0.1,0-0.2,0c-0.1,0-0.2,0-0.3,0c-0.1,0-0.1,0-0.2,0c-0.1,0-0.1,0-0.2,0  c-0.1,0-0.3-0.1-0.4-0.1c-0.1-0.1-0.3-0.1-0.4-0.2c-0.1-0.1-0.3-0.2-0.4-0.3c-0.1-0.1-0.2-0.2-0.3-0.4c-0.1-0.1-0.2-0.3-0.2-0.4  c-0.1-0.1-0.1-0.3-0.1-0.4c0-0.1,0-0.1,0-0.2c0-0.1,0-0.1,0-0.2c0-0.1,0-0.2,0-0.3c0-0.1,0-0.2,0-0.3c0-0.1,0.1-0.2,0.1-0.2  s0,0.1,0.1,0.2c0,0.1,0,0.1,0.1,0.2c0,0.1,0.1,0.2,0.1,0.3c0,0,0,0.1,0.1,0.2c0,0.1,0.1,0.1,0.1,0.2c0.1,0.1,0.1,0.2,0.2,0.3  c0.1,0.1,0.1,0.2,0.2,0.3c0.1,0.1,0.2,0.2,0.3,0.3c0.1,0.1,0.2,0.2,0.3,0.3c0.1,0.1,0.2,0.2,0.3,0.2c0.1,0.1,0.2,0.1,0.3,0.2  c0.1,0,0.1,0.1,0.2,0.1c0.1,0,0.1,0,0.2,0.1c0.1,0,0.2,0.1,0.3,0.1c0.1,0,0.2,0.1,0.2,0.1C49.9,96,50,96,50,96S49.9,96.1,49.8,96.1z   M80.8,83.8c0,0.2-0.2,0.4-0.4,0.4H19.6c-0.2,0-0.4-0.2-0.4-0.4V16.2c0-0.2,0.2-0.4,0.4-0.4h60.8c0.2,0,0.4,0.2,0.4,0.4V83.8z   M85.1,8.5c0,0,0.1,0,0.1,0c0,0,0.1,0,0.1,0c0.1,0,0.2,0,0.3,0c0.1,0,0.1,0,0.2,0c0.1,0,0.1,0,0.2,0c0.1,0,0.3,0.1,0.4,0.1  c0.1,0.1,0.3,0.1,0.4,0.2c0.1,0.1,0.3,0.2,0.4,0.3c0.1,0.1,0.2,0.3,0.3,0.4c0.1,0.1,0.2,0.3,0.2,0.4c0.1,0.1,0.1,0.3,0.1,0.4  c0,0.1,0,0.1,0,0.2c0,0.1,0,0.1,0,0.2c0,0.1,0,0.2,0,0.3c0,0.1,0,0.2,0,0.3c0,0.1-0.1,0.2-0.1,0.2s0-0.1-0.1-0.2  c0-0.1,0-0.1-0.1-0.2c0-0.1-0.1-0.2-0.1-0.3c0-0.1,0-0.1-0.1-0.2c0-0.1-0.1-0.1-0.1-0.2c-0.1-0.1-0.1-0.2-0.2-0.3  c-0.1-0.1-0.2-0.2-0.2-0.3c-0.1-0.1-0.2-0.2-0.3-0.3c-0.1-0.1-0.2-0.2-0.3-0.3c-0.1-0.1-0.2-0.2-0.3-0.2C86.1,9.1,86,9,85.9,9  c-0.1,0-0.1-0.1-0.2-0.1c-0.1,0-0.1,0-0.2-0.1c-0.1-0.1-0.2-0.1-0.3-0.1c-0.1,0-0.2-0.1-0.2-0.1c-0.1,0-0.2-0.1-0.2-0.1  S84.9,8.5,85.1,8.5z M85.1,85c0,0,0.1,0,0.1,0c0,0,0.1,0,0.1,0c0.1,0,0.2,0,0.3,0c0.1,0,0.1,0,0.2,0c0.1,0,0.1,0,0.2,0  c0.1,0,0.3,0.1,0.4,0.1c0.1,0.1,0.3,0.1,0.4,0.2c0.1,0.1,0.3,0.2,0.4,0.3c0.1,0.1,0.2,0.3,0.3,0.4c0.1,0.1,0.2,0.3,0.2,0.4  c0.1,0.1,0.1,0.3,0.1,0.4c0,0.1,0,0.1,0,0.2c0,0.1,0,0.1,0,0.2c0,0.1,0,0.2,0,0.3c0,0.1,0,0.2,0,0.3c0,0.1-0.1,0.2-0.1,0.2  s0-0.1-0.1-0.2c0-0.1,0-0.1-0.1-0.2c0-0.1-0.1-0.2-0.1-0.3c0-0.1,0-0.1-0.1-0.2c0-0.1-0.1-0.1-0.1-0.2c-0.1-0.1-0.1-0.2-0.2-0.3  c-0.1-0.1-0.2-0.2-0.2-0.3c-0.1-0.1-0.2-0.2-0.3-0.3c-0.1-0.1-0.2-0.2-0.3-0.3c-0.1-0.1-0.2-0.2-0.3-0.2c-0.1-0.1-0.2-0.1-0.3-0.2  c-0.1,0-0.1-0.1-0.2-0.1c-0.1,0-0.1,0-0.2-0.1c-0.1-0.1-0.2-0.1-0.3-0.1c-0.1,0-0.2-0.1-0.2-0.1c-0.1,0-0.2-0.1-0.2-0.1  S84.9,85,85.1,85z M91.4,51.5c0,0.1-0.1,0.1-0.1,0.1c-0.1,0.1-0.2,0.2-0.2,0.2C91,52,90.9,52,90.8,52.1c-0.1,0.1-0.2,0.1-0.2,0.1  s0-0.1,0.1-0.2c0-0.1,0.1-0.1,0.1-0.2c0-0.1,0.1-0.2,0.1-0.3c0-0.1,0-0.1,0.1-0.2c0-0.1,0-0.1,0-0.2c0-0.1,0.1-0.2,0.1-0.4  c0-0.1,0-0.3,0.1-0.4c0-0.1,0-0.3,0-0.4c0-0.1,0-0.3,0-0.4c0-0.1,0-0.3-0.1-0.4c0-0.1-0.1-0.3-0.1-0.4c0-0.1,0-0.1,0-0.2  c0-0.1,0-0.1-0.1-0.2c0-0.1-0.1-0.2-0.1-0.3c0-0.1-0.1-0.2-0.1-0.2c-0.1-0.1-0.1-0.2-0.1-0.2s0.1,0,0.2,0.1c0.1,0,0.1,0.1,0.2,0.2  c0.1,0.1,0.2,0.1,0.2,0.2c0,0,0.1,0.1,0.1,0.1c0,0.1,0.1,0.1,0.1,0.2c0.1,0.1,0.1,0.3,0.2,0.4c0,0.1,0.1,0.3,0.1,0.5  c0,0.2,0,0.3,0,0.5c0,0.2,0,0.3,0,0.5c0,0.2-0.1,0.3-0.1,0.5c-0.1,0.1-0.1,0.3-0.2,0.4C91.4,51.4,91.4,51.5,91.4,51.5z M57.8,55.9  c-1.2-3.2,0.3-7,1.3-9c0.3-0.4,0.5-0.9,0.8-1.4c0,0,0,0,0,0l0,0c1-2,1.5-4.3,1.5-6.7c0-7.5-5.1-13.5-11.3-13.5s-11.3,6.1-11.3,13.5  c0,2.5,0.5,4.8,1.5,6.7l0,0c0,0,0,0,0,0c0.2,0.5,0.5,0.9,0.8,1.4c1,2,2.4,5.8,1.3,9c-1.7,4.6-14.7,4.7-18.5,10.9  c-0.6,1-1.2,2.1-1.7,3.2v11.2h56V70c-0.5-1.1-1-2.2-1.7-3.2C72.5,60.6,59.5,60.5,57.8,55.9z"></path></svg>