<svg xmlns="http://www.w3.org/2000/svg" xmlns:xlink="http://www.w3.org/1999/xlink" version="1.1" x="0px" y="0px" viewBox="0 0 64 64" enable-background="new 0 0 64 64" xml:space="preserve"><g><path d="M41.427,14.144c3.548,0.007,6.459-2.894,6.463-6.44c0.004-3.542-2.886-6.447-6.421-6.454   c-3.561-0.007-6.464,2.873-6.475,6.424C34.984,11.224,37.881,14.137,41.427,14.144z"></path><path d="M48.643,37.132c0-0.627-0.061-1.175-0.184-1.68c-0.371-1.527-1.14-2.368-1.978-2.824c-0.099-0.214-0.233-0.417-0.398-0.601   l-4.691-5.272c-0.153-0.184-0.287-0.386-0.39-0.601l-5.578-11.845c-1.821-3.872-7.097-4.457-9.718-1.071   c-0.054,0.065-0.103,0.134-0.157,0.203l-5.192,10.169c-1.132,2.376-2.227,4.775-3.409,7.124c0,0-6.703,9.121,7.392,16.034   c0.119,0.111,1.752,8.631,2.709,12.74c0.042,0.187,0.149,0.363,0.237,0.536c0.069,0.13,0.172,0.241,0.233,0.375   c0.754,1.588,2.28,2.544,4.002,2.288c2.112-0.31,3.822-2.372,3.306-4.706c-0.876-3.956-1.427-7.897-2.322-11.849   c-0.096-0.413-0.199-0.819-0.325-1.217c-0.582-1.813-1.136-3.635-1.557-5.494L29.59,34.86l3.665-12.281l1.84,3.497l1.274,2.575   l4.518,5.196c-0.543,0.719-0.819,1.569-0.819,2.544c0,0.819,0.566,1.465,1.377,1.572c0.826,0.111,1.557-0.379,1.775-1.198   c0.038-0.138,0.054-0.272,0.069-0.39l0.019-0.13c0.008-0.046,0.015-0.088,0.027-0.13c0.134-0.494,0.547-0.788,1.067-0.777   c0.509,0.019,0.765,0.295,0.891,0.616c0.096,0.233,0.119,0.497,0.119,0.7c0.004,3.374,0,6.749,0,10.12L45.41,53.01   c0,2.154,0,5.414,0.015,7.365c0.004,0.249,0.046,0.731,0.291,1.129c0.295,0.471,0.75,0.727,1.263,0.727   c0.172,0,0.348-0.027,0.528-0.084c1.136-0.375,1.136-1.446,1.136-1.798C48.636,54.047,48.632,44.899,48.643,37.132z"></path></g></svg>