<svg xmlns:dc="http://purl.org/dc/elements/1.1/" xmlns:cc="http://creativecommons.org/ns#" xmlns:rdf="http://www.w3.org/1999/02/22-rdf-syntax-ns#" xmlns:svg="http://www.w3.org/2000/svg" xmlns="http://www.w3.org/2000/svg" xmlns:sodipodi="http://sodipodi.sourceforge.net/DTD/sodipodi-0.dtd" xmlns:inkscape="http://www.inkscape.org/namespaces/inkscape" version="1.1" x="0px" y="0px" viewBox="0 0 100 100"><g transform="translate(0,-952.36218)"><path style="font-size:medium;font-style:normal;font-variant:normal;font-weight:normal;font-stretch:normal;text-indent:0;text-align:start;text-decoration:none;line-height:normal;letter-spacing:normal;word-spacing:normal;text-transform:none;direction:ltr;block-progression:tb;writing-mode:lr-tb;text-anchor:start;baseline-shift:baseline;opacity:1;color:#000000;fill:#000000;fill-opacity:1;stroke:none;stroke-width:3.99999976000000010;marker:none;visibility:visible;display:inline;overflow:visible;enable-background:accumulate;font-family:Sans;-inkscape-font-specification:Sans" d="M 29 6 C 21.844013 6.00009 16 11.84401 16 19 A 2.0001999 2.0001999 0 0 0 18 21 L 30.90625 21 C 30.099778 28.668828 26.472978 39.67058 22.96875 50.5 C 19.295914 61.8505 15.710022 72.9404 16 81 C 16 81.021 15.999896 81.0415 16 81.0625 C 16.03474 88.1893 21.865301 94.0002 29 94 L 71 94 C 78.15598 93.9999 84 88.156 84 81 A 2.0001999 2.0001999 0 0 0 82 79 L 69.15625 79 C 69.953207 71.687145 73.291537 61.241398 76.625 50.90625 C 80.437175 39.087 84.292453 27.39163 84 19 C 83.999668 18.99 84.000343 18.97825 84 18.96875 C 83.999949 18.94765 84.000152 18.92735 84 18.90625 C 83.94861 11.79357 78.124457 5.99936 71 6 L 29 6 z M 29 10 L 61.875 10 C 60.038241 11.92991 58.798057 14.32285 58.34375 17 L 20.40625 17 C 21.328019 13.00507 24.71282 10.00006 29 10 z M 68.78125 10 L 71 10 C 75.994147 9.99955 80 14.00579 80 19 A 2.0001999 2.0001999 0 0 0 80 19.0625 C 80.265976 26.002 76.634304 37.83835 72.8125 49.6875 C 68.990696 61.5366 65 73.4283 65 82 C 65 85.0886 65.401561 87.79405 66.84375 89.96875 C 66.851795 89.98088 66.866884 89.987927 66.875 90 L 29 90 C 24.005791 90.0002 20 85.9942 20 81 A 2.0001999 2.0001999 0 0 0 20 80.90625 C 19.744808 74.24815 23.078078 63.06635 26.75 51.71875 C 30.302766 40.739968 34.108797 29.581628 34.90625 21 L 60 21 A 2.0001999 2.0001999 0 0 0 62 19 C 62 15.19078 65.250511 11.20706 68.78125 10 z M 39.8125 28 A 2.0021961 2.0021961 0 1 0 40 32 L 72 32 A 2.0001999 2.0001999 0 1 0 72 28 L 40 28 A 2.0001999 2.0001999 0 0 0 39.8125 28 z M 36.8125 38 A 2.0021961 2.0021961 0 1 0 37 42 L 69 42 A 2.0001999 2.0001999 0 1 0 69 38 L 37 38 A 2.0001999 2.0001999 0 0 0 36.8125 38 z M 33.8125 48 A 2.0021961 2.0021961 0 1 0 34 52 L 66 52 A 2.0001999 2.0001999 0 1 0 66 48 L 34 48 A 2.0001999 2.0001999 0 0 0 33.8125 48 z M 30.8125 58 A 2.0021961 2.0021961 0 1 0 31 62 L 63 62 A 2.0001999 2.0001999 0 1 0 63 58 L 31 58 A 2.0001999 2.0001999 0 0 0 30.8125 58 z M 27.8125 68 A 2.0021961 2.0021961 0 1 0 28 72 L 60 72 A 2.0001999 2.0001999 0 1 0 60 68 L 28 68 A 2.0001999 2.0001999 0 0 0 27.8125 68 z M 26.8125 78 A 2.0021961 2.0021961 0 1 0 27 82 L 59 82 A 2.0001999 2.0001999 0 1 0 59 78 L 27 78 A 2.0001999 2.0001999 0 0 0 26.8125 78 z M 69.0625 83 L 79.59375 83 C 78.905521 85.956653 76.879645 88.383764 74.125 89.4375 A 2.0001999 2.0001999 0 0 0 74 89.40625 C 71.77896 89.40625 70.877469 88.86885 70.15625 87.78125 C 69.529679 86.836466 69.15947 85.185425 69.0625 83 z " transform="translate(0,952.36218)"></path></g></svg>