<svg xmlns="http://www.w3.org/2000/svg" data-name="Layer 1" viewBox="0 0 32 32" x="0px" y="0px"><title>noun project 1</title><path d="M30.45,7.15a45,45,0,0,0-6.84-.57c-3.56,0-6.15.56-7.71,1.68-1.57-1.14-4.14-1.71-7.66-1.71a43.12,43.12,0,0,0-6.9.6A.85.85,0,0,0,.64,8V26.63a.85.85,0,0,0,.94.84s2.83-.31,5.94-.31c5.51,0,7.24.9,7.77,1.44l0,0,0,0a.83.83,0,0,0,.19.11h0l.11,0a.83.83,0,0,0,.21,0h0l.2,0,.12,0h0a.84.84,0,0,0,.19-.11l0,0,0,0c1-1,3.63-1.54,7.43-1.54a53.56,53.56,0,0,1,6.26.4.85.85,0,0,0,1-.84V8a.85.85,0,0,0-.71-.84M2.34,25.69v-17a42.06,42.06,0,0,1,5.9-.46c3.25,0,5.59.52,6.81,1.5V26.48a20.49,20.49,0,0,0-7.53-1c-2.13,0-4.08.13-5.18.23m27.11,0a54.46,54.46,0,0,0-5.52-.3,18.32,18.32,0,0,0-7.18,1.08V9.75c1.2-1,3.56-1.46,6.86-1.46a43.92,43.92,0,0,1,5.84.43Z"></path><path d="M18,12.41a.57.57,0,0,0,.73.34c2.5-.91,6.21-.85,8.88-.64A.57.57,0,1,0,27.7,11c-2.78-.22-6.66-.27-9.35.7a.57.57,0,0,0-.34.73"></path><path d="M27.7,14.6c-2.78-.22-6.66-.27-9.35.71a.57.57,0,1,0,.39,1.06c2.5-.91,6.21-.85,8.88-.64a.57.57,0,0,0,.09-1.13"></path><path d="M27.7,18.23c-2.78-.22-6.66-.27-9.35.7A.57.57,0,1,0,18.73,20c2.5-.91,6.21-.85,8.88-.64a.57.57,0,1,0,.09-1.13"></path><path d="M13.44,11.68c-2.69-1-6.57-.92-9.35-.7a.57.57,0,0,0,.09,1.13c2.67-.21,6.38-.27,8.88.64a.57.57,0,1,0,.39-1.06"></path><path d="M13.44,15.31c-2.69-1-6.57-.92-9.35-.7a.57.57,0,1,0,.09,1.13c2.67-.21,6.38-.27,8.88.64a.57.57,0,1,0,.39-1.07"></path><path d="M13.44,18.94c-2.69-1-6.57-.92-9.35-.7a.57.57,0,0,0,.09,1.13c2.67-.21,6.38-.27,8.88.64a.57.57,0,1,0,.39-1.07"></path><path d="M13.44,22.35c-2.69-1-6.57-.92-9.35-.7a.57.57,0,0,0,.09,1.13c2.67-.21,6.38-.27,8.88.64a.58.58,0,0,0,.19,0,.57.57,0,0,0,.19-1.1"></path></svg>