<svg xmlns="http://www.w3.org/2000/svg" xmlns:xlink="http://www.w3.org/1999/xlink" version="1.1" x="0px" y="0px" viewBox="0 0 100 100" enable-background="new 0 0 100 100" xml:space="preserve"><g><path d="M16.347,87.355c-1.039,1.88-0.355,4.255,1.523,5.294c1.881,1.039,4.255,0.355,5.295-1.524l33.24-60.119l-6.817-3.769   L16.347,87.355z M50.098,29.007l4.537,2.509l-32.61,58.979c-0.691,1.252-2.272,1.707-3.523,1.015   c-1.252-0.691-1.706-2.271-1.014-3.523L50.098,29.007z"></path><path d="M63.566,18.055l2.277-4.12l-6.817-3.769l-2.273,4.112C42.78,6.684,34.713,6.746,27.124,6.906l2.252,5.184   c11.252,1.415,20.958,6.352,20.958,6.352s2.074,1.3,1.993,4.2l-1.957,3.539l3.171,1.753l3.169,1.752l1.957-3.539   c2.414-1.61,4.618-0.545,4.618-0.545s13.958,6.905,20.769,19.202C84.054,44.805,86.624,31.146,63.566,18.055z M59.536,11.937   l4.537,2.509l-1.325,2.397l-4.537-2.509L59.536,11.937z"></path></g></svg>