<svg xmlns="http://www.w3.org/2000/svg" xmlns:xlink="http://www.w3.org/1999/xlink" version="1.1" x="0px" y="0px" viewBox="0 0 100 100" enable-background="new 0 0 100 100" xml:space="preserve"><path fill="#000000" d="M13.813,35.119c0.025,0.056,0.062,0.106,0.105,0.148l0.547,0.525c0.029,0.028,0.062,0.053,0.097,0.073  l66.565,38.434c0.035,0.02,0.072,0.035,0.11,0.047l0.679,0.197c0.046,0.013,0.093,0.02,0.14,0.02c0.013,0,0.025,0,0.038-0.002  l0.853-0.064c0.056-0.005,0.11-0.019,0.162-0.041l0.854-0.371c0.033-0.016,0.065-0.033,0.095-0.056l0.896-0.656  c0.024-0.018,0.047-0.038,0.067-0.06l0.81-0.854c0.019-0.02,0.036-0.04,0.051-0.062l0.7-1.027c0.015-0.021,0.026-0.042,0.037-0.064  l0.547-1.138c0.012-0.022,0.021-0.046,0.027-0.069l0.35-1.139c0.011-0.034,0.018-0.07,0.021-0.105l0.088-1.072  c0.003-0.029,0.003-0.058,0-0.086l-0.088-0.963c-0.005-0.056-0.02-0.11-0.043-0.162l-0.35-0.766  c-0.029-0.063-0.072-0.121-0.125-0.168l-0.547-0.48c-0.024-0.021-0.052-0.041-0.08-0.059L19.854,26.664  c-0.032-0.018-0.065-0.033-0.101-0.044l-0.7-0.219c-0.049-0.015-0.099-0.023-0.149-0.023c-0.018,0-0.036,0.001-0.054,0.003  l-0.81,0.088c-0.048,0.005-0.094,0.017-0.138,0.035l-0.896,0.372c-0.034,0.014-0.066,0.032-0.097,0.054l-0.897,0.634  c-0.029,0.02-0.056,0.043-0.079,0.069l-0.81,0.875c-0.019,0.02-0.035,0.042-0.051,0.064L14.395,29.6  c-0.011,0.018-0.021,0.036-0.031,0.055l-0.547,1.115c-0.012,0.024-0.021,0.048-0.028,0.073l-0.35,1.138  c-0.01,0.032-0.017,0.064-0.02,0.097l-0.109,1.094c-0.004,0.036-0.004,0.072,0,0.107l0.109,0.94  c0.007,0.054,0.021,0.106,0.045,0.155L13.813,35.119z M80.653,70.621l0.342-1.133l0.535-1.091l0.665-1.009l0.827-0.848l0.827-0.616  l0.854-0.354l0.747-0.081l0.631,0.197l0.49,0.432l0.322,0.706l0.083,0.911l-0.086,1.046l-0.338,1.1l-0.538,1.12l-0.683,1.002  l-0.79,0.833l-0.867,0.634l-0.811,0.354l-0.79,0.061l-0.609-0.177l-0.49-0.451l-0.323-0.709l-0.104-0.895L80.653,70.621z"></path></svg>