<svg xmlns="http://www.w3.org/2000/svg" xmlns:xlink="http://www.w3.org/1999/xlink" version="1.1" x="0px" y="0px" viewBox="0 0 100 100" style="enable-background:new 0 0 100 100;" xml:space="preserve"><g><path d="M79.244,84.98c0,0-2.824-13.512-2.824-34.98c0-21.468,2.824-34.979,2.824-34.979H20.756c0,0,2.824,13.511,2.824,34.979   c0,21.469-2.824,34.98-2.824,34.98H79.244z"></path><g><g><path d="M20.756,5v8.588h58.489V5H20.756z M23.048,9.775v-1h53.904v1H23.048z"></path><path d="M20.756,86.413V95h58.489v-8.587H20.756z M23.048,91.188v-1h53.904v1H23.048z"></path></g><g><path d="M26.203,19.996"></path><path d="M26.203,19.996"></path><path d="M26.203,19.996"></path></g><path d="M73.797,19.996"></path><path d="M73.797,19.996"></path><path d="M73.797,19.996"></path></g></g></svg>