<svg xmlns="http://www.w3.org/2000/svg" xmlns:xlink="http://www.w3.org/1999/xlink" viewBox="0 0 60 60" version="1.1" x="0px" y="0px"><title>55 -Guitar Feather- (sound, audio, play, music)</title><desc>Created with Sketch.</desc><g stroke="none" stroke-width="1" fill="none" fill-rule="evenodd"><g transform="translate(-599.000000, -950.000000)" fill="#000000"><g transform="translate(599.000000, 950.000000)"><path d="M25.0022,7 C25.5542,7 26.0022,7.448 26.0022,8 C26.0022,8.552 25.5542,9 25.0022,9 C24.4502,9 24.0022,8.552 24.0022,8 C24.0022,7.448 24.4502,7 25.0022,7 L25.0022,7 Z M30.0022,5 C30.5542,5 31.0022,5.448 31.0022,6 C31.0022,6.552 30.5542,7 30.0022,7 C29.4502,7 29.0022,6.552 29.0022,6 C29.0022,5.448 29.4502,5 30.0022,5 L30.0022,5 Z M35.0022,7 C35.5542,7 36.0022,7.448 36.0022,8 C36.0022,8.552 35.5542,9 35.0022,9 C34.4502,9 34.0022,8.552 34.0022,8 C34.0022,7.448 34.4502,7 35.0022,7 L35.0022,7 Z M57.2872,27.062 C58.1492,25.106 58.8302,23.374 59.2742,22.011 C61.4842,15.229 58.5702,7.906 52.3452,4.601 C47.0022,1.763 38.4402,0 30.0022,0 C21.5642,0 13.0022,1.763 7.6592,4.601 C3.7442,6.68 1.1412,10.348 0.2962,14.471 L57.2872,27.062 Z"></path><path d="M1.5807,24.3469 C6.0157,35.6279 19.6977,59.9999 30.0027,59.9989 L30.0027,59.9989 C37.4337,59.9989 46.6187,47.3249 52.8297,36.0239 L1.5807,24.3469 Z"></path><path d="M0.7298,22.0107 C0.7398,22.0417 0.7538,22.0787 0.7638,22.1107 L53.8138,34.1977 C54.7858,32.3597 55.6698,30.5807 56.4428,28.9237 L0.0388,16.4627 C-0.0802,18.2917 0.1298,20.1697 0.7298,22.0107"></path></g></g></g></svg>