<svg xmlns="http://www.w3.org/2000/svg" xmlns:xlink="http://www.w3.org/1999/xlink" version="1.1" x="0px" y="0px" viewBox="0 0 96 96" enable-background="new 0 0 96 96" xml:space="preserve"><path d="M48,89.395c-6.398,0-13.997-5.908-21.397-16.636c-10.998-15.94-19.865-40.66-15.538-52.053  C14.468,11.745,27.93,6.606,48,6.606c20.282,0,33.398,5.005,36.932,14.093c4.396,11.298-4.279,35.881-15.138,51.753  C62.32,83.377,54.58,89.395,48,89.395z M48,8.605c-19.192,0-31.973,4.669-35.065,12.81C8.892,32.062,17.76,56.42,28.249,71.624  C35.163,81.646,42.362,87.395,48,87.395c5.814,0,13.156-5.856,20.145-16.07c13.09-19.141,18.287-41.252,14.924-49.899  C79.9,13.277,67.119,8.605,48,8.605z"></path><path d="M47.979,85.167c-5.67,0-12.448-5.3-19.088-14.923C18.968,55.859,10.95,33.592,14.832,23.37  c3.027-7.967,15.108-12.536,33.147-12.536c18.23,0,30.001,4.451,33.143,12.533c3.94,10.137-3.901,32.281-13.7,46.604  C60.717,79.77,53.812,85.167,47.979,85.167z M47.979,11.833c-17.601,0-29.342,4.334-32.212,11.892  c-3.045,8.016,1.834,28.393,13.947,45.951c6.447,9.346,12.934,14.491,18.265,14.491c5.494,0,12.104-5.243,18.617-14.763  c11.959-17.479,16.684-37.729,13.594-45.675C77.251,16.169,65.512,11.833,47.979,11.833z"></path><ellipse cx="32.8" cy="25.601" rx="1.8" ry="2"></ellipse><ellipse cx="27.399" cy="25.601" rx="1.8" ry="2"></ellipse><ellipse cx="22" cy="25.601" rx="1.801" ry="2"></ellipse><path d="M29.971,42.4c0-1.104,0.963-2,2.143-2c1.184,0,2.145,0.896,2.145,2s-0.961,1.999-2.145,1.999  C30.934,44.399,29.971,43.504,29.971,42.4z"></path><ellipse cx="25.686" cy="42.4" rx="2.143" ry="2"></ellipse><circle cx="25.4" cy="31" r="2"></circle><circle cx="19.4" cy="31" r="2"></circle><circle cx="28.4" cy="37" r="2"></circle><circle cx="22.4" cy="37" r="2"></circle><circle cx="30.4" cy="20" r="2"></circle><circle cx="29.4" cy="48" r="2"></circle><ellipse cx="63.2" cy="25.601" rx="1.8" ry="2"></ellipse><ellipse cx="68.602" cy="25.601" rx="1.799" ry="2"></ellipse><ellipse cx="74" cy="25.601" rx="1.801" ry="2"></ellipse><path d="M66.029,42.4c0-1.104-0.963-2-2.143-2c-1.187,0-2.146,0.896-2.146,2s0.961,1.999,2.146,1.999  C65.066,44.399,66.029,43.504,66.029,42.4z"></path><ellipse cx="70.314" cy="42.4" rx="2.143" ry="2"></ellipse><circle cx="70.6" cy="31" r="2"></circle><circle cx="76.6" cy="31" r="2"></circle><circle cx="67.6" cy="37" r="2"></circle><circle cx="73.6" cy="37" r="2"></circle><circle cx="65.6" cy="20" r="2"></circle><circle cx="66.6" cy="48" r="2"></circle></svg>