<svg xmlns="http://www.w3.org/2000/svg" xmlns:xlink="http://www.w3.org/1999/xlink" viewBox="0 0 100 100" version="1.1" x="0px" y="0px"><title>ic-5</title><desc>Created with Sketch.</desc><g stroke="none" stroke-width="1" fill="none" fill-rule="evenodd"><path d="M57.325,59.447 L50.944,67.469 L57.227,75.369 L55.663,76.613 L49.667,69.075 L43.671,76.613 L42.105,75.369 L48.389,67.469 L42.008,59.447 L43.573,58.203 L49.667,65.864 L55.761,58.203 L57.325,59.447 Z M39.096,61.193 L32.913,67.457 L38.999,73.623 L37.575,75.027 L31.508,68.881 L25.442,75.027 L24.018,73.623 L30.103,67.457 L23.92,61.193 L25.344,59.789 L31.508,66.034 L37.673,59.789 L39.096,61.193 Z M76.414,61.193 L70.231,67.457 L76.316,73.623 L74.892,75.027 L68.826,68.881 L62.76,75.027 L61.336,73.623 L67.421,67.457 L61.238,61.193 L62.662,59.789 L68.826,66.034 L74.99,59.789 L76.414,61.193 Z M79.289,80.001 C79.289,82.085 77.6,83.775 75.516,83.775 L25.311,83.775 C23.227,83.775 21.537,82.085 21.537,80.001 L21.537,55.46 C21.537,53.376 23.227,51.686 25.311,51.686 L75.516,51.686 C77.6,51.686 79.289,53.376 79.289,55.46 L79.289,80.001 Z M22.704,89.158 C22.059,89.158 21.537,88.635 21.537,87.991 C21.537,87.347 22.059,86.824 22.704,86.824 C23.348,86.824 23.87,87.347 23.87,87.991 C23.87,88.635 23.348,89.158 22.704,89.158 L22.704,89.158 Z M24.516,46.45 C25.161,46.45 25.683,46.973 25.683,47.617 C25.683,48.261 25.161,48.784 24.516,48.784 C23.872,48.784 23.35,48.261 23.35,47.617 C23.35,46.973 23.872,46.45 24.516,46.45 L24.516,46.45 Z M26.05,42.814 C27.357,40.49 29.13,38.268 31.179,36.387 C32.85,34.852 34.617,33.741 36.325,32.667 C38.501,31.299 40.557,30.007 42.321,27.93 C44.362,25.528 45.471,22.445 45.289,19.683 C45.253,19.132 45.671,18.655 46.221,18.619 C46.78,18.583 47.248,19 47.285,19.551 C47.501,22.82 46.215,26.436 43.846,29.225 C41.882,31.536 39.598,32.972 37.389,34.361 C35.757,35.387 34.069,36.448 32.531,37.86 C30.636,39.6 28.998,41.652 27.793,43.794 C27.61,44.12 27.27,44.304 26.921,44.304 C26.755,44.304 26.587,44.263 26.431,44.176 C25.95,43.905 25.779,43.295 26.05,42.814 L26.05,42.814 Z M41.451,11.571 C41.199,11.571 40.946,11.476 40.751,11.285 C40.357,10.899 40.35,10.265 40.737,9.871 C41.555,9.036 42.65,8.576 43.82,8.576 L51.698,8.576 C52.251,8.576 52.698,9.024 52.698,9.576 C52.698,10.128 52.251,10.576 51.698,10.576 L43.82,10.576 C43.192,10.576 42.604,10.823 42.165,11.271 C41.97,11.471 41.71,11.571 41.451,11.571 L41.451,11.571 Z M64.612,27.338 C61.386,25.831 57.711,21.229 59.014,17.431 C59.494,16.03 60.563,15.59 61.518,14.632 C62.508,13.638 63.024,12.136 63.024,10.753 C63.024,7.581 60.443,5 57.27,5 L43.292,5 C40.289,5 37.622,7.202 37.337,10.192 C37.21,11.526 37.549,12.905 38.32,14.007 C39.097,15.117 40.452,15.624 41.098,16.838 C43.12,20.642 38.956,25.827 35.722,27.338 C23.741,32.932 16,45.082 16,58.292 L16,86.754 C16,91.308 19.692,95 24.246,95 L76.088,95 C80.643,95 84.334,91.308 84.334,86.754 L84.334,58.292 C84.334,45.082 76.593,32.932 64.612,27.338 L64.612,27.338 Z" fill="#000000"></path></g></svg>