<svg xmlns="http://www.w3.org/2000/svg" xmlns:xlink="http://www.w3.org/1999/xlink" version="1.1" x="0px" y="0px" viewBox="0 0 150 150" enable-background="new 0 0 150 150" xml:space="preserve"><g><path d="M113.264,61.38c1.533,1.502,3.631,2.43,5.943,2.43c4.685,0,8.499-3.808,8.499-8.501c0-4.684-3.814-8.499-8.499-8.499   c-4.689,0-8.497,3.815-8.497,8.499c0,0.801,0.113,1.575,0.321,2.31C112.129,58.571,112.928,59.872,113.264,61.38z M139.958,89.021   c0.044-0.144,0.056-0.298,0.025-0.456l-6.782-19.484c-0.296-1.825-1.849-3.08-3.699-3.08h-14.701l6.035,17.372l0.038,0.164   c0.063,0.339,0.081,0.671,0.051,1.013c0.021,0.166,0.038,0.352,0.038,0.563c0,3.813-3.096,6.911-6.9,6.911   c-0.518,0-1.022-0.061-1.511-0.171l1.42,5.555c0.471,1.828,0.119,3.805-0.966,5.205c-1.116,1.44-2.892,2.388-4.869,2.388h-1.363   c0.246,0,0.509,0,0.791,0h3.69l-0.013,25.25c0,2.069,1.563,3.723,3.633,3.723c1.389,0,3.125-0.788,3.125-1.911V105h2v26.723   c0,1.308,1.891,2.22,3.416,2.22c2.066,0,3.751-1.626,3.751-3.692L127.155,105h3.79c2.042,0,3.227-1.678,2.719-3.653L127,75.688   v-0.022l5.492,14.558c0.328,1.784,1.905,3.08,3.717,3.08c2.07,0,3.777-1.683,3.777-3.757   C139.986,89.377,139.983,89.203,139.958,89.021z"></path><path d="M88.007,53.296c1.73,1.968,4.264,3.212,7.087,3.212c5.204,0,9.444-4.232,9.444-9.446c0-5.204-4.24-9.444-9.444-9.444   c-5.21,0-9.44,4.24-9.44,9.444c0,1.201,0.227,2.349,0.636,3.406C87.059,51.252,87.651,52.213,88.007,53.296z M118.148,84.52   c0.051-0.16,0.063-0.332,0.03-0.508l-7.537-21.618C110.314,60.366,108.59,59,106.533,59H89.85l6.755,19.341l0.037,0.138   c0.071,0.363,0.089,0.712,0.055,1.082c0.025,0.179,0.047,0.382,0.047,0.62c0,4.068-3.303,7.372-7.362,7.372   c-0.727,0-1.432-0.111-2.1-0.313l1.707,6.695c0.501,1.941,0.128,4.042-1.024,5.529c-1.186,1.529-3.07,2.536-5.171,2.536H81v-0.126   c0,0.146,0.678,0.126,1.158,0.126h4.101l-0.015,27.703c0,2.301,1.863,4.204,4.16,4.204c1.543,0,2.596-0.807,3.596-2.054V102h2   v29.478c1,1.451,2.089,2.465,3.781,2.465c2.3,0,4.164-1.942,4.164-4.239L103.925,102h4.212c2.268,0,3.709-1.727,3.145-3.922   L104,69.705v-0.026l5.979,16.176c0.365,1.983,2.055,3.422,4.067,3.422c2.301,0,4.167-1.867,4.167-4.174   C118.213,84.916,118.179,84.724,118.148,84.52z"></path><path d="M59.813,44.058c1.907,2.626,5,4.336,8.489,4.336c5.784,0,10.494-4.702,10.494-10.494c0-5.783-4.71-10.494-10.494-10.494   c-5.788,0-10.489,4.71-10.489,10.494c0,1.663,0.389,3.235,1.078,4.633C59.252,43,59.562,43.51,59.813,44.058z M93.919,79.519   c0.056-0.179,0.069-0.37,0.031-0.563l-8.372-24.104C85.213,52.599,83.297,51,81.012,51H62.157l7.529,21.663l0.038,0.172   c0.078,0.407,0.095,0.804,0.048,1.208c0.022,0.195,0.04,0.407,0.04,0.645c0,4.353-3.541,7.891-7.892,7.891   c-0.992,0-1.947-0.187-2.829-0.529l2.062,8.033c0.541,2.1,0.146,4.009-1.085,5.597C58.823,97.286,56.842,98,54.634,98H52v0.64   c1,0.248,1.263,0.36,1.928,0.36h4.556l-0.016,30.26c0,2.557,2.026,4.658,4.58,4.658c1.714,0,2.952-0.911,3.952-2.297V99h3v32.202   c0,1.615,1.975,2.74,3.856,2.74c2.553,0,4.452-2.13,4.452-4.681L78.113,99h4.68c2.521,0,4.023-1.947,3.395-4.389L78,63.056v-0.028   l6.742,17.974c0.404,2.203,2.332,3.803,4.567,3.803c2.558,0,4.654-2.076,4.654-4.638C93.964,79.958,93.95,79.744,93.919,79.519z"></path><path d="M66.997,73.962c0.061-0.199,0.076-0.41,0.034-0.628l-9.304-26.818c-0.403-2.502-2.534-4.318-5.072-4.318H24.402   c-2.539,0-4.667,1.816-5.067,4.284L10.025,73.34c-0.046,0.218-0.025,0.425,0.03,0.625C10.025,74.215,10,74.453,10,74.684   c0,2.845,2.312,5.152,5.147,5.152c2.489,0,4.767-1.777,5.22-4.249l7.59-19.948v0.125l-9.078,34.997   c-0.691,2.712,0.882,4.91,3.683,4.91h5.062l-0.017,33.101c0,2.841,2.351,5.16,5.189,5.16c1.904,0,3.416-1.029,4.492-2.568V95.671   H39.8v35.228c0.539,1.793,2.503,3.044,4.595,3.044c2.837,0,5.102-2.335,5.102-5.17l-0.061-33.102h5.199   c2.8,0,4.561-2.195,3.862-4.907L49.49,55.671V55.64l7.4,19.971c0.449,2.448,2.546,4.225,5.029,4.225c2.842,0,5.15-2.308,5.15-5.153   C67.069,74.451,67.031,74.212,66.997,73.962z M38.532,39.378c6.426,0,11.66-5.224,11.66-11.66c0-6.425-5.233-11.661-11.66-11.661   c-6.431,0-11.655,5.235-11.655,11.661C26.876,34.154,32.101,39.378,38.532,39.378z"></path></g></svg>