<svg xmlns:dc="http://purl.org/dc/elements/1.1/" xmlns:cc="http://creativecommons.org/ns#" xmlns:rdf="http://www.w3.org/1999/02/22-rdf-syntax-ns#" xmlns:svg="http://www.w3.org/2000/svg" xmlns="http://www.w3.org/2000/svg" xmlns:sodipodi="http://sodipodi.sourceforge.net/DTD/sodipodi-0.dtd" xmlns:inkscape="http://www.inkscape.org/namespaces/inkscape" viewBox="0 0 48 48.000001" version="1.1" x="0px" y="0px"><g transform="translate(0,-1004.3622)"><path style="color:#000000;font-style:normal;font-variant:normal;font-weight:normal;font-stretch:normal;font-size:medium;line-height:normal;font-family:sans-serif;text-indent:0;text-align:start;text-decoration:none;text-decoration-line:none;text-decoration-style:solid;text-decoration-color:#000000;letter-spacing:normal;word-spacing:normal;text-transform:none;direction:ltr;block-progression:tb;writing-mode:lr-tb;baseline-shift:baseline;text-anchor:start;white-space:normal;clip-rule:nonzero;display:inline;overflow:visible;visibility:visible;opacity:1;isolation:auto;mix-blend-mode:normal;color-interpolation:sRGB;color-interpolation-filters:linearRGB;solid-color:#000000;solid-opacity:1;fill:#000000;fill-opacity:1;fill-rule:nonzero;stroke:none;stroke-width:1.20000422;stroke-linecap:round;stroke-linejoin:miter;stroke-miterlimit:4;stroke-dasharray:none;stroke-dashoffset:0;stroke-opacity:1;color-rendering:auto;image-rendering:auto;shape-rendering:auto;text-rendering:auto;enable-background:accumulate" d="m 23.467773,1007.1962 c -1.582551,0.082 -3.100555,0.5417 -4.525391,1.2969 l 4.509766,3.33 0.01563,-4.6269 z m 1.199219,0.01 -0.01563,4.6367 4.541015,-3.2754 c -1.422611,-0.7769 -2.939664,-1.259 -4.52539,-1.3613 z m -6.986328,2.0586 c -1.359471,0.938 -2.608872,2.1646 -3.708985,3.6465 l 2.15625,3.0996 1.552735,-6.7461 z m 12.769531,0.09 1.501953,6.7559 2.175781,-3.0664 c -1.087914,-1.4932 -2.327844,-2.7343 -3.677734,-3.6895 z m -11.677734,0.5078 -1.660157,7.2149 1.607422,0.01 1.902344,0.012 1.398437,-1.9707 1.333985,-1.8809 -4.582031,-3.3848 z m 10.576171,0.072 -4.605468,3.3223 1.314453,1.8867 1.392578,2 1.910156,0.012 1.59961,0.01 -1.611329,-7.2305 z m -16.103515,4.0352 c -1.027352,1.591 -1.889809,3.4067 -2.542969,5.4023 l 4.800781,-2.1621 -2.257812,-3.2402 z m 21.599609,0.1386 -2.279297,3.2149 4.789063,2.2305 c -0.641062,-2.0074 -1.491022,-3.8387 -2.509766,-5.4454 z m -10.802734,0.2403 -1.042969,1.4726 -0.912109,1.2871 3.894531,0.025 -0.908203,-1.3047 -1.03125,-1.4804 z m -6.892578,3.9238 -0.0078,2.4727 -0.0039,1.2695 2.640625,-3.7246 -1.066406,-0.01 -1.5625,-0.01 z m 4.09375,0.025 -4.113282,5.7988 -0.02539,8.4414 4.076172,5.8555 5.576171,0.037 4.111329,-5.7969 0.02539,-8.4433 -4.076172,-5.8555 -5.574218,-0.037 z m -5.292969,0.025 -4.867188,2.1933 2.378907,6.6817 1.003906,-1.416 1.466797,-2.0684 0.0098,-2.9726 0.0078,-2.418 z m 12.335937,0.019 2.615235,3.7578 0.0039,-1.2636 0.0078,-2.4747 -1.560546,-0.012 -1.066407,-0.01 z m 3.826172,0.094 -0.0078,2.4043 -0.0098,2.9746 1.457031,2.0918 0.996094,1.4297 2.419922,-6.6387 -4.855469,-2.2617 z m -21.988281,2.9658 c -0.4783721,1.9715 -0.7566666,4.0738 -0.8066401,6.2656 l 3.0468741,0.02 -2.240234,-6.2851 z m 27.794922,0.1914 -2.277344,6.2461 3.044922,0.02 c -0.03582,-2.1883 -0.303023,-4.2908 -0.767578,-6.2656 z m -21.992188,4.2011 -0.482422,0.6797 -1.292968,1.8242 1.283203,1.8418 0.474609,0.6836 0.01758,-5.0293 z m 16.16211,0.1094 -0.01758,5.0293 0.482422,-0.6797 1.292968,-1.8242 -1.279297,-1.8379 -0.478515,-0.6875 z m -22.7753904,2.9629 c 0.035877,2.1887 0.3011821,4.2925 0.7656244,6.2676 l 2.279297,-6.2481 -3.0449214,-0.02 z m 26.3203124,0.1719 2.240234,6.2871 c 0.478855,-1.9715 0.758433,-4.0759 0.808594,-6.2676 l -3.048828,-0.019 z m -22.183594,0.3515 -2.419922,6.6407 4.855469,2.2617 0.0078,-2.4004 0.0098,-2.9785 -1.453125,-2.0879 -1,-1.4356 z m 21.085937,0.1407 -1.003906,1.416 -1.466797,2.0683 -0.0098,2.9668 -0.0078,2.4239 4.867188,-2.1934 -2.378907,-6.6816 z m -17.439453,5.0957 -0.0039,1.2695 -0.0078,2.4707 1.566406,0.01 1.060547,0.01 -2.615235,-3.7558 z m 13.763672,0.088 -2.640625,3.7226 1.066406,0.01 1.5625,0.012 0.0078,-2.4785 0.0039,-1.2636 z m -20.216797,2.4609 c 0.640925,2.0073 1.492809,3.8388 2.511719,5.4453 l 2.277344,-3.2148 -4.789063,-2.2305 z m 26.650391,0.1816 -4.798828,2.1621 2.257812,3.2403 c 1.027333,-1.5906 1.887395,-3.4073 2.541016,-5.4024 z m -20.251953,2.211 1.607422,7.2265 4.605468,-3.3222 -1.316406,-1.8907 -1.386719,-1.9921 -1.908203,-0.012 -1.601562,-0.01 z m 4.978515,0.031 0.902344,1.2969 1.033203,1.4844 1.039063,-1.4688 0.912109,-1.2871 -3.886719,-0.025 z m 5.351563,0.035 -1.398438,1.9726 -1.330078,1.875 4.582031,3.3848 1.660157,-7.2109 -1.607422,-0.01 -1.90625,-0.012 z m -11.326172,0.9844 -2.173828,3.0664 c 1.088013,1.4928 2.325854,2.7326 3.675781,3.6875 l -1.501953,-6.7539 z m 15.824219,0.1 -1.550782,6.7441 c 1.358723,-0.9376 2.6074,-2.1635 3.707032,-3.6445 l -2.15625,-3.0996 z m -8.523438,4.1679 -4.541015,3.2735 c 1.422491,0.7767 2.939834,1.2591 4.52539,1.3613 l 0.01563,-4.6348 z m 1.199219,0.018 -0.01563,4.625 c 1.581332,-0.082 3.097603,-0.5427 4.521484,-1.2969 l -4.505859,-3.3281 z"></path></g></svg>