<svg xmlns="http://www.w3.org/2000/svg" xmlns:xlink="http://www.w3.org/1999/xlink" viewBox="0 0 30 56" version="1.1" x="0px" y="0px"><title>Video Games - Solid - 008 - Gem</title><desc>Created with Sketch.</desc><g stroke="none" stroke-width="1" fill="none" fill-rule="evenodd"><g fill-rule="nonzero" fill="#000000"><polygon points="4 14.25 0 11.963 0 44.037 4 41.75"></polygon><polygon points="1.151 45.682 14 55.488 14 50.456 4.921 43.527"></polygon><polygon points="14 5.544 14 0.512 1.151 10.318 4.921 12.473"></polygon><polygon points="28.849 10.318 16 0.512 16 5.544 25.079 12.473"></polygon><path d="M24,14.165 L15,7.29688 L6,14.165 L6,41.835 L15,48.70316 L24,41.835 L24,14.165 Z M20.77637,23.63033 C20.6091031,23.8363069 20.3668359,23.9673676 20.1029042,23.9946586 C19.8389725,24.0219495 19.5750141,23.9432335 19.36914,23.77584 L9.36914,15.65084 C9.08985372,15.4261059 8.9522271,15.0690697 9.00841061,14.7150222 C9.06459413,14.3609746 9.30599163,14.0640855 9.64113103,13.9368541 C9.97627042,13.8096227 10.353875,13.8715156 10.63086,14.09908 L20.63086,22.22408 C21.0592233,22.5723183 21.1243565,23.2018021 20.77637,23.63037 L20.77637,23.63033 Z M20.77149,17.63619 C20.4199129,18.0622858 19.7895404,18.1228297 19.36329,17.77144 L14.36329,13.64644 C13.9372023,13.2947893 13.8768593,12.6643077 14.22851,12.23822 C14.5801607,11.8121323 15.2106423,11.7517893 15.63673,12.10344 L20.63673,16.22844 C21.0626419,16.5800062 21.1229675,17.2102532 20.77148,17.63623 L20.77149,17.63619 Z"></path><polygon points="16 50.456 16 55.487 28.849 45.682 25.079 43.527"></polygon><polygon points="26 14.25 26 41.75 30 44.036 30 11.963"></polygon></g></g></svg>