<svg xmlns:dc="http://purl.org/dc/elements/1.1/" xmlns:cc="http://creativecommons.org/ns#" xmlns:rdf="http://www.w3.org/1999/02/22-rdf-syntax-ns#" xmlns:svg="http://www.w3.org/2000/svg" xmlns="http://www.w3.org/2000/svg" xmlns:sodipodi="http://sodipodi.sourceforge.net/DTD/sodipodi-0.dtd" xmlns:inkscape="http://www.inkscape.org/namespaces/inkscape" viewBox="0 0 48 48.000001" version="1.1" x="0px" y="0px"><g transform="translate(0,-1004.3622)"><path style="color:#000000;font-style:normal;font-variant:normal;font-weight:normal;font-stretch:normal;font-size:medium;line-height:normal;font-family:sans-serif;text-indent:0;text-align:start;text-decoration:none;text-decoration-line:none;text-decoration-style:solid;text-decoration-color:#000000;letter-spacing:normal;word-spacing:normal;text-transform:none;direction:ltr;block-progression:tb;writing-mode:lr-tb;baseline-shift:baseline;text-anchor:start;white-space:normal;clip-rule:nonzero;display:inline;overflow:visible;visibility:visible;opacity:1;isolation:auto;mix-blend-mode:normal;color-interpolation:sRGB;color-interpolation-filters:linearRGB;solid-color:#000000;solid-opacity:1;fill:#000000;fill-opacity:1;fill-rule:nonzero;stroke:none;stroke-width:1.20000005;stroke-linecap:round;stroke-linejoin:miter;stroke-miterlimit:4;stroke-dasharray:none;stroke-dashoffset:0;stroke-opacity:1;color-rendering:auto;image-rendering:auto;shape-rendering:auto;text-rendering:auto;enable-background:accumulate" d="m 15.832031,1007.0624 2.802735,6.7949 10.724609,0 2.8125,-6.7949 -16.339844,0 z m -1.109375,0.457 -11.5605465,11.5586 0.00195,0 6.7890625,2.8164 7.576172,-7.5781 -2.806641,-6.7989 z m 18.558594,0 -2.8125,6.7969 7.572266,7.5742 6.794922,-2.8164 -11.554688,-11.5547 z m -14.794922,7.5351 -7.794922,7.795 0,11.0214 7.794922,7.795 11.023438,0 7.794922,-7.795 0,-11.0214 -7.794922,-7.795 -11.023438,0 z m -15.785156,5.1289 0,16.3536 6.7910156,-2.8125 0,-10.7247 -6.7910156,-2.8164 z m 42.597656,0 -6.794922,2.8145 0,10.7266 6.794922,2.8144 0,-16.3555 z m -35.3417967,14.6485 -6.7949218,2.8144 11.5527345,11.5508 2.822265,-6.7832 -7.5800777,-7.582 z m 28.0839847,0 -7.572266,7.5703 2.804688,6.8066 11.5625,-11.5644 -6.794922,-2.8125 z m -19.394532,8.0351 -2.828125,6.793 16.345703,0 -2.798828,-6.793 -10.71875,0 z"></path></g></svg>