<svg xmlns="http://www.w3.org/2000/svg" xmlns:xlink="http://www.w3.org/1999/xlink" version="1.1" x="0px" y="0px" viewBox="0 0 30 30" xml:space="preserve"><g transform="translate(-510 -140)"><path xmlns="http://www.w3.org/2000/svg" xmlns:xlink="http://www.w3.org/1999/xlink" d="M515.5,154.25c3.313,0.5,5.75,0.188,7.188-0.5c0.688-0.328,2.207-1.166,2.813-1.166   c0.605,0,2.744-0.19,3.5-0.418c0.758-0.227,2.588,1.461,2.854,1.803c0.266,0.34,0.986,0.378,0.986,0.378s0.34-1.022,0.227-1.249   c-0.113-0.228,1.438,0,1.475,0.529c0.039,0.53-0.492,1.25-0.416,1.628c0.076,0.378,0.051,1.513,0.322,1.902   c0.246,0.357,0.568,0.686,1,0.532c0.775-0.277,1.604-2.223,1.604-2.223s0.648,1.882-0.389,3.232c0.68,0.228,2.42-0.834,3.291-3.029   c0,0,0.51,3.528-1.816,4.771c-1.435,0.768-0.945,1.854-0.945,1.854s-0.682,0.834-1.477,0.682c-0.795-0.152-2.232-0.719-2.762-1.174   c-0.531-0.453-1.213-1.324-1.365-1.248c-0.15,0.075-1.248,0.795-1.475,1.061c-0.229,0.264-0.795,0.301-0.947,0.604   c-0.15,0.305-0.34,1.137-0.719,1.402c-0.379,0.264-0.643,0.756-0.643,1.059s0.121,1.631,0.498,1.896   c0.17,0.119,0.529,0.52,0.723,0.723c0.24,0.25,0.213,0.701,0.213,0.701h-2.404v-0.988c0,0-1.529-1.99-1.377-2.256   c0.15-0.266-0.037-1.25-0.492-1.25c-0.455,0-2.916,0.947-4.051,0.682c-1.135-0.264-3.596-1.287-3.596-1.287   s-0.568,0.947-0.568,1.59c0,0.645,1.148,1.451,1.375,1.756c0.229,0.303,0.682,0.854,0.91,0.893   c0.226,0.037,0.473,0.861,0.473,0.861h-2.934l0.361-0.594L514,163c0,0-0.506,1.24-0.219,2.5c0.158,0.689,1.111,1.689,1.219,1.783   c0.305,0.264,0.221,0.717,0.221,0.717h-2.369c0,0-0.775-1.508-0.852-2c-0.074-0.492,0.738-2.229,0.283-2.795   c-0.453-0.568-1.285-3.181-1.061-4.014c-0.389,0.871-0.354,3.43,0.027,6.268c0.375,2.791-2.732-5.682-0.027-8.538   C513.268,154.763,514.711,154.131,515.5,154.25z"></path></g></svg>