<svg xmlns:rdf="http://www.w3.org/1999/02/22-rdf-syntax-ns#" xmlns:dc="http://purl.org/dc/elements/1.1/" xmlns:cc="http://creativecommons.org/ns#" xmlns:sodipodi="http://sodipodi.sourceforge.net/DTD/sodipodi-0.dtd" xmlns:inkscape="http://www.inkscape.org/namespaces/inkscape" xmlns:svg="http://www.w3.org/2000/svg" xmlns="http://www.w3.org/2000/svg" xmlns:xlink="http://www.w3.org/1999/xlink" version="1.1" x="0px" y="0px" viewBox="0 0 800 800" enable-background="new 0 0 800 800" xml:space="preserve"><path fill="#000000" d="M729.889,582.742c11.916-10.297,4.49-33.748-16.255-54.601c37.771-53.134,53.853-116.736,45.441-181.995  c-11.441-88.727-67.058-172.305-152.578-229.302c-69.662-46.413-154.521-71.976-238.941-71.976  c-105.806,0-201.56,39.458-262.709,108.26c-50.895,57.278-73.598,130.167-63.919,205.24  c11.434,88.734,67.05,172.313,152.585,229.324c69.654,46.405,154.514,71.964,238.927,71.964c78.066,0,150.606-21.536,207.863-60.437  c7.994,5.807,16.283,10.348,24.199,13.42c15.039,5.836,28.732,6.311,36.662,0.338c6.268,14.917,8.563,29.2,3.087,40.44  c-23.652,48.514-177.54,45.75-301.242,43.498c-125.673-2.267-234.221-4.238-270.487,33.223c-5.663,5.851-5.512,15.183,0.331,20.839  c2.864,2.777,6.563,4.152,10.254,4.152c3.85,0,7.7-1.504,10.585-4.483c27.365-28.258,144.987-26.149,248.785-24.264  c152.42,2.749,296.377,5.36,328.262-60.041c10.649-21.847,7.563-48.097-9.441-79.513  C724.629,586.053,727.572,584.75,729.889,582.742z M717.584,389.257c5.534,42.879-4.217,84.744-27.56,120.435  c-21.17-12.65-42.685-16.19-52.946-7.311c-6.396,5.526-7.188,14.866-3.374,25.53c-10.168-1.842-18.918-0.677-24.415,4.08  c-6.887,5.951-7.325,16.342-2.433,28.063c2.209,5.296,5.52,10.872,9.794,16.442c-38.159,21.141-84.025,32.697-133.063,32.697  c-62.106,0-124.501-18.796-175.706-52.91c-61.775-41.167-101.87-100.964-110.008-164.07c-6.713-52.107,9.074-102.737,44.47-142.562  c43.7-49.172,112.778-77.375,189.528-77.375c62.099,0,124.508,18.792,175.712,52.914  C669.358,266.357,709.453,326.157,717.584,389.257z M431.871,142.803c-85.162,0-162.271,31.809-211.562,87.27  c-41.146,46.297-59.494,105.22-51.666,165.912c8.952,69.424,51.45,134.848,116.859,180.598  c-9.614-5.167-19.004-10.729-28.056-16.759c-70.346-46.888-116.01-115.031-125.278-186.967  c-7.67-59.501,10.362-117.319,50.773-162.792c49.794-56.037,128.465-88.172,215.829-88.172c70.626,0,141.604,21.371,199.847,60.181  c8.729,5.814,17.068,11.959,25.013,18.399C567.69,163.282,499.597,142.803,431.871,142.803z M70.156,354.602  c-8.57-66.489,11.571-131.088,56.724-181.894c55.558-62.513,143.281-98.366,240.675-98.366c78.671,0,157.723,23.804,222.593,67.028  c2.95,1.968,5.792,4.033,8.663,6.07c-59.774-35.554-130.056-55.022-200.041-55.022c-95.775,0-182.476,35.745-237.862,98.067  c-46.161,51.946-66.748,118.053-57.976,186.143c9.57,74.202,53.27,144.375,120.831,195.335c-4.699-2.842-9.347-5.756-13.909-8.8  C131.421,510.886,80.504,434.87,70.156,354.602z"></path></svg>