<svg xmlns="http://www.w3.org/2000/svg" xmlns:xlink="http://www.w3.org/1999/xlink" xml:space="preserve" version="1.1" style="shape-rendering:geometricPrecision;text-rendering:geometricPrecision;image-rendering:optimizeQuality;" viewBox="0 0 241 255" x="0px" y="0px" fill-rule="evenodd" clip-rule="evenodd"><defs><style type="text/css">
   
    .fil0 {fill:black}
   
  </style></defs><g><path class="fil0" d="M32 255c46,-16 -10,-40 -14,-64 -47,16 12,47 14,64zm21 -21c46,-16 -9,-40 -13,-64 -48,16 11,47 13,64zm21 -21c46,-17 -9,-41 -13,-65 -48,17 11,47 13,65zm21 -21c47,-17 -9,-41 -13,-65 -47,17 11,47 13,65zm22 -21c46,-17 -10,-41 -14,-65 -47,16 11,47 14,65zm21 -21c46,-17 -10,-41 -14,-65 -47,16 12,47 14,65zm21 -22c46,-16 -9,-40 -13,-64 -48,16 11,47 13,64zm21 -21c46,-16 -9,-41 -13,-65 -48,17 11,47 13,65zm21 -21c46,-17 -9,-41 -13,-65 -47,17 11,47 13,65zm22 -21c46,-17 -10,-41 -14,-65 -47,16 11,47 14,65z"></path></g></svg>