<svg xmlns="http://www.w3.org/2000/svg" xmlns:xlink="http://www.w3.org/1999/xlink" version="1.1" x="0px" y="0px" viewBox="0 0 90 90" enable-background="new 0 0 90 90" xml:space="preserve"><g><path d="M87.443,49.868c-0.2-0.28-1.36-0.641-2.16-0.841c-0.8-0.199-2.72-1.159-4.12-2.079c-1.399-0.921-7.399-4.561-8.88-5.281   c-1.48-0.72-3.04-2.08-5.6-3.4c-2.561-1.32-24.49-13.35-24.891-13.64c-0.4-0.29-2.01-1.19-2.3-1.42   c-0.29-0.229-1.28-0.74-1.53-0.82s-0.87-0.39-0.98-0.55c-0.17-0.31-0.48-0.29-0.68-0.21c-0.2,0.08-0.43,0.11-0.43,0.11   c-1.205,0.09-2.98,0.24-4.255,0.51c-1.275,0.27-2.015,0.38-4.055,0.7s-4.76,0.48-5.35,0.41c-0.59-0.07-3.27,0.48-5.85,1.17   c-2.581,0.69-6.02,1.32-7.04,1.48c-1.02,0.16-5.72,0.94-6.29,1.04c-0.57,0.1-0.53,0.181-0.53,0.181c-0.12,0.18,3.48,3.54,4.38,4.5   c0.9,0.959,8.22,9.06,8.22,9.06s6.54,8.761,7.08,9c0.54,0.24,0.84,1.201,1.44,1.98c0.6,0.78,11.58,15.19,11.72,15.29   c0.14,0.1,0.13,0.31,0.18,0.37c0.05,0.06,0.39,0.798,0.73,0.96c0.63,0.12,0.72-0.09,1.32-0.21c6.09-1.561,15.21-4.965,15.465-5.056   c0.255-0.09,1.275-0.345,1.695-0.704c0.42-0.36,2.55-1.021,2.984-1.096c0.436-0.074,0.301-0.074,0.855-0.27   c3.825-1.155,6.24-2.415,6.675-2.551c0.436-0.134,0.945-0.314,1.485-0.645s1.32-0.555,1.62-0.524c0.3,0.029,0.369,0.055,0.85-0.145   c16.64-5.961,17.2-6.48,17.64-6.681C87.283,50.308,87.644,50.147,87.443,49.868z M68.798,56.059l-0.028,0.01l-0.027,0.012   c-0.088,0.036-0.142,0.057-0.175,0.068c-0.011-0.001-0.095-0.01-0.095-0.01c-0.058-0.006-0.117-0.009-0.178-0.009   c-0.591,0-1.531,0.303-2.188,0.704c-0.426,0.26-8.479,3.287-8.594,3.307c-0.284,0.049-2.807,0.724-3.559,1.363   c-0.123,0.093-0.476,0.229-1.048,0.402c-0.108,0.032-10.543,3.803-15.604,5.102c-0.235,0.049-0.413,0.107-0.549,0.155   c-0.034-0.058-0.294-0.705-0.559-0.954c-0.687-0.846-7.198-9.378-10.015-13.068c-0.89-1.166-1.947-2.619-2.103-2.892   c-0.322-0.562-0.654-1.143-1.24-1.474c-0.673-0.671-6.845-8.792-6.845-8.792C15.694,39.652,6.814,29.957,6.1,29.26   c-0.376-0.368-0.862-0.841-1.312-1.287c1.632-0.271,4.019-0.663,4.721-0.772c1.161-0.183,3.945-0.612,6.533-1.304   c2.539-0.679,5.746-1.271,6.312-1.271l5.833-0.485c1.739-0.272,2.472-0.36,3.679-0.616c1.186-0.251,4.325-0.614,4.47-0.648   c0.496,0.393,1.258,0.656,1.256,0.655c-0.003-0.001,0.981,0.485,1.157,0.619c0.19,0.15,2.188,1.34,2.339,1.449   c0.622,0.451,23.396,12.884,25.044,13.734c1.34,0.69,2.399,1.396,3.335,2.02c0.829,0.553,1.546,1.03,2.29,1.393   c1.38,0.671,7.258,4.226,8.746,5.204c1.232,0.811,3.134,1.824,4.256,2.176C82.178,51.194,76.829,53.182,68.798,56.059z"></path><path d="M71.548,43.178c-0.773-0.376-1.502-0.862-2.346-1.424c-0.926-0.616-1.974-1.314-3.289-1.993   c-1.651-0.851-25.799-14.199-26.134-14.397c-0.771-0.458-1.316-0.66-1.531-0.829C38.113,24.435,37,23.987,37,23.987   s-0.495-0.271-0.982-0.604c-0.058,0.01-2.996,0.263-4.155,0.508c-1.227,0.26-1.896,0.373-3.64,0.646c0,0-5.9,0.534-5.96,0.534   c-0.068,0-2.907,0.396-5.478,1.083c-2.586,0.691-6.031,1.329-7.208,1.514c-0.599,0.094-2.34,0.381-3.786,0.621   c0.233,0.229,0.456,0.444,0.643,0.626c0.718,0.702,1.339,1.308,1.674,1.664c0.876,0.935,8.341,9.204,8.341,9.204   c3.117,4.175,6.015,7.904,6.688,8.612c0.662,0.398,1.031,1.044,1.358,1.616c0.147,0.259,0.3,0.525,0.459,0.732   c0.129,0.168,0.706,0.924,1.58,2.068l0.028,0.037c2.767,3.626,10.34,13.465,10.448,13.734c0.058-0.015,12.413-3.921,15.271-4.972   c0.111-0.041,1.348-0.469,1.383-0.489c0.901-0.745,3.857-1.471,3.878-1.475c0,0,5.366-1.954,6.347-2.393   c0.425-0.189,0.659-0.294,0.861-0.356c0.35-0.108,0.726-0.241,1.107-0.474c0.733-0.449,1.759-0.775,2.438-0.775   c0.07,0,0.14,0.004,0.208,0.01c0,0,0.026-0.01,0.076-0.027c1.031-0.375,12.157-4.419,14.887-5.501   c-1.089-0.493-2.349-1.203-3.225-1.779C78.759,47.378,72.915,43.843,71.548,43.178z"></path></g></svg>