<svg xmlns="http://www.w3.org/2000/svg" xmlns:xlink="http://www.w3.org/1999/xlink" version="1.1" x="0px" y="0px" viewBox="0 0 100 199.4" style="enable-background:new 0 0 100 199.4;" xml:space="preserve"><g><path d="M0,175.3c0.1,4,0.5,8.3,1.8,12.2c0.1,1.9,0.6,3.9,1.5,5.6c0,0.1,0,0.1,0.1,0.1c1.2,2.3,3,4,5.5,4.6   c5.1,1.2,10.5,0.3,15.8,0.4c7.2,0.2,14.4,0.9,21.6,1.1c13.9,0.3,27.6-2.5,41.5-2.4c5.6,0,11.7-1.6,11.4-7.3   c1.3-5,0.7-10.8,0.4-15.6c-0.7-9.9-0.8-19.8-1.2-29.7c-0.4-11.4-0.9-22.8-0.4-34.2c0.4-9.3,0.7-18.5,0.6-27.8   c-0.1-0.1-0.3-0.2-0.4-0.3c-0.2-0.4-0.5-0.8-1-1.2c-7-4.4-14.3-8.5-21.4-12.7c-0.5-0.4-1.1-0.8-1.6-1.1c-4.4-3.1-8.9-6.3-13.2-9.7   c-2-1.6-4.4-3.2-6.7-4.9c-1.1-1.2-2.6-2.2-4.1-3.1c-1.7-1.4-3.2-2.9-4.5-4.6c1.1-2,2.4-3.9,3.7-5.8c0.1-0.1,0.1-0.2,0.2-0.3   c1.1-1.7,2.1-3.5,2.9-5.4c1.2,1.6,3.7,2.4,5.4,3.4c0.5,0.2,0.9,0.5,1.4,0.7c0,0,0.1,0.1,0.1,0.1c4.8,3.8,11.1,6.6,16.6,9.3   c4.7,2.3,9.7,4.6,15,4.8c0.2,0.2,0.5,0.3,0.7,0.5c0.4,0.3,1,0.1,1.2-0.3c0.3-0.6,0.6-1.2,0.8-1.8c0.3-0.5,0.5-1.1,0.5-1.7   c0.3-1.7,0.2-3.5-0.5-5.1c-0.3-8.5-3.8-16.6-9.2-23.1C72.5,5.3,51.7-4.8,33.1,2.4c-15.7,6-22.4,23.9-25.9,39   C5.2,49.6,4,57.9,2.5,66.2C1.1,74.1,0.7,82.1,0.8,90c-0.6,3.2-0.4,6.7-0.5,9.9c0,5.8,0.1,11.6,0.4,17.4c0.5,10.7,1.6,21.5,0.9,32.2   C1.1,158.1-0.3,166.7,0,175.3z M6.4,64.5c1.4-8.5,2.7-17,4.9-25.4C16,21.8,25.6,2.9,46.4,3.5c22,0.6,42.9,19.5,45.2,41.5   c-3.6-1.4-7.3-2.5-10.9-3.5c-9.3-4.9-17.9-11-27.2-16.1c-0.9-0.5-2.3-0.1-2.5,1c0,0.1,0,0.2-0.1,0.3c0,0,0,0,0,0   c-2.3,2.9-4.6,5.9-6.8,8.9c-0.8,1.2-1.7,2.5-2.4,3.9c-1.1,1.5-2.1,3.1-2.8,4.8c-0.5,0.5-1,1-1.6,1.4c-1.3,1.1-0.7,2.9,0.5,3.7   C55.3,62,73.7,74.8,93,84.4c0.2,0.6,0.3,1.2,0.5,1.9c-1.2,6.5,0,13.4,0,20c0,0.8,0,1.6,0,2.4c-0.7,4.4-1.4,9.1-0.2,13   c0,0.1,0.1,0.2,0.2,0.2c-0.1,6.3,0,12.6,0.3,19c0.4,10,0.2,20.1,1.1,30.1c0.5,6.1,2.1,14.8-0.8,20.4c-0.2,0.4-0.3,0.7-0.3,1   c-1.3,0.1-2.6,0-3.9,0c-4.9-0.2-9.7-0.4-14.6,0c-10.9,0.8-21.7,2.1-32.6,1.5c-6-0.3-12-0.9-18-1c-4.2-0.1-8.5,0.5-12.7,0   c-3.7-0.4-4.3-3.6-5.2-6.8c-0.3-10.3-1.4-20.4-1.2-30.7c0.2-2.7,0.4-5.3,0.5-8c0-0.2,0-0.4,0-0.6c1.2-14.3,0.4-28.1-0.7-42.4   C4.3,90.9,4.2,77.9,6.4,64.5z"></path><path d="M23,59c-6.5,9.9-7.6,21.6-7.7,33.2c0,12.7,0.4,25.5,0.8,38.3c0.4,10.8,1.3,21.5,0.8,32.4c-0.1,2.8-1.4,13.8,2.2,16.4   c2.6,4.2,7,4.2,11.7,4.3c5,0.1,9.9-0.1,14.9-0.2c5-0.2,10,0,15,0.1c5.8,0.1,13.9,0.2,19.1-2.7c0.2-0.1,0.2-0.4,0-0.5   c-0.3-0.2-0.5-0.3-0.8-0.4c1.5-2,1-5,0.9-7.4c-0.1-4.3-0.2-8.5-0.4-12.8c-0.2-4.4-0.5-8.9-0.7-13.4c0-0.3,0-0.6,0-0.9   c-0.1-1.8-0.1-3.5-0.1-5.3c0-1.8,0-3.6,0.2-5.4c0.6-9.8,3.4-21.3,2.1-31.6c0-1.1,0-2.2,0.1-3.4c0-0.1,0-0.2,0-0.3   c0-2,0.1-4,0.8-5.8c0.2-0.6-0.3-1.2-0.8-1.4c-0.4-0.2-0.7-0.3-1.1-0.5c0,0,0,0,0,0c0-0.2-0.3-0.3-0.5-0.2   c-13.1-5.6-24.3-14.3-35.7-22.6C40,66,35.9,63,32.4,61c-2.2-1.4-4.4-2.8-6.6-4.1c-0.7-0.4-1.9-0.1-2.1,0.8c-0.1,0.3-0.1,0.7-0.2,1   C23.3,58.8,23.1,58.8,23,59z M78.4,93.6c0.2,0.1,0.4,0.2,0.6,0.3c0,0.2-0.1,0.5-0.1,0.7c-0.1-0.2-0.2-0.4-0.3-0.6c0,0,0,0,0,0   C78.5,93.8,78.5,93.7,78.4,93.6z M70.2,100.7c0-0.1,0-0.1,0-0.2c0,0,0.1,0.1,0.1,0.1C70.3,100.7,70.2,100.7,70.2,100.7z M67.9,122   c0.1,0,0.2,0,0.3,0c0,0.6,0,1.2-0.1,1.8C68.1,123.2,68,122.6,67.9,122z"></path></g></svg>