<svg xmlns="http://www.w3.org/2000/svg" xmlns:xlink="http://www.w3.org/1999/xlink" version="1.1" x="0px" y="0px" viewBox="0 0 100 100" enable-background="new 0 0 100 100" xml:space="preserve"><g><path fill-rule="evenodd" clip-rule="evenodd" d="M32.749,9.878l-0.371-2.154c-1.204,10.205-3.615,17.189-4.514,25.867   c-1.756,16.954-2.014,34.376-1.999,58.704c1.17-0.269,2.76-0.453,4.68-0.45c1.72,0.881,3.944,2.355,5.372,3.641   c0.274,0.024,0.542,0.038,0.816,0.062C37.758,59.781,36.424,30.982,32.749,9.878z"></path><path fill-rule="evenodd" clip-rule="evenodd" d="M35.306,8.369l36.812,3.865c-0.404-2.387-0.82-4.757-1.261-7.079   C56.211,3.416,41.042,1.516,34.243,2.192L35.306,8.369z"></path><path fill-rule="evenodd" clip-rule="evenodd" d="M35.777,11.21c3.483,21.133,4.734,49.527,3.728,84.544   c14.059,1.003,27.188,0.49,39.533-1.311c-0.204-24.384-2.262-53.433-6.449-79.369L35.777,11.21z"></path></g></svg>