<svg xmlns="http://www.w3.org/2000/svg" xmlns:xlink="http://www.w3.org/1999/xlink" version="1.1" x="0px" y="0px" viewBox="0 0 87.147 100" enable-background="new 0 0 87.147 100" xml:space="preserve"><g display="none"><path display="inline" fill="#000000" stroke="#BE1E2D" stroke-width="2" stroke-miterlimit="10" d="M47.065,38.828   c-15.784,4.527-34.58,0.765-50.639,1.188c-1.822,10.537,16.492,19.1,10.911,29.364C4.566,74.46-3.669,73.029-5.525,68.406   c-4.097-10.203,16.214-14.204,22.1-18.54c5.44-4.008,9.872-7.595,10.12-14.694c0.218-6.272-2.681-11.904-8.119-5.487   c-3.054,3.604-3.137,19.422-2.06,23.91c1.82,7.584,6.129,9.107,13.049,12.244c2.405-2.288,3.655-5.58,3.567-8.977   c0.917,5.547,5.796,18.705,12.126,13.278c3.132-2.686,2.656-13.115,3.364-16.53c2.943,5.097,13.209,31.056,9.369,37.092   c-3.499,5.5-16.866,3.698-19.274-0.162C29.919,76.438,57.286,60.487,64.86,53.412c9.276-8.667,10.497-12.258,9.843-24.626   c-10.47-1.315-6.611,28.302-6.202,35.622c7.188,0.833,22.11,0.633,20.091-10.625c-7.637-1.361-6.323,10.719-1.961,13.767   c3.38,2.361,11.115,0.904,15.03,0.908c12.491,0.012,28.483,2.427,37.996-7.408"></path></g><g><path d="M86.713,35.945c-3.724-7.014-6.758-12.109-9.148-15.751c-0.131,0.019-45.652,2.674-45.652,2.674s-2.384,0.04-2.775,0.052   c-6.484,0.208-9.315-7.959-9.524-8.586c-0.217-0.651,0.434-1.303,1.303-1.303c0.759,0,1.303,1.042,1.303,1.042   c2.567,5.642,4.117,6.241,6.918,6.241c0.769,0,47.7-2.723,47.7-2.723c3.977-0.527,4.569-0.63,4.65-3.572   c0.003-0.085,0.01-2.028,0.01-2.617c0-8.794-4.131-8.794-8.792-8.794L21.568,0.002C17.067-0.343,3.242,32.819,0.07,39.741   c-0.158,0.343,0,42.41,0,42.41C0.07,100,0.07,100,15.705,100c0,0,8.894,0,10.066-0.014c0.484,0.015,9.564-1.432,10.129-1.566   l35.178-5.863c15.96-3.257,15.309-2.932,15.635-23.565C86.713,68.991,87.689,37.787,86.713,35.945z M26.71,44.298   c-0.031,0-22.895-0.326-22.895-0.326c-0.718-0.051-1.258-0.675-1.207-1.393c0.052-0.717,0.679-1.241,1.393-1.207l22.801,0.322   c0.718,0.052,1.258,0.675,1.207,1.393C27.96,43.774,27.388,44.298,26.71,44.298z M33.875,94.786c0,0.72-0.583,1.303-1.303,1.303   c-0.719,0-1.303-0.583-1.303-1.303V43.395l-4.185-14.7c-0.197-0.692,0.204-1.413,0.896-1.61c0.694-0.195,1.413,0.204,1.61,0.896   c0,0,4.24,14.995,4.249,15.056C33.849,43.097,33.875,94.786,33.875,94.786z"></path></g></svg>