<svg xmlns="http://www.w3.org/2000/svg" xmlns:xlink="http://www.w3.org/1999/xlink" version="1.1" x="0px" y="0px" viewBox="0 0 100 100" enable-background="new 0 0 100 100" xml:space="preserve"><g><path fill="#000000" d="M20.657,31.59v5.181h58.122V31.59h5.606v5.181h11.547V16.833c0-0.532-0.432-0.966-0.965-0.966H4.301   c-0.537,0-0.975,0.437-0.975,0.974v19.929h11.723V31.59H20.657z"></path><polygon fill="#000000" points="84.385,38.907 84.385,45.045 78.778,45.045 78.778,38.907 20.657,38.907 20.657,45.045    15.049,45.045 15.049,38.907 3.327,38.907 3.327,83.191 96.026,83.191 96.026,38.907  "></polygon><rect x="15.049" y="36.771" fill="#000000" width="5.607" height="2.136"></rect><rect x="78.778" y="36.771" fill="#000000" width="5.606" height="2.136"></rect></g></svg>