<svg xmlns="http://www.w3.org/2000/svg" xmlns:xlink="http://www.w3.org/1999/xlink" version="1.1" x="0px" y="0px" viewBox="0 0 100 100" enable-background="new 0 0 100 100" xml:space="preserve"><polygon fill="#000000" points="12.426,41.518 59.906,14.104 59.906,11.312 7.588,41.518 "></polygon><polygon fill="#000000" points="39.4,60.885 39.4,58.092 14.873,43.931 14.871,43.931 14.449,43.687 14.448,43.686 14.447,43.685   14.445,43.685 14.018,43.438 14.016,43.437 12.426,42.518 7.588,42.518 "></polygon><polygon fill="#000000" points="77.351,29.686 60.406,19.903 22.957,41.524 39.9,51.307 "></polygon><path fill="#000000" d="M39.4,85.717l-4.021-2.32c-0.019-0.012-0.029-0.028-0.045-0.04c-0.029-0.021-0.056-0.043-0.08-0.07  c-0.021-0.022-0.035-0.049-0.051-0.077c-0.017-0.027-0.031-0.054-0.042-0.085c-0.012-0.033-0.017-0.066-0.021-0.102  c-0.003-0.02-0.012-0.037-0.012-0.06v-0.987c0-0.011,0.005-0.018,0.006-0.029c0.002-0.032,0.011-0.065,0.02-0.099  c0.009-0.032,0.017-0.064,0.031-0.093c0.005-0.009,0.004-0.021,0.01-0.029c0.011-0.019,0.028-0.03,0.041-0.046  c0.021-0.028,0.041-0.055,0.067-0.077c0.024-0.021,0.052-0.038,0.079-0.054s0.054-0.03,0.084-0.041  c0.033-0.011,0.066-0.016,0.102-0.02c0.021-0.003,0.039-0.013,0.061-0.013c0.01,0,0.019,0.005,0.029,0.006  c0.032,0.004,0.062,0.011,0.096,0.02s0.066,0.018,0.098,0.033c0.009,0.004,0.018,0.004,0.027,0.009l3.521,2.033V73.83l-4.021-2.322  c-0.019-0.01-0.029-0.027-0.045-0.039c-0.029-0.021-0.056-0.043-0.08-0.07c-0.021-0.023-0.035-0.05-0.051-0.077  c-0.017-0.026-0.031-0.053-0.042-0.084c-0.012-0.034-0.017-0.066-0.021-0.102c-0.003-0.021-0.012-0.039-0.012-0.061v-0.986  c0-0.011,0.005-0.019,0.006-0.028c0.002-0.034,0.011-0.066,0.02-0.1c0.009-0.032,0.017-0.064,0.031-0.094  c0.005-0.009,0.004-0.02,0.01-0.028c0.011-0.018,0.028-0.03,0.041-0.047c0.021-0.027,0.041-0.054,0.067-0.076  c0.024-0.021,0.052-0.038,0.079-0.054s0.054-0.03,0.084-0.04c0.033-0.012,0.066-0.017,0.102-0.021  c0.021-0.002,0.039-0.013,0.061-0.013c0.01,0,0.019,0.005,0.029,0.007c0.032,0.001,0.062,0.01,0.096,0.019s0.066,0.018,0.098,0.033  c0.009,0.004,0.018,0.004,0.027,0.009l3.521,2.033v-2.744L6.223,49.79v2.745l4.023,2.322c0.018,0.01,0.027,0.027,0.044,0.039  c0.028,0.022,0.056,0.044,0.079,0.07c0.021,0.023,0.037,0.05,0.053,0.077s0.031,0.054,0.041,0.085  c0.012,0.033,0.017,0.066,0.021,0.102c0.003,0.021,0.013,0.038,0.013,0.06v0.987c0,0.01-0.006,0.019-0.006,0.029  c-0.002,0.033-0.012,0.065-0.021,0.099c-0.009,0.032-0.017,0.064-0.031,0.094c-0.005,0.009-0.005,0.02-0.01,0.028  c-0.007,0.013-0.021,0.018-0.028,0.028c-0.035,0.052-0.078,0.094-0.13,0.128c-0.018,0.012-0.032,0.025-0.051,0.036  c-0.068,0.033-0.142,0.058-0.224,0.058c0,0,0,0-0.001,0H9.994c-0.083,0-0.157-0.025-0.227-0.062  c-0.007-0.004-0.015-0.001-0.021-0.005l-3.523-2.035v9.747l4.023,2.321c0.018,0.011,0.027,0.028,0.044,0.039  c0.028,0.021,0.056,0.043,0.079,0.07c0.021,0.023,0.037,0.05,0.053,0.077s0.031,0.055,0.041,0.085  c0.012,0.033,0.017,0.066,0.021,0.102c0.003,0.021,0.013,0.038,0.013,0.06v0.986c0,0.011-0.006,0.019-0.006,0.029  c-0.002,0.033-0.012,0.066-0.021,0.099s-0.017,0.065-0.031,0.094c-0.005,0.009-0.005,0.021-0.01,0.029  c-0.007,0.012-0.021,0.018-0.028,0.027c-0.035,0.053-0.078,0.094-0.13,0.128c-0.018,0.013-0.032,0.026-0.051,0.035  c-0.068,0.035-0.142,0.059-0.224,0.059c0,0,0,0-0.001,0H9.994c-0.083-0.001-0.157-0.025-0.227-0.062  c-0.007-0.004-0.015-0.002-0.021-0.006l-3.523-2.033v2.792L39.4,88.51V85.717z"></path><path fill="#000000" d="M39.4,65.985l-4.021-2.322c-0.019-0.01-0.029-0.027-0.045-0.039c-0.029-0.021-0.056-0.042-0.08-0.07  c-0.021-0.023-0.035-0.05-0.051-0.077c-0.017-0.027-0.031-0.054-0.042-0.085c-0.012-0.033-0.017-0.066-0.021-0.102  c-0.003-0.021-0.012-0.038-0.012-0.06v-0.987c0-0.011,0.005-0.019,0.006-0.029c0.002-0.033,0.011-0.065,0.02-0.099  c0.009-0.032,0.017-0.064,0.031-0.094c0.005-0.009,0.004-0.019,0.01-0.027c0.011-0.019,0.028-0.031,0.041-0.048  c0.021-0.027,0.041-0.054,0.067-0.076c0.024-0.021,0.052-0.038,0.079-0.054s0.054-0.03,0.084-0.041  c0.033-0.011,0.066-0.016,0.102-0.02c0.021-0.003,0.039-0.013,0.061-0.013c0.01,0,0.019,0.005,0.029,0.007  c0.032,0.001,0.062,0.01,0.096,0.019s0.066,0.018,0.098,0.033c0.009,0.004,0.018,0.004,0.027,0.009l3.521,2.034v-1.807L6.223,42.883  v1.807l4.023,2.323c0.018,0.011,0.027,0.027,0.044,0.039c0.028,0.021,0.056,0.044,0.079,0.07c0.021,0.023,0.037,0.05,0.053,0.077  s0.031,0.054,0.041,0.085c0.012,0.033,0.017,0.068,0.021,0.102c0.003,0.021,0.013,0.038,0.013,0.06v0.986  c0,0.01-0.006,0.019-0.006,0.029c-0.002,0.033-0.012,0.065-0.021,0.1c-0.009,0.031-0.017,0.063-0.031,0.093  c-0.005,0.009-0.005,0.02-0.01,0.028c-0.007,0.013-0.021,0.018-0.028,0.029c-0.035,0.051-0.078,0.093-0.13,0.128  c-0.018,0.011-0.032,0.024-0.051,0.034c-0.068,0.034-0.142,0.059-0.224,0.059c0,0,0,0-0.001,0H9.994  c-0.083-0.001-0.157-0.025-0.227-0.062c-0.007-0.004-0.015-0.002-0.021-0.006L6.223,46.83v1.806L39.4,67.791V65.985z"></path><path fill="#000000" d="M89.824,43.392c0.004-0.035,0.009-0.069,0.021-0.103c0.011-0.03,0.025-0.058,0.042-0.085  c0.016-0.027,0.03-0.054,0.051-0.077c0.024-0.027,0.051-0.049,0.08-0.07c0.016-0.012,0.026-0.029,0.045-0.039l4.021-2.322V37.95  L75.005,48.966v1.191c0,0.022-0.009,0.04-0.013,0.06c-0.004,0.035-0.008,0.069-0.02,0.102c-0.011,0.031-0.025,0.058-0.042,0.085  c-0.016,0.028-0.03,0.054-0.052,0.077c-0.023,0.027-0.051,0.049-0.08,0.07c-0.016,0.012-0.026,0.029-0.044,0.039l-11.962,6.906  c0,0-0.001,0-0.002,0c-0.008,0.005-0.016,0.004-0.023,0.008c-0.068,0.035-0.142,0.059-0.223,0.061c0,0-0.001,0-0.002,0h-0.002  c-0.081-0.002-0.154-0.025-0.223-0.061c-0.008-0.004-0.016-0.003-0.023-0.008h-0.002l-1.032-0.595L40.4,68.945v2.745l3.522-2.034  c0.009-0.005,0.019-0.005,0.027-0.009c0.03-0.016,0.063-0.024,0.097-0.033c0.032-0.009,0.063-0.018,0.096-0.019  c0.011-0.002,0.02-0.007,0.03-0.007c0.021,0,0.04,0.011,0.062,0.013c0.033,0.004,0.066,0.009,0.1,0.021  c0.031,0.01,0.058,0.025,0.086,0.041c0.027,0.017,0.053,0.031,0.076,0.052c0.027,0.023,0.048,0.05,0.069,0.078  c0.013,0.017,0.03,0.028,0.04,0.046c0.006,0.009,0.006,0.02,0.01,0.028c0.016,0.029,0.023,0.062,0.031,0.094  c0.01,0.033,0.019,0.065,0.021,0.1c0.001,0.01,0.006,0.018,0.006,0.028c0,0.009-0.005,0.016-0.005,0.024s0.005,0.015,0.005,0.023  v0.938c0,0.021-0.009,0.039-0.013,0.061c-0.004,0.035-0.008,0.067-0.02,0.102c-0.011,0.031-0.025,0.058-0.042,0.084  c-0.016,0.027-0.03,0.054-0.052,0.077c-0.023,0.027-0.051,0.049-0.08,0.07c-0.016,0.012-0.026,0.029-0.044,0.039L40.4,73.83v9.748  l3.522-2.035c0.009-0.005,0.019-0.005,0.027-0.009c0.03-0.016,0.063-0.024,0.097-0.033c0.032-0.009,0.063-0.016,0.096-0.02  c0.011-0.001,0.02-0.006,0.03-0.006c0.021,0,0.04,0.01,0.062,0.013c0.033,0.004,0.066,0.009,0.1,0.02  c0.031,0.011,0.058,0.026,0.086,0.042c0.027,0.016,0.053,0.032,0.076,0.052c0.027,0.023,0.048,0.05,0.069,0.078  c0.013,0.018,0.03,0.027,0.04,0.046c0.006,0.009,0.006,0.021,0.01,0.029c0.016,0.028,0.023,0.061,0.031,0.093  c0.01,0.033,0.019,0.066,0.021,0.099c0.001,0.012,0.006,0.019,0.006,0.029v0.987c0,0.022-0.009,0.04-0.013,0.06  c-0.004,0.035-0.008,0.068-0.02,0.102c-0.011,0.031-0.025,0.058-0.042,0.085c-0.016,0.028-0.03,0.055-0.052,0.077  c-0.023,0.027-0.051,0.049-0.08,0.07c-0.016,0.012-0.026,0.028-0.044,0.04l-4.022,2.32v2.793l53.684-30.994v-2.793l-3.521,2.034  c-0.008,0.004-0.016,0.002-0.023,0.007c-0.068,0.035-0.143,0.06-0.225,0.061c-0.001,0-0.002,0-0.002,0  c-0.082,0-0.156-0.024-0.225-0.059c-0.019-0.01-0.033-0.023-0.051-0.035c-0.052-0.033-0.094-0.076-0.129-0.128  c-0.008-0.011-0.021-0.016-0.029-0.028c-0.006-0.009-0.005-0.019-0.01-0.027c-0.015-0.03-0.022-0.062-0.031-0.095  s-0.018-0.064-0.02-0.099c-0.001-0.01-0.006-0.02-0.006-0.029v-0.987c0-0.021,0.009-0.038,0.012-0.06  c0.004-0.035,0.009-0.068,0.021-0.102c0.011-0.031,0.025-0.058,0.042-0.085c0.016-0.027,0.03-0.053,0.051-0.077  c0.024-0.027,0.051-0.049,0.08-0.07c0.016-0.012,0.026-0.029,0.045-0.038l4.021-2.322v-9.746l-3.521,2.033  c-0.008,0.003-0.016,0.001-0.023,0.005c-0.068,0.036-0.143,0.062-0.225,0.062c-0.001,0-0.002,0-0.002,0  c-0.082,0-0.156-0.024-0.225-0.06c-0.019-0.009-0.033-0.022-0.051-0.033c-0.052-0.035-0.094-0.075-0.129-0.129  c-0.008-0.011-0.021-0.016-0.029-0.028c-0.006-0.009-0.005-0.02-0.01-0.028c-0.015-0.029-0.022-0.062-0.031-0.094  c-0.009-0.033-0.018-0.065-0.02-0.098c-0.001-0.012-0.006-0.02-0.006-0.03V43.45C89.812,43.429,89.821,43.411,89.824,43.392z"></path><polygon fill="#000000" points="59.906,19.038 59.906,17.725 17.214,42.374 21.762,41.061 "></polygon><path fill="#000000" d="M89.824,35.545c0.004-0.035,0.009-0.068,0.021-0.102c0.011-0.031,0.025-0.058,0.042-0.085  c0.016-0.027,0.03-0.054,0.051-0.077c0.024-0.026,0.051-0.049,0.08-0.07c0.016-0.012,0.026-0.029,0.045-0.039l4.021-2.321v-1.806  L40.4,62.038v1.807l3.522-2.034c0.009-0.005,0.019-0.005,0.027-0.009c0.03-0.016,0.063-0.024,0.097-0.033  c0.032-0.009,0.063-0.018,0.096-0.019c0.011-0.002,0.02-0.007,0.03-0.007c0.021,0,0.04,0.01,0.062,0.013  c0.033,0.004,0.066,0.009,0.1,0.02c0.031,0.011,0.058,0.026,0.086,0.042c0.027,0.016,0.053,0.031,0.076,0.053  c0.027,0.022,0.048,0.049,0.069,0.077c0.013,0.017,0.03,0.028,0.04,0.047c0.006,0.009,0.006,0.019,0.01,0.027  c0.016,0.029,0.023,0.062,0.031,0.094c0.01,0.033,0.019,0.065,0.021,0.099c0.001,0.011,0.006,0.019,0.006,0.029v0.987  c0,0.021-0.009,0.039-0.013,0.06c-0.004,0.035-0.008,0.068-0.02,0.102c-0.011,0.031-0.025,0.058-0.042,0.085  c-0.016,0.027-0.03,0.054-0.052,0.077c-0.023,0.028-0.051,0.049-0.08,0.07c-0.016,0.012-0.026,0.029-0.044,0.039L40.4,65.985v1.806  l20.361-11.755v-1.684c0-0.011,0.005-0.019,0.006-0.029c0.001-0.022,0.004-0.043,0.008-0.064c0.005-0.023,0.011-0.045,0.019-0.067  c0.007-0.021,0.015-0.041,0.024-0.061c0.005-0.009,0.004-0.02,0.01-0.028s0.014-0.014,0.02-0.022  c0.013-0.019,0.025-0.033,0.039-0.051c0.016-0.018,0.032-0.034,0.051-0.049c0.017-0.016,0.033-0.029,0.052-0.04  c0.009-0.007,0.013-0.016,0.022-0.021l11.961-6.907c0.018-0.01,0.037-0.01,0.055-0.019c0.034-0.014,0.066-0.027,0.102-0.034  c0.031-0.006,0.061-0.006,0.092-0.006c0.033,0,0.064,0,0.098,0.006c0.031,0.007,0.061,0.019,0.091,0.03  c0.021,0.009,0.044,0.01,0.063,0.021l1.282,0.74c0.009,0.005,0.015,0.017,0.022,0.021c0.018,0.011,0.033,0.023,0.051,0.038  c0.018,0.016,0.035,0.033,0.051,0.051c0.004,0.005,0.012,0.009,0.016,0.014l19.189-11.078v-1.803l-3.521,2.031  c-0.008,0.005-0.018,0.004-0.025,0.007c-0.068,0.034-0.142,0.059-0.223,0.06c-0.001,0-0.002,0-0.002,0  c-0.082,0-0.156-0.024-0.225-0.059c-0.019-0.01-0.033-0.023-0.051-0.035c-0.052-0.034-0.094-0.075-0.129-0.128  c-0.008-0.011-0.021-0.016-0.029-0.026c-0.006-0.011-0.005-0.021-0.01-0.03c-0.015-0.029-0.022-0.062-0.031-0.094  c-0.009-0.033-0.018-0.065-0.02-0.098c-0.001-0.012-0.006-0.021-0.006-0.03v-0.987C89.812,35.583,89.821,35.565,89.824,35.545z"></path><polygon fill="#000000" points="62.262,54.353 62.543,54.514 73.505,48.186 73.223,48.022 "></polygon><polygon fill="#000000" points="87.882,30.68 86.292,31.598 86.289,31.6 85.863,31.845 85.862,31.846 85.436,32.092 85.433,32.093   40.4,58.092 40.4,60.885 92.719,30.68 "></polygon><polygon fill="#000000" points="63.043,56.198 74.005,49.87 74.005,49.051 63.043,55.379 63.043,55.584 "></polygon><polygon fill="#000000" points="61.762,55.458 61.97,55.339 61.762,55.218 "></polygon><polygon fill="#000000" points="39.4,52.172 21.893,42.063 16.389,43.653 39.4,56.938 "></polygon><polygon fill="#000000" points="59.906,15.259 13.558,42.018 14.268,42.428 59.906,16.078 "></polygon><polygon fill="#000000" points="60.906,19.038 78.546,29.222 83.091,30.533 60.906,17.725 "></polygon><polygon fill="#000000" points="60.906,14.104 87.882,29.68 92.719,29.68 60.906,11.312 "></polygon><polygon fill="#000000" points="40.4,52.172 40.4,56.938 83.918,31.812 78.415,30.225 "></polygon><polygon fill="#000000" points="60.906,16.078 86.04,30.589 86.749,30.18 60.906,15.259 "></polygon></svg>