<svg xmlns="http://www.w3.org/2000/svg" xmlns:xlink="http://www.w3.org/1999/xlink" version="1.1" x="0px" y="0px" viewBox="0 0 100 100" enable-background="new 0 0 100 100" xml:space="preserve"><g><g><path d="M38.661,77.593c-0.506,0.034-0.958,0.163-1.416,0.304L36.004,78.3c-0.008,0.151-0.009,0.303-0.045,0.451    c-0.1,0.487-0.313,0.928-0.484,1.281c-0.059,0.118-0.114,0.233-0.161,0.346c-0.067,0.151-0.114,0.28-0.153,0.392    c1.024,0.217,2.062,0.392,3.099,0.519c0.024-0.071,0.042-0.135,0.079-0.219c0.112-0.283,0.325-0.673,0.639-1.164l0.146-0.236    c0.203-0.323,0.413-0.655,0.542-1.019c0.06-0.178,0.085-0.318,0.07-0.401c-0.016-0.098-0.064-0.229-0.228-0.441    C39.351,77.61,38.95,77.565,38.661,77.593z"></path><path d="M31.211,76.928c-0.083,0.002-0.149,0.008-0.225,0.012c0.006,0.354-0.051,0.73-0.184,1.132    c-0.1,0.316-0.239,0.636-0.38,0.954c-0.097,0.221-0.186,0.427-0.258,0.622c1.111,0.2,2.15,0.421,3.055,0.663    c0.008,0.002,0.016,0.004,0.023,0.006c0.066-0.222,0.151-0.461,0.266-0.719c0.052-0.125,0.122-0.271,0.196-0.423    c0.143-0.295,0.278-0.574,0.338-0.864c0.058-0.23-0.079-0.547-0.314-0.791C33.083,76.913,31.907,76.919,31.211,76.928z"></path><path d="M26.953,76.175l-0.282,0.006c-0.339,0.016-0.704,0.046-1.07,0.077c-0.153,0.014-0.308,0.02-0.463,0.03    c0.114,0.717,0.127,1.396,0.126,1.946l-0.02,0.701c1.001,0.117,1.995,0.251,2.962,0.396c0.113-0.397,0.268-0.765,0.417-1.101    c0.111-0.254,0.226-0.505,0.308-0.767c0.096-0.29,0.118-0.519,0.066-0.653c-0.056-0.146-0.208-0.299-0.458-0.469    C28.122,76.146,27.555,76.16,26.953,76.175z"></path><path d="M40.646,80.944c-0.144,0.227-0.246,0.399-0.322,0.535c0.837,0.053,1.664,0.073,2.467,0.055l-0.007-0.554    c-0.031-0.686-0.064-1.469-0.336-2.14c-0.099-0.236-0.249-0.39-0.345-0.426c-0.125-0.056-0.265-0.054-0.401-0.041    c-0.011,0.359-0.1,0.686-0.179,0.922c-0.208,0.582-0.501,1.047-0.735,1.422L40.646,80.944z"></path><path d="M20.444,77.585c-0.077,0.292-0.152,0.576-0.203,0.851c0.973,0.083,2,0.177,3.043,0.284l0.013-0.489    c0.002-0.765,0.004-1.717-0.328-2.531c-0.101-0.236-0.303-0.44-0.488-0.48c-0.3-0.073-0.621-0.062-0.978,0.028    c-0.293,0.067-0.562,0.154-0.818,0.266h-0.002c0.059,0.392,0.053,0.813-0.039,1.25C20.588,77.037,20.516,77.313,20.444,77.585z"></path><path d="M15.181,70.133c0.433,0.482,1.01,0.717,1.763,0.717c0.01,0,0.02,0,0.03,0c0.898-0.008,1.126-0.167,1.467-0.278    c0.241-0.738,0.703-1.502,0.764-1.606l0.816-1.399c0,0,0.579,0.988,0.647,1.389c0.059,0.344,0.293,0.768,0.373,2.266    c0.391,0.321,1.153,0.55,2.175,0.642c1.358,0.121,2.08-0.063,2.461-0.274c0.37-1.016,0.533-1.723,0.609-1.844l0.903-1.462    c-5.895-1.423-11.009-2.011-13.042-2.076C14.137,67.385,14.317,69.171,15.181,70.133z"></path><path d="M13.939,78.01c0.849,0.044,2.41,0.13,4.333,0.271c0.066-0.423,0.172-0.822,0.27-1.196c0.063-0.24,0.127-0.48,0.178-0.723    c0.045-0.217,0.077-0.528-0.03-0.771c-0.094-0.218-0.283-0.433-0.599-0.687c-0.744-0.618-1.914-0.722-2.901-0.297    c-0.061,0.024-0.122,0.046-0.181,0.074c-0.205,0.229-0.718,0.862-0.979,1.702C13.878,76.868,13.81,77.424,13.939,78.01z"></path><path d="M88.811,27.258C80.778,11.196,70.29,7.262,70.29,7.262s-13.604-7.375-29.337-3.77    C25.22,7.099,23.745,20.209,21.942,22.341c0,0-0.289,3.86-4.222,6.811c-3.934,2.95-3.808,6.874-4.464,10.725    C12.6,43.729,6.468,50.71,8.45,56.506c1.526,4.463,5.052,0.417,5.707,4.104c0.306,1.723-0.135,2.733-0.635,3.63    c2.786-0.088,13.027,1.16,22.606,4.665c9.833,3.598,11.627,1.667,13.083-1.457c1.517-3.26,4.707-3.714,7.304-4.01    c0.938-0.105,2.781-0.43,5.462-0.541c0.62-0.025,1.349,0.031,2.11,0.106c0.764,0.063,1.579,0.119,2.387,0.213    c3.238,0.334,6.438,0.835,6.438,0.835s-3.243-0.011-6.464,0.148c-0.806,0.026-1.606,0.098-2.355,0.147    c-0.753,0.041-1.436,0.15-2.027,0.206c-0.6,0.05-1.043,0.185-1.375,0.232c-0.325,0.062-0.511,0.096-0.511,0.096    c-0.591,0.14-1.099,0.899-1.62,1.63c-2.352,3.289-1.214,7.274-5.379,13.024c-2.18,3.01-6.488,3.978-10.875,3.978    c-3.496,0-7.043-0.616-9.598-1.304c-6.215-1.673-19.4-2.263-19.533-2.269l-0.375-0.016c-0.048,0.44-0.134,0.886-0.365,1.335    c-1.721,3.359-4.507,10.489-2.048,11.964c2.458,1.475,18.383,4.18,28.941,4.262c10.558,0.081,19.244,0,22.275-5.982    c3.032-5.983,2.867-4.506,6.229-4.917c3.359-0.409,11.964-1.066,15.733-11.226C87.336,65.199,96.841,43.318,88.811,27.258z     M32.186,57.53c-0.983,3.637-3.113,0.785-6.638-0.033c-3.524-0.82-5.572,1.639-4.671-2.213c0.612-2.615,3.264-9.196,4.903-13.153    c-1.809,1.769-4.068,3.011-5.782,3.499c-3.878,1.103-5.221,0.308-5.052-4.465c0.17-4.771,2.826-11.497,5.052-11.349    c0,0,6.391-2.689,8.473,3.532c0.705,2.103,0.394,4.058-0.459,5.773C30.989,40.823,33.081,54.219,32.186,57.53z M52.673,50.613    c-4.508-0.246-12.949-4.099-13.358-9.016c-0.409-4.917,5.817-11.8,5.817-11.8s8.687-3.441,13.932,5.574    C64.308,44.384,57.178,50.858,52.673,50.613z M72.569,59.898c0,0-0.074-0.021-0.181-0.055l-0.054,0.113    c0,0-0.121-0.03-0.347-0.086c-0.237-0.048-0.559-0.171-0.964-0.36c-0.399-0.195-0.859-0.479-1.353-0.855    c-0.473-0.39-1.004-0.852-1.487-1.427c-0.5-0.565-0.992-1.218-1.434-1.964c-0.229-0.37-0.441-0.766-0.635-1.196    c-0.099-0.22-0.196-0.438-0.276-0.7c-0.034-0.087-0.101-0.322-0.139-0.558c-0.022-0.124-0.035-0.229-0.035-0.262l-0.007-0.083    l-0.001-0.021v-0.01c-0.003,0.036,0.015-0.349,0.009-0.196l0.02-0.082c0.056-0.223,0.132-0.446,0.22-0.656l0.163-0.315l0.3-0.573    c0.207-0.361,0.329-0.714,0.497-1.083c0.235-0.735,0.377-1.573,0.327-2.358l-0.045-0.591l-0.018-0.3    c-0.021-0.107-0.059-0.225-0.087-0.338c-0.12-0.454-0.242-0.905-0.362-1.352c-0.118-0.456-0.236-0.907-0.353-1.354l-0.178-0.695    c-0.028-0.232-0.056-0.463-0.084-0.691c-0.054-0.456-0.106-0.903-0.157-1.341c-0.021-0.438-0.021-0.866-0.022-1.281    c-0.029-0.83,0.053-1.605,0.098-2.322c0.038-0.716,0.156-1.364,0.217-1.938c0.078-0.574,0.179-1.072,0.25-1.479    c0.168-0.818,0.283-1.275,0.283-1.275l0.231,0.041c0.009-0.041,0.017-0.071,0.017-0.071l0.193,0.032c0,0-0.055,0.471-0.112,1.285    c-0.02,0.409-0.042,0.906-0.069,1.477c0.004,0.57-0.04,1.212,0.001,1.911c0.035,0.697,0.041,1.454,0.158,2.242    c0.046,0.394,0.092,0.797,0.14,1.21c0.085,0.403,0.17,0.816,0.258,1.235c0.043,0.208,0.087,0.419,0.13,0.63l0.218,0.607    c0.15,0.423,0.303,0.851,0.457,1.283c0.159,0.434,0.319,0.874,0.48,1.313c0.092,0.208,0.15,0.455,0.192,0.724l0.145,0.784    c0.135,0.791,0.123,1.573,0.03,2.353c-0.029,0.288-0.068,0.578-0.116,0.866c-0.14,0.503-0.255,1.045-0.461,1.496    c-0.094,0.236-0.188,0.474-0.276,0.651l-0.119,0.26l0.01-0.009c0.012-0.022-0.008-0.045,0.032,0.072    c0.058,0.171,0.113,0.34,0.17,0.508c0.143,0.36,0.282,0.714,0.418,1.058c0.179,0.415,0.367,0.807,0.555,1.186    c0.147,0.283,0.295,0.56,0.44,0.819c0.657,1.18,1.337,2.08,1.873,2.67c0.275,0.286,0.5,0.517,0.67,0.65    c0.166,0.148,0.254,0.228,0.254,0.228L72.569,59.898z M71.73,67.148c0,0-0.539,0.842-1.366,2.054    c-0.201,0.309-0.438,0.624-0.649,0.987c-0.196,0.373-0.422,0.751-0.646,1.147c-0.224,0.394-0.455,0.801-0.69,1.214    c-0.224,0.418-0.398,0.871-0.6,1.306c-0.185,0.443-0.394,0.872-0.55,1.316c-0.132,0.453-0.275,0.889-0.444,1.296    c-0.187,0.4-0.367,0.788-0.539,1.153c-0.172,0.368-0.354,0.711-0.539,1.026c-0.286,0.598-0.595,1.102-0.808,1.472    c-0.066,0.151-0.129,0.293-0.18,0.415c-0.178,0.419-0.277,0.656-0.277,0.656l-0.175-0.003c0,0-0.102-0.242-0.158-0.693    c-0.041-0.228-0.083-0.508-0.077-0.816c0-0.003,0-0.006,0-0.009c-0.013-0.137-0.021-0.279-0.021-0.43    c0-0.318,0.001-0.684,0.033-1.078c0.052-0.386,0.128-0.801,0.228-1.236c0.076-0.446,0.232-0.888,0.434-1.326    c0.202-0.438,0.443-0.878,0.701-1.313c0.282-0.419,0.569-0.843,0.857-1.269c0.287-0.421,0.547-0.857,0.851-1.253    c0.314-0.387,0.622-0.769,0.921-1.137c0.301-0.366,0.58-0.726,0.861-1.052c0.29-0.32,0.601-0.592,0.866-0.857    c0.413-0.403,0.774-0.748,1.064-1.022c0.499-0.503,0.796-0.802,0.796-0.802l0.136,0.093c0,0-0.032,0.044-0.081,0.112L71.73,67.148    z"></path><path d="M27.645,68.391l0.124,1.516c0.012,0.308-0.015,1.214-0.048,2.388c0.001,0.002,0.001,0.002,0.002,0.004    c0.284,0.396,0.936,0.739,2.025,0.856c1.352,0.142,2.144-0.008,2.603-0.206c0.795-0.891,0.979-1.152,1.548-1.813l0.844-0.638    C32.357,69.656,29.946,68.959,27.645,68.391z"></path><path d="M34.948,70.571l-0.051,1.102c0.007,0.087-0.062,0.725-0.152,1.633c0.291,0.153,0.762,0.348,1.513,0.554    c1.487,0.403,2.345,0.405,2.819,0.32c0.036-0.836,0.542-1.748,1.297-1.903c-1.43-0.34-3.059-0.841-4.922-1.523    C35.285,70.691,35.117,70.63,34.948,70.571z"></path><path d="M42.579,74.746c1.12,0.037,1.946-0.167,2.373-0.582c0.364-0.355,0.457-0.893,0.48-1.393    c-1.153,0.121-2.527,0.031-4.193-0.305c0.226,0.169,0.387,0.428,0.437,0.739c0.078,0.485,0.019,0.968-0.161,1.393    C41.751,74.671,42.094,74.73,42.579,74.746z"></path></g></g></svg>