<svg xmlns="http://www.w3.org/2000/svg" xmlns:xlink="http://www.w3.org/1999/xlink" version="1.1" x="0px" y="0px" viewBox="0 0 100 100" style="enable-background:new 0 0 100 100;" xml:space="preserve"><g><path d="M100,17.381L82.651,0l-3.726,3.732L77.099,1.9c0,0-9.806,7.54-6.591,18.274L26.239,64.523L15.874,54.14   c0,0-25.595,24.345-11.784,41.944c19.464,13.377,41.868-11.807,41.868-11.807L35.593,73.895l44.269-44.35   c10.679,3.251,18.242-6.602,18.242-6.602l-1.828-1.832L100,17.381z M23.788,79.908c-0.463,0.464-7.443,6.584-8.844,5.3   c-1.177-1.306,4.91-8.313,5.374-8.776l8.693-8.77l3.47,3.477L23.788,79.908z M76.677,23.365   c-5.742-6.123-2.222-12.359-0.402-14.827l15.202,15.23C89.014,25.592,82.795,28.882,76.677,23.365z"></path></g></svg>