<svg xmlns="http://www.w3.org/2000/svg" xmlns:xlink="http://www.w3.org/1999/xlink" version="1.1" x="0px" y="0px" viewBox="0 0 48 48" enable-background="new 0 0 48 48" xml:space="preserve"><path fill="#000000" d="M44.6,30.5l-7-7c-0.8-0.8-2-0.8-2.8,0l-4.3,4.3L14.3,11.6c2.2-2.4,2.1-6.1-0.2-8.3L12,1.1  c-0.8-0.8-2-0.8-2.8,0L1.1,9.3c-0.4,0.4-0.6,0.9-0.6,1.4c0,0.5,0.2,1,0.6,1.4l2.1,2.1c1.2,1.2,2.7,1.8,4.3,1.8  c1.5,0,2.9-0.5,4.1-1.6l16.2,16.2l-4.3,4.3c-0.4,0.4-0.6,0.9-0.6,1.4c0,0.5,0.2,1,0.6,1.4l7,7c1.9,1.9,4.4,2.9,7,2.9  c2.7,0,5.2-1,7-2.9h0C48.5,40.7,48.5,34.4,44.6,30.5z"></path></svg>