<svg xmlns="http://www.w3.org/2000/svg" xmlns:xlink="http://www.w3.org/1999/xlink" viewBox="0 0 22 24" version="1.1" x="0px" y="0px"><title>4 -Spider- (Solid)</title><desc>Created with Sketch.</desc><g stroke="none" stroke-width="1" fill="none" fill-rule="evenodd"><g fill="#000000"><path d="M21.8949,14.5532 L20.8949,12.5532 C20.8169,12.3972 20.6999,12.2652 20.5549,12.1682 L17.5549,10.1682 C17.3909,10.0592 17.1979,10.0002 16.9999,10.0002 L14.6609,10.0002 C14.5349,9.6402 14.3679,9.3102 14.1799,9.0002 L14.9999,9.0002 C15.1979,9.0002 15.3909,8.9422 15.5549,8.8322 L18.5549,6.8322 C18.7759,6.6852 18.9289,6.4562 18.9809,6.1972 L19.9809,1.1972 C20.0889,0.6552 19.7379,0.1282 19.1969,0.0202 C18.6549,-0.0878 18.1279,0.2622 18.0199,0.8042 L17.1009,5.3982 L14.6979,7.0002 L13.6999,7.0002 C13.8869,6.5442 13.9999,6.0392 13.9999,5.5002 C13.9999,3.5712 12.6549,2.0002 10.9999,2.0002 C9.3459,2.0002 7.9999,3.5712 7.9999,5.5002 C7.9999,6.0392 8.1139,6.5442 8.3009,7.0002 L7.3029,7.0002 L4.8999,5.3982 L3.9809,0.8042 C3.8739,0.2632 3.3499,-0.0878 2.8039,0.0202 C2.2629,0.1282 1.9119,0.6552 2.0199,1.1972 L3.0199,6.1972 C3.0719,6.4562 3.2249,6.6852 3.4459,6.8322 L6.4459,8.8322 C6.6099,8.9422 6.8029,9.0002 6.9999,9.0002 L7.8209,9.0002 C7.6329,9.3102 7.4659,9.6402 7.3389,10.0002 L4.9999,10.0002 C4.8029,10.0002 4.6099,10.0592 4.4459,10.1682 L1.4459,12.1682 C1.3009,12.2652 1.1839,12.3972 1.1059,12.5532 L0.1059,14.5532 C-0.1411,15.0472 0.0589,15.6482 0.5529,15.8952 C0.6969,15.9672 0.8489,16.0002 0.9989,16.0002 C1.3669,16.0002 1.7189,15.7982 1.8949,15.4482 L2.7759,13.6852 L5.3029,12.0002 L6.9999,12.0002 C6.9999,12.1862 7.0279,12.3622 7.0439,12.5422 L4.2929,15.2932 C4.1059,15.4812 3.9999,15.7352 3.9999,16.0002 L3.9999,20.0002 C3.9999,20.1982 4.0589,20.3912 4.1679,20.5552 L6.1679,23.5552 C6.3609,23.8442 6.6779,24.0002 7.0009,24.0002 C7.1919,24.0002 7.3839,23.9462 7.5549,23.8322 C8.0149,23.5262 8.1389,22.9052 7.8319,22.4462 L5.9999,19.6982 L5.9999,16.4142 L7.6649,14.7502 C8.3819,16.1032 9.6069,17.0002 10.9999,17.0002 C12.3939,17.0002 13.6189,16.1032 14.3359,14.7502 L15.9999,16.4142 L15.9999,19.6982 L14.1679,22.4462 C13.8619,22.9052 13.9859,23.5262 14.4459,23.8322 C14.6169,23.9462 14.8089,24.0002 14.9989,24.0002 C15.3229,24.0002 15.6399,23.8442 15.8329,23.5552 L17.8329,20.5552 C17.9419,20.3912 17.9999,20.1982 17.9999,20.0002 L17.9999,16.0002 C17.9999,15.7352 17.8949,15.4812 17.7079,15.2932 L14.9569,12.5422 C14.9719,12.3622 14.9999,12.1862 14.9999,12.0002 L16.6979,12.0002 L19.2249,13.6852 L20.1059,15.4482 C20.2819,15.7982 20.6339,16.0002 21.0009,16.0002 C21.1519,16.0002 21.3039,15.9672 21.4479,15.8952 C21.9419,15.6482 22.1419,15.0472 21.8949,14.5532"></path></g></g></svg>