<svg xmlns="http://www.w3.org/2000/svg" xmlns:xlink="http://www.w3.org/1999/xlink" version="1.1" x="0px" y="0px" viewBox="0 0 100 100" enable-background="new 0 0 100 100" xml:space="preserve"><g><path d="M50,5.001C25.147,5.001,5,25.147,5,50c0,24.853,20.147,45,45,45c24.853,0,45-20.146,45-45C95,25.147,74.853,5.001,50,5.001   z M73.861,48.531c-7.743,3.835-17.51-0.106-21.815-8.804c-4.307-8.694-1.521-18.854,6.218-22.688   c7.74-3.834,17.507,0.107,21.813,8.804C84.385,34.538,81.606,44.697,73.861,48.531z"></path><path d="M69.595,30.89l-0.031-0.059c1.125-1.325,1.267-2.719,0.732-3.801c-0.756-1.525-3.008-2.528-6.403-0.846   c-2.9,1.438-4.414,3.943-3.361,6.067c0.545,1.101,1.747,1.78,3.46,1.703l0.023,0.058c-1.284,1.384-1.773,2.924-1.028,4.43   c0.842,1.7,3.43,2.656,7.113,0.831c3.37-1.669,4.832-4.292,3.7-6.571C72.995,31.079,71.228,30.656,69.595,30.89z M63.677,30.572   c-0.39-0.793-0.112-1.748,1.049-2.323c1.247-0.619,2.145-0.102,2.526,0.672c0.395,0.792,0.005,1.754-0.68,2.332   C65.257,31.521,64.103,31.422,63.677,30.572z M69.229,37.178c-1.272,0.63-2.497,0.179-2.925-0.741   c-0.452-0.907-0.144-1.924,0.839-2.746c1.49-0.354,2.756-0.164,3.303,0.938C70.884,35.518,70.435,36.58,69.229,37.178z"></path></g></svg>