<svg xmlns="http://www.w3.org/2000/svg" xmlns:xlink="http://www.w3.org/1999/xlink" version="1.1" x="0px" y="0px" viewBox="0 0 90 90" enable-background="new 0 0 90 90" xml:space="preserve"><path d="M82.457,42.304C81.05,22.757,64.613,7.445,45.036,7.445c-0.905,0-1.825,0.033-2.732,0.099  c-10.005,0.72-19.131,5.293-25.696,12.877S6.822,37.692,7.543,47.697C8.95,67.243,25.387,82.556,44.964,82.556  c0.905,0,1.825-0.033,2.732-0.099c10.005-0.72,19.131-5.294,25.696-12.878S83.178,52.309,82.457,42.304z M59.8,18.919l-1.541,2.717  c-5.147-2.922-10.966-4.051-16.812-3.266l-0.416-3.096C47.562,14.399,54.054,15.659,59.8,18.919z M44.933,74.994  c-5.427,0-10.704-1.471-15.427-4.32c-6.857-4.139-11.692-10.699-13.616-18.476l3.031-0.75C20.645,58.414,24.977,64.293,31.119,68  c5.069,3.058,10.849,4.343,16.719,3.715l0.332,3.105C47.087,74.937,46.007,74.994,44.933,74.994z M45,65.292  c-11.207,0-20.292-9.085-20.292-20.292c0-11.207,9.085-20.292,20.292-20.292S65.292,33.793,65.292,45  C65.292,56.207,56.207,65.292,45,65.292z M49.322,44.135c1.507-1.247,2.47-3.131,2.47-5.235c0-3.745-3.047-6.791-6.792-6.791  s-6.792,3.046-6.792,6.791c0,2.104,0.962,3.988,2.47,5.235c-1.955,1.368-3.239,3.633-3.239,6.196c0,4.17,3.392,7.562,7.562,7.562  s7.562-3.392,7.562-7.562C52.562,47.768,51.278,45.503,49.322,44.135z M45,35.232c2.023,0,3.669,1.646,3.669,3.668  c0,2.023-1.646,3.669-3.669,3.669s-3.669-1.646-3.669-3.669C41.331,36.877,42.977,35.232,45,35.232z M45,54.769  c-2.447,0-4.438-1.991-4.438-4.438s1.991-4.438,4.438-4.438s4.438,1.991,4.438,4.438S47.447,54.769,45,54.769z"></path></svg>