<svg xmlns:dc="http://purl.org/dc/elements/1.1/" xmlns:cc="http://creativecommons.org/ns#" xmlns:rdf="http://www.w3.org/1999/02/22-rdf-syntax-ns#" xmlns:svg="http://www.w3.org/2000/svg" xmlns="http://www.w3.org/2000/svg" xmlns:sodipodi="http://sodipodi.sourceforge.net/DTD/sodipodi-0.dtd" xmlns:inkscape="http://www.inkscape.org/namespaces/inkscape" version="1.1" x="0px" y="0px" viewBox="0 0 100 100"><g transform="translate(0,-952.36218)"><path style="" d="m 47.569769,973.16764 -7.906118,1.19535 c -0.804216,5.47415 -1.616121,10.94811 -2.42542,16.42185 l 4.822638,6.543 2.726248,25.37286 -4.314992,0 c -1.202781,0 -2.171598,1.0925 -2.171598,2.4443 l 0,19.4785 c 0,1.3518 0.968817,2.4442 2.171598,2.4442 l 19.055529,0 c 1.202781,0 2.171598,-1.0924 2.171598,-2.4442 l 0,-19.4785 c 0,-1.3518 -0.968817,-2.4443 -2.171598,-2.4443 l -5.226874,0 3.130484,-24.67721 5.330285,-7.23865 -2.425421,-16.40448 c -1.789474,-0.28554 -4.590699,-0.8255 -6.693408,-1.21272 z" fill="#000000" fill-opacity="1" stroke="none"></path><rect ry="2.2808864" rx="2.1273706" y="1040.9464" x="29.202778" height="6.4157591" width="41.594444" style="" fill="#000000" fill-opacity="1" stroke="none"></rect><path style="" d="m 395.97978,381.62088 a 17.172594,22.223356 0 1 1 -34.34518,0 17.172594,22.223356 0 1 1 34.34518,0 z" transform="matrix(0.30082732,0,0,0.30082732,-63.955545,849.24559)" fill="#000000" fill-opacity="1" stroke="none"></path></g></svg>