<svg xmlns="http://www.w3.org/2000/svg" xmlns:xlink="http://www.w3.org/1999/xlink" version="1.1" x="0px" y="0px" viewBox="0 0 100 100" enable-background="new 0 0 100 100" xml:space="preserve"><path d="M50.776,0.593c-2.721,0-4.934,2.213-4.934,4.936c0,2.722,2.213,4.941,4.934,4.941c2.72,0,4.94-2.217,4.94-4.941  C55.718,2.806,53.496,0.593,50.776,0.593z"></path><rect x="34.991" y="52.152" width="30.332" height="9.076"></rect><rect x="25.891" y="63.654" width="48.53" height="35.943"></rect><path d="M27.487,17.35h16.579v32.376h13.3V33.6h4.313l0.001-16.559c0-2.733-2.215-4.948-4.949-4.948H27.487  c-1.452,0-2.629,1.177-2.629,2.629C24.858,16.173,26.035,17.35,27.487,17.35z"></path></svg>