<svg xmlns="http://www.w3.org/2000/svg" xmlns:xlink="http://www.w3.org/1999/xlink" version="1.0" x="0px" y="0px" viewBox="0 0 100 100" enable-background="new 0 0 100 100" xml:space="preserve"><path d="M70.566,46.666C71.341,35.021,76.12,23.596,85,14.713L80.286,10c-6.451,6.455-10.967,14.098-13.648,22.213  c1.243-6.666,3.167-13.256,5.82-19.668L66.299,10c-2.952,7.139-5.029,14.42-6.331,21.725c0.611-6.83,1.556-13.652,2.884-20.449  L56.309,10c-1.364,6.984-2.341,14.074-2.976,21.24V10h-6.666v22.893c-0.671-7.604-1.726-15.24-3.281-22.893l-6.53,1.328  c1.302,6.389,2.278,12.805,2.942,19.238C38.457,23.508,36.413,16.611,33.675,10l-6.158,2.551c2.646,6.387,4.573,12.947,5.82,19.588  C30.651,24.053,26.149,16.436,19.714,10L15,14.713c8.88,8.881,13.659,20.307,14.434,31.953H70.566z"></path><path d="M29.434,53.332C28.659,64.977,23.88,76.402,15,85.285L19.714,90c6.451-6.455,10.963-14.1,13.648-22.215  c-1.243,6.668-3.167,13.256-5.82,19.668L33.701,90c2.952-7.139,5.029-14.422,6.331-21.727c-0.611,6.83-1.556,13.652-2.884,20.449  L43.691,90c1.364-6.99,2.341-14.086,2.976-21.25V90h6.666V67.119c0.671,7.598,1.726,15.23,3.281,22.881l6.53-1.328  c-1.299-6.395-2.282-12.811-2.946-19.242c1.345,7.061,3.386,13.955,6.127,20.57l6.158-2.553c-2.646-6.387-4.573-12.945-5.82-19.584  C69.349,75.949,73.851,83.564,80.286,90L85,85.285c-8.88-8.879-13.659-20.305-14.434-31.953H29.434z"></path></svg>