<?xml version="1.0" encoding="UTF-8" standalone="no"?>
<!DOCTYPE svg PUBLIC "-//W3C//DTD SVG 1.1//EN" "http://www.w3.org/Graphics/SVG/1.1/DTD/svg11.dtd">
<svg width="100%" height="100%" viewBox="0 0 100 100" version="1.1" xmlns="http://www.w3.org/2000/svg" xmlns:xlink="http://www.w3.org/1999/xlink" xml:space="preserve" xmlns:serif="http://www.serif.com/" style="fill-rule:evenodd;clip-rule:evenodd;stroke-linejoin:round;stroke-miterlimit:1.41421;">
    <g>
        <path d="M75.6,55.9L71.1,53.2L71.1,51.7L70.9,53.1L67.7,51.1L70.8,53.9L69.8,59.9L64,53.2L71.3,65.2L71.1,54.2L80,62.1L74.7,49.7L75.6,55.9Z" style="fill-rule:nonzero;stroke:black;stroke-width:2px;"/>
        <path d="M87.7,69.9L93.6,71.1L93.5,70C93.5,69.6 92.8,60.4 86.2,52.6L89.2,53.6L88.5,51.8C88.4,51.5 85.1,43.6 83.1,40.6C81.7,38.5 80.5,36.9 79.6,35.8L82.1,36.5L80.6,34.4C80,33.6 67.9,17.1 50.1,17.1C32.3,17.1 20.2,33.6 19.7,34.3L18.2,36.4L20.7,35.7C19.8,36.8 18.6,38.4 17.2,40.5C15.2,43.5 11.9,51.3 11.8,51.7L11.1,53.5L14.1,52.5C7.5,60.4 6.8,69.5 6.8,69.9L6.7,71.1L12.6,69.9L11.2,71.7L23.4,72.5L22.5,74.6L36.1,73.7L35.3,76.7L42.1,73.6L55.1,75.7L58.2,73.6L64.8,76.6L64,73.6L77.6,74.5L76.7,72.4L88.9,71.6L87.7,69.9ZM74.3,70.9L75.6,73.2L61.8,71.7L63.5,74.7L58.3,71.7L55.2,74.7L42,71.8L37.6,74.1L38.7,71.7L24.9,73.2L26.2,70.9L13.6,70.8L17,67.2L8.9,68.9C9.4,65.8 11.2,57.5 17.9,51.3L20.8,48.5L14.4,50.6C15.5,48.1 17.5,43.6 18.9,41.6C22.3,36.6 24.3,34.8 24.3,34.8L27,32.3L23,33.2C26.9,28.7 37,18.9 50.1,18.9C63.2,18.9 73.3,28.8 77.2,33.2L73.4,32.1L76.1,34.6C76.1,34.6 78.1,36.5 81.5,41.4C82.9,43.4 84.9,47.9 86,50.4L79.6,48.3L82.5,51.1C89.2,57.4 91,65.7 91.5,68.7L83.4,67L86.2,70.6L74.3,70.9Z" style="fill-rule:nonzero;stroke:black;stroke-width:2px;"/>
        <path d="M29.1,38.2L29.4,34.5L26.6,42.5L35,33.9L29.1,38.2Z" style="fill-rule:nonzero;stroke:black;stroke-width:2px;"/>
        <path d="M61.1,25L61.6,28.5L54.1,26.7L66,32.3L61.1,25Z" style="fill-rule:nonzero;stroke:black;stroke-width:2px;"/>
        <path d="M49.8,41.6L50.5,40.5L49.7,41.5L48.3,40.5L49.4,41.7L45.5,46.3L43.4,40L43.6,51.7L49.6,41.9L55.4,48.6L55.4,40L53.6,44.3L49.8,41.6Z" style="fill-rule:nonzero;stroke:black;stroke-width:2px;"/>
        <path d="M30.8,52.8L27.8,65.3L39.6,54.3L30.8,60.2L30.8,52.8Z" style="fill-rule:nonzero;stroke:black;stroke-width:2px;"/>
    </g>
</svg>
