<svg xmlns="http://www.w3.org/2000/svg" xmlns:xlink="http://www.w3.org/1999/xlink" version="1.1" x="0px" y="0px" viewBox="0 0 100 100" enable-background="new 0 0 100 100" xml:space="preserve"><path d="M53.366,29.548c-0.518-2.586-1.448-5.015-2.789-7.277c0.245-0.659,0.528-1.306,0.875-1.928  c3.681-6.58,8.514-7.996,11.651-8.726c0.512,4.327-0.01,7.957-0.379,9.776c-0.093,0.459-0.219,0.902-0.356,1.34  C59.424,23.995,56.355,26.061,53.366,29.548z M77.248,38.535c0.308-0.57,2.089-4.561,2.285-4.997  c-3.945-0.313-9.69,0.122-11.85,0.937C56.45,38.716,51.891,44.44,49.549,50.379C50.637,52.432,51.317,54,51.652,56h9.03  C69.798,52,73.927,44.681,77.248,38.535z M48.922,32.507c0.455,0.63,0.86,1.265,1.242,1.903c0.419-0.971,0.893-1.884,1.472-2.683  c0.296-0.409,0.595-0.78,0.893-1.158c-0.647-3.951-2.251-7.533-4.842-10.701c-4.817-5.888-8.054-7.071-12.149-8.569  c-0.196,4.217,0.693,7.601,1.186,9.256c0.226,0.759,0.666,2.068,1.058,2.985C41.863,25.422,45.847,28.252,48.922,32.507z   M48.46,19.234c0.529,0.646,1.006,1.313,1.457,1.991c0.198-0.464,0.412-0.923,0.662-1.37c1.189-2.125,2.49-3.726,3.818-4.966  c-0.122-0.507-0.261-1.003-0.444-1.473c-0.917-2.357-2.83-5.765-4.231-7.87c-1.2,1.687-2.954,4.248-4.302,6.655  c-0.487,0.871-0.829,1.794-1.068,2.747C45.628,16.043,46.978,17.423,48.46,19.234z M21.163,34.568  c0.064,0.098,0.647,1.965,1.708,4.503C25.59,45.573,28.905,52,37.922,56h12.721C49.044,49,40.213,35.295,21.163,34.568z   M72.488,21.446c-0.209,0.026-0.421,0.053-0.635,0.079c-5.675,0.704-12.738,1.58-19.407,10.787  c-0.672,0.927-1.224,1.989-1.669,3.169c1.246,2.32,2.049,4.662,2.534,6.94c2.865-3.167,7.02-6.111,13.196-8.557  c0.018-0.055,0.043-0.115,0.057-0.167c1.313-4.884,3.584-8.5,5.088-10.893C71.978,22.289,72.265,21.831,72.488,21.446z   M27.301,21.462c1.44,2.896,3.158,6.737,5.382,13.848c0.049,0.158,0.116,0.329,0.189,0.505c7.928,3.002,13.135,8.443,16.067,13.43  c0.856-1.983,1.993-3.954,3.544-5.859c-0.617-3.365-1.922-6.903-4.372-10.293C42.568,25.421,33.918,22.521,27.301,21.462z"></path><path d="M21,57h58v6H21V57z M49.937,94.653c14.519,0,26.389-12.99,27.188-30.653H22.75C23.549,81.662,35.418,94.653,49.937,94.653z"></path></svg>