<svg xmlns="http://www.w3.org/2000/svg" xmlns:xlink="http://www.w3.org/1999/xlink" version="1.1" x="0px" y="0px" viewBox="0 0 48 48" style="enable-background:new 0 0 48 48;" xml:space="preserve"><path d="M18,20c0-2.214,3.146-6.742,5-8.389V18c0,0.04-0.424,4-4,4C18.309,22,18,21.711,18,20z M18,9h12  c0.717,0,1.369,0.038,1.968,0.105C33.977,6.479,35,4.759,35,4c0-2.542-1.458-4-4-4H17c-2.542,0-4,1.458-4,4  c0,0.759,1.023,2.479,3.032,5.105C16.631,9.038,17.283,9,18,9z M32.166,11.15C31.535,11.057,30.823,11,30,11h-2.787  C29.625,13.516,32,17.771,32,20c0,2.654-1.01,4-3,4c-2.541,0-4.107-1.355-5-2.836C23.107,22.645,21.541,24,19,24  c-1.99,0-3-1.346-3-4c0-2.229,2.375-6.484,4.787-9H18c-0.823,0-1.535,0.057-2.166,0.15C12.234,15.927,3,29.32,3,41  c0,5.811,2.799,7,7,7h28c4.201,0,7-1.189,7-7C45,29.32,35.766,15.927,32.166,11.15z M29,22c0.691,0,1-0.289,1-2  c0-2.213-3.141-6.736-5-8.384V18C25,18.04,25.424,22,29,22z M7,17c2.135,0,3.041-1.357,3.84-2.559  c0.688-1.03,1.439-2.148,3.16-2.821V9.507c-2.811,0.824-3.939,2.501-4.824,3.826C8.404,14.489,8.021,15,7,15c-0.553,0-1,0.447-1,1  S6.447,17,7,17z M34,11.62c1.721,0.673,2.473,1.791,3.16,2.821C37.959,15.643,38.865,17,41,17c0.553,0,1-0.447,1-1s-0.447-1-1-1  c-1.021,0-1.404-0.511-2.176-1.667c-0.885-1.325-2.014-3.002-4.824-3.826V11.62z"></path></svg>