<svg xmlns="http://www.w3.org/2000/svg" xmlns:xlink="http://www.w3.org/1999/xlink" version="1.1" x="0px" y="0px" viewBox="0 0 100 100" enable-background="new 0 0 100 100" xml:space="preserve"><g><g><path d="M85.183,85.861c0.001-0.009,0.004-0.018,0.005-0.028c0.005-0.053-0.001-0.107-0.014-0.161    c-0.003-0.01-0.003-0.021-0.006-0.031c-0.021-0.064-0.053-0.126-0.105-0.185c-0.049-0.095-0.12-0.177-0.217-0.236    c0,0,0-0.001-0.001-0.001c-0.147-0.157-0.287-0.308-0.431-0.462c-0.227-0.244-0.448-0.484-0.665-0.722    c-0.106-0.116-0.213-0.232-0.316-0.347c-0.142-0.158-0.276-0.317-0.412-0.475c-0.103-0.12-0.208-0.239-0.307-0.36    c-0.129-0.156-0.249-0.317-0.371-0.476c-0.095-0.123-0.193-0.245-0.284-0.371c-0.118-0.163-0.226-0.335-0.336-0.503    c-0.084-0.128-0.172-0.252-0.251-0.384c-0.108-0.18-0.205-0.372-0.304-0.561c-0.069-0.131-0.144-0.256-0.208-0.391    c-0.103-0.217-0.192-0.451-0.283-0.682c-0.048-0.121-0.102-0.233-0.146-0.359c-0.128-0.365-0.242-0.747-0.338-1.153    c-0.814-3.446-0.99-7.07-1.045-10.604c-0.086-5.605-0.586-11.18-1.566-16.704c-0.903-5.086-2.8-10.904-6.017-15.025    c-1.635-2.095-3.497-3.983-5.669-5.52c-0.28-0.198-0.565-0.379-0.854-0.548c-0.061-0.035-0.123-0.065-0.184-0.099    c-0.232-0.131-0.466-0.258-0.702-0.375c-0.028-0.014-0.057-0.026-0.086-0.04c-1.698-0.826-3.483-1.352-5.175-2.24    c0.001-0.002,0.001-0.004,0.002-0.006c0.007-0.019,0.012-0.039,0.019-0.058c0.065-0.178,0.116-0.359,0.156-0.541    c0.008-0.038,0.018-0.074,0.025-0.112c0.034-0.186,0.05-0.371,0.053-0.556c0.001-0.048,0-0.095-0.001-0.143    c-0.006-0.181-0.028-0.359-0.07-0.533c-0.011-0.043-0.026-0.085-0.039-0.128c-0.05-0.165-0.115-0.325-0.204-0.478    c-0.017-0.03-0.036-0.059-0.055-0.089c-0.034-0.052-0.074-0.102-0.113-0.153c0.089-0.271,0.16-0.574,0.155-0.693    c-0.003-0.082-0.01-0.159-0.015-0.238c0.027-0.142,0.048-0.287,0.06-0.435c0.006-0.071,0.009-0.144,0.011-0.217    c0.004-0.154-0.001-0.314-0.014-0.476c-0.005-0.07-0.008-0.14-0.017-0.212c-0.029-0.234-0.069-0.475-0.134-0.731    c-0.03-0.121-0.095-0.263-0.174-0.41c-0.019-0.036-0.038-0.07-0.06-0.107c-0.088-0.15-0.188-0.304-0.309-0.457    c-0.002-0.003-0.005-0.005-0.007-0.008c-0.12-0.151-0.254-0.293-0.394-0.427c-0.033-0.031-0.063-0.06-0.097-0.09    c-0.148-0.132-0.299-0.253-0.453-0.344c-0.001-0.001-0.002-0.002-0.003-0.002c0.461-1.07,1.092-2.13,1.639-3.134    c0.157-0.289,0.31-0.574,0.447-0.853c1.083-2.208,3.209-3.468,2.917-6.145c-0.256-2.341-3.553-2.508-5.27-2.829    c-3.272-0.612-6.645,0.789-9.887,0.93c-2.377,0.103-3.603-0.845-5.587-1.871c-0.718-0.372-1.885-0.365-2.588,0.047    c-0.138,0.081-0.248,0.178-0.342,0.285c-0.032,0.037-0.053,0.079-0.08,0.118c-0.052,0.075-0.102,0.15-0.137,0.233    c-0.021,0.05-0.034,0.103-0.049,0.156c-0.023,0.079-0.043,0.158-0.053,0.24c-0.007,0.057-0.009,0.113-0.01,0.171    c-0.001,0.042-0.009,0.082-0.007,0.124c-0.012,0.06-0.009,0.126-0.016,0.187c-0.009,0.082-0.019,0.161-0.02,0.246    c-0.002,0.117,0.004,0.234,0.014,0.354c0.007,0.083,0.01,0.164,0.021,0.247c0.018,0.139,0.04,0.276,0.063,0.412    c0.043,0.249,0.088,0.491,0.119,0.711c0.032,0.229,0.024,0.518,0.067,0.783c0.001,0.005,0.001,0.01,0.001,0.015    c-0.085-0.011-0.163-0.003-0.246-0.008c-0.162-0.011-0.326-0.024-0.482-0.016c-0.099,0.005-0.196,0.024-0.293,0.036    c-0.155,0.02-0.312,0.035-0.464,0.071c-0.108,0.025-0.214,0.064-0.321,0.096c-0.136,0.042-0.274,0.076-0.409,0.128    c-0.241,0.091-0.481,0.195-0.724,0.309c-1.634,0.766-1.824,2.206-0.759,3.517c0.488,0.6,1.13,0.982,1.838,1.197    c0.259,0.299,0.496,0.586,0.723,0.873c0.089,0.113,0.171,0.226,0.256,0.338c0.134,0.178,0.264,0.357,0.388,0.538    c0.094,0.137,0.185,0.276,0.274,0.417c0.108,0.17,0.209,0.348,0.31,0.526c0.083,0.148,0.168,0.293,0.247,0.448    c0.011,0.021,0.02,0.045,0.03,0.066c-0.177,0.088-0.317,0.209-0.432,0.352c-0.009,0.011-0.016,0.022-0.025,0.034    c-0.219,0.293-0.328,0.677-0.354,1.112c-0.001,0.019-0.002,0.038-0.003,0.057c-0.019,0.438,0.037,0.916,0.142,1.392    c0.004,0.019,0.008,0.037,0.012,0.056c0.054,0.239,0.118,0.475,0.19,0.704c0.002,0.006,0.004,0.011,0.005,0.016    c0.15,0.474,0.327,0.908,0.499,1.257c-0.026,0.05-0.061,0.126-0.097,0.21c-0.009,0.021-0.017,0.04-0.027,0.063    c-0.038,0.091-0.078,0.187-0.116,0.289c-0.001,0.001-0.001,0.003-0.002,0.004c-0.036,0.098-0.068,0.193-0.096,0.283    c-0.007,0.024-0.014,0.046-0.02,0.069c-0.025,0.09-0.045,0.172-0.05,0.23c-0.016,0.208-0.013,0.434-0.001,0.665    c0.003,0.052,0.007,0.102,0.011,0.155c0.038,0.487,0.138,0.996,0.302,1.481c0.005,0.013,0.01,0.026,0.014,0.039    c0.087,0.251,0.19,0.492,0.311,0.717l0,0l0,0c-0.256,0.463-0.861,0.813-1.321,1.136c-0.137,0.096-0.264,0.19-0.36,0.283    c-0.986,0.952-2.127,1.796-3.201,2.651c-2.457,1.954-4.755,3.976-6.746,6.417c-3.641,4.466-5.181,9.766-6.397,15.3    c-0.633,2.882-0.363,6.153-0.558,9.098c-0.223,3.377-0.035,6.72-0.399,10.101c-0.379,3.513-0.904,6.898-1.962,10.274    c-0.563,1.795-1.303,3.543-2.252,5.165c-0.379,0.648-0.912,1.29-1.073,2.03c-0.022,0.099-0.02,0.189-0.004,0.273    c0.005,0.03,0.02,0.054,0.03,0.082c0.017,0.049,0.033,0.099,0.061,0.141c0.02,0.03,0.045,0.054,0.069,0.081    c0.029,0.031,0.056,0.062,0.09,0.087c0.031,0.023,0.064,0.041,0.098,0.059c0.021,0.011,0.039,0.027,0.06,0.037    c0.04,0.05,0.091,0.089,0.152,0.118c0.004,0.002,0.006,0.006,0.01,0.008c0.066,0.029,0.143,0.045,0.233,0.041    c0.021-0.001,0.042-0.002,0.064-0.003c0.003,0,0.005-0.002,0.008-0.002c0.453-0.022,1.015-0.412,1.405-0.554    c1.335-0.487,2.726-0.952,4.126-1.205c3.574-0.643,7.224,0.152,10.685,1.045c6.443,1.664,12.197,4.451,18.946,4.912    c5.91,0.403,11.268-0.439,16.82-2.446c5.527-1.998,10.635-6.262,16.848-6.047c0.112,0,0.206-0.025,0.287-0.064    c0.006-0.003,0.01-0.009,0.016-0.012c0.075-0.039,0.136-0.091,0.184-0.154c0,0,0,0,0.001-0.001l0.001-0.002    c0.045-0.042,0.082-0.09,0.111-0.145c0.002-0.004,0.004-0.007,0.006-0.011C85.159,85.97,85.175,85.918,85.183,85.861z"></path></g></g></svg>