<?xml version="1.0" encoding="utf-8"?><!DOCTYPE svg PUBLIC "-//W3C//DTD SVG 1.1//EN" "http://www.w3.org/Graphics/SVG/1.1/DTD/svg11.dtd"><svg version="1.1" xmlns="http://www.w3.org/2000/svg" xmlns:xlink="http://www.w3.org/1999/xlink" x="0px" y="0px" viewBox="0 0 100 83.053" enable-background="new 0 0 100 83.053" xml:space="preserve"><path fill="#010101" d="M90.869,35.793L75.286,18.087v-0.051L65.243,15.87c1.36-2.118,2.136-4.057,2.136-5.202
	C67.378,7.035,59.578,0,49.954,0S32.53,7.035,32.53,10.668c0,1.15,0.782,3.099,2.154,5.227l-9.923,2.142L9.132,35.793L0,64.963
	l13.357,3.739L24.761,45.58v37.473h24.362V34.158c0-3.75-8.061-13.673-11.168-17.182l-0.073-0.094L37.72,16.64
	c-0.308-0.362-1.759-2.235-1.759-5.372c0-3.679,6.146-6.559,13.994-6.559c7.847,0,13.994,2.88,13.994,6.559
	c0,3.313-1.771,5.575-1.846,5.67l-0.032,0.037c-3.104,3.495-11.165,13.398-11.165,17.18v48.895h24.379V45.672l11.358,23.03
	L100,64.963L90.869,35.793z"></path><path fill="#010101" d="M62.167,11.269c0-2.255-5.224-4.776-12.211-4.776c-7.196,0-12.21,2.518-12.21,4.776
	c0,2.699,1.327,4.208,1.339,4.222l0.085,0.107l0.161,0.239c1.115,1.262,8.161,9.353,10.68,15.013
	c2.528-5.708,9.653-13.845,10.708-15.034C60.848,15.643,62.167,13.817,62.167,11.269z"></path></svg>