<svg xmlns="http://www.w3.org/2000/svg" xmlns:xlink="http://www.w3.org/1999/xlink" version="1.1" x="0px" y="0px" viewBox="0 0 100 100" style="enable-background:new 0 0 100 100;" xml:space="preserve"><style type="text/css">
	.st0{stroke:#000000;stroke-width:4;stroke-linecap:round;stroke-linejoin:round;stroke-miterlimit:10;}
	.st1{fill:none;stroke:#000000;stroke-width:4;stroke-linecap:round;stroke-linejoin:round;stroke-miterlimit:10;}
	.st2{fill:none;stroke:#000000;stroke-width:4;stroke-miterlimit:10;}
	.st3{fill:#FFFFFF;stroke:#000000;stroke-width:3;stroke-linecap:round;stroke-linejoin:round;stroke-miterlimit:10;}
	.st4{fill:#FFCCCC;stroke:#000000;stroke-width:3;stroke-linecap:round;stroke-linejoin:round;stroke-miterlimit:10;}
	.st5{fill:none;}
	.st6{fill:none;stroke:#000000;stroke-width:4;stroke-linecap:round;stroke-miterlimit:10;}
	.st7{stroke:#000000;stroke-width:3;stroke-linecap:round;stroke-linejoin:round;stroke-miterlimit:10;}
	.st8{stroke:#FFFFFF;stroke-width:3;stroke-miterlimit:10;}
	.st9{fill:none;stroke:#000000;stroke-width:8;stroke-linecap:square;stroke-linejoin:round;stroke-miterlimit:10;}
	.st10{fill:none;stroke:#000000;stroke-width:3;stroke-linecap:round;stroke-linejoin:round;stroke-miterlimit:10;}
	.st11{stroke:#FFFFFF;stroke-linecap:round;stroke-linejoin:round;stroke-miterlimit:10;}
	.st12{stroke:#FFFFFF;stroke-width:3;stroke-linecap:round;stroke-linejoin:round;stroke-miterlimit:10;}
	.st13{fill:#FFFFFF;stroke:#000000;stroke-width:4;stroke-linecap:round;stroke-linejoin:round;stroke-miterlimit:10;}
	.st14{stroke:#000000;stroke-width:2;stroke-linecap:round;stroke-linejoin:round;stroke-miterlimit:10;}
	.st15{fill:none;stroke:#000000;stroke-width:10;stroke-linejoin:round;stroke-miterlimit:10;}
	.st16{fill:none;stroke:#FFFFFF;stroke-width:2;stroke-linejoin:round;stroke-miterlimit:10;}
</style><g><path d="M91.2,62.4c-0.4-0.8-0.7-1.7-1.1-2.5c-1.5-3.6-3-7.4-4.5-11c-1.2-3-2.4-5.9-3.6-8.9c0,0,0-0.1-0.1-0.1   c-4.2-11.4-10.6-17.4-18.7-17.4h-3.5c-1,0-1.8,0.7-1.9,1.7c-0.5,4.6-3.8,8-7.6,8c-3.8,0-7.1-3.4-7.6-8c-0.1-1-1-1.7-1.9-1.7   c-0.1,0-0.3,0-0.4,0h-3.5c-11.3,0-16,11-18.7,17.5c0,0.1,0,0.1-0.1,0.2c-1.3,3-2.5,6.1-3.7,9.1c-1.4,3.5-2.9,7.2-4.3,10.7   c-0.4,0.8-0.7,1.7-1.1,2.5c-1.3,2.9-2.6,5.9-3.7,9c-0.9,2.4,2.3,3.6,3.5,4.1c2.7,1.1,9.2,3.3,10.4,0.5l0.7-1.6c2-4.8,4-9.6,6-14.4   c1.1-2.7,2.5-5.4,3.8-8v17.3c0,4.4,3.6,8,8,8H63c4.4,0,8-3.6,8-8V52.4c0.6,1.4,1.2,2.7,1.8,4.1c2.1,4.7,4,9.4,5.9,14.1   c0.8,1.8,1.5,3.7,2.3,5.5c1.2,2.8,7.6,0.6,10.3-0.4c1.2-0.5,4.4-1.7,3.5-4.1C93.7,68.4,92.4,65.4,91.2,62.4z"></path></g></svg>