<svg xmlns="http://www.w3.org/2000/svg" xmlns:xlink="http://www.w3.org/1999/xlink" version="1.1" x="0px" y="0px" viewBox="0 0 64 64" enable-background="new 0 0 64 64" xml:space="preserve"><g><path fill="#000000" d="M59.897,51.979v-0.047c-0.019-0.322-0.047-0.644-0.095-0.957c-0.104-0.682-0.275-1.345-0.549-1.97   c-0.872-1.932-2.671-3.382-4.443-4.708c-4.734-3.522-8.806-5.502-16.492-6.506c-0.152-0.02-0.247,0.169-0.138,0.277   c1.922,1.912,3.711,3.702,5.538,5.51c-4.031,5.614-6.803,9.145-10.715,14.334c-0.501,0.664-1.504,0.664-2.005,0   c-3.912-5.189-6.684-8.721-10.715-14.334c1.827-1.808,3.616-3.598,5.538-5.51c0.108-0.108,0.013-0.297-0.138-0.277   c-7.686,1.004-11.758,2.984-16.492,6.506c-1.771,1.326-3.571,2.775-4.443,4.708c-0.275,0.625-0.445,1.288-0.549,1.97   c-0.047,0.313-0.076,0.635-0.095,0.957v0.047c-0.019,0.161-0.028,0.332-0.019,0.493c0.019,1.724,0.947,3.012,2.804,3.969   c0.161,0.085,0.332,0.171,0.493,0.265c0.218,0.114,0.426,0.227,0.644,0.332c2.34,1.175,4.935,2.093,8.412,2.984   c3.78,0.976,7.843,1.61,12.068,1.895c0.455,0.038,0.947,0.047,1.535,0.047c1.307,0,2.614,0,3.922,0c0.587,0,1.08-0.009,1.535-0.047   c4.225-0.284,8.288-0.919,12.068-1.895c3.476-0.89,6.072-1.809,8.412-2.984c0.218-0.104,0.426-0.218,0.644-0.332   c0.161-0.095,0.332-0.18,0.493-0.265c1.857-0.957,2.785-2.245,2.804-3.969C59.925,52.311,59.916,52.14,59.897,51.979z"></path><path fill="#000000" d="M51.177,25.658c-0.709-1.197-1.419-2.395-2.082-3.619c-1.399-2.584-1.478-5.455-2.173-8.35   c-1.06-4.426-3.315-8.059-7.522-10.164c-2.762-1.382-5.706-1.687-8.778-1.378c-5.636,0.568-9.466,3.465-11.588,8.663   c-1.008,2.471-1.437,5.129-2.404,7.613c-0.97,2.494-2.455,4.769-3.758,7.096c-0.356,0.636-0.392,1.167-0.025,1.793   c0.916,1.56,2.026,2.895,3.303,4.03c1.504,1.339,3.242,2.4,5.178,3.226c1.76,0.751,3.568,1.253,5.294,1.56   c-0.127-0.16-0.236-0.305-0.309-0.389c-0.509-0.583-0.986-1.19-1.423-1.827c-2.533-3.698-3.714-8.327-3.648-12.825   c0.022-1.49,1.146-2.178,2.468-2.471c2.636-0.583,5.284-1.117,7.898-1.792c2.443-0.631,5.067-1.294,7.277-2.55   c0.761-0.432,1.889-1.499,2.467-0.23c1.124,2.47,1.734,5.524,1.534,8.958c-0.175,3.004-0.885,5.8-2.222,8.462   c-0.822,1.636-1.96,3.113-2.981,4.564c2.092-0.374,4.025-0.977,5.893-1.884c1.969-0.956,3.71-2.165,5.172-3.68   c0.938-0.969,1.761-2.063,2.456-3.297C51.498,26.646,51.48,26.17,51.177,25.658z"></path><path fill="#000000" d="M38.961,42.703c-0.801,0-1.45,0.649-1.45,1.45c0,0.159,0.032,0.309,0.079,0.452   c-0.205-0.11-0.435-0.179-0.684-0.179c-0.801,0-1.45,0.649-1.45,1.45c0,0.114,0.016,0.223,0.041,0.329   c-0.202-0.076-0.418-0.122-0.646-0.122c-1.021,0-1.848,0.827-1.848,1.848c0,0.059,0.012,0.116,0.018,0.174l0,0   c-0.072-0.037-0.146-0.069-0.223-0.098c-0.011-0.004-0.022-0.008-0.033-0.012c-0.065-0.024-0.132-0.044-0.2-0.062   c-0.018-0.005-0.036-0.01-0.054-0.014c-0.063-0.015-0.128-0.026-0.193-0.036c-0.021-0.003-0.041-0.007-0.062-0.009   c-0.084-0.01-0.169-0.016-0.256-0.016l0,0h0c-0.087,0-0.172,0.006-0.256,0.016c-0.021,0.002-0.041,0.006-0.062,0.009   c-0.065,0.009-0.13,0.021-0.193,0.036c-0.018,0.004-0.036,0.009-0.054,0.014c-0.068,0.018-0.135,0.038-0.2,0.062   c-0.011,0.004-0.022,0.008-0.033,0.012c-0.076,0.029-0.151,0.062-0.223,0.098l0,0c0.005-0.058,0.018-0.114,0.018-0.174   c0-1.021-0.827-1.848-1.848-1.848c-0.228,0-0.444,0.047-0.646,0.122c0.025-0.106,0.041-0.216,0.041-0.329   c0-0.801-0.649-1.45-1.45-1.45c-0.249,0-0.479,0.068-0.684,0.179c0.047-0.143,0.079-0.293,0.079-0.452   c0-0.801-0.649-1.45-1.45-1.45c-0.801,0-1.45,0.649-1.45,1.45c0,0.801,0.649,1.45,1.45,1.45c0.249,0,0.479-0.068,0.684-0.179   c-0.047,0.143-0.079,0.293-0.079,0.452c0,0.801,0.649,1.45,1.45,1.45c0.114,0,0.223-0.016,0.329-0.041   c-0.076,0.202-0.122,0.417-0.122,0.646c0,1.021,0.827,1.848,1.848,1.848c0.23,0,0.447-0.047,0.65-0.124   c-0.015,0.072-0.026,0.146-0.033,0.221c-0.008,0.075-0.012,0.151-0.012,0.227c0,0.698,0.318,1.321,0.817,1.733   c0.111,0.092,0.231,0.173,0.358,0.242c0.064,0.035,0.129,0.066,0.196,0.095c0.269,0.114,0.564,0.176,0.874,0.176h0l0,0   c0.31,0,0.605-0.063,0.874-0.176c0.067-0.028,0.133-0.06,0.196-0.095c0.127-0.069,0.247-0.15,0.358-0.242   c0.499-0.412,0.817-1.035,0.817-1.733c0-0.077-0.004-0.153-0.012-0.227c-0.008-0.075-0.019-0.148-0.033-0.221   c0.203,0.076,0.42,0.124,0.65,0.124c1.021,0,1.848-0.827,1.848-1.848c0-0.228-0.047-0.444-0.122-0.646   c0.106,0.025,0.216,0.041,0.329,0.041c0.801,0,1.45-0.649,1.45-1.45c0-0.159-0.032-0.309-0.079-0.452   c0.205,0.11,0.435,0.179,0.684,0.179c0.801,0,1.45-0.649,1.45-1.45C40.411,43.352,39.762,42.703,38.961,42.703z"></path></g></svg>