<svg xmlns="http://www.w3.org/2000/svg" xmlns:xlink="http://www.w3.org/1999/xlink" version="1.1" x="0px" y="0px" viewBox="0 0 100 100" enable-background="new 0 0 100 100" xml:space="preserve"><path d="M93.704,57.5c-0.072-0.055-6.706-5.243-8.765-8.943c0.503-0.07,0.986-0.183,1.446-0.329  c3.252-1.037,5.388-3.701,5.499-3.847l0.459-0.581l-0.477-0.563c-2.57-3.047-5.507-4.632-8.726-4.711  c-4.216-0.104-7.748,2.407-9.417,3.845c-0.314-2.025-0.719-4.003-1.21-5.926C68.638,21.277,59.477,13.691,48.106,9.768  c-2.696-0.93-5.514-1.431-8.416-1.431c-2.903,0-5.72,0.501-8.416,1.431C19.904,13.691,10.743,21.277,6.866,36.445  c-0.647,2.531-1.143,5.161-1.481,7.866c-0.02,0.154-0.041,0.307-0.06,0.462C3.877,57.249,7.236,68.641,15.882,78.857  c2.375,2.807,5.043,5.146,7.956,7.102c1.945,1.36,3.96,2.485,6.001,3.369c1.866,1.066,3.829,1.832,5.86,2.276  c0.057,0.019,0.111,0.04,0.168,0.059h0.129c1.22,0.247,2.461,0.388,3.726,0.388s2.507-0.141,3.727-0.388h0.063  c0.028-0.009,0.055-0.02,0.083-0.029c2.146-0.451,4.213-1.264,6.174-2.405c1.964-0.87,3.903-1.961,5.776-3.272  c2.911-1.955,5.578-4.294,7.952-7.099c6.955-8.218,10.482-17.198,10.845-26.891c0.715,0.916,1.346,1.648,1.69,1.978  c0.655,0.625,1.288,0.848,1.877,0.66c0.268-0.086,0.474-0.241,0.639-0.442c2.005,3.082,6.434,7.622,14.243,5.132  c0.219-0.068,0.439-0.143,0.662-0.227L95,58.509L93.704,57.5z M18.748,27.674c6.544,0,35.129,0,41.885,0  c5.219,0.001,5.219,6.146,6.161,11.808h-3.57c-0.859-0.534-1.796-0.99-2.833-1.321c-6.612-2.108-13.457,3.606-21.053,3.642  c-7.307,0.033-14.563-5.167-21.892-3.314c-0.86,0.218-1.641,0.56-2.354,0.994h-2.506C13.529,33.82,13.529,27.675,18.748,27.674z   M58.967,49.557c-3.534,5.276-9.954,5.553-13.749,0.593C48.425,45.394,55.043,45.109,58.967,49.557z M34.033,50.049  c-3.978,4.913-9.548,4.778-13.905-0.192C23.461,45.214,30.091,45.211,34.033,50.049z M59.565,74.596  c-0.142,0.168-0.286,0.332-0.431,0.497c-3.906,4.472-8.996,7.891-15.431,10.07c-0.544,0.185-1.123,0.312-1.719,0.405  c-0.646,0.089-1.303,0.143-1.959,0.16c-0.112,0.002-0.224,0.007-0.336,0.006c-0.112,0.001-0.224-0.004-0.336-0.006  c-0.656-0.018-1.313-0.071-1.959-0.16c-0.595-0.094-1.175-0.221-1.719-0.405c-6.436-2.18-11.525-5.6-15.432-10.072  c-0.144-0.163-0.288-0.327-0.429-0.494c-3.854-4.592-6.504-10.252-8.088-16.813c-0.042-0.172,0.166-0.402,0.3-0.701h0.637  c2.586,4.083,7.272,7.056,13.261,7.796c3.401,0.42,5.931-0.405,8.164-3.271c4.906-6.298,6.033-6.301,10.972-0.039  c2.333,2.959,5.138,4.335,8.468,3.155c3.903-1.383,8.124-2.898,11.137-5.555c0.729-0.644,1.336-1.351,1.874-2.086h0.813  c0.135,0.299,0.341,0.529,0.3,0.701C66.069,64.344,63.42,70.004,59.565,74.596z"></path></svg>