<svg xmlns="http://www.w3.org/2000/svg" xmlns:xlink="http://www.w3.org/1999/xlink" version="1.1" x="0px" y="0px" viewBox="0 0 100 100" enable-background="new 0 0 100 100" xml:space="preserve"><g><path fill-rule="evenodd" clip-rule="evenodd" fill="#000000" d="M47.9342308,74.2943268   c-14.836647-0.2989655-26.5447979-3.7917709-26.5447979-8.057106V16.5857944   c2.1355724,1.8144894,5.5602188,2.9230747,7.5475655,3.4842262c3.0888767,0.8722191,6.320406,1.4308605,9.5049038,1.8111172   C42.2705231,22.3383503,46.1449013,22.5403748,50,22.5403748s7.7294502-0.2020245,11.5580978-0.6592369   c3.1845016-0.3802567,6.4160233-0.9388981,9.5049057-1.8111172c1.4664459-0.4140415,3.7155457-1.1262627,5.6519089-2.2000732   c-2.1068344,5.3686218-5.9404984,9.2015018-11.0620804,12.1748486c-4.7605171,2.7636871-9.9951134,4.4596252-15.1402016,6.3341522   c-3.7608452,1.3701363-9.0208817,3.2871742-11.4806595,6.6028824l-0.2251816,0.3035583l-0.0013199,0.3778954   c-0.0188942,5.5368614,0.6934013,10.9377441,2.328289,16.2341805   C42.7195435,65.0346603,45.0828857,69.7891998,47.9342308,74.2943268z"></path><path fill-rule="evenodd" clip-rule="evenodd" fill="#000000" d="M78.3041992,16.8346901   c-6.2909088,19.5333252-32.1381721,18.461544-38.3483429,26.8325539C39.8895531,63.089016,48.8488312,76.5422134,66.2837372,95   c2.2826843-15.6749802,8.5222015-18.870842,12.326828-28.7627792V16.5857944   C78.5111389,16.6702557,78.4089737,16.7532463,78.3041992,16.8346901z"></path><path fill-rule="evenodd" clip-rule="evenodd" fill="#000000" d="M50,5c15.8010864,0,28.6105652,3.6167545,28.6105652,8.0782566   c0,4.4614773-12.8094788,8.0782318-28.6105652,8.0782318s-28.6105671-3.6167545-28.6105671-8.0782318   C21.3894329,8.6167545,34.1989136,5,50,5L50,5z M50,9.4258404c-7.1441498,0-12.9356651,1.6352425-12.9356651,3.6524162   c0,2.017149,5.7915154,3.6524162,12.9356651,3.6524162c7.1441269,0,12.9356651-1.6352673,12.9356651-3.6524162   C62.9356651,11.0610828,57.1441269,9.4258404,50,9.4258404z"></path></g></svg>