<svg xmlns="http://www.w3.org/2000/svg" viewBox="0 0 68 56" x="0px" y="0px"><path fill="#000000" fill-rule="evenodd" d="M536,438.617787 L536,469.5 C536,475.307997 544.919146,479 556.5,479 C568.080854,479 577,475.307997 577,469.5 L577,438.617787 C574.281619,442.596691 566.299388,445 556.5,445 C546.700612,445 538.718381,442.596691 536,438.617787 L536,438.617787 Z M556.5,442 C568.080854,442 577,438.307997 577,432.5 C577,426.692003 568.080854,423 556.5,423 C544.919146,423 536,426.692003 536,432.5 C536,438.307997 544.919146,442 556.5,442 Z M557.5,434.5 C553.910149,434.5 551,433.604569 551,432.5 C551,431.395431 553.910149,430.5 557.5,430.5 C561.089851,430.5 564,431.395431 564,432.5 C564,433.604569 561.089851,434.5 557.5,434.5 Z M580,467 L602,467 C603.104569,467 604,466.104569 604,465 L604,429 C604,427.895431 603.104569,427 602,427 L577.882041,427 C579.242375,428.294248 580,429.807254 580,431.5 C580,431.604833 579.997094,431.708977 579.991319,431.812422 C579.997063,431.874176 580,431.936745 580,432 L580,467 Z" transform="translate(-536 -423)"></path></svg>