<svg xmlns="http://www.w3.org/2000/svg" xmlns:xlink="http://www.w3.org/1999/xlink" version="1.1" x="0px" y="0px" viewBox="0 0 100 100" enable-background="new 0 0 100 100" xml:space="preserve"><path d="M38.087,12.234c-19.941,0-33.336,4.684-33.336,9.059s14.271,9.059,33.336,9.059c19.941,0,33.336-4.684,33.336-9.059  S58.027,12.234,38.087,12.234z M38.087,23.372c-0.087,0-8.706-0.089-8.706-2.08c0-1.991,8.619-2.081,8.706-2.081  c0.087,0,8.706,0.089,8.706,2.081C46.793,23.283,38.174,23.372,38.087,23.372z M19.368,29.758v1.325c0,0.288-0.233,0.52-0.52,0.52  s-0.52-0.233-0.52-0.52v-1.499c0-0.012,0.006-0.022,0.007-0.033c-6.791-1.409-11.283-3.477-13.538-5.645v50.886  c0-0.005,0-0.005,0,0.007c0,3.02,5.204,6.712,13.531,8.883v-1.597c0-0.288,0.233-0.52,0.52-0.52s0.52,0.233,0.52,0.52v1.861  c5.204,1.301,11.738,2.129,18.851,2.129c18.446,0,33.192-5.446,33.192-11.127c0-0.054,0-50.834,0-50.834  c-4.163,4.248-17.13,7.278-33.058,7.278C31.281,31.392,24.573,30.793,19.368,29.758z M19.368,77.922c0,0.288-0.233,0.52-0.52,0.52  s-0.52-0.233-0.52-0.52v-4.163c0-0.288,0.233-0.52,0.52-0.52s0.52,0.233,0.52,0.52V77.922z M19.368,68.554  c0,0.288-0.233,0.52-0.52,0.52s-0.52-0.233-0.52-0.52v-4.163c0-0.288,0.233-0.52,0.52-0.52s0.52,0.233,0.52,0.52V68.554z   M19.368,59.186c0,0.288-0.233,0.52-0.52,0.52s-0.52-0.233-0.52-0.52v-4.163c0-0.288,0.233-0.52,0.52-0.52s0.52,0.233,0.52,0.52  V59.186z M19.368,49.819c0,0.288-0.233,0.52-0.52,0.52s-0.52-0.233-0.52-0.52v-4.163c0-0.288,0.233-0.52,0.52-0.52  s0.52,0.233,0.52,0.52V49.819z M19.368,40.451c0,0.288-0.233,0.52-0.52,0.52s-0.52-0.233-0.52-0.52v-4.163  c0-0.288,0.233-0.52,0.52-0.52s0.52,0.233,0.52,0.52V40.451z M92.551,78.84c0-2.356,0.554-3.548,1.09-4.702  c0.51-1.099,0.992-2.137,0.992-4.264c0-2.124-0.482-3.162-0.992-4.26c-0.536-1.153-1.09-2.344-1.09-4.699  c0-2.356,0.558-3.547,1.094-4.701c0.51-1.099,0.996-2.137,0.996-4.262c0-2.124-0.473-3.162-0.984-4.26  c-0.536-1.153-1.073-2.344-1.073-4.699c0-2.354,0.587-3.545,1.123-4.698c0.467-1.004,0.971-1.967,1.044-3.747  c-10.81-0.134-20.217-4.306-22.298-9.907v50.159c0,6.554,10.288,12.311,22.298,12.478c-0.074-1.773-0.645-2.734-1.11-3.736  C93.105,82.388,92.551,81.196,92.551,78.84z"></path></svg>