<svg xmlns="http://www.w3.org/2000/svg" xmlns:xlink="http://www.w3.org/1999/xlink" version="1.1" x="0px" y="0px" viewBox="0 0 100 100" enable-background="new 0 0 100 100" xml:space="preserve"><g><path d="M72.52,30.332c5.943,0,10.807,4.863,10.807,10.807v10.715c0,5.943,0,15.67,0,21.613c0,0,0,13.361-33.326,13.361   c-33.326,0-33.326-13.361-33.326-13.361c0-5.943,0-15.67,0-21.613V41.139c0-5.944,4.863-10.807,10.807-10.807H72.52z"></path></g><path d="M83.322,29.622c0,0,0,6.352-33.322,6.352c-33.322,0-33.322-6.352-33.322-6.352v-8.793c0,0,0,6.351,33.322,6.351  c33.322,0,33.322-6.351,33.322-6.351V29.622z"></path><ellipse cx="50" cy="18.826" rx="33.322" ry="6.627"></ellipse></svg>