<svg xmlns="http://www.w3.org/2000/svg" xmlns:xlink="http://www.w3.org/1999/xlink" version="1.1" x="0px" y="0px" viewBox="0 0 1000 1000" enable-background="new 0 0 1000 1000" xml:space="preserve"><g><rect x="249.183" y="-108.113" fill="#000000" width="58.226" height="58.226"></rect><rect x="249.183" y="-179.446" fill="#000000" width="58.226" height="58.226"></rect><rect x="324.044" y="-108.113" fill="#000000" width="58.226" height="58.226"></rect><rect x="324.044" y="-179.446" fill="#000000" width="58.226" height="58.226"></rect><rect x="398.02" y="-108.113" fill="#000000" width="58.226" height="58.226"></rect><rect x="545.849" y="-108.113" fill="#000000" width="58.227" height="58.226"></rect><rect x="470.17" y="-108.113" fill="#000000" width="58.225" height="58.226"></rect><rect x="765.86" y="-107.59" fill="#000000" width="58.227" height="58.226"></rect><rect x="693.423" y="-108.113" fill="#000000" width="58.227" height="58.226"></rect><rect x="838.753" y="-108.113" fill="#000000" width="58.225" height="58.226"></rect><rect x="621.232" y="-108.113" transform="matrix(1 0.003 -0.003 1 -0.2336 -1.9473)" fill="#000000" width="58.227" height="58.225"></rect><rect x="176.808" y="-108.113" fill="#000000" width="58.226" height="58.226"></rect></g><g display="none"><path display="inline" d="M500,111.216c25.503,0,39.91,2.767,39.91,2.767c0.008-8.147,0.493-11.845-6.563-13.042   C521.774,98.982,510.154,99,500,99c-10.155,0-21.774-0.018-33.346,1.941c-7.057,1.197-6.572,4.895-6.567,13.042   C460.087,113.983,473.92,111.216,500,111.216z"></path><path display="inline" d="M500,138.894c18.993,0,34.872,2.593,38.323,3.098c4.571,0.67,6.226-0.836,6.226-3.677   c0-2.03,0-9.251,0-9.251c0-4.232-2.039-5.45-4.839-5.797c-2.804-0.348-17.022-2.609-39.71-2.609c-20.61,0-36.907,2.261-39.71,2.609   c-2.8,0.347-4.838,1.565-4.838,5.797c0,0,0,7.222,0,9.251c0,2.841,1.655,4.347,6.225,3.677   C465.128,141.487,483.21,138.894,500,138.894z"></path><path display="inline" d="M500,239.202c23.779,0,39.92,2.467,39.92,2.467v-90.346c0,0-17.616-3.513-39.92-3.513   c-20.704,0-39.923,3.513-39.923,3.513v90.346C460.077,241.668,474.165,239.202,500,239.202z"></path><path display="inline" d="M500,249.145c21.975,0,40.896,3.288,40.896,3.288s0,12.009,0,29.966   c0,43.806,61.889,49.625,61.889,137.962c0,0-55.858-1.792-102.784-1.792s-102.784,1.792-102.784,1.792   c0-88.337,62.861-94.013,62.861-137.962c0-18.236,0-29.966,0-29.966S478.025,249.145,500,249.145z"></path><path display="inline" d="M500,430.392c31.907,0,105,1.479,105,1.479v196.62c0,0-35.092,5.071-105,5.071   c-69.911,0-105-5.071-105-5.071v-196.62C395,431.871,468.093,430.392,500,430.392z"></path><path display="inline" d="M500,645.764c47.256,0,102.454-5.083,102.454-5.083s0.986,199.993,0.986,212.25   c0,5.362,0.232,24.361-4.926,31.089c-9.799,12.78-57.701,13.979-98.515,13.979c-40.814,0-88.716-1.199-98.517-13.979   c-5.156-6.728-4.923-25.727-4.923-31.089c0-12.257,0.985-212.25,0.985-212.25S452.745,645.764,500,645.764z"></path></g><g display="none"><path display="inline" d="M500.001,112.719c25.506,0,39.912,2.766,39.912,2.766c0.005-8.146,0.491-11.846-6.566-13.042   c-11.569-1.96-23.188-1.942-33.346-1.942c-10.153,0-21.772-0.018-33.346,1.942c-7.058,1.196-6.573,4.896-6.565,13.042   C460.09,115.485,473.921,112.719,500.001,112.719z"></path><path display="inline" d="M500.001,140.147c18.364,0,33.717,2.506,37.056,2.996c4.417,0.647,6.018-0.81,6.018-3.556   c0-1.961,0-13.471,0-13.471c0-4.092-1.973-5.27-4.681-5.605c-2.709-0.336-16.459-2.522-38.393-2.522   c-19.924,0-35.684,2.186-38.393,2.522c-2.71,0.335-4.678,1.513-4.678,5.605c0,0,0,11.51,0,13.471c0,2.747,1.6,4.204,6.02,3.556   C466.286,142.653,483.771,140.147,500.001,140.147z"></path><path display="inline" d="M500.001,240.704c23.782,0,39.923,2.466,39.923,2.466v-94.54c0,0-17.616-3.513-39.923-3.513   c-20.702,0-39.92,3.513-39.92,3.513v94.54C460.081,243.169,474.168,240.704,500.001,240.704z"></path><path display="inline" d="M500.001,245.188c21.975,0,39.923,3.288,39.923,3.288s1.381,17.191,0.976,35.423   c-0.976,43.795,61.887,49.625,61.887,137.962c0,0-55.859-1.793-102.785-1.793c-46.927,0-102.781,1.793-102.781,1.793   c0-88.337,62.861-94.167,61.888-137.962c-0.407-18.232,0.973-35.423,0.973-35.423S478.026,245.188,500.001,245.188z"></path><path display="inline" d="M500.001,425.675c31.909,0,104.999,1.568,104.999,1.568v208.661c0,0-35.09,5.379-104.999,5.379   s-105-5.379-105-5.379V427.244C395,427.244,468.097,425.675,500.001,425.675z"></path><path display="inline" d="M500.001,647.264c47.257,0,102.454-5.082,102.454-5.082s0.985,199.992,0.985,212.248   c0,5.363,0.232,24.361-4.923,31.09c-9.802,12.779-57.702,13.98-98.517,13.98c-40.815,0-88.713-1.201-98.515-13.98   c-5.158-6.729-4.925-25.727-4.925-31.09c0-12.256,0.986-212.248,0.986-212.248S452.749,647.264,500.001,647.264z"></path></g><g display="none"><path display="inline" fill="#000000" d="M540.523,118.481c0.024-8.056,0.34-15.321-6.667-16.509   C522.107,99.981,510.311,100,500,100c-10.31,0-22.107-0.019-33.857,1.972c-7.008,1.188-6.69,8.453-6.668,16.509   c-2.735,0.388-4.705,1.664-4.705,5.855c0,0,0,11.141,0,13.2c0,2.519,1.281,4.004,4.696,3.887v91.696c0,0,14.303-2.504,40.534-2.504   c24.144,0,40.532,2.504,40.532,2.504v-91.696c3.417,0.118,4.698-1.368,4.698-3.887c0-2.059,0-13.2,0-13.2   C545.23,120.144,543.258,118.868,540.523,118.481z"></path><path display="inline" fill="#000000" d="M500,240.71c22.311,0,41.522,3.339,41.522,3.339s0,12.191,0,30.423   c0,44.476,62.834,50.385,62.834,140.075c0,0-56.712-1.82-104.356-1.82c-47.644,0-104.357,1.82-104.357,1.82   c0-89.69,63.823-95.452,63.823-140.075c0-18.515,0-30.423,0-30.423S477.689,240.71,500,240.71z"></path><path display="inline" fill="#000000" d="M500,424.733c32.396,0,106.607,1.501,106.607,1.501v199.631   c0,0-35.63,5.149-106.607,5.149c-70.981,0-106.607-5.149-106.607-5.149V426.234C393.393,426.234,467.604,424.733,500,424.733z"></path><path display="inline" fill="#000000" d="M500,643.401c47.979,0,104.023-5.16,104.023-5.16s0.999,203.055,0.999,215.5   c0,5.443,0.237,24.733-5,31.565c-9.948,12.976-58.585,14.192-100.022,14.192c-41.439,0-90.074-1.217-100.025-14.192   c-5.234-6.832-4.998-26.122-4.998-31.565c0-12.445,1-215.5,1-215.5S452.022,643.401,500,643.401z"></path></g><g display="none"><path display="inline" d="M540.523,118.481c0.024-8.056,0.34-15.321-6.667-16.509C522.107,99.981,510.311,100,500,100   c-10.31,0-22.107-0.019-33.857,1.972c-7.008,1.188-6.69,8.453-6.668,16.509c-2.735,0.388-4.705,1.664-4.705,5.855   c0,0,0,11.141,0,13.2c0,2.519,1.281,4.004,4.696,3.887v91.696c0,0,14.303-2.504,40.534-2.504c24.144,0,40.532,2.504,40.532,2.504   v-91.696c3.417,0.118,4.698-1.368,4.698-3.887c0-2.059,0-13.2,0-13.2C545.23,120.144,543.258,118.868,540.523,118.481z"></path><path display="inline" d="M500,240.71c22.311,0,41.522,3.339,41.522,3.339s0,12.191,0,30.423   c0,44.476,62.834,50.385,62.834,140.075c0,0-56.712-1.82-104.356-1.82c-47.644,0-104.357,1.82-104.357,1.82   c0-89.69,63.823-95.452,63.823-140.075c0-18.515,0-30.423,0-30.423S477.689,240.71,500,240.71z"></path><path display="inline" d="M500,424.733c32.396,0,106.607,1.501,106.607,1.501v199.631c0,0-35.63,5.149-106.607,5.149   c-70.981,0-106.607-5.149-106.607-5.149V426.234C393.393,426.234,467.604,424.733,500,424.733z"></path><path display="inline" d="M500,643.401c47.979,0,104.023-5.16,104.023-5.16s0.999,203.055,0.999,215.5   c0,5.443,0.237,24.733-5,31.565c-9.948,12.976-58.585,14.192-100.022,14.192c-41.439,0-90.074-1.217-100.025-14.192   c-5.234-6.832-4.998-26.122-4.998-31.565c0-12.445,1-215.5,1-215.5S452.022,643.401,500,643.401z"></path></g><g display="none"><path display="inline" fill="#000000" d="M518.304,576.123C582.3,515.805,743.06,446.624,804.991,418.294   c61.933-28.332,70.153-79.392,66.858-95.205c-3.296-15.812-10.523-52.709-51.044-63.579   c-204.651-54.901-462.76,170.56-487.948,202.063"></path><path display="inline" fill="#000000" d="M869.23,250.936c-1.168,27.987,33.933,12.199,31.297,28.011   c-2.636,15.812-20.096,19.766-29.648,10.542c-9.554-9.223-22.565,31.295-28.99,10.871c-5.773-18.359-30.308-26.683-22.73-46.449   c7.578-19.766,14.167-31.625,21.413-14.495C847.818,256.546,869.828,236.621,869.23,250.936z"></path><path display="inline" fill="#000000" d="M827.888,268.899c-2.761,11.353,14.001,5.107,20.756,26.849   c6.752,21.742,38.86,40.025,37.718,26.683c-0.758-8.841-8.979-15.833-8.236-19.93c1.211-6.69,11.145-8.152,3.789-15.812   c-11.859-12.354-25.86-4.447-19.436-17.789C868.901,255.557,832.337,250.616,827.888,268.899z"></path><ellipse transform="matrix(0.8516 0.5243 -0.5243 0.8516 334.5168 -146.8309)" display="inline" fill="#000000" cx="426.546" cy="517.304" rx="109.05" ry="55.698"></ellipse><ellipse transform="matrix(0.8516 0.5243 -0.5243 0.8516 334.5168 -146.8309)" display="inline" fill="#000000" cx="426.546" cy="517.304" rx="109.05" ry="55.698"></ellipse><ellipse display="inline" fill="#000000" cx="208.869" cy="712.139" rx="109.04" ry="60.275"></ellipse><ellipse display="inline" fill="#000000" cx="208.869" cy="703.576" rx="109.04" ry="60.275"></ellipse><ellipse transform="matrix(0.8543 0.5198 -0.5198 0.8543 303.4869 -126.0604)" display="inline" fill="#000000" cx="376.567" cy="478.225" rx="11.861" ry="8.321"></ellipse><path display="inline" fill="#000000" d="M431.253,535.129c-2.388,3.922-8.861,4.346-14.457,0.941   c-5.595-3.404-8.195-9.348-5.807-13.275c2.39-3.926,8.862-4.346,14.458-0.941C431.043,525.258,433.642,531.201,431.253,535.129z"></path><ellipse transform="matrix(0.8543 0.5199 -0.5199 0.8543 351.4171 -176.715)" display="inline" fill="#000000" cx="490.868" cy="538.371" rx="11.861" ry="8.322"></ellipse><ellipse transform="matrix(0.8543 0.5198 -0.5198 0.8543 315.2726 -114.22)" display="inline" fill="#000000" cx="361.363" cy="505.22" rx="6.931" ry="4.862"></ellipse><ellipse transform="matrix(0.8542 0.52 -0.52 0.8542 355.1035 -143.2758)" display="inline" fill="#000000" cx="432.985" cy="561.442" rx="6.932" ry="4.862"></ellipse><ellipse transform="matrix(0.8542 0.5199 -0.5199 0.8542 312.954 -149.7487)" display="inline" fill="#000000" cx="423.511" cy="483.191" rx="6.931" ry="4.862"></ellipse><ellipse transform="matrix(0.8542 0.5199 -0.5199 0.8542 362.6165 -162.8604)" display="inline" fill="#000000" cx="471.703" cy="565.148" rx="6.931" ry="4.863"></ellipse><ellipse transform="matrix(-0.9999 -0.017 0.017 -0.9999 458.7438 1478.5757)" display="inline" fill="#000000" cx="235.673" cy="737.333" rx="11.86" ry="8.322"></ellipse><ellipse transform="matrix(-0.9999 -0.017 0.017 -0.9999 475.7762 1106.1829)" display="inline" fill="#000000" cx="242.603" cy="551.063" rx="6.931" ry="4.861"></ellipse><ellipse transform="matrix(-0.9999 -0.017 0.017 -0.9999 369.5529 1375.6498)" display="inline" fill="#000000" cx="190.61" cy="686.258" rx="11.861" ry="8.32"></ellipse><path display="inline" fill="#000000" d="M113.807,713.174c0.079-4.592,5.451-8.229,12-8.117c6.55,0.111,11.796,3.926,11.718,8.521   s-5.452,8.229-12.001,8.117C118.974,721.584,113.729,717.77,113.807,713.174z"></path><ellipse transform="matrix(-0.9999 -0.0169 0.0169 -0.9999 412.9921 1428.7848)" display="inline" fill="#000000" cx="212.536" cy="712.646" rx="6.931" ry="4.86"></ellipse><ellipse transform="matrix(-0.9999 -0.017 0.017 -0.9999 540.1633 1431.353)" display="inline" fill="#000000" cx="276.183" cy="713.374" rx="6.931" ry="4.861"></ellipse><ellipse transform="matrix(-0.9999 -0.0171 0.0171 -0.9999 342.045 1460.9377)" display="inline" fill="#000000" cx="177.25" cy="729.011" rx="6.93" ry="4.863"></ellipse><ellipse display="inline" fill="#000000" cx="250.871" cy="636.061" rx="109.04" ry="60.275"></ellipse><ellipse display="inline" fill="#000000" cx="250.871" cy="627.498" rx="109.04" ry="60.275"></ellipse><ellipse transform="matrix(-0.9999 -0.017 0.017 -0.9999 503.6137 1310.7939)" display="inline" fill="#000000" cx="257.392" cy="653.251" rx="11.861" ry="8.319"></ellipse><ellipse transform="matrix(-0.9999 -0.017 0.017 -0.9999 627.2523 1302.1226)" display="inline" fill="#000000" cx="319.176" cy="648.388" rx="6.931" ry="4.861"></ellipse><ellipse transform="matrix(-0.9999 -0.0169 0.0169 -0.9999 376.2925 1308.0215)" display="inline" fill="#000000" cx="193.676" cy="652.42" rx="6.93" ry="4.864"></ellipse><path display="inline" fill="#000000" d="M376.217,591.588c0,33.289-48.819,60.277-109.04,60.277   c-60.221,0-109.04-26.988-109.04-60.277c0-33.287,48.819-60.275,109.04-60.275C327.398,531.312,376.217,558.301,376.217,591.588z"></path><ellipse display="inline" fill="#000000" cx="267.177" cy="583.027" rx="109.04" ry="60.273"></ellipse><ellipse transform="matrix(-0.9999 -0.017 0.017 -0.9999 656.4928 1194.3389)" display="inline" fill="#000000" cx="333.336" cy="594.372" rx="11.861" ry="8.321"></ellipse><ellipse transform="matrix(-0.9999 -0.017 0.017 -0.9999 528.6981 1150.7068)" display="inline" fill="#000000" cx="269.252" cy="573.101" rx="11.861" ry="8.321"></ellipse><path display="inline" fill="#000000" d="M192.45,600.016c0.079-4.592,5.45-8.229,12-8.117c6.55,0.111,11.796,3.928,11.718,8.521   c-0.078,4.596-5.452,8.23-12.001,8.119C197.618,608.426,192.372,604.613,192.45,600.016z"></path><ellipse transform="matrix(-0.9999 -0.0169 0.0169 -0.9999 656.0618 1132.3397)" display="inline" fill="#000000" cx="332.818" cy="563.396" rx="6.931" ry="4.862"></ellipse><path display="inline" fill="#000000" d="M283.385,613.688c0.046-2.686,3.185-4.809,7.012-4.742   c3.827,0.062,6.893,2.295,6.848,4.977c-0.046,2.688-3.186,4.811-7.013,4.746C286.405,618.604,283.339,616.371,283.385,613.688z"></path><ellipse transform="matrix(-0.9999 -0.0169 0.0169 -0.9999 405.0108 1138.2798)" display="inline" fill="#000000" cx="207.317" cy="567.428" rx="6.931" ry="4.864"></ellipse></g><g display="none"><path display="inline" fill="#000000" d="M203.793,751.102c-54.934,0-99.911-23.553-103.699-53.387   c-0.171,1.349-0.264,2.71-0.264,4.082c0,31.739,46.546,57.469,103.963,57.469c57.417,0,103.963-25.729,103.963-57.469   c0-1.372-0.093-2.733-0.265-4.082C303.703,727.549,258.727,751.102,203.793,751.102z"></path><path display="inline" fill="#000000" d="M430.608,479.952c-43.588-26.836-90.038-30.542-103.744-8.28   c-13.707,22.263,10.52,62.065,54.109,88.903c43.59,26.836,90.04,30.542,103.745,8.279   C498.423,546.593,474.199,506.789,430.608,479.952z M355.422,513.054c-1.188,1.948-4.402,2.159-7.181,0.468   c-2.779-1.691-4.071-4.643-2.884-6.592c1.186-1.951,4.401-2.16,7.181-0.468C355.317,508.152,356.608,511.104,355.422,513.054z    M371.923,492.288c-2.03,3.338-7.532,3.695-12.288,0.802c-4.756-2.895-6.966-7.946-4.935-11.282c2.03-3.336,7.532-3.694,12.288-0.8   C371.744,483.902,373.954,488.953,371.923,492.288z M398.18,488.206c1.187-1.95,4.402-2.159,7.181-0.467   c2.779,1.69,4.07,4.643,2.884,6.592c-1.187,1.949-4.402,2.159-7.181,0.468C398.285,493.108,396.994,490.156,398.18,488.206z    M397.504,536.212c-4.755-2.892-6.965-7.944-4.936-11.283c2.031-3.337,7.532-3.692,12.289-0.8   c4.756,2.894,6.965,7.946,4.935,11.283C407.762,538.745,402.261,539.105,397.504,536.212z M416.296,560.84   c-1.187,1.949-4.4,2.158-7.181,0.468c-2.779-1.69-4.07-4.642-2.884-6.594c1.187-1.949,4.401-2.158,7.181-0.469   C416.191,555.938,417.483,558.889,416.296,560.84z M449.204,563.99c-1.188,1.948-4.4,2.159-7.18,0.467   c-2.779-1.69-4.07-4.643-2.884-6.593c1.186-1.948,4.4-2.158,7.181-0.468C449.1,559.087,450.391,562.039,449.204,563.99z    M469.072,543.409c-2.031,3.335-7.532,3.694-12.289,0.802c-4.755-2.896-6.965-7.947-4.935-11.284s7.533-3.694,12.289-0.801   C468.894,535.021,471.103,540.072,469.072,543.409z"></path><ellipse transform="matrix(-0.9999 -0.0171 0.0171 -0.9999 462.5196 1100.3899)" display="inline" fill="#000000" cx="235.956" cy="548.221" rx="6.608" ry="4.635"></ellipse><path display="inline" fill="#000000" d="M243.839,678.566c-54.934,0-99.911-23.554-103.699-53.388   c-0.171,1.349-0.264,2.71-0.264,4.082c0,31.739,46.546,57.469,103.963,57.469c57.417,0,103.962-25.729,103.962-57.469   c0-1.372-0.093-2.733-0.264-4.082C343.749,655.013,298.773,678.566,243.839,678.566z"></path><path display="inline" fill="#000000" d="M243.839,686.729c-17.225,0-33.468-2.317-47.772-6.416   c-1.941,1.695-5.076,2.774-8.602,2.719c-5.812-0.092-10.467-3.216-10.397-6.981c0.016-0.851,0.282-1.658,0.735-2.402   c-13.501-6.145-24.151-14.136-30.684-23.273c-24.28,8.975-40.079,23.561-40.079,40.031c0,27.279,43.318,49.394,96.753,49.394   c53.435,0,96.752-22.114,96.752-49.394c0-4.129-0.999-8.139-2.869-11.974C281.973,683.698,263.547,686.729,243.839,686.729z    M129.838,705.255c-5.811-0.091-10.465-3.218-10.396-6.983c0.07-3.764,4.836-6.742,10.647-6.651s10.467,3.217,10.398,6.983   C140.419,702.369,135.65,705.346,129.838,705.255z M175.663,715.232c-3.396-0.052-6.116-1.879-6.075-4.08   c0.041-2.2,2.826-3.94,6.222-3.887c3.396,0.054,6.117,1.881,6.076,4.08C181.845,713.545,179.059,715.286,175.663,715.232z    M206.973,701.824c-3.396-0.054-6.116-1.879-6.076-4.08c0.042-2.201,2.827-3.94,6.223-3.887c3.396,0.053,6.116,1.88,6.076,4.078   C213.155,700.137,210.368,701.876,206.973,701.824z M227.451,724.886c-5.812-0.093-10.467-3.219-10.397-6.981   c0.069-3.766,4.836-6.744,10.648-6.654c5.811,0.094,10.467,3.221,10.396,6.984C238.029,721.999,233.262,724.978,227.451,724.886z    M263.448,702.42c-3.396-0.051-6.117-1.881-6.076-4.081c0.041-2.201,2.827-3.938,6.222-3.887c3.396,0.054,6.117,1.881,6.076,4.08   C269.63,700.733,266.843,702.475,263.448,702.42z"></path><path display="inline" fill="#000000" d="M259.386,636.164c-54.935,0-99.912-23.554-103.699-53.387   c-0.171,1.349-0.264,2.709-0.264,4.081c0,31.739,46.546,57.472,103.963,57.472c57.417,0,103.963-25.732,103.963-57.472   c0-1.372-0.093-2.732-0.264-4.081C359.297,612.61,314.32,636.164,259.386,636.164z"></path><path display="inline" fill="#000000" d="M295.951,640.671c0.937,0.72,1.5,1.655,1.482,2.673c-0.04,2.207-2.782,3.95-6.124,3.9   c-3.342-0.055-6.019-1.888-5.98-4.094c0.004-0.219,0.042-0.431,0.097-0.639c-8.322,1.187-17.047,1.818-26.04,1.818   c-2.008,0-4.002-0.035-5.982-0.098c0.524,0.837,0.808,1.752,0.791,2.709c-0.068,3.777-4.761,6.764-10.48,6.671   c-5.719-0.091-10.3-3.227-10.231-7.002c0.025-1.431,0.717-2.747,1.875-3.826c-39.402-5.154-70.13-22.703-77.977-44.789   c-5.619,6.319-8.76,13.356-8.76,20.776c0,27.358,42.631,49.538,95.219,49.538c49.099,0,89.512-19.336,94.659-44.168   C327.176,631.476,312.577,637.216,295.951,640.671z M193.821,643.247c-3.342-0.052-6.019-1.883-5.979-4.09   c0.04-2.207,2.781-3.954,6.124-3.901c3.341,0.057,6.019,1.887,5.979,4.094C199.906,641.557,197.164,643.303,193.821,643.247z"></path><path display="inline" fill="#000000" d="M259.386,525.279c-52.4,0-94.878,22.697-94.878,50.693   c0,27.993,42.478,50.689,94.878,50.689c52.399,0,94.877-22.696,94.877-50.689C354.264,547.977,311.786,525.279,259.386,525.279z    M316.573,555.375c3.33,0.054,5.998,1.929,5.958,4.187c-0.039,2.258-2.771,4.043-6.101,3.989c-3.33-0.053-5.998-1.93-5.959-4.186   C310.511,557.104,313.243,555.319,316.573,555.375z M207.373,558.762c3.33,0.057,5.998,1.934,5.958,4.19   c-0.039,2.258-2.771,4.043-6.102,3.987c-3.33-0.052-5.997-1.927-5.958-4.185C201.311,560.496,204.042,558.709,207.373,558.762z    M204.559,597.428c-5.698-0.096-10.263-3.302-10.195-7.169c0.069-3.861,4.743-6.92,10.441-6.825   c5.699,0.093,10.263,3.303,10.196,7.165C214.933,594.464,210.257,597.521,204.559,597.428z M261.068,574.619   c-5.699-0.093-10.264-3.302-10.196-7.165c0.069-3.863,4.743-6.921,10.442-6.827c5.698,0.094,10.264,3.302,10.197,7.167   C271.442,571.657,266.767,574.713,261.068,574.619z M279.446,605.946c-3.33-0.054-5.997-1.933-5.958-4.189   c0.04-2.259,2.771-4.043,6.102-3.987c3.33,0.052,5.998,1.93,5.958,4.186C285.508,604.215,282.776,606,279.446,605.946z    M316.829,592.509c-5.7-0.093-10.264-3.3-10.196-7.166c0.068-3.863,4.743-6.919,10.442-6.827   c5.699,0.097,10.264,3.303,10.196,7.168C327.202,589.547,322.527,592.604,316.829,592.509z"></path><path display="inline" fill="#000000" stroke="#FFFFFF" stroke-width="8.581" stroke-miterlimit="10" d="M854.437,249.2   c-1.489,35.692,43.273,15.557,39.912,35.722c-3.361,20.166-25.628,25.207-37.81,13.444c-12.184-11.762-28.777,39.91-36.972,13.864   c-7.362-23.414-42.124-35.699-32.461-60.906c3.917-10.216,15.987-51.786,30.781-16.814   C827.13,256.355,855.199,230.944,854.437,249.2z"></path><path display="inline" fill="#000000" stroke="#FFFFFF" stroke-width="8.581" stroke-miterlimit="10" d="M801.089,310.537   c2.902,14.616,18.938-1.609,38.425,19.914c19.482,21.526,66.441,25.436,57.956,10.615c-5.623-9.82-18.887-13.494-20.228-18.632   c-2.191-8.389,8.515-15.413-4.107-20.325c-20.351-7.923-13.616-29.207-31.498-23.136   C817.299,287.235,794.637,278.003,801.089,310.537z"></path><g display="inline"><g><polygon fill="#000000" points="322.009,462.896 322.008,462.898 322.008,462.898    "></polygon><path fill="#000000" d="M322.009,462.896c0,0.001,0,0.001-0.001,0.002l0,0C322.008,462.897,322.009,462.896,322.009,462.896      M350.649,422.453l-35.216,33.539l-0.769,0.732l-0.066,0.099l-42.192,42.193l53.948-27.632l2.977-1.525l1.373-3.052     L350.649,422.453L350.649,422.453z"></path></g><g><path fill="#000000" d="M492.018,573.392l3.042-4.25c0.257-0.359,0.519-0.717,0.752-1.096     c6.451-10.479,4.228-25.735-6.258-42.965c-11.08-18.205-29.86-36.036-52.879-50.208c-25.688-15.815-53.286-24.885-75.717-24.885     c-10.879,0-20.035,2.212-26.479,6.396l-5.936-7.4c22.433-22.022,79.717-70.634,152.127-113.141     c39.902-23.424,79.089-41.934,116.473-55.016c44.615-15.612,86.873-23.528,125.602-23.528c22.989,0,45.104,2.806,65.73,8.339     c41.018,11.003,48.705,47.943,51.987,63.717l0.111,0.534c1.96,9.407-0.056,26.679-8.977,44.06     c-7.877,15.345-24.238,36.826-57.452,52.021c-5.771,2.64-12.44,5.651-19.835,8.99c-69.106,31.2-197.739,89.276-252.219,140.625     l-2.72,2.564L492.018,573.392z"></path><path fill="#000000" d="M722.743,262.066c21.858,0,43.478,2.538,64.495,8.176c38.634,10.364,45.524,45.542,48.667,60.619     c3.142,15.077-4.696,63.759-63.745,90.772c-59.049,27.01-212.323,92.97-273.34,150.48l-0.018-0.012     c0.366-0.512,0.739-1.021,1.071-1.561c15.375-24.972-11.801-69.624-60.699-99.729c-27.417-16.879-55.829-25.593-78.217-25.593     c-11.654,0-21.68,2.363-29.075,7.166C378.799,406.327,557.878,262.066,722.743,262.066 M722.743,252.532     c-39.266,0-82.054,8.006-127.176,23.795c-37.676,13.184-77.145,31.824-117.312,55.404     c-72.81,42.743-130.464,91.675-153.053,113.851l11.872,14.8c5.669-3.682,13.928-5.628,23.882-5.628     c21.574,0,48.261,8.812,73.219,24.178c22.39,13.785,40.61,31.054,51.306,48.627c9.37,15.396,11.656,29.239,6.272,37.983     c-0.118,0.192-0.337,0.498-0.569,0.82l-0.136,0.189l-5.812,8.119l8.378,5.432l6.28,4.07l5.464-5.121     c53.899-50.802,182.06-108.664,250.911-139.75c7.55-3.408,14.07-6.352,19.855-8.999c34.457-15.763,51.489-38.163,59.71-54.179     c10.102-19.678,11.379-37.729,9.403-47.209l-0.111-0.533c-1.688-8.109-4.512-21.681-12.277-34.858     c-9.717-16.487-24.231-27.418-43.142-32.492C768.68,255.392,746.149,252.532,722.743,252.532L722.743,252.532z"></path></g></g></g><g display="none"><path display="inline" fill="#000000" d="M203.793,751.102c-54.934,0-99.911-23.553-103.699-53.387   c-0.171,1.349-0.264,2.71-0.264,4.082c0,31.739,46.546,57.469,103.963,57.469c57.417,0,103.963-25.729,103.963-57.469   c0-1.372-0.093-2.733-0.265-4.082C303.703,727.549,258.727,751.102,203.793,751.102z"></path><path display="inline" fill="#000000" d="M430.608,479.952c-43.588-26.836-90.038-30.542-103.744-8.28   c-13.707,22.263,10.52,62.065,54.109,88.903c43.59,26.836,90.04,30.542,103.745,8.279   C498.423,546.593,474.199,506.789,430.608,479.952z M355.422,513.054c-1.188,1.948-4.402,2.159-7.181,0.468   c-2.779-1.691-4.071-4.643-2.884-6.592c1.186-1.951,4.401-2.16,7.181-0.468C355.317,508.152,356.608,511.104,355.422,513.054z    M371.923,492.288c-2.03,3.338-7.532,3.695-12.288,0.802c-4.756-2.895-6.966-7.946-4.935-11.282c2.03-3.336,7.532-3.694,12.288-0.8   C371.744,483.902,373.954,488.953,371.923,492.288z M398.18,488.206c1.187-1.95,4.402-2.159,7.181-0.467   c2.779,1.69,4.07,4.643,2.884,6.592c-1.187,1.949-4.402,2.159-7.181,0.468C398.285,493.108,396.994,490.156,398.18,488.206z    M397.504,536.212c-4.755-2.892-6.965-7.944-4.936-11.283c2.031-3.337,7.532-3.692,12.289-0.8   c4.756,2.894,6.965,7.946,4.935,11.283C407.762,538.745,402.261,539.105,397.504,536.212z M416.296,560.84   c-1.187,1.949-4.4,2.158-7.181,0.468c-2.779-1.69-4.07-4.642-2.884-6.594c1.187-1.949,4.401-2.158,7.181-0.469   C416.191,555.938,417.483,558.889,416.296,560.84z M449.204,563.99c-1.188,1.948-4.4,2.159-7.18,0.467   c-2.779-1.69-4.07-4.643-2.884-6.593c1.186-1.948,4.4-2.158,7.181-0.468C449.1,559.087,450.391,562.039,449.204,563.99z    M469.072,543.409c-2.031,3.335-7.532,3.694-12.289,0.802c-4.755-2.896-6.965-7.947-4.935-11.284s7.533-3.694,12.289-0.801   C468.894,535.021,471.103,540.072,469.072,543.409z"></path><ellipse transform="matrix(-0.9999 -0.0171 0.0171 -0.9999 462.5196 1100.3899)" display="inline" fill="#000000" cx="235.956" cy="548.221" rx="6.608" ry="4.635"></ellipse><path display="inline" fill="#000000" d="M243.839,678.566c-54.934,0-99.911-23.554-103.699-53.388   c-0.171,1.349-0.264,2.71-0.264,4.082c0,31.739,46.546,57.469,103.963,57.469c57.417,0,103.962-25.729,103.962-57.469   c0-1.372-0.093-2.733-0.264-4.082C343.749,655.013,298.773,678.566,243.839,678.566z"></path><path display="inline" fill="#000000" d="M243.839,686.729c-17.225,0-33.468-2.317-47.772-6.416   c-1.941,1.695-5.076,2.774-8.602,2.719c-5.812-0.092-10.467-3.216-10.397-6.981c0.016-0.851,0.282-1.658,0.735-2.402   c-13.501-6.145-24.151-14.136-30.684-23.273c-24.28,8.975-40.079,23.561-40.079,40.031c0,27.279,43.318,49.394,96.753,49.394   c53.435,0,96.752-22.114,96.752-49.394c0-4.129-0.999-8.139-2.869-11.974C281.973,683.698,263.547,686.729,243.839,686.729z    M129.838,705.255c-5.811-0.091-10.465-3.218-10.396-6.983c0.07-3.764,4.836-6.742,10.647-6.651s10.467,3.217,10.398,6.983   C140.419,702.369,135.65,705.346,129.838,705.255z M175.663,715.232c-3.396-0.052-6.116-1.879-6.075-4.08   c0.041-2.2,2.826-3.94,6.222-3.887c3.396,0.054,6.117,1.881,6.076,4.08C181.845,713.545,179.059,715.286,175.663,715.232z    M206.973,701.824c-3.396-0.054-6.116-1.879-6.076-4.08c0.042-2.201,2.827-3.94,6.223-3.887c3.396,0.053,6.116,1.88,6.076,4.078   C213.155,700.137,210.368,701.876,206.973,701.824z M227.451,724.886c-5.812-0.093-10.467-3.219-10.397-6.981   c0.069-3.766,4.836-6.744,10.648-6.654c5.811,0.094,10.467,3.221,10.396,6.984C238.029,721.999,233.262,724.978,227.451,724.886z    M263.448,702.42c-3.396-0.051-6.117-1.881-6.076-4.081c0.041-2.201,2.827-3.938,6.222-3.887c3.396,0.054,6.117,1.881,6.076,4.08   C269.63,700.733,266.843,702.475,263.448,702.42z"></path><path display="inline" fill="#000000" d="M259.386,636.164c-54.935,0-99.912-23.554-103.699-53.387   c-0.171,1.349-0.264,2.709-0.264,4.081c0,31.739,46.546,57.472,103.963,57.472c57.417,0,103.963-25.732,103.963-57.472   c0-1.372-0.093-2.732-0.264-4.081C359.297,612.61,314.32,636.164,259.386,636.164z"></path><path display="inline" fill="#000000" d="M295.951,640.671c0.937,0.72,1.5,1.655,1.482,2.673c-0.04,2.207-2.782,3.95-6.124,3.9   c-3.342-0.055-6.019-1.888-5.98-4.094c0.004-0.219,0.042-0.431,0.097-0.639c-8.322,1.187-17.047,1.818-26.04,1.818   c-2.008,0-4.002-0.035-5.982-0.098c0.524,0.837,0.808,1.752,0.791,2.709c-0.068,3.777-4.761,6.764-10.48,6.671   c-5.719-0.091-10.3-3.227-10.231-7.002c0.025-1.431,0.717-2.747,1.875-3.826c-39.402-5.154-70.13-22.703-77.977-44.789   c-5.619,6.319-8.76,13.356-8.76,20.776c0,27.358,42.631,49.538,95.219,49.538c49.099,0,89.512-19.336,94.659-44.168   C327.176,631.476,312.577,637.216,295.951,640.671z M193.821,643.247c-3.342-0.052-6.019-1.883-5.979-4.09   c0.04-2.207,2.781-3.954,6.124-3.901c3.341,0.057,6.019,1.887,5.979,4.094C199.906,641.557,197.164,643.303,193.821,643.247z"></path><path display="inline" fill="#000000" d="M259.386,525.279c-52.4,0-94.878,22.697-94.878,50.693   c0,27.993,42.478,50.689,94.878,50.689c52.399,0,94.877-22.696,94.877-50.689C354.264,547.977,311.786,525.279,259.386,525.279z    M316.573,555.375c3.33,0.054,5.998,1.929,5.958,4.187c-0.039,2.258-2.771,4.043-6.101,3.989c-3.33-0.053-5.998-1.93-5.959-4.186   C310.511,557.104,313.243,555.319,316.573,555.375z M207.373,558.762c3.33,0.057,5.998,1.934,5.958,4.19   c-0.039,2.258-2.771,4.043-6.102,3.987c-3.33-0.052-5.997-1.927-5.958-4.185C201.311,560.496,204.042,558.709,207.373,558.762z    M204.559,597.428c-5.698-0.096-10.263-3.302-10.195-7.169c0.069-3.861,4.743-6.92,10.441-6.825   c5.699,0.093,10.263,3.303,10.196,7.165C214.933,594.464,210.257,597.521,204.559,597.428z M261.068,574.619   c-5.699-0.093-10.264-3.302-10.196-7.165c0.069-3.863,4.743-6.921,10.442-6.827c5.698,0.094,10.264,3.302,10.197,7.167   C271.442,571.657,266.767,574.713,261.068,574.619z M279.446,605.946c-3.33-0.054-5.997-1.933-5.958-4.189   c0.04-2.259,2.771-4.043,6.102-3.987c3.33,0.052,5.998,1.93,5.958,4.186C285.508,604.215,282.776,606,279.446,605.946z    M316.829,592.509c-5.7-0.093-10.264-3.3-10.196-7.166c0.068-3.863,4.743-6.919,10.442-6.827   c5.699,0.097,10.264,3.303,10.196,7.168C327.202,589.547,322.527,592.604,316.829,592.509z"></path><path display="inline" fill="#000000" stroke="#FFFFFF" stroke-width="10" stroke-miterlimit="10" d="M854.437,249.2   c-1.489,35.692,43.273,15.557,39.912,35.722c-3.361,20.166-25.628,25.207-37.81,13.444c-12.184-11.762-28.777,39.91-36.972,13.864   c-7.362-23.414-42.124-35.699-32.461-60.906c3.917-10.216,15.987-51.786,30.781-16.814   C827.13,256.355,855.199,230.944,854.437,249.2z"></path><path display="inline" fill="#000000" stroke="#FFFFFF" stroke-width="10" stroke-miterlimit="10" d="M801.089,310.537   c2.902,14.616,18.938-1.609,38.425,19.914c19.482,21.526,66.441,25.436,57.956,10.615c-5.623-9.82-18.887-13.494-20.228-18.632   c-2.191-8.389,8.515-15.413-4.107-20.325c-20.351-7.923-13.616-29.207-31.498-23.136   C817.299,287.235,794.637,278.003,801.089,310.537z"></path><g display="inline"><g><polygon fill="#000000" points="322.009,462.896 322.008,462.898 322.008,462.898    "></polygon><path fill="#000000" d="M322.009,462.896c0,0.001,0,0.001-0.001,0.002l0,0C322.008,462.897,322.009,462.896,322.009,462.896      M352.996,415.76l-38.158,40.166l-42.098,42.099l53.648-26.136l3.354-1.634l1.465-3.433L352.996,415.76L352.996,415.76z"></path></g><g><path fill="#000000" d="M491.686,573.455l3.184-4.449c0.254-0.354,0.513-0.708,0.743-1.082c6.403-10.4,4.18-25.571-6.258-42.722     c-11.062-18.174-29.814-35.978-52.803-50.131c-25.652-15.793-53.206-24.851-75.595-24.851c-10.833,0-19.946,2.199-26.353,6.359     l-6.226-7.761c22.44-22.03,79.743-70.657,152.172-113.176c39.914-23.432,79.115-41.948,116.514-55.035     c44.64-15.621,86.924-23.541,125.679-23.541c23.01,0,45.145,2.809,65.791,8.347c41.156,11.04,48.863,48.079,52.154,63.895     l0.111,0.534c1.969,9.447-0.05,26.782-8.997,44.213c-7.894,15.377-24.288,36.904-57.562,52.126     c-5.771,2.64-12.44,5.651-19.836,8.99c-69.094,31.195-197.703,89.26-252.154,140.583l-2.853,2.688L491.686,573.455z"></path><path fill="#000000" d="M722.743,262.066c21.858,0,43.478,2.538,64.495,8.176c38.634,10.364,45.524,45.542,48.667,60.619     c3.142,15.077-4.696,63.759-63.745,90.772c-59.049,27.01-212.323,92.97-273.34,150.48l-0.018-0.012     c0.366-0.512,0.739-1.021,1.071-1.561c15.375-24.972-11.801-69.624-60.699-99.729c-27.417-16.879-55.829-25.593-78.217-25.593     c-11.654,0-21.68,2.363-29.075,7.166C378.799,406.327,557.878,262.066,722.743,262.066 M722.743,252.066     c-39.318,0-82.158,8.015-127.33,23.822c-37.703,13.193-77.2,31.847-117.394,55.442c-72.849,42.766-130.54,91.729-153.144,113.919     l12.452,15.523c5.594-3.632,13.765-5.552,23.629-5.552c21.49,0,48.088,8.787,72.975,24.108     c22.328,13.747,40.495,30.961,51.153,48.473c9.275,15.24,11.562,28.907,6.273,37.497c-0.109,0.179-0.333,0.491-0.55,0.793     l-0.137,0.19l-6.095,8.516l8.787,5.696l6.586,4.27l5.73-5.372c53.842-50.749,181.955-108.59,250.783-139.664     c7.55-3.409,14.07-6.353,19.857-9c34.578-15.818,51.676-38.309,59.931-54.39c10.155-19.786,11.435-37.963,9.444-47.517     l-0.111-0.533c-1.693-8.137-4.527-21.756-12.333-35c-9.78-16.596-24.39-27.6-43.422-32.705     C768.762,254.932,746.19,252.066,722.743,252.066L722.743,252.066z"></path></g></g></g><g display="none"><polygon display="inline" points="179.348,149.294 756.973,126.345 762.818,98.853 185.19,121.803  "></polygon><polygon display="inline" points="801.309,840.844 188.584,885.152 208.929,898.124 821.652,853.815  "></polygon><g display="inline"><g><path d="M736.014,157.408l-6.189,39.715l-20.467,19.76c-3.486,3.367-5.309,8.101-4.98,12.937l34.553,508.153     c0.111,1.649,0.473,3.272,1.068,4.813l26.541,68.619l-545.216,39.683l44.182-97.325c1.792-3.948,1.952-8.444,0.444-12.509     l-17.682-47.663l31.785-140.179c0.809-3.567,0.404-7.302-1.149-10.613l-30.251-64.481l3.125-53.137     c0.089-1.52-0.033-3.044-0.363-4.529l-38.341-172.537l0.809-46.085c0.032-1.792-0.23-3.577-0.775-5.284l-6.07-19.022     L736.014,157.408 M755.322,140.221l-570.511,21.911l12.64,39.609l-0.843,48.034l38.764,174.44l-3.371,57.304l32.024,68.259     L231.16,694.724l19.382,52.246l-55.618,122.516l594.951-43.302l-34.551-89.325l-34.553-508.153l24.439-23.596L755.322,140.221     L755.322,140.221z"></path></g></g><polygon display="inline" points="292.396,357.671 607.006,483.204 271.75,159.687  "></polygon><g display="inline"><path d="M686.973,235.831l18.18,5.386l29.029,426.928L624.594,480.728L686.973,235.831 M675.264,215.223l-68.258,267.981    l148.318,253.654l-34.553-508.153L675.264,215.223L675.264,215.223z"></path></g><g display="inline"><path d="M255.988,774.727l72.541,68.558l-107.206,7.804L255.988,774.727 M250.542,746.97l-55.618,122.516l172.004-12.52    L250.542,746.97L250.542,746.97z"></path></g><polygon display="inline" points="607.006,483.204 250.542,746.97 311.216,517.756 291.834,356.798  "></polygon><g display="inline"><polygon points="311.216,517.756 231.16,694.724 250.542,746.97 311.216,517.756   "></polygon></g><polygon display="inline" points="250.542,746.97 366.929,856.966 789.875,826.184 755.324,736.858 607.006,483.204  "></polygon><path display="inline" fill="none" stroke="#000000" stroke-width="6.3203" stroke-linejoin="round" stroke-miterlimit="10" d="   M401.808,284.988"></path><polygon display="inline" points="184.812,162.132 197.451,201.741 291.834,356.798 271.75,159.687  "></polygon><polygon display="inline" points="431.298,313.475 575.799,147.116 271.75,159.687  "></polygon><polygon display="inline" points="720.771,228.705 675.264,215.223 745.211,205.109  "></polygon><polygon display="inline" points="755.322,140.221 675.264,215.223 575.799,147.116  "></polygon><polygon display="inline" points="675.264,215.223 607.006,483.204 431.298,313.475  "></polygon><polyline display="inline" fill="none" stroke="#000000" stroke-width="16.4328" stroke-linecap="square" stroke-linejoin="round" stroke-miterlimit="10" points="   250.542,434.837 311.216,517.756 273.294,543.488  "></polyline></g><g display="none"><polygon display="inline" fill="#000000" points="179.795,151.292 756.617,128.374 762.453,100.921 185.629,123.839  "></polygon><polygon display="inline" fill="#000000" points="800.891,841.88 189.02,886.127 209.336,899.079 821.205,854.832  "></polygon><polyline display="inline" fill="#000000" points="311.48,519.24 231.535,695.962 264.355,551.218 311.48,519.24  "></polyline><polyline display="inline" fill="#000000" points="311.48,519.24 235.742,425.83 232.376,483.055 264.355,551.218 311.48,519.24     "></polyline><polygon display="inline" fill="#000000" points="292.686,359.379 606.858,484.736 272.068,161.67  "></polygon><polyline display="inline" fill="#000000" points="311.48,519.24 292.125,358.506 197.874,203.666 197.032,251.633 235.742,425.83    311.48,519.24  "></polyline><polygon display="inline" fill="#000000" points="744.871,207.029 675.021,217.129 754.969,142.231  "></polygon><polygon display="inline" fill="#000000" points="720.467,230.592 675.021,217.129 606.858,484.736 754.971,738.037  "></polygon><polygon display="inline" fill="#000000" points="675.021,217.129 575.694,149.116 431.395,315.244  "></polygon><polygon display="inline" fill="#000000" points="367.115,857.979 250.891,748.136 195.35,870.48  "></polygon><polygon display="inline" fill="#000000" points="606.858,484.736 250.891,748.136 311.48,519.24 292.125,358.506  "></polygon><polygon display="inline" fill="#000000" points="231.535,695.962 250.891,748.136 311.48,519.24  "></polygon><polygon display="inline" fill="#000000" points="250.891,748.136 367.115,857.979 789.473,827.24 754.971,738.037    606.858,484.736  "></polygon><path display="inline" fill="none" stroke="#000000" stroke-width="6.3115" stroke-linejoin="round" stroke-miterlimit="10" d="   M401.945,286.797"></path><polygon display="inline" fill="#000000" points="185.251,164.111 197.874,203.666 292.125,358.506 272.068,161.67  "></polygon><polygon display="inline" fill="#000000" points="431.395,315.244 575.694,149.116 272.068,161.67  "></polygon><polygon display="inline" fill="#000000" points="720.467,230.592 675.021,217.129 744.871,207.029  "></polygon><polygon display="inline" fill="#000000" points="754.969,142.231 675.021,217.129 575.694,149.116  "></polygon><polygon display="inline" fill="#000000" points="431.395,315.244 675.021,217.129 606.858,484.736  "></polygon></g><g display="none"><g display="inline"><path fill="#000000" d="M499.309,898c89.204,0,193.846-12.008,247.025-27.447c53.179-15.438,99.495-51.463,99.495-104.643    s0-286.479,0-286.479s-116.649,34.309-346.521,29.163c-229.87,5.146-346.521-29.163-346.521-29.163s0,233.3,0,286.479    s46.317,89.204,99.496,104.643C305.463,885.992,410.106,898,499.309,898z"></path><path fill="#000000" d="M499.309,379.363c319.643,0,399.7-43.457,399.7-43.457v62.897c0,22.874-19.439,28.591-19.439,28.591    s-57.187,33.165-380.26,33.165c-323.073,0-380.26-33.163-380.26-33.163s-19.44-5.718-19.44-28.592v-62.897    C99.609,335.906,179.666,379.363,499.309,379.363z"></path><ellipse fill="#000000" cx="499.308" cy="300.453" rx="358.53" ry="35.453"></ellipse></g></g><g display="none"><path display="inline" d="M499.309,898c89.204,0,193.846-12.008,247.025-27.447c53.179-15.438,99.495-51.463,99.495-104.643   s0-286.479,0-286.479s-116.649,34.309-346.521,29.163c-229.87,5.146-346.521-29.163-346.521-29.163s0,233.3,0,286.479   s46.317,89.204,99.496,104.643C305.463,885.992,410.106,898,499.309,898z"></path><path display="inline" d="M900,331.617C900,294.825,720.914,265,500,265s-400,29.825-400,66.617c0,1.692,0.382,3.372,1.127,5.033   c-1.036-0.481-1.518-0.743-1.518-0.743v62.897c0,22.874,19.44,28.592,19.44,28.592s57.186,33.164,380.259,33.164   c323.073,0,380.26-33.164,380.26-33.164s19.439-5.718,19.439-28.592v-62.48C899.66,334.769,900,333.199,900,331.617z"></path></g><g display="none"><path display="inline" fill="#000000" d="M900,331.617C900,294.825,720.914,265,500,265s-400,29.825-400,66.617   c0,1.692,0.382,3.372,1.127,5.033c-1.036-0.481-1.518-0.743-1.518-0.743v62.897c0,22.874,19.44,28.592,19.44,28.592   s57.186,33.164,380.259,33.164c323.073,0,380.26-33.164,380.26-33.164s19.439-5.718,19.439-28.592v-62.48   C899.66,334.769,900,333.199,900,331.617z"></path><path display="inline" fill="#000000" d="M499.309,508.594c-229.87,5.146-346.521-29.163-346.521-29.163s0,233.3,0,286.479   s46.317,89.204,99.496,104.643C305.463,885.992,410.106,898,499.309,898c89.204,0,193.846-12.008,247.025-27.447   c53.179-15.438,99.495-51.463,99.495-104.643s0-286.479,0-286.479S729.18,513.739,499.309,508.594z M745.829,760.827   c0,0-100.829,23.173-246.521,23.173C366,784,252.788,760.827,252.788,760.827V557.286C314.057,564.689,399.746,572,499.309,572   s185.252-7.311,246.521-14.714V760.827z"></path></g><g display="none"><path display="inline" fill="#000000" d="M499.309,379.363c319.643,0,399.7-43.457,399.7-43.457v62.897   c0,22.874-19.439,28.591-19.439,28.591s-57.187,33.165-380.26,33.165c-323.073,0-380.26-33.163-380.26-33.163   s-19.44-5.718-19.44-28.592v-62.897C99.609,335.906,179.666,379.363,499.309,379.363z"></path><ellipse display="inline" fill="#000000" cx="499.308" cy="300.453" rx="358.53" ry="35.453"></ellipse><path display="inline" fill="#000000" d="M499.309,508.594c-229.87,5.146-346.521-29.163-346.521-29.163s0,233.3,0,286.479   s46.317,89.204,99.496,104.643C305.463,885.992,410.106,898,499.309,898c89.204,0,193.846-12.008,247.025-27.447   c53.179-15.438,99.495-51.463,99.495-104.643s0-286.479,0-286.479S729.18,513.739,499.309,508.594z M745.829,760.827   c0,0-100.829,23.173-246.521,23.173C366,784,252.788,760.827,252.788,760.827V557.286C314.057,564.689,399.746,572,499.309,572   s185.252-7.311,246.521-14.714V760.827z"></path></g><g display="none"><path display="inline" fill="#000000" d="M499.309,898c89.204,0,193.846-12.008,247.025-27.447   c53.179-15.438,99.495-51.463,99.495-104.643s0-286.479,0-286.479s-116.162,28.236-346.521,29.163   C269,509,152.788,479.431,152.788,479.431s0,233.3,0,286.479s46.317,89.204,99.496,104.643   C305.463,885.992,410.106,898,499.309,898z"></path><path display="inline" fill="#000000" d="M499.309,379.363c319.643,0,399.7-43.457,399.7-43.457v62.897   c0,22.874-19.439,28.591-19.439,28.591s-57.187,33.165-380.26,33.165c-323.073,0-380.26-33.163-380.26-33.163   s-19.44-5.718-19.44-28.592v-62.897C99.609,335.906,179.666,379.363,499.309,379.363z"></path><ellipse display="inline" fill="#000000" cx="499.308" cy="300.453" rx="358.53" ry="35.453"></ellipse><path display="inline" fill="#000000" d="M745.829,557.286C684.561,564.689,598.871,572,499.309,572s-185.251-7.311-246.521-14.714   v203.541c0,0,113.212,23.173,246.521,23.173c145.691,0,246.521-23.173,246.521-23.173V557.286z"></path></g><g display="none"><path display="inline" fill="#000000" d="M499.309,898c89.204,0,193.846-12.008,247.025-27.447   c53.179-15.438,99.495-51.463,99.495-104.643s0-286.479,0-286.479s-116.649,34.309-346.521,29.163   c-229.87,5.146-346.521-29.163-346.521-29.163s0,233.3,0,286.479s46.317,89.204,99.496,104.643   C305.463,885.992,410.106,898,499.309,898z"></path><path display="inline" fill="#000000" d="M900,331.617C900,294.825,720.914,265,500,265s-400,29.825-400,66.617   c0,1.692,0.382,3.372,1.127,5.033c-1.036-0.481-1.518-0.743-1.518-0.743v62.897c0,22.874,19.44,28.592,19.44,28.592   s57.186,33.164,380.259,33.164c323.073,0,380.26-33.164,380.26-33.164s19.439-5.718,19.439-28.592v-62.48   C899.66,334.769,900,333.199,900,331.617z"></path><path display="inline" fill="#000000" d="M745.829,557.286C684.561,564.689,598.871,572,499.309,572s-185.251-7.311-246.521-14.714   v203.541c0,0,113.212,23.173,246.521,23.173c145.691,0,246.521-23.173,246.521-23.173V557.286z"></path></g><g><path d="M500,192.845c260.361,0,325.574-37.148,325.574-37.148v62.617c0,19.553-15.834,24.44-15.834,24.44   S763.158,271.104,500,271.104c-263.159,0-309.74-28.35-309.74-28.35s-15.835-4.887-15.835-24.441v-62.616   C174.424,155.697,239.635,192.845,500,192.845z"></path><ellipse cx="500.217" cy="130.307" rx="298.862" ry="30.307"></ellipse><path d="M500,303.883c-196.4,0-289.889-24.174-289.889-24.174s38.72,505.204,41.179,535.935C253.748,846.373,313.57,898,500,898   c186.429,0,246.251-51.627,248.709-82.356c2.459-30.73,41.179-535.935,41.179-535.935S696.58,303.883,500,303.883z    M710.514,727.103c-46.581,8.181-124.117,18.916-210.297,18.916c-85.9,0-163.471-10.666-210.297-18.837v-251.27   C340.186,483.536,415.141,492,500.217,492c85.218,0,160.148-8.493,210.297-16.127V727.103z"></path></g><g display="none"><path display="inline" d="M826.008,152.501c0-28.995-145.861-52.501-325.791-52.501s-325.792,23.506-325.792,52.501   c0,1.212,0.278,2.414,0.78,3.606c-0.53-0.266-0.78-0.409-0.78-0.409v62.616c0,19.554,15.835,24.441,15.835,24.441   s46.581,28.35,309.74,28.35c263.158,0,309.74-28.351,309.74-28.351s15.834-4.887,15.834-24.44v-62.617c0,0-0.078,0.044-0.234,0.128   C825.766,154.725,826.008,153.618,826.008,152.501z"></path><path display="inline" d="M500,303.883c-196.4,0-289.889-24.174-289.889-24.174s38.72,505.204,41.179,535.935   C253.748,846.373,313.57,898,500,898c186.429,0,246.251-51.627,248.709-82.356c2.459-30.73,41.179-535.935,41.179-535.935   S696.58,303.883,500,303.883z M710.514,727.103c-46.581,8.181-124.117,18.916-210.297,18.916   c-85.9,0-163.471-10.666-210.297-18.837v-251.27C340.186,483.536,415.141,492,500.217,492c85.218,0,160.148-8.493,210.297-16.127   V727.103z"></path></g><g display="none"><path display="inline" fill="#000000" d="M500,192.845c260.361,0,325.574-37.148,325.574-37.148v62.617   c0,19.553-15.834,24.44-15.834,24.44S763.158,271.104,500,271.104c-263.159,0-309.74-28.35-309.74-28.35   s-15.835-4.887-15.835-24.441v-62.616C174.424,155.697,239.635,192.845,500,192.845z"></path><ellipse display="inline" fill="#000000" cx="500.217" cy="130.307" rx="298.862" ry="30.307"></ellipse><path display="inline" fill="#000000" d="M500,303.883c196.58,0,289.888-24.174,289.888-24.174s-38.72,505.204-41.179,535.935   C746.251,846.373,686.429,898,500,898c-186.43,0-246.252-51.627-248.71-82.356c-2.458-30.73-41.179-535.935-41.179-535.935   S303.6,303.883,500,303.883z"></path><path display="inline" fill="#000000" d="M500.217,492c-85.076,0-160.031-8.464-210.297-16.088v251.27   c46.827,8.171,124.397,18.837,210.297,18.837c86.18,0,163.716-10.735,210.297-18.916V475.873   C660.365,483.507,585.435,492,500.217,492z"></path></g><g display="none"><path display="inline" fill="#000000" d="M826.008,152.501c0-28.995-145.861-52.501-325.791-52.501s-325.792,23.506-325.792,52.501   c0,1.212,0.278,2.414,0.78,3.606c-0.53-0.266-0.78-0.409-0.78-0.409v62.616c0,19.554,15.835,24.441,15.835,24.441   s46.581,28.35,309.74,28.35c263.158,0,309.74-28.351,309.74-28.351s15.834-4.887,15.834-24.44v-62.617c0,0-0.078,0.044-0.234,0.128   C825.766,154.725,826.008,153.618,826.008,152.501z"></path><path display="inline" fill="#000000" d="M500,303.883c196.58,0,289.888-24.174,289.888-24.174s-38.72,505.204-41.179,535.935   C746.251,846.373,686.429,898,500,898c-186.43,0-246.252-51.627-248.71-82.356c-2.458-30.73-41.179-535.935-41.179-535.935   S303.6,303.883,500,303.883z"></path><path display="inline" fill="#000000" d="M500.217,492c-85.076,0-160.031-8.464-210.297-16.088v251.27   c46.827,8.171,124.397,18.837,210.297,18.837c86.18,0,163.716-10.735,210.297-18.916V475.873   C660.365,483.507,585.435,492,500.217,492z"></path></g></svg>