<svg xmlns="http://www.w3.org/2000/svg" xmlns:xlink="http://www.w3.org/1999/xlink" viewBox="0 0 60 60" version="1.1" x="0px" y="0px"><title>18 -Painting- (Solid)</title><desc>Created with Sketch.</desc><g stroke="none" stroke-width="1" fill="none" fill-rule="evenodd"><g transform="translate(-960.000000, -490.000000)" fill="#000000"><g transform="translate(960.000000, 490.000000)"><path d="M56,58.0045 C55.316,58.0045 54.687,57.6545 54.315,57.0695 C54.126,56.7705 53.802,56.6045 53.47,56.6045 C53.303,56.6045 53.134,56.6465 52.979,56.7345 C51.86,57.3655 50.521,56.7845 50.126,55.6695 C49.984,55.2715 49.606,55.0045 49.184,55.0045 L10.816,55.0045 C10.394,55.0045 10.016,55.2715 9.874,55.6695 C9.479,56.7845 8.139,57.3655 7.021,56.7345 C6.557,56.4715 5.969,56.6195 5.685,57.0695 C5.313,57.6545 4.684,58.0045 4,58.0045 C2.897,58.0045 2,57.1075 2,56.0045 C2,55.3205 2.35,54.6905 2.936,54.3195 C3.387,54.0335 3.533,53.4445 3.27,52.9805 C3.091,52.6655 3,52.3375 3,52.0045 C3,51.1675 3.536,50.4145 4.335,50.1295 C4.733,49.9885 5,49.6105 5,49.1885 L5,10.8205 C5,10.3985 4.733,10.0205 4.335,9.8795 C3.536,9.5945 3,8.8415 3,8.0045 C3,7.6715 3.091,7.3435 3.27,7.0285 C3.533,6.5645 3.387,5.9755 2.936,5.6895 C2.35,5.3185 2,4.6885 2,4.0045 C2,2.9015 2.897,2.0045 4,2.0045 C4.684,2.0045 5.313,2.3545 5.685,2.9395 C5.969,3.3895 6.557,3.5375 7.021,3.2745 C8.139,2.6435 9.479,3.2245 9.874,4.3395 C10.016,4.7375 10.394,5.0045 10.816,5.0045 L49.184,5.0045 C49.606,5.0045 49.984,4.7375 50.126,4.3395 C50.521,3.2245 51.86,2.6435 52.979,3.2745 C53.441,3.5375 54.03,3.3895 54.315,2.9395 C54.687,2.3545 55.316,2.0045 56,2.0045 C57.103,2.0045 58,2.9015 58,4.0045 C58,4.6885 57.65,5.3185 57.064,5.6895 C56.613,5.9755 56.467,6.5645 56.73,7.0285 C56.909,7.3435 57,7.6715 57,8.0045 C57,8.8415 56.464,9.5945 55.665,9.8795 C55.267,10.0205 55,10.3985 55,10.8205 L55,49.1885 C55,49.6105 55.267,49.9885 55.665,50.1295 C56.464,50.4145 57,51.1675 57,52.0045 C57,52.3375 56.909,52.6655 56.73,52.9805 C56.467,53.4445 56.613,54.0335 57.064,54.3195 C57.65,54.6905 58,55.3205 58,56.0045 C58,57.1075 57.103,58.0045 56,58.0045 M59,52.0045 C59,50.5695 58.22,49.2595 57,48.5535 L57,11.4555 C58.22,10.7495 59,9.4395 59,8.0045 C59,7.6055 58.939,7.2145 58.818,6.8355 C59.569,6.0935 60,5.0835 60,4.0045 C60,1.7985 58.206,0.0045 56,0.0045 C54.921,0.0045 53.911,0.4345 53.169,1.1855 C52.789,1.0655 52.398,1.0045 52,1.0045 C50.564,1.0045 49.254,1.7845 48.549,3.0045 L11.451,3.0045 C10.746,1.7845 9.436,1.0045 8,1.0045 C7.602,1.0045 7.211,1.0655 6.831,1.1855 C6.089,0.4345 5.079,0.0045 4,0.0045 C1.794,0.0045 0,1.7985 0,4.0045 C0,5.0835 0.431,6.0935 1.182,6.8355 C1.061,7.2145 1,7.6055 1,8.0045 C1,9.4395 1.78,10.7495 3,11.4555 L3,48.5535 C1.78,49.2595 1,50.5695 1,52.0045 C1,52.4035 1.061,52.7945 1.182,53.1735 C0.431,53.9155 0,54.9255 0,56.0045 C0,58.2105 1.794,60.0045 4,60.0045 C5.079,60.0045 6.089,59.5745 6.831,58.8235 C7.211,58.9435 7.602,59.0045 8,59.0045 C9.436,59.0045 10.746,58.2245 11.451,57.0045 L48.549,57.0045 C49.254,58.2245 50.564,59.0045 52,59.0045 C52.398,59.0045 52.789,58.9435 53.169,58.8235 C53.911,59.5745 54.921,60.0045 56,60.0045 C58.206,60.0045 60,58.2105 60,56.0045 C60,54.9255 59.569,53.9155 58.818,53.1735 C58.939,52.7945 59,52.4035 59,52.0045"></path><path d="M30.002,43.0045 L30,43.0045 C29.676,43.0045 29.356,42.9625 29.041,42.9005 C29.027,42.8975 29.014,42.8995 29,42.8965 L29,53.0045 L31,53.0045 L31,42.8965 C30.681,42.9605 30.352,43.0035 30.009,43.0035 C30.007,43.0035 30.005,43.0045 30.002,43.0045"></path><path d="M29.3896,33.0143 C29.3106,33.0333 29.2326,33.0423 29.1546,33.0423 C28.7026,33.0423 28.2936,32.7343 28.1836,32.2763 C28.0536,31.7403 28.3836,31.1993 28.9206,31.0703 C30.5666,30.6733 31.7156,29.2143 31.7156,27.5213 C31.7156,26.9693 32.1626,26.5213 32.7156,26.5213 C33.2686,26.5213 33.7156,26.9693 33.7156,27.5213 C33.7156,30.1413 31.9366,32.3993 29.3896,33.0143 M24.3666,26.5893 C24.2856,27.0783 23.8616,27.4263 23.3806,27.4263 C23.3276,27.4263 23.2726,27.4213 23.2166,27.4123 C22.6716,27.3223 22.3036,26.8073 22.3936,26.2633 C22.8206,23.6793 24.9436,21.7403 27.5566,21.5483 C28.1196,21.5143 28.5866,21.9223 28.6266,22.4723 C28.6676,23.0233 28.2536,23.5023 27.7026,23.5433 C26.0146,23.6663 24.6426,24.9193 24.3666,26.5893 M23.7536,36.1563 C23.1846,36.7533 22.3916,37.0563 21.3966,37.0563 C19.5616,37.0563 18.0696,35.5633 18.0696,33.7283 C18.0696,33.4773 18.0996,33.2283 18.1616,32.9663 C18.2876,32.4293 18.8266,32.0963 19.3656,32.2233 C19.9036,32.3513 20.2356,32.8903 20.1076,33.4283 C20.0816,33.5363 20.0696,33.6353 20.0696,33.7283 C20.0696,34.4603 20.6646,35.0563 21.3966,35.0563 C22.0386,35.0563 22.2336,34.8523 22.3066,34.7763 C22.6886,34.3763 23.3206,34.3623 23.7206,34.7423 C24.1196,35.1233 24.1346,35.7563 23.7536,36.1563 M22.9486,18.7633 C23.2776,18.7633 23.6046,18.8123 23.9196,18.9093 C24.4486,19.0703 24.7446,19.6293 24.5826,20.1583 C24.4216,20.6853 23.8666,20.9823 23.3336,20.8213 C22.5336,20.5793 21.6506,21.2073 21.6206,22.0453 C21.6036,22.5863 21.1596,23.0123 20.6226,23.0123 C20.6116,23.0123 20.5996,23.0123 20.5886,23.0113 C20.0356,22.9933 19.6046,22.5303 19.6226,21.9783 C19.6836,20.1753 21.1446,18.7633 22.9486,18.7633 M36.1426,34.7423 C36.5406,34.3613 37.1746,34.3763 37.5556,34.7763 C37.6286,34.8523 37.8236,35.0563 38.4656,35.0563 C39.1976,35.0563 39.7926,34.4603 39.7926,33.7283 C39.7926,33.6383 39.7806,33.5373 39.7526,33.4233 C39.6286,32.8853 39.9636,32.3473 40.5016,32.2223 C41.0356,32.1003 41.5776,32.4323 41.7026,32.9713 C41.7626,33.2363 41.7926,33.4833 41.7926,33.7283 C41.7926,35.5633 40.3006,37.0563 38.4656,37.0563 C37.4706,37.0563 36.6776,36.7533 36.1086,36.1563 C35.7276,35.7563 35.7426,35.1233 36.1426,34.7423 M36.3586,17.1883 C37.0316,16.6383 37.8836,16.3803 38.7616,16.4483 C40.4586,16.5903 41.8186,18.1003 41.7926,19.8133 C41.7846,20.3583 41.6496,20.8743 41.3926,21.3483 L40.5586,22.8783 C40.4296,23.1153 40.4826,23.3303 40.5256,23.4383 C40.5686,23.5463 40.6786,23.7393 40.9356,23.8223 L42.4796,24.3203 C43.6456,24.6973 44.5356,25.6223 44.8026,26.7353 C45.1806,28.3053 44.3826,29.9173 42.9046,30.5683 C42.7736,30.6253 42.6366,30.6523 42.5026,30.6533 C42.1186,30.6533 41.7506,30.4303 41.5866,30.0553 C41.3646,29.5493 41.5936,28.9593 42.0996,28.7373 C42.6906,28.4773 43.0096,27.8313 42.8576,27.2023 C42.7526,26.7623 42.3716,26.3883 41.8646,26.2233 L40.3206,25.7253 C39.5646,25.4803 38.9616,24.9173 38.6666,24.1793 C38.3726,23.4413 38.4226,22.6183 38.8026,21.9213 L39.6356,20.3923 C39.7386,20.2033 39.7896,20.0043 39.7926,19.7833 C39.8026,19.1113 39.2536,18.4963 38.5946,18.4413 C38.2356,18.4103 37.9026,18.5093 37.6256,18.7353 C37.1986,19.0853 36.5696,19.0213 36.2186,18.5963 C35.8686,18.1693 35.9306,17.5383 36.3586,17.1883 M34.2786,36.6563 C34.6466,36.5373 35.0456,36.6403 35.3096,36.9183 C36.0956,37.7423 37.1576,38.1603 38.4656,38.1603 C40.9096,38.1603 42.8966,36.1723 42.8966,33.7283 C42.8966,33.4023 42.8566,33.0633 42.7766,32.7213 C42.6666,32.2523 42.9076,31.7723 43.3476,31.5783 C44.9586,30.8703 45.9996,29.2783 45.9996,27.5213 C45.9996,25.5933 44.7666,23.8993 42.9316,23.3063 C42.6486,23.2153 42.4206,23.0023 42.3106,22.7263 C42.2006,22.4503 42.2186,22.1393 42.3606,21.8773 C42.7106,21.2333 42.8966,20.5013 42.8966,19.7633 C42.8966,17.3203 40.9096,15.3323 38.4656,15.3323 C37.4296,15.3323 36.4576,15.6793 35.6576,16.3363 C35.4086,16.5413 35.0746,16.6123 34.7606,16.5273 C34.4486,16.4423 34.1966,16.2113 34.0846,15.9083 C33.4466,14.1713 31.7766,13.0043 29.9306,13.0043 C27.6426,13.0043 25.7466,14.7193 25.5226,16.9933 C25.4936,17.2913 25.3316,17.5603 25.0826,17.7263 C24.8316,17.8923 24.5226,17.9383 24.2366,17.8513 C23.8186,17.7243 23.3846,17.6603 22.9486,17.6603 C20.5046,17.6603 18.5176,19.6473 18.5176,22.0913 C18.5176,22.5883 18.1546,23.0713 17.6616,23.1413 C15.6426,23.4303 13.9996,25.6113 13.9996,28.0043 C13.9996,29.6893 14.7986,30.8253 16.5146,31.5783 C16.9546,31.7723 17.1956,32.2523 17.0856,32.7213 C17.0056,33.0633 16.9656,33.4023 16.9656,33.7283 C16.9656,36.1723 18.9526,38.1603 21.3966,38.1603 C22.7046,38.1603 23.7666,37.7423 24.5516,36.9183 C24.7436,36.7173 25.0056,36.6083 25.2756,36.6083 C25.3776,36.6083 25.4816,36.6233 25.5816,36.6563 C25.9476,36.7743 26.2126,37.0913 26.2656,37.4713 C26.4496,38.7943 27.3706,39.9903 28.4996,40.5913 C28.7356,40.7163 28.9676,40.8093 29.1976,40.8773 C29.2206,40.8833 29.2436,40.8943 29.2676,40.9003 C30.0256,41.1043 30.7586,40.9983 31.5076,40.5733 C31.5296,40.5613 31.5536,40.5563 31.5766,40.5453 C32.6706,39.8983 33.4316,38.6593 33.5956,37.4713 C33.6476,37.0913 33.9126,36.7743 34.2786,36.6563"></path><path d="M52,7.0045 L8,7.0045 C7.447,7.0045 7,7.4525 7,8.0045 L7,52.0045 C7,52.5565 7.447,53.0045 8,53.0045 L27,53.0045 L27,42.0355 C26.021,41.3755 25.21,40.4245 24.726,39.3075 C23.769,39.8685 22.641,40.1595 21.396,40.1595 C17.851,40.1595 14.966,37.2755 14.966,33.7285 C14.966,33.5075 14.979,33.2835 15.003,33.0585 C13.034,31.9555 12,30.2225 12,28.0045 C12,24.9095 13.95,22.1465 16.569,21.3435 C16.96,18.1235 19.672,15.6595 22.948,15.6595 C23.211,15.6595 23.474,15.6755 23.733,15.7085 C24.489,12.9625 26.985,11.0045 29.931,11.0045 C32.191,11.0045 34.271,12.2095 35.422,14.0985 C36.353,13.5995 37.4,13.3325 38.466,13.3325 C42.012,13.3325 44.896,16.2165 44.896,19.7635 C44.896,20.4655 44.78,21.1645 44.557,21.8265 C46.653,22.9215 48,25.0935 48,27.5215 C48,29.8045 46.789,31.8965 44.858,33.0465 C44.884,33.2755 44.896,33.5035 44.896,33.7285 C44.896,37.2755 42.012,40.1595 38.466,40.1595 C37.224,40.1595 36.098,39.8695 35.141,39.3105 C34.694,40.3665 33.952,41.3305 33,42.0125 L33,53.0045 L52,53.0045 C52.553,53.0045 53,52.5565 53,52.0045 L53,8.0045 C53,7.4525 52.553,7.0045 52,7.0045"></path></g></g></g></svg>