<svg xmlns:dc="http://purl.org/dc/elements/1.1/" xmlns:cc="http://creativecommons.org/ns#" xmlns:rdf="http://www.w3.org/1999/02/22-rdf-syntax-ns#" xmlns:svg="http://www.w3.org/2000/svg" xmlns="http://www.w3.org/2000/svg" xmlns:sodipodi="http://sodipodi.sourceforge.net/DTD/sodipodi-0.dtd" xmlns:inkscape="http://www.inkscape.org/namespaces/inkscape" version="1.1" x="0px" y="0px" viewBox="0 0 100 100"><g transform="translate(0,-952.36218)"><path style="text-indent:0;text-transform:none;direction:ltr;block-progression:tb;baseline-shift:baseline;color:#000000;enable-background:accumulate;" d="m 51.992575,983.36223 c -5.31905,0 -8.83098,2.41582 -12.06055,4.53125 -3.08064,2.01788 -5.92338,3.71916 -10.24835,3.46875 -0.56231,-1.94756 -1.36534,-3.47324 -2.43711,-4.40625 -1.22701,-1.06815 -2.73401,-1.46045 -4.06184,-1.21875 -1.32784,0.2417 -2.47348,1.11403 -3.09325,2.375 -0.52982,1.07795 -0.5462,2.46352 -0.15623,3.90625 -2.47994,2.41448 -4.77241,4.8902 -7.40505,7 -0.33103,0.23796 -0.6141,0.32143 -0.6249,0.34375 -1.30506,0.0274 -2.6706402,0.62624 -3.8118902,1.62497 -1.16853,1.0227 -2.0934099,2.5417 -2.0934099,4.375 0,1.1389 0.7555,2.0652 1.6559799,2.5938 0.90049,0.5286 1.99701,0.8329 3.1869902,1.0312 2.27576,0.3794 4.86705,0.3437 6.84265,0.3438 0.0185,0 0.0442,0.031 0.0625,0.031 5.40557,1.6955 10.6439,3.4839 15.34127,5.4687 -2.81363,0.3653 -5.15328,0.7688 -6.68642,1.3438 -1.09816,0.4119 -1.96914,0.9361 -2.56209,1.6562 -0.59294,0.7202 -0.84361,1.6146 -0.84361,2.5313 5e-5,0.5236 0.47634,0.9999 0.99984,1 l 33.99452,0 c 3.49943,0 7.34971,-2.4134 10.46706,-5.5313 2.8199,-2.8203 5.03415,-6.251 5.43662,-9.4687 2.41326,0 3.93056,-0.1148 5.71778,0.3437 1.04513,0.2814 1.35473,0.9142 1.37478,1.6563 0,0.3055 -0.25093,0.7704 -0.90611,1.3437 -1.76845,1.4684 -3.85833,2.3955 -5.49911,3.8125 -0.84458,0.7392 -1.59349,1.6493 -1.59349,2.8438 0.0734,1.9908 1.60437,3.0045 3.062,3.5312 1.65279,0.5804 3.73054,0.7798 5.9053,0.8438 4.34952,0.1279 9.19644,-0.375 11.02947,-0.375 0.52823,0.01 1.01408,-0.4716 1.01408,-1 0,-0.5284 -0.48585,-1.0075 -1.01408,-1 -2.16632,0 -6.81787,0.497 -10.96698,0.375 -2.07455,-0.061 -3.99615,-0.2678 -5.2804,-0.7188 -1.0063,-0.3111 -1.65464,-0.8188 -1.74971,-1.6562 0,-0.3056 0.25093,-0.7704 0.9061,-1.3438 1.76845,-1.4683 3.85834,-2.3954 5.49911,-3.8125 0.84459,-0.7391 1.5935,-1.6493 1.5935,-2.8437 -0.006,-1.936 -1.00919,-2.9651 -2.87454,-3.5938 -2.21643,-0.4407 -4.34824,-0.4067 -6.15521,-0.4062 -0.55144,-12.97291 -11.6969,-21.00002 -21.96521,-21.00002 z m 0,2 c 9.46515,0 19.99678,7.5641 19.99678,19.99997 0,2.5 -2.08626,6.1804 -4.96795,9.0625 -2.88169,2.8822 -6.5302,4.9375 -9.02979,4.9375 l -32.68223,0 c 0.38509,-0.6908 1.21981,-1.0975 1.78096,-1.3125 1.80304,-0.6762 5.02218,-1.1898 9.99839,-1.6875 0.81688,-0.098 1.10613,-1.4112 0.40618,-1.8437 -6.24917,-3.101 -12.83621,-5.015 -19.18441,-7.0938 -0.0999,-0.037 -0.20585,-0.058 -0.31244,-0.062 -1.99968,0 -4.72332,0.01 -6.84265,-0.3437 -1.05966,-0.1767 -1.9628102,-0.4661 -2.4996002,-0.7813 -0.53678,-0.3151 -0.65614,-0.5139 -0.65614,-0.875 0,-1.1666 0.57487,-2.1476 1.40602,-2.875 0.8311502,-0.7273 1.9267702,-1.125 2.5933302,-1.125 0.74988,0 1.16001,-0.3172 1.71848,-0.7187 2.91418,-2.32204 5.74791,-5.31143 7.99871,-7.56252 0.26771,-0.2727 0.35695,-0.7062 0.21871,-1.0625 -0.50016,-1.29433 -0.41165,-2.32085 -0.0625,-3.03125 0.34916,-0.7104 0.97418,-1.15146 1.68723,-1.28125 0.71304,-0.12979 1.55043,0.0638 2.37462,0.78125 0.82418,0.71748 1.6279,1.99862 2.09341,4.09375 0.0892,0.40818 0.45928,0.73863 0.87486,0.78125 5.30441,0.53053 8.86424,-1.64668 12.12304,-3.78125 3.25881,-2.13457 6.24531,-4.21875 10.96698,-4.21875 z m -29.99516,11 c -1.10439,0 -1.99968,0.89543 -1.99968,2 0,1.10457 0.89529,1.99997 1.99968,1.99997 1.10439,0 1.99968,-0.8954 1.99968,-1.99997 0,-1.10457 -0.89529,-2 -1.99968,-2 z" fill="#000000" fill-opacity="1" stroke="none" marker="none" visibility="visible" display="inline" overflow="visible"></path></g></svg>