<svg xmlns="http://www.w3.org/2000/svg" xmlns:xlink="http://www.w3.org/1999/xlink" version="1.2" baseProfile="tiny" x="0px" y="0px" viewBox="0 0 32 32" xml:space="preserve"><path d="M18.802,13.02c-1.15-1.853-1.562-5.278-1.562-5.278V3.595c0.128-0.031,0.118-0.149,0.118-0.149s0-0.352,0-0.616  c0-0.264-0.142-0.262-0.142-0.262c0.024-0.622-0.27-0.598-0.27-0.598h-0.873h-0.147h-0.874c0,0-0.293-0.024-0.27,0.598  c0,0-0.141-0.002-0.141,0.262c0,0.264,0,0.616,0,0.616s-0.009,0.118,0.119,0.149v4.147c0,0-0.412,3.425-1.562,5.278  c-1.149,1.854-0.727,8.446-0.727,9.807s0,5.654,0,5.654s0.141,1.127,1.032,1.291c0.738,0.135,1.892,0.225,2.387,0.25v0.008  c0.021,0,0.061-0.002,0.107-0.004c0.048,0.004,0.088,0.004,0.109,0.004v-0.01c0.496-0.023,1.65-0.113,2.387-0.248  c0.893-0.164,1.033-1.291,1.033-1.291s0-4.293,0-5.654S19.951,14.874,18.802,13.02z M19.2,23.86  c-0.73,0.334-2.556,0.338-3.115,0.332v-0.004c0,0-0.033,0.002-0.082,0.002c-0.055,0-0.088-0.002-0.088-0.002v0.004  c-0.559,0.006-2.384,0.002-3.116-0.332v-6.523c0,0,1.526,0.258,3.201,0.197c1.673,0.061,3.2-0.197,3.2-0.197V23.86z"></path></svg>