<svg fill="#1A1A1A" xmlns="http://www.w3.org/2000/svg" xmlns:xlink="http://www.w3.org/1999/xlink" xml:space="preserve" style="shape-rendering:geometricPrecision;text-rendering:geometricPrecision;image-rendering:optimizeQuality;" viewBox="0 0 0.269039 0.322359" x="0px" y="0px" fill-rule="evenodd" clip-rule="evenodd"><defs><style type="text/css">
   
    .fil0 {fill:#000000}
   
  </style></defs><g><path class="fil0" d="M-0 0.139994c0.0440282,-0.000645679 0.121246,0.0579654 0.121041,0.0575835 0.00120868,-4.33077e-005 0.00242523,-8.26784e-005 0.0036536,-0.000114175 -0.0211657,-0.0624143 -0.070442,-0.124541 -0.0843674,-0.195275 0.0340477,0.0246421 0.116273,0.112647 0.0956234,0.195141l0.00123624 3.93707e-006c0.00585048,-0.0228665 0.00376777,-0.04617 -0.00303154,-0.0684419 0.017327,-0.0589024 0.0680364,-0.110864 0.0929502,-0.128892 -0.0140829,0.0715325 -0.0643238,0.134266 -0.085076,0.197389 0.00216145,3.54336e-005 0.0042914,9.05525e-005 0.00638986,0.00016142 0.0106458,-0.0345792 0.0417959,-0.0956156 0.0949581,-0.0970054 -0.0291697,0.0238626 -0.0499614,0.0639025 -0.0796311,0.0940211 -0.00179924,0.001126 -0.00357879,0.00227562 -0.0053426,0.00344887 0.000704735,4.33077e-005 0.00139766,9.05525e-005 0.00209058,0.00013386 0.0354651,-0.023587 0.0792334,-0.0361974 0.108545,-0.0603513 -0.00799224,0.0354021 -0.0412408,0.0553433 -0.0729893,0.0656191 0.00615363,0.0018268 0.00968912,0.00395675 0.00968912,0.00622844 0,0.00680325 -0.0316146,0.0123151 -0.0706113,0.0123151 -0.0389966,0 -0.0706113,-0.00551189 -0.0706113,-0.0123151 0,-0.00479141 0.0157089,-0.00894895 0.0386423,-0.0109805 -0.0329414,-0.0185554 -0.0735877,-0.0319178 -0.103159,-0.0586701z"></path><path class="fil0" d="M0.20533 0.212755l-0.0152798 0.100931c-0.0365084,0.0109214 -0.0730168,0.0124411 -0.109525,-0.000720483l-0.0155987 -0.10021c0.00380321,0.00617726 0.03378,0.0109844 0.0702018,0.0109844 0.0364257,0 0.0664025,-0.00480716 0.0702018,-0.0109844z"></path></g></svg>