<svg fill="#000000" xmlns:dc="http://purl.org/dc/elements/1.1/" xmlns:cc="http://creativecommons.org/ns#" xmlns:rdf="http://www.w3.org/1999/02/22-rdf-syntax-ns#" xmlns:svg="http://www.w3.org/2000/svg" xmlns="http://www.w3.org/2000/svg" xmlns:sodipodi="http://sodipodi.sourceforge.net/DTD/sodipodi-0.dtd" xmlns:inkscape="http://www.inkscape.org/namespaces/inkscape" version="1.1" x="0px" y="0px" viewBox="0 0 100 100"><g transform="translate(0,-952.36218)"><path style="text-indent:0;text-transform:none;direction:ltr;block-progression:tb;baseline-shift:baseline;color:#000000;enable-background:accumulate;" d="m 25.703125,963.06535 0,2.71875 48.3125,0 0,-2.71875 -24.15625,0 -24.15625,0 z m 13.78125,4.40625 c -0.3494,3.59591 -3.37866,6.40625 -7.0625,6.40625 l -7.40625,0 -5.96875,60.34375 18.90625,0.9375 11.0625,-49.90625 0,-17.78125 -9.53125,0 z m 15.96875,0 0,13.65625 c 0,2.67575 -1.91567,4.91326 -4.4375,5.4375 l 10.6875,48.24995 18.9375,-0.9687 -5.9375,-59.96875 -7.40625,0 c -3.68385,0 -6.7131,-2.81034 -7.0625,-6.40625 l -4.78125,0 z m -29.8125,0.0312 -0.1875,1.875 -0.28125,2.78125 7.25,0 c 2.73996,0 4.87707,-2.02586 5.25,-4.65625 l -12.03125,0 z m 25.0625,0 0,17.28125 c 1.72386,-0.39219 3.03125,-1.81277 3.03125,-3.65625 l 0,-13.625 -3.03125,0 z m 11.34375,0 c 0.37293,2.63039 2.51003,4.65625 5.25,4.65625 l 7.25,0 -0.28125,-2.78125 -0.1875,-1.875 -12.03125,0 z m 19.8125,68 -20.03125,1 0.21875,4.75 20.0625,-1 -0.25,-4.75 z m -63.71875,0.3437 -0.25,4.7813 20.0625,1.0312 0.21875,-4.7812 -20.03125,-1.0313 z" fill="#000000" fill-opacity="1" fill-rule="nonzero" stroke="none" marker="none" visibility="visible" display="inline" overflow="visible"></path></g></svg>