<svg height='100px' width='100px'  fill="#000000" xmlns="http://www.w3.org/2000/svg" xmlns:xlink="http://www.w3.org/1999/xlink" version="1.1" x="0px" y="0px" viewBox="0 0 100 100" enable-background="new 0 0 100 100" xml:space="preserve"><g><path d="M70.721,18.599V7.082c0-3.453-3.366-4.586-7.518-4.586H36.466c-4.152,0-7.519,1.134-7.519,4.586v11.517   C16.369,22.769,9.1,29.635,10.543,31.558c1.846,3.164,18.702-3.511,39.291-3.26c20.589-0.251,37.444,6.423,39.291,3.26   C90.568,29.635,83.299,22.769,70.721,18.599z"></path><path d="M92.516,97.504c-0.086-14.222-6.587-26.839-16.622-34.9L69.822,93.19l-6.059-1.203l6.583-33.154   c-0.365-0.208-0.721-0.433-1.093-0.63c-0.078,0.07-0.16,0.136-0.24,0.206L53.625,74.059L50,63.79l-4.625,10.269l-14.387-15.65   c-0.08-0.07-0.162-0.136-0.242-0.207c-0.371,0.197-0.727,0.421-1.092,0.629l6.582,33.155L30.18,93.19l-6.073-30.585   C14.073,70.667,7.572,83.282,7.484,97.504h19.949l-3.441-17.21c0.405-0.119,0.834-0.224,1.248-0.337l3.157,15.898l10.505-2.086   l-3.166-15.948c4.648-0.655,9.621-1.019,14.806-1.019c4.607,0,9.312,0.285,13.765,0.807l-3.209,16.16l10.508,2.086l3.258-16.41   c0.379,0.092,0.777,0.176,1.146,0.272l-3.591,17.786H92.516z"></path><path d="M32.565,87.573c-1.07,0-1.938,0.868-1.938,1.938s0.867,1.937,1.938,1.937c1.07,0,1.937-0.868,1.937-1.937   S33.636,87.573,32.565,87.573z M67.357,87.698c-1.07,0-1.938,0.868-1.938,1.938s0.867,1.937,1.938,1.937   c1.07,0,1.937-0.868,1.937-1.937S68.428,87.698,67.357,87.698z M57.412,81.277H42.256c-1.476,0-2.672,0.907-2.672,2.027   l0.938,7.624l9.312,2l9.312-2l0.938-7.624C60.084,82.184,58.888,81.277,57.412,81.277z"></path><path d="M50,60.328c12.979,0,23.5-10.521,23.5-23.5c0-1.457-0.139-2.88-0.393-4.263c-6.014-1.003-13.33-2.006-21.152-2.006   c-0.369,0-0.742,0.003-1.113,0.007c-0.43-0.004-0.799-0.007-1.172-0.007c-8.562,0-16.523,1.203-22.828,2.291   c-0.221,1.294-0.342,2.622-0.342,3.979C26.5,49.807,37.021,60.328,50,60.328z"></path></g></svg>