<svg fill="#1A1A1A" xmlns="http://www.w3.org/2000/svg" xmlns:xlink="http://www.w3.org/1999/xlink" version="1.1" x="0px" y="0px" viewBox="0 0 48 48" enable-background="new 0 0 48 48" xml:space="preserve"><g><path d="M17.1,24.5C17.1,24.5,17.1,24.5,17.1,24.5L24,38.6l7-14.1c0,0,0-0.1,0-0.1c-1.9,1.8-4.3,2.9-6.9,2.9   C21.4,27.3,19,26.3,17.1,24.5z"></path><path d="M3.7,34.8v7.3c1.8,1.2,3.7,2.2,5.8,3c2.9-11.5,0-16.7-0.6-17.6C5.8,28.8,3.7,31.6,3.7,34.8z"></path><path d="M35,26.9c-1,0-1.9-0.3-2.7-0.8l-7.5,15.2c-0.2,0.3-0.5,0.6-0.9,0.6c-0.4,0-0.7-0.2-0.9-0.6l-7.5-15.2   c-0.7,0.5-1.7,0.8-2.6,0.8c-0.9,0-1.7,0-2,0.3c1.1,2.1,3.2,7.9,0.4,18.7c3.8,1.6,10,2.1,12.6,2.1c2.7,0,10.2-0.6,12.7-2.2   c-2.8-10.8-0.7-16.5,0.4-18.7C36.7,26.9,35.9,26.9,35,26.9z"></path><path d="M39.1,27.6c-0.6,0.9-3.5,6.1-0.6,17.5c2.1-0.9,4-1.9,5.8-3v-7.3C44.3,31.6,42.2,28.9,39.1,27.6z"></path><path d="M13.8,11.9h0.9c-0.1,0.6-0.1,1.1-0.1,1.6c0,6.5,4.2,11.8,9.4,11.8c5.2,0,9.4-5.3,9.4-11.8c0-0.5,0-1.1-0.1-1.6h1   c0.8,0,1.4-0.6,1.4-1.4c0-0.8-0.6-1.4-1.4-1.4h-1C32.9,3.9,30.5,0,27.4,0c-0.6,0-1.1,0.1-1.7,0.4c-1.2,0.6-2.7,0.6-4.1-0.1   C21.2,0.1,20.7,0,20.2,0c-2.9,0-5.2,3.9-5.5,9.2h-1c-0.8,0-1.4,0.6-1.4,1.4C12.4,11.3,13,11.9,13.8,11.9z M31.3,11.9   C31.3,11.9,31.3,11.9,31.3,11.9c0.1,0.6,0.1,1.1,0.1,1.6c0,5.4-3.3,9.8-7.4,9.8c-4.1,0-7.4-4.4-7.4-9.8c0-0.5,0-1.1,0.1-1.6   c0,0,0,0,0,0H31.3z"></path></g></svg>