<svg fill="#000000" xmlns="http://www.w3.org/2000/svg" xmlns:xlink="http://www.w3.org/1999/xlink" version="1.1" x="0px" y="0px" viewBox="0 0 1000 1000" style="enable-background:new 0 0 1000 1000;" xml:space="preserve"><path d="M480.8,1000.1c18.5,0,36.6-1.1,54.6-3.1c3.6-0.3,5.7-0.5,5.7-0.5c-0.5,0-1,0-1.4,0c37.4-4.5,73.5-13.3,107.9-25.7  c0,0-131.5-81.4-137.1-310.2c-0.1,0-0.1,0-0.1,0C345.5,631,402.5,496.1,402.5,496.1c-0.2,0.8-0.3,1.5-0.5,2.3  c-3.8,18.4-23.8,146.1,148.5,138c0,0,111.9,36.3,171.7,77.6c0,0-1.1,60.2,76,77.7c0,0,27.5-18.5,41.3-26.2l10.9,4.3  c0,0,55.8-15.3,69.8-63l-7.5-41.2c0,0,7.3-22.5,23.4-45.5c0,0-14.9-24-40.8-37.2c0,0-45.3-74.8-96.2-130.9  c-50.9-56.1-56.5-78.8-56.4-127c0,0-23.9-35.3-64-47.4c0,0-15-35.7-46.7-70.9c14.2-24.8,32.4-78.8,12.4-177.9  c0,0-6.2,33.5-25.3,60.1c-12.7,17.7-34.5,36.1-48,57.6c15.2,11.9,25.3,30.2,25.3,30.2c-16.3-15.6-39.9-25.1-53.8-29.7  c-3.8-1.2-7.5-2.4-11.4-3.4c8.3-30.7,12.2-76.9-1.3-143.8c0,0-6.2,33.5-25.3,60.1c-12.5,17.4-33.6,35.4-47.1,56.4  c-2,3.2-4.7,8-7.1,13.6c-0.4,1-0.8,1.9-1.2,3c-0.5,1.4-1.1,2.8-1.5,4.2c-0.9,2.7-1.6,5.4-2.2,8.3c-0.1,0.6-0.2,1.3-0.3,1.9  c-0.4,2.2-0.5,4.4-0.6,6.7c0,4.6,0.7,9.1,2.5,13.2c0,0-12.3-11.2-12.7-35c-29.5,0.5-64.7,4.8-100.9,17.9  c-52.8,19.4-75.9,55.4-80.3,63.1c-12,21.6-23,52-22.7,90.6c0.7,83.8,64.4,164.2,55.2,254c0,0-4.6-65.7-36.1-113.7  c-20.3-31.1-58.4-94.7-54.9-156c-12.1,21.6-23.2,52.1-22.9,90.9c0.7,83.8,64.4,164.2,55.2,254c0,0-4.6-65.7-36.1-113.7  c-18.8-28.7-52.7-85.1-55-141.9c-11.2,21.3-20.9,50.4-20.6,86.8c0.7,83.8,64.4,164.2,55.2,254c0,0-4.6-65.7-36.1-113.7  c-11.8-18-29.6-47.1-41.8-80.2c-4,13.5-6.6,29-6.5,46.6c0.6,71.4,54.9,139.9,47,216.4c0,0-4-56-30.7-96.9  c-5.1-7.9-11.6-18.2-18.1-30.2c0,0,3.1,93.5-20.2,177c95,113.5,243.9,148.6,350.2,158.2C435.9,998.4,458.1,1000.1,480.8,1000.1z   M835.2,625.1c3.4,0,6.6,0.5,9.6,1.3c-1.4,0.4-2.8,0.9-4.2,1.6c-17.7,8.2-24.3,31.5-14.8,51.8c2.1,4.4,4.7,8.3,7.8,11.7  c-18.3-0.8-32.9-15.3-32.9-33.2C800.8,640,816.2,625.1,835.2,625.1z M606.7,360.8c0,0,32.2,14.1,19.8,50.9c0,0-19.5,13.1-47.1-5.3  c-21.5-14.3-48-16.5-48-16.5S578.5,361.1,606.7,360.8z"></path></svg>