<svg fill="#000000" xmlns="http://www.w3.org/2000/svg" xmlns:xlink="http://www.w3.org/1999/xlink" xml:space="preserve" version="1.1" style="shape-rendering:geometricPrecision;text-rendering:geometricPrecision;image-rendering:optimizeQuality;" viewBox="0 0 258 289" x="0px" y="0px" fill-rule="evenodd" clip-rule="evenodd"><defs><style type="text/css">
   
    .fil0 {fill:#000000}
   
  </style></defs><g><path class="fil0" d="M7 78c10,-19 27,-46 33,-51 5,-3 11,-7 13,-8l11 18c-7,13 -13,26 -19,39l-38 2z"></path><path class="fil0" d="M0 92c1,-3 3,-7 5,-11l38 -2 -4 8 -39 5z"></path><path class="fil0" d="M96 23c8,13 34,52 40,67 8,19 121,179 121,179 6,9 -19,27 -26,16 0,0 -110,-174 -118,-184 -19,-21 -31,-41 -45,-65 4,-5 9,-11 14,-16 2,0 11,2 14,3z"></path><path class="fil0" d="M80 1l14 19c0,0 -12,-4 -14,-2 -2,2 -15,17 -15,17l-10 -17c0,0 12,-17 15,-18 4,0 10,1 10,1z"></path></g></svg>