<svg fill="#000000" xmlns="http://www.w3.org/2000/svg" xmlns:xlink="http://www.w3.org/1999/xlink" xmlns:a="http://ns.adobe.com/AdobeSVGViewerExtensions/3.0/" version="1.1" x="0px" y="0px" viewBox="-6.985 -0.721 100 100" enable-background="new -6.985 -0.721 100 100" xml:space="preserve"><path d="M89.776,3.259c-2.302-4.197-8.735-3.885-12.161-1.626c-3.388,2.234-6.192,5.605-8.957,8.526  c-2.69,2.843-5.282,5.777-7.963,8.627c-2.825,3.004-5.645,3.678-7.561,6.963c-1.082,1.139-2.122,2.278-3.204,3.416  c-1.006,1.057-1.181,2.695-0.392,3.896c-1.181,1.216-2.348,2.444-3.487,3.697c-2.435,2.678-2.806,5.392-3.318,8.833  c0.174,1.835,0.037,3.682-0.824,5.045c-1.349,2.138-8.221,5.577-7.074,8.302c0.751,1.781-2.153,2.552-2.893,0.797  c-1.414-3.356,2.587-6.478,4.825-8.285c1.931-1.559,3.097-2.503,2.904-5.244c-0.034-0.476-0.086-0.948-0.149-1.419  c-0.345-0.214-0.683-0.44-1.029-0.651c-0.607-0.37-1.211-0.745-1.826-1.102c-0.995-0.576-2.101-1.235-3.258-1.75  c-1.928-0.86-3.994-1.32-5.909-0.331c-0.587,0.304-1.008,0.692-1.309,1.122C20.016,47.848,14.855,55.26,10.32,62.477  c-0.648,1.031-1.283,2.059-1.907,3.076c-5.558,9.073-8.947,18.811-8.345,29.568c0.083,1.487,1.053,3.338,2.718,3.57  c12.192,1.697,24.395-3.589,34.723-9.523c5.838-3.354,11.369-7.258,16.708-11.352c2.772-2.126,6.224-4.315,8.426-7.082  c5.111-6.424-7.577-15.05-12.036-18.335c0.009-0.033,0.024-0.062,0.033-0.094c0.559-2.005,0.746-4.148,1.055-6.202  c0.135-0.891,0.288-1.775,0.469-2.658c0.006-0.026,0.007-0.042,0.012-0.066c0.068-0.068,0.146-0.15,0.241-0.258  c1.171-1.336,2.403-2.624,3.652-3.895c1.153,0.528,2.536,0.321,3.513-0.6c1.024-0.966,2.051-1.932,3.075-2.897  c-1.49,1.405,0.043,0.222,0.906-0.094c0.936-0.342,1.911-0.761,2.629-1.479c1.622-1.623,2.75-3.909,4.307-5.643  c1.448-1.613,3.27-2.964,4.935-4.339C81.262,19.362,95.054,12.882,89.776,3.259z M83.461,9.846  c-0.881,0.945-2.078,1.509-3.203,1.509c-0.77,0-1.45-0.255-1.969-0.737c-1.313-1.224-1.132-3.562,0.404-5.211  c0.881-0.945,2.078-1.509,3.203-1.509c0.77,0,1.45,0.255,1.969,0.737C85.179,5.858,84.997,8.196,83.461,9.846z"></path></svg>