<svg fill="#000000" xmlns="http://www.w3.org/2000/svg" xmlns:xlink="http://www.w3.org/1999/xlink" version="1.1" x="0px" y="0px" viewBox="0 0 100 100" style="enable-background:new 0 0 100 100;" xml:space="preserve"><g><path d="M95.1,45.2l-47.5-2.9L8.9,3.6c-0.8-0.8-2-0.8-2.8,0L3.6,6c-0.8,0.8-0.8,2,0,2.8L42,47.3l3.4,47.8c0.1,1.1,1,1.9,2,1.9   c0,0,0.1,0,0.1,0c1.1-0.1,1.9-1,1.9-2.1l-1.3-18.4c0.1-0.1,0.2-0.1,0.2-0.2l1.6-1.6l3.5,12.9c0.3,1.1,1.4,1.7,2.4,1.4   c1.1-0.3,1.7-1.4,1.4-2.4l-4.1-15.2l2.3-2.3L61.6,80c0.4,0.7,1,1,1.7,1c0.3,0,0.7-0.1,1-0.3c1-0.5,1.3-1.8,0.8-2.7l-6.7-11.9   l2.4-2.4l9,8.8c0.1,0.1,0.2,0.2,0.3,0.3c0,0,0.1,0,0.1,0.1c0.1,0,0.1,0.1,0.2,0.1c0.1,0,0.1,0,0.2,0.1c0.1,0,0.1,0,0.2,0.1   c0.1,0,0.1,0,0.2,0c0.1,0,0.1,0,0.2,0c0,0,0,0,0,0c0.1,0,0.2,0,0.3,0c0,0,0.1,0,0.1,0c0.1,0,0.2-0.1,0.3-0.1c0,0,0.1,0,0.1,0   c0.1,0,0.2-0.1,0.3-0.2c0,0,0,0,0.1,0c0.1-0.1,0.2-0.2,0.3-0.3c0.8-0.8,0.8-2.1,0-2.8l-9-8.8l2.4-2.4l12.1,6.5   c1,0.5,2.2,0.2,2.7-0.8c0.5-1,0.2-2.2-0.8-2.7l-11-6l2.3-2.3L86.7,57c0.2,0,0.3,0.1,0.5,0.1c0.9,0,1.7-0.6,1.9-1.5   c0.3-1.1-0.4-2.2-1.4-2.4l-13-3.3l1.5-1.5c0.1-0.1,0.1-0.2,0.2-0.2l18.5,1.1c1.1,0.1,2-0.8,2.1-1.9S96.2,45.2,95.1,45.2z    M47.7,71.2l-0.5-6.3l1.4,5.3L47.7,71.2z M52,66.9L49.9,59l3.6,6.4L52,66.9z M56.4,62.5l-4-7.1l5.6,5.5L56.4,62.5z M60.8,58   l-5.6-5.5l7.2,3.9L60.8,58z M65.4,53.5L58.9,50l8,2L65.4,53.5z M70.1,48.7l-5.3-1.3l6.2,0.4L70.1,48.7z"></path></g></svg>