<svg fill="#000000" xmlns="http://www.w3.org/2000/svg" data-name="Layer 1" viewBox="0 0 94 55.61" x="0px" y="0px"><title>13</title><path d="M81.35,34.2C73.31,28.86,54,27.93,49.86,28c-8.54.17-27.77,2.6-33.35,7.42-8.28,7.16,3.07,13.22,3.07,13.22S25.56,43,50,43c25.17,0,30.16,5.65,30.16,5.65S92.74,41.75,81.35,34.2Z" transform="translate(-3 -22.19)"></path><path d="M95.8,39.51C92.94,25,62,22.19,49.87,22.19S7,25,3.92,39.51a45,45,0,0,0,0,18.14S7.59,77.81,49.86,77.81,95.8,57.65,95.8,57.65,98.51,53.31,95.8,39.51ZM10.09,58.14c-1,0-1.87-1.36-1.87-3s.84-3,1.87-3S12,53.43,12,55.1,11.12,58.14,10.09,58.14ZM26.55,68.66a3.58,3.58,0,0,1,0-7.11,3.58,3.58,0,0,1,0,7.11ZM49.8,71.29a3.55,3.55,0,1,1,3.55-3.55A3.55,3.55,0,0,1,49.8,71.29ZM73,68.66a3.59,3.59,0,1,1,3.1-3.55A3.35,3.35,0,0,1,73,68.66ZM68.23,55.61a83.12,83.12,0,0,1-36.75,0c-9.35-2.12-19-6-20.37-13.24C8.45,28,39.52,25.83,49.87,25.83S91.26,28,88.6,42.37C87.27,49.57,77.59,53.49,68.23,55.61Zm21.15,2.53c-1,0-1.87-1.36-1.87-3s.84-3,1.87-3,1.87,1.36,1.87,3S90.42,58.14,89.39,58.14Z" transform="translate(-3 -22.19)"></path></svg>