<svg fill="#000000" xmlns="http://www.w3.org/2000/svg" xmlns:xlink="http://www.w3.org/1999/xlink" version="1.1" x="0px" y="0px" viewBox="0 0 100 100" enable-background="new 0 0 100 100" xml:space="preserve"><g><path d="M43.311,44.105c0.449,0,0.674,0.023,0.674,0.023c0.01-0.003,0.019-0.004,0.028-0.004c0.1,0,0.209,0.127,0.258,0.307   c0.052,0.195,0.009,0.377-0.097,0.404c0,0-2.42,1.79-8.828,3.514c-4.882,1.312-7.906,1.47-9.085,1.47   c-0.375,0-0.562-0.017-0.562-0.017c-0.012,0.004-0.021,0.005-0.03,0.005c-0.099,0-0.21-0.128-0.258-0.307   c-0.052-0.194-0.009-0.376,0.097-0.404c0,0,2.536-1.821,9.077-3.579C39.207,44.273,42.092,44.105,43.311,44.105 M43.311,41.417   c-1.432,0-4.561,0.195-9.426,1.504c-6.043,1.626-8.954,3.338-9.744,3.854c-0.426,0.244-0.781,0.599-1.038,1.037   c-0.408,0.703-0.51,1.549-0.291,2.379c0.369,1.381,1.518,2.305,2.857,2.305h0.017c0.134,0.006,0.326,0.012,0.575,0.012   c1.482,0,4.724-0.203,9.782-1.562c5.876-1.58,8.702-3.258,9.508-3.793c1.124-0.648,1.69-2.025,1.317-3.42   c-0.369-1.367-1.507-2.288-2.837-2.296C43.867,41.427,43.628,41.417,43.311,41.417L43.311,41.417z"></path><path d="M21.55,57.516c1.6,0,3.941,0.137,7.082,0.648c6.469,1.055,9.139,2.607,9.139,2.607c0.107,0.018,0.169,0.193,0.136,0.393   c-0.03,0.188-0.134,0.33-0.238,0.33c-0.005,0-0.013,0-0.018,0c0,0-0.865,0.186-2.704,0.186c-1.549,0-3.791-0.133-6.787-0.621   c-6.576-1.074-9.389-2.648-9.389-2.648c-0.107-0.016-0.169-0.193-0.138-0.395c0.031-0.186,0.134-0.328,0.236-0.328   c0.007,0,0.013,0,0.018,0C18.887,57.688,19.748,57.516,21.55,57.516 M21.55,54.828L21.55,54.828c-1.564,0-2.538,0.117-2.967,0.186   c-1.303,0.133-2.375,1.172-2.604,2.568c-0.137,0.855,0.05,1.688,0.527,2.348c0.301,0.416,0.695,0.734,1.15,0.934   c0.831,0.424,3.952,1.85,10.069,2.848c2.67,0.438,5.099,0.658,7.22,0.658c1.598,0,2.593-0.129,3.034-0.203   c1.295-0.145,2.354-1.182,2.579-2.572c0.231-1.43-0.476-2.744-1.665-3.271c-0.848-0.443-3.866-1.84-9.828-2.812   C26.285,55.057,23.756,54.828,21.55,54.828L21.55,54.828z"></path><path d="M41.671,34.167c0.097,0,0.211,0.118,0.269,0.286c0.068,0.191,0.041,0.375-0.064,0.412c0,0-2.279,1.965-8.539,4.166   c-6.104,2.146-9.32,2.178-9.502,2.178c-0.006,0-0.008,0-0.008,0c-0.013,0.004-0.025,0.006-0.037,0.006   c-0.098,0-0.213-0.117-0.271-0.286c-0.068-0.19-0.039-0.375,0.065-0.411c0,0,2.393-2.006,8.781-4.252   c5.752-2.022,8.823-2.093,9.222-2.093c0.03,0,0.045,0.001,0.045,0.001C41.645,34.169,41.658,34.167,41.671,34.167 M41.671,31.479   h-0.46l-0.053,0.018c-1.209,0.059-4.464,0.397-9.686,2.232c-5.9,2.074-8.672,4-9.426,4.576c-0.406,0.276-0.738,0.658-0.959,1.116   c-0.351,0.726-0.388,1.603-0.104,2.405c0.438,1.258,1.541,2.078,2.805,2.078h0.463l0.072-0.025   c1.262-0.075,4.612-0.451,9.904-2.311c5.765-2.027,8.453-3.92,9.203-4.505c0.398-0.276,0.724-0.653,0.942-1.106   c0.351-0.733,0.388-1.584,0.103-2.396C44.036,32.298,42.933,31.479,41.671,31.479L41.671,31.479z"></path><path d="M80.355,44.961c0.059,0,0.107,0.018,0.131,0.056c0,0,2.576,1.769,6.449,7.321c3.75,5.379,4.494,8.373,4.494,8.373   c0.062,0.088-0.021,0.256-0.186,0.371c-0.098,0.066-0.201,0.102-0.281,0.102c-0.059,0-0.107-0.018-0.133-0.055   c0,0-2.504-1.67-6.301-7.113c-3.811-5.466-4.643-8.581-4.643-8.581c-0.061-0.089,0.023-0.256,0.189-0.372   C80.172,44.996,80.275,44.961,80.355,44.961 M80.357,42.271c-0.646,0-1.277,0.205-1.826,0.591   c-1.189,0.827-1.643,2.265-1.174,3.495c0.279,0.906,1.438,4.133,4.967,9.195c3.533,5.066,6.092,7.143,6.826,7.68   c0.5,0.41,1.141,0.641,1.812,0.641c0.645,0,1.277-0.205,1.828-0.594c1.176-0.816,1.631-2.24,1.182-3.463   c-0.271-0.91-1.369-4.051-4.832-9.016c-3.611-5.178-6.225-7.327-6.953-7.872C81.684,42.51,81.037,42.271,80.357,42.271   L80.357,42.271z"></path><path d="M79.965,67.617c1.432,0,3.232,0.082,5.428,0.326c6.518,0.723,9.26,2.135,9.26,2.135c0.109,0.012,0.18,0.184,0.154,0.385   c-0.021,0.193-0.117,0.344-0.223,0.344c-0.006,0-0.01,0-0.014-0.002c0,0-1.352,0.365-4.299,0.365c-1.377,0-3.104-0.08-5.203-0.312   c-6.623-0.736-9.514-2.162-9.514-2.162c-0.107-0.012-0.178-0.186-0.156-0.387c0.021-0.193,0.121-0.342,0.225-0.342   c0.004,0,0.008,0,0.014,0C75.637,67.967,77.012,67.617,79.965,67.617 M79.965,64.928L79.965,64.928   c-2.635,0-4.197,0.266-4.764,0.383c-1.295,0.199-2.328,1.301-2.477,2.719c-0.092,0.822,0.143,1.668,0.646,2.295   c0.322,0.402,0.734,0.701,1.201,0.877c0.854,0.383,4.045,1.645,10.199,2.328c1.967,0.219,3.816,0.328,5.5,0.328   c2.623,0,4.152-0.264,4.75-0.396c1.295-0.199,2.297-1.271,2.457-2.695c0.062-0.541-0.008-1.086-0.205-1.574   c-0.301-0.74-0.877-1.311-1.582-1.598c-0.812-0.379-3.898-1.646-10.002-2.324C83.643,65.043,81.719,64.928,79.965,64.928   L79.965,64.928z"></path><path d="M39.702,53.072c0.017,0,0.033,0.004,0.048,0.012c0,0,3.113,0.244,9.246,3.115c5.938,2.781,8.08,5,8.08,5   c0.1,0.047,0.109,0.234,0.023,0.416c-0.072,0.154-0.188,0.258-0.285,0.258c-0.016,0-0.033-0.002-0.049-0.01   c0,0-3.004-0.193-9.017-3.008c-6.032-2.828-8.309-5.109-8.309-5.109c-0.101-0.047-0.109-0.232-0.024-0.416   C39.488,53.176,39.605,53.072,39.702,53.072 M39.702,50.385c-1.161,0-2.204,0.695-2.726,1.814c-0.36,0.77-0.408,1.621-0.13,2.387   c0.176,0.484,0.471,0.9,0.855,1.217c0.685,0.637,3.297,2.857,8.908,5.486c5.558,2.604,8.808,3.131,9.737,3.234   c0.154,0.025,0.309,0.039,0.467,0.039c1.15,0,2.191-0.688,2.717-1.795c0.369-0.789,0.418-1.641,0.139-2.406   c-0.172-0.477-0.461-0.887-0.834-1.201c-0.684-0.648-3.203-2.82-8.7-5.395c-5.717-2.68-9.056-3.232-9.959-3.34   C40.02,50.398,39.861,50.385,39.702,50.385L39.702,50.385z"></path><path d="M48.135,66.525c0.164,0,0.245,0.004,0.245,0.004c0.01-0.004,0.021-0.004,0.033-0.004c0.097,0,0.21,0.121,0.264,0.295   c0.062,0.193,0.026,0.375-0.079,0.408c0,0-2.348,1.887-8.683,3.865c-5.542,1.732-8.702,1.844-9.422,1.844   c-0.105,0-0.157-0.002-0.157-0.002c-0.012,0.004-0.022,0.004-0.034,0.004c-0.097,0-0.209-0.123-0.263-0.295   c-0.062-0.193-0.024-0.377,0.079-0.408c0,0,2.463-1.922,8.925-3.941C44.281,66.658,47.293,66.525,48.135,66.525 M48.135,63.836   c-0.015,0-0.029,0-0.042,0h-0.089h-0.002c-1.259,0.016-4.49,0.246-9.762,1.893c-5.977,1.867-8.815,3.697-9.582,4.244   c-0.418,0.262-0.763,0.633-0.998,1.084c-0.379,0.723-0.443,1.572-0.188,2.393c0.408,1.303,1.545,2.18,2.829,2.18h0.418l0.019-0.006   c1.196-0.027,4.568-0.271,9.98-1.963c5.813-1.816,8.568-3.607,9.347-4.174c1.1-0.693,1.61-2.09,1.178-3.467   c-0.403-1.303-1.542-2.184-2.831-2.184h-0.237C48.163,63.836,48.148,63.836,48.135,63.836L48.135,63.836z"></path><path d="M17.785,46.166c0.082,0,0.182,0.034,0.276,0.099c0.171,0.112,0.258,0.276,0.196,0.368c0,0-0.644,2.94-4.334,8.455   c-3.703,5.539-6.303,7.447-6.303,7.447c-0.026,0.039-0.074,0.057-0.136,0.057c-0.082,0-0.184-0.033-0.278-0.098   c-0.169-0.111-0.256-0.277-0.195-0.367c0,0,0.713-3.041,4.476-8.67c3.646-5.447,6.162-7.232,6.162-7.232   C17.676,46.186,17.726,46.166,17.785,46.166 M17.785,43.479L17.785,43.479c-0.697,0-1.356,0.246-1.865,0.683   c-0.714,0.551-3.258,2.708-6.666,7.8c-3.521,5.266-4.568,8.486-4.808,9.35c-0.237,0.727-0.175,1.537,0.198,2.246   c0.247,0.467,0.616,0.873,1.07,1.174c0.533,0.359,1.146,0.551,1.771,0.551c0.707,0,1.375-0.254,1.887-0.701   c0.7-0.555,3.311-2.797,6.788-7.996c3.386-5.064,4.408-8.189,4.66-9.117c0.42-1.229-0.064-2.64-1.269-3.439   C19.032,43.672,18.414,43.479,17.785,43.479L17.785,43.479z"></path><path d="M72.125,40.629c0.078,0,0.18,0.031,0.271,0.092c0.172,0.109,0.262,0.271,0.201,0.365c0,0-0.652,3.055-4.307,8.753   c-3.539,5.517-6.021,7.351-6.021,7.351c-0.027,0.041-0.078,0.061-0.141,0.061c-0.08,0-0.18-0.033-0.275-0.094   c-0.17-0.109-0.262-0.271-0.199-0.365c0,0,0.586-2.951,4.17-8.537c3.596-5.607,6.158-7.564,6.158-7.564   C72.01,40.648,72.059,40.629,72.125,40.629 M72.125,37.939c-0.738,0-1.426,0.271-1.943,0.749c-0.711,0.585-3.264,2.881-6.621,8.114   c-3.299,5.141-4.256,8.287-4.486,9.211c-0.146,0.465-0.17,0.965-0.061,1.459c0.174,0.797,0.672,1.49,1.398,1.953   c0.512,0.33,1.111,0.512,1.717,0.512c0.723,0,1.402-0.264,1.918-0.727c0.713-0.574,3.211-2.783,6.508-7.92   c3.359-5.241,4.369-8.461,4.613-9.395c0.41-1.239-0.094-2.649-1.314-3.436C73.324,38.12,72.727,37.939,72.125,37.939L72.125,37.939   z"></path><path d="M48.324,34.167c0.095,0,0.167,0.03,0.193,0.091c0,0,2.14,2.271,4.756,8.518c2.527,6.048,2.627,9.133,2.627,9.133   c0.041,0.1-0.076,0.244-0.264,0.322c-0.078,0.033-0.156,0.049-0.221,0.049c-0.096,0-0.168-0.031-0.193-0.09   c0,0-2.096-2.161-4.657-8.284c-2.57-6.146-2.724-9.366-2.724-9.366c-0.043-0.102,0.074-0.246,0.262-0.324   C48.18,34.183,48.258,34.167,48.324,34.167 M48.324,31.479c-0.427,0-0.848,0.086-1.254,0.254c-0.793,0.329-1.401,0.926-1.711,1.678   c-0.196,0.479-0.26,0.988-0.188,1.482c0.08,0.928,0.521,4.33,2.915,10.051c2.377,5.686,4.44,8.258,5.046,8.945   c0.539,0.672,1.369,1.08,2.283,1.08c0.432,0,0.857-0.088,1.27-0.262c1.322-0.551,2.066-1.846,1.889-3.137   c-0.074-0.947-0.484-4.248-2.82-9.832c-2.436-5.82-4.533-8.473-5.133-9.161C50.085,31.893,49.246,31.479,48.324,31.479   L48.324,31.479z"></path><path d="M48.541,25.593c0.812,0,1.697,0.021,2.664,0.067c6.656,0.328,9.627,1.575,9.627,1.575c0.109,0.006,0.191,0.175,0.182,0.376   c-0.014,0.197-0.104,0.354-0.211,0.354c-0.002,0-0.004,0-0.006,0c0,0-2.158,0.692-6.975,0.692c-0.84,0-1.758-0.021-2.764-0.069   c-6.547-0.323-9.373-1.563-9.373-1.563c-0.109-0.006-0.188-0.176-0.178-0.377c0.009-0.197,0.102-0.355,0.211-0.355   c0,0,0.004,0,0.006,0C41.725,26.293,43.807,25.593,48.541,25.593 M48.541,22.904c-4.326,0-6.699,0.559-7.439,0.77   c-1.268,0.289-2.226,1.445-2.281,2.87c-0.074,1.423,0.777,2.651,2.024,3.041c0.896,0.346,4.053,1.392,10.081,1.688   c0.997,0.049,1.971,0.074,2.897,0.074c4.357,0,6.775-0.541,7.545-0.749c1.285-0.261,2.248-1.393,2.33-2.835   c0.072-1.475-0.791-2.711-2.045-3.094c-0.889-0.332-4.146-1.392-10.314-1.694C50.378,22.928,49.438,22.904,48.541,22.904   L48.541,22.904z"></path><path d="M72.719,32.682c0.096,0,0.213,0.113,0.275,0.277c0.07,0.188,0.051,0.373-0.053,0.412c0,0-2.324,2.088-8.633,4.547   c-6.105,2.38-9.193,2.401-9.193,2.401c-0.014,0.005-0.025,0.008-0.041,0.008c-0.096,0-0.211-0.114-0.275-0.278   c-0.076-0.188-0.051-0.372,0.053-0.412c0,0,2.211-2.043,8.396-4.451c6.207-2.42,9.428-2.496,9.428-2.496   C72.689,32.685,72.703,32.682,72.719,32.682 M72.719,29.993h-0.502l-0.105,0.04c-1.225,0.107-4.535,0.579-9.842,2.646   c-5.686,2.215-8.311,4.195-9.043,4.809c-0.396,0.291-0.709,0.683-0.912,1.146c-0.324,0.741-0.328,1.62-0.01,2.414   c0.455,1.184,1.549,1.967,2.77,1.967h0.508l0.096-0.035c1.232-0.099,4.443-0.545,9.607-2.558c5.803-2.262,8.512-4.272,9.258-4.884   c1.055-0.759,1.479-2.188,0.963-3.539C75.033,30.777,73.941,29.993,72.719,29.993L72.719,29.993z"></path><path d="M15.716,68.264c6.094,0,8.797,0.994,8.797,0.994s0,0,0.002,0c0.108,0,0.197,0.164,0.198,0.365   c0.002,0.203-0.081,0.367-0.194,0.367c0,0-2.789,1.131-9.424,1.209c-0.232,0.002-0.458,0.004-0.681,0.004   c-6.19,0-9.025-0.992-9.025-0.992c-0.002,0-0.002,0-0.002,0c-0.107,0-0.196-0.164-0.198-0.365   c-0.004-0.201,0.083-0.367,0.192-0.367c0,0,2.912-1.133,9.683-1.213C15.284,68.264,15.503,68.264,15.716,68.264 M15.716,65.574   c-0.224,0-0.452,0-0.685,0.004c-6.249,0.072-9.494,1.006-10.395,1.312c-0.475,0.131-0.912,0.387-1.271,0.752   c-0.565,0.578-0.882,1.398-0.866,2.25c0.013,1.438,0.947,2.621,2.227,2.928c0.868,0.268,3.969,1.07,9.688,1.07   c0.231,0,0.469,0,0.71-0.004c6.112-0.07,9.267-1,10.163-1.314c0.469-0.133,0.899-0.389,1.252-0.75   c0.568-0.582,0.874-1.375,0.863-2.234c-0.006-1.438-0.932-2.621-2.207-2.936C24.316,66.373,21.309,65.574,15.716,65.574   L15.716,65.574z"></path><path d="M61.594,71.475c0.059,0,0.115,0,0.174,0c6.555,0.02,9.436,1.127,9.436,1.127c0.109,0,0.195,0.164,0.195,0.367   s-0.088,0.365-0.197,0.365l0,0c0,0-2.758,1.072-9.271,1.072c-0.057,0-0.113,0-0.172,0c-6.664-0.02-9.689-1.127-9.689-1.127   c-0.109,0-0.199-0.166-0.197-0.367c0-0.203,0.09-0.365,0.197-0.365c0.002,0,0.002,0,0.002,0S54.947,71.475,61.594,71.475    M61.594,68.785L61.594,68.785c-6.117,0-9.32,0.869-10.223,1.16c-1.268,0.322-2.184,1.504-2.189,2.955   c-0.004,0.861,0.31,1.654,0.886,2.23c0.365,0.367,0.809,0.621,1.292,0.746c0.889,0.287,4.195,1.201,10.391,1.219h0.18   c5.961,0,9.076-0.861,9.986-1.164c1.262-0.328,2.172-1.512,2.172-2.963c0.002-0.531-0.129-1.064-0.375-1.525   c-0.377-0.707-1.012-1.213-1.744-1.422c-0.846-0.289-4.053-1.217-10.193-1.236H61.594L61.594,68.785z"></path><path d="M79.545,58.477c0.094,0,0.211,0.111,0.277,0.275c0.074,0.188,0.055,0.371-0.049,0.412c0,0-2.197,2.059-8.361,4.514   c-6.191,2.465-9.414,2.564-9.414,2.564c-0.012,0.004-0.027,0.008-0.041,0.008c-0.098,0-0.215-0.113-0.277-0.275   c-0.076-0.188-0.053-0.373,0.049-0.412c0,0,2.311-2.105,8.598-4.609c6.092-2.424,9.178-2.469,9.178-2.469   C79.516,58.479,79.529,58.477,79.545,58.477 M79.545,55.787h-0.516l-0.105,0.039c-1.229,0.107-4.439,0.578-9.59,2.629   c-5.814,2.314-8.506,4.354-9.23,4.959c-0.396,0.293-0.709,0.686-0.912,1.15c-0.324,0.748-0.328,1.6-0.014,2.4   c0.479,1.199,1.566,1.973,2.779,1.973h0.52l0.117-0.045c1.23-0.117,4.535-0.615,9.812-2.717c5.674-2.26,8.285-4.26,9.01-4.877   c0.391-0.293,0.697-0.684,0.898-1.145c0.322-0.75,0.324-1.602,0.004-2.402C81.842,56.559,80.752,55.787,79.545,55.787   L79.545,55.787z"></path></g></svg>