<svg fill="#000000" xmlns="http://www.w3.org/2000/svg" xmlns:xlink="http://www.w3.org/1999/xlink" version="1.1" x="0px" y="0px" viewBox="0 0 100 100" style="enable-background:new 0 0 100 100;" xml:space="preserve"><g><path d="M68.27025,91.04371c-7.84095,0-17.2727-1.20071-28.36009-3.60016c-12.95035-2.81999-20.22731-6.6481-22.24748-11.70444   c-1.02679-2.57041-0.68584-5.34521,1.01205-8.2615c-1.13979-1.91995-1.56131-3.77505-1.25082-5.52993   c0.26726-1.5171,1.07199-2.90646,2.39847-4.14844c-2.22848-3.18354-1.98284-6.63632,0.72219-9.9476   c-1.98972-3.38596-1.62518-6.62256,1.04448-9.32661c-1.62911-2.60186-1.66252-5.42382-0.09334-8.28312   c-1.07297-1.63304-1.63403-3.45081-1.67726-5.4307c-1.87377-0.10121-3.70922-0.18276-5.50341-0.24564   c-0.64359-0.02358-1.21938-0.40482-1.49155-0.98749c-3.32012-7.12662-1.16926-11.63566,1.21938-14.16285   c0.39696-0.42349,0.98356-0.61608,1.55444-0.50799c5.81095,1.07199,23.28115,3.42722,51.92423,7.00184   c10.95965,0.32622,19.06786,0.94917,23.93948,1.83938c0.24761,0.0452,0.48147,0.14444,0.68584,0.29084   c3.36631,2.40338,4.41963,5.47983,3.0676,8.79995c2.84357,1.45912,4.39408,3.1973,4.72226,5.28331   c0.33212,2.1145-0.64064,4.26929-2.96935,6.55378c1.13783,1.65073,1.61536,3.29163,1.42278,4.89323   c-0.18669,1.54461-0.98847,2.98408-2.38963,4.29779c1.02777,1.24591,1.54854,2.56059,1.55444,3.92637   c0.00589,1.63304-0.73693,3.25233-2.21276,4.83231c0.97078,1.33041,1.466,2.74139,1.47386,4.21132   c0.00786,1.91799-0.82733,3.86545-2.48592,5.79917c1.51906,3.19534,1.06904,6.39264-1.28914,9.22442   c1.50334,1.96909,1.51906,3.87331,1.20464,5.22337c-0.05305,0.226-0.15131,0.44019-0.29084,0.62885   C89.35043,87.94073,80.86491,91.04371,68.27025,91.04371z M23.25255,25.01264c0.08843,1.5112,0.6259,2.84652,1.62321,4.05116   c0.48736,0.58856,0.52568,1.42867,0.09433,2.0585c-1.66448,2.42893-1.59669,4.44026,0.2201,6.52136   c0.31049,0.35569,0.46083,0.82438,0.41366,1.29503c-0.04716,0.47066-0.28691,0.90004-0.66127,1.18793   c-2.6618,2.04081-2.9212,4.09341-0.86565,6.86329c0.5021,0.677,0.43626,1.61929-0.15426,2.21964   c-2.7689,2.81606-2.90253,5.1035-0.44511,7.65034c0.3498,0.36355,0.52175,0.86074,0.47164,1.35989   c-0.05109,0.50111-0.31835,0.95506-0.733,1.24001c-1.41786,0.97472-2.23241,2.01232-2.42205,3.08332   c-0.19651,1.11228,0.2427,2.43286,1.30683,3.92638c0.41465,0.58168,0.42349,1.36185,0.02162,1.95336   c-1.56524,2.30708-1.9848,4.286-1.28128,6.04677c1.06216,2.65688,5.35799,6.485,19.79497,9.62924   c26.73982,5.78738,43.67157,4.39801,50.33736-4.11896c0.06682-0.56792-0.01965-1.60553-1.41884-2.85733   c-0.35766-0.32228-0.56596-0.7782-0.56989-1.25966s0.19455-0.94328,0.54828-1.26949   c2.51736-2.33459,2.91628-4.65741,1.25377-7.30643c-0.42251-0.67601-0.32425-1.5564,0.23975-2.1204   c1.57605-1.57605,2.37194-3.02633,2.36604-4.3135c-0.0059-1.04153-0.53255-2.06145-1.61339-3.12066   c-0.3439-0.33801-0.52863-0.80571-0.51094-1.28717s0.23779-0.93148,0.60526-1.24198   c1.03368-0.87252,2.26189-2.16756,2.25797-3.39578c-0.00394-0.85189-0.60527-1.78239-1.79025-2.76595   c-0.41465-0.3439-0.64261-0.86074-0.61706-1.3982c0.02554-0.53649,0.30263-1.02974,0.74676-1.33237   c1.54854-1.05529,2.39552-2.1145,2.51933-3.14915c0.12183-1.01009-0.42645-2.19802-1.62911-3.53236   c-0.31049-0.34489-0.4677-0.8008-0.43626-1.2636c0.03144-0.46279,0.25154-0.89218,0.60526-1.19088   c2.12826-1.79124,3.20123-3.39677,3.02437-4.52182c-0.16507-1.05037-1.49352-2.16854-3.7613-3.17765   c-4.90895,1.53085-13.84253,1.62125-27.25272,0.27217C49.93244,27.39735,35.7686,25.81246,23.25255,25.01264z M21.78164,21.49306   c13.02503,0.76838,27.84817,2.39749,44.18546,4.85982c12.68309,1.27047,21.36317,1.23117,25.75528-0.12675   c1.14961-2.07422,0.76641-3.62079-1.2636-5.18014c-4.74584-0.8234-12.54749-1.4041-23.20058-1.72835   c-27.41584-3.41347-44.61092-5.71957-51.30521-6.87115c-1.73818,2.29726-1.88262,5.1713-0.44019,8.73805   c1.99954,0.07861,4.04625,0.17883,6.14012,0.30165C21.69517,21.48716,21.7384,21.48913,21.78164,21.49306z"></path><path d="M84.4297,40.34476c-25.27185,0-45.91381-2.87895-61.46111-8.5828c-0.88727-0.32523-1.3422-1.30879-1.01697-2.19606   c0.32622-0.88727,1.30781-1.34613,2.19606-1.01697c17.18918,6.30617,40.8899,9.079,70.43596,8.22416   c0.9472-0.00098,1.73327,0.71826,1.75881,1.66154c0.02751,0.94426-0.71532,1.73228-1.66055,1.75979   C91.18392,40.29465,87.76653,40.34476,84.4297,40.34476z"></path><path d="M76.28021,50.34836c-18.78292,0-36.55281-3.3437-53.0198-9.99279c-0.87646-0.35373-1.29995-1.35104-0.94622-2.2275   c0.35471-0.87646,1.34908-1.29897,2.2275-0.94622c20.92985,8.45113,44.05085,11.42146,68.7135,8.84122   c0.94917-0.11496,1.78043,0.58463,1.88065,1.52398c0.09826,0.93934-0.58365,1.78141-1.52299,1.87967   C87.74884,50.04082,81.96539,50.34836,76.28021,50.34836z"></path><path d="M73.09077,59.64452c-17.59204,0-34.68788-3.36041-51.03696-10.05077c-0.87449-0.35766-1.29307-1.35694-0.93541-2.23241   c0.35766-0.87351,1.35497-1.29209,2.23241-0.93541c21.9537,8.98369,45.29872,11.80958,69.38755,8.39021   c0.92165-0.13363,1.80205,0.5188,1.93371,1.45421c0.13363,0.93541-0.5188,1.80204-1.45421,1.93371   C86.44791,59.16502,79.73298,59.64452,73.09077,59.64452z"></path><path d="M72.31847,69.19122c-19.02464,0-36.03008-3.20123-50.75201-9.57225c-0.86663-0.37534-1.26556-1.3815-0.89021-2.2501   c0.37338-0.8686,1.37659-1.26949,2.2501-0.89021c19.17988,8.3008,42.44335,11.05397,69.12814,8.19664   c0.9472-0.08843,1.78239,0.57972,1.88458,1.51907c0.10023,0.93934-0.57972,1.78436-1.51906,1.88458   C85.4948,68.82178,78.78774,69.19122,72.31847,69.19122z"></path><path d="M66.79246,80.11747c-16.42867,0-32.11255-3.7161-46.85413-11.12669c-0.84501-0.42447-1.18499-1.45225-0.76051-2.29726   c0.42546-0.84501,1.45028-1.18498,2.29726-0.76051c21.14012,10.62361,44.30926,13.39448,68.86974,8.23988   c0.92362-0.19848,1.83349,0.39893,2.02607,1.32255c0.19455,0.92558-0.39696,1.83152-1.32255,2.02607   C82.80648,79.2528,74.71202,80.11747,66.79246,80.11747z"></path><path d="M43.69799,91.12231c-19.85688,0-32.6903-3.1128-39.03774-9.4229c-3.26215-3.24447-4.77139-7.32019-4.48644-12.11517   C0.57273,54.0458,0.49904,37.19953,0.0107,32.85753c-0.09236-0.82635,0.42153-1.60062,1.22036-1.83349   c2.57631-0.75658,9.90338-0.90888,13.15276,0.2594c0.77918,0.28102,1.24591,1.07887,1.10736,1.89539   c-1.40803,8.34109-2.58614,29.42717-2.65296,35.80605c1.98873,2.79248,4.48841,4.67706,7.62577,5.7579   c0.89414,0.30656,1.36971,1.27931,1.06216,2.17346c-0.30656,0.89414-1.28324,1.37757-2.17444,1.06118   c-3.96961-1.36382-7.21505-3.891-9.64791-7.50688c-0.18964-0.28298-0.29183-0.61509-0.29183-0.95506   c0-5.56728,1.07297-25.6413,2.46234-35.34424c-2.38864-0.4117-6.08313-0.39696-8.33028-0.11594   c0.39008,6.08018,0.42153,21.17156,0.04913,35.67439c-0.22992,3.88314,0.90888,6.98611,3.48028,9.54278   c7.07062,7.02738,24.67248,9.6823,52.30841,7.8724c0.97275-0.06289,1.75684,0.65243,1.81973,1.5957   c0.06092,0.94328-0.65243,1.75881-1.5957,1.81973C53.87551,90.93366,48.57353,91.12231,43.69799,91.12231z"></path><path d="M53.84604,28.10284c-0.36552,0-0.733-0.11693-1.04546-0.35766c-0.74676-0.57874-0.88432-1.65368-0.30656-2.40141   c1.97301-2.54978,2.32085-5.38452,1.06708-8.66632c-0.33801-0.88235,0.10415-1.87181,0.98651-2.20981   c0.87449-0.33408,1.87279,0.10317,2.20883,0.98749c1.69396,4.42749,1.17123,8.459-1.55444,11.9835   C54.86398,27.8739,54.35894,28.10284,53.84604,28.10284z"></path><path d="M5.76073,72.03677c-1.6409,0-3.13638-0.24958-4.47465-0.74676C0.3998,70.96182-0.0512,69.97532,0.27894,69.091   c0.32818-0.88825,1.31272-1.33434,2.19999-1.00813c2.09583,0.77624,4.85098,0.70745,8.18879-0.21617   c0.9079-0.25743,1.85216,0.28102,2.10566,1.19285c0.25154,0.90987-0.28298,1.85314-1.19383,2.10468   C9.4788,71.74592,7.53428,72.03677,5.76073,72.03677z"></path><path d="M71.98439,30.3274c-0.75266,0-1.44242-0.5021-1.65073-1.26458c-0.79589-2.94281-3.91655-6.5754-9.27356-10.79654   c-0.74283-0.58463-0.87056-1.66055-0.28495-2.40338c0.58365-0.74185,1.65662-0.87351,2.40338-0.28495   c6.03105,4.75174,9.45238,8.8707,10.45853,12.59073c0.24761,0.91183-0.29084,1.85117-1.20267,2.09878   C72.28309,30.30774,72.13374,30.3274,71.98439,30.3274z"></path><path d="M87.78617,30.44138c-0.82143,0-1.54657-0.59348-1.6861-1.43063c-0.30067-1.80401-1.91602-4.92172-7.91171-9.53492   c-0.74872-0.57579-0.88824-1.65073-0.31245-2.39945c0.57579-0.74872,1.65269-0.89021,2.39945-0.31246   c5.59872,4.30761,8.60933,8.12983,9.20084,11.68479c0.15525,0.93246-0.47556,1.81384-1.40705,1.96908   C87.97483,30.43351,87.87854,30.44138,87.78617,30.44138z"></path><path d="M90.81055,40.30938c-0.4736,0-0.94524-0.19651-1.28521-0.5807c-3.1973-3.63357-6.92323-6.76602-11.07363-9.31187   c-0.80572-0.49424-1.05922-1.54854-0.564-2.35425c0.49326-0.80276,1.54461-1.05824,2.35229-0.564   c4.44125,2.72468,8.4305,6.0792,11.85577,9.96823c0.62295,0.70942,0.55417,1.79124-0.15525,2.41517   C91.61626,40.16888,91.2134,40.30938,90.81055,40.30938z"></path><path d="M70.10571,40.02444c-0.54042,0-1.07298-0.25547-1.40508-0.733c-3.33093-4.77532-6.29831-8.36369-8.8196-10.66684   c-0.69763-0.63671-0.74676-1.71951-0.11005-2.41714c0.63868-0.70058,1.71951-0.74676,2.41714-0.11005   c2.70994,2.47314,5.84436,6.2541,9.31875,11.23674c0.54041,0.77525,0.35176,1.84135-0.42448,2.38275   C70.78368,39.92422,70.44371,40.02444,70.10571,40.02444z"></path><path d="M50.93958,38.31279c-0.65734,0-1.28324-0.38026-1.56622-1.01991c-2.09485-4.74093-4.1897-8.45605-6.22462-11.04121   c-0.58463-0.74184-0.4569-1.81776,0.28593-2.4024c0.74184-0.5866,1.81875-0.45886,2.4024,0.28593   c2.21276,2.81017,4.45598,6.77093,6.66678,11.77421c0.38124,0.86467-0.00983,1.87476-0.87351,2.25698   C51.40532,38.26563,51.17048,38.31279,50.93958,38.31279z"></path><path d="M34.7369,35.29039c-0.78901,0-1.49843-0.54926-1.67136-1.35104c-0.75658-3.51271-2.12138-6.47321-4.173-9.04953   c-0.58856-0.73988-0.46574-1.8158,0.27316-2.40535c0.7389-0.59053,1.81482-0.46869,2.40535,0.27316   c2.35327,2.95755,3.98238,6.47616,4.84115,10.4605c0.19848,0.9246-0.3891,1.83447-1.31272,2.03393   C34.97763,35.27761,34.85677,35.29039,34.7369,35.29039z"></path><path d="M85.56555,50.06342c-0.65047,0-1.26949-0.37043-1.55836-0.99928c-1.50137-3.2818-3.57658-6.42015-6.16665-9.32858   c-0.62885-0.70549-0.56596-1.78731,0.13953-2.41615c0.70353-0.62787,1.78632-0.56891,2.41518,0.14051   c2.81802,3.16193,5.07992,6.58719,6.72475,10.17949c0.39303,0.85976,0.01572,1.87476-0.84502,2.26877   C86.04505,50.01331,85.80334,50.06342,85.56555,50.06342z"></path><path d="M64.97076,49.94944c-0.71729,0-1.38347-0.45296-1.62322-1.17025c-1.1221-3.36532-3.12852-6.78567-5.96227-10.16573   c-0.60723-0.72416-0.5129-1.80401,0.21224-2.41124c0.72318-0.6033,1.80204-0.51291,2.40928,0.21224   c3.1128,3.71119,5.32753,7.50688,6.58719,11.28194c0.2987,0.89611-0.18472,1.86591-1.08083,2.16462   C65.33235,49.92094,65.14959,49.94944,64.97076,49.94944z"></path><path d="M44.09102,46.81207c-0.86172,0-1.60357-0.64948-1.69888-1.52496c-0.43332-3.9529-1.37561-7.03622-2.88288-9.42683   c-0.50406-0.79982-0.26431-1.85609,0.53452-2.36015c0.80375-0.50603,1.85805-0.26431,2.36015,0.53452   c1.79025,2.84063,2.89958,6.39952,3.38989,10.87908c0.10317,0.94033-0.57481,1.78534-1.51415,1.88753   C44.21581,46.80814,44.15292,46.81207,44.09102,46.81207z"></path><path d="M28.63707,42.24899c-0.08745,0-0.17588-0.00688-0.26431-0.02063c-0.93443-0.14542-1.57409-1.01991-1.42867-1.95434   c0.34095-2.19311-0.22992-4.98068-1.69789-8.28312c-0.38419-0.86369,0.00491-1.87476,0.8686-2.25796   c0.86074-0.38713,1.87574,0.00491,2.25796,0.8686c1.76471,3.96764,2.40338,7.30447,1.95336,10.19815   C30.19445,41.64471,29.46636,42.24899,28.63707,42.24899z"></path><path d="M82.31322,59.30454c-0.61313,0-1.20464-0.33014-1.51317-0.9079c-1.84724-3.47046-3.94405-6.33762-6.22953-8.5209   c-0.68387-0.65243-0.70942-1.73621-0.05698-2.42008c0.65243-0.68191,1.73522-0.71139,2.4191-0.05601   c2.55273,2.43581,4.86964,5.59479,6.88982,9.3895c0.44412,0.83322,0.12773,1.87082-0.70746,2.31495   C82.85954,59.23969,82.58442,59.30454,82.31322,59.30454z"></path><path d="M59.15391,58.96261c-0.62492,0-1.22822-0.3439-1.52889-0.93934c-2.36015-4.66331-4.08752-8.2222-5.00131-10.29347   c-0.38124-0.86467,0.01179-1.87475,0.87646-2.25599c0.86074-0.37338,1.87279,0.00983,2.256,0.87646   c0.88825,2.01526,2.59007,5.51815,4.92271,10.1284c0.42644,0.84305,0.08843,1.87279-0.75462,2.29922   C59.67664,58.90365,59.41331,58.96261,59.15391,58.96261z"></path><path d="M38.16019,54.96942c-0.75953,0-1.45323-0.50897-1.65466-1.27931c-0.86663-3.31325-2.02018-6.75521-3.52646-10.52044   c-0.35078-0.87744,0.07566-1.87377,0.9531-2.22455c0.88235-0.35176,1.87475,0.07664,2.22455,0.9531   c1.55935,3.89984,2.75711,7.47347,3.6601,10.92723c0.23877,0.9138-0.30853,1.84921-1.22232,2.08699   C38.44907,54.95173,38.30365,54.96942,38.16019,54.96942z"></path><path d="M31.14362,63.12676c-0.9246,0-1.6861-0.73693-1.70968-1.66841c-0.10612-4.13075-1.03858-7.66606-2.77283-10.50275   c-0.49325-0.8067-0.23877-1.85904,0.56793-2.35229c0.80669-0.49227,1.86002-0.2368,2.35229,0.56793   c2.05064,3.3555,3.1521,7.4607,3.27394,12.20065c0.02456,0.94327-0.72219,1.72933-1.66645,1.75488   C31.1731,63.12676,31.15836,63.12676,31.14362,63.12676z"></path><path d="M48.59908,67.4049c-0.90888,0-1.66547-0.71532-1.7087-1.63107c-0.15918-3.40954-0.78213-6.65008-1.90522-9.90437   c-0.30754-0.89414,0.16704-1.86886,1.0602-2.17542c0.89611-0.31049,1.86886,0.16507,2.17641,1.05922   c1.2292,3.56872,1.91307,7.12171,2.08797,10.85943c0.04422,0.94524-0.68584,1.74506-1.63009,1.79025   C48.65312,67.40293,48.62561,67.4049,48.59908,67.4049z"></path><path d="M72.61324,69.23052c-0.78802,0-1.49744-0.54827-1.67038-1.34809c-0.69173-3.19141-1.89244-6.17451-3.67287-9.12027   c-0.48736-0.80964-0.22796-1.861,0.58169-2.35032c0.81161-0.48343,1.86099-0.22795,2.35032,0.58169   c1.94746,3.22874,3.32307,6.64811,4.08555,10.1618c0.20045,0.92362-0.38517,1.83545-1.30879,2.0359   C72.85495,69.21677,72.73311,69.23052,72.61324,69.23052z"></path><path d="M90.35266,68.25974c-0.75658,0-1.44832-0.50504-1.65073-1.27145c-0.83519-3.13049-2.1597-6.06643-3.93423-8.73117   c-0.5247-0.78606-0.31246-1.84921,0.4736-2.37194c0.78606-0.52469,1.85117-0.31442,2.37194,0.4736   c1.9848,2.97524,3.46456,6.25508,4.39408,9.74912c0.24368,0.91183-0.29871,1.85117-1.2125,2.09288   C90.64744,68.24009,90.50005,68.25974,90.35266,68.25974z"></path><path d="M85.90356,78.47067c-0.77034,0-1.46993-0.5247-1.66055-1.30486c-0.55614-2.27958-2.1204-5.27251-4.64561-8.89624   c-0.54042-0.77624-0.35177-1.84135,0.42447-2.38177c0.77427-0.54435,1.84135-0.35176,2.38177,0.42448   c2.8082,4.02856,4.49823,7.31232,5.16441,10.03996c0.22403,0.91969-0.33801,1.84528-1.25573,2.06931   C86.17475,78.45495,86.03915,78.47067,85.90356,78.47067z"></path><path d="M65.8256,80.12533c-0.70745,0-1.36971-0.44216-1.61535-1.14961c-1.74506-5.01114-3.43509-8.57199-5.17228-10.88498   c-0.56596-0.75658-0.41268-1.82955,0.34194-2.39748c0.75855-0.56596,1.82956-0.41465,2.39748,0.34193   c1.94943,2.60186,3.80257,6.46535,5.66357,11.81646c0.31049,0.89218-0.16114,1.8669-1.05332,2.17739   C66.20094,80.09389,66.01229,80.12533,65.8256,80.12533z"></path><path d="M43.29317,77.44486c-0.80571,0-1.52299-0.57186-1.67922-1.39133c-0.85877-4.51003-1.88753-8.36762-3.05679-11.46863   c-0.33408-0.88235,0.11201-1.87083,0.99633-2.2049c0.88334-0.33014,1.87083,0.11398,2.2049,0.99633   c1.24001,3.28377,2.32183,7.33394,3.21793,12.03656c0.17686,0.92951-0.43233,1.82366-1.36087,2.00053   C43.50737,77.43504,43.39929,77.44486,43.29317,77.44486z"></path><path d="M27.60635,72.36691c-0.85484,0-1.59276-0.63867-1.69691-1.50923c-0.61313-5.11726-1.37659-8.77834-2.27172-10.88301   c-0.36945-0.87056,0.03537-1.87475,0.90593-2.2442c0.87253-0.37534,1.87574,0.03537,2.2442,0.90397   c1.03563,2.43679,1.86002,6.30224,2.51933,11.81842c0.113,0.93738-0.55712,1.78828-1.49548,1.90227   C27.74292,72.36298,27.67414,72.36691,27.60635,72.36691z"></path><path d="M82.59425,89.08053c-0.75266,0-1.44242-0.50111-1.64877-1.26163c-0.80768-2.96346-2.27958-5.99175-4.37443-8.99647   c-0.53845-0.77624-0.34783-1.84332,0.42644-2.38373c0.77624-0.53845,1.84135-0.35177,2.38373,0.42644   c2.31692,3.32896,3.95586,6.71099,4.86572,10.05372c0.24958,0.91183-0.28887,1.85313-1.20071,2.10075   C82.89491,89.06087,82.74359,89.08053,82.59425,89.08053z"></path><path d="M60.2937,90.67819c-0.67798,0-1.31862-0.40482-1.58784-1.07298c-2.14595-5.33932-3.84384-8.88838-5.188-10.85156   c-0.53256-0.78017-0.33408-1.84528,0.44609-2.3798c0.78606-0.53452,1.84724-0.33212,2.3798,0.44608   c1.50531,2.20097,3.26608,5.85812,5.5378,11.50793c0.35176,0.87646-0.07271,1.87476-0.94917,2.22652   C60.7221,90.63889,60.50594,90.67819,60.2937,90.67819z"></path><path d="M38.2162,87.02694c-0.82635,0-1.55444-0.60133-1.68807-1.44242c-0.76051-4.78121-1.94452-8.66435-3.51958-11.54134   c-0.45395-0.82929-0.14935-1.86886,0.67994-2.32281c0.83028-0.45592,1.86886-0.14738,2.32281,0.67994   c1.76274,3.22285,3.07448,7.4774,3.8969,12.64575c0.14837,0.93345-0.48736,1.80991-1.4208,1.95926   C38.39601,87.01908,38.30561,87.02694,38.2162,87.02694z"></path><path d="M21.8455,89.30848c-0.89513,0-1.64778-0.69566-1.70575-1.60159c-0.1916-2.989,0.0845-5.92101,0.84501-8.96699   c0.22992-0.91576,1.15551-1.47387,2.0752-1.24591c0.91674,0.22993,1.47485,1.15748,1.24591,2.0752   c-0.67405,2.69815-0.91969,5.28822-0.75069,7.91759c0.06092,0.94328-0.65538,1.75684-1.59767,1.81776   C21.92018,89.30652,21.88284,89.30848,21.8455,89.30848z"></path><path d="M12.32139,86.45705c-0.69665,0-1.35202-0.42841-1.60651-1.1221c-1.82268-4.96397-1.60651-9.79235,0.64162-14.3515   c0.41759-0.85091,1.44537-1.19482,2.29137-0.77821c0.84796,0.41858,1.19579,1.44439,0.7782,2.29137   c-1.84331,3.73772-2.00642,7.55208-0.49817,11.65925c0.32523,0.88628-0.1297,1.87083-1.01697,2.19508   C12.71639,86.42364,12.51791,86.45705,12.32139,86.45705z"></path></g></svg>