<svg fill="#000000" xmlns="http://www.w3.org/2000/svg" xmlns:xlink="http://www.w3.org/1999/xlink" version="1.1" x="0px" y="0px" viewBox="0 0 64 64" enable-background="new 0 0 64 64" xml:space="preserve"><g><path d="M63.983,6c0-1.654-1.346-3-3-3H15.016c-1.654,0-3,1.346-3,3v2c0,0.031,0.015,0.057,0.018,0.087v0.919h-3.04   c-1.654,0-3,1.346-3,3v2c0,0.031,0.015,0.057,0.018,0.087V15H2.999c-1.654,0-3,1.346-3,3v2c0,0.031,0.015,0.057,0.018,0.087v39.907   c0,0.553,0.447,1,1,1h2.957C3.984,60.994,3.992,61,4.003,61s0.019-0.006,0.029-0.006h46.952c0.553,0,1-0.447,1-1V55h4.994   c0.553,0,1-0.447,1-1v-5.006h5.022c0.553,0,1-0.447,1-1V8c0-0.031-0.015-0.057-0.018-0.087V6z M15.016,5h1.02   c-0.552,0-0.994,0.447-0.994,1s0.452,1,1.005,1c0.552,0,1-0.447,1-1s-0.448-1-1-1h2.989c-0.552,0-0.994,0.447-0.994,1   s0.452,1,1.005,1c0.552,0,1-0.447,1-1s-0.448-1-1-1h2.989c-0.552,0-0.994,0.447-0.994,1s0.452,1,1.005,1c0.552,0,1-0.447,1-1   s-0.448-1-1-1h38.938c0.552,0,1,0.448,1,1v1H22.046h-3h-3h-0.007c-0.007,0-0.013-0.004-0.02-0.004S16.007,7,16,7h-1.984V6   C14.016,5.448,14.464,5,15.016,5z M14.033,46.994V9h0.986v37.994H14.033z M8.993,11.006h1.02c-0.552,0-0.994,0.447-0.994,1   s0.452,1,1.005,1c0.552,0,1-0.447,1-1s-0.448-1-1-1h2.01v2h-2.01h-0.007c-0.007,0-0.013-0.004-0.02-0.004s-0.013,0.004-0.02,0.004   H7.993v-1C7.993,11.454,8.441,11.006,8.993,11.006z M8.011,53V15.006h0.986V53H8.011z M2.999,17h1.02c-0.552,0-0.994,0.447-0.994,1   s0.452,1,1.005,1c0.552,0,1-0.447,1-1s-0.448-1-1-1h1.981v2H4.029H4.022c-0.007,0-0.013-0.004-0.02-0.004S3.99,19,3.983,19H1.999   v-1C1.999,17.448,2.447,17,2.999,17z M2.017,21h0.986v37.994H2.017V21z M49.984,58.994H5.003V21h1.008v33c0,0.553,0.447,1,1,1   h2.957c0.011,0,0.019,0.006,0.029,0.006S10.016,55,10.026,55h39.958V58.994z M55.979,53H10.997V15.006h1.036v32.988   c0,0.553,0.447,1,1,1h42.945V53z M62.001,46.994H17.02V9h44.981V46.994z"></path><path d="M20.02,12.996h19.002c0.553,0,1-0.447,1-1s-0.447-1-1-1H20.02c-0.553,0-1,0.447-1,1S19.467,12.996,20.02,12.996z"></path><path d="M21.02,15.996c0,0.553,0.447,1,1,1h20.002c0.553,0,1-0.447,1-1s-0.447-1-1-1H22.02   C21.467,14.996,21.02,15.443,21.02,15.996z"></path><path d="M36.023,39.012H22.02c-0.553,0-1,0.447-1,1s0.447,1,1,1h14.004c0.553,0,1-0.447,1-1S36.576,39.012,36.023,39.012z"></path><path d="M46.021,16.996h2c0.553,0,1-0.447,1-1s-0.447-1-1-1h-2c-0.553,0-1,0.447-1,1S45.469,16.996,46.021,16.996z"></path><path d="M26.02,43h-6c-0.553,0-1,0.447-1,1s0.447,1,1,1h6c0.553,0,1-0.447,1-1S26.572,43,26.02,43z"></path><path d="M24.02,20.996h4c0.553,0,1-0.447,1-1s-0.447-1-1-1h-4c-0.553,0-1,0.447-1,1S23.467,20.996,24.02,20.996z"></path><path d="M31.02,19.996c0,0.553,0.447,1,1,1h21.002c0.553,0,1-0.447,1-1s-0.447-1-1-1H32.02   C31.467,18.996,31.02,19.443,31.02,19.996z"></path><path d="M24.02,24.996h23.002c0.553,0,1-0.447,1-1s-0.447-1-1-1H24.02c-0.553,0-1,0.447-1,1S23.467,24.996,24.02,24.996z"></path><path d="M24.02,28.996h13.002c0.553,0,1-0.447,1-1s-0.447-1-1-1H24.02c-0.553,0-1,0.447-1,1S23.467,28.996,24.02,28.996z"></path><path d="M46.03,35.004H24.02c-0.553,0-1,0.447-1,1s0.447,1,1,1H46.03c0.553,0,1-0.447,1-1S46.583,35.004,46.03,35.004z"></path><path d="M49.023,30.996H31.021c-0.553,0-1,0.447-1,1s0.447,1,1,1h18.003c0.553,0,1-0.447,1-1S49.576,30.996,49.023,30.996z"></path><path d="M24.02,32.996h3.001c0.553,0,1-0.447,1-1s-0.447-1-1-1H24.02c-0.553,0-1,0.447-1,1S23.467,32.996,24.02,32.996z"></path><path d="M50.021,23.996c0,0.553,0.447,1,1,1h4c0.553,0,1-0.447,1-1s-0.447-1-1-1h-4C50.469,22.996,50.021,23.443,50.021,23.996z"></path></g></svg>