<svg fill="#000000" xmlns="http://www.w3.org/2000/svg" xmlns:xlink="http://www.w3.org/1999/xlink" version="1.1" x="0px" y="0px" viewBox="0 0 100 100" enable-background="new 0 0 100 100" xml:space="preserve"><path d="M29.173,38.412c0.164,0.127,0.251,0.288,0.258,0.481c0.006,0.208-0.08,0.439-0.243,0.651  c-0.249,0.323-0.684,0.594-1.1,0.274c-0.181-0.14-0.296-0.343-0.324-0.573c-0.028-0.234,0.036-0.468,0.183-0.657  c0.147-0.192,0.359-0.314,0.596-0.346c0.038-0.005,0.076-0.007,0.113-0.007C28.843,38.236,29.024,38.297,29.173,38.412  L29.173,38.412z M67.819,35.447c-0.453-0.256-1.023-0.113-1.271,0.321c-0.269,0.475,0.079,0.896,0.46,1.111  c0.378,0.214,0.918,0.299,1.188-0.178C68.443,36.269,68.273,35.705,67.819,35.447z M69.059,39.545c0.25,0.323,0.685,0.594,1.1,0.274  c0.181-0.14,0.296-0.343,0.324-0.573c0.028-0.234-0.036-0.468-0.183-0.657c-0.146-0.189-0.354-0.312-0.588-0.345  c-0.04-0.005-0.081-0.008-0.121-0.008c-0.188,0-0.367,0.061-0.518,0.176c-0.164,0.127-0.251,0.288-0.258,0.481  C68.81,39.102,68.896,39.333,69.059,39.545z M26.675,43.2c0.159,0.096,0.322,0.117,0.483,0.063c0.176-0.061,0.342-0.207,0.467-0.411  c0.137-0.225,0.188-0.464,0.142-0.657c-0.034-0.144-0.124-0.261-0.267-0.348h-0.001c-0.122-0.074-0.26-0.113-0.4-0.113  c-0.063,0-0.126,0.008-0.189,0.023c-0.204,0.051-0.378,0.178-0.488,0.359s-0.145,0.395-0.096,0.6  C26.373,42.92,26.497,43.092,26.675,43.2z M70.747,41.848L70.747,41.848c-0.144,0.087-0.233,0.204-0.268,0.348  c-0.047,0.193,0.005,0.433,0.142,0.656c0.19,0.312,0.554,0.594,0.95,0.349c0.368-0.225,0.481-0.71,0.255-1.084  c-0.15-0.245-0.412-0.381-0.678-0.381C71.011,41.735,70.872,41.771,70.747,41.848z M42.102,60.038  c-1.461-1.668-3.117-3.559-3.863-5.691c-0.994-2.84,0.704-5.64,2.202-8.109c1.252-2.064,2.436-4.016,2.002-5.703  c-0.354-1.376-1.081-2.317-2.162-2.799c-0.54-0.24-1.166-0.358-1.843-0.358c-1.165,0-2.482,0.35-3.781,1.029  c-1.675,0.875-5.94,4.614-5.623,7.845c0.215,2.193,1.047,3.667,2.199,5.705c0.598,1.059,1.276,2.258,1.963,3.747  c1.092,2.366,1.622,4.783,2.09,6.915c0.465,2.118,0.866,3.947,1.68,5.037c0.779,1.043,1.851,1.687,3.016,1.813  c1.213,0.132,2.432-0.297,3.518-1.238c2.578-2.234,1.006-5.07,0.664-5.617C43.674,61.832,42.91,60.961,42.102,60.038z   M59.227,34.559c1.089,0.139,2.121-0.781,2.293-2.064c0.172-1.284-0.577-2.447-1.669-2.595c-0.076-0.01-0.152-0.015-0.229-0.015  c-0.44,0-0.873,0.169-1.238,0.488c-0.448,0.392-0.742,0.956-0.827,1.591C57.385,33.248,58.134,34.411,59.227,34.559z M63.59,38.406  c-1.298-0.68-2.616-1.029-3.781-1.029c-0.678,0-1.303,0.118-1.843,0.358c-1.081,0.481-1.809,1.423-2.162,2.799  c-0.434,1.688,0.75,3.639,2.002,5.703c1.498,2.47,3.196,5.27,2.202,8.109c-0.746,2.132-2.401,4.022-3.862,5.69  c-0.809,0.923-1.572,1.795-2.061,2.576c-0.342,0.545-1.915,3.381,0.663,5.616c1.087,0.941,2.306,1.373,3.518,1.238  c1.165-0.126,2.236-0.77,3.016-1.813c0.813-1.09,1.215-2.92,1.681-5.039c0.468-2.132,0.998-4.548,2.089-6.913  c0.688-1.49,1.365-2.689,1.963-3.748c1.152-2.038,1.985-3.511,2.2-5.704C69.532,43.021,65.265,39.281,63.59,38.406z M64.559,34.332  c0.504,0.065,0.988-0.353,1.067-0.938c0.077-0.585-0.274-1.116-0.783-1.186c-0.036-0.005-0.072-0.007-0.108-0.007  c-0.468,0-0.886,0.401-0.959,0.945C63.698,33.731,64.049,34.263,64.559,34.332z M31.24,36.88c0.38-0.216,0.728-0.637,0.459-1.111  c-0.164-0.288-0.47-0.448-0.79-0.448c-0.162,0-0.328,0.041-0.481,0.128c-0.453,0.257-0.623,0.82-0.377,1.255  C30.321,37.178,30.86,37.094,31.24,36.88z M39.02,34.559c1.093-0.147,1.842-1.311,1.67-2.595c-0.085-0.635-0.379-1.199-0.827-1.591  c-0.365-0.319-0.798-0.488-1.237-0.488c-0.076,0-0.152,0.005-0.229,0.015c-1.093,0.147-1.842,1.311-1.67,2.595  C36.9,33.777,37.93,34.698,39.02,34.559z M33.405,32.209c-0.51,0.068-0.861,0.6-0.783,1.185c0.079,0.585,0.56,1.009,1.067,0.938  c0.51-0.068,0.86-0.6,0.782-1.185c-0.073-0.544-0.491-0.945-0.959-0.945C33.477,32.201,33.441,32.204,33.405,32.209z M94.754,25.437  v49.127c0,1.873-1.523,3.396-3.396,3.396H8.152c-1.873,0-3.397-1.523-3.397-3.396V25.437c0-1.873,1.524-3.396,3.397-3.396h83.206  C93.231,22.04,94.754,23.563,94.754,25.437z M88.754,26.5c0.276,0,0.5-0.224,0.5-0.5s-0.224-0.5-0.5-0.5h-2  c-0.276,0-0.5,0.224-0.5,0.5s0.224,0.5,0.5,0.5H88.754z M87.754,73.5h-2c-0.276,0-0.5,0.224-0.5,0.5s0.224,0.5,0.5,0.5h2  c0.276,0,0.5-0.224,0.5-0.5S88.031,73.5,87.754,73.5z M83.754,26.5c0.276,0,0.5-0.224,0.5-0.5s-0.224-0.5-0.5-0.5h-2  c-0.276,0-0.5,0.224-0.5,0.5s0.224,0.5,0.5,0.5H83.754z M82.754,73.5h-2c-0.276,0-0.5,0.224-0.5,0.5s0.224,0.5,0.5,0.5h2  c0.276,0,0.5-0.224,0.5-0.5S83.031,73.5,82.754,73.5z M78.754,26.5c0.276,0,0.5-0.224,0.5-0.5s-0.224-0.5-0.5-0.5h-2  c-0.276,0-0.5,0.224-0.5,0.5s0.224,0.5,0.5,0.5H78.754z M77.754,73.5h-2c-0.276,0-0.5,0.224-0.5,0.5s0.224,0.5,0.5,0.5h2  c0.276,0,0.5-0.224,0.5-0.5S78.031,73.5,77.754,73.5z M70.21,46.349c0.367-3.749-4.256-7.835-6.157-8.829  c-2.355-1.232-4.722-1.486-6.493-0.697c-1.355,0.603-2.298,1.801-2.725,3.464c-0.538,2.095,0.751,4.22,2.116,6.47  c1.451,2.393,2.951,4.866,2.113,7.261c-0.683,1.949-2.271,3.762-3.671,5.361c-0.836,0.954-1.625,1.855-2.156,2.704  c-1.153,1.843-1.621,4.756,0.856,6.903c1.131,0.98,2.447,1.505,3.757,1.504c0.174,0,0.349-0.009,0.522-0.027  c1.444-0.156,2.762-0.94,3.709-2.209c0.943-1.263,1.366-3.19,1.856-5.422c0.457-2.082,0.975-4.442,2.021-6.71  c0.67-1.452,1.337-2.632,1.926-3.674C69.052,50.383,69.974,48.752,70.21,46.349z M67.754,73.5h-2c-0.276,0-0.5,0.224-0.5,0.5  s0.224,0.5,0.5,0.5h2c0.276,0,0.5-0.224,0.5-0.5S68.031,73.5,67.754,73.5z M62.754,73.5h-2c-0.276,0-0.5,0.224-0.5,0.5  s0.224,0.5,0.5,0.5h2c0.276,0,0.5-0.224,0.5-0.5S63.031,73.5,62.754,73.5z M57.754,73.5h-2c-0.276,0-0.5,0.224-0.5,0.5  s0.224,0.5,0.5,0.5h2c0.276,0,0.5-0.224,0.5-0.5S58.031,73.5,57.754,73.5z M50.754,73.5c-0.276,0-0.5,0.224-0.5,0.5  s0.224,0.5,0.5,0.5h2c0.276,0,0.5-0.224,0.5-0.5s-0.224-0.5-0.5-0.5H50.754z M51.754,26.5h2c0.276,0,0.5-0.224,0.5-0.5  s-0.224-0.5-0.5-0.5h-2c-0.276,0-0.5,0.224-0.5,0.5S51.478,26.5,51.754,26.5z M68.938,37.365c0.042-0.057,0.092-0.106,0.128-0.17  c0.519-0.913,0.18-2.088-0.754-2.618c-0.935-0.528-2.116-0.216-2.633,0.697v0.001c-0.497,0.877-0.146,1.917,0.836,2.474  c0.357,0.203,0.728,0.301,1.077,0.301c0.194,0,0.376-0.041,0.552-0.099c-0.198,0.263-0.317,0.573-0.328,0.91  c-0.015,0.44,0.146,0.899,0.449,1.294c0.407,0.529,0.957,0.807,1.502,0.807c0.349,0,0.695-0.114,1-0.349  c0.396-0.305,0.647-0.747,0.708-1.247c0.06-0.495-0.076-0.988-0.383-1.386c-0.307-0.399-0.748-0.656-1.242-0.726  C69.536,37.213,69.226,37.257,68.938,37.365z M69.254,26c0-0.276-0.224-0.5-0.5-0.5h-2c-0.276,0-0.5,0.224-0.5,0.5  s0.224,0.5,0.5,0.5h2C69.031,26.5,69.254,26.276,69.254,26z M64.976,31.217c-1.067-0.133-2.04,0.665-2.19,1.797  c-0.152,1.131,0.584,2.167,1.641,2.31c0.081,0.011,0.161,0.016,0.24,0.016c0.962,0,1.811-0.768,1.951-1.813  C66.768,32.395,66.032,31.359,64.976,31.217z M64.254,26c0-0.276-0.224-0.5-0.5-0.5h-2c-0.276,0-0.5,0.224-0.5,0.5  s0.224,0.5,0.5,0.5h2C64.031,26.5,64.254,26.276,64.254,26z M59.984,28.909c-0.808-0.11-1.609,0.144-2.258,0.711  c-0.631,0.551-1.042,1.336-1.159,2.211c-0.246,1.83,0.889,3.498,2.527,3.718c0.12,0.017,0.239,0.024,0.358,0.024  c1.498,0,2.831-1.25,3.058-2.946C62.756,30.797,61.622,29.129,59.984,28.909z M59.254,26c0-0.276-0.224-0.5-0.5-0.5h-2  c-0.276,0-0.5,0.224-0.5,0.5s0.224,0.5,0.5,0.5h2C59.031,26.5,59.254,26.276,59.254,26z M71.265,44.293  c0.28,0,0.563-0.078,0.828-0.239c0.838-0.511,1.102-1.613,0.587-2.458c-0.517-0.844-1.617-1.113-2.453-0.602  c-0.372,0.227-0.621,0.561-0.72,0.966c-0.11,0.455-0.018,0.957,0.261,1.413C70.131,43.968,70.692,44.293,71.265,44.293z M70.254,74  c0,0.276,0.224,0.5,0.5,0.5h2c0.276,0,0.5-0.224,0.5-0.5s-0.224-0.5-0.5-0.5h-2C70.478,73.5,70.254,73.724,70.254,74z M73.754,26.5  c0.276,0,0.5-0.224,0.5-0.5s-0.224-0.5-0.5-0.5h-2c-0.276,0-0.5,0.224-0.5,0.5s0.224,0.5,0.5,0.5H73.754z M44.153,68.985  c2.477-2.146,2.01-5.06,0.857-6.903c-0.531-0.849-1.32-1.749-2.155-2.703c-1.401-1.6-2.99-3.413-3.673-5.362  c-0.838-2.395,0.662-4.868,2.113-7.261c1.365-2.25,2.654-4.375,2.116-6.47c-0.427-1.663-1.369-2.861-2.725-3.464  c-1.771-0.788-4.138-0.533-6.493,0.697c-1.901,0.994-6.524,5.08-6.156,8.829c0.236,2.404,1.158,4.035,2.325,6.1  c0.588,1.041,1.255,2.222,1.925,3.673c1.047,2.269,1.564,4.629,2.021,6.711c0.489,2.231,0.912,4.158,1.855,5.421  c0.947,1.269,2.265,2.053,3.709,2.209c0.174,0.019,0.348,0.028,0.522,0.027C41.705,70.489,43.022,69.966,44.153,68.985z   M42.754,73.5h-2c-0.276,0-0.5,0.224-0.5,0.5s0.224,0.5,0.5,0.5h2c0.276,0,0.5-0.224,0.5-0.5S43.031,73.5,42.754,73.5z M37.754,73.5  h-2c-0.276,0-0.5,0.224-0.5,0.5s0.224,0.5,0.5,0.5h2c0.276,0,0.5-0.224,0.5-0.5S38.031,73.5,37.754,73.5z M32.754,73.5h-2  c-0.276,0-0.5,0.224-0.5,0.5s0.224,0.5,0.5,0.5h2c0.276,0,0.5-0.224,0.5-0.5S33.031,73.5,32.754,73.5z M34.254,26  c0-0.276-0.224-0.5-0.5-0.5h-2c-0.276,0-0.5,0.224-0.5,0.5s0.224,0.5,0.5,0.5h2C34.031,26.5,34.254,26.276,34.254,26z   M33.272,31.218c-1.057,0.142-1.793,1.178-1.641,2.309c0.14,1.045,0.988,1.813,1.95,1.813c0.08,0,0.16-0.006,0.24-0.017  c1.056-0.142,1.792-1.178,1.64-2.309C35.31,31.882,34.318,31.075,33.272,31.218z M29.934,34.578  c-0.933,0.529-1.271,1.704-0.753,2.618c0.036,0.063,0.084,0.11,0.125,0.166c-0.281-0.106-0.584-0.15-0.893-0.111  c-0.502,0.065-0.949,0.323-1.26,0.728c-0.307,0.397-0.442,0.891-0.383,1.386c0.061,0.5,0.312,0.942,0.708,1.247  c0.306,0.234,0.651,0.349,1,0.349c0.545,0,1.095-0.278,1.502-0.807c0.304-0.395,0.464-0.854,0.449-1.294  c-0.011-0.337-0.129-0.646-0.328-0.91c0.176,0.059,0.359,0.099,0.552,0.099c0.35,0,0.72-0.098,1.078-0.301  c0.98-0.557,1.332-1.597,0.835-2.474v-0.001C32.051,34.362,30.869,34.049,29.934,34.578z M29.254,26c0-0.276-0.224-0.5-0.5-0.5h-2  c-0.276,0-0.5,0.224-0.5,0.5s0.224,0.5,0.5,0.5h2C29.031,26.5,29.254,26.276,29.254,26z M25.568,41.596  c-0.249,0.408-0.325,0.889-0.216,1.352c0.11,0.466,0.396,0.858,0.802,1.106c0.261,0.159,0.544,0.239,0.829,0.239  c0.168,0,0.336-0.027,0.5-0.084c0.396-0.136,0.751-0.433,0.996-0.836c0.278-0.456,0.371-0.958,0.261-1.413  c-0.099-0.405-0.348-0.739-0.72-0.966c-0.406-0.248-0.887-0.321-1.35-0.207C26.208,40.901,25.816,41.188,25.568,41.596z M25.254,74  c0,0.276,0.224,0.5,0.5,0.5h2c0.276,0,0.5-0.224,0.5-0.5s-0.224-0.5-0.5-0.5h-2C25.478,73.5,25.254,73.724,25.254,74z   M35.737,32.627c0.227,1.696,1.56,2.946,3.058,2.946c0.119,0,0.238-0.008,0.358-0.024c1.639-0.22,2.773-1.888,2.527-3.718  c-0.117-0.875-0.528-1.66-1.159-2.211c-0.649-0.567-1.453-0.824-2.257-0.711C36.625,29.129,35.491,30.797,35.737,32.627z   M36.754,26.5h2c0.276,0,0.5-0.224,0.5-0.5s-0.224-0.5-0.5-0.5h-2c-0.276,0-0.5,0.224-0.5,0.5S36.478,26.5,36.754,26.5z   M41.754,26.5h2c0.276,0,0.5-0.224,0.5-0.5s-0.224-0.5-0.5-0.5h-2c-0.276,0-0.5,0.224-0.5,0.5S41.478,26.5,41.754,26.5z M45.254,74  c0,0.276,0.224,0.5,0.5,0.5h2c0.276,0,0.5-0.224,0.5-0.5s-0.224-0.5-0.5-0.5h-2C45.478,73.5,45.254,73.724,45.254,74z M48.754,26.5  c0.276,0,0.5-0.224,0.5-0.5s-0.224-0.5-0.5-0.5h-2c-0.276,0-0.5,0.224-0.5,0.5s0.224,0.5,0.5,0.5H48.754z M23.754,26.5  c0.276,0,0.5-0.224,0.5-0.5s-0.224-0.5-0.5-0.5h-2c-0.276,0-0.5,0.224-0.5,0.5s0.224,0.5,0.5,0.5H23.754z M22.754,73.5h-2  c-0.276,0-0.5,0.224-0.5,0.5s0.224,0.5,0.5,0.5h2c0.276,0,0.5-0.224,0.5-0.5S23.031,73.5,22.754,73.5z M18.754,26.5  c0.276,0,0.5-0.224,0.5-0.5s-0.224-0.5-0.5-0.5h-2c-0.276,0-0.5,0.224-0.5,0.5s0.224,0.5,0.5,0.5H18.754z M17.754,73.5h-2  c-0.276,0-0.5,0.224-0.5,0.5s0.224,0.5,0.5,0.5h2c0.276,0,0.5-0.224,0.5-0.5S18.031,73.5,17.754,73.5z M13.754,26.5  c0.276,0,0.5-0.224,0.5-0.5s-0.224-0.5-0.5-0.5h-2c-0.276,0-0.5,0.224-0.5,0.5s0.224,0.5,0.5,0.5H13.754z M12.754,73.5h-2  c-0.276,0-0.5,0.224-0.5,0.5s0.224,0.5,0.5,0.5h2c0.276,0,0.5-0.224,0.5-0.5S13.031,73.5,12.754,73.5z M9.254,25.5h-1.5V27  c0,0.276,0.224,0.5,0.5,0.5c0.276,0,0.5-0.224,0.5-0.5v-0.5h0.5c0.276,0,0.5-0.224,0.5-0.5S9.531,25.5,9.254,25.5z M8.754,65.5v-2  c0-0.276-0.224-0.5-0.5-0.5c-0.276,0-0.5,0.224-0.5,0.5v2c0,0.276,0.224,0.5,0.5,0.5C8.531,66,8.754,65.776,8.754,65.5z M8.254,68  c-0.276,0-0.5,0.224-0.5,0.5v2c0,0.276,0.224,0.5,0.5,0.5c0.276,0,0.5-0.224,0.5-0.5v-2C8.754,68.224,8.531,68,8.254,68z   M8.754,60.5v-2c0-0.276-0.224-0.5-0.5-0.5c-0.276,0-0.5,0.224-0.5,0.5v2c0,0.276,0.224,0.5,0.5,0.5  C8.531,61,8.754,60.776,8.754,60.5z M8.754,55.5v-2c0-0.276-0.224-0.5-0.5-0.5c-0.276,0-0.5,0.224-0.5,0.5v2  c0,0.276,0.224,0.5,0.5,0.5C8.531,56,8.754,55.776,8.754,55.5z M8.754,50.5v-2c0-0.276-0.224-0.5-0.5-0.5  c-0.276,0-0.5,0.224-0.5,0.5v2c0,0.276,0.224,0.5,0.5,0.5C8.531,51,8.754,50.776,8.754,50.5z M8.754,45.5v-2  c0-0.276-0.224-0.5-0.5-0.5c-0.276,0-0.5,0.224-0.5,0.5v2c0,0.276,0.224,0.5,0.5,0.5C8.531,46,8.754,45.776,8.754,45.5z M8.754,40.5  v-2c0-0.276-0.224-0.5-0.5-0.5c-0.276,0-0.5,0.224-0.5,0.5v2c0,0.276,0.224,0.5,0.5,0.5C8.531,41,8.754,40.776,8.754,40.5z   M8.754,35.5v-2c0-0.276-0.224-0.5-0.5-0.5c-0.276,0-0.5,0.224-0.5,0.5v2c0,0.276,0.224,0.5,0.5,0.5  C8.531,36,8.754,35.776,8.754,35.5z M8.754,30.5v-2c0-0.276-0.224-0.5-0.5-0.5c-0.276,0-0.5,0.224-0.5,0.5v2  c0,0.276,0.224,0.5,0.5,0.5C8.531,31,8.754,30.776,8.754,30.5z M7.754,74.5h1.5c0.276,0,0.5-0.224,0.5-0.5s-0.224-0.5-0.5-0.5h-0.5  V73c0-0.276-0.224-0.5-0.5-0.5c-0.276,0-0.5,0.224-0.5,0.5V74.5z M90.254,74.5h1.5V73c0-0.276-0.224-0.5-0.5-0.5s-0.5,0.224-0.5,0.5  v0.5h-0.5c-0.276,0-0.5,0.224-0.5,0.5S89.978,74.5,90.254,74.5z M90.754,34.5v2c0,0.276,0.224,0.5,0.5,0.5s0.5-0.224,0.5-0.5v-2  c0-0.276-0.224-0.5-0.5-0.5S90.754,34.224,90.754,34.5z M91.254,32c0.276,0,0.5-0.224,0.5-0.5v-2c0-0.276-0.224-0.5-0.5-0.5  s-0.5,0.224-0.5,0.5v2C90.754,31.776,90.978,32,91.254,32z M90.754,39.5v2c0,0.276,0.224,0.5,0.5,0.5s0.5-0.224,0.5-0.5v-2  c0-0.276-0.224-0.5-0.5-0.5S90.754,39.224,90.754,39.5z M90.754,44.5v2c0,0.276,0.224,0.5,0.5,0.5s0.5-0.224,0.5-0.5v-2  c0-0.276-0.224-0.5-0.5-0.5S90.754,44.224,90.754,44.5z M90.754,49.5v2c0,0.276,0.224,0.5,0.5,0.5s0.5-0.224,0.5-0.5v-2  c0-0.276-0.224-0.5-0.5-0.5S90.754,49.224,90.754,49.5z M90.754,54.5v2c0,0.276,0.224,0.5,0.5,0.5s0.5-0.224,0.5-0.5v-2  c0-0.276-0.224-0.5-0.5-0.5S90.754,54.224,90.754,54.5z M90.754,59.5v2c0,0.276,0.224,0.5,0.5,0.5s0.5-0.224,0.5-0.5v-2  c0-0.276-0.224-0.5-0.5-0.5S90.754,59.224,90.754,59.5z M90.754,64.5v2c0,0.276,0.224,0.5,0.5,0.5s0.5-0.224,0.5-0.5v-2  c0-0.276-0.224-0.5-0.5-0.5S90.754,64.224,90.754,64.5z M90.754,69.5v2c0,0.276,0.224,0.5,0.5,0.5s0.5-0.224,0.5-0.5v-2  c0-0.276-0.224-0.5-0.5-0.5S90.754,69.224,90.754,69.5z M91.754,25.5h-1.5c-0.276,0-0.5,0.224-0.5,0.5s0.224,0.5,0.5,0.5h0.5V27  c0,0.276,0.224,0.5,0.5,0.5s0.5-0.224,0.5-0.5V25.5z"></path></svg>