<svg fill="#000000" xmlns="http://www.w3.org/2000/svg" data-name="Layer 1" viewBox="0 0 48 48" x="0px" y="0px"><title>8-devil</title><path d="M30.51,29l-.05,0a.8.8,0,0,1-.52-.59,3.15,3.15,0,0,1-.11-1.23,2.5,2.5,0,0,0,.23-.23,8.62,8.62,0,0,0,2.48-6s0-3,0-3a8.94,8.94,0,0,0,1.41-1.2A23.85,23.85,0,0,0,40.38,1.68C40.42,0,40,0,39.53,1.51a20.68,20.68,0,0,1-8,10.37A8.48,8.48,0,0,0,30.05,9.8a8.35,8.35,0,0,0-6-2.49h0a8.44,8.44,0,0,0-7.54,4.62,20.73,20.73,0,0,1-8-10.41C8,0,7.57,0,7.62,1.68a23.84,23.84,0,0,0,6.45,15.06A7.75,7.75,0,0,0,15.53,18c0,1.4,0,3,0,3a8.65,8.65,0,0,0,2.49,6l.23.23a3.12,3.12,0,0,1-.1,1.26.8.8,0,0,1-.52.59l-.05,0H0c.63,1.26,9.08,15.15,10.31,15.79a22.08,22.08,0,0,0,5.34,1.94,70.74,70.74,0,0,0,8.58.87,35.82,35.82,0,0,0,8.2-.87,22.08,22.08,0,0,0,5.34-1.94c1.07-.56,8.44-12.24,9.51-14.36.24-.47.48-.94.72-1.43Zm.08-14.2L27.86,19l-2.74-1.9Zm-7.77,2.31L20.09,19l-2.74-4.21Zm3,7.8L24,26.16l-1.87-1.22-2.19.57-2.19-3.66,2.88,1.94,1.5-1,1.87,1,1.87-1,1.51,1,2.88-1.94L28,25.51Z"></path></svg>