<svg fill="#000000" xmlns="http://www.w3.org/2000/svg" xmlns:xlink="http://www.w3.org/1999/xlink" version="1.1" x="0px" y="0px" viewBox="0 0 110 110" enable-background="new 0 0 110 110" xml:space="preserve"><path d="M96.785,9.972c-2.096-2.096-5.399-2.2-7.646-0.364l-0.041-0.041L37.563,61.102c-8.31-4.776-19.093-3.636-26.194,3.465  c-8.492,8.492-8.493,22.262,0,30.754c8.492,8.492,22.262,8.492,30.754,0c7.076-7.076,8.234-17.81,3.516-26.107l32.128-32.129  l8.094,8.094c1.78,1.78,4.694,1.78,6.475,0l11.33-11.331c1.78-1.78,1.78-4.694,0-6.474l-8.093-8.093l1.618-1.619l-0.04-0.042  C98.986,15.372,98.883,12.069,96.785,9.972z M34.03,87.229c-4.016,4.016-10.551,4.016-14.567,0c-4.016-4.018-4.016-10.553,0-14.568  c4.016-4.017,10.551-4.017,14.567,0C38.046,76.677,38.046,83.211,34.03,87.229z"></path></svg>