<svg fill="#000000" xmlns:x="http://ns.adobe.com/Extensibility/1.0/" xmlns:i="http://ns.adobe.com/AdobeIllustrator/10.0/" xmlns:graph="http://ns.adobe.com/Graphs/1.0/" xmlns="http://www.w3.org/2000/svg" xmlns:xlink="http://www.w3.org/1999/xlink" version="1.1" x="0px" y="0px" viewBox="0 0 100 100" style="enable-background:new 0 0 100 100;" xml:space="preserve"><g><g i:extraneous="self"><g><path d="M5273.1,2400.1v-2c0-2.8-5-4-9.7-4s-9.7,1.3-9.7,4v2c0,1.8,0.7,3.6,2,4.9l5,4.9c0.3,0.3,0.4,0.6,0.4,1v6.4     c0,0.4,0.2,0.7,0.6,0.8l2.9,0.9c0.5,0.1,1-0.2,1-0.8v-7.2c0-0.4,0.2-0.7,0.4-1l5.1-5C5272.4,2403.7,5273.1,2401.9,5273.1,2400.1z      M5263.4,2400c-4.8,0-7.4-1.3-7.5-1.8v0c0.1-0.5,2.7-1.8,7.5-1.8c4.8,0,7.3,1.3,7.5,1.8C5270.7,2398.7,5268.2,2400,5263.4,2400z"></path><path d="M5268.4,2410.3c-0.6,0-1,0.4-1,1c0,0.6,0.4,1,1,1h4.3c0.6,0,1-0.4,1-1c0-0.6-0.4-1-1-1H5268.4z"></path><path d="M5272.7,2413.7h-4.3c-0.6,0-1,0.4-1,1c0,0.6,0.4,1,1,1h4.3c0.6,0,1-0.4,1-1C5273.7,2414.1,5273.3,2413.7,5272.7,2413.7z"></path><path d="M5272.7,2417h-4.3c-0.6,0-1,0.4-1,1c0,0.6,0.4,1,1,1h4.3c0.6,0,1-0.4,1-1C5273.7,2417.5,5273.3,2417,5272.7,2417z"></path></g><g><path d="M36.7,69.9H15.9c-1.7,0-3.2,1.4-3.2,3.2s1.4,3.2,3.2,3.2h7.3v14.9h-1.9c-1.7,0-3.2,1.4-3.2,3.2c0,1.7,1.4,3.2,3.2,3.2     h10.1c1.7,0,3.2-1.4,3.2-3.2c0-1.7-1.4-3.2-3.2-3.2h-1.9V76.2h7.3c1.7,0,3.2-1.4,3.2-3.2S38.4,69.9,36.7,69.9z"></path><circle cx="24.2" cy="12.9" r="10.4"></circle><path d="M52.4,60.5c-0.3-2.4-2.3-4.2-4.7-4.2h0l-10.6,0c-0.8,0-1.5-0.7-1.6-1.5l-1-14.8c3.4,2,7.3,3.2,11.3,3.2h8.6     c2.2,0,4-1.8,4-4c0-2.2-1.8-4-4-4h-8.6c-2.7,0-5.4-0.8-7.7-2.3l-7.9-5.2c-1.5-1-3.3-1.6-5.2-1.6c0,0,0,0,0,0l-1.5,0     c-2.8,0-5.4,1.2-7.2,3.3c-1.8,2.1-2.6,4.9-2.2,7.7L18,62.1c0.4,2.3,2.4,4,4.7,4c0,0,0,0,0,0l20.9,0l2.8,26     c0.3,2.4,2.3,4.2,4.7,4.2c0.2,0,0.3,0,0.5,0c2.6-0.3,4.5-2.6,4.2-5.2L52.4,60.5z"></path><path d="M84.1,12.9H72.5c-1.7,0-3.2,1.4-3.2,3.2v30.7H53.1c-1.7,0-3.2,1.4-3.2,3.2s1.4,3.2,3.2,3.2h4.3c3.5,0,6.3,2.8,6.3,6.3     v34.4c0,1.7,1.4,3.2,3.2,3.2h17.4c1.7,0,3.2-1.4,3.2-3.2V16C87.3,14.3,85.9,12.9,84.1,12.9z"></path></g></g></g></svg>