<svg fill="#000000" xmlns="http://www.w3.org/2000/svg" xmlns:xlink="http://www.w3.org/1999/xlink" xml:space="preserve" version="1.1" style="shape-rendering:geometricPrecision;text-rendering:geometricPrecision;image-rendering:optimizeQuality;" viewBox="0 0 847 847" x="0px" y="0px" fill-rule="evenodd" clip-rule="evenodd"><defs><style type="text/css">
   
    .fil0 {fill:#000000}
   
  </style></defs><g><path class="fil0" d="M326 358c-49,76 -98,-12 0,0zm-80 307c0,0 -9,-124 185,-49 0,0 6,-49 -21,-74 0,0 53,-28 77,8 0,0 14,-56 -36,-63 0,0 57,-52 7,-114 0,0 66,15 40,89 0,0 76,34 -51,232 0,0 191,-185 159,-211 0,0 -40,-175 197,-127 0,0 -93,-119 -260,-69 0,0 116,-87 127,-183 0,0 -62,140 -242,187 0,0 103,-75 114,-204 0,0 -62,138 -163,192 0,0 47,-96 -5,-165 0,0 10,152 -60,171l-7 -87c0,0 -79,181 -131,202l0 -46c0,0 -42,81 -118,71 0,0 -19,85 55,121l-4 -54 42 22 -7 -37 46 15c36,-176 151,52 28,54 0,0 -4,50 -44,29 0,0 -2,62 72,90z"></path></g></svg>