<svg fill="#000000" xmlns="http://www.w3.org/2000/svg" xmlns:xlink="http://www.w3.org/1999/xlink" version="1.1" x="0px" y="0px" viewBox="0 0 20 20" style="enable-background:new 0 0 20 20;" xml:space="preserve"><g><path d="M18.5,1.9c-1.8-1.8-4.4-2-5.9-0.5c-1.3,1.3-1.3,3.4-0.2,5.1l-6.6,6.6l-1.4-1.4c-0.4-0.4-1-0.4-1.4,0c-0.4,0.4-0.4,1,0,1.4   l0.4,0.4c0.2,0.2,0.2,0.4,0,0.6L2.7,15c-0.2,0.2-0.4,0.2-0.6,0l-0.4-0.4c-0.4-0.4-1-0.4-1.4,0c-0.4,0.4-0.4,1,0,1.4l1.4,1.4   l-0.5,0.5c-0.4,0.4-0.4,1,0,1.4c0.4,0.4,1,0.4,1.4,0L13.9,7.9c1.7,1.1,3.8,1.1,5.1-0.1C20.5,6.3,20.3,3.7,18.5,1.9z M17.6,6.4   c-0.8,0.8-2.2,0.4-3-0.5c-0.9-0.8-1.2-2.3-0.5-3c0.7-0.7,2.2-0.4,3,0.5C18,4.2,18.3,5.6,17.6,6.4z"></path></g></svg>