<svg height='100px' width='100px'  fill="#000000" xmlns="http://www.w3.org/2000/svg" xmlns:xlink="http://www.w3.org/1999/xlink" version="1.1" x="0px" y="0px" viewBox="0 0 100 100" style="enable-background:new 0 0 100 100;" xml:space="preserve"><path d="M81.2,68.8c-2.2-5.4-5.7-13.9-6.7-23.6c-1.1-11.3-0.6-24.4,0.8-35.1c-23-3.8-50.9-0.4-65,9.9c5.2,13.1,12.9,29.5,9.1,47.7  c-6.5,1-12.8,2.8-14.2,8.3c-0.1,0.6-0.1,1.8,0,2.4C7.7,88.8,33.1,93,50,91c28.9-3.4,42.2-16.1,45-26.7  C89.9,63.1,86.4,67.6,81.2,68.8z M13.4,72.2c34.3-13.8,44,10.6,74-3.2C59.4,91.5,29.7,65.7,13.4,72.2z"></path></svg>