<svg fill="#000000" xmlns="http://www.w3.org/2000/svg" xmlns:xlink="http://www.w3.org/1999/xlink" version="1.1" x="0px" y="0px" viewBox="0 0 100 100" enable-background="new 0 0 100 100" xml:space="preserve"><path d="M64.527,25.835c0-0.001-8.601-23.175-12.675-20.642c-4.073,2.533-4.585,8.909-1.412,15.282  c2.94,5.905,6.724,10.188,6.724,10.188c-2.564,2.111-3.139,8.029-0.966,12.795c0,0-12.222-2.503-24.141,4.829  c-11.92,7.332-17.141,18.106-17.141,27.158S17.633,95,27.35,95h26.806c0.601,0,1.096-0.488,1.02-1.084  c-0.483-3.755-3.583-5.832-9.351-5.832c3.253-0.747,6.994-5.455,7.477-8.293c4.332,4.621,6.591,11.544,7.329,14.158  C60.792,94.527,61.393,95,61.992,95h8.45c0.999,0,1.871-0.831,1.599-1.793c-1.029-3.626-5.461-1.209-5.461-15.105  c0-7.544,13.699-12.885,7.846-30.539c0,0,11.376-0.361,10.621-7.485C84.293,32.954,71.679,24.388,64.527,25.835z"></path></svg>