<svg fill="#000000" xmlns="http://www.w3.org/2000/svg" xmlns:xlink="http://www.w3.org/1999/xlink" viewBox="0 0 50 56" version="1.1" x="0px" y="0px"><title>018 - Tome</title><desc>Created with Sketch.</desc><g stroke="none" stroke-width="1" fill="none" fill-rule="evenodd"><g fill="#000000" fill-rule="nonzero"><path d="M0,39 L0,47 C0,47.5522847 0.44771525,48 1,48 L9,48 C9.55228475,48 10,47.5522847 10,47 L10,30 L0,30 L0,39 Z"></path><rect x="0" y="18" width="10" height="10"></rect><path d="M33.437,23 L28.637,19 L12,19 L12,27 L28.638,27 L33.437,23 Z M27,24 C27,24.5522847 26.5522847,25 26,25 C25.4477153,25 25,24.5522847 25,24 L25,22 C25,21.4477153 25.4477153,21 26,21 C26.5522847,21 27,21.4477153 27,22 L27,24 Z"></path><path d="M9,0 L1,0 C0.44771525,0 0,0.44771525 0,1 L0,16 L10,16 L10,1 C10,0.44771525 9.55228475,0 9,0 Z"></path><path d="M1,50 C0.65856033,49.9966856 0.32025698,49.9344378 8.8817842e-16,49.816 L8.8817842e-16,55 C8.8817842e-16,55.5522847 0.44771525,56 1,56 L9,56 C9.55228475,56 10,55.5522847 10,55 L10,49.816 C9.67974302,49.9344378 9.34143967,49.9966856 9,50 L1,50 Z M6,54 L4,54 C3.44771525,54 3,53.5522847 3,53 C3,52.4477153 3.44771525,52 4,52 L6,52 C6.55228475,52 7,52.4477153 7,53 C7,53.5522847 6.55228475,54 6,54 Z"></path><path d="M49,46 C49.5522847,46 50,45.5522847 50,45 L50,37.414 L41.414,46 L49,46 Z"></path><path d="M49,2 L41.414,2 L50,10.586 L50,3 C50,2.44771525 49.5522847,2 49,2 Z"></path><path d="M12,2 L12,17 L29,17 C29.2342443,16.9998712 29.4611004,17.0819782 29.641,17.232 L35.641,22.232 C35.8688341,22.4219952 36.0005502,22.7033411 36.0005502,23 C36.0005502,23.2966589 35.8688341,23.5780048 35.641,23.768 L29.641,28.768 C29.4611004,28.9180218 29.2342443,29.0001288 29,29 L12,29 L12,46 L38.586,46 L50,34.586 L50,13.414 L38.586,2 L12,2 Z"></path><path d="M12,48 L12,54 L49,54 C49.5522847,54 50,53.5522847 50,53 L50,52 L44,52 C43.4477153,52 43,51.5522847 43,51 C43,50.4477153 43.4477153,50 44,50 L50,50 L50,47.816 C49.679743,47.9344378 49.3414397,47.9966856 49,48 L12,48 Z M40,52 L18,52 C17.4477153,52 17,51.5522847 17,51 C17,50.4477153 17.4477153,50 18,50 L40,50 C40.5522847,50 41,50.4477153 41,51 C41,51.5522847 40.5522847,52 40,52 Z"></path></g></g></svg>