<svg height='100px' width='100px'  fill="#000000" xmlns="http://www.w3.org/2000/svg" data-name="Layer 1" viewBox="0 0 48 48" x="0px" y="0px"><title>hotel solid icons</title><path d="M14.27,12a.83.83,0,0,0,.73.12,30.35,30.35,0,0,1,18,0,1,1,0,0,0,.24,0,.84.84,0,0,0,.49-.16.83.83,0,0,0,.34-.66V6.77a6,6,0,0,0-3.92-5.64,17.26,17.26,0,0,0-12.3,0,6,6,0,0,0-3.91,5.64v4.58A.82.82,0,0,0,14.27,12Z"></path><path d="M14.5,20.42a1,1,0,0,0,.34-.07,10,10,0,0,0,18.32,0,1,1,0,0,0,.34.07c1.59,0,2.83-1.56,2.83-3.54s-1.24-3.56-2.83-3.56a.83.83,0,0,0-.82.83v.21a32.57,32.57,0,0,1-4.36-2,32.19,32.19,0,0,1-13,2.6v-.77a.83.83,0,0,0-.82-.83c-1.59,0-2.83,1.56-2.83,3.56S12.91,20.42,14.5,20.42Z"></path><path d="M24,37.82a.63.63,0,1,0,.63.63A.63.63,0,0,0,24,37.82Z"></path><path d="M24,43.65a.63.63,0,1,0,.63.63A.63.63,0,0,0,24,43.65Z"></path><path d="M24,27.73a11.19,11.19,0,0,1-6.75-2.26,2.78,2.78,0,0,1-.89.48A26.12,26.12,0,0,0,24,33.43,26.12,26.12,0,0,0,31.64,26a2.78,2.78,0,0,1-.89-.48A11.19,11.19,0,0,1,24,27.73Z"></path><path d="M42.32,28.66c-2.43-2.6-5.92-2.53-8.24-2.48h-.67a26.86,26.86,0,0,1-9,8.91.79.79,0,0,1-.9,0,26.86,26.86,0,0,1-9-8.91h-.67c-2.32-.05-5.81-.12-8.23,2.48-2.25,2.42-3.05,6.51-2.47,12.52v.06C3.34,41.93,4.86,48,24,48s20.67-6.07,20.77-6.76a.13.13,0,0,0,0-.06C45.36,35.17,44.55,31.08,42.32,28.66ZM24,46.55a2.27,2.27,0,1,1,2.27-2.27A2.27,2.27,0,0,1,24,46.55Zm0-5.83a2.28,2.28,0,1,1,2.27-2.27A2.27,2.27,0,0,1,24,40.72Z"></path></svg>