<svg fill="#000000" xmlns="http://www.w3.org/2000/svg" xmlns:xlink="http://www.w3.org/1999/xlink" version="1.1" x="0px" y="0px" viewBox="0 0 91 91" enable-background="new 0 0 91 91" xml:space="preserve"><g><path d="M64.014,22.898h-8.24l1.527-17.35c0,0-4.613-1.939-15.41-1.484C31.096,4.521,29.795,6.689,29.795,6.689l5.479,17.805   c0,0-6.6,0.986-8.721,1.922l0.846,3.475c0,0,6.619-2.414,19.859-3.105c13.238-0.691,17.234,1.367,17.234,1.367L64.014,22.898z"></path><path d="M47.258,29.258c-5.83,0.303-10.375,0.943-13.639,1.563c-1.582,3.789-1.885,11.252,0.895,15.42   c3.029,4.547,8.82,5.191,15.545,4.305c6.727-0.887,9.482-6.838,9.814-10.699c0.186-2.154,0.311-6.963-2.176-10.533   C55.135,29.104,51.721,29.023,47.258,29.258z M37.59,39.43c-0.869-1.254-1.154-2.498,0.068-3.719   C39.668,35.449,40.078,39.748,37.59,39.43z M45.637,42.613c-1.656,0.568-3.502,0.482-5.234,0.512   c-0.508,0.01-1.211,0.086-1.586-0.301c1.873-1.322,3.742-2.281,5.613-3.479C45.658,40.074,46.217,41.568,45.637,42.613z    M51.867,38.986c-3.102,2.205-4.602-4.658-0.832-3.725C52.285,35.566,52.879,38.27,51.867,38.986z"></path><path d="M81.35,48.268c-1.457-0.195-2.912-0.393-4.369-0.588c1.439-1.631,2.879-3.262,4.318-4.891   c1.504-1.703-2.201-1.67-3.072-0.684c-0.832,0.943-1.664,1.885-2.498,2.828c-0.09-1.309-0.182-2.619-0.273-3.928   c-0.141-2.029-3.98-1.443-3.861,0.279c0.176,2.521,0.35,5.043,0.525,7.564c0,0.02,0.008,0.035,0.01,0.053   c-0.004,0.039-0.004,0.076-0.002,0.113c-2.316,2.623-4.631,5.246-6.947,7.869c-1.623-2.881-4.188-5.396-8.205-6.775   c-1.635,1.453-3.762,2.547-6.467,2.904c-5.545,0.727-10.514,0.523-14.098-1.676c-2.395,1.086-4.238,2.646-5.779,4.891   c-3.072-2.557-6.145-5.113-9.215-7.668c-0.004-0.018,0-0.033-0.006-0.049c-0.213-2.52-0.424-5.039-0.637-7.559   c-0.148-1.775-3.967-0.848-3.809,1.02c0.086,1.033,0.174,2.066,0.26,3.1c-0.852-0.709-1.703-1.418-2.555-2.127   c-1.068-0.889-4.621,0.607-3.533,1.514c1.682,1.398,3.361,2.797,5.041,4.195c-1.139,0.336-2.279,0.672-3.42,1.01   c-0.707,0.209-1.816,0.84-1.57,1.76c0.24,0.895,1.531,0.949,2.242,0.74c1.713-0.506,3.428-1.012,5.143-1.518   c3.445,2.869,6.893,5.736,10.338,8.605c-0.006,0.012-0.012,0.023-0.018,0.035c-2.604,5.574-4.135,15.543,0.225,22.088   c4.609,6.912,13.422,7.893,23.652,6.545c10.234-1.346,14.428-10.404,14.93-16.273c0.217-2.521,0.377-7.418-1.271-12.016   c2.768-3.133,5.533-6.268,8.301-9.4c1.758,0.236,3.518,0.475,5.275,0.711c0.887,0.119,2.066-0.311,2.486-1.146   C82.924,48.936,82.111,48.371,81.35,48.268z M44.314,68.846c1.566-0.516,3.426,0.537,3.229,2.234   C47.066,75.086,40.967,71.9,44.314,68.846z M44.314,58.387c1.566-0.516,3.426,0.537,3.229,2.23   C47.066,64.627,40.967,61.438,44.314,58.387z"></path></g></svg>