<svg fill="#000000" xmlns="http://www.w3.org/2000/svg" xmlns:xlink="http://www.w3.org/1999/xlink" version="1.1" x="0px" y="0px" viewBox="0 0 32 32" enable-background="new 0 0 32 32" xml:space="preserve"><g><g><path d="M23.9902344,30H8c1.7900391-3.8896484,3.4799805-7.8203125,5.0600586-11.7900391    c0.2001953-0.4902344,0.3300781-1.0097656,0.3999023-1.5400391C14.3901367,16.9296875,15.2602539,17.3896484,16,18.0302734    c0.7299805-0.640625,1.6000977-1.1005859,2.5302734-1.3603516c0.0698242,0.5302734,0.199707,1.0498047,0.3999023,1.5400391    C20.5102539,22.1796875,22.2001953,26.1103516,23.9902344,30z"></path><path d="M13.2802734,6.1103516c0.0097656,0.109375,0.0395508,0.2294922,0.1098633,0.3291016    C13.5302734,6.6601563,13.4702148,6.9599609,13.25,7.0996094c-0.0400391,0.0302734-0.0898438,0.0498047-0.1298828,0.0605469    c-0.5200195,0.1494141-0.8203125,0.6699219-0.6899414,1.1894531l-0.2099609,0.0498047    C11.9101563,8.4697266,11.6000977,8.5898438,11.3300781,8.75c0.0297852-2.0498047,0.7900391-4.0302734,2.1298828-5.5898438    c1.2099609-1.4003906,3.3203125-1.5498047,4.7202148-0.3505859c0.1298828,0.1103516,0.2397461,0.2304688,0.3500977,0.3505859    C19.8701172,4.7197266,20.6298828,6.7001953,20.6699219,8.75c-0.2797852-0.1601563-0.5800781-0.2802734-0.8999023-0.3505859    l-0.2001953-0.0498047c0.1201172-0.5195313-0.1796875-1.0400391-0.6899414-1.1894531    c-0.2597656-0.0703125-0.409668-0.3398438-0.3300781-0.5898438c0.0102539-0.0507813,0.0302734-0.0908203,0.050293-0.1308594    c0.199707-0.2998047,0.1098633-0.7099609-0.1899414-0.8994141c-0.1000977-0.0605469-0.2202148-0.1005859-0.3300781-0.1005859    c-0.4902344-0.0195313-0.8798828-0.3994141-0.8999023-0.8896484c-0.0200195-0.6503906-0.5800781-1.1601563-1.2299805-1.1298828    c-0.6201172,0.0195313-1.1103516,0.5195313-1.1401367,1.1298828c-0.0200195,0.4902344-0.4101563,0.8701172-0.8901367,0.8896484    C13.5600586,5.4501953,13.2700195,5.75,13.2802734,6.1103516z"></path><path d="M15.8398438,7.8203125c-0.0795898,0.2998047-0.199707,0.5791016-0.3496094,0.8398438    C15.6699219,8.7695313,15.8398438,8.8994141,16,9.0400391c0.1499023-0.140625,0.3198242-0.2705078,0.5-0.3798828    c-0.1499023-0.2607422-0.2700195-0.5400391-0.3398438-0.8398438c0.3300781-0.0205078,0.659668-0.1308594,0.949707-0.3105469    c0.2001953,0.8398438,0.8603516,1.5,1.7001953,1.6904297l0.7397461,0.1699219    c0.7304688,0.1699219,1.3300781,0.7001953,1.6000977,1.4101563c1.1000977,2.9599609,2.5400391,5.7900391,4.2900391,8.4199219    c0.1601563,0.2392578,0.1401367,0.5595703-0.0600586,0.7695313c-0.2299805,0.25-0.6196289,0.2597656-0.8696289,0.0302734    c-2.4702148-2.2705078-4.2402344-5.2001953-5.1000977-8.4296875c-0.0200195-0.0800781-0.0800781-0.1308594-0.1601563-0.140625    c-0.1000977,0-0.1899414,0.0800781-0.1899414,0.1806641c-0.0600586,1-0.2001953,1.9892578-0.4199219,2.9697266    C18.5600586,14.9296875,18.5102539,15.2900391,18.5,15.6494141c-0.8999023,0.2109375-1.75,0.5908203-2.5,1.1201172    c-0.7597656-0.5292969-1.6098633-0.9091797-2.5-1.1201172c-0.0200195-0.359375-0.0698242-0.7197266-0.1499023-1.0693359    c-0.2202148-0.9804688-0.3598633-1.9697266-0.4101563-2.9697266c-0.0097656-0.0800781-0.0600586-0.1503906-0.1401367-0.1708984    c-0.0996094-0.0292969-0.199707,0.0302734-0.2197266,0.1308594C11.7202148,14.7998047,9.9501953,17.7294922,7.4902344,20    c-0.2099609,0.2001953-0.5302734,0.2197266-0.7700195,0.0595703c-0.2802734-0.1894531-0.3603516-0.5800781-0.1704102-0.859375    c1.75-2.6298828,3.2001953-5.4599609,4.300293-8.4199219c0.2597656-0.7099609,0.8598633-1.2402344,1.5898438-1.4101563    l0.7402344-0.1699219c0.8500977-0.1904297,1.5097656-0.8505859,1.699707-1.6904297    C15.1699219,7.6894531,15.5,7.7998047,15.8398438,7.8203125z"></path></g></g></svg>