<svg fill="#000000" xmlns="http://www.w3.org/2000/svg" xmlns:xlink="http://www.w3.org/1999/xlink" version="1.1" x="0px" y="0px" viewBox="0 0 72.625 77" enable-background="new 0 0 72.625 77" xml:space="preserve"><path d="M30.5,55.75L39.375,56l12.375-6.125l4.625-7.375l-0.5-12.875L49.625,21l-11.75-4.5L29.5,17.25L18.25,26l-2.875,11.75l3.25,9  L30.5,55.75z M68.625,19.5L65,13.875l-3.33-3.264l-6.396,1.254l2.582-4.483L39.875,0L22.266,3.085l-13.891,9.79l-8.125,16L0,44.5  l2.125,8.75l7.25,11.5l4.875,4.625L30.625,77l15-0.75L64,64l7.625-15.625l1-13L68.625,19.5z M16.074,23.798l0.051-0.173L26.5,14.25  l3.25-0.875l9-0.875l13.375,6.625L58.75,29.25l0.5,11.25l-1,3.625l-5.5,9.25l-6.504,3.548l0.41,4.049l-3.284-2.481l-0.247,0.135  l-9.5,0.5l-5-1.125L15.75,47.375L12.375,36.25l2.638-8.88l-5.388-5.495L16.074,23.798z M69.625,48.375l-7.875,12.75L45.375,70.75  l-12.497,0.431L31,75.25l-0.111-4h-0.014l-14.75-5.375l-4.5-3.5l-7.75-10.5l-2-8.375L5,51.25l7.25,9.375l4.875,3.875l13.75,5.125  L45.25,69l15.625-9.375l7.75-12L70.75,39L69.625,48.375z"></path></svg>