<svg fill="#000000" xmlns="http://www.w3.org/2000/svg" xmlns:xlink="http://www.w3.org/1999/xlink" version="1.1" x="0px" y="0px" viewBox="0 0 100 100" enable-background="new 0 0 100 100" xml:space="preserve"><path fill-rule="evenodd" clip-rule="evenodd" d="M73.213,28.176c-0.694-5.019-3.583-9.504-7.858-12.218  c0.629,0.106,1.25-0.331,1.396-1.007c0.148-0.691-0.256-1.372-0.901-1.511l-5.159-1.111l0.634-2.946l2.366,0.51l1.286-5.976  l-5.799-1.248l-1.286,5.976l2.175,0.468l-0.635,2.946l-5.497-1.184c-0.646-0.139-1.296,0.314-1.445,1.006  c-0.148,0.692,0.258,1.374,0.903,1.513l0.268,0.058c-5.007,0.722-9.478,3.62-12.169,7.906c-0.585-0.034-1.14,0.375-1.276,1.007  c-0.148,0.691,0.257,1.371,0.901,1.511l0.969,0.208c-1.179-0.254-2.349,0.504-2.602,1.681L26.011,88.336  c-0.253,1.178,0.502,2.348,1.68,2.601l29.468,6.345c1.178,0.254,2.35-0.501,2.604-1.68L73.232,33.03  c0.254-1.177-0.503-2.349-1.682-2.603l1.013,0.219c0.646,0.139,1.296-0.314,1.444-1.006C74.148,28.99,73.789,28.367,73.213,28.176z"></path></svg>