<svg fill="#000000" xmlns="http://www.w3.org/2000/svg" data-name="Layer 1" viewBox="0 0 48 48" x="0px" y="0px"><title>7-wizard</title><path d="M24,18.85c5,0,7.56-1.62,7.56-3.22a.54.54,0,0,0,0-.22L28.33,6.77l6.51-2.29a.62.62,0,0,0,0-1.16L27,.05a.63.63,0,0,0-.45,0L21.78,1.7a.65.65,0,0,0-.38.38L16.48,15.41a.54.54,0,0,0,0,.22C16.44,17.23,19,18.85,24,18.85Zm1.77-7.16a.63.63,0,0,1,1.25,0v.6h.6a.63.63,0,1,1,0,1.25H27v.6a.63.63,0,1,1-1.25,0v-.6h-.6a.63.63,0,1,1,0-1.25h.6ZM22.38,7.36H23V6.77a.63.63,0,1,1,1.26,0v.59h.59a.63.63,0,0,1,0,1.26h-.59v.6a.63.63,0,0,1-1.26,0v-.6h-.59a.63.63,0,0,1,0-1.26ZM19.86,13.9h.59v-.6a.63.63,0,0,1,1.26,0v.6h.6a.63.63,0,0,1,0,1.25h-.6v.6a.63.63,0,0,1-1.26,0v-.6h-.59a.63.63,0,1,1,0-1.25Z"></path><path d="M38,33.27c-1.84-2-4.51-1.93-6.27-1.89H31a3,3,0,0,1-1.85-.54,8.61,8.61,0,0,1-10.3,0,2.89,2.89,0,0,1-1.84.54h-.69c-1.76,0-4.43-.09-6.27,1.89s-2.32,5-1.88,9.54v0C8.26,43.37,9.42,48,24,48s15.74-4.63,15.82-5.15a.06.06,0,0,0,0,0C40.27,38.23,39.66,35.11,38,33.27Z"></path><path d="M15.13,21.26A3.19,3.19,0,0,0,14.61,23a2.48,2.48,0,0,0,2,2.69,7.57,7.57,0,0,0,14.74,0,2.48,2.48,0,0,0,2-2.69,3.12,3.12,0,0,0-.52-1.78,40.8,40.8,0,0,1-8.87,1A40.8,40.8,0,0,1,15.13,21.26Z"></path><path d="M24,21.24c6.41,0,12.9-1.35,12.9-3.92,0-1.25-1.42-2.25-4.22-3l-.15,0h-.34l.27.74a1.67,1.67,0,0,1,.1.57c0,2.1-2.64,4.22-8.56,4.22s-8.56-2.12-8.56-4.22a1.77,1.77,0,0,1,.09-.56l.29-.78H15.6l-.16,0c-2.88.73-4.34,1.74-4.34,3C11.1,19.89,17.59,21.24,24,21.24Z"></path></svg>