<svg fill="#000000" xmlns="http://www.w3.org/2000/svg" xmlns:xlink="http://www.w3.org/1999/xlink" version="1.1" x="0px" y="0px" viewBox="0 0 100 100" enable-background="new 0 0 100 100" xml:space="preserve"><path fill="none" d="M75.494,75.952c-0.006-0.019-0.005-0.039-0.012-0.058c-0.19-0.55-0.398-1.154-0.613-1.777  c0.011,0.059,0.031,0.118,0.036,0.176c0.003,0.031,0.009,0.061,0.01,0.092c0.008,0.152-0.002,0.303-0.03,0.454  c-0.006,0.032-0.015,0.064-0.023,0.096c-0.032,0.135-0.076,0.27-0.136,0.404c-0.01,0.023-0.018,0.047-0.029,0.07  c-0.072,0.15-0.165,0.298-0.272,0.446c-0.025,0.034-0.052,0.068-0.079,0.102c-0.109,0.14-0.23,0.278-0.37,0.415  c-0.012,0.011-0.021,0.023-0.033,0.035c-0.151,0.146-0.324,0.289-0.509,0.432c-0.044,0.034-0.088,0.067-0.134,0.101  c-0.193,0.142-0.398,0.283-0.625,0.421c-0.014,0.008-0.029,0.016-0.043,0.025c-0.218,0.132-0.455,0.261-0.703,0.389  c-0.06,0.031-0.119,0.061-0.18,0.092c-0.265,0.132-0.542,0.261-0.838,0.388c-0.044,0.019-0.092,0.037-0.137,0.056  c-0.269,0.113-0.552,0.224-0.846,0.332c-0.071,0.026-0.141,0.053-0.214,0.079c-0.332,0.119-0.679,0.236-1.04,0.349  c-0.073,0.023-0.15,0.045-0.225,0.068c-0.326,0.099-0.663,0.197-1.012,0.291c-0.073,0.02-0.143,0.04-0.217,0.06  c-0.399,0.106-0.815,0.207-1.242,0.306c-0.096,0.022-0.194,0.044-0.291,0.065c-0.4,0.089-0.81,0.176-1.233,0.259  c-0.056,0.011-0.11,0.023-0.167,0.034c-0.466,0.09-0.949,0.174-1.442,0.256c-0.116,0.019-0.232,0.038-0.349,0.057  c-0.508,0.081-1.024,0.159-1.559,0.231c-12.388,1.666-27.354,0.219-33.428-3.232c-0.236-0.134-0.45-0.27-0.652-0.406  c-0.057-0.038-0.111-0.077-0.166-0.115c-0.153-0.108-0.296-0.217-0.428-0.326c-0.039-0.032-0.08-0.063-0.117-0.095  c-0.158-0.137-0.301-0.275-0.427-0.413c-0.027-0.029-0.049-0.059-0.074-0.088c-0.097-0.112-0.184-0.225-0.26-0.338  c-0.027-0.04-0.054-0.08-0.078-0.12c-0.078-0.129-0.146-0.258-0.198-0.387c-0.005-0.012-0.012-0.023-0.016-0.035  c-0.054-0.14-0.087-0.279-0.11-0.419c-0.006-0.038-0.009-0.077-0.013-0.115c-0.011-0.11-0.013-0.219-0.006-0.328  c0.002-0.035,0.002-0.07,0.007-0.104c0.016-0.129,0.046-0.258,0.087-0.386c-0.247,0.709-0.487,1.397-0.703,2.016  c-0.002,0.006-0.002,0.012-0.004,0.019c-0.048,0.141-0.079,0.282-0.096,0.424c-0.004,0.036-0.004,0.072-0.007,0.108  c-0.008,0.112-0.006,0.224,0.006,0.336c0.004,0.04,0.007,0.079,0.013,0.119c0.023,0.143,0.058,0.287,0.113,0.43  c0.005,0.012,0.012,0.024,0.017,0.036c0.053,0.132,0.123,0.264,0.203,0.396c0.025,0.041,0.053,0.083,0.081,0.124  c0.078,0.116,0.167,0.231,0.266,0.346c0.026,0.031,0.049,0.061,0.077,0.092c0.129,0.142,0.276,0.283,0.438,0.424  c0.038,0.033,0.082,0.066,0.122,0.099c0.136,0.112,0.282,0.223,0.439,0.334c0.056,0.039,0.111,0.079,0.17,0.118  c0.208,0.14,0.428,0.279,0.671,0.418c6.243,3.547,21.626,5.035,34.359,3.322c0.549-0.074,1.079-0.154,1.6-0.237  c0.122-0.019,0.244-0.039,0.365-0.059c0.507-0.084,1.003-0.171,1.481-0.263c0.057-0.011,0.11-0.023,0.166-0.034  c0.436-0.085,0.858-0.175,1.269-0.267c0.101-0.023,0.203-0.045,0.303-0.068c0.44-0.101,0.866-0.206,1.277-0.315  c0.075-0.02,0.146-0.04,0.22-0.06c0.36-0.098,0.709-0.198,1.046-0.301c0.075-0.023,0.153-0.046,0.227-0.069  c0.373-0.117,0.73-0.237,1.073-0.36c0.073-0.026,0.142-0.053,0.214-0.079c0.304-0.112,0.597-0.227,0.876-0.344  c0.045-0.019,0.093-0.038,0.138-0.057c0.305-0.13,0.59-0.264,0.862-0.399c0.063-0.031,0.123-0.063,0.184-0.094  c0.256-0.132,0.5-0.265,0.725-0.401c0.014-0.008,0.029-0.016,0.042-0.024c0.233-0.142,0.444-0.287,0.643-0.433  c0.047-0.034,0.093-0.069,0.138-0.104c0.19-0.147,0.369-0.294,0.524-0.444c0.012-0.011,0.021-0.023,0.032-0.034  c0.144-0.142,0.269-0.285,0.382-0.429c0.027-0.035,0.055-0.07,0.08-0.104c0.11-0.152,0.205-0.304,0.28-0.458  c0.012-0.024,0.019-0.049,0.03-0.073c0.062-0.138,0.108-0.276,0.14-0.415c0.008-0.033,0.017-0.066,0.023-0.099  c0.028-0.155,0.039-0.311,0.031-0.467c-0.002-0.031-0.007-0.063-0.011-0.094C75.567,76.231,75.538,76.092,75.494,75.952z"></path><path d="M83.757,79.303c-0.004-0.041-0.006-0.084-0.011-0.125c-0.021-0.214-0.052-0.421-0.101-0.649  c-0.003-0.016-0.007-0.032-0.011-0.048c-0.033-0.148-0.071-0.305-0.122-0.486c-0.021-0.076-0.042-0.15-0.065-0.222  c-0.014-0.046-0.025-0.087-0.04-0.137c-0.019-0.063-0.056-0.152-0.087-0.233c-0.019-0.051-0.037-0.103-0.056-0.152  c-0.004-0.009-0.008-0.019-0.012-0.028c-0.27-0.674-0.577-1.173-0.765-1.443c-0.142-0.203-0.316-0.446-0.536-0.718  c-0.012-0.015-0.022-0.029-0.034-0.044c-0.057-0.07-0.124-0.144-0.19-0.219c-0.106-0.123-0.216-0.245-0.338-0.371  c-0.022-0.022-0.049-0.047-0.072-0.07c-0.109-0.11-0.214-0.22-0.335-0.327c-0.056-0.05-0.109-0.095-0.163-0.142  c-0.032-0.029-0.055-0.054-0.088-0.083c-0.087-0.076-0.186-0.156-0.287-0.237c-0.364-0.301-0.728-0.572-1.185-0.87  c-0.019-0.013-0.04-0.028-0.058-0.041c-0.254-0.177-0.617-0.375-0.882-0.536c-0.281-0.153-0.928-0.506-1.755-0.887  c-0.014-0.006-0.029-0.013-0.043-0.019c-0.229-0.105-0.473-0.212-0.726-0.317c-0.073-0.031-0.145-0.062-0.219-0.092  c-0.031-0.013-0.064-0.025-0.096-0.037c-0.623-0.253-1.296-0.487-2.012-0.719c-0.079-0.229-0.16-0.464-0.234-0.678  c-0.337-0.978-0.787-2.283-1.124-3.261c-0.674-1.956-1.573-4.565-2.248-6.521c-0.674-1.956-1.573-4.565-2.248-6.521  c-0.337-0.978-0.787-2.282-1.124-3.261c-0.674-1.956-1.573-4.565-2.248-6.521c-0.674-1.956-1.573-4.565-2.248-6.521  c-0.337-0.978-0.787-2.282-1.124-3.261c-0.674-1.956-1.573-4.565-2.248-6.521c-0.674-1.956-1.573-4.565-2.248-6.521  c-0.337-0.978-0.787-2.283-1.124-3.261c-0.674-1.956-1.573-4.565-2.248-6.521c0,0,0,0,0,0c-0.041-0.116-0.093-0.263-0.165-0.428  c-0.013-0.03-0.027-0.058-0.041-0.087c-0.046-0.1-0.101-0.205-0.165-0.314c-0.007-0.012-0.014-0.025-0.021-0.037  c-0.109-0.182-0.246-0.369-0.417-0.553c-0.011-0.012-0.022-0.025-0.032-0.036c-0.041-0.043-0.086-0.085-0.132-0.127  c-0.057-0.053-0.11-0.101-0.163-0.144c-0.028-0.023-0.054-0.045-0.083-0.067c-0.14-0.107-0.259-0.182-0.335-0.227  c-0.07-0.038-0.202-0.101-0.36-0.165c-0.051-0.021-0.102-0.039-0.153-0.056c-0.067-0.023-0.133-0.041-0.211-0.061  c-0.123-0.031-0.242-0.054-0.358-0.068c-0.032-0.004-0.06-0.01-0.093-0.013c-0.214-0.019-0.411-0.011-0.59,0.012  c-0.009,0.001-0.016-0.001-0.025,0c-0.008,0.001-0.016,0.004-0.025,0.005c-0.149,0.021-0.283,0.051-0.4,0.085  c-0.009,0.003-0.018,0.006-0.027,0.009c-0.133,0.041-0.247,0.085-0.328,0.122c-0.007,0.003-0.011,0.008-0.018,0.011  c-0.227,0.103-0.441,0.242-0.646,0.408c-0.023,0.019-0.047,0.036-0.07,0.055c-0.03,0.025-0.062,0.045-0.091,0.072  c-0.348,0.318-0.571,0.672-0.728,0.986c-0.029,0.056-0.051,0.108-0.076,0.163c-0.077,0.174-0.14,0.332-0.18,0.445c0,0,0,0,0,0.001  c-0.682,1.954-1.59,4.56-2.272,6.514c-0.341,0.977-0.795,2.28-1.136,3.257c-0.682,1.954-1.59,4.56-2.272,6.514  s-1.59,4.56-2.272,6.514c-0.341,0.977-0.795,2.28-1.136,3.257c-0.682,1.954-1.59,4.56-2.272,6.514  c-0.682,1.954-1.59,4.56-2.272,6.514c-0.341,0.977-0.795,2.28-1.136,3.257c-0.682,1.954-1.59,4.56-2.272,6.514  c-0.682,1.954-1.59,4.56-2.272,6.514c-0.341,0.977-0.795,2.28-1.136,3.257c-0.08,0.23-0.167,0.479-0.253,0.724  c-0.023,0.007-0.046,0.014-0.068,0.022c-0.62,0.203-1.275,0.44-1.843,0.674c-0.105,0.041-0.202,0.082-0.299,0.122  c0,0-0.001,0-0.001,0.001c0,0,0,0-0.001,0c-0.05,0.021-0.105,0.043-0.152,0.063c-0.223,0.099-0.473,0.211-0.728,0.326  c-0.102,0.046-0.198,0.09-0.287,0.132c-0.051,0.024-0.101,0.047-0.152,0.071c-0.112,0.053-0.219,0.105-0.319,0.156  c-0.26,0.128-0.512,0.258-0.729,0.386c-0.236,0.139-0.437,0.259-0.625,0.373c-0.075,0.044-0.142,0.083-0.226,0.133  c-0.177,0.104-0.459,0.292-0.787,0.534c-0.039,0.028-0.079,0.059-0.118,0.089c-0.244,0.184-0.505,0.395-0.777,0.633  c-0.068,0.058-0.131,0.111-0.204,0.175c-0.187,0.164-0.411,0.387-0.589,0.584c-0.342,0.362-0.666,0.753-0.93,1.165  c-0.009,0.014-0.023,0.036-0.033,0.052c-0.009,0.013-0.016,0.022-0.026,0.036c-0.307,0.434-0.745,1.356-0.875,1.778  c-0.022,0.07-0.039,0.13-0.058,0.195c-0.005,0.017-0.01,0.035-0.016,0.053c-0.158,0.541-0.232,0.901-0.271,1.29  c-0.004,0.033-0.006,0.068-0.009,0.102c-0.018,0.209-0.03,0.432-0.042,0.706c0,0.03,0,0.071,0,0.101  c0.004,0.212,0.011,0.541,0.064,0.952c0.003,0.023,0.007,0.047,0.01,0.07c0.019,0.139,0.043,0.285,0.075,0.441  c0.017,0.089,0.039,0.178,0.061,0.269c0.112,0.463,0.289,0.983,0.562,1.538c0.012,0.026,0.025,0.052,0.037,0.077  c0.037,0.073,0.076,0.146,0.116,0.22c0.019,0.035,0.039,0.069,0.058,0.103c0.155,0.275,0.335,0.555,0.543,0.841  c0.025,0.036,0.049,0.071,0.075,0.109c0.031,0.044,0.2,0.279,0.517,0.628c0.004,0.004,0.008,0.009,0.012,0.013  c0.091,0.1,0.195,0.209,0.311,0.326c0.041,0.042,0.078,0.084,0.121,0.126c0.028,0.028,0.059,0.052,0.087,0.079  c0.162,0.155,0.345,0.321,0.547,0.494c0.037,0.031,0.073,0.065,0.11,0.096c0.008,0.006,0.014,0.012,0.021,0.018  c0.148,0.124,0.355,0.283,0.596,0.458c0.064,0.047,0.126,0.093,0.191,0.139c0.087,0.061,0.191,0.128,0.288,0.193  c0.305,0.205,0.611,0.397,0.919,0.576c0.053,0.031,0.096,0.06,0.152,0.092c0.011,0.006,0.023,0.012,0.034,0.018  c0.313,0.177,0.624,0.342,0.93,0.494c0.179,0.09,0.359,0.174,0.54,0.258c0.124,0.058,0.244,0.112,0.365,0.166  c0.259,0.116,0.517,0.227,0.777,0.333c0.131,0.054,0.266,0.11,0.389,0.159c0.099,0.039,0.233,0.09,0.363,0.14  c0.026,0.01,0.053,0.021,0.08,0.031c0.282,0.106,0.638,0.231,1.049,0.37c0.059,0.02,0.117,0.039,0.175,0.058  c0.266,0.088,0.555,0.179,0.87,0.275c0.072,0.022,0.143,0.044,0.214,0.065c0.257,0.077,0.529,0.155,0.816,0.236  c0.084,0.023,0.161,0.045,0.242,0.067c0.247,0.068,0.495,0.135,0.763,0.204c0.259,0.067,0.498,0.128,0.708,0.181  c0.425,0.108,1.096,0.255,1.772,0.395c0.183,0.038,0.368,0.076,0.558,0.114c0.637,0.128,1.221,0.239,1.533,0.289  c0.542,0.087,1.001,0.161,1.432,0.229c0.275,0.042,0.549,0.086,0.823,0.126c0.535,0.079,1.068,0.151,1.674,0.225  c0.115,0.014,0.229,0.028,0.344,0.042c0.583,0.069,1.243,0.142,2.068,0.227c0.551,0.057,5.551,0.556,11.49,0.461  c0.247-0.004,0.47-0.012,0.71-0.018c0.152-0.003,0.291-0.007,0.439-0.011c0.334-0.009,0.679-0.015,0.998-0.026  c2.239-0.073,3.946-0.198,4.895-0.279c0.268-0.023,0.511-0.049,0.77-0.074c0.332-0.03,0.656-0.061,0.96-0.092  c0.162-0.017,0.32-0.033,0.478-0.05c0.938-0.101,1.749-0.2,2.409-0.282c0.296-0.037,1.993-0.257,4.167-0.678  c0.67-0.129,1.227-0.246,1.673-0.347c1.051-0.233,2.151-0.506,3.221-0.824c0.167-0.05,0.321-0.097,0.476-0.145  c0.662-0.202,1.253-0.399,1.782-0.593c0.557-0.201,0.914-0.348,1.064-0.412c0.075-0.032,0.136-0.059,0.206-0.089  c0.068-0.029,0.134-0.057,0.2-0.086c0.688-0.298,1.153-0.517,1.568-0.736c0.026-0.013,0.053-0.026,0.079-0.039  c0.084-0.042,0.553-0.284,1.166-0.668c0.02-0.012,0.036-0.021,0.056-0.033c0.367-0.217,0.897-0.583,1.456-1.046  c0.016-0.013,0.032-0.025,0.048-0.038c0.01-0.009,0.017-0.016,0.028-0.025c0.206-0.173,0.414-0.356,0.62-0.555  c0.003-0.003,0.006-0.005,0.009-0.008c0.427-0.413,0.834-0.878,1.176-1.372c0.02-0.027,0.043-0.057,0.063-0.084  c0.01-0.014,0.021-0.034,0.032-0.049c0.009-0.014,0.021-0.027,0.03-0.041c0.015-0.023,0.024-0.041,0.038-0.063  c0.099-0.147,0.196-0.308,0.294-0.485c0.039-0.068,0.069-0.127,0.104-0.19c0.029-0.055,0.058-0.107,0.086-0.162  c0.179-0.348,0.294-0.622,0.359-0.82c0,0,0.001-0.002,0.001-0.002c0-0.001,0-0.001,0.001-0.002c0.005-0.016,0.015-0.038,0.019-0.054  c0.018-0.057,0.032-0.104,0.048-0.156c0.152-0.474,0.193-0.62,0.257-0.974c0.002-0.009,0.003-0.017,0.004-0.026  c0.018-0.096,0.033-0.192,0.046-0.289c0.051-0.365,0.067-0.661,0.071-0.986c0-0.03,0-0.071,0-0.101  C83.783,79.72,83.773,79.504,83.757,79.303z M55.442,52.277c0.704-1.767,1.283-3.539,1.737-5.299  c0.645,1.479,1.478,3.019,2.495,4.573c1.51,0.151,3.021,0.411,4.513,0.776c-0.41,1.216-1.029,2.546-1.844,3.942  c0.836,1.773,1.779,3.527,2.833,5.248c-2.243-0.591-4.369-1.207-6.377-1.8c-1.69,1.035-3.564,2.1-5.623,3.132  c0.273-1.831,0.543-3.662,0.811-5.493c-1.361-1.064-2.525-2.06-3.473-2.926C52.257,53.663,53.902,52.93,55.442,52.277z   M41.215,32.677c1.494-0.08,3.033,0.054,4.578,0.353c1.224-1.158,2.459-2.237,3.687-3.155c0.127,1.708,0.254,3.411,0.38,5.108  c1.327,1.043,2.638,2.146,3.936,3.226c-1.421,0.348-2.872,0.854-4.324,1.445c-0.4,1.624-0.799,3.27-1.195,4.925  c-1.021-1.295-2.048-2.607-3.078-3.866c-1.57,0.148-3.135,0.347-4.686,0.585c0.806-1.415,1.608-2.908,2.415-4.429  C42.351,35.404,41.778,33.997,41.215,32.677z M39.137,53.236c-1.418,2.803-1.695,6.169-0.464,9.326  c2.297,5.894,8.937,8.811,14.831,6.514c0.648-0.252,1.253-0.566,1.826-0.916c-1.229,2.43-3.312,4.439-6.049,5.506  c-5.894,2.297-12.535-0.619-14.831-6.514C32.405,61.905,34.497,56.076,39.137,53.236z M75.561,76.931  c-0.006,0.033-0.016,0.066-0.023,0.099c-0.032,0.139-0.078,0.278-0.14,0.415c-0.011,0.024-0.018,0.049-0.03,0.073  c-0.074,0.154-0.17,0.306-0.28,0.458c-0.025,0.035-0.053,0.07-0.08,0.104c-0.113,0.144-0.237,0.287-0.382,0.429  c-0.011,0.011-0.021,0.023-0.032,0.034c-0.155,0.15-0.334,0.297-0.524,0.444c-0.045,0.035-0.091,0.069-0.138,0.104  c-0.199,0.146-0.41,0.291-0.643,0.433c-0.013,0.008-0.029,0.016-0.042,0.024c-0.225,0.136-0.469,0.269-0.725,0.401  c-0.061,0.031-0.121,0.063-0.184,0.094c-0.272,0.135-0.558,0.269-0.862,0.399c-0.045,0.019-0.093,0.038-0.138,0.057  c-0.279,0.117-0.571,0.231-0.876,0.344c-0.071,0.026-0.141,0.053-0.214,0.079c-0.343,0.123-0.7,0.243-1.073,0.36  c-0.074,0.023-0.152,0.046-0.227,0.069c-0.337,0.103-0.685,0.203-1.046,0.301c-0.074,0.02-0.145,0.041-0.22,0.06  c-0.411,0.109-0.837,0.213-1.277,0.315c-0.1,0.023-0.201,0.045-0.303,0.068c-0.412,0.092-0.834,0.181-1.269,0.267  c-0.056,0.011-0.11,0.023-0.166,0.034c-0.479,0.092-0.975,0.179-1.481,0.263c-0.121,0.02-0.242,0.039-0.365,0.059  c-0.521,0.083-1.051,0.163-1.6,0.237c-12.733,1.712-28.116,0.225-34.359-3.322c-0.243-0.138-0.462-0.278-0.671-0.418  c-0.059-0.039-0.114-0.079-0.17-0.118c-0.157-0.111-0.303-0.222-0.439-0.334c-0.04-0.033-0.084-0.066-0.122-0.099  c-0.162-0.141-0.309-0.282-0.438-0.424c-0.028-0.031-0.051-0.061-0.077-0.092c-0.099-0.115-0.188-0.23-0.266-0.346  c-0.028-0.041-0.055-0.083-0.081-0.124c-0.08-0.132-0.15-0.264-0.203-0.396c-0.005-0.012-0.012-0.024-0.017-0.036  c-0.055-0.143-0.09-0.287-0.113-0.43c-0.007-0.04-0.009-0.08-0.013-0.119c-0.011-0.112-0.013-0.224-0.006-0.336  c0.002-0.036,0.002-0.072,0.007-0.108c0.017-0.142,0.048-0.283,0.096-0.424c0.002-0.006,0.002-0.012,0.004-0.019  c0.216-0.62,0.456-1.307,0.703-2.016c-0.041,0.128-0.072,0.257-0.087,0.386c-0.004,0.035-0.004,0.069-0.007,0.104  c-0.008,0.109-0.006,0.219,0.006,0.328c0.004,0.038,0.007,0.077,0.013,0.115c0.023,0.14,0.056,0.279,0.11,0.419  c0.004,0.011,0.012,0.023,0.016,0.035c0.052,0.129,0.12,0.258,0.198,0.387c0.024,0.04,0.051,0.08,0.078,0.12  c0.076,0.113,0.163,0.225,0.26,0.338c0.025,0.029,0.047,0.059,0.074,0.088c0.126,0.138,0.269,0.276,0.427,0.413  c0.037,0.032,0.079,0.063,0.117,0.095c0.132,0.109,0.275,0.218,0.428,0.326c0.055,0.039,0.108,0.077,0.166,0.115  c0.203,0.136,0.416,0.272,0.652,0.406c6.074,3.451,21.04,4.898,33.428,3.232c0.535-0.072,1.052-0.15,1.559-0.231  c0.117-0.019,0.234-0.037,0.349-0.057c0.493-0.082,0.976-0.166,1.442-0.256c0.057-0.011,0.111-0.023,0.167-0.034  c0.423-0.083,0.833-0.17,1.233-0.259c0.097-0.022,0.195-0.043,0.291-0.065c0.428-0.099,0.843-0.2,1.242-0.306  c0.074-0.02,0.144-0.04,0.217-0.06c0.349-0.095,0.686-0.192,1.012-0.291c0.075-0.023,0.151-0.045,0.225-0.068  c0.362-0.113,0.708-0.23,1.04-0.349c0.073-0.026,0.143-0.053,0.214-0.079c0.294-0.109,0.577-0.219,0.846-0.332  c0.045-0.019,0.093-0.037,0.137-0.056c0.296-0.127,0.574-0.257,0.838-0.388c0.061-0.03,0.12-0.061,0.18-0.092  c0.248-0.128,0.485-0.257,0.703-0.389c0.014-0.008,0.029-0.016,0.043-0.025c0.227-0.138,0.432-0.279,0.625-0.421  c0.046-0.033,0.09-0.067,0.134-0.101c0.185-0.142,0.358-0.286,0.509-0.432c0.012-0.011,0.021-0.023,0.033-0.035  c0.14-0.137,0.261-0.276,0.37-0.415c0.027-0.034,0.054-0.068,0.079-0.102c0.107-0.148,0.2-0.296,0.272-0.446  c0.011-0.023,0.019-0.047,0.029-0.07c0.06-0.134,0.105-0.269,0.136-0.404c0.008-0.032,0.017-0.064,0.023-0.096  c0.028-0.151,0.038-0.302,0.03-0.454c-0.002-0.031-0.007-0.061-0.01-0.092c-0.006-0.059-0.025-0.118-0.036-0.176  c0.215,0.624,0.423,1.228,0.613,1.777c0.007,0.019,0.006,0.039,0.012,0.058c0.044,0.14,0.073,0.279,0.087,0.418  c0.003,0.031,0.009,0.063,0.011,0.094C75.6,76.621,75.589,76.776,75.561,76.931z"></path></svg>