<svg fill="#000000" xmlns="http://www.w3.org/2000/svg" xmlns:xlink="http://www.w3.org/1999/xlink" version="1.1" x="0px" y="0px" viewBox="0 0 100 100" enable-background="new 0 0 100 100" xml:space="preserve"><g><path fill-rule="evenodd" clip-rule="evenodd" d="M98.855,52.434c-1.237,0.197-2.478,0.38-3.713,0.59   c-5.552,0.956-11.105,1.922-16.657,2.88c-6.613,1.142-13.228,2.283-19.841,3.424c-6.099,1.052-12.199,2.102-18.297,3.153   c-3.211,0.554-6.421,1.104-9.631,1.662c-0.097,0.015-0.189,0.045-0.335,0.084c0.069,10.728,0.139,21.463,0.208,32.262   c0.905-0.196,1.772-0.378,2.637-0.567c13.435-2.971,26.866-5.942,40.299-8.914c7.686-1.699,15.37-3.398,23.06-5.088   c0.319-0.071,0.411-0.184,0.427-0.476c0.213-3.503,0.438-7.004,0.66-10.505c0.251-3.942,0.509-7.884,0.756-11.824   c0.116-1.836,0.221-3.67,0.335-5.505c0.015-0.21,0.06-0.418,0.092-0.627C98.855,52.799,98.855,52.617,98.855,52.434z"></path><path fill-rule="evenodd" clip-rule="evenodd" d="M28.699,59.947"></path><path fill-rule="evenodd" clip-rule="evenodd" d="M1.766,48.362c0.074,2.525,0.146,4.966,0.216,7.407   c0.084,2.9,0.166,5.799,0.254,8.699c0.109,3.673,0.226,7.345,0.332,11.02c0.009,0.309,0.123,0.526,0.374,0.737   c7.662,6.436,15.315,12.878,22.971,19.318c0.152,0.128,0.314,0.247,0.539,0.425c0-0.711,0.007-1.34,0-1.97   c-0.042-3.891-0.083-7.777-0.129-11.666c-0.064-5.301-0.129-10.604-0.198-15.903c-0.012-1.034-0.059-2.065-0.053-3.097   c0.001-0.329-0.112-0.511-0.409-0.688c-5.73-3.421-11.455-6.851-17.181-10.28c-2.128-1.274-4.255-2.549-6.383-3.822   C2.019,48.495,1.934,48.452,1.766,48.362z"></path></g><g><path fill-rule="evenodd" clip-rule="evenodd" d="M5.013,28.756c0,0,2.576-5.11,8.313-3.722c0,0,8.536-0.549,15.374,34.913   l70.156-11.585c0,0-5.599-26.29-20.58-27.756L10.99,24.163C10.99,24.163,6.021,24.43,5.013,28.756z"></path></g><g><path fill-rule="evenodd" clip-rule="evenodd" d="M25.457,59.947c0,0-3.834-35.436-15.338-32.647c0,0-8.795,1.049-8.353,18.65"></path></g></svg>