<svg height='100px' width='100px'  fill="#000000" xmlns="http://www.w3.org/2000/svg" xmlns:xlink="http://www.w3.org/1999/xlink" version="1.1" x="0px" y="0px" viewBox="0 0 100 100" enable-background="new 0 0 100 100" xml:space="preserve"><path d="M74.73,40.783c-2.719,0-4.932,2.212-4.932,4.933c0,1.317,0.512,2.553,1.443,3.485c0.931,0.932,2.17,1.445,3.486,1.443  c1.317,0,2.556-0.515,3.486-1.442c0.932-0.932,1.443-2.169,1.442-3.487c0-1.317-0.513-2.557-1.444-3.488  C77.284,41.297,76.048,40.783,74.73,40.783z"></path><path d="M56.078,17.608c1.579,0,3.064-0.616,4.184-1.733c1.117-1.117,1.731-2.603,1.729-4.183c0.002-1.581-0.613-3.066-1.731-4.186  c-1.117-1.117-2.603-1.732-4.182-1.732c-3.264,0-5.916,2.655-5.916,5.917c0,1.58,0.615,3.066,1.732,4.184  C53.014,16.993,54.499,17.608,56.078,17.608z"></path><path d="M86.46,30.595c0.127-0.094,0.19-0.249,0.165-0.404l-0.951-5.552l4.03-3.933c0.112-0.11,0.153-0.273,0.104-0.422  c-0.05-0.149-0.179-0.26-0.334-0.282l-5.572-0.811L81.41,14.14c-0.067-0.141-0.212-0.229-0.37-0.229s-0.302,0.088-0.371,0.229  l-2.494,5.052l-5.569,0.812c-0.157,0.021-0.285,0.132-0.336,0.28c-0.049,0.149-0.01,0.29,0.105,0.425l4.031,3.933l-0.951,5.552  c-0.023,0.132,0.021,0.268,0.115,0.36c0.015,0.015,0.029,0.03,0.049,0.043c0.128,0.093,0.296,0.104,0.436,0.031l4.987-2.621  l4.983,2.621C86.163,30.7,86.333,30.688,86.46,30.595z"></path><path d="M70.749,66.239l-4.591-0.664l-2.053-4.162c-0.058-0.114-0.176-0.188-0.306-0.188s-0.248,0.073-0.305,0.188l-2.054,4.162  L56.85,66.24c-0.129,0.02-0.233,0.109-0.274,0.232c-0.04,0.123-0.013,0.256,0.085,0.348l3.322,3.24l-0.782,4.57  c-0.019,0.11,0.018,0.221,0.095,0.299c0.014,0.012,0.025,0.024,0.042,0.034c0.104,0.075,0.242,0.086,0.356,0.026l4.106-2.159  l4.104,2.16c0.113,0.06,0.254,0.05,0.356-0.027c0.106-0.075,0.159-0.205,0.138-0.332l-0.785-4.573l3.322-3.238  c0.092-0.09,0.127-0.227,0.086-0.348C70.982,66.35,70.877,66.26,70.749,66.239z"></path><path d="M25.565,36.051l-0.842,4.898c-0.019,0.117,0.02,0.237,0.103,0.319c0.014,0.013,0.028,0.027,0.044,0.036  c0.112,0.083,0.261,0.093,0.384,0.029l4.4-2.312l4.398,2.312c0.123,0.065,0.271,0.054,0.385-0.027  c0.111-0.083,0.168-0.219,0.145-0.357l-0.84-4.897l3.557-3.47c0.101-0.097,0.135-0.242,0.094-0.373  c-0.043-0.133-0.157-0.229-0.295-0.249l-4.916-0.717l-2.201-4.454c-0.062-0.126-0.188-0.204-0.328-0.204  c-0.138,0-0.266,0.078-0.327,0.204l-2.199,4.454l-4.918,0.717c-0.136,0.02-0.25,0.115-0.293,0.249  c-0.043,0.131-0.029,0.258,0.093,0.373L25.565,36.051z"></path><path d="M58.1,48.098l8.729-8.73c1.153-1.152,1.153-3.03,0-4.184l-2.789-2.789c-1.114-1.114-3.069-1.114-4.185,0L5.863,86.389  C5.306,86.943,5,87.688,5,88.479c0,0.793,0.306,1.537,0.864,2.094l2.79,2.789c0.557,0.558,1.3,0.865,2.091,0.865  c0.792,0,1.535-0.31,2.092-0.865l8.731-8.731l36.53-36.531C58.098,48.099,58.098,48.099,58.1,48.098z M11.442,91.965  c-0.37,0.369-1.024,0.369-1.395,0l-2.789-2.788c-0.185-0.185-0.287-0.432-0.287-0.698c0-0.265,0.103-0.512,0.286-0.695l8.034-8.034  l4.184,4.185L11.442,91.965z M53.218,41.823l8.033-8.033c0.185-0.185,0.433-0.286,0.697-0.286c0.266,0,0.513,0.102,0.698,0.286  l2.787,2.789c0.385,0.384,0.385,1.01,0,1.394l-8.031,8.034L53.218,41.823z"></path><path d="M47.981,29.313l-0.447,2.613c-0.012,0.062,0.01,0.125,0.055,0.17c0.005,0.008,0.013,0.013,0.022,0.021  c0.061,0.043,0.139,0.049,0.204,0.014l2.348-1.232l2.345,1.232c0.065,0.035,0.145,0.029,0.205-0.015  c0.059-0.043,0.09-0.115,0.077-0.191l-0.448-2.611l1.896-1.851c0.055-0.053,0.072-0.13,0.051-0.198  c-0.021-0.071-0.084-0.122-0.158-0.134L51.51,26.75l-1.175-2.377c-0.031-0.065-0.1-0.107-0.173-0.107  c-0.074,0-0.142,0.04-0.174,0.107l-1.176,2.377l-2.621,0.381c-0.072,0.011-0.135,0.063-0.157,0.133  c-0.023,0.069-0.006,0.138,0.05,0.2L47.981,29.313z"></path><path d="M94.988,50.304c-0.028-0.09-0.104-0.153-0.196-0.166l-3.278-0.478l-1.467-2.972c-0.039-0.082-0.125-0.135-0.217-0.135  c-0.094,0-0.178,0.052-0.219,0.135l-1.467,2.972l-3.277,0.478c-0.092,0.012-0.168,0.076-0.197,0.164  c-0.027,0.088-0.005,0.171,0.063,0.251l2.373,2.313l-0.562,3.266c-0.013,0.078,0.015,0.157,0.067,0.214  c0.011,0.008,0.02,0.018,0.029,0.023c0.074,0.055,0.174,0.063,0.256,0.02l2.935-1.543l2.933,1.541  c0.08,0.045,0.18,0.037,0.254-0.019c0.075-0.054,0.113-0.146,0.099-0.237l-0.56-3.265l2.371-2.313  C94.992,50.487,95.018,50.39,94.988,50.304z"></path></svg>