<svg fill="#000000" xmlns="http://www.w3.org/2000/svg" xmlns:xlink="http://www.w3.org/1999/xlink" version="1.1" x="0px" y="0px" viewBox="0 0 55 55" style="enable-background:new 0 0 55 55;" xml:space="preserve"><style type="text/css">
	.st0{fill:none;stroke:#FFFFFF;stroke-width:2;stroke-linecap:round;stroke-linejoin:round;stroke-miterlimit:10;}
</style><g><g><g><polygon points="51.1298218,40.7729492 51.135376,40.7796631 51.5,41.0765381 51.5,16.5068359 36.4076538,28.7904663    "></polygon></g><g><path d="M20.1763916,30.0950928L5.0906372,42.5499878h45.0526733l-15.319397-12.47052l-1.0212402,0.8311768     c-1.7792969,1.4560547-4.0224609,2.2597656-6.3125,2.2597656c-2.2783203,0-4.5195313-0.8017578-6.3115234-2.2587891     L20.1763916,30.0950928z"></path></g><g><path d="M3.5771484,41.2054443c0.0598145-0.1621704,0.1463623-0.3154297,0.289978-0.4324951l14.7104492-11.9804077     L3.5,16.5087891v24.760376L3.5771484,41.2054443z"></path></g></g><g><path d="M51.1300049,14.2299805L32.539978,29.3599854c-1.4299927,1.1700439-3.2199707,1.8099976-5.0499878,1.8099976    c-1.8200073,0-3.6099854-0.6399536-5.0499878-1.8099976L3.8699951,14.2299805    c-0.3300171-0.2699585-0.4500122-0.7099609-0.3099976-1.1099854C3.6999512,12.7200317,4.0799561,12.4500122,4.5,12.4500122h46    c0.4199829,0,0.7999878,0.2700195,0.9400024,0.6699829C51.5799561,13.5200195,51.4599609,13.960022,51.1300049,14.2299805z"></path></g></g></svg>