<svg fill="#000000" xmlns="http://www.w3.org/2000/svg" xmlns:xlink="http://www.w3.org/1999/xlink" version="1.1" x="0px" y="0px" viewBox="0 0 100 100" style="enable-background:new 0 0 100 100;" xml:space="preserve"><title>PVC Bottles</title><path d="M53.8430176,20.2348328v-2.6186523h0.6894531V11.009737h-8.8525391v6.6064434h0.6899414v2.6186523l-0.0449219,0.0268555  C35.7571411,26.6527405,29.2999878,38.1039734,29.3000488,50.454071v31.300293  c0.000061,3.9962158,3.239624,7.2357178,7.2358398,7.2358398h26.9282227c3.9962158-0.000061,7.2357788-3.239624,7.2359009-7.2358398  V50.3251648C70.7000732,38.0450134,64.3153687,26.6481628,53.8430176,20.2348328z M51.5494995,12.740694  c0-0.380249,0.3082275-0.6885376,0.6884766-0.6885376s0.6884766,0.3082886,0.6884766,0.6885376v2.8491211  c0,0.380249-0.3082275,0.6884747-0.6884766,0.6884747s-0.6884766-0.3082256-0.6884766-0.6884747V12.740694z M67.9797363,80.1947937  c-0.0001831,3.5215454-2.8549194,6.3762817-6.3764648,6.3764038h-10.453125  c-0.380188,0.0013428-0.6894531-0.3058472-0.6907959-0.6860962c-0.0012817-0.380188,0.3059082-0.6894531,0.6861572-0.6907959  c0.0015259,0,0.0031128,0,0.0046387,0h10.453125c2.7611694,0,4.9995117-2.2383423,4.9995117-4.9995117v-29.293457  c-0.0053711-10.7745972-5.1497803-19.8890381-13.8347778-26.312439c-0.3054199-0.2265015-0.3693848-0.6576538-0.1428833-0.9630737  c0.2258301-0.3045654,0.6554565-0.3691406,0.9608765-0.1444702c8.9819946,6.6253662,14.3991089,16.1916504,14.3937378,27.4199829  V80.1947937z"></path></svg>