<svg fill="#000000" xmlns="http://www.w3.org/2000/svg" xmlns:xlink="http://www.w3.org/1999/xlink" version="1.1" x="0px" y="0px" viewBox="0 0 100 100" style="enable-background:new 0 0 100 100;" xml:space="preserve"><path d="M20.9,17.3C20.9,17.3,20.9,17.3,20.9,17.3c0.5-0.6,2.6-1.7,6.9-2.6c0,0,0,0,0,0c0.3-0.1,0.7-0.1,1-0.2  c0.4-0.1,0.7-0.1,1.1-0.2c0,0,0.1,0,0.1,0c2.8-0.4,6.2-0.7,10.1-0.8c0.8,0,1.6,0,2.5,0c0.9,0,1.7,0,2.5,0c3.8,0.1,7.1,0.4,9.8,0.8  c0.2,0,0.4,0.1,0.6,0.1c0.2,0,0.4,0.1,0.5,0.1c5.3,0.9,7.8,2.2,8.2,2.8c-0.7,0.9-6.8,3.8-21.7,3.8C27.8,21.1,21.6,18.3,20.9,17.3z   M70.3,42c14.9,0,21.1-2.9,21.7-3.8c-0.4-0.6-3-1.9-8.5-2.8c0,0-0.1,0-0.1,0c-0.5-0.1-1-0.2-1.6-0.2c-0.2,0-0.3,0-0.5-0.1  c-0.5-0.1-0.9-0.1-1.4-0.2c-0.3,0-0.6-0.1-0.9-0.1c-0.4,0-0.8-0.1-1.2-0.1c-0.4,0-0.8-0.1-1.2-0.1c-0.4,0-0.7-0.1-1.1-0.1  c-0.5,0-1,0-1.6-0.1c-0.3,0-0.6,0-0.9,0c-0.9,0-1.8,0-2.7,0s-1.9,0-2.7,0c-0.3,0-0.6,0-0.9,0c-0.5,0-1.1,0-1.6,0.1  c-0.3,0-0.6,0-1,0.1c-0.5,0-0.9,0.1-1.4,0.1c-0.3,0-0.6,0.1-0.9,0.1c-0.4,0-0.8,0.1-1.2,0.1c-0.3,0-0.6,0.1-0.9,0.1  c-0.4,0-0.7,0.1-1.1,0.1c-0.3,0-0.5,0.1-0.8,0.1c-0.3,0-0.6,0.1-0.9,0.1c-0.3,0-0.5,0.1-0.7,0.1c-0.3,0.1-0.6,0.1-0.8,0.2  c-0.2,0-0.4,0.1-0.7,0.1c-0.2,0.1-0.5,0.1-0.7,0.2c-0.2,0-0.4,0.1-0.6,0.2c-0.2,0.1-0.4,0.1-0.6,0.2c-0.2,0.1-0.3,0.1-0.5,0.2  c-0.2,0.1-0.4,0.1-0.5,0.2c-0.2,0.1-0.3,0.1-0.4,0.2c-0.2,0.1-0.3,0.1-0.5,0.2c-0.1,0-0.2,0.1-0.4,0.1c-0.1,0.1-0.3,0.1-0.4,0.2  c-0.1,0-0.2,0.1-0.3,0.1c-0.1,0.1-0.2,0.1-0.3,0.1c-0.1,0-0.2,0.1-0.2,0.1c-0.1,0-0.1,0.1-0.2,0.1c-0.1,0-0.1,0.1-0.2,0.1  c-0.1,0-0.1,0.1-0.1,0.1c0,0-0.1,0.1-0.1,0.1c0,0,0,0,0,0.1C49.3,39.1,55.5,42,70.3,42z M70.3,45c-0.8,0-15.3,0-21.8-3.2l0,18.1  c3.4,1,5.9,2.5,5.9,4.7v14.6c3.5,0.8,8.6,1.5,15.8,1.5c15.3,0,21.4-3,21.8-3.9l0-34.9C85.6,45,71.1,45,70.3,45z M29.7,68.3  c14.9,0,21.1-2.9,21.7-3.8c-0.4-0.6-3-1.9-8.5-2.8c0,0-0.1,0-0.1,0c-0.5-0.1-1-0.2-1.6-0.2c-0.2,0-0.3,0-0.5-0.1  c-0.5-0.1-0.9-0.1-1.4-0.2c-0.3,0-0.6-0.1-0.9-0.1c-0.4,0-0.8-0.1-1.2-0.1c-0.4,0-0.8-0.1-1.2-0.1c-0.4,0-0.7-0.1-1.1-0.1  c-0.5,0-1,0-1.6-0.1c-0.3,0-0.6,0-0.9,0c-0.9,0-1.8,0-2.7,0c-0.9,0-1.9,0-2.7,0c-0.3,0-0.6,0-0.9,0c-0.5,0-1.1,0-1.6,0.1  c-0.3,0-0.6,0-1,0.1C23,61,22.5,61,22.1,61c-0.3,0-0.6,0.1-0.9,0.1c-0.4,0-0.8,0.1-1.2,0.1c-0.3,0-0.6,0.1-0.9,0.1  c-0.4,0-0.7,0.1-1.1,0.1c-0.3,0-0.5,0.1-0.8,0.1c-0.3,0-0.6,0.1-0.9,0.1c-0.3,0-0.5,0.1-0.7,0.1C15.3,61.9,15,62,14.7,62  c-0.2,0-0.4,0.1-0.7,0.1c-0.2,0.1-0.5,0.1-0.7,0.2c-0.2,0-0.4,0.1-0.6,0.2c-0.2,0.1-0.4,0.1-0.6,0.2c-0.2,0.1-0.3,0.1-0.5,0.2  c-0.2,0.1-0.4,0.1-0.5,0.2c-0.2,0.1-0.3,0.1-0.4,0.2c-0.2,0.1-0.3,0.1-0.5,0.2c-0.1,0-0.2,0.1-0.4,0.1c-0.1,0.1-0.3,0.1-0.4,0.2  c-0.1,0-0.2,0.1-0.3,0.1c-0.1,0.1-0.2,0.1-0.3,0.1c-0.1,0-0.2,0.1-0.2,0.1c-0.1,0-0.1,0.1-0.2,0.1c-0.1,0-0.1,0.1-0.2,0.1  c-0.1,0-0.1,0.1-0.1,0.1c0,0-0.1,0.1-0.1,0.1c0,0,0,0,0,0.1C8.6,65.5,14.8,68.3,29.7,68.3z M29.7,71.4c-0.8,0-15.3,0-21.8-3.2  l0,14.5c0.3,0.8,6.4,3.8,21.8,3.8s21.4-3,21.8-3.9l0-14.4C45,71.4,30.5,71.4,29.7,71.4z M29.7,57.7c0.6,0,9,0,15.8,1.4V38.2  c0-4.7,11.5-6.2,18.9-6.7l0-10.6c-6.5,3.2-21,3.2-21.8,3.2c-0.8,0-15.3,0-21.8-3.2l0,37.2C25.4,57.7,29.3,57.7,29.7,57.7z"></path></svg>