<svg fill="#000000" xmlns="http://www.w3.org/2000/svg" xmlns:xlink="http://www.w3.org/1999/xlink" version="1.1" x="0px" y="0px" viewBox="-630 347 100 100" style="enable-background:new -630 347 100 100;" xml:space="preserve"><path d="M-561.4,436.1v-36.3c0-5.8-5-10-8.3-12.9c-0.9-0.8-1.8-1.6-2.2-2.1c0-0.5,0.2-1.1,0.3-1.7  c0.3-1.1,0.7-2.5,0.7-4.6c0-1.2-0.1-2.5-0.4-4.1l0,0c-0.2-1.3-0.5-2.7-0.9-3.8c-0.2-0.9-0.4-1.7-0.5-2.4c-0.2-1.4-0.2-1.8-0.1-2.2  s0.1-0.7,0.1-1.1c0-0.2,0-0.7-0.5-1.6v-9.7c0-0.9-0.8-1.6-1.6-1.6H-585c-0.9,0-1.6,0.8-1.6,1.6v9.6c-0.5,1-0.5,1.4-0.5,1.6  c0,0.4,0.1,0.8,0.1,1.1c0.1,0.4,0.2,0.9-0.1,2.2c-0.1,0.7-0.3,1.5-0.5,2.4c-0.3,1.2-0.7,2.5-0.9,3.8l0,0c-0.3,1.6-0.4,3-0.4,4.1  c0,2.1,0.3,3.5,0.7,4.6c0.2,0.7,0.3,1.2,0.3,1.7c-0.3,0.4-1.4,1.3-2.2,2.1c-3.3,2.8-8.3,7.2-8.3,12.9v36.2c-0.2,0.9-0.5,3.2,0.8,4.8  c0.4,0.7,1.4,1.3,2.9,1.3h29.7c1.5,0,2.5-0.8,2.9-1.3C-561,439.3-561.3,436.9-561.4,436.1z M-583.5,355.3h6.8v4.8h-6.8V355.3z   M-583.7,364.5c0.2-0.2,0.2-0.5,0.2-0.9v-0.3h6.8v0.3c0,0.3,0.1,0.7,0.2,0.9c0.1,0.1,0.2,0.4,0.3,0.5c0,0,0,0.1,0,0.2  c-0.1,0.5-0.2,1.2-0.1,2.1h-7.7c0.1-1,0-1.5-0.1-2.1c0-0.1,0-0.2,0-0.2C-583.9,364.8-583.8,364.6-583.7,364.5z M-584.7,371.3  c0.1-0.2,0.1-0.4,0.2-0.8h8.9c0.1,0.2,0.1,0.4,0.2,0.8c0.1,0.5,0.3,1.2,0.4,1.7H-585C-584.9,372.4-584.8,371.9-584.7,371.3z   M-575.6,380.6c0,0.2-0.1,0.4-0.1,0.7c-0.2,0.8-0.9,1.2-1.6,1.2c-0.1,0-0.3,0-0.4,0c-0.9-0.2-1.4-1.1-1.2-2c0-0.2,0.1-0.3,0.1-0.5  c0.2-0.9,1.1-1.4,2-1.3C-576,378.8-575.4,379.7-575.6,380.6z M-568.4,422c0,1.2-1.2,1.3-1.2,2.5s2.9,10.9-8.8,8.9  c-1.1-0.2-2.2-0.2-3.3,0c-11.7,2-8.8-7.7-8.8-8.9c0-1.3-1.2-1.3-1.2-2.5s0.9-3.2,0.9-4.7c0-1.5-0.9-1.5-0.9-4.1  c0-7.5,7.9-9.3,11.6-9.3c3.7,0,11.6,1.7,11.6,9.3c0,2.6-0.9,2.5-0.9,4.1C-569.1,419-568.4,420.9-568.4,422z M-568.5,396.9  c-0.3,0.2-0.7,0.3-1.1,0.3c-0.4,0-1-0.2-1.3-0.5c-1.2-1.4-2.7-2.8-4-3.9c-2.4-2.1-4.6-4-4.9-7c-0.1-0.9,0.5-1.7,1.4-1.8  c0.9-0.1,1.7,0.5,1.8,1.4c0.2,1.6,1.5,2.8,3.8,4.9c1.4,1.2,3,2.6,4.3,4.2C-567.7,395.4-567.8,396.3-568.5,396.9z"></path></svg>