<svg height='100px' width='100px'  fill="#000000" xmlns:dc="http://purl.org/dc/elements/1.1/" xmlns:cc="http://creativecommons.org/ns#" xmlns:rdf="http://www.w3.org/1999/02/22-rdf-syntax-ns#" xmlns:svg="http://www.w3.org/2000/svg" xmlns="http://www.w3.org/2000/svg" xmlns:sodipodi="http://sodipodi.sourceforge.net/DTD/sodipodi-0.dtd" xmlns:inkscape="http://www.inkscape.org/namespaces/inkscape" viewBox="0 0 8.4666665 8.4666669" version="1.1" x="0px" y="0px"><g transform="translate(0,-288.53332)"><path style="" d="m 1.0411732,289.87299 a 1.9363102,1.9363102 0 0 1 0.996848,1.29139 14.232233,14.232233 0 0 0 0.394985,1.40595 1.5906979,1.5906979 0 0 0 1.5454919,1.082 1.0776876,1.0776876 0 0 0 1.032696,-0.87524 2.7220273,2.7220273 0 0 0 -3.9700209,-2.9041 z" fill="#000000" stroke="none"></path><path style="" d="m 5.9987871,291.01653 a 67.034945,67.034945 0 0 0 -0.5528098,1.55873 1.5906979,1.5906979 0 0 1 -0.5521172,0.76005 1.2099792,1.2099792 0 0 0 0.2472761,-0.5334 2.8543187,2.8543187 0 0 0 -0.589163,-2.33626 3.5927922,3.5927922 0 0 1 2.5808974,-0.94507 3.2229407,3.2229407 0 0 0 -1.1340835,1.49595 z" fill="#000000" stroke="none"></path><path style="" d="m 4.4660852,290.36491 a 2.8543187,2.8543187 0 0 0 -1.853315,-0.93939 3.1749982,3.1749982 0 0 1 3.2016465,0.148 3.7250836,3.7250836 0 0 0 -1.3483315,0.79139 z" fill="#000000" stroke="none"></path><path style="" d="m 4.2799363,296.47082 a 22.884663,22.884663 0 0 0 -0.0053,-1.79557 0.79374955,0.79374955 0 0 1 0.475175,-0.76078 2.0215644,2.0215644 0 0 0 0.4254299,-0.25191 0.64782153,0.64782153 0 0 1 0.9046239,0.11198 0.61838681,0.61838681 0 0 0 -1.0441559,-0.33879 1.7569812,1.7569812 0 0 1 -2.1909249,0 0.61838681,0.61838681 0 0 0 -1.0441559,0.33879 0.64782153,0.64782153 0 0 1 0.9046309,-0.11198 2.0215644,2.0215644 0 0 0 0.621491,0.32576 0.79374955,0.79374955 0 0 1 0.5521939,0.72357 22.487788,22.487788 0 0 1 0.0038,1.75893 z" fill="#000000" stroke="none"></path></g></svg>