<svg fill="#000000" xmlns="http://www.w3.org/2000/svg" xmlns:xlink="http://www.w3.org/1999/xlink" version="1.1" x="0px" y="0px" viewBox="0 0 100 100" enable-background="new 0 0 100 100" xml:space="preserve"><path d="M50,100C22.43,100,0,77.57,0,50S22.43,0,50,0s50,22.43,50,50S77.57,100,50,100z M50,2.367  C23.734,2.367,2.367,23.736,2.367,50c0,26.265,21.368,47.633,47.633,47.633c26.265,0,47.633-21.368,47.633-47.633  C97.633,23.736,76.265,2.367,50,2.367z"></path><path d="M16.658,22.571c-0.274,0-0.548-0.095-0.771-0.287c-0.496-0.425-0.552-1.172-0.127-1.669  c3.725-4.336,8.169-7.883,13.211-10.542c0.58-0.303,1.293-0.083,1.599,0.495c0.305,0.578,0.083,1.294-0.495,1.599  c-4.777,2.52-8.99,5.883-12.52,9.992C17.322,22.43,16.991,22.571,16.658,22.571z"></path><path d="M30.29,17.317c-0.381,0-0.757-0.185-0.984-0.524c-0.364-0.543-0.217-1.278,0.326-1.644c1.275-0.853,2.617-1.651,3.988-2.376  c0.58-0.303,1.293-0.083,1.6,0.495c0.305,0.578,0.083,1.294-0.495,1.599c-1.299,0.685-2.57,1.442-3.778,2.251  C30.745,17.252,30.516,17.317,30.29,17.317z"></path><path d="M25.308,21.177c-0.325,0-0.647-0.131-0.881-0.393c-0.437-0.488-0.396-1.237,0.09-1.671c0.596-0.534,1.208-1.054,1.836-1.558  c0.508-0.412,1.254-0.331,1.663,0.18c0.41,0.511,0.328,1.255-0.182,1.664c-0.593,0.476-1.173,0.969-1.737,1.475  C25.872,21.078,25.589,21.177,25.308,21.177z"></path><path d="M21.307,25.271c-0.274,0-0.548-0.095-0.771-0.284c-0.496-0.428-0.553-1.174-0.127-1.669  c1.277-1.491,2.661-2.903,4.109-4.205c0.486-0.439,1.232-0.4,1.671,0.09c0.437,0.485,0.396,1.234-0.09,1.671  c-1.373,1.232-2.683,2.573-3.894,3.983C21.971,25.129,21.639,25.271,21.307,25.271z"></path><path d="M50,95.118C25.122,95.118,4.882,74.878,4.882,50c0-10.782,3.863-21.216,10.878-29.385c0.429-0.492,1.178-0.548,1.669-0.125  c0.496,0.426,0.552,1.172,0.127,1.669C10.909,29.896,7.249,39.783,7.249,50c0,23.574,19.179,42.752,42.751,42.752  c1.747,0,3.509-0.106,5.233-0.317c0.638-0.088,1.238,0.379,1.317,1.031c0.078,0.649-0.382,1.239-1.031,1.317  C53.7,95.005,51.842,95.118,50,95.118z"></path><path d="M55.374,94.792c-0.59,0-1.101-0.438-1.172-1.04c-0.079-0.649,0.381-1.238,1.031-1.317c6.33-0.771,12.273-2.898,17.663-6.321  c0.546-0.35,1.283-0.189,1.632,0.365c0.352,0.55,0.188,1.282-0.365,1.632c-5.688,3.612-11.961,5.859-18.644,6.673  C55.471,94.79,55.423,94.792,55.374,94.792z"></path><path d="M51.791,91.545c-0.589,0-1.1-0.439-1.172-1.04c-0.078-0.649,0.382-1.239,1.031-1.317c4.35-0.532,8.952-1.188,13.182-2.861  c0.597-0.248,1.295,0.058,1.535,0.665c0.24,0.608-0.058,1.295-0.666,1.535c-4.488,1.777-9.262,2.462-13.765,3.01  C51.889,91.543,51.84,91.545,51.791,91.545z"></path><path d="M68.182,87.267c-0.423,0-0.832-0.227-1.045-0.626c-0.308-0.578-0.088-1.295,0.487-1.603  c1.151-0.614,2.254-1.324,3.278-2.112c0.515-0.396,1.257-0.303,1.659,0.217c0.397,0.519,0.301,1.26-0.218,1.66  c-1.125,0.866-2.339,1.647-3.605,2.325C68.561,87.223,68.371,87.267,68.182,87.267z"></path><path d="M73.53,88.295c-0.391,0-0.774-0.194-0.999-0.548c-0.352-0.552-0.188-1.282,0.363-1.634  C85.33,78.211,92.752,64.712,92.752,50C92.752,26.426,73.574,7.249,50,7.249c-6.939,0-13.828,1.701-19.924,4.918  c-0.578,0.303-1.294,0.083-1.599-0.495c-0.305-0.578-0.083-1.294,0.495-1.599C35.406,6.676,42.678,4.882,50,4.882  c24.878,0,45.118,20.241,45.118,45.118c0,15.525-7.833,29.773-20.952,38.11C73.967,88.235,73.747,88.295,73.53,88.295z"></path><path d="M38.954,32.114c-0.439,0-0.86-0.245-1.066-0.668c-1.3-2.683-1.521-5.841-0.622-8.894c1.863-6.324,8.032-10.26,13.785-8.76  c3.948,1.029,6.81,4.366,7.468,8.709c0.1,0.647-0.347,1.25-0.991,1.348c-0.629,0.106-1.251-0.345-1.348-0.992  c-0.516-3.393-2.709-5.989-5.726-6.777c-4.525-1.174-9.412,2.031-10.919,7.142c-0.732,2.485-0.562,5.039,0.483,7.193  c0.284,0.587,0.039,1.294-0.55,1.581C39.303,32.078,39.127,32.114,38.954,32.114z"></path><path d="M43.655,46.022c-0.495,0-0.955-0.311-1.121-0.805L37.78,31.171c-0.21-0.62,0.123-1.29,0.742-1.5  c0.622-0.208,1.292,0.123,1.5,0.742l4.755,14.047c0.21,0.619-0.123,1.289-0.742,1.5C43.91,46.001,43.78,46.022,43.655,46.022z"></path><path d="M68.598,39.832c-0.389,0-0.768-0.191-0.994-0.541c-0.355-0.55-0.196-1.282,0.352-1.636c2.094-1.353,3.654-3.472,4.392-5.971  c0.783-2.656,0.518-5.443-0.73-7.651c-1.045-1.847-2.7-3.144-4.664-3.656c-3.054-0.786-6.38,0.388-8.707,3.076  c-0.428,0.495-1.177,0.548-1.669,0.12c-0.495-0.427-0.548-1.174-0.12-1.668c2.921-3.375,7.177-4.835,11.092-3.816  c2.589,0.673,4.767,2.372,6.128,4.78c1.562,2.762,1.904,6.217,0.94,9.486c-0.899,3.042-2.809,5.628-5.376,7.288  C69.041,39.772,68.819,39.832,68.598,39.832z"></path><path d="M56.211,50.078c-0.34,0-0.678-0.146-0.913-0.43c-0.416-0.504-0.345-1.25,0.159-1.666l12.51-10.339  c0.499-0.419,1.245-0.35,1.666,0.159c0.416,0.504,0.345,1.251-0.159,1.667l-12.51,10.339C56.745,49.991,56.477,50.078,56.211,50.078  z"></path><path d="M23.17,71.812c-0.115,0-0.232-0.002-0.348-0.005c-2.753-0.099-5.263-1.308-7.071-3.402c-2.014-2.337-2.956-5.579-2.584-8.9  c0.483-4.381,3.141-8.284,6.936-10.187c0.583-0.294,1.295-0.058,1.589,0.529c0.292,0.582,0.056,1.294-0.528,1.588  c-3.084,1.544-5.247,4.736-5.643,8.33c-0.299,2.672,0.438,5.256,2.023,7.094c1.372,1.59,3.275,2.508,5.36,2.582  c2.28,0.104,4.54-0.83,6.363-2.552c0.475-0.451,1.224-0.428,1.672,0.046c0.449,0.477,0.427,1.225-0.047,1.674  C28.698,70.683,25.968,71.812,23.17,71.812z"></path><path d="M56.311,75.896c-0.453,0-0.888-0.263-1.082-0.705l-2.645-5.993c-0.266-0.599,0.007-1.297,0.604-1.56  c0.601-0.267,1.297,0.004,1.561,0.603l2.644,5.994c0.266,0.599-0.007,1.296-0.604,1.56C56.632,75.864,56.47,75.896,56.311,75.896z"></path><path d="M46.376,83.402c-0.1,0-0.199-0.012-0.299-0.04l-12.77-3.326c-0.353-0.09-0.643-0.34-0.787-0.672  c-0.146-0.336-0.128-0.717,0.045-1.036l9.539-17.585l-11.467,8.078c-0.534,0.375-1.274,0.245-1.649-0.286  c-0.377-0.534-0.249-1.273,0.286-1.65l15.597-10.988c0.45-0.312,1.061-0.28,1.468,0.083c0.411,0.367,0.516,0.966,0.254,1.449  L35.367,78.127l9.969,2.599l2.297-23.13c0.051-0.534,0.46-0.967,0.989-1.052c0.527-0.074,1.055,0.201,1.27,0.69l4.856,11.007  c0.266,0.599-0.008,1.297-0.604,1.561c-0.605,0.264-1.297-0.007-1.561-0.604l-3.042-6.893l-1.99,20.03  c-0.032,0.345-0.217,0.657-0.499,0.854C46.852,83.33,46.616,83.402,46.376,83.402z"></path><path d="M20.633,51.561c-0.221,0-0.444-0.062-0.643-0.189c-3.406-2.21-5.215-6.336-4.719-10.765  c0.725-6.47,6.112-11.626,12.113-11.344c2.958,0.111,5.589,1.465,7.413,3.816c0.401,0.518,0.306,1.26-0.209,1.662  c-0.519,0.399-1.259,0.305-1.661-0.21c-1.387-1.789-3.386-2.817-5.629-2.901c-4.781-0.238-9.083,3.979-9.673,9.241  c-0.396,3.534,1.004,6.795,3.653,8.513c0.549,0.356,0.705,1.089,0.349,1.639C21.4,51.371,21.02,51.561,20.633,51.561z"></path><path d="M64.816,82.655c-1.562,0-3.093-0.365-4.489-1.084c-0.58-0.301-0.809-1.015-0.509-1.595c0.301-0.583,1.02-0.81,1.596-0.509  c1.798,0.925,3.908,1.072,5.942,0.404c2.44-0.8,4.551-2.688,5.785-5.18c1.62-3.257,1.521-7.018-0.257-9.818  c-0.351-0.551-0.187-1.283,0.365-1.632c0.548-0.35,1.283-0.189,1.632,0.365c2.222,3.494,2.367,8.146,0.379,12.139  c-1.514,3.056-4.128,5.379-7.167,6.375C67.01,82.478,65.904,82.655,64.816,82.655z"></path><path d="M60.87,81.703c-0.185,0-0.372-0.042-0.545-0.134c-2.58-1.341-4.429-3.722-5.205-6.706c-0.167-0.633,0.212-1.278,0.846-1.442  c0.638-0.175,1.278,0.216,1.442,0.847c0.607,2.327,2.029,4.174,4.008,5.203c0.58,0.3,0.807,1.015,0.504,1.595  C61.71,81.472,61.298,81.703,60.87,81.703z"></path><path d="M73.884,65.424c-0.622,0-1.145-0.485-1.182-1.114c-0.039-0.651,0.458-1.211,1.112-1.25c3.25-0.194,6.269-2.332,7.879-5.58  c2.369-4.772,0.941-10.39-3.183-12.519c-1.967-1.012-4.257-1.091-6.453-0.227c-0.599,0.245-1.297-0.058-1.535-0.665  c-0.24-0.608,0.059-1.295,0.666-1.535c2.831-1.123,5.822-1.01,8.406,0.323c5.268,2.721,7.161,9.752,4.221,15.676  c-1.987,4.006-5.767,6.646-9.862,6.889C73.93,65.424,73.906,65.424,73.884,65.424z"></path><path d="M43.655,46.022c-0.326,0-0.652-0.135-0.885-0.397l-9.888-11.148c-0.434-0.49-0.39-1.236,0.101-1.671  c0.484-0.432,1.234-0.391,1.67,0.099l9.888,11.148c0.435,0.49,0.389,1.236-0.099,1.671C44.214,45.923,43.935,46.022,43.655,46.022z"></path><path d="M56.211,50.078c-0.492,0-0.952-0.31-1.121-0.802c-0.211-0.617,0.12-1.29,0.739-1.502l15.561-5.31  c0.607-0.203,1.29,0.12,1.502,0.739c0.211,0.617-0.12,1.29-0.739,1.503l-15.561,5.31C56.467,50.058,56.338,50.078,56.211,50.078z"></path></svg>