<svg fill="#000000" xmlns="http://www.w3.org/2000/svg" xmlns:xlink="http://www.w3.org/1999/xlink" version="1.1" x="0px" y="0px" viewBox="0 0 100 100" enable-background="new 0 0 100 100" xml:space="preserve"><path d="M55.867,8.128c-0.061-0.242-0.22-0.75-0.583-1.35C54.93,6.193,52.194,6,49.994,6c-2.2,0-4.922,0.193-5.278,0.779  c-0.364,0.6-0.521,1.107-0.583,1.35c-0.021,0.046-0.035,0.097-0.035,0.152c0,0.193,0.138,0.348,0.309,0.348h5.587h5.6  c0.17,0,0.309-0.154,0.309-0.348C55.902,8.225,55.889,8.174,55.867,8.128z"></path><path d="M63.87,47.105v-5.277l-0.006-0.011c-0.031-1.646-0.473-3.123-1.042-4.375c-0.566-1.541-1.409-2.947-2.462-4.167l0.005-0.023  c0,0-0.055-0.055-0.143-0.143c-0.374-0.419-0.778-0.81-1.201-1.18c-0.229-0.218-0.419-0.395-0.5-0.454  c-0.473-0.348-0.831-1.057-0.938-1.723c-0.147-2.182-0.349-5.058-0.476-6.586c-0.204-2.447-1.716-9.284-1.967-10.411  c0.471-0.023,0.845-0.409,0.845-0.884c0-0.494-0.399-0.892-0.891-0.892h-0.004V9.52h-5.097h-5.085v1.46h-0.003  c-0.492,0-0.89,0.398-0.89,0.892c0,0.482,0.383,0.872,0.863,0.887c-0.253,1.132-1.763,7.96-1.966,10.408  c-0.128,1.528-0.328,4.404-0.476,6.586c-0.106,0.666-0.467,1.375-0.939,1.723c-0.043,0.033-0.121,0.101-0.216,0.189  c-0.576,0.474-1.108,0.998-1.597,1.56c-0.017,0.016-0.029,0.028-0.029,0.028l0.001,0.004c-1.064,1.229-1.915,2.647-2.484,4.203  c-0.564,1.249-1.004,2.72-1.036,4.358l-0.006,0.011v5.277c0,0.329,0.18,0.612,0.445,0.767v35.413  c-0.209,0.163-0.346,0.414-0.346,0.699v5.676c0,2.09,1.694,3.783,3.784,3.783c0,0,0.179,0.022,0.506,0.057  C41.709,93.641,45.188,94,49.75,94c0.084,0,0.167-0.001,0.251-0.002C50.083,93.999,50.167,94,50.25,94  c4.562,0,8.041-0.359,9.232-0.501c0.326-0.034,0.506-0.057,0.506-0.057c2.089,0,3.783-1.693,3.783-3.783v-5.676  c0-0.285-0.137-0.536-0.347-0.699V47.872C63.691,47.717,63.87,47.434,63.87,47.105z M59.799,39.113  c-0.551-1.497-1.354-2.853-2.395-4.06l-0.135-0.156l0.001-0.006c-0.35-0.389-0.724-0.756-1.161-1.14  c-0.358-0.341-0.451-0.416-0.471-0.431c-0.198-0.146-0.24-0.424-0.095-0.622c0.146-0.199,0.425-0.241,0.623-0.094  c0.062,0.044,0.179,0.142,0.543,0.49c0.459,0.402,0.864,0.8,1.227,1.207l0.284,0.284l-0.007,0.046  c1.046,1.248,1.855,2.642,2.407,4.146c0.674,1.477,1.037,3,1.069,4.496c0.013,0.169-0.07,0.34-0.227,0.428  c-0.069,0.038-0.146,0.056-0.219,0.056c-0.155,0-0.304-0.08-0.383-0.227l-0.061-0.107l-0.001-0.11  C60.774,41.932,60.437,40.52,59.799,39.113z M61.696,81.84c0,0.246-0.198,0.444-0.444,0.444s-0.446-0.198-0.446-0.444V49.999  c0-0.245,0.2-0.445,0.446-0.445s0.444,0.2,0.444,0.445V81.84z M61.252,46.271c-0.281,0-0.511-0.228-0.511-0.509  c0-0.281,0.229-0.51,0.511-0.51s0.509,0.229,0.509,0.51C61.761,46.043,61.533,46.271,61.252,46.271z"></path></svg>