<svg fill="#000000" xmlns="http://www.w3.org/2000/svg" xmlns:xlink="http://www.w3.org/1999/xlink" version="1.1" x="0px" y="0px" viewBox="0 0 75 75" style="enable-background:new 0 0 75 75;" xml:space="preserve"><g transform="scale(1 -1)"><g transform="translate(0 -75)"><g><path marker-start="none" marker-end="none" d="M25.4,0.9c-1.3,0.4,1.7,8.1,2.1,9.4c0.4,1.2,1.7,8.7,3.2,7.8     c1.1-0.6-1.6-7.6-1.9-8.8C28.4,8.2,26.7,0.5,25.4,0.9z M49.7,4.4c-1.3,3.5-2.5,7-3.8,10.4c-0.6,1.7-1.4,3.5-1.9,5.2     c-0.3,1-0.4,2.8,1,1.6c1-0.9,1.4-4,1.9-5.2c0.6-1.6,1.1-3.1,1.7-4.7c0.6-1.7,1.3-3.5,1.9-5.2c0.2-0.5,0.9-1.6,0.5-2.1     C50.8,3.8,50,3.7,49.7,4.4z M37.6,7.4c-0.4,2.3-0.7,4.6-0.9,7c-0.1,0.7-0.5,5.3,1.2,3.3c0.8-1,0.5-5.3,0.7-6.8     c0.1-0.6,0.8-2.6,0.5-3.2C38.8,7.2,37.8,6.1,37.6,7.4z M20.6,11.7c-1.6,0.7,3.7,8.7,4.9,7.5C26.1,18.7,21.2,11.4,20.6,11.7z      M55.2,14.6c-1.5,1.5-3,3-4.4,4.6c-0.7,0.8-2.6,3.3-0.2,2.6c1.1-0.3,3.3-3.7,4.2-4.6c0.4-0.4,1.6-1.1,1.6-1.7     C56.4,14.9,56,13.9,55.2,14.6z M68.4,18.1c-3.4,1.7-6.7,3.4-10,5.2c-1.5,0.8-3,1.7-4.5,2.6c-0.5,0.3-3.6,2.2-1.3,2.4     c1.1,0.1,3.5-2,4.5-2.5c1.7-1,3.5-1.9,5.2-2.9c1.6-0.8,3.2-1.7,4.8-2.5c0.4-0.2,2.2-0.8,2.3-1.4C69.6,18.4,69.1,17.7,68.4,18.1z      M4.8,18.5c-0.6,1.2,7.5,4.5,8.6,5c1,0.5,8.8,4.9,9.2,3.7c0.5-1.4-6.9-4.2-8.1-4.8C13.3,21.8,5.4,17.2,4.8,18.5z M28.7,27.8     c-6.3,5.3-6,14.4,0,19.8c6.7,6,15.9,3.1,20-4.5c2.9-5.6,1.8-12.5-3.6-16.2C40,23.5,33.3,23.9,28.7,27.8z M48.6,38.5     c-1.1,6.8-9,13.5-15.9,10.1c-6.2-3.1-9.1-10.1-5.7-16.4C32.7,21.8,50.7,25.9,48.6,38.5z M11,28.7c-0.3,1.2,7.9,3.2,8.1,2.2     C19.4,29.4,11.3,27.4,11,28.7z M57.3,30.9c-0.7,0.2-0.7,1-0.2,1.4c0.5,0.4,1.6-0.2,2.1-0.3c1.4-0.3,4.6-0.2,5.7-0.9     c1.6-1.1-0.1-1.4-1.2-1.4C61.6,29.8,59.3,30.4,57.3,30.9z M1.9,39.3c-0.4,0.1-0.6,0.5-0.6,0.9c0.1,0.8,1,0.5,1.4,0.5     c1.4,0.1,3.3-0.6,4.7-0.8c1.6-0.2,3.1-0.5,4.7-0.6c1.1-0.1,3.8,0.1,4.7-0.5c0.9-0.6,0.8-1.1-0.1-1.5c-1-0.4-3.7,0.4-4.8,0.5     C8.6,38.1,5.3,38.6,1.9,39.3z M55.3,38.8c-0.3,1.2,8.1,2.9,9.4,3.3c1.1,0.4,9.2,3.8,9.5,2.7c0.4-1.6-7.7-3.7-9-4.2     C63.9,40.3,55.7,37.3,55.3,38.8z M18.4,43c-1.7,0.8-3.4,1.5-5,2.3c-1.1,0.5-2.9,1.7-0.8,2c1,0.1,3.6-1.7,4.6-2.1     c0.4-0.2,2.1-0.7,2.2-1.3C19.5,43.4,19,42.7,18.4,43z M55,45.4c-0.7,1,6.8,6.5,7.6,5.5C63.3,49.9,55.7,44.5,55,45.4z M23.7,50.6     c-2.3,2.2-4.6,4.4-6.8,6.6c-1.1,1-2.6,2.1-3.4,3.3c-0.6,0.9-0.8,1.9,0.7,1.4c0.9-0.3,2.3-2.2,3-2.9c1.1-1.1,2.3-2.2,3.4-3.3     c1.1-1.1,2.4-2.1,3.4-3.3c0.4-0.4,1.2-0.8,0.9-1.5C24.7,50.4,24.2,50.1,23.7,50.6z M49,50.6c-0.8,1,5.9,6.2,6.9,7.1     c0.9,0.8,6.9,7.3,7.6,6.4c1-1.3-5.5-6.5-6.6-7.5C56,55.8,50,49.5,49,50.6z M30.1,53.8c-1.3,1.7-2.5,3.4-3.7,5.1     c-0.6,0.9-2.1,3.6,0.1,2.6c1.1-0.5,2.7-4.1,3.5-5.1c0.4-0.5,1.4-1.4,1.3-1.9C31.3,53.9,30.7,53,30.1,53.8z M44.2,56.1     c-1.4,0.3,1.1,9.3,2.4,8.8C47.7,64.6,45.2,55.9,44.2,56.1z M35.8,58.9c-0.3,3-0.5,6-0.4,8.9c0,1.5,0,3.2,0.3,4.7     c0.1,0.8,0.6,2.7,1.5,1.1c0.5-0.8-0.2-3.2-0.2-4.1c-0.1-1.7-0.1-3.3,0-5c0-1.5,0.2-3,0.3-4.4c0-0.4,0.4-1.6-0.3-1.8     C36.5,58.3,35.9,58.3,35.8,58.9z"></path></g></g></g></svg>