<svg fill="#000000" xmlns="http://www.w3.org/2000/svg" xmlns:xlink="http://www.w3.org/1999/xlink" version="1.1" x="0px" y="0px" viewBox="0 0 100 100" enable-background="new 0 0 100 100" xml:space="preserve"><g><path fill="#000000" d="M23.608,67.989c10.377,6.398,25.873,6.794,44.814,1.141c5.481-1.635,17.9-8.771,24.619-14.713   c0.074-0.695,0.136-1.565,0.159-2.676c0.026-0.214,0.061-0.425,0.082-0.64c1.546-15.282-7.63-29.354-21.806-35.724l-1.18-5.593   c0,0-0.862,0.244-2.127,0.571c-10.921,4.22-26.778,16.154-29.904,49.31l-8.344-3.421c0,0,4.928-24.318,16.928-35.627   c3.722-3.507,8.116-6.376,12.51-8.588c-0.193,0.002-0.371-0.002-0.525-0.018c-20.306-2.054-35.579,10.07-41.33,29.501   l-3.466,15.614l-0.062,0.423C14.903,59.544,17.602,64.287,23.608,67.989z"></path><path fill="#000000" d="M44.205,75.929c-7.862,0-15.669-1.501-22.272-5.636c-5.423-3.395-8.372-7.514-9.833-10.152   c-1.516,2.117-3.657,5.31-5.247,8.523c-2.734,5.524-2.486,8.588,1.036,10.289c24.842,11.999,33.157,14.2,46.852,7.597   c0,0,23.832-11.592,38.234-23.38c1.1-0.9,3.127-5.141,1.277-6.035c-7.122,6.045-19.455,13.059-25.018,14.718   C61.914,74.037,53.025,75.929,44.205,75.929z"></path></g></svg>