<svg fill="#000000" xmlns="http://www.w3.org/2000/svg" xmlns:xlink="http://www.w3.org/1999/xlink" version="1.1" x="0px" y="0px" viewBox="0 0 100 100" enable-background="new 0 0 100 100" xml:space="preserve"><path d="M90.046,29.928c-0.086-0.614-0.583-1.138-1.294-1.258s-4.263-0.926-5.384-0.954c-1.123-0.029-2.649-0.17-3.471,0.013  s-1.652,0.774-1.974,1.378c-0.322,0.604-2.966,4.211-3.824,5.821c-0.857,1.61-2.023,3.316-2.023,3.316s-0.682-1.243-2.187-2.302  c-1.503-1.06-2.204-1.587-2.603-2.006c-0.396-0.417-0.572-1.546-0.258-1.844c0.313-0.298,0.035-1.325-0.364-1.744  c-0.398-0.419-1.604-1.112-3.846-1.272c-2.241-0.159-2.648-0.169-2.648-0.169s-1.455-0.956-3.227-1.512s-3.142-0.846-3.446-0.904  c-0.305-0.06-1.061-0.436-0.99-1.199c0.069-0.764,0.836-0.795,0.831-2.582c-0.005-1.785-1.709-3.003-5.23-2.991  c-3.521,0.012-5.634,0.826-5.736,2.812c-0.102,1.988,1.014,2.221,0.848,2.777c-0.167,0.558-0.482,0.855-0.636,0.902  c-0.154,0.048-2.36,0.551-3.855,1.125c-1.494,0.575-2.937,1.099-2.937,1.099s-2.042,0.05-3.115,0.074  c-1.072,0.023-2.505,0.19-2.505,0.19s-2.842-4.562-9.608-3.409c-6.765,1.153-8.397,9.071-8.626,10.086  c-0.23,1.016-0.944,8.956,1.775,14.334c2.72,5.376,3.502,6.723,3.502,6.723l0.193,0.414c0,0-0.097,3.772,2.011,9.134  c2.108,5.36,6.805,9.257,7.302,9.779c0.497,0.524,6.642,3.641,19.812,3.468s17.594-1.59,19.561-2.663  c1.966-1.072,3.624-2.049,5.098-3.849c1.476-1.799,2.022-3.214,2.022-3.214s3.3-1.345,5.324-4.66  c2.024-3.315,2.644-7.587,2.892-9.314c0.248-1.729,0.848-9.164,1.326-11.908c0.478-2.742,1.209-7.315,2.986-9.006  c1.779-1.688,1.993-2.092,2.926-2.68C89.602,31.345,90.132,30.542,90.046,29.928z M19.091,51.031  c-2.351-4.702-3.134-13.582-0.785-17.501c2.351-3.918,5.486-3.135,5.486-2.09s1.306,2.09,1.306,2.09  C17.263,44.24,19.091,51.031,19.091,51.031z"></path></svg>