<svg fill="#000000" xmlns="http://www.w3.org/2000/svg" viewBox="0 0 306.91 356.69" x="0px" y="0px"><title>X - vote</title><g data-name="Layer 2"><g data-name="Layer 1"><path d="M306.91,243.52c-1.08,2.5-2.91,3.53-5,4.58-4.7,2.38-9.24,5.08-13.81,7.71q-19.54,11.23-39,22.53C236,286,222.91,293.75,209.81,301.42c-12,7-24.07,13.94-36.06,21-6.62,3.88-13.13,7.95-19.74,11.84s-13.33,7.58-19.9,11.52c-5.61,3.37-11.5,6.3-16.63,10.44a5.55,5.55,0,0,1-1.6.51,62.92,62.92,0,0,1-3.31-6.7c-1.79-5-3.81-9.83-5.87-14.68-3-7.06-6.16-14-9.18-21.1-4.34-10.13-8.58-20.31-12.92-30.44s-8.77-20.24-13.13-30.37Q60.16,227.21,48.89,201c-3-6.89-6.07-13.74-9-20.64-3.83-9-7.52-18-11.36-26.94-3.14-7.34-6.46-14.61-9.61-21.94-2-4.7-3.85-9.47-5.83-14.18-1.66-4-3.33-8-5.13-11.87-2.21-4.78-4.57-9.48-6.87-14.22A14.48,14.48,0,0,1,.3,89.46c-.77-2.34-.06-3.95,2.24-5.08.72-.35,1.47-.63,2.21-.92C11,81,16.93,77.85,22.91,74.81,30,71.19,37.22,67.7,44.37,64.14q16.09-8,32.18-16c7.16-3.55,14.36-7,21.51-10.59q21.44-10.7,42.85-21.47c4.85-2.43,9.72-4.84,14.54-7.35,3.38-1.76,6.68-3.66,10.1-5.54L165,.38c.65-.71,1.24-.29,1.56.23,4.28,7.12,8.57,14.24,12.76,21.41,6,10.21,11.85,20.47,17.78,30.7,3.21,5.53,6.4,11.07,9.69,16.55,3.53,5.88,7.1,11.74,10.19,17.88a30.76,30.76,0,0,0,2.42,3.43c2.62-3.85,3.6-7.9,5.25-11.62,1.76-3.94,3.32-8,5-11.94s3.26-7.65,4.85-11.49,3.11-7.7,4.67-11.56,3.1-7.71,4.69-11.55,3.42-7.92,5.06-11.91c1.58-3.83,3.07-7.71,4.61-11.59a22.49,22.49,0,0,1,11.34-.72c6.16,1,12,3.13,17.87,5,2.19.7,4.06,2.37,6.1,3.55,3.5,2,6.25,4.91,9.08,7.72a1.89,1.89,0,0,1-.14,2.87c-.65.56-1.27,1-1.09,1.9.55,2.72-.81,5-1.74,7.35C293,41.36,291,46,289,50.76q-9,21.43-18,42.86c-3.9,9.28-7.86,18.52-11.7,27.82-3.11,7.53-6.09,15.11-9.18,22.79a159.3,159.3,0,0,0,8.41,15.54c3.55,6.07,7,12.22,10.49,18.29,3.05,5.24,6.21,10.42,9.3,15.63.57,1,1,2,1.52,3a20.45,20.45,0,0,0,1.72,3.39c5,6.5,8.6,13.83,12.66,20.88,2.55,4.43,5.05,8.89,7.59,13.33a19.06,19.06,0,0,0,1.27,2,19.64,19.64,0,0,1,2.07,2.58A45,45,0,0,1,306.91,243.52ZM230,134.46c1.11.3,1.29-.43,1.38-1.25.83-1.34,1.7-2.66,2.47-4,.27-.48.52-1.16-.37-1.46-1.89,1.44-1.85,3.55-2,5.6-.51.4-1,.8-1.51,1.25Zm33.06-76.26a3,3,0,0,0,.56-.7c.07-.17-.08-.43-.14-.65-.14.19-.38.37-.41.58a3.43,3.43,0,0,0,.11.89l-.53.66ZM268,72c-.26.08-.58.08-.74.25s.07.45.13.69c.1-.08.25-.15.3-.25a5.17,5.17,0,0,0,.2-.8,5.1,5.1,0,0,0,.63-.56c.07-.08,0-.27,0-.41-.2.08-.56.13-.58.25A2.52,2.52,0,0,0,268,72Zm-8-8a1.87,1.87,0,0,0-.28,2.53l.57-2.27a5.15,5.15,0,0,0,.86-.94c.1-.18-.1-.52-.17-.79a3.22,3.22,0,0,0-.94.59C259.92,63.28,260,63.68,260,64ZM120.32,340.9a27.92,27.92,0,0,0,3.6-1.35c3.51-1.9,7-3.85,10.44-5.89,10.85-6.45,21.65-13,32.51-19.42,6.87-4.07,13.83-8,20.71-12.06,10.73-6.33,21.43-12.73,32.15-19.09q21-12.46,42.08-24.9c6.45-3.83,12.78-7.86,19.54-11.14,3.59-1.74,7-3.84,10.46-5.83a21.29,21.29,0,0,0,2.39-1.91c-.91-1.84-1.68-3.58-2.61-5.23-2.59-4.58-5.24-9.14-7.89-13.69q-8.69-14.91-17.41-29.8-5.68-9.72-11.34-19.46-3.5-6-7-12c-.64-1.08-1.07-2.38-2.73-2.57-1.35,1.77-1.84,4-2.61,6a17.4,17.4,0,0,1-2.42,5.15c-3.48,4.16-7.27,8.06-10.89,12.11-3.18,3.57-6.9,6.59-9.79,10.48-2.08,2.79-4.81,5.1-7.23,7.63a8.46,8.46,0,0,0-1.86,2.12c-2.23,5.12-4.33,10.3-6.49,15.45-.42,1-.9,2-1.38,3a24.91,24.91,0,0,0-4,0c-2.19.38-4.09-.47-6.06-1.1a2.23,2.23,0,0,1-1.71-2.55,20.59,20.59,0,0,1,1.33-5.53c2.52-5.3,3.13-11,3.92-16.68.53-3.74.06-7.67-.36-11.47-.62-5.69-.34-11.47-1.68-17.1-.48-2-.48-4.13-1.07-6.1a6.83,6.83,0,0,1,.6-5.51c1.27-2.4,2.48-4.84,3.55-7.33q7-16.3,13.85-32.65c1.54-3.66,3-7.36,4.42-10.86-.93-1.35-1.72-2.35-2.36-3.44Q196.42,70.12,180,42c-4.58-7.87-9-15.84-13.5-23.77-.63-1.12-1.14-2.32-2.82-2.67-.69.3-1.58.63-2.42,1L127.35,33.5,96.07,49.15Q67.13,63.62,38.2,78.1c-7.14,3.57-14.32,7.07-21.47,10.64-1.53.76-3.14,1.47-4.17,3,.55,1.46,1,2.83,1.56,4.15,2.33,5.43,4.71,10.84,7,16.28,1.38,3.23,2.65,6.51,4,9.74,3.71,8.66,7.48,17.3,11.17,26,2.88,6.76,5.64,13.56,8.52,20.31,3.58,8.36,7.25,16.68,10.84,25,1.89,4.4,3.64,8.86,5.56,13.26,4.46,10.26,9,20.48,13.48,30.73q12.55,28.78,25,57.59c5.39,12.46,10.71,25,16.06,37.43C117.1,335.17,118.19,338.16,120.32,340.9Zm90.75-181a3.31,3.31,0,0,1-2.89-1.7c-1.11-1.74-2.28-3.44-3.55-5.07s-2.94-1.26-4.43-.91-1.63,1.8-1.59,3.13a28.57,28.57,0,0,0,.19,3.82c.55,3.29,1.2,6.57,1.85,9.85,1.2,6,1.11,12,1.51,18.08.2,3,.06,6.06.16,9.09a5.45,5.45,0,0,0,.69,1.66,7.92,7.92,0,0,0,1.49-.81c.82-.76,1.58-1.57,2.34-2.39,1.95-2.1,3.87-4.22,5.81-6.33,6.35-6.92,12.72-13.83,19-20.79a13.08,13.08,0,0,0,1.49-2.57c-2.09-3.51-4.59-1.46-7.12-.77-.75-1.4-1.46-2.61-2-3.87a6.32,6.32,0,0,0-2.94-3c-2.91-1.57-5.5-1.11-8,.8C212.33,158.73,211.66,159.4,211.07,159.92Zm20.08-4.82c.31-1.28.66-2.81,1.07-4.31a29.17,29.17,0,0,1,1.25-4.08c2.49-5.69,5.14-11.32,7.6-17q7.76-18,15.38-36.14c5.08-12.06,10.09-24.15,15.12-36.22.74-1.77,1.52-3.53,2.09-5.35a3,3,0,0,0-.26-2.22,2,2,0,0,0-3.49.19c-1.49,3.18-2.88,6.41-4.23,9.65-3.73,9-7.39,18-11.13,27q-4.79,11.5-9.7,22.95c-4,9.25-8.06,18.44-12,27.71-1.74,4.11-3.15,8.36-4.83,12.5a5.06,5.06,0,0,0,.08,4.16A2.08,2.08,0,0,0,231.15,155.1ZM213,147.85a32.64,32.64,0,0,0,1.78-2.86c2.32-4.9,4.72-9.77,6.86-14.75,4.11-9.53,8-19.13,12.08-28.7q7.45-17.66,14.94-35.31c1.37-3.23,2.76-6.45,4.09-9.7,1.52-3.69,3-7.39,4.42-11.12a2.9,2.9,0,0,0-.12-2.24c-.32-.53-1.25-.7-2.08-1.11a22.65,22.65,0,0,0-1.33,2.23c-1.42,3.21-2.84,6.43-4.17,9.67-3.82,9.3-7.49,18.67-11.42,27.93q-9.46,22.26-19.22,44.4c-1.55,3.51-2.83,7.1-4.06,10.72a14.14,14.14,0,0,1-1.8,3.85C210.66,144.06,210.59,144,213,147.85Zm40.83-88.77c-1,1.43-1.92,2.78-1.81,4.73C255.49,62.24,255.59,62,253.86,59.07Zm-40.91,55.32c2.41-2.4,2.41-2.4,2-5.73C214,111,213.22,112.31,212.95,114.39Zm30.34-27.54c.59-1.09,1.19-2.09,1.67-3.14.25-.56.31-1.24-.64-1.3C243.17,84.61,243.17,84.61,243.29,86.86Zm-6.76-27.41c-1.31.77-1.86,1.69-.77,3.24C236.93,61.83,237.62,61,236.53,59.44Zm11.29,35.08a7.72,7.72,0,0,0-1.9.89,2.19,2.19,0,0,0-.47,1.25c0,.18.44.6.59.56a2.18,2.18,0,0,0,1.14-.64A8.33,8.33,0,0,0,247.81,94.53Zm10.89,2.78c-.32-.57-.4-.93-.62-1.06-.55-.33-1.4.48-1.45,1.42,0,.23.26.49.41.73Zm7.66-11.4-1.72-1c-.12.26-.4.67-.33.75a8.45,8.45,0,0,0,1.34,1.12S266,86.37,266.37,85.91Zm-62.12,51.31-.44-.88a5.34,5.34,0,0,0-1,.83c-.08.1.22.49.34.74Zm65.66-69.62a21.18,21.18,0,0,0,1.31-2.13c.08-.17-.19-.5-.3-.76-.26.16-.69.28-.75.5A17,17,0,0,0,269.92,67.59Zm-26.55-24,.77.57a8.54,8.54,0,0,0,.38-1.36c0-.26-.17-.54-.26-.81-.38.14-.94.17-1.08.43S243.29,43.23,243.37,43.62ZM249,89c.46-.42,1-.66,1-1s-.31-.71-.49-1.08c-.35.22-.89.38-1,.69S248.81,88.4,249,89Zm2.8-19.67a5.47,5.47,0,0,0-1.32-.65c-.17,0-.62.48-.58.56a1.89,1.89,0,0,0,.79.92C250.91,70.24,251.31,69.75,251.83,69.34ZM278.11,20.7l-.92.55a5.57,5.57,0,0,0,.78.94c.06.05.68-.34.66-.45A4.25,4.25,0,0,0,278.11,20.7Zm-24.2,85.92-.43-.86c-.25.14-.62.22-.73.43s0,.56.07.84ZM238.8,97c-.25.13-.6.2-.71.4s.05.51.1.77c.25-.14.59-.21.73-.42S238.85,97.29,238.8,97Zm-18.4.35a6.33,6.33,0,0,0,.92-1c.09-.15-.15-.5-.24-.75a1.67,1.67,0,0,0-.42.19C220.14,96.21,219.77,96.68,220.4,97.38Zm34-21.88-.38-.08.34.62.3-.19Zm8.33-48.78c-.25.12-.67.21-.69.37s.18.55.29.82l.94-.56ZM247.23,51l-.13-.34c-.23.11-.46.21-.67.34a1.89,1.89,0,0,0,.12.32Zm-31.82,69.16a5.41,5.41,0,0,0-.61.51s.13.24.2.37a5.27,5.27,0,0,0,.61-.51S215.48,120.29,215.41,120.16Zm65.27-92.25c.11-.1.33-.26.31-.3a5.8,5.8,0,0,0-.45-.69l-.58.44ZM222.17,149.42l.62-.43c-.11-.1-.27-.29-.34-.27a3.67,3.67,0,0,0-.62.41ZM239,112.55l-.51-.67c-.17.24-.46.47-.46.71s.31.44.49.66Zm18.51-7.2.17-.41a6.34,6.34,0,0,0-.83-.05s-.07.26-.11.39ZM224.13,89.93l-.38-.06.15.35ZM258.88,55l-.25-.8c-.26.12-.6.17-.74.37s.13.46.21.7Zm-58.65,92.46.67-.44c-.1-.11-.21-.31-.31-.31a4.17,4.17,0,0,0-.79.16Zm46.25-99.86-.14-.43-.39.18.31.63ZM277.71,60c.24-.13.6-.22.67-.42s-.1-.54-.17-.82c-.23.13-.6.22-.67.42S277.64,59.68,277.71,60Zm-53.92,72.13-.55-.45c-.08.1-.25.23-.23.31a3.91,3.91,0,0,0,.27.68Zm26.68-5.47c-.23-.11-.55-.37-.67-.29s-.3.46-.44.7c.26.11.55.36.75.3S250.36,126.87,250.47,126.62Zm23.38-82.15-.7-.05c.11.08.22.22.33.23S273.73,44.53,273.85,44.47Zm-4.3,31.71-.35-.27a4.49,4.49,0,0,0-.32.73c0,.06.2.19.32.28Zm-2.36-28.35.15.33.14-.34ZM233,119.48c0-.12,0-.29-.11-.34s-.24,0-.36,0l.2.51Zm6.7,24.49.07-.37-.47.1a1.1,1.1,0,0,0,.13.33S239.59,144,239.69,144Zm2.84-42.5-.26,0,.1.31ZM231.88,112c-.07.1-.2.21-.21.31s.11.22.17.33c.07-.1.2-.2.21-.31S231.94,112.16,231.88,112Z"></path><path d="M166.41,289.2c-3.06-1.34-5.49-2.5-8-3.47-3.27-1.28-4.15-3.64-2.47-6.76s3.35-6.52,5.09-9.74a28.41,28.41,0,0,1,2.17-3.11,15.12,15.12,0,0,0,3.11-6.52c-3.35-3.15-7.88-4.14-11.69-6.39-3.66-2.16-7.56-3.9-11.3-5.8a7.73,7.73,0,0,1,.94-4.9,33.63,33.63,0,0,0,4-9.2c.18-.66.87-1.19,1.5-2,3.84,3,7.39,5.92,11.56,7.94s7.72,5,12.29,6.84a96.72,96.72,0,0,0,13.5-23.93c4.39,1.85,8.57,3.74,13.07,3.7,1,1.82-.08,2.95-.86,4.13-1.84,2.8-3.88,5.49-5.51,8.4-2.4,4.3-4.51,8.77-6.79,13.26,3.52,2.94,7.58,4.25,11.72,5.44s8.19,2.42,12.34,3.64c.08.22.34.57.26.79A174.6,174.6,0,0,1,203.68,278c-2.78-1.36-5.31-2.61-7.85-3.83s-4.68-3.13-7.54-4c-2.62-.82-4.85-2.89-7.41-4.51a16.69,16.69,0,0,0-2.42,2.58c-2.66,4.54-5.47,9-7.17,14a29.3,29.3,0,0,1-3.09,5.89C167.84,288.7,166.89,288.92,166.41,289.2ZM206,262.53a4.61,4.61,0,0,0-1.07.31,1.7,1.7,0,0,0,.26,1.11,1.82,1.82,0,0,0,1.18.35c.18,0,.55-.52.5-.62A8.48,8.48,0,0,0,206,262.53Zm-43.69,15.54c-.1-.25-.15-.67-.3-.71s-.52.15-.78.25l.31.79Zm5.24-27.26c-.07.12-.21.32-.19.34a3.51,3.51,0,0,0,.5.34c0-.14.06-.3,0-.41S167.68,250.9,167.56,250.82Zm-7.7,0,.82.4a4.22,4.22,0,0,0,.17-.72.54.54,0,0,0-.4-.15A3.17,3.17,0,0,0,159.86,250.86Zm2.44-2.93c.06.13.15.37.19.36a5,5,0,0,0,.73-.22c-.07-.13-.15-.36-.19-.36A4.7,4.7,0,0,0,162.3,247.93Zm29.12,9.43a4.42,4.42,0,0,0-.8-.22c-.09,0-.19.2-.29.31a2.34,2.34,0,0,0,.69.37C191.12,257.84,191.27,257.53,191.42,257.36Z"></path></g></g></svg>